%TF.GenerationSoftware,KiCad,Pcbnew,9.0.7*%
%TF.CreationDate,2026-01-02T20:19:55+01:00*%
%TF.ProjectId,pcb_phone_controller,7063625f-7068-46f6-9e65-5f636f6e7472,rev?*%
%TF.SameCoordinates,Original*%
%TF.FileFunction,Legend,Bot*%
%TF.FilePolarity,Positive*%
%FSLAX46Y46*%
G04 Gerber Fmt 4.6, Leading zero omitted, Abs format (unit mm)*
G04 Created by KiCad (PCBNEW 9.0.7) date 2026-01-02 20:19:55*
%MOMM*%
%LPD*%
G01*
G04 APERTURE LIST*
%ADD10C,0.200000*%
%ADD11C,0.150000*%
%ADD12C,0.000000*%
G04 APERTURE END LIST*
D10*
X208225000Y-131050000D02*
X214750000Y-131050000D01*
X214750000Y-147575000D01*
X208225000Y-147575000D01*
X208225000Y-131050000D01*
D11*
X217640827Y-123306074D02*
X217593208Y-123258455D01*
X217593208Y-123258455D02*
X217450351Y-123163217D01*
X217450351Y-123163217D02*
X217355113Y-123115598D01*
X217355113Y-123115598D02*
X217212256Y-123067979D01*
X217212256Y-123067979D02*
X216974160Y-123020360D01*
X216974160Y-123020360D02*
X216783684Y-123020360D01*
X216783684Y-123020360D02*
X216545589Y-123067979D01*
X216545589Y-123067979D02*
X216402732Y-123115598D01*
X216402732Y-123115598D02*
X216307494Y-123163217D01*
X216307494Y-123163217D02*
X216164636Y-123258455D01*
X216164636Y-123258455D02*
X216117017Y-123306074D01*
X217164636Y-124258455D02*
X217212256Y-124210836D01*
X217212256Y-124210836D02*
X217259875Y-124067979D01*
X217259875Y-124067979D02*
X217259875Y-123972741D01*
X217259875Y-123972741D02*
X217212256Y-123829884D01*
X217212256Y-123829884D02*
X217117017Y-123734646D01*
X217117017Y-123734646D02*
X217021779Y-123687027D01*
X217021779Y-123687027D02*
X216831303Y-123639408D01*
X216831303Y-123639408D02*
X216688446Y-123639408D01*
X216688446Y-123639408D02*
X216497970Y-123687027D01*
X216497970Y-123687027D02*
X216402732Y-123734646D01*
X216402732Y-123734646D02*
X216307494Y-123829884D01*
X216307494Y-123829884D02*
X216259875Y-123972741D01*
X216259875Y-123972741D02*
X216259875Y-124067979D01*
X216259875Y-124067979D02*
X216307494Y-124210836D01*
X216307494Y-124210836D02*
X216355113Y-124258455D01*
X217640827Y-124591789D02*
X217593208Y-124639408D01*
X217593208Y-124639408D02*
X217450351Y-124734646D01*
X217450351Y-124734646D02*
X217355113Y-124782265D01*
X217355113Y-124782265D02*
X217212256Y-124829884D01*
X217212256Y-124829884D02*
X216974160Y-124877503D01*
X216974160Y-124877503D02*
X216783684Y-124877503D01*
X216783684Y-124877503D02*
X216545589Y-124829884D01*
X216545589Y-124829884D02*
X216402732Y-124782265D01*
X216402732Y-124782265D02*
X216307494Y-124734646D01*
X216307494Y-124734646D02*
X216164636Y-124639408D01*
X216164636Y-124639408D02*
X216117017Y-124591789D01*
X216355113Y-126067980D02*
X216307494Y-126115599D01*
X216307494Y-126115599D02*
X216259875Y-126210837D01*
X216259875Y-126210837D02*
X216259875Y-126448932D01*
X216259875Y-126448932D02*
X216307494Y-126544170D01*
X216307494Y-126544170D02*
X216355113Y-126591789D01*
X216355113Y-126591789D02*
X216450351Y-126639408D01*
X216450351Y-126639408D02*
X216545589Y-126639408D01*
X216545589Y-126639408D02*
X216688446Y-126591789D01*
X216688446Y-126591789D02*
X217259875Y-126020361D01*
X217259875Y-126020361D02*
X217259875Y-126639408D01*
X216259875Y-127258456D02*
X216259875Y-127353694D01*
X216259875Y-127353694D02*
X216307494Y-127448932D01*
X216307494Y-127448932D02*
X216355113Y-127496551D01*
X216355113Y-127496551D02*
X216450351Y-127544170D01*
X216450351Y-127544170D02*
X216640827Y-127591789D01*
X216640827Y-127591789D02*
X216878922Y-127591789D01*
X216878922Y-127591789D02*
X217069398Y-127544170D01*
X217069398Y-127544170D02*
X217164636Y-127496551D01*
X217164636Y-127496551D02*
X217212256Y-127448932D01*
X217212256Y-127448932D02*
X217259875Y-127353694D01*
X217259875Y-127353694D02*
X217259875Y-127258456D01*
X217259875Y-127258456D02*
X217212256Y-127163218D01*
X217212256Y-127163218D02*
X217164636Y-127115599D01*
X217164636Y-127115599D02*
X217069398Y-127067980D01*
X217069398Y-127067980D02*
X216878922Y-127020361D01*
X216878922Y-127020361D02*
X216640827Y-127020361D01*
X216640827Y-127020361D02*
X216450351Y-127067980D01*
X216450351Y-127067980D02*
X216355113Y-127115599D01*
X216355113Y-127115599D02*
X216307494Y-127163218D01*
X216307494Y-127163218D02*
X216259875Y-127258456D01*
X216355113Y-127972742D02*
X216307494Y-128020361D01*
X216307494Y-128020361D02*
X216259875Y-128115599D01*
X216259875Y-128115599D02*
X216259875Y-128353694D01*
X216259875Y-128353694D02*
X216307494Y-128448932D01*
X216307494Y-128448932D02*
X216355113Y-128496551D01*
X216355113Y-128496551D02*
X216450351Y-128544170D01*
X216450351Y-128544170D02*
X216545589Y-128544170D01*
X216545589Y-128544170D02*
X216688446Y-128496551D01*
X216688446Y-128496551D02*
X217259875Y-127925123D01*
X217259875Y-127925123D02*
X217259875Y-128544170D01*
X216259875Y-129401313D02*
X216259875Y-129210837D01*
X216259875Y-129210837D02*
X216307494Y-129115599D01*
X216307494Y-129115599D02*
X216355113Y-129067980D01*
X216355113Y-129067980D02*
X216497970Y-128972742D01*
X216497970Y-128972742D02*
X216688446Y-128925123D01*
X216688446Y-128925123D02*
X217069398Y-128925123D01*
X217069398Y-128925123D02*
X217164636Y-128972742D01*
X217164636Y-128972742D02*
X217212256Y-129020361D01*
X217212256Y-129020361D02*
X217259875Y-129115599D01*
X217259875Y-129115599D02*
X217259875Y-129306075D01*
X217259875Y-129306075D02*
X217212256Y-129401313D01*
X217212256Y-129401313D02*
X217164636Y-129448932D01*
X217164636Y-129448932D02*
X217069398Y-129496551D01*
X217069398Y-129496551D02*
X216831303Y-129496551D01*
X216831303Y-129496551D02*
X216736065Y-129448932D01*
X216736065Y-129448932D02*
X216688446Y-129401313D01*
X216688446Y-129401313D02*
X216640827Y-129306075D01*
X216640827Y-129306075D02*
X216640827Y-129115599D01*
X216640827Y-129115599D02*
X216688446Y-129020361D01*
X216688446Y-129020361D02*
X216736065Y-128972742D01*
X216736065Y-128972742D02*
X216831303Y-128925123D01*
X217259875Y-131163218D02*
X217259875Y-130687028D01*
X217259875Y-130687028D02*
X216259875Y-130687028D01*
X216974160Y-131448933D02*
X216974160Y-131925123D01*
X217259875Y-131353695D02*
X216259875Y-131687028D01*
X216259875Y-131687028D02*
X217259875Y-132020361D01*
X217259875Y-132353695D02*
X216259875Y-132353695D01*
X216259875Y-132353695D02*
X216259875Y-132734647D01*
X216259875Y-132734647D02*
X216307494Y-132829885D01*
X216307494Y-132829885D02*
X216355113Y-132877504D01*
X216355113Y-132877504D02*
X216450351Y-132925123D01*
X216450351Y-132925123D02*
X216593208Y-132925123D01*
X216593208Y-132925123D02*
X216688446Y-132877504D01*
X216688446Y-132877504D02*
X216736065Y-132829885D01*
X216736065Y-132829885D02*
X216783684Y-132734647D01*
X216783684Y-132734647D02*
X216783684Y-132353695D01*
X217164636Y-133925123D02*
X217212256Y-133877504D01*
X217212256Y-133877504D02*
X217259875Y-133734647D01*
X217259875Y-133734647D02*
X217259875Y-133639409D01*
X217259875Y-133639409D02*
X217212256Y-133496552D01*
X217212256Y-133496552D02*
X217117017Y-133401314D01*
X217117017Y-133401314D02*
X217021779Y-133353695D01*
X217021779Y-133353695D02*
X216831303Y-133306076D01*
X216831303Y-133306076D02*
X216688446Y-133306076D01*
X216688446Y-133306076D02*
X216497970Y-133353695D01*
X216497970Y-133353695D02*
X216402732Y-133401314D01*
X216402732Y-133401314D02*
X216307494Y-133496552D01*
X216307494Y-133496552D02*
X216259875Y-133639409D01*
X216259875Y-133639409D02*
X216259875Y-133734647D01*
X216259875Y-133734647D02*
X216307494Y-133877504D01*
X216307494Y-133877504D02*
X216355113Y-133925123D01*
X217259875Y-134496552D02*
X217212256Y-134401314D01*
X217212256Y-134401314D02*
X217164636Y-134353695D01*
X217164636Y-134353695D02*
X217069398Y-134306076D01*
X217069398Y-134306076D02*
X216783684Y-134306076D01*
X216783684Y-134306076D02*
X216688446Y-134353695D01*
X216688446Y-134353695D02*
X216640827Y-134401314D01*
X216640827Y-134401314D02*
X216593208Y-134496552D01*
X216593208Y-134496552D02*
X216593208Y-134639409D01*
X216593208Y-134639409D02*
X216640827Y-134734647D01*
X216640827Y-134734647D02*
X216688446Y-134782266D01*
X216688446Y-134782266D02*
X216783684Y-134829885D01*
X216783684Y-134829885D02*
X217069398Y-134829885D01*
X217069398Y-134829885D02*
X217164636Y-134782266D01*
X217164636Y-134782266D02*
X217212256Y-134734647D01*
X217212256Y-134734647D02*
X217259875Y-134639409D01*
X217259875Y-134639409D02*
X217259875Y-134496552D01*
X217259875Y-135687028D02*
X216259875Y-135687028D01*
X217212256Y-135687028D02*
X217259875Y-135591790D01*
X217259875Y-135591790D02*
X217259875Y-135401314D01*
X217259875Y-135401314D02*
X217212256Y-135306076D01*
X217212256Y-135306076D02*
X217164636Y-135258457D01*
X217164636Y-135258457D02*
X217069398Y-135210838D01*
X217069398Y-135210838D02*
X216783684Y-135210838D01*
X216783684Y-135210838D02*
X216688446Y-135258457D01*
X216688446Y-135258457D02*
X216640827Y-135306076D01*
X216640827Y-135306076D02*
X216593208Y-135401314D01*
X216593208Y-135401314D02*
X216593208Y-135591790D01*
X216593208Y-135591790D02*
X216640827Y-135687028D01*
X217212256Y-136544171D02*
X217259875Y-136448933D01*
X217259875Y-136448933D02*
X217259875Y-136258457D01*
X217259875Y-136258457D02*
X217212256Y-136163219D01*
X217212256Y-136163219D02*
X217117017Y-136115600D01*
X217117017Y-136115600D02*
X216736065Y-136115600D01*
X216736065Y-136115600D02*
X216640827Y-136163219D01*
X216640827Y-136163219D02*
X216593208Y-136258457D01*
X216593208Y-136258457D02*
X216593208Y-136448933D01*
X216593208Y-136448933D02*
X216640827Y-136544171D01*
X216640827Y-136544171D02*
X216736065Y-136591790D01*
X216736065Y-136591790D02*
X216831303Y-136591790D01*
X216831303Y-136591790D02*
X216926541Y-136115600D01*
X217259875Y-137020362D02*
X216593208Y-137020362D01*
X216783684Y-137020362D02*
X216688446Y-137067981D01*
X216688446Y-137067981D02*
X216640827Y-137115600D01*
X216640827Y-137115600D02*
X216593208Y-137210838D01*
X216593208Y-137210838D02*
X216593208Y-137306076D01*
X217259875Y-139210839D02*
X217259875Y-139163220D01*
X217259875Y-139163220D02*
X217212256Y-139067981D01*
X217212256Y-139067981D02*
X217069398Y-138925124D01*
X217069398Y-138925124D02*
X216783684Y-138687029D01*
X216783684Y-138687029D02*
X216640827Y-138591791D01*
X216640827Y-138591791D02*
X216497970Y-138544172D01*
X216497970Y-138544172D02*
X216402732Y-138544172D01*
X216402732Y-138544172D02*
X216307494Y-138591791D01*
X216307494Y-138591791D02*
X216259875Y-138687029D01*
X216259875Y-138687029D02*
X216259875Y-138734648D01*
X216259875Y-138734648D02*
X216307494Y-138829886D01*
X216307494Y-138829886D02*
X216402732Y-138877505D01*
X216402732Y-138877505D02*
X216450351Y-138877505D01*
X216450351Y-138877505D02*
X216545589Y-138829886D01*
X216545589Y-138829886D02*
X216593208Y-138782267D01*
X216593208Y-138782267D02*
X216783684Y-138496553D01*
X216783684Y-138496553D02*
X216831303Y-138448934D01*
X216831303Y-138448934D02*
X216926541Y-138401315D01*
X216926541Y-138401315D02*
X217069398Y-138401315D01*
X217069398Y-138401315D02*
X217164636Y-138448934D01*
X217164636Y-138448934D02*
X217212256Y-138496553D01*
X217212256Y-138496553D02*
X217259875Y-138591791D01*
X217259875Y-138591791D02*
X217259875Y-138734648D01*
X217259875Y-138734648D02*
X217212256Y-138829886D01*
X217212256Y-138829886D02*
X217164636Y-138877505D01*
X217164636Y-138877505D02*
X216974160Y-139020362D01*
X216974160Y-139020362D02*
X216831303Y-139067981D01*
X216831303Y-139067981D02*
X216736065Y-139067981D01*
X217259875Y-140972743D02*
X216783684Y-140639410D01*
X217259875Y-140401315D02*
X216259875Y-140401315D01*
X216259875Y-140401315D02*
X216259875Y-140782267D01*
X216259875Y-140782267D02*
X216307494Y-140877505D01*
X216307494Y-140877505D02*
X216355113Y-140925124D01*
X216355113Y-140925124D02*
X216450351Y-140972743D01*
X216450351Y-140972743D02*
X216593208Y-140972743D01*
X216593208Y-140972743D02*
X216688446Y-140925124D01*
X216688446Y-140925124D02*
X216736065Y-140877505D01*
X216736065Y-140877505D02*
X216783684Y-140782267D01*
X216783684Y-140782267D02*
X216783684Y-140401315D01*
X217259875Y-141401315D02*
X216593208Y-141401315D01*
X216259875Y-141401315D02*
X216307494Y-141353696D01*
X216307494Y-141353696D02*
X216355113Y-141401315D01*
X216355113Y-141401315D02*
X216307494Y-141448934D01*
X216307494Y-141448934D02*
X216259875Y-141401315D01*
X216259875Y-141401315D02*
X216355113Y-141401315D01*
X216593208Y-141734648D02*
X216593208Y-142115600D01*
X216259875Y-141877505D02*
X217117017Y-141877505D01*
X217117017Y-141877505D02*
X217212256Y-141925124D01*
X217212256Y-141925124D02*
X217259875Y-142020362D01*
X217259875Y-142020362D02*
X217259875Y-142115600D01*
X217259875Y-142448934D02*
X216593208Y-142448934D01*
X216783684Y-142448934D02*
X216688446Y-142496553D01*
X216688446Y-142496553D02*
X216640827Y-142544172D01*
X216640827Y-142544172D02*
X216593208Y-142639410D01*
X216593208Y-142639410D02*
X216593208Y-142734648D01*
X217259875Y-143210839D02*
X217212256Y-143115601D01*
X217212256Y-143115601D02*
X217164636Y-143067982D01*
X217164636Y-143067982D02*
X217069398Y-143020363D01*
X217069398Y-143020363D02*
X216783684Y-143020363D01*
X216783684Y-143020363D02*
X216688446Y-143067982D01*
X216688446Y-143067982D02*
X216640827Y-143115601D01*
X216640827Y-143115601D02*
X216593208Y-143210839D01*
X216593208Y-143210839D02*
X216593208Y-143353696D01*
X216593208Y-143353696D02*
X216640827Y-143448934D01*
X216640827Y-143448934D02*
X216688446Y-143496553D01*
X216688446Y-143496553D02*
X216783684Y-143544172D01*
X216783684Y-143544172D02*
X217069398Y-143544172D01*
X217069398Y-143544172D02*
X217164636Y-143496553D01*
X217164636Y-143496553D02*
X217212256Y-143448934D01*
X217212256Y-143448934D02*
X217259875Y-143353696D01*
X217259875Y-143353696D02*
X217259875Y-143210839D01*
X217259875Y-143877506D02*
X216593208Y-144401315D01*
X216593208Y-143877506D02*
X217259875Y-144401315D01*
X216259875Y-144972744D02*
X216259875Y-145067982D01*
X216259875Y-145067982D02*
X216307494Y-145163220D01*
X216307494Y-145163220D02*
X216355113Y-145210839D01*
X216355113Y-145210839D02*
X216450351Y-145258458D01*
X216450351Y-145258458D02*
X216640827Y-145306077D01*
X216640827Y-145306077D02*
X216878922Y-145306077D01*
X216878922Y-145306077D02*
X217069398Y-145258458D01*
X217069398Y-145258458D02*
X217164636Y-145210839D01*
X217164636Y-145210839D02*
X217212256Y-145163220D01*
X217212256Y-145163220D02*
X217259875Y-145067982D01*
X217259875Y-145067982D02*
X217259875Y-144972744D01*
X217259875Y-144972744D02*
X217212256Y-144877506D01*
X217212256Y-144877506D02*
X217164636Y-144829887D01*
X217164636Y-144829887D02*
X217069398Y-144782268D01*
X217069398Y-144782268D02*
X216878922Y-144734649D01*
X216878922Y-144734649D02*
X216640827Y-144734649D01*
X216640827Y-144734649D02*
X216450351Y-144782268D01*
X216450351Y-144782268D02*
X216355113Y-144829887D01*
X216355113Y-144829887D02*
X216307494Y-144877506D01*
X216307494Y-144877506D02*
X216259875Y-144972744D01*
X216259875Y-145925125D02*
X216259875Y-146020363D01*
X216259875Y-146020363D02*
X216307494Y-146115601D01*
X216307494Y-146115601D02*
X216355113Y-146163220D01*
X216355113Y-146163220D02*
X216450351Y-146210839D01*
X216450351Y-146210839D02*
X216640827Y-146258458D01*
X216640827Y-146258458D02*
X216878922Y-146258458D01*
X216878922Y-146258458D02*
X217069398Y-146210839D01*
X217069398Y-146210839D02*
X217164636Y-146163220D01*
X217164636Y-146163220D02*
X217212256Y-146115601D01*
X217212256Y-146115601D02*
X217259875Y-146020363D01*
X217259875Y-146020363D02*
X217259875Y-145925125D01*
X217259875Y-145925125D02*
X217212256Y-145829887D01*
X217212256Y-145829887D02*
X217164636Y-145782268D01*
X217164636Y-145782268D02*
X217069398Y-145734649D01*
X217069398Y-145734649D02*
X216878922Y-145687030D01*
X216878922Y-145687030D02*
X216640827Y-145687030D01*
X216640827Y-145687030D02*
X216450351Y-145734649D01*
X216450351Y-145734649D02*
X216355113Y-145782268D01*
X216355113Y-145782268D02*
X216307494Y-145829887D01*
X216307494Y-145829887D02*
X216259875Y-145925125D01*
X216688446Y-146829887D02*
X216640827Y-146734649D01*
X216640827Y-146734649D02*
X216593208Y-146687030D01*
X216593208Y-146687030D02*
X216497970Y-146639411D01*
X216497970Y-146639411D02*
X216450351Y-146639411D01*
X216450351Y-146639411D02*
X216355113Y-146687030D01*
X216355113Y-146687030D02*
X216307494Y-146734649D01*
X216307494Y-146734649D02*
X216259875Y-146829887D01*
X216259875Y-146829887D02*
X216259875Y-147020363D01*
X216259875Y-147020363D02*
X216307494Y-147115601D01*
X216307494Y-147115601D02*
X216355113Y-147163220D01*
X216355113Y-147163220D02*
X216450351Y-147210839D01*
X216450351Y-147210839D02*
X216497970Y-147210839D01*
X216497970Y-147210839D02*
X216593208Y-147163220D01*
X216593208Y-147163220D02*
X216640827Y-147115601D01*
X216640827Y-147115601D02*
X216688446Y-147020363D01*
X216688446Y-147020363D02*
X216688446Y-146829887D01*
X216688446Y-146829887D02*
X216736065Y-146734649D01*
X216736065Y-146734649D02*
X216783684Y-146687030D01*
X216783684Y-146687030D02*
X216878922Y-146639411D01*
X216878922Y-146639411D02*
X217069398Y-146639411D01*
X217069398Y-146639411D02*
X217164636Y-146687030D01*
X217164636Y-146687030D02*
X217212256Y-146734649D01*
X217212256Y-146734649D02*
X217259875Y-146829887D01*
X217259875Y-146829887D02*
X217259875Y-147020363D01*
X217259875Y-147020363D02*
X217212256Y-147115601D01*
X217212256Y-147115601D02*
X217164636Y-147163220D01*
X217164636Y-147163220D02*
X217069398Y-147210839D01*
X217069398Y-147210839D02*
X216878922Y-147210839D01*
X216878922Y-147210839D02*
X216783684Y-147163220D01*
X216783684Y-147163220D02*
X216736065Y-147115601D01*
X216736065Y-147115601D02*
X216688446Y-147020363D01*
X217869819Y-126210837D02*
X218679342Y-126210837D01*
X218679342Y-126210837D02*
X218774580Y-126258456D01*
X218774580Y-126258456D02*
X218822200Y-126306075D01*
X218822200Y-126306075D02*
X218869819Y-126401313D01*
X218869819Y-126401313D02*
X218869819Y-126591789D01*
X218869819Y-126591789D02*
X218822200Y-126687027D01*
X218822200Y-126687027D02*
X218774580Y-126734646D01*
X218774580Y-126734646D02*
X218679342Y-126782265D01*
X218679342Y-126782265D02*
X217869819Y-126782265D01*
X218203152Y-127258456D02*
X218869819Y-127258456D01*
X218298390Y-127258456D02*
X218250771Y-127306075D01*
X218250771Y-127306075D02*
X218203152Y-127401313D01*
X218203152Y-127401313D02*
X218203152Y-127544170D01*
X218203152Y-127544170D02*
X218250771Y-127639408D01*
X218250771Y-127639408D02*
X218346009Y-127687027D01*
X218346009Y-127687027D02*
X218869819Y-127687027D01*
X218869819Y-128591789D02*
X217869819Y-128591789D01*
X218822200Y-128591789D02*
X218869819Y-128496551D01*
X218869819Y-128496551D02*
X218869819Y-128306075D01*
X218869819Y-128306075D02*
X218822200Y-128210837D01*
X218822200Y-128210837D02*
X218774580Y-128163218D01*
X218774580Y-128163218D02*
X218679342Y-128115599D01*
X218679342Y-128115599D02*
X218393628Y-128115599D01*
X218393628Y-128115599D02*
X218298390Y-128163218D01*
X218298390Y-128163218D02*
X218250771Y-128210837D01*
X218250771Y-128210837D02*
X218203152Y-128306075D01*
X218203152Y-128306075D02*
X218203152Y-128496551D01*
X218203152Y-128496551D02*
X218250771Y-128591789D01*
X218822200Y-129448932D02*
X218869819Y-129353694D01*
X218869819Y-129353694D02*
X218869819Y-129163218D01*
X218869819Y-129163218D02*
X218822200Y-129067980D01*
X218822200Y-129067980D02*
X218726961Y-129020361D01*
X218726961Y-129020361D02*
X218346009Y-129020361D01*
X218346009Y-129020361D02*
X218250771Y-129067980D01*
X218250771Y-129067980D02*
X218203152Y-129163218D01*
X218203152Y-129163218D02*
X218203152Y-129353694D01*
X218203152Y-129353694D02*
X218250771Y-129448932D01*
X218250771Y-129448932D02*
X218346009Y-129496551D01*
X218346009Y-129496551D02*
X218441247Y-129496551D01*
X218441247Y-129496551D02*
X218536485Y-129020361D01*
X218869819Y-129925123D02*
X218203152Y-129925123D01*
X218393628Y-129925123D02*
X218298390Y-129972742D01*
X218298390Y-129972742D02*
X218250771Y-130020361D01*
X218250771Y-130020361D02*
X218203152Y-130115599D01*
X218203152Y-130115599D02*
X218203152Y-130210837D01*
X218203152Y-131163219D02*
X218203152Y-131544171D01*
X217869819Y-131306076D02*
X218726961Y-131306076D01*
X218726961Y-131306076D02*
X218822200Y-131353695D01*
X218822200Y-131353695D02*
X218869819Y-131448933D01*
X218869819Y-131448933D02*
X218869819Y-131544171D01*
X218869819Y-131877505D02*
X217869819Y-131877505D01*
X218869819Y-132306076D02*
X218346009Y-132306076D01*
X218346009Y-132306076D02*
X218250771Y-132258457D01*
X218250771Y-132258457D02*
X218203152Y-132163219D01*
X218203152Y-132163219D02*
X218203152Y-132020362D01*
X218203152Y-132020362D02*
X218250771Y-131925124D01*
X218250771Y-131925124D02*
X218298390Y-131877505D01*
X218822200Y-133163219D02*
X218869819Y-133067981D01*
X218869819Y-133067981D02*
X218869819Y-132877505D01*
X218869819Y-132877505D02*
X218822200Y-132782267D01*
X218822200Y-132782267D02*
X218726961Y-132734648D01*
X218726961Y-132734648D02*
X218346009Y-132734648D01*
X218346009Y-132734648D02*
X218250771Y-132782267D01*
X218250771Y-132782267D02*
X218203152Y-132877505D01*
X218203152Y-132877505D02*
X218203152Y-133067981D01*
X218203152Y-133067981D02*
X218250771Y-133163219D01*
X218250771Y-133163219D02*
X218346009Y-133210838D01*
X218346009Y-133210838D02*
X218441247Y-133210838D01*
X218441247Y-133210838D02*
X218536485Y-132734648D01*
X217917438Y-134925124D02*
X217869819Y-134829886D01*
X217869819Y-134829886D02*
X217869819Y-134687029D01*
X217869819Y-134687029D02*
X217917438Y-134544172D01*
X217917438Y-134544172D02*
X218012676Y-134448934D01*
X218012676Y-134448934D02*
X218107914Y-134401315D01*
X218107914Y-134401315D02*
X218298390Y-134353696D01*
X218298390Y-134353696D02*
X218441247Y-134353696D01*
X218441247Y-134353696D02*
X218631723Y-134401315D01*
X218631723Y-134401315D02*
X218726961Y-134448934D01*
X218726961Y-134448934D02*
X218822200Y-134544172D01*
X218822200Y-134544172D02*
X218869819Y-134687029D01*
X218869819Y-134687029D02*
X218869819Y-134782267D01*
X218869819Y-134782267D02*
X218822200Y-134925124D01*
X218822200Y-134925124D02*
X218774580Y-134972743D01*
X218774580Y-134972743D02*
X218441247Y-134972743D01*
X218441247Y-134972743D02*
X218441247Y-134782267D01*
X218869819Y-135401315D02*
X217869819Y-135401315D01*
X217869819Y-135401315D02*
X217869819Y-135782267D01*
X217869819Y-135782267D02*
X217917438Y-135877505D01*
X217917438Y-135877505D02*
X217965057Y-135925124D01*
X217965057Y-135925124D02*
X218060295Y-135972743D01*
X218060295Y-135972743D02*
X218203152Y-135972743D01*
X218203152Y-135972743D02*
X218298390Y-135925124D01*
X218298390Y-135925124D02*
X218346009Y-135877505D01*
X218346009Y-135877505D02*
X218393628Y-135782267D01*
X218393628Y-135782267D02*
X218393628Y-135401315D01*
X218869819Y-136877505D02*
X218869819Y-136401315D01*
X218869819Y-136401315D02*
X217869819Y-136401315D01*
X218488866Y-137210839D02*
X218488866Y-137972744D01*
X218203152Y-138353696D02*
X218869819Y-138591791D01*
X218869819Y-138591791D02*
X218203152Y-138829886D01*
X217869819Y-139115601D02*
X217869819Y-139734648D01*
X217869819Y-139734648D02*
X218250771Y-139401315D01*
X218250771Y-139401315D02*
X218250771Y-139544172D01*
X218250771Y-139544172D02*
X218298390Y-139639410D01*
X218298390Y-139639410D02*
X218346009Y-139687029D01*
X218346009Y-139687029D02*
X218441247Y-139734648D01*
X218441247Y-139734648D02*
X218679342Y-139734648D01*
X218679342Y-139734648D02*
X218774580Y-139687029D01*
X218774580Y-139687029D02*
X218822200Y-139639410D01*
X218822200Y-139639410D02*
X218869819Y-139544172D01*
X218869819Y-139544172D02*
X218869819Y-139258458D01*
X218869819Y-139258458D02*
X218822200Y-139163220D01*
X218822200Y-139163220D02*
X218774580Y-139115601D01*
X218774580Y-140163220D02*
X218822200Y-140210839D01*
X218822200Y-140210839D02*
X218869819Y-140163220D01*
X218869819Y-140163220D02*
X218822200Y-140115601D01*
X218822200Y-140115601D02*
X218774580Y-140163220D01*
X218774580Y-140163220D02*
X218869819Y-140163220D01*
X217869819Y-140829886D02*
X217869819Y-140925124D01*
X217869819Y-140925124D02*
X217917438Y-141020362D01*
X217917438Y-141020362D02*
X217965057Y-141067981D01*
X217965057Y-141067981D02*
X218060295Y-141115600D01*
X218060295Y-141115600D02*
X218250771Y-141163219D01*
X218250771Y-141163219D02*
X218488866Y-141163219D01*
X218488866Y-141163219D02*
X218679342Y-141115600D01*
X218679342Y-141115600D02*
X218774580Y-141067981D01*
X218774580Y-141067981D02*
X218822200Y-141020362D01*
X218822200Y-141020362D02*
X218869819Y-140925124D01*
X218869819Y-140925124D02*
X218869819Y-140829886D01*
X218869819Y-140829886D02*
X218822200Y-140734648D01*
X218822200Y-140734648D02*
X218774580Y-140687029D01*
X218774580Y-140687029D02*
X218679342Y-140639410D01*
X218679342Y-140639410D02*
X218488866Y-140591791D01*
X218488866Y-140591791D02*
X218250771Y-140591791D01*
X218250771Y-140591791D02*
X218060295Y-140639410D01*
X218060295Y-140639410D02*
X217965057Y-140687029D01*
X217965057Y-140687029D02*
X217917438Y-140734648D01*
X217917438Y-140734648D02*
X217869819Y-140829886D01*
X218869819Y-142496553D02*
X218822200Y-142401315D01*
X218822200Y-142401315D02*
X218726961Y-142353696D01*
X218726961Y-142353696D02*
X217869819Y-142353696D01*
X218869819Y-142877506D02*
X218203152Y-142877506D01*
X217869819Y-142877506D02*
X217917438Y-142829887D01*
X217917438Y-142829887D02*
X217965057Y-142877506D01*
X217965057Y-142877506D02*
X217917438Y-142925125D01*
X217917438Y-142925125D02*
X217869819Y-142877506D01*
X217869819Y-142877506D02*
X217965057Y-142877506D01*
X218822200Y-143782267D02*
X218869819Y-143687029D01*
X218869819Y-143687029D02*
X218869819Y-143496553D01*
X218869819Y-143496553D02*
X218822200Y-143401315D01*
X218822200Y-143401315D02*
X218774580Y-143353696D01*
X218774580Y-143353696D02*
X218679342Y-143306077D01*
X218679342Y-143306077D02*
X218393628Y-143306077D01*
X218393628Y-143306077D02*
X218298390Y-143353696D01*
X218298390Y-143353696D02*
X218250771Y-143401315D01*
X218250771Y-143401315D02*
X218203152Y-143496553D01*
X218203152Y-143496553D02*
X218203152Y-143687029D01*
X218203152Y-143687029D02*
X218250771Y-143782267D01*
X218822200Y-144591791D02*
X218869819Y-144496553D01*
X218869819Y-144496553D02*
X218869819Y-144306077D01*
X218869819Y-144306077D02*
X218822200Y-144210839D01*
X218822200Y-144210839D02*
X218726961Y-144163220D01*
X218726961Y-144163220D02*
X218346009Y-144163220D01*
X218346009Y-144163220D02*
X218250771Y-144210839D01*
X218250771Y-144210839D02*
X218203152Y-144306077D01*
X218203152Y-144306077D02*
X218203152Y-144496553D01*
X218203152Y-144496553D02*
X218250771Y-144591791D01*
X218250771Y-144591791D02*
X218346009Y-144639410D01*
X218346009Y-144639410D02*
X218441247Y-144639410D01*
X218441247Y-144639410D02*
X218536485Y-144163220D01*
X218203152Y-145067982D02*
X218869819Y-145067982D01*
X218298390Y-145067982D02*
X218250771Y-145115601D01*
X218250771Y-145115601D02*
X218203152Y-145210839D01*
X218203152Y-145210839D02*
X218203152Y-145353696D01*
X218203152Y-145353696D02*
X218250771Y-145448934D01*
X218250771Y-145448934D02*
X218346009Y-145496553D01*
X218346009Y-145496553D02*
X218869819Y-145496553D01*
X218822200Y-145925125D02*
X218869819Y-146020363D01*
X218869819Y-146020363D02*
X218869819Y-146210839D01*
X218869819Y-146210839D02*
X218822200Y-146306077D01*
X218822200Y-146306077D02*
X218726961Y-146353696D01*
X218726961Y-146353696D02*
X218679342Y-146353696D01*
X218679342Y-146353696D02*
X218584104Y-146306077D01*
X218584104Y-146306077D02*
X218536485Y-146210839D01*
X218536485Y-146210839D02*
X218536485Y-146067982D01*
X218536485Y-146067982D02*
X218488866Y-145972744D01*
X218488866Y-145972744D02*
X218393628Y-145925125D01*
X218393628Y-145925125D02*
X218346009Y-145925125D01*
X218346009Y-145925125D02*
X218250771Y-145972744D01*
X218250771Y-145972744D02*
X218203152Y-146067982D01*
X218203152Y-146067982D02*
X218203152Y-146210839D01*
X218203152Y-146210839D02*
X218250771Y-146306077D01*
X218822200Y-147163220D02*
X218869819Y-147067982D01*
X218869819Y-147067982D02*
X218869819Y-146877506D01*
X218869819Y-146877506D02*
X218822200Y-146782268D01*
X218822200Y-146782268D02*
X218726961Y-146734649D01*
X218726961Y-146734649D02*
X218346009Y-146734649D01*
X218346009Y-146734649D02*
X218250771Y-146782268D01*
X218250771Y-146782268D02*
X218203152Y-146877506D01*
X218203152Y-146877506D02*
X218203152Y-147067982D01*
X218203152Y-147067982D02*
X218250771Y-147163220D01*
X218250771Y-147163220D02*
X218346009Y-147210839D01*
X218346009Y-147210839D02*
X218441247Y-147210839D01*
X218441247Y-147210839D02*
X218536485Y-146734649D01*
D12*
%TO.C,G\u002A\u002A\u002A*%
G36*
X211036076Y-122106259D02*
G01*
X211036076Y-122249156D01*
X210893179Y-122249156D01*
X210750281Y-122249156D01*
X210750281Y-122106259D01*
X210750281Y-121963361D01*
X210893179Y-121963361D01*
X211036076Y-121963361D01*
X211036076Y-122106259D01*
G37*
G36*
X206177567Y-124249719D02*
G01*
X206177567Y-124535513D01*
X206034669Y-124535513D01*
X205891772Y-124535513D01*
X205891772Y-124249719D01*
X205891772Y-123963924D01*
X206034669Y-123963924D01*
X206177567Y-123963924D01*
X206177567Y-124249719D01*
G37*
G36*
X206463361Y-124678411D02*
G01*
X206463361Y-124821308D01*
X206320464Y-124821308D01*
X206177567Y-124821308D01*
X206177567Y-124678411D01*
X206177567Y-124535513D01*
X206320464Y-124535513D01*
X206463361Y-124535513D01*
X206463361Y-124678411D01*
G37*
G36*
X210464487Y-124678411D02*
G01*
X210464487Y-124821308D01*
X210321589Y-124821308D01*
X210178692Y-124821308D01*
X210178692Y-124678411D01*
X210178692Y-124535513D01*
X210321589Y-124535513D01*
X210464487Y-124535513D01*
X210464487Y-124678411D01*
G37*
G36*
X207034951Y-124964205D02*
G01*
X207034951Y-125107103D01*
X206892053Y-125107103D01*
X206749156Y-125107103D01*
X206749156Y-124964205D01*
X206749156Y-124821308D01*
X206892053Y-124821308D01*
X207034951Y-124821308D01*
X207034951Y-124964205D01*
G37*
G36*
X213608228Y-125821589D02*
G01*
X213608228Y-125964487D01*
X213465330Y-125964487D01*
X213322433Y-125964487D01*
X213322433Y-125821589D01*
X213322433Y-125678692D01*
X213465330Y-125678692D01*
X213608228Y-125678692D01*
X213608228Y-125821589D01*
G37*
G36*
X206177567Y-126536076D02*
G01*
X206177567Y-126821871D01*
X206034669Y-126821871D01*
X205891772Y-126821871D01*
X205891772Y-126536076D01*
X205891772Y-126250281D01*
X206034669Y-126250281D01*
X206177567Y-126250281D01*
X206177567Y-126536076D01*
G37*
G36*
X212465049Y-126964768D02*
G01*
X212465049Y-127107665D01*
X212322152Y-127107665D01*
X212179255Y-127107665D01*
X212179255Y-126964768D01*
X212179255Y-126821871D01*
X212322152Y-126821871D01*
X212465049Y-126821871D01*
X212465049Y-126964768D01*
G37*
G36*
X213036639Y-126964768D02*
G01*
X213036639Y-127107665D01*
X212893741Y-127107665D01*
X212750844Y-127107665D01*
X212750844Y-126964768D01*
X212750844Y-126821871D01*
X212893741Y-126821871D01*
X213036639Y-126821871D01*
X213036639Y-126964768D01*
G37*
G36*
X208463924Y-127250563D02*
G01*
X208463924Y-127393460D01*
X208178129Y-127393460D01*
X207892335Y-127393460D01*
X207892335Y-127250563D01*
X207892335Y-127107665D01*
X208178129Y-127107665D01*
X208463924Y-127107665D01*
X208463924Y-127250563D01*
G37*
G36*
X213322433Y-127250563D02*
G01*
X213322433Y-127393460D01*
X213179536Y-127393460D01*
X213036639Y-127393460D01*
X213036639Y-127250563D01*
X213036639Y-127107665D01*
X213179536Y-127107665D01*
X213322433Y-127107665D01*
X213322433Y-127250563D01*
G37*
G36*
X211893460Y-127536357D02*
G01*
X211893460Y-127679255D01*
X211750563Y-127679255D01*
X211607665Y-127679255D01*
X211607665Y-127536357D01*
X211607665Y-127393460D01*
X211750563Y-127393460D01*
X211893460Y-127393460D01*
X211893460Y-127536357D01*
G37*
G36*
X211607665Y-128107947D02*
G01*
X211607665Y-128250844D01*
X211464768Y-128250844D01*
X211321871Y-128250844D01*
X211321871Y-128107947D01*
X211321871Y-127965049D01*
X211464768Y-127965049D01*
X211607665Y-127965049D01*
X211607665Y-128107947D01*
G37*
G36*
X211893460Y-128393741D02*
G01*
X211893460Y-128536639D01*
X211750563Y-128536639D01*
X211607665Y-128536639D01*
X211607665Y-128393741D01*
X211607665Y-128250844D01*
X211750563Y-128250844D01*
X211893460Y-128250844D01*
X211893460Y-128393741D01*
G37*
G36*
X207892335Y-128679536D02*
G01*
X207892335Y-128822433D01*
X207749437Y-128822433D01*
X207606540Y-128822433D01*
X207606540Y-128679536D01*
X207606540Y-128536639D01*
X207749437Y-128536639D01*
X207892335Y-128536639D01*
X207892335Y-128679536D01*
G37*
G36*
X210178692Y-128679536D02*
G01*
X210178692Y-128822433D01*
X210035795Y-128822433D01*
X209892897Y-128822433D01*
X209892897Y-128679536D01*
X209892897Y-128536639D01*
X210035795Y-128536639D01*
X210178692Y-128536639D01*
X210178692Y-128679536D01*
G37*
G36*
X208178129Y-128965330D02*
G01*
X208178129Y-129108228D01*
X208035232Y-129108228D01*
X207892335Y-129108228D01*
X207892335Y-128965330D01*
X207892335Y-128822433D01*
X208035232Y-128822433D01*
X208178129Y-128822433D01*
X208178129Y-128965330D01*
G37*
G36*
X209321308Y-128965330D02*
G01*
X209321308Y-129108228D01*
X209178411Y-129108228D01*
X209035513Y-129108228D01*
X209035513Y-128965330D01*
X209035513Y-128822433D01*
X209178411Y-128822433D01*
X209321308Y-128822433D01*
X209321308Y-128965330D01*
G37*
G36*
X210464487Y-128965330D02*
G01*
X210464487Y-129108228D01*
X210321589Y-129108228D01*
X210178692Y-129108228D01*
X210178692Y-128965330D01*
X210178692Y-128822433D01*
X210321589Y-128822433D01*
X210464487Y-128822433D01*
X210464487Y-128965330D01*
G37*
G36*
X210464487Y-123106540D02*
G01*
X210464487Y-123392335D01*
X210178692Y-123392335D01*
X209892897Y-123392335D01*
X209892897Y-123249437D01*
X209892897Y-123106540D01*
X210035795Y-123106540D01*
X210178692Y-123106540D01*
X210178692Y-122963643D01*
X210178692Y-122820745D01*
X210321589Y-122820745D01*
X210464487Y-122820745D01*
X210464487Y-123106540D01*
G37*
G36*
X214179817Y-128393741D02*
G01*
X214179817Y-128536639D01*
X214036920Y-128536639D01*
X213894022Y-128536639D01*
X213894022Y-128679536D01*
X213894022Y-128822433D01*
X213751125Y-128822433D01*
X213608228Y-128822433D01*
X213608228Y-128679536D01*
X213608228Y-128536639D01*
X213751125Y-128536639D01*
X213894022Y-128536639D01*
X213894022Y-128393741D01*
X213894022Y-128250844D01*
X214036920Y-128250844D01*
X214179817Y-128250844D01*
X214179817Y-128393741D01*
G37*
G36*
X211321871Y-129108228D02*
G01*
X211321871Y-129679817D01*
X211178973Y-129679817D01*
X211036076Y-129679817D01*
X211036076Y-129536920D01*
X211036076Y-129394022D01*
X210893179Y-129394022D01*
X210750281Y-129394022D01*
X210750281Y-129251125D01*
X210750281Y-129108228D01*
X210893179Y-129108228D01*
X211036076Y-129108228D01*
X211036076Y-128822433D01*
X211036076Y-128536639D01*
X211178973Y-128536639D01*
X211321871Y-128536639D01*
X211321871Y-129108228D01*
G37*
G36*
X206034669Y-120820183D02*
G01*
X206749156Y-120820183D01*
X206749156Y-121534669D01*
X206749156Y-122249156D01*
X206034669Y-122249156D01*
X205320183Y-122249156D01*
X205320183Y-121534669D01*
X205320183Y-121105977D01*
X205605977Y-121105977D01*
X205605977Y-121534669D01*
X205605977Y-121963361D01*
X206034669Y-121963361D01*
X206463361Y-121963361D01*
X206463361Y-121534669D01*
X206463361Y-121105977D01*
X206034669Y-121105977D01*
X205605977Y-121105977D01*
X205320183Y-121105977D01*
X205320183Y-120820183D01*
X206034669Y-120820183D01*
G37*
G36*
X213465330Y-120820183D02*
G01*
X214179817Y-120820183D01*
X214179817Y-121534669D01*
X214179817Y-122249156D01*
X213465330Y-122249156D01*
X212750844Y-122249156D01*
X212750844Y-121534669D01*
X212750844Y-121105977D01*
X213036639Y-121105977D01*
X213036639Y-121534669D01*
X213036639Y-121963361D01*
X213465330Y-121963361D01*
X213894022Y-121963361D01*
X213894022Y-121534669D01*
X213894022Y-121105977D01*
X213465330Y-121105977D01*
X213036639Y-121105977D01*
X212750844Y-121105977D01*
X212750844Y-120820183D01*
X213465330Y-120820183D01*
G37*
G36*
X212607947Y-127679255D02*
G01*
X213036639Y-127679255D01*
X213036639Y-128107947D01*
X213036639Y-128536639D01*
X212607947Y-128536639D01*
X212179255Y-128536639D01*
X212179255Y-128107947D01*
X212179255Y-127965049D01*
X212465049Y-127965049D01*
X212465049Y-128107947D01*
X212465049Y-128250844D01*
X212607947Y-128250844D01*
X212750844Y-128250844D01*
X212750844Y-128107947D01*
X212750844Y-127965049D01*
X212607947Y-127965049D01*
X212465049Y-127965049D01*
X212179255Y-127965049D01*
X212179255Y-127679255D01*
X212607947Y-127679255D01*
G37*
G36*
X206034669Y-128250844D02*
G01*
X206749156Y-128250844D01*
X206749156Y-128965330D01*
X206749156Y-129679817D01*
X206034669Y-129679817D01*
X205320183Y-129679817D01*
X205320183Y-128965330D01*
X205320183Y-128536639D01*
X205605977Y-128536639D01*
X205605977Y-128965330D01*
X205605977Y-129394022D01*
X206034669Y-129394022D01*
X206463361Y-129394022D01*
X206463361Y-128965330D01*
X206463361Y-128536639D01*
X206034669Y-128536639D01*
X205605977Y-128536639D01*
X205320183Y-128536639D01*
X205320183Y-128250844D01*
X206034669Y-128250844D01*
G37*
G36*
X214179817Y-127393460D02*
G01*
X214179817Y-127679255D01*
X214036920Y-127679255D01*
X213894022Y-127679255D01*
X213894022Y-127822152D01*
X213894022Y-127965049D01*
X213751125Y-127965049D01*
X213608228Y-127965049D01*
X213608228Y-128250844D01*
X213608228Y-128536639D01*
X213465330Y-128536639D01*
X213322433Y-128536639D01*
X213322433Y-128250844D01*
X213322433Y-127965049D01*
X213465330Y-127965049D01*
X213608228Y-127965049D01*
X213608228Y-127536357D01*
X213608228Y-127107665D01*
X213894022Y-127107665D01*
X214179817Y-127107665D01*
X214179817Y-127393460D01*
G37*
G36*
X212750844Y-128965330D02*
G01*
X212750844Y-129108228D01*
X212465049Y-129108228D01*
X212179255Y-129108228D01*
X212179255Y-129251125D01*
X212179255Y-129394022D01*
X212036357Y-129394022D01*
X211893460Y-129394022D01*
X211893460Y-129536920D01*
X211893460Y-129679817D01*
X211750563Y-129679817D01*
X211607665Y-129679817D01*
X211607665Y-129536920D01*
X211607665Y-129394022D01*
X211750563Y-129394022D01*
X211893460Y-129394022D01*
X211893460Y-129108228D01*
X211893460Y-128822433D01*
X212322152Y-128822433D01*
X212750844Y-128822433D01*
X212750844Y-128965330D01*
G37*
G36*
X213036639Y-123821027D02*
G01*
X213036639Y-123963924D01*
X213179536Y-123963924D01*
X213322433Y-123963924D01*
X213322433Y-124249719D01*
X213322433Y-124535513D01*
X213465330Y-124535513D01*
X213608228Y-124535513D01*
X213608228Y-124678411D01*
X213608228Y-124821308D01*
X213179536Y-124821308D01*
X212750844Y-124821308D01*
X212750844Y-124678411D01*
X212750844Y-124535513D01*
X212607947Y-124535513D01*
X212465049Y-124535513D01*
X212465049Y-124964205D01*
X212465049Y-125392897D01*
X212750844Y-125392897D01*
X213036639Y-125392897D01*
X213036639Y-125250000D01*
X213036639Y-125107103D01*
X213179536Y-125107103D01*
X213322433Y-125107103D01*
X213322433Y-125392897D01*
X213322433Y-125678692D01*
X213179536Y-125678692D01*
X213036639Y-125678692D01*
X213036639Y-125964487D01*
X213036639Y-126250281D01*
X212750844Y-126250281D01*
X212465049Y-126250281D01*
X212465049Y-126393179D01*
X212465049Y-126536076D01*
X212322152Y-126536076D01*
X212179255Y-126536076D01*
X212179255Y-126678973D01*
X212179255Y-126821871D01*
X212036357Y-126821871D01*
X211893460Y-126821871D01*
X211893460Y-126536076D01*
X211893460Y-126250281D01*
X212179255Y-126250281D01*
X212465049Y-126250281D01*
X212465049Y-126107384D01*
X212465049Y-125964487D01*
X212607947Y-125964487D01*
X212750844Y-125964487D01*
X212750844Y-125821589D01*
X212750844Y-125678692D01*
X212465049Y-125678692D01*
X212179255Y-125678692D01*
X212179255Y-125821589D01*
X212179255Y-125964487D01*
X212036357Y-125964487D01*
X211893460Y-125964487D01*
X211893460Y-125821589D01*
X211893460Y-125678692D01*
X212036357Y-125678692D01*
X212179255Y-125678692D01*
X212179255Y-125535795D01*
X212179255Y-125392897D01*
X212036357Y-125392897D01*
X211893460Y-125392897D01*
X211893460Y-125535795D01*
X211893460Y-125678692D01*
X211750563Y-125678692D01*
X211607665Y-125678692D01*
X211607665Y-125964487D01*
X211607665Y-126250281D01*
X211464768Y-126250281D01*
X211321871Y-126250281D01*
X211321871Y-125964487D01*
X211321871Y-125678692D01*
X211178973Y-125678692D01*
X211036076Y-125678692D01*
X211036076Y-125821589D01*
X211036076Y-125964487D01*
X210893179Y-125964487D01*
X210750281Y-125964487D01*
X210750281Y-125678692D01*
X210750281Y-125392897D01*
X210893179Y-125392897D01*
X211036076Y-125392897D01*
X211036076Y-125250000D01*
X211036076Y-125107103D01*
X211178973Y-125107103D01*
X211321871Y-125107103D01*
X211321871Y-125250000D01*
X211321871Y-125392897D01*
X211464768Y-125392897D01*
X211607665Y-125392897D01*
X211607665Y-125250000D01*
X211607665Y-125107103D01*
X211893460Y-125107103D01*
X212179255Y-125107103D01*
X212179255Y-124964205D01*
X212179255Y-124821308D01*
X212036357Y-124821308D01*
X211893460Y-124821308D01*
X211893460Y-124678411D01*
X211893460Y-124535513D01*
X212179255Y-124535513D01*
X212465049Y-124535513D01*
X212465049Y-124392616D01*
X212465049Y-124249719D01*
X212607947Y-124249719D01*
X212750844Y-124249719D01*
X212750844Y-123963924D01*
X212750844Y-123678129D01*
X212893741Y-123678129D01*
X213036639Y-123678129D01*
X213036639Y-123821027D01*
G37*
G36*
X212179255Y-123535232D02*
G01*
X212179255Y-123678129D01*
X212036357Y-123678129D01*
X211893460Y-123678129D01*
X211893460Y-123821027D01*
X211893460Y-123963924D01*
X211750563Y-123963924D01*
X211607665Y-123963924D01*
X211607665Y-124106821D01*
X211607665Y-124249719D01*
X211464768Y-124249719D01*
X211321871Y-124249719D01*
X211321871Y-124392616D01*
X211321871Y-124535513D01*
X211464768Y-124535513D01*
X211607665Y-124535513D01*
X211607665Y-124678411D01*
X211607665Y-124821308D01*
X211321871Y-124821308D01*
X211036076Y-124821308D01*
X211036076Y-124964205D01*
X211036076Y-125107103D01*
X210893179Y-125107103D01*
X210750281Y-125107103D01*
X210750281Y-124964205D01*
X210750281Y-124821308D01*
X210893179Y-124821308D01*
X211036076Y-124821308D01*
X211036076Y-124535513D01*
X211036076Y-124249719D01*
X210893179Y-124249719D01*
X210750281Y-124249719D01*
X210750281Y-124106821D01*
X210750281Y-123963924D01*
X210893179Y-123963924D01*
X211036076Y-123963924D01*
X211036076Y-124106821D01*
X211036076Y-124249719D01*
X211178973Y-124249719D01*
X211321871Y-124249719D01*
X211321871Y-124106821D01*
X211321871Y-123963924D01*
X211464768Y-123963924D01*
X211607665Y-123963924D01*
X211607665Y-123821027D01*
X211607665Y-123678129D01*
X211750563Y-123678129D01*
X211893460Y-123678129D01*
X211893460Y-123535232D01*
X211893460Y-123392335D01*
X212036357Y-123392335D01*
X212179255Y-123392335D01*
X212179255Y-123535232D01*
G37*
G36*
X212322152Y-123678129D02*
G01*
X212465049Y-123678129D01*
X212465049Y-123821027D01*
X212465049Y-123963924D01*
X212322152Y-123963924D01*
X212179255Y-123963924D01*
X212179255Y-124106821D01*
X212179255Y-124249719D01*
X212036357Y-124249719D01*
X211893460Y-124249719D01*
X211893460Y-124106821D01*
X211893460Y-123963924D01*
X212036357Y-123963924D01*
X212179255Y-123963924D01*
X212179255Y-123821027D01*
X212179255Y-123678129D01*
X212322152Y-123678129D01*
G37*
G36*
X210035795Y-125678692D02*
G01*
X210464487Y-125678692D01*
X210464487Y-125964487D01*
X210464487Y-126250281D01*
X210178692Y-126250281D01*
X209892897Y-126250281D01*
X209892897Y-126393179D01*
X209892897Y-126536076D01*
X210178692Y-126536076D01*
X210464487Y-126536076D01*
X210464487Y-126678973D01*
X210464487Y-126821871D01*
X210607384Y-126821871D01*
X210750281Y-126821871D01*
X210750281Y-126536076D01*
X210750281Y-126250281D01*
X210893179Y-126250281D01*
X211036076Y-126250281D01*
X211036076Y-126536076D01*
X211036076Y-126821871D01*
X210893179Y-126821871D01*
X210750281Y-126821871D01*
X210750281Y-126964768D01*
X210750281Y-127107665D01*
X210893179Y-127107665D01*
X211036076Y-127107665D01*
X211036076Y-127250563D01*
X211036076Y-127393460D01*
X211178973Y-127393460D01*
X211321871Y-127393460D01*
X211321871Y-126964768D01*
X211321871Y-126536076D01*
X211464768Y-126536076D01*
X211607665Y-126536076D01*
X211607665Y-126964768D01*
X211607665Y-127393460D01*
X211464768Y-127393460D01*
X211321871Y-127393460D01*
X211321871Y-127679255D01*
X211321871Y-127965049D01*
X211178973Y-127965049D01*
X211036076Y-127965049D01*
X211036076Y-128107947D01*
X211036076Y-128250844D01*
X210750281Y-128250844D01*
X210464487Y-128250844D01*
X210464487Y-128107947D01*
X210464487Y-127965049D01*
X210178692Y-127965049D01*
X209892897Y-127965049D01*
X209892897Y-128107947D01*
X209892897Y-128250844D01*
X209750000Y-128250844D01*
X209607103Y-128250844D01*
X209607103Y-128107947D01*
X209607103Y-127965049D01*
X209750000Y-127965049D01*
X209892897Y-127965049D01*
X209892897Y-127679255D01*
X209892897Y-127393460D01*
X209750000Y-127393460D01*
X209607103Y-127393460D01*
X209607103Y-127536357D01*
X209607103Y-127679255D01*
X209321308Y-127679255D01*
X209035513Y-127679255D01*
X209035513Y-127822152D01*
X209035513Y-127965049D01*
X208892616Y-127965049D01*
X208749719Y-127965049D01*
X208749719Y-127822152D01*
X208749719Y-127679255D01*
X208892616Y-127679255D01*
X209035513Y-127679255D01*
X209035513Y-127393460D01*
X209035513Y-127107665D01*
X208892616Y-127107665D01*
X208749719Y-127107665D01*
X208749719Y-126964768D01*
X208749719Y-126821871D01*
X208606821Y-126821871D01*
X208463924Y-126821871D01*
X208463924Y-126678973D01*
X208463924Y-126536076D01*
X208321027Y-126536076D01*
X208178129Y-126536076D01*
X208178129Y-126393179D01*
X208178129Y-126250281D01*
X208035232Y-126250281D01*
X207892335Y-126250281D01*
X207892335Y-126107384D01*
X207892335Y-125964487D01*
X208178129Y-125964487D01*
X208463924Y-125964487D01*
X208463924Y-126107384D01*
X208463924Y-126250281D01*
X208606821Y-126250281D01*
X208749719Y-126250281D01*
X208749719Y-126393179D01*
X208749719Y-126536076D01*
X208892616Y-126536076D01*
X209035513Y-126536076D01*
X209035513Y-126250281D01*
X209035513Y-125964487D01*
X209321308Y-125964487D01*
X209607103Y-125964487D01*
X209607103Y-126107384D01*
X209607103Y-126250281D01*
X209464205Y-126250281D01*
X209321308Y-126250281D01*
X209321308Y-126536076D01*
X209321308Y-126821871D01*
X209178411Y-126821871D01*
X209035513Y-126821871D01*
X209035513Y-126964768D01*
X209035513Y-127107665D01*
X209178411Y-127107665D01*
X209321308Y-127107665D01*
X209321308Y-126964768D01*
X209321308Y-126821871D01*
X209464205Y-126821871D01*
X209607103Y-126821871D01*
X209607103Y-126964768D01*
X209607103Y-127107665D01*
X209750000Y-127107665D01*
X209892897Y-127107665D01*
X209892897Y-127250563D01*
X209892897Y-127393460D01*
X210035795Y-127393460D01*
X210178692Y-127393460D01*
X210178692Y-127536357D01*
X210178692Y-127679255D01*
X210321589Y-127679255D01*
X210464487Y-127679255D01*
X210464487Y-127536357D01*
X210464487Y-127393460D01*
X210750281Y-127393460D01*
X210750281Y-127679255D01*
X210750281Y-127965049D01*
X210893179Y-127965049D01*
X211036076Y-127965049D01*
X211036076Y-127679255D01*
X211036076Y-127393460D01*
X210893179Y-127393460D01*
X210750281Y-127393460D01*
X210464487Y-127393460D01*
X210321589Y-127393460D01*
X210178692Y-127393460D01*
X210178692Y-127250563D01*
X210178692Y-127107665D01*
X210321589Y-127107665D01*
X210464487Y-127107665D01*
X210464487Y-126964768D01*
X210464487Y-126821871D01*
X210321589Y-126821871D01*
X210178692Y-126821871D01*
X210178692Y-126964768D01*
X210178692Y-127107665D01*
X210035795Y-127107665D01*
X209892897Y-127107665D01*
X209892897Y-126964768D01*
X209892897Y-126821871D01*
X209750000Y-126821871D01*
X209607103Y-126821871D01*
X209607103Y-126536076D01*
X209607103Y-126250281D01*
X209750000Y-126250281D01*
X209892897Y-126250281D01*
X209892897Y-126107384D01*
X209892897Y-125964487D01*
X209750000Y-125964487D01*
X209607103Y-125964487D01*
X209607103Y-125821589D01*
X209607103Y-125678692D01*
X210035795Y-125678692D01*
G37*
G36*
X209607103Y-125535795D02*
G01*
X209607103Y-125678692D01*
X209464205Y-125678692D01*
X209321308Y-125678692D01*
X209321308Y-125535795D01*
X209321308Y-125392897D01*
X209464205Y-125392897D01*
X209607103Y-125392897D01*
X209607103Y-125535795D01*
G37*
G36*
X208749719Y-121248875D02*
G01*
X208749719Y-121391772D01*
X208892616Y-121391772D01*
X209035513Y-121391772D01*
X209035513Y-121534669D01*
X209035513Y-121677567D01*
X209178411Y-121677567D01*
X209321308Y-121677567D01*
X209321308Y-121963361D01*
X209321308Y-122249156D01*
X209178411Y-122249156D01*
X209035513Y-122249156D01*
X209035513Y-122392053D01*
X209035513Y-122534951D01*
X209178411Y-122534951D01*
X209321308Y-122534951D01*
X209321308Y-122677848D01*
X209321308Y-122820745D01*
X209464205Y-122820745D01*
X209607103Y-122820745D01*
X209607103Y-122677848D01*
X209607103Y-122534951D01*
X209750000Y-122534951D01*
X209892897Y-122534951D01*
X209892897Y-122392053D01*
X209892897Y-122249156D01*
X209750000Y-122249156D01*
X209607103Y-122249156D01*
X209607103Y-122392053D01*
X209607103Y-122534951D01*
X209464205Y-122534951D01*
X209321308Y-122534951D01*
X209321308Y-122392053D01*
X209321308Y-122249156D01*
X209464205Y-122249156D01*
X209607103Y-122249156D01*
X209607103Y-122106259D01*
X209607103Y-121963361D01*
X209750000Y-121963361D01*
X209892897Y-121963361D01*
X209892897Y-122106259D01*
X209892897Y-122249156D01*
X210035795Y-122249156D01*
X210178692Y-122249156D01*
X210178692Y-122106259D01*
X210178692Y-121963361D01*
X210321589Y-121963361D01*
X210464487Y-121963361D01*
X210464487Y-122106259D01*
X210464487Y-122249156D01*
X210321589Y-122249156D01*
X210178692Y-122249156D01*
X210178692Y-122392053D01*
X210178692Y-122534951D01*
X210035795Y-122534951D01*
X209892897Y-122534951D01*
X209892897Y-122820745D01*
X209892897Y-123106540D01*
X209750000Y-123106540D01*
X209607103Y-123106540D01*
X209607103Y-123249437D01*
X209607103Y-123392335D01*
X209464205Y-123392335D01*
X209321308Y-123392335D01*
X209321308Y-123535232D01*
X209321308Y-123678129D01*
X209464205Y-123678129D01*
X209607103Y-123678129D01*
X209607103Y-123821027D01*
X209607103Y-123963924D01*
X209750000Y-123963924D01*
X209892897Y-123963924D01*
X209892897Y-123821027D01*
X209892897Y-123678129D01*
X210035795Y-123678129D01*
X210178692Y-123678129D01*
X210178692Y-123821027D01*
X210178692Y-123963924D01*
X210321589Y-123963924D01*
X210464487Y-123963924D01*
X210464487Y-123821027D01*
X210464487Y-123678129D01*
X210607384Y-123678129D01*
X210750281Y-123678129D01*
X210750281Y-123821027D01*
X210750281Y-123963924D01*
X210607384Y-123963924D01*
X210464487Y-123963924D01*
X210464487Y-124106821D01*
X210464487Y-124249719D01*
X210321589Y-124249719D01*
X210178692Y-124249719D01*
X210178692Y-124392616D01*
X210178692Y-124535513D01*
X210035795Y-124535513D01*
X209892897Y-124535513D01*
X209892897Y-124821308D01*
X209892897Y-125107103D01*
X209607103Y-125107103D01*
X209321308Y-125107103D01*
X209321308Y-125250000D01*
X209321308Y-125392897D01*
X209178411Y-125392897D01*
X209035513Y-125392897D01*
X209035513Y-125535795D01*
X209035513Y-125678692D01*
X208606821Y-125678692D01*
X208178129Y-125678692D01*
X208178129Y-125535795D01*
X208178129Y-125392897D01*
X208035232Y-125392897D01*
X207892335Y-125392897D01*
X207892335Y-125250000D01*
X207892335Y-125107103D01*
X208321027Y-125107103D01*
X208749719Y-125107103D01*
X208749719Y-125250000D01*
X208749719Y-125392897D01*
X208892616Y-125392897D01*
X209035513Y-125392897D01*
X209035513Y-124964205D01*
X209035513Y-124535513D01*
X209178411Y-124535513D01*
X209321308Y-124535513D01*
X209321308Y-124392616D01*
X209321308Y-124249719D01*
X209178411Y-124249719D01*
X209035513Y-124249719D01*
X209035513Y-124392616D01*
X209035513Y-124535513D01*
X208892616Y-124535513D01*
X208749719Y-124535513D01*
X208749719Y-124678411D01*
X208749719Y-124821308D01*
X208606821Y-124821308D01*
X208463924Y-124821308D01*
X208463924Y-124678411D01*
X208463924Y-124535513D01*
X208321027Y-124535513D01*
X208178129Y-124535513D01*
X208178129Y-124678411D01*
X208178129Y-124821308D01*
X208035232Y-124821308D01*
X207892335Y-124821308D01*
X207892335Y-124964205D01*
X207892335Y-125107103D01*
X207749437Y-125107103D01*
X207606540Y-125107103D01*
X207606540Y-124678411D01*
X207606540Y-124249719D01*
X207749437Y-124249719D01*
X207892335Y-124249719D01*
X207892335Y-124106821D01*
X207892335Y-123963924D01*
X208463924Y-123963924D01*
X208463924Y-124249719D01*
X208749719Y-124249719D01*
X209035513Y-124249719D01*
X209035513Y-123963924D01*
X209035513Y-123678129D01*
X208749719Y-123678129D01*
X208463924Y-123678129D01*
X208463924Y-123963924D01*
X207892335Y-123963924D01*
X207749437Y-123963924D01*
X207606540Y-123963924D01*
X207606540Y-124106821D01*
X207606540Y-124249719D01*
X207463643Y-124249719D01*
X207320745Y-124249719D01*
X207320745Y-124392616D01*
X207320745Y-124535513D01*
X207034951Y-124535513D01*
X206749156Y-124535513D01*
X206749156Y-124392616D01*
X206749156Y-124249719D01*
X207034951Y-124249719D01*
X207320745Y-124249719D01*
X207320745Y-124106821D01*
X207320745Y-123963924D01*
X206892053Y-123963924D01*
X206463361Y-123963924D01*
X206463361Y-123821027D01*
X206463361Y-123678129D01*
X206034669Y-123678129D01*
X205605977Y-123678129D01*
X205605977Y-123535232D01*
X205605977Y-123392335D01*
X205748875Y-123392335D01*
X205891772Y-123392335D01*
X205891772Y-123249437D01*
X205891772Y-123106540D01*
X206034669Y-123106540D01*
X206177567Y-123106540D01*
X206177567Y-123249437D01*
X206177567Y-123392335D01*
X206320464Y-123392335D01*
X206463361Y-123392335D01*
X206749156Y-123392335D01*
X206749156Y-123535232D01*
X206749156Y-123678129D01*
X206892053Y-123678129D01*
X207034951Y-123678129D01*
X207034951Y-123535232D01*
X207034951Y-123392335D01*
X206892053Y-123392335D01*
X206749156Y-123392335D01*
X206463361Y-123392335D01*
X206463361Y-123249437D01*
X206463361Y-123106540D01*
X206892053Y-123106540D01*
X207320745Y-123106540D01*
X207320745Y-123535232D01*
X207320745Y-123963924D01*
X207463643Y-123963924D01*
X207606540Y-123963924D01*
X207606540Y-123821027D01*
X207606540Y-123678129D01*
X208035232Y-123678129D01*
X208463924Y-123678129D01*
X208463924Y-123535232D01*
X208463924Y-123392335D01*
X208178129Y-123392335D01*
X207892335Y-123392335D01*
X207892335Y-123249437D01*
X207892335Y-123106540D01*
X208178129Y-123106540D01*
X208463924Y-123106540D01*
X208463924Y-123249437D01*
X208463924Y-123392335D01*
X208892616Y-123392335D01*
X209321308Y-123392335D01*
X209321308Y-123106540D01*
X209321308Y-122820745D01*
X209178411Y-122820745D01*
X209035513Y-122820745D01*
X209035513Y-122963643D01*
X209035513Y-123106540D01*
X208892616Y-123106540D01*
X208749719Y-123106540D01*
X208749719Y-122963643D01*
X208749719Y-122820745D01*
X208892616Y-122820745D01*
X209035513Y-122820745D01*
X209035513Y-122677848D01*
X209035513Y-122534951D01*
X208892616Y-122534951D01*
X208749719Y-122534951D01*
X208749719Y-122106259D01*
X208749719Y-121677567D01*
X208606821Y-121677567D01*
X208463924Y-121677567D01*
X208463924Y-121820464D01*
X208463924Y-121963361D01*
X208321027Y-121963361D01*
X208178129Y-121963361D01*
X208178129Y-122106259D01*
X208178129Y-122249156D01*
X208035232Y-122249156D01*
X207892335Y-122249156D01*
X207892335Y-122106259D01*
X207892335Y-121963361D01*
X207749437Y-121963361D01*
X207606540Y-121963361D01*
X207606540Y-121677567D01*
X207606540Y-121391772D01*
X207892335Y-121391772D01*
X208178129Y-121391772D01*
X208178129Y-121534669D01*
X208178129Y-121677567D01*
X208321027Y-121677567D01*
X208463924Y-121677567D01*
X208463924Y-121391772D01*
X208463924Y-121105977D01*
X208606821Y-121105977D01*
X208749719Y-121105977D01*
X208749719Y-121248875D01*
G37*
G36*
X206034669Y-120248594D02*
G01*
X207463643Y-120248594D01*
X207892335Y-120248594D01*
X209178411Y-120248594D01*
X209607103Y-120248594D01*
X209750000Y-120248594D01*
X210178692Y-120248594D01*
X211607665Y-120248594D01*
X213465330Y-120248594D01*
X214751406Y-120248594D01*
X214751406Y-125250000D01*
X214751406Y-130251406D01*
X209750000Y-130251406D01*
X204748594Y-130251406D01*
X204748594Y-127965049D01*
X205034388Y-127965049D01*
X205034388Y-128965330D01*
X205034388Y-129965612D01*
X206034669Y-129965612D01*
X207034951Y-129965612D01*
X207034951Y-128965330D01*
X207034951Y-127965049D01*
X206034669Y-127965049D01*
X205034388Y-127965049D01*
X204748594Y-127965049D01*
X204748594Y-127107665D01*
X205034388Y-127107665D01*
X205034388Y-127250563D01*
X205034388Y-127393460D01*
X205177285Y-127393460D01*
X205320183Y-127393460D01*
X205891772Y-127393460D01*
X205891772Y-127536357D01*
X205891772Y-127679255D01*
X206034669Y-127679255D01*
X206177567Y-127679255D01*
X206177567Y-127536357D01*
X206177567Y-127393460D01*
X206749156Y-127393460D01*
X206749156Y-127536357D01*
X206749156Y-127679255D01*
X206892053Y-127679255D01*
X207034951Y-127679255D01*
X207034951Y-127536357D01*
X207034951Y-127393460D01*
X206892053Y-127393460D01*
X206749156Y-127393460D01*
X206177567Y-127393460D01*
X206034669Y-127393460D01*
X205891772Y-127393460D01*
X205320183Y-127393460D01*
X205320183Y-127250563D01*
X205320183Y-127107665D01*
X205177285Y-127107665D01*
X205034388Y-127107665D01*
X204748594Y-127107665D01*
X204748594Y-125678692D01*
X205034388Y-125678692D01*
X205034388Y-126250281D01*
X205034388Y-126821871D01*
X205177285Y-126821871D01*
X205320183Y-126821871D01*
X205320183Y-126250281D01*
X205320183Y-125964487D01*
X205605977Y-125964487D01*
X205605977Y-126536076D01*
X205605977Y-127107665D01*
X205891772Y-127107665D01*
X206034669Y-127107665D01*
X206177567Y-127107665D01*
X206177567Y-126964768D01*
X206177567Y-126821871D01*
X206320464Y-126821871D01*
X206463361Y-126821871D01*
X206463361Y-126393179D01*
X206463361Y-125964487D01*
X206034669Y-125964487D01*
X205605977Y-125964487D01*
X205320183Y-125964487D01*
X205320183Y-125678692D01*
X205177285Y-125678692D01*
X205034388Y-125678692D01*
X204748594Y-125678692D01*
X204748594Y-125250000D01*
X204748594Y-123963924D01*
X205034388Y-123963924D01*
X205034388Y-124249719D01*
X205034388Y-124535513D01*
X205177285Y-124535513D01*
X205320183Y-124535513D01*
X205320183Y-124821308D01*
X205320183Y-125107103D01*
X205177285Y-125107103D01*
X205034388Y-125107103D01*
X205034388Y-125250000D01*
X205034388Y-125392897D01*
X205177285Y-125392897D01*
X205320183Y-125392897D01*
X205320183Y-125250000D01*
X205320183Y-125107103D01*
X205463080Y-125107103D01*
X205605977Y-125107103D01*
X205605977Y-124821308D01*
X205605977Y-124535513D01*
X205748875Y-124535513D01*
X205891772Y-124535513D01*
X205891772Y-125107103D01*
X205891772Y-125678692D01*
X206034669Y-125678692D01*
X206177567Y-125678692D01*
X206749156Y-125678692D01*
X206749156Y-125821589D01*
X206749156Y-125964487D01*
X206892053Y-125964487D01*
X207034951Y-125964487D01*
X207034951Y-125821589D01*
X207034951Y-125678692D01*
X206892053Y-125678692D01*
X206749156Y-125678692D01*
X206177567Y-125678692D01*
X206177567Y-125392897D01*
X206177567Y-125107103D01*
X206320464Y-125107103D01*
X206463361Y-125107103D01*
X206463361Y-125250000D01*
X206463361Y-125392897D01*
X206749156Y-125392897D01*
X206892053Y-125392897D01*
X207034951Y-125392897D01*
X207034951Y-125250000D01*
X207034951Y-125107103D01*
X207177848Y-125107103D01*
X207320745Y-125107103D01*
X207320745Y-125392897D01*
X207320745Y-125678692D01*
X207463643Y-125678692D01*
X207606540Y-125678692D01*
X207606540Y-125535795D01*
X207606540Y-125392897D01*
X207749437Y-125392897D01*
X207892335Y-125392897D01*
X207892335Y-125678692D01*
X207892335Y-125964487D01*
X207606540Y-125964487D01*
X207320745Y-125964487D01*
X207320745Y-126107384D01*
X207320745Y-126250281D01*
X207034951Y-126250281D01*
X206749156Y-126250281D01*
X206749156Y-126393179D01*
X206749156Y-126536076D01*
X206892053Y-126536076D01*
X207034951Y-126536076D01*
X207034951Y-126678973D01*
X207034951Y-126821871D01*
X206892053Y-126821871D01*
X206749156Y-126821871D01*
X206749156Y-126964768D01*
X206749156Y-127107665D01*
X206892053Y-127107665D01*
X207034951Y-127107665D01*
X207034951Y-126964768D01*
X207034951Y-126821871D01*
X207177848Y-126821871D01*
X207320745Y-126821871D01*
X207320745Y-126536076D01*
X207320745Y-126250281D01*
X207463643Y-126250281D01*
X207606540Y-126250281D01*
X207606540Y-126393179D01*
X207606540Y-126536076D01*
X207892335Y-126536076D01*
X208178129Y-126536076D01*
X208178129Y-126678973D01*
X208178129Y-126821871D01*
X208035232Y-126821871D01*
X207892335Y-126821871D01*
X207892335Y-126964768D01*
X207892335Y-127107665D01*
X207606540Y-127107665D01*
X207320745Y-127107665D01*
X207320745Y-127250563D01*
X207320745Y-127393460D01*
X207606540Y-127393460D01*
X207892335Y-127393460D01*
X207892335Y-127536357D01*
X207892335Y-127679255D01*
X208178129Y-127679255D01*
X208463924Y-127679255D01*
X208463924Y-127822152D01*
X208463924Y-127965049D01*
X208606821Y-127965049D01*
X208749719Y-127965049D01*
X208749719Y-128107947D01*
X208749719Y-128250844D01*
X209178411Y-128250844D01*
X209607103Y-128250844D01*
X209607103Y-128393741D01*
X209607103Y-128536639D01*
X209321308Y-128536639D01*
X209035513Y-128536639D01*
X209035513Y-128679536D01*
X209035513Y-128822433D01*
X208749719Y-128822433D01*
X208463924Y-128822433D01*
X208463924Y-128679536D01*
X208463924Y-128536639D01*
X208178129Y-128536639D01*
X207892335Y-128536639D01*
X207892335Y-128250844D01*
X207892335Y-127965049D01*
X207606540Y-127965049D01*
X207320745Y-127965049D01*
X207320745Y-128679536D01*
X207320745Y-129394022D01*
X207463643Y-129394022D01*
X207606540Y-129394022D01*
X207606540Y-129679817D01*
X207606540Y-129965612D01*
X207749437Y-129965612D01*
X207892335Y-129965612D01*
X207892335Y-129822714D01*
X207892335Y-129679817D01*
X208035232Y-129679817D01*
X208178129Y-129679817D01*
X208178129Y-129822714D01*
X208178129Y-129965612D01*
X208321027Y-129965612D01*
X208463924Y-129965612D01*
X208463924Y-129536920D01*
X208463924Y-129108228D01*
X208606821Y-129108228D01*
X208749719Y-129108228D01*
X208749719Y-129536920D01*
X208749719Y-129965612D01*
X208892616Y-129965612D01*
X209035513Y-129965612D01*
X209035513Y-129822714D01*
X209035513Y-129679817D01*
X209178411Y-129679817D01*
X209321308Y-129679817D01*
X209321308Y-129536920D01*
X209321308Y-129394022D01*
X209464205Y-129394022D01*
X209607103Y-129394022D01*
X209607103Y-129108228D01*
X209607103Y-128822433D01*
X209750000Y-128822433D01*
X209892897Y-128822433D01*
X209892897Y-129108228D01*
X209892897Y-129394022D01*
X210035795Y-129394022D01*
X210178692Y-129394022D01*
X210178692Y-129536920D01*
X210178692Y-129679817D01*
X209892897Y-129679817D01*
X209607103Y-129679817D01*
X209607103Y-129822714D01*
X209607103Y-129965612D01*
X209892897Y-129965612D01*
X210178692Y-129965612D01*
X210178692Y-129822714D01*
X210178692Y-129679817D01*
X210607384Y-129679817D01*
X211036076Y-129679817D01*
X211036076Y-129822714D01*
X211036076Y-129965612D01*
X211178973Y-129965612D01*
X211321871Y-129965612D01*
X211321871Y-129822714D01*
X211321871Y-129679817D01*
X211464768Y-129679817D01*
X211607665Y-129679817D01*
X211607665Y-129822714D01*
X211607665Y-129965612D01*
X211750563Y-129965612D01*
X211893460Y-129965612D01*
X211893460Y-129822714D01*
X211893460Y-129679817D01*
X212036357Y-129679817D01*
X212179255Y-129679817D01*
X212179255Y-129822714D01*
X212179255Y-129965612D01*
X212322152Y-129965612D01*
X212465049Y-129965612D01*
X212465049Y-129822714D01*
X212465049Y-129679817D01*
X212607947Y-129679817D01*
X212750844Y-129679817D01*
X212750844Y-129536920D01*
X212750844Y-129394022D01*
X212893741Y-129394022D01*
X213036639Y-129394022D01*
X213036639Y-129536920D01*
X213036639Y-129679817D01*
X213179536Y-129679817D01*
X213322433Y-129679817D01*
X213322433Y-129822714D01*
X213322433Y-129965612D01*
X213465330Y-129965612D01*
X213608228Y-129965612D01*
X213608228Y-129679817D01*
X213608228Y-129394022D01*
X213322433Y-129394022D01*
X213036639Y-129394022D01*
X213036639Y-129251125D01*
X213036639Y-129108228D01*
X213322433Y-129108228D01*
X213465330Y-129108228D01*
X213894022Y-129108228D01*
X213894022Y-129251125D01*
X213894022Y-129394022D01*
X214036920Y-129394022D01*
X214179817Y-129394022D01*
X214179817Y-129536920D01*
X214179817Y-129679817D01*
X214322714Y-129679817D01*
X214465612Y-129679817D01*
X214465612Y-129536920D01*
X214465612Y-129394022D01*
X214322714Y-129394022D01*
X214179817Y-129394022D01*
X214179817Y-128965330D01*
X214179817Y-128536639D01*
X214322714Y-128536639D01*
X214465612Y-128536639D01*
X214465612Y-127679255D01*
X214465612Y-126821871D01*
X214322714Y-126821871D01*
X214179817Y-126821871D01*
X214179817Y-126678973D01*
X214179817Y-126536076D01*
X214036920Y-126536076D01*
X213894022Y-126536076D01*
X213894022Y-126678973D01*
X213894022Y-126821871D01*
X213465330Y-126821871D01*
X213036639Y-126821871D01*
X213036639Y-126536076D01*
X213036639Y-126250281D01*
X213179536Y-126250281D01*
X213322433Y-126250281D01*
X213322433Y-126393179D01*
X213322433Y-126536076D01*
X213465330Y-126536076D01*
X213608228Y-126536076D01*
X213608228Y-126250281D01*
X213608228Y-125964487D01*
X213751125Y-125964487D01*
X213894022Y-125964487D01*
X213894022Y-126107384D01*
X213894022Y-126250281D01*
X214036920Y-126250281D01*
X214179817Y-126250281D01*
X214179817Y-126107384D01*
X214179817Y-125964487D01*
X214036920Y-125964487D01*
X213894022Y-125964487D01*
X213894022Y-125821589D01*
X213894022Y-125678692D01*
X213751125Y-125678692D01*
X213608228Y-125678692D01*
X213608228Y-125250000D01*
X213608228Y-125107103D01*
X213894022Y-125107103D01*
X213894022Y-125250000D01*
X213894022Y-125392897D01*
X214036920Y-125392897D01*
X214179817Y-125392897D01*
X214179817Y-125535795D01*
X214179817Y-125678692D01*
X214322714Y-125678692D01*
X214465612Y-125678692D01*
X214465612Y-125535795D01*
X214465612Y-125392897D01*
X214322714Y-125392897D01*
X214179817Y-125392897D01*
X214179817Y-125250000D01*
X214179817Y-125107103D01*
X214036920Y-125107103D01*
X213894022Y-125107103D01*
X213608228Y-125107103D01*
X213608228Y-124821308D01*
X213894022Y-124821308D01*
X214036920Y-124821308D01*
X214179817Y-124821308D01*
X214179817Y-124535513D01*
X214179817Y-124249719D01*
X214036920Y-124249719D01*
X213894022Y-124249719D01*
X213894022Y-123963924D01*
X213894022Y-123678129D01*
X214179817Y-123678129D01*
X214322714Y-123678129D01*
X214465612Y-123678129D01*
X214465612Y-123535232D01*
X214465612Y-123392335D01*
X214322714Y-123392335D01*
X214179817Y-123392335D01*
X214179817Y-123249437D01*
X214179817Y-123106540D01*
X214322714Y-123106540D01*
X214465612Y-123106540D01*
X214465612Y-122963643D01*
X214465612Y-122820745D01*
X214322714Y-122820745D01*
X214179817Y-122820745D01*
X214179817Y-122963643D01*
X214179817Y-123106540D01*
X214036920Y-123106540D01*
X213894022Y-123106540D01*
X213894022Y-122963643D01*
X213894022Y-122820745D01*
X213322433Y-122820745D01*
X212750844Y-122820745D01*
X212750844Y-122963643D01*
X212750844Y-123106540D01*
X213036639Y-123106540D01*
X213322433Y-123106540D01*
X213322433Y-123249437D01*
X213322433Y-123392335D01*
X213608228Y-123392335D01*
X213894022Y-123392335D01*
X213894022Y-123535232D01*
X213894022Y-123678129D01*
X213751125Y-123678129D01*
X213608228Y-123678129D01*
X213608228Y-123821027D01*
X213608228Y-123963924D01*
X213465330Y-123963924D01*
X213322433Y-123963924D01*
X213322433Y-123821027D01*
X213322433Y-123678129D01*
X213179536Y-123678129D01*
X213036639Y-123678129D01*
X213036639Y-123535232D01*
X213036639Y-123392335D01*
X212893741Y-123392335D01*
X212750844Y-123392335D01*
X212750844Y-123535232D01*
X212750844Y-123678129D01*
X212607947Y-123678129D01*
X212465049Y-123678129D01*
X212465049Y-123249437D01*
X212465049Y-122820745D01*
X212322152Y-122820745D01*
X212179255Y-122820745D01*
X212179255Y-122963643D01*
X212179255Y-123106540D01*
X211893460Y-123106540D01*
X211607665Y-123106540D01*
X211607665Y-123249437D01*
X211607665Y-123392335D01*
X211464768Y-123392335D01*
X211321871Y-123392335D01*
X211321871Y-123678129D01*
X211321871Y-123963924D01*
X211178973Y-123963924D01*
X211036076Y-123963924D01*
X211036076Y-123678129D01*
X211036076Y-123392335D01*
X210893179Y-123392335D01*
X210750281Y-123392335D01*
X210750281Y-123249437D01*
X210750281Y-123106540D01*
X211036076Y-123106540D01*
X211321871Y-123106540D01*
X211321871Y-122963643D01*
X211321871Y-122820745D01*
X210893179Y-122820745D01*
X210464487Y-122820745D01*
X210464487Y-122534951D01*
X210464487Y-122249156D01*
X210607384Y-122249156D01*
X210750281Y-122249156D01*
X210750281Y-122392053D01*
X210750281Y-122534951D01*
X210893179Y-122534951D01*
X211036076Y-122534951D01*
X211036076Y-122392053D01*
X211036076Y-122249156D01*
X211178973Y-122249156D01*
X211321871Y-122249156D01*
X211321871Y-122392053D01*
X211321871Y-122534951D01*
X211464768Y-122534951D01*
X211607665Y-122534951D01*
X211607665Y-122392053D01*
X211607665Y-122249156D01*
X211893460Y-122249156D01*
X211893460Y-122392053D01*
X211893460Y-122534951D01*
X212036357Y-122534951D01*
X212179255Y-122534951D01*
X212179255Y-122392053D01*
X212179255Y-122249156D01*
X212036357Y-122249156D01*
X211893460Y-122249156D01*
X211607665Y-122249156D01*
X211464768Y-122249156D01*
X211321871Y-122249156D01*
X211321871Y-122106259D01*
X211321871Y-121963361D01*
X211178973Y-121963361D01*
X211036076Y-121963361D01*
X211036076Y-121820464D01*
X211036076Y-121677567D01*
X210607384Y-121677567D01*
X210178692Y-121677567D01*
X210178692Y-121820464D01*
X210178692Y-121963361D01*
X210035795Y-121963361D01*
X209892897Y-121963361D01*
X209892897Y-121820464D01*
X209892897Y-121677567D01*
X209750000Y-121677567D01*
X209607103Y-121677567D01*
X209607103Y-121534669D01*
X209607103Y-121391772D01*
X209321308Y-121391772D01*
X209035513Y-121391772D01*
X209035513Y-121248875D01*
X209035513Y-121105977D01*
X208892616Y-121105977D01*
X208749719Y-121105977D01*
X208749719Y-120963080D01*
X208749719Y-120820183D01*
X208463924Y-120820183D01*
X208178129Y-120820183D01*
X208178129Y-120963080D01*
X208178129Y-121105977D01*
X207749437Y-121105977D01*
X207320745Y-121105977D01*
X207320745Y-121820464D01*
X207320745Y-122534951D01*
X207463643Y-122534951D01*
X207606540Y-122534951D01*
X207606540Y-122392053D01*
X207606540Y-122249156D01*
X207749437Y-122249156D01*
X207892335Y-122249156D01*
X207892335Y-122392053D01*
X207892335Y-122534951D01*
X208035232Y-122534951D01*
X208178129Y-122534951D01*
X208178129Y-122392053D01*
X208178129Y-122249156D01*
X208321027Y-122249156D01*
X208463924Y-122249156D01*
X208463924Y-122534951D01*
X208463924Y-122820745D01*
X208035232Y-122820745D01*
X207606540Y-122820745D01*
X207606540Y-122963643D01*
X207606540Y-123106540D01*
X207463643Y-123106540D01*
X207320745Y-123106540D01*
X207320745Y-122963643D01*
X207320745Y-122820745D01*
X206463361Y-122820745D01*
X205605977Y-122820745D01*
X205605977Y-122963643D01*
X205605977Y-123106540D01*
X205463080Y-123106540D01*
X205320183Y-123106540D01*
X205320183Y-123392335D01*
X205320183Y-123678129D01*
X205463080Y-123678129D01*
X205605977Y-123678129D01*
X205605977Y-123821027D01*
X205605977Y-123963924D01*
X205320183Y-123963924D01*
X205034388Y-123963924D01*
X204748594Y-123963924D01*
X204748594Y-120534388D01*
X205034388Y-120534388D01*
X205034388Y-121534669D01*
X205034388Y-122534951D01*
X206034669Y-122534951D01*
X207034951Y-122534951D01*
X207034951Y-121534669D01*
X207034951Y-120534388D01*
X207320745Y-120534388D01*
X207320745Y-120677285D01*
X207320745Y-120820183D01*
X207463643Y-120820183D01*
X207606540Y-120820183D01*
X207606540Y-120677285D01*
X207892335Y-120677285D01*
X207892335Y-120820183D01*
X208035232Y-120820183D01*
X208178129Y-120820183D01*
X208178129Y-120677285D01*
X208178129Y-120534388D01*
X209035513Y-120534388D01*
X209035513Y-120677285D01*
X209035513Y-120820183D01*
X209178411Y-120820183D01*
X209321308Y-120820183D01*
X209321308Y-120963080D01*
X209321308Y-121105977D01*
X209607103Y-121105977D01*
X209892897Y-121105977D01*
X209892897Y-121248875D01*
X209892897Y-121391772D01*
X210035795Y-121391772D01*
X210178692Y-121391772D01*
X210178692Y-121248875D01*
X210178692Y-121105977D01*
X210321589Y-121105977D01*
X210464487Y-121105977D01*
X210750281Y-121105977D01*
X210750281Y-121248875D01*
X210750281Y-121391772D01*
X211036076Y-121391772D01*
X211321871Y-121391772D01*
X211321871Y-121534669D01*
X211321871Y-121677567D01*
X211464768Y-121677567D01*
X211607665Y-121677567D01*
X211893460Y-121677567D01*
X211893460Y-121534669D01*
X211893460Y-121391772D01*
X212036357Y-121391772D01*
X212179255Y-121391772D01*
X212179255Y-121248875D01*
X212179255Y-121105977D01*
X212036357Y-121105977D01*
X211893460Y-121105977D01*
X211893460Y-121248875D01*
X211893460Y-121391772D01*
X211750563Y-121391772D01*
X211607665Y-121391772D01*
X211607665Y-121248875D01*
X211607665Y-121105977D01*
X211178973Y-121105977D01*
X210750281Y-121105977D01*
X210464487Y-121105977D01*
X210464487Y-120963080D01*
X210464487Y-120820183D01*
X210607384Y-120820183D01*
X210750281Y-120820183D01*
X210750281Y-120677285D01*
X210750281Y-120534388D01*
X211036076Y-120534388D01*
X211036076Y-120677285D01*
X211036076Y-120820183D01*
X211178973Y-120820183D01*
X211607665Y-120820183D01*
X212179255Y-120820183D01*
X212179255Y-120677285D01*
X212179255Y-120534388D01*
X212465049Y-120534388D01*
X212465049Y-121534669D01*
X212465049Y-122534951D01*
X213465330Y-122534951D01*
X214465612Y-122534951D01*
X214465612Y-121534669D01*
X214465612Y-120534388D01*
X213465330Y-120534388D01*
X212465049Y-120534388D01*
X212179255Y-120534388D01*
X211607665Y-120534388D01*
X211036076Y-120534388D01*
X210750281Y-120534388D01*
X210464487Y-120534388D01*
X210178692Y-120534388D01*
X210178692Y-120820183D01*
X210178692Y-121105977D01*
X210035795Y-121105977D01*
X209892897Y-121105977D01*
X209892897Y-120820183D01*
X209892897Y-120534388D01*
X209750000Y-120534388D01*
X209607103Y-120534388D01*
X209607103Y-120677285D01*
X209607103Y-120820183D01*
X209464205Y-120820183D01*
X209321308Y-120820183D01*
X209321308Y-120677285D01*
X209321308Y-120534388D01*
X209178411Y-120534388D01*
X209035513Y-120534388D01*
X208178129Y-120534388D01*
X208035232Y-120534388D01*
X207892335Y-120534388D01*
X207892335Y-120677285D01*
X207606540Y-120677285D01*
X207606540Y-120534388D01*
X207463643Y-120534388D01*
X207320745Y-120534388D01*
X207034951Y-120534388D01*
X206034669Y-120534388D01*
X205034388Y-120534388D01*
X204748594Y-120534388D01*
X204748594Y-120248594D01*
X206034669Y-120248594D01*
G37*
%TD*%
M02*
