%TF.GenerationSoftware,KiCad,Pcbnew,9.0.7*%
%TF.CreationDate,2026-01-18T17:52:59+01:00*%
%TF.ProjectId,pcb_phone_controller,7063625f-7068-46f6-9e65-5f636f6e7472,rev?*%
%TF.SameCoordinates,Original*%
%TF.FileFunction,Drillmap*%
%TF.FilePolarity,Positive*%
%FSLAX45Y45*%
G04 Gerber Fmt 4.5, Leading zero omitted, Abs format (unit mm)*
G04 Created by KiCad (PCBNEW 9.0.7) date 2026-01-18 17:52:59*
%MOMM*%
%LPD*%
G01*
G04 APERTURE LIST*
%ADD10C,0.200000*%
%ADD11C,0.100000*%
%ADD12C,0.110000*%
%ADD13C,0.270000*%
G04 APERTURE END LIST*
D10*
X21448136Y-14631310D02*
X20848136Y-14631313D01*
X20848136Y-14680000D02*
X19518412Y-14680000D01*
X21448136Y-14680000D02*
X22252863Y-14680000D01*
X21448136Y-14631310D02*
X21448136Y-14680000D01*
X20848136Y-14631313D02*
X20848136Y-14680000D01*
X17622136Y-10651318D02*
X17528005Y-10664301D01*
X12475629Y-10644612D02*
X12380200Y-10631450D01*
X16500000Y-12429194D02*
X19038412Y-12429194D01*
X11831588Y-12174194D02*
G75*
G02*
X11781588Y-12224188I-49998J4D01*
G01*
X11531588Y-12224194D02*
X11781587Y-12224194D01*
X11950868Y-10087691D02*
X11505088Y-10026207D01*
X22252863Y-10275000D02*
X22252863Y-10240762D01*
X11531588Y-10629194D02*
X11457267Y-10372925D01*
X13122893Y-9510186D02*
G75*
G02*
X13035803Y-10239160I-5934493J339296D01*
G01*
X13235000Y-14050000D02*
X13235000Y-14670000D01*
X13235000Y-14670000D02*
X11040000Y-14670000D01*
X11040000Y-12920071D02*
X11040000Y-14670000D01*
X11457267Y-10372925D02*
X11505088Y-10026207D01*
X18494912Y-10026207D02*
X18049132Y-10087691D01*
X19650466Y-10371561D02*
X19684632Y-10619279D01*
X13035804Y-10239160D02*
G75*
G02*
X12475629Y-10644617I-491864J89860D01*
G01*
X11781587Y-11124194D02*
G75*
G02*
X11831586Y-11174194I3J-49996D01*
G01*
X22252863Y-14680000D02*
X22252863Y-10275000D01*
X20598810Y-10240762D02*
X22225000Y-10240762D01*
X19468412Y-13124194D02*
G75*
G02*
X19518406Y-13174194I-2J-49996D01*
G01*
X13500000Y-14050000D02*
X13500000Y-11050000D01*
X16968164Y-10260656D02*
G75*
G02*
X16877107Y-9510186I5843436J1089766D01*
G01*
X19238412Y-13124194D02*
X19238412Y-12629194D01*
X22225000Y-10240762D02*
X22252863Y-10240762D01*
X11531588Y-12428483D02*
X11040000Y-12920071D01*
X17528005Y-10664301D02*
G75*
G02*
X16968165Y-10260656I-68315J495311D01*
G01*
X11531588Y-12428483D02*
X11531588Y-12224194D01*
X11531588Y-11124194D02*
X11531588Y-10629194D01*
X19468412Y-13124194D02*
X19238412Y-13124194D01*
X13500000Y-14050000D02*
X13235000Y-14050000D01*
X11831588Y-11174194D02*
X11831588Y-12174194D01*
X19650466Y-10371561D02*
X20598810Y-10240762D01*
X16500000Y-12429194D02*
X16500000Y-11050000D01*
X12380200Y-10631450D02*
G75*
G02*
X11950862Y-10087690I68320J495320D01*
G01*
X19092715Y-10700930D02*
G75*
G02*
X18529079Y-10273936I-68325J495310D01*
G01*
X19684632Y-10619279D02*
X19092715Y-10700930D01*
X16877107Y-9510186D02*
X13122893Y-9510186D01*
X13500000Y-11050000D02*
X16500000Y-11050000D01*
X19038412Y-12429194D02*
G75*
G02*
X19238406Y-12629194I-2J-199996D01*
G01*
X11781587Y-11124194D02*
X11531588Y-11124194D01*
X19518412Y-13174194D02*
X19518412Y-14680000D01*
X18529080Y-10273936D02*
X18494912Y-10026207D01*
X18049132Y-10087691D02*
G75*
G02*
X17622137Y-10651322I-495312J-68319D01*
G01*
X20848136Y-14631313D02*
X20848136Y-13231313D01*
X20948136Y-13131313D02*
X21348136Y-13131313D01*
X21348136Y-14731313D02*
X20948136Y-14731313D01*
X21448136Y-13231313D02*
X21448136Y-14631313D01*
X20848136Y-13231313D02*
G75*
G02*
X20948136Y-13131313I100000J0D01*
G01*
X20948136Y-14731313D02*
G75*
G02*
X20848136Y-14631313I0J100000D01*
G01*
X21348136Y-13131313D02*
G75*
G02*
X21448136Y-13231313I0J-100000D01*
G01*
X21448136Y-14631313D02*
G75*
G02*
X21348136Y-14731313I-100000J0D01*
G01*
D11*
X11485000Y-12785000D02*
X11515000Y-12815000D01*
X11515000Y-12785000D02*
X11485000Y-12815000D01*
X11925000Y-10915000D02*
X11955000Y-10945000D01*
X11955000Y-10915000D02*
X11925000Y-10945000D01*
X12232500Y-13072500D02*
X12262500Y-13102500D01*
X12262500Y-13072500D02*
X12232500Y-13102500D01*
X12285000Y-11135000D02*
X12315000Y-11165000D01*
X12315000Y-11135000D02*
X12285000Y-11165000D01*
X12350992Y-11236853D02*
X12380992Y-11266853D01*
X12380992Y-11236853D02*
X12350992Y-11266853D01*
X12535000Y-11360000D02*
X12565000Y-11390000D01*
X12565000Y-11360000D02*
X12535000Y-11390000D01*
X12625000Y-12035000D02*
X12655000Y-12065000D01*
X12655000Y-12035000D02*
X12625000Y-12065000D01*
X12660000Y-11110000D02*
X12690000Y-11140000D01*
X12690000Y-11110000D02*
X12660000Y-11140000D01*
X12669500Y-11574307D02*
X12699500Y-11604307D01*
X12699500Y-11574307D02*
X12669500Y-11604307D01*
X12785000Y-11910000D02*
X12815000Y-11940000D01*
X12815000Y-11910000D02*
X12785000Y-11940000D01*
X12817700Y-11110000D02*
X12847700Y-11140000D01*
X12847700Y-11110000D02*
X12817700Y-11140000D01*
X13071250Y-11450000D02*
X13101250Y-11480000D01*
X13101250Y-11450000D02*
X13071250Y-11480000D01*
X13071250Y-11640000D02*
X13101250Y-11670000D01*
X13101250Y-11640000D02*
X13071250Y-11670000D01*
X13270000Y-11107500D02*
X13300000Y-11137500D01*
X13300000Y-11107500D02*
X13270000Y-11137500D01*
X13560000Y-10085000D02*
X13590000Y-10115000D01*
X13590000Y-10085000D02*
X13560000Y-10115000D01*
X13676250Y-10701250D02*
X13706250Y-10731250D01*
X13706250Y-10701250D02*
X13676250Y-10731250D01*
X13785000Y-10377100D02*
X13815000Y-10407100D01*
X13815000Y-10377100D02*
X13785000Y-10407100D01*
X14375000Y-10295000D02*
X14405000Y-10325000D01*
X14405000Y-10295000D02*
X14375000Y-10325000D01*
X14835000Y-10585000D02*
X14865000Y-10615000D01*
X14865000Y-10585000D02*
X14835000Y-10615000D01*
X15010000Y-9785000D02*
X15040000Y-9815000D01*
X15040000Y-9785000D02*
X15010000Y-9815000D01*
X15175000Y-10415000D02*
X15205000Y-10445000D01*
X15205000Y-10415000D02*
X15175000Y-10445000D01*
X15735000Y-10560000D02*
X15765000Y-10590000D01*
X15765000Y-10560000D02*
X15735000Y-10590000D01*
X16235000Y-10585000D02*
X16265000Y-10615000D01*
X16265000Y-10585000D02*
X16235000Y-10615000D01*
X16585000Y-11085000D02*
X16615000Y-11115000D01*
X16615000Y-11085000D02*
X16585000Y-11115000D01*
X16604825Y-10908575D02*
X16634825Y-10938575D01*
X16634825Y-10908575D02*
X16604825Y-10938575D01*
X16785000Y-12210000D02*
X16815000Y-12240000D01*
X16815000Y-12210000D02*
X16785000Y-12240000D01*
X16940000Y-12035000D02*
X16970000Y-12065000D01*
X16970000Y-12035000D02*
X16940000Y-12065000D01*
X16985000Y-11160000D02*
X17015000Y-11190000D01*
X17015000Y-11160000D02*
X16985000Y-11190000D01*
X17027300Y-11067500D02*
X17057300Y-11097500D01*
X17057300Y-11067500D02*
X17027300Y-11097500D01*
X17135000Y-11935000D02*
X17165000Y-11965000D01*
X17165000Y-11935000D02*
X17135000Y-11965000D01*
X17185000Y-11735000D02*
X17215000Y-11765000D01*
X17215000Y-11735000D02*
X17185000Y-11765000D01*
X17335000Y-11360000D02*
X17365000Y-11390000D01*
X17365000Y-11360000D02*
X17335000Y-11390000D01*
X17366250Y-11815000D02*
X17396250Y-11845000D01*
X17396250Y-11815000D02*
X17366250Y-11845000D01*
X17728607Y-11985000D02*
X17758607Y-12015000D01*
X17758607Y-11985000D02*
X17728607Y-12015000D01*
X17985000Y-11985000D02*
X18015000Y-12015000D01*
X18015000Y-11985000D02*
X17985000Y-12015000D01*
X17985000Y-12235000D02*
X18015000Y-12265000D01*
X18015000Y-12235000D02*
X17985000Y-12265000D01*
X18085000Y-10360000D02*
X18115000Y-10390000D01*
X18115000Y-10360000D02*
X18085000Y-10390000D01*
X18160000Y-10635000D02*
X18190000Y-10665000D01*
X18190000Y-10635000D02*
X18160000Y-10665000D01*
X18300000Y-12186800D02*
X18330000Y-12216800D01*
X18330000Y-12186800D02*
X18300000Y-12216800D01*
X18460387Y-12244500D02*
X18490387Y-12274500D01*
X18490387Y-12244500D02*
X18460387Y-12274500D01*
X18565000Y-10645000D02*
X18595000Y-10675000D01*
X18595000Y-10645000D02*
X18565000Y-10675000D01*
X18789750Y-11961700D02*
X18819750Y-11991700D01*
X18819750Y-11961700D02*
X18789750Y-11991700D01*
X18925000Y-12185000D02*
X18955000Y-12215000D01*
X18955000Y-12185000D02*
X18925000Y-12215000D01*
X19017886Y-11039900D02*
X19047886Y-11069900D01*
X19047886Y-11039900D02*
X19017886Y-11069900D01*
X19027500Y-11375000D02*
X19057500Y-11405000D01*
X19057500Y-11375000D02*
X19027500Y-11405000D01*
X19264019Y-12211700D02*
X19294019Y-12241700D01*
X19294019Y-12211700D02*
X19264019Y-12241700D01*
X19265000Y-11805000D02*
X19295000Y-11835000D01*
X19295000Y-11805000D02*
X19265000Y-11835000D01*
X19355000Y-12855000D02*
X19385000Y-12885000D01*
X19385000Y-12855000D02*
X19355000Y-12885000D01*
X19395000Y-12335000D02*
X19425000Y-12365000D01*
X19425000Y-12335000D02*
X19395000Y-12365000D01*
X19489200Y-12670800D02*
X19519200Y-12700800D01*
X19519200Y-12670800D02*
X19489200Y-12700800D01*
X19509592Y-12891193D02*
X19539592Y-12921193D01*
X19539592Y-12891193D02*
X19509592Y-12921193D01*
X19741412Y-12247881D02*
X19771412Y-12277881D01*
X19771412Y-12247881D02*
X19741412Y-12277881D01*
X19912500Y-10992500D02*
X19942500Y-11022500D01*
X19942500Y-10992500D02*
X19912500Y-11022500D01*
X19915000Y-13165000D02*
X19945000Y-13195000D01*
X19945000Y-13165000D02*
X19915000Y-13195000D01*
X19960000Y-11810000D02*
X19990000Y-11840000D01*
X19990000Y-11810000D02*
X19960000Y-11840000D01*
X19965000Y-13365000D02*
X19995000Y-13395000D01*
X19995000Y-13365000D02*
X19965000Y-13395000D01*
X20057300Y-13105000D02*
X20087300Y-13135000D01*
X20087300Y-13105000D02*
X20057300Y-13135000D01*
X20109773Y-12527759D02*
X20139773Y-12557759D01*
X20139773Y-12527759D02*
X20109773Y-12557759D01*
X20115000Y-13175000D02*
X20145000Y-13205000D01*
X20145000Y-13175000D02*
X20115000Y-13205000D01*
X20118850Y-12617300D02*
X20148850Y-12647300D01*
X20148850Y-12617300D02*
X20118850Y-12647300D01*
X20145000Y-12085000D02*
X20175000Y-12115000D01*
X20175000Y-12085000D02*
X20145000Y-12115000D01*
X20246000Y-12989187D02*
X20276000Y-13019187D01*
X20276000Y-12989187D02*
X20246000Y-13019187D01*
X20246000Y-13116187D02*
X20276000Y-13146187D01*
X20276000Y-13116187D02*
X20246000Y-13146187D01*
X20246000Y-13243187D02*
X20276000Y-13273187D01*
X20276000Y-13243187D02*
X20246000Y-13273187D01*
X20246000Y-13497187D02*
X20276000Y-13527187D01*
X20276000Y-13497187D02*
X20246000Y-13527187D01*
X20246000Y-13624187D02*
X20276000Y-13654187D01*
X20276000Y-13624187D02*
X20246000Y-13654187D01*
X20305000Y-12465000D02*
X20335000Y-12495000D01*
X20335000Y-12465000D02*
X20305000Y-12495000D01*
X20305800Y-11824200D02*
X20335800Y-11854200D01*
X20335800Y-11824200D02*
X20305800Y-11854200D01*
X20365000Y-12185000D02*
X20395000Y-12215000D01*
X20395000Y-12185000D02*
X20365000Y-12215000D01*
X20395533Y-11831133D02*
X20425533Y-11861133D01*
X20425533Y-11831133D02*
X20395533Y-11861133D01*
X20580000Y-11550000D02*
X20610000Y-11580000D01*
X20610000Y-11550000D02*
X20580000Y-11580000D01*
X20685000Y-11860000D02*
X20715000Y-11890000D01*
X20715000Y-11860000D02*
X20685000Y-11890000D01*
X20735000Y-12445000D02*
X20765000Y-12475000D01*
X20765000Y-12445000D02*
X20735000Y-12475000D01*
X21385000Y-11185000D02*
X21415000Y-11215000D01*
X21415000Y-11185000D02*
X21385000Y-11215000D01*
X21736406Y-13463594D02*
X21766406Y-13493594D01*
X21766406Y-13463594D02*
X21736406Y-13493594D01*
X21855000Y-12845000D02*
X21885000Y-12875000D01*
X21885000Y-12845000D02*
X21855000Y-12875000D01*
X22024000Y-13751187D02*
X22054000Y-13781187D01*
X22054000Y-13751187D02*
X22024000Y-13781187D01*
X11670329Y-10135848D02*
G75*
G02*
X11610329Y-10135848I-30000J0D01*
G01*
X11610329Y-10135848D02*
G75*
G02*
X11670329Y-10135848I30000J0D01*
G01*
X11710467Y-10393750D02*
G75*
G02*
X11650467Y-10393750I-30000J0D01*
G01*
X11650467Y-10393750D02*
G75*
G02*
X11710467Y-10393750I30000J0D01*
G01*
X11818922Y-10156342D02*
G75*
G02*
X11758922Y-10156342I-30000J0D01*
G01*
X11758922Y-10156342D02*
G75*
G02*
X11818922Y-10156342I30000J0D01*
G01*
X18241078Y-10156342D02*
G75*
G02*
X18181078Y-10156342I-30000J0D01*
G01*
X18181078Y-10156342D02*
G75*
G02*
X18241078Y-10156342I30000J0D01*
G01*
X18349533Y-10393750D02*
G75*
G02*
X18289533Y-10393750I-30000J0D01*
G01*
X18289533Y-10393750D02*
G75*
G02*
X18349533Y-10393750I30000J0D01*
G01*
X18389672Y-10135848D02*
G75*
G02*
X18329672Y-10135848I-30000J0D01*
G01*
X18329672Y-10135848D02*
G75*
G02*
X18389672Y-10135848I30000J0D01*
G01*
X21975000Y-10761900D02*
X21975000Y-10838100D01*
X21936900Y-10800000D02*
X22013100Y-10800000D01*
X21975000Y-11011900D02*
X21975000Y-11088100D01*
X21936900Y-11050000D02*
X22013100Y-11050000D01*
X21975000Y-11261900D02*
X21975000Y-11338100D01*
X21936900Y-11300000D02*
X22013100Y-11300000D01*
X12085356Y-11331356D02*
X12085356Y-11260644D01*
X12014644Y-11260644D01*
X12014644Y-11331356D01*
X12085356Y-11331356D01*
X12085356Y-11585356D02*
X12085356Y-11514644D01*
X12014644Y-11514644D01*
X12014644Y-11585356D01*
X12085356Y-11585356D01*
X12085356Y-11839356D02*
X12085356Y-11768644D01*
X12014644Y-11768644D01*
X12014644Y-11839356D01*
X12085356Y-11839356D01*
X12085356Y-12093356D02*
X12085356Y-12022644D01*
X12014644Y-12022644D01*
X12014644Y-12093356D01*
X12085356Y-12093356D01*
X16810356Y-11485356D02*
X16810356Y-11414644D01*
X16739644Y-11414644D01*
X16739644Y-11485356D01*
X16810356Y-11485356D01*
X16810356Y-11765356D02*
X16810356Y-11694644D01*
X16739644Y-11694644D01*
X16739644Y-11765356D01*
X16810356Y-11765356D01*
X19735356Y-13354356D02*
X19735356Y-13283644D01*
X19664644Y-13283644D01*
X19664644Y-13354356D01*
X19735356Y-13354356D01*
X19735356Y-13608356D02*
X19735356Y-13537644D01*
X19664644Y-13537644D01*
X19664644Y-13608356D01*
X19735356Y-13608356D01*
X19735356Y-13862356D02*
X19735356Y-13791644D01*
X19664644Y-13791644D01*
X19664644Y-13862356D01*
X19735356Y-13862356D01*
X19735356Y-14116356D02*
X19735356Y-14045644D01*
X19664644Y-14045644D01*
X19664644Y-14116356D01*
X19735356Y-14116356D01*
X20423356Y-14055543D02*
X20423356Y-13984831D01*
X20352644Y-13984831D01*
X20352644Y-14055543D01*
X20423356Y-14055543D01*
X20423356Y-14309543D02*
X20423356Y-14238831D01*
X20352644Y-14238831D01*
X20352644Y-14309543D01*
X20423356Y-14309543D01*
X20423356Y-14563543D02*
X20423356Y-14492831D01*
X20352644Y-14492831D01*
X20352644Y-14563543D01*
X20423356Y-14563543D01*
D12*
X11196588Y-13465194D02*
X11251588Y-13410194D01*
X11196588Y-13355194D01*
X11141588Y-13410194D01*
X11196588Y-13465194D01*
X11196588Y-13973194D02*
X11251588Y-13918194D01*
X11196588Y-13863194D01*
X11141588Y-13918194D01*
X11196588Y-13973194D01*
X11742588Y-12919194D02*
X11797588Y-12864194D01*
X11742588Y-12809194D01*
X11687588Y-12864194D01*
X11742588Y-12919194D01*
X11742588Y-14519194D02*
X11797588Y-14464194D01*
X11742588Y-14409194D01*
X11687588Y-14464194D01*
X11742588Y-14519194D01*
X12250588Y-12919194D02*
X12305588Y-12864194D01*
X12250588Y-12809194D01*
X12195588Y-12864194D01*
X12250588Y-12919194D01*
X12250588Y-14519194D02*
X12305588Y-14464194D01*
X12250588Y-14409194D01*
X12195588Y-14464194D01*
X12250588Y-14519194D01*
X12542588Y-13719194D02*
X12597588Y-13664194D01*
X12542588Y-13609194D01*
X12487588Y-13664194D01*
X12542588Y-13719194D01*
X13050588Y-13719194D02*
X13105588Y-13664194D01*
X13050588Y-13609194D01*
X12995588Y-13664194D01*
X13050588Y-13719194D01*
X13996000Y-10614369D02*
X14051000Y-10559369D01*
X13996000Y-10504369D01*
X13941000Y-10559369D01*
X13996000Y-10614369D01*
X14504000Y-10614369D02*
X14559000Y-10559369D01*
X14504000Y-10504369D01*
X14449000Y-10559369D01*
X14504000Y-10614369D01*
X14746000Y-9764369D02*
X14801000Y-9709369D01*
X14746000Y-9654369D01*
X14691000Y-9709369D01*
X14746000Y-9764369D01*
X15254000Y-9764369D02*
X15309000Y-9709369D01*
X15254000Y-9654369D01*
X15199000Y-9709369D01*
X15254000Y-9764369D01*
X15496000Y-10614369D02*
X15551000Y-10559369D01*
X15496000Y-10504369D01*
X15441000Y-10559369D01*
X15496000Y-10614369D01*
X16004000Y-10614369D02*
X16059000Y-10559369D01*
X16004000Y-10504369D01*
X15949000Y-10559369D01*
X16004000Y-10614369D01*
X18600884Y-11719194D02*
X18655884Y-11664194D01*
X18600884Y-11609194D01*
X18545884Y-11664194D01*
X18600884Y-11719194D01*
X19108884Y-11719194D02*
X19163884Y-11664194D01*
X19108884Y-11609194D01*
X19053884Y-11664194D01*
X19108884Y-11719194D01*
X19449412Y-12567722D02*
X19504412Y-12512722D01*
X19449412Y-12457722D01*
X19394412Y-12512722D01*
X19449412Y-12567722D01*
X19451795Y-10905375D02*
X19506795Y-10850375D01*
X19451795Y-10795375D01*
X19396795Y-10850375D01*
X19451795Y-10905375D01*
X19955030Y-10835957D02*
X20010030Y-10780957D01*
X19955030Y-10725957D01*
X19900030Y-10780957D01*
X19955030Y-10835957D01*
X19957412Y-12567722D02*
X20012412Y-12512722D01*
X19957412Y-12457722D01*
X19902412Y-12512722D01*
X19957412Y-12567722D01*
X20297941Y-11719194D02*
X20352941Y-11664194D01*
X20297941Y-11609194D01*
X20242941Y-11664194D01*
X20297941Y-11719194D01*
X20805941Y-11719194D02*
X20860941Y-11664194D01*
X20805941Y-11609194D01*
X20750941Y-11664194D01*
X20805941Y-11719194D01*
D13*
X11175000Y-14235000D02*
X11445000Y-14505000D01*
X11445000Y-14235000D02*
X11175000Y-14505000D01*
X11445000Y-14370000D02*
G75*
G02*
X11175000Y-14370000I-135000J0D01*
G01*
X11175000Y-14370000D02*
G75*
G02*
X11445000Y-14370000I135000J0D01*
G01*
X12615000Y-12590000D02*
X12885000Y-12860000D01*
X12885000Y-12590000D02*
X12615000Y-12860000D01*
X12885000Y-12725000D02*
G75*
G02*
X12615000Y-12725000I-135000J0D01*
G01*
X12615000Y-12725000D02*
G75*
G02*
X12885000Y-12725000I135000J0D01*
G01*
X16340000Y-9690000D02*
X16610000Y-9960000D01*
X16610000Y-9690000D02*
X16340000Y-9960000D01*
X16610000Y-9825000D02*
G75*
G02*
X16340000Y-9825000I-135000J0D01*
G01*
X16340000Y-9825000D02*
G75*
G02*
X16610000Y-9825000I135000J0D01*
G01*
X18105000Y-11065000D02*
X18375000Y-11335000D01*
X18375000Y-11065000D02*
X18105000Y-11335000D01*
X18375000Y-11200000D02*
G75*
G02*
X18105000Y-11200000I-135000J0D01*
G01*
X18105000Y-11200000D02*
G75*
G02*
X18375000Y-11200000I135000J0D01*
G01*
X20540000Y-10415000D02*
X20810000Y-10685000D01*
X20810000Y-10415000D02*
X20540000Y-10685000D01*
X20810000Y-10550000D02*
G75*
G02*
X20540000Y-10550000I-135000J0D01*
G01*
X20540000Y-10550000D02*
G75*
G02*
X20810000Y-10550000I135000J0D01*
G01*
D10*
X11290777Y-15052797D02*
X11290777Y-14852797D01*
X11290777Y-14852797D02*
X11338396Y-14852797D01*
X11338396Y-14852797D02*
X11366967Y-14862321D01*
X11366967Y-14862321D02*
X11386015Y-14881368D01*
X11386015Y-14881368D02*
X11395539Y-14900416D01*
X11395539Y-14900416D02*
X11405062Y-14938511D01*
X11405062Y-14938511D02*
X11405062Y-14967082D01*
X11405062Y-14967082D02*
X11395539Y-15005178D01*
X11395539Y-15005178D02*
X11386015Y-15024225D01*
X11386015Y-15024225D02*
X11366967Y-15043273D01*
X11366967Y-15043273D02*
X11338396Y-15052797D01*
X11338396Y-15052797D02*
X11290777Y-15052797D01*
X11490777Y-15052797D02*
X11490777Y-14919463D01*
X11490777Y-14957559D02*
X11500301Y-14938511D01*
X11500301Y-14938511D02*
X11509824Y-14928987D01*
X11509824Y-14928987D02*
X11528872Y-14919463D01*
X11528872Y-14919463D02*
X11547920Y-14919463D01*
X11614586Y-15052797D02*
X11614586Y-14919463D01*
X11614586Y-14852797D02*
X11605062Y-14862321D01*
X11605062Y-14862321D02*
X11614586Y-14871844D01*
X11614586Y-14871844D02*
X11624110Y-14862321D01*
X11624110Y-14862321D02*
X11614586Y-14852797D01*
X11614586Y-14852797D02*
X11614586Y-14871844D01*
X11738396Y-15052797D02*
X11719348Y-15043273D01*
X11719348Y-15043273D02*
X11709824Y-15024225D01*
X11709824Y-15024225D02*
X11709824Y-14852797D01*
X11843158Y-15052797D02*
X11824110Y-15043273D01*
X11824110Y-15043273D02*
X11814586Y-15024225D01*
X11814586Y-15024225D02*
X11814586Y-14852797D01*
X12071729Y-15052797D02*
X12071729Y-14852797D01*
X12071729Y-14852797D02*
X12138396Y-14995654D01*
X12138396Y-14995654D02*
X12205062Y-14852797D01*
X12205062Y-14852797D02*
X12205062Y-15052797D01*
X12386015Y-15052797D02*
X12386015Y-14948035D01*
X12386015Y-14948035D02*
X12376491Y-14928987D01*
X12376491Y-14928987D02*
X12357443Y-14919463D01*
X12357443Y-14919463D02*
X12319348Y-14919463D01*
X12319348Y-14919463D02*
X12300301Y-14928987D01*
X12386015Y-15043273D02*
X12366967Y-15052797D01*
X12366967Y-15052797D02*
X12319348Y-15052797D01*
X12319348Y-15052797D02*
X12300301Y-15043273D01*
X12300301Y-15043273D02*
X12290777Y-15024225D01*
X12290777Y-15024225D02*
X12290777Y-15005178D01*
X12290777Y-15005178D02*
X12300301Y-14986130D01*
X12300301Y-14986130D02*
X12319348Y-14976606D01*
X12319348Y-14976606D02*
X12366967Y-14976606D01*
X12366967Y-14976606D02*
X12386015Y-14967082D01*
X12481253Y-14919463D02*
X12481253Y-15119463D01*
X12481253Y-14928987D02*
X12500301Y-14919463D01*
X12500301Y-14919463D02*
X12538396Y-14919463D01*
X12538396Y-14919463D02*
X12557443Y-14928987D01*
X12557443Y-14928987D02*
X12566967Y-14938511D01*
X12566967Y-14938511D02*
X12576491Y-14957559D01*
X12576491Y-14957559D02*
X12576491Y-15014701D01*
X12576491Y-15014701D02*
X12566967Y-15033749D01*
X12566967Y-15033749D02*
X12557443Y-15043273D01*
X12557443Y-15043273D02*
X12538396Y-15052797D01*
X12538396Y-15052797D02*
X12500301Y-15052797D01*
X12500301Y-15052797D02*
X12481253Y-15043273D01*
X12662205Y-15033749D02*
X12671729Y-15043273D01*
X12671729Y-15043273D02*
X12662205Y-15052797D01*
X12662205Y-15052797D02*
X12652682Y-15043273D01*
X12652682Y-15043273D02*
X12662205Y-15033749D01*
X12662205Y-15033749D02*
X12662205Y-15052797D01*
X12662205Y-14928987D02*
X12671729Y-14938511D01*
X12671729Y-14938511D02*
X12662205Y-14948035D01*
X12662205Y-14948035D02*
X12652682Y-14938511D01*
X12652682Y-14938511D02*
X12662205Y-14928987D01*
X12662205Y-14928987D02*
X12662205Y-14948035D01*
D11*
X11000000Y-15366313D02*
X11030000Y-15396313D01*
X11030000Y-15366313D02*
X11000000Y-15396313D01*
D10*
X11328872Y-15272797D02*
X11347920Y-15272797D01*
X11347920Y-15272797D02*
X11366967Y-15282321D01*
X11366967Y-15282321D02*
X11376491Y-15291844D01*
X11376491Y-15291844D02*
X11386015Y-15310892D01*
X11386015Y-15310892D02*
X11395539Y-15348987D01*
X11395539Y-15348987D02*
X11395539Y-15396606D01*
X11395539Y-15396606D02*
X11386015Y-15434701D01*
X11386015Y-15434701D02*
X11376491Y-15453749D01*
X11376491Y-15453749D02*
X11366967Y-15463273D01*
X11366967Y-15463273D02*
X11347920Y-15472797D01*
X11347920Y-15472797D02*
X11328872Y-15472797D01*
X11328872Y-15472797D02*
X11309824Y-15463273D01*
X11309824Y-15463273D02*
X11300301Y-15453749D01*
X11300301Y-15453749D02*
X11290777Y-15434701D01*
X11290777Y-15434701D02*
X11281253Y-15396606D01*
X11281253Y-15396606D02*
X11281253Y-15348987D01*
X11281253Y-15348987D02*
X11290777Y-15310892D01*
X11290777Y-15310892D02*
X11300301Y-15291844D01*
X11300301Y-15291844D02*
X11309824Y-15282321D01*
X11309824Y-15282321D02*
X11328872Y-15272797D01*
X11481253Y-15453749D02*
X11490777Y-15463273D01*
X11490777Y-15463273D02*
X11481253Y-15472797D01*
X11481253Y-15472797D02*
X11471729Y-15463273D01*
X11471729Y-15463273D02*
X11481253Y-15453749D01*
X11481253Y-15453749D02*
X11481253Y-15472797D01*
X11557443Y-15272797D02*
X11681253Y-15272797D01*
X11681253Y-15272797D02*
X11614586Y-15348987D01*
X11614586Y-15348987D02*
X11643158Y-15348987D01*
X11643158Y-15348987D02*
X11662205Y-15358511D01*
X11662205Y-15358511D02*
X11671729Y-15368035D01*
X11671729Y-15368035D02*
X11681253Y-15387082D01*
X11681253Y-15387082D02*
X11681253Y-15434701D01*
X11681253Y-15434701D02*
X11671729Y-15453749D01*
X11671729Y-15453749D02*
X11662205Y-15463273D01*
X11662205Y-15463273D02*
X11643158Y-15472797D01*
X11643158Y-15472797D02*
X11586015Y-15472797D01*
X11586015Y-15472797D02*
X11566967Y-15463273D01*
X11566967Y-15463273D02*
X11557443Y-15453749D01*
X11805062Y-15272797D02*
X11824110Y-15272797D01*
X11824110Y-15272797D02*
X11843158Y-15282321D01*
X11843158Y-15282321D02*
X11852682Y-15291844D01*
X11852682Y-15291844D02*
X11862205Y-15310892D01*
X11862205Y-15310892D02*
X11871729Y-15348987D01*
X11871729Y-15348987D02*
X11871729Y-15396606D01*
X11871729Y-15396606D02*
X11862205Y-15434701D01*
X11862205Y-15434701D02*
X11852682Y-15453749D01*
X11852682Y-15453749D02*
X11843158Y-15463273D01*
X11843158Y-15463273D02*
X11824110Y-15472797D01*
X11824110Y-15472797D02*
X11805062Y-15472797D01*
X11805062Y-15472797D02*
X11786015Y-15463273D01*
X11786015Y-15463273D02*
X11776491Y-15453749D01*
X11776491Y-15453749D02*
X11766967Y-15434701D01*
X11766967Y-15434701D02*
X11757443Y-15396606D01*
X11757443Y-15396606D02*
X11757443Y-15348987D01*
X11757443Y-15348987D02*
X11766967Y-15310892D01*
X11766967Y-15310892D02*
X11776491Y-15291844D01*
X11776491Y-15291844D02*
X11786015Y-15282321D01*
X11786015Y-15282321D02*
X11805062Y-15272797D01*
X11995539Y-15272797D02*
X12014586Y-15272797D01*
X12014586Y-15272797D02*
X12033634Y-15282321D01*
X12033634Y-15282321D02*
X12043158Y-15291844D01*
X12043158Y-15291844D02*
X12052682Y-15310892D01*
X12052682Y-15310892D02*
X12062205Y-15348987D01*
X12062205Y-15348987D02*
X12062205Y-15396606D01*
X12062205Y-15396606D02*
X12052682Y-15434701D01*
X12052682Y-15434701D02*
X12043158Y-15453749D01*
X12043158Y-15453749D02*
X12033634Y-15463273D01*
X12033634Y-15463273D02*
X12014586Y-15472797D01*
X12014586Y-15472797D02*
X11995539Y-15472797D01*
X11995539Y-15472797D02*
X11976491Y-15463273D01*
X11976491Y-15463273D02*
X11966967Y-15453749D01*
X11966967Y-15453749D02*
X11957443Y-15434701D01*
X11957443Y-15434701D02*
X11947920Y-15396606D01*
X11947920Y-15396606D02*
X11947920Y-15348987D01*
X11947920Y-15348987D02*
X11957443Y-15310892D01*
X11957443Y-15310892D02*
X11966967Y-15291844D01*
X11966967Y-15291844D02*
X11976491Y-15282321D01*
X11976491Y-15282321D02*
X11995539Y-15272797D01*
X12147920Y-15472797D02*
X12147920Y-15339463D01*
X12147920Y-15358511D02*
X12157443Y-15348987D01*
X12157443Y-15348987D02*
X12176491Y-15339463D01*
X12176491Y-15339463D02*
X12205063Y-15339463D01*
X12205063Y-15339463D02*
X12224110Y-15348987D01*
X12224110Y-15348987D02*
X12233634Y-15368035D01*
X12233634Y-15368035D02*
X12233634Y-15472797D01*
X12233634Y-15368035D02*
X12243158Y-15348987D01*
X12243158Y-15348987D02*
X12262205Y-15339463D01*
X12262205Y-15339463D02*
X12290777Y-15339463D01*
X12290777Y-15339463D02*
X12309824Y-15348987D01*
X12309824Y-15348987D02*
X12319348Y-15368035D01*
X12319348Y-15368035D02*
X12319348Y-15472797D01*
X12414586Y-15472797D02*
X12414586Y-15339463D01*
X12414586Y-15358511D02*
X12424110Y-15348987D01*
X12424110Y-15348987D02*
X12443158Y-15339463D01*
X12443158Y-15339463D02*
X12471729Y-15339463D01*
X12471729Y-15339463D02*
X12490777Y-15348987D01*
X12490777Y-15348987D02*
X12500301Y-15368035D01*
X12500301Y-15368035D02*
X12500301Y-15472797D01*
X12500301Y-15368035D02*
X12509824Y-15348987D01*
X12509824Y-15348987D02*
X12528872Y-15339463D01*
X12528872Y-15339463D02*
X12557443Y-15339463D01*
X12557443Y-15339463D02*
X12576491Y-15348987D01*
X12576491Y-15348987D02*
X12586015Y-15368035D01*
X12586015Y-15368035D02*
X12586015Y-15472797D01*
X12976491Y-15263273D02*
X12805063Y-15520416D01*
X13233634Y-15272797D02*
X13252682Y-15272797D01*
X13252682Y-15272797D02*
X13271729Y-15282321D01*
X13271729Y-15282321D02*
X13281253Y-15291844D01*
X13281253Y-15291844D02*
X13290777Y-15310892D01*
X13290777Y-15310892D02*
X13300301Y-15348987D01*
X13300301Y-15348987D02*
X13300301Y-15396606D01*
X13300301Y-15396606D02*
X13290777Y-15434701D01*
X13290777Y-15434701D02*
X13281253Y-15453749D01*
X13281253Y-15453749D02*
X13271729Y-15463273D01*
X13271729Y-15463273D02*
X13252682Y-15472797D01*
X13252682Y-15472797D02*
X13233634Y-15472797D01*
X13233634Y-15472797D02*
X13214586Y-15463273D01*
X13214586Y-15463273D02*
X13205063Y-15453749D01*
X13205063Y-15453749D02*
X13195539Y-15434701D01*
X13195539Y-15434701D02*
X13186015Y-15396606D01*
X13186015Y-15396606D02*
X13186015Y-15348987D01*
X13186015Y-15348987D02*
X13195539Y-15310892D01*
X13195539Y-15310892D02*
X13205063Y-15291844D01*
X13205063Y-15291844D02*
X13214586Y-15282321D01*
X13214586Y-15282321D02*
X13233634Y-15272797D01*
X13386015Y-15453749D02*
X13395539Y-15463273D01*
X13395539Y-15463273D02*
X13386015Y-15472797D01*
X13386015Y-15472797D02*
X13376491Y-15463273D01*
X13376491Y-15463273D02*
X13386015Y-15453749D01*
X13386015Y-15453749D02*
X13386015Y-15472797D01*
X13519348Y-15272797D02*
X13538396Y-15272797D01*
X13538396Y-15272797D02*
X13557444Y-15282321D01*
X13557444Y-15282321D02*
X13566967Y-15291844D01*
X13566967Y-15291844D02*
X13576491Y-15310892D01*
X13576491Y-15310892D02*
X13586015Y-15348987D01*
X13586015Y-15348987D02*
X13586015Y-15396606D01*
X13586015Y-15396606D02*
X13576491Y-15434701D01*
X13576491Y-15434701D02*
X13566967Y-15453749D01*
X13566967Y-15453749D02*
X13557444Y-15463273D01*
X13557444Y-15463273D02*
X13538396Y-15472797D01*
X13538396Y-15472797D02*
X13519348Y-15472797D01*
X13519348Y-15472797D02*
X13500301Y-15463273D01*
X13500301Y-15463273D02*
X13490777Y-15453749D01*
X13490777Y-15453749D02*
X13481253Y-15434701D01*
X13481253Y-15434701D02*
X13471729Y-15396606D01*
X13471729Y-15396606D02*
X13471729Y-15348987D01*
X13471729Y-15348987D02*
X13481253Y-15310892D01*
X13481253Y-15310892D02*
X13490777Y-15291844D01*
X13490777Y-15291844D02*
X13500301Y-15282321D01*
X13500301Y-15282321D02*
X13519348Y-15272797D01*
X13776491Y-15472797D02*
X13662206Y-15472797D01*
X13719348Y-15472797D02*
X13719348Y-15272797D01*
X13719348Y-15272797D02*
X13700301Y-15301368D01*
X13700301Y-15301368D02*
X13681253Y-15320416D01*
X13681253Y-15320416D02*
X13662206Y-15329940D01*
X13966967Y-15472797D02*
X13852682Y-15472797D01*
X13909825Y-15472797D02*
X13909825Y-15272797D01*
X13909825Y-15272797D02*
X13890777Y-15301368D01*
X13890777Y-15301368D02*
X13871729Y-15320416D01*
X13871729Y-15320416D02*
X13852682Y-15329940D01*
X14081253Y-15358511D02*
X14062206Y-15348987D01*
X14062206Y-15348987D02*
X14052682Y-15339463D01*
X14052682Y-15339463D02*
X14043158Y-15320416D01*
X14043158Y-15320416D02*
X14043158Y-15310892D01*
X14043158Y-15310892D02*
X14052682Y-15291844D01*
X14052682Y-15291844D02*
X14062206Y-15282321D01*
X14062206Y-15282321D02*
X14081253Y-15272797D01*
X14081253Y-15272797D02*
X14119348Y-15272797D01*
X14119348Y-15272797D02*
X14138396Y-15282321D01*
X14138396Y-15282321D02*
X14147920Y-15291844D01*
X14147920Y-15291844D02*
X14157444Y-15310892D01*
X14157444Y-15310892D02*
X14157444Y-15320416D01*
X14157444Y-15320416D02*
X14147920Y-15339463D01*
X14147920Y-15339463D02*
X14138396Y-15348987D01*
X14138396Y-15348987D02*
X14119348Y-15358511D01*
X14119348Y-15358511D02*
X14081253Y-15358511D01*
X14081253Y-15358511D02*
X14062206Y-15368035D01*
X14062206Y-15368035D02*
X14052682Y-15377559D01*
X14052682Y-15377559D02*
X14043158Y-15396606D01*
X14043158Y-15396606D02*
X14043158Y-15434701D01*
X14043158Y-15434701D02*
X14052682Y-15453749D01*
X14052682Y-15453749D02*
X14062206Y-15463273D01*
X14062206Y-15463273D02*
X14081253Y-15472797D01*
X14081253Y-15472797D02*
X14119348Y-15472797D01*
X14119348Y-15472797D02*
X14138396Y-15463273D01*
X14138396Y-15463273D02*
X14147920Y-15453749D01*
X14147920Y-15453749D02*
X14157444Y-15434701D01*
X14157444Y-15434701D02*
X14157444Y-15396606D01*
X14157444Y-15396606D02*
X14147920Y-15377559D01*
X14147920Y-15377559D02*
X14138396Y-15368035D01*
X14138396Y-15368035D02*
X14119348Y-15358511D01*
X14233634Y-15272797D02*
X14233634Y-15310892D01*
X14309825Y-15272797D02*
X14309825Y-15310892D01*
X14605063Y-15548987D02*
X14595539Y-15539463D01*
X14595539Y-15539463D02*
X14576491Y-15510892D01*
X14576491Y-15510892D02*
X14566968Y-15491844D01*
X14566968Y-15491844D02*
X14557444Y-15463273D01*
X14557444Y-15463273D02*
X14547920Y-15415654D01*
X14547920Y-15415654D02*
X14547920Y-15377559D01*
X14547920Y-15377559D02*
X14557444Y-15329940D01*
X14557444Y-15329940D02*
X14566968Y-15301368D01*
X14566968Y-15301368D02*
X14576491Y-15282321D01*
X14576491Y-15282321D02*
X14595539Y-15253749D01*
X14595539Y-15253749D02*
X14605063Y-15244225D01*
X14662206Y-15272797D02*
X14795539Y-15272797D01*
X14795539Y-15272797D02*
X14709825Y-15472797D01*
X14852682Y-15272797D02*
X14986015Y-15272797D01*
X14986015Y-15272797D02*
X14900301Y-15472797D01*
X15214587Y-15472797D02*
X15214587Y-15272797D01*
X15300301Y-15472797D02*
X15300301Y-15368035D01*
X15300301Y-15368035D02*
X15290777Y-15348987D01*
X15290777Y-15348987D02*
X15271730Y-15339463D01*
X15271730Y-15339463D02*
X15243158Y-15339463D01*
X15243158Y-15339463D02*
X15224110Y-15348987D01*
X15224110Y-15348987D02*
X15214587Y-15358511D01*
X15424110Y-15472797D02*
X15405063Y-15463273D01*
X15405063Y-15463273D02*
X15395539Y-15453749D01*
X15395539Y-15453749D02*
X15386015Y-15434701D01*
X15386015Y-15434701D02*
X15386015Y-15377559D01*
X15386015Y-15377559D02*
X15395539Y-15358511D01*
X15395539Y-15358511D02*
X15405063Y-15348987D01*
X15405063Y-15348987D02*
X15424110Y-15339463D01*
X15424110Y-15339463D02*
X15452682Y-15339463D01*
X15452682Y-15339463D02*
X15471730Y-15348987D01*
X15471730Y-15348987D02*
X15481253Y-15358511D01*
X15481253Y-15358511D02*
X15490777Y-15377559D01*
X15490777Y-15377559D02*
X15490777Y-15434701D01*
X15490777Y-15434701D02*
X15481253Y-15453749D01*
X15481253Y-15453749D02*
X15471730Y-15463273D01*
X15471730Y-15463273D02*
X15452682Y-15472797D01*
X15452682Y-15472797D02*
X15424110Y-15472797D01*
X15605063Y-15472797D02*
X15586015Y-15463273D01*
X15586015Y-15463273D02*
X15576491Y-15444225D01*
X15576491Y-15444225D02*
X15576491Y-15272797D01*
X15757444Y-15463273D02*
X15738396Y-15472797D01*
X15738396Y-15472797D02*
X15700301Y-15472797D01*
X15700301Y-15472797D02*
X15681253Y-15463273D01*
X15681253Y-15463273D02*
X15671730Y-15444225D01*
X15671730Y-15444225D02*
X15671730Y-15368035D01*
X15671730Y-15368035D02*
X15681253Y-15348987D01*
X15681253Y-15348987D02*
X15700301Y-15339463D01*
X15700301Y-15339463D02*
X15738396Y-15339463D01*
X15738396Y-15339463D02*
X15757444Y-15348987D01*
X15757444Y-15348987D02*
X15766968Y-15368035D01*
X15766968Y-15368035D02*
X15766968Y-15387082D01*
X15766968Y-15387082D02*
X15671730Y-15406130D01*
X15843158Y-15463273D02*
X15862206Y-15472797D01*
X15862206Y-15472797D02*
X15900301Y-15472797D01*
X15900301Y-15472797D02*
X15919349Y-15463273D01*
X15919349Y-15463273D02*
X15928872Y-15444225D01*
X15928872Y-15444225D02*
X15928872Y-15434701D01*
X15928872Y-15434701D02*
X15919349Y-15415654D01*
X15919349Y-15415654D02*
X15900301Y-15406130D01*
X15900301Y-15406130D02*
X15871730Y-15406130D01*
X15871730Y-15406130D02*
X15852682Y-15396606D01*
X15852682Y-15396606D02*
X15843158Y-15377559D01*
X15843158Y-15377559D02*
X15843158Y-15368035D01*
X15843158Y-15368035D02*
X15852682Y-15348987D01*
X15852682Y-15348987D02*
X15871730Y-15339463D01*
X15871730Y-15339463D02*
X15900301Y-15339463D01*
X15900301Y-15339463D02*
X15919349Y-15348987D01*
X15995539Y-15548987D02*
X16005063Y-15539463D01*
X16005063Y-15539463D02*
X16024111Y-15510892D01*
X16024111Y-15510892D02*
X16033634Y-15491844D01*
X16033634Y-15491844D02*
X16043158Y-15463273D01*
X16043158Y-15463273D02*
X16052682Y-15415654D01*
X16052682Y-15415654D02*
X16052682Y-15377559D01*
X16052682Y-15377559D02*
X16043158Y-15329940D01*
X16043158Y-15329940D02*
X16033634Y-15301368D01*
X16033634Y-15301368D02*
X16024111Y-15282321D01*
X16024111Y-15282321D02*
X16005063Y-15253749D01*
X16005063Y-15253749D02*
X15995539Y-15244225D01*
D11*
X11030000Y-15645313D02*
G75*
G02*
X10970000Y-15645313I-30000J0D01*
G01*
X10970000Y-15645313D02*
G75*
G02*
X11030000Y-15645313I30000J0D01*
G01*
D10*
X11328872Y-15536797D02*
X11347920Y-15536797D01*
X11347920Y-15536797D02*
X11366967Y-15546321D01*
X11366967Y-15546321D02*
X11376491Y-15555844D01*
X11376491Y-15555844D02*
X11386015Y-15574892D01*
X11386015Y-15574892D02*
X11395539Y-15612987D01*
X11395539Y-15612987D02*
X11395539Y-15660606D01*
X11395539Y-15660606D02*
X11386015Y-15698701D01*
X11386015Y-15698701D02*
X11376491Y-15717749D01*
X11376491Y-15717749D02*
X11366967Y-15727273D01*
X11366967Y-15727273D02*
X11347920Y-15736797D01*
X11347920Y-15736797D02*
X11328872Y-15736797D01*
X11328872Y-15736797D02*
X11309824Y-15727273D01*
X11309824Y-15727273D02*
X11300301Y-15717749D01*
X11300301Y-15717749D02*
X11290777Y-15698701D01*
X11290777Y-15698701D02*
X11281253Y-15660606D01*
X11281253Y-15660606D02*
X11281253Y-15612987D01*
X11281253Y-15612987D02*
X11290777Y-15574892D01*
X11290777Y-15574892D02*
X11300301Y-15555844D01*
X11300301Y-15555844D02*
X11309824Y-15546321D01*
X11309824Y-15546321D02*
X11328872Y-15536797D01*
X11481253Y-15717749D02*
X11490777Y-15727273D01*
X11490777Y-15727273D02*
X11481253Y-15736797D01*
X11481253Y-15736797D02*
X11471729Y-15727273D01*
X11471729Y-15727273D02*
X11481253Y-15717749D01*
X11481253Y-15717749D02*
X11481253Y-15736797D01*
X11662205Y-15536797D02*
X11624110Y-15536797D01*
X11624110Y-15536797D02*
X11605062Y-15546321D01*
X11605062Y-15546321D02*
X11595539Y-15555844D01*
X11595539Y-15555844D02*
X11576491Y-15584416D01*
X11576491Y-15584416D02*
X11566967Y-15622511D01*
X11566967Y-15622511D02*
X11566967Y-15698701D01*
X11566967Y-15698701D02*
X11576491Y-15717749D01*
X11576491Y-15717749D02*
X11586015Y-15727273D01*
X11586015Y-15727273D02*
X11605062Y-15736797D01*
X11605062Y-15736797D02*
X11643158Y-15736797D01*
X11643158Y-15736797D02*
X11662205Y-15727273D01*
X11662205Y-15727273D02*
X11671729Y-15717749D01*
X11671729Y-15717749D02*
X11681253Y-15698701D01*
X11681253Y-15698701D02*
X11681253Y-15651082D01*
X11681253Y-15651082D02*
X11671729Y-15632035D01*
X11671729Y-15632035D02*
X11662205Y-15622511D01*
X11662205Y-15622511D02*
X11643158Y-15612987D01*
X11643158Y-15612987D02*
X11605062Y-15612987D01*
X11605062Y-15612987D02*
X11586015Y-15622511D01*
X11586015Y-15622511D02*
X11576491Y-15632035D01*
X11576491Y-15632035D02*
X11566967Y-15651082D01*
X11805062Y-15536797D02*
X11824110Y-15536797D01*
X11824110Y-15536797D02*
X11843158Y-15546321D01*
X11843158Y-15546321D02*
X11852682Y-15555844D01*
X11852682Y-15555844D02*
X11862205Y-15574892D01*
X11862205Y-15574892D02*
X11871729Y-15612987D01*
X11871729Y-15612987D02*
X11871729Y-15660606D01*
X11871729Y-15660606D02*
X11862205Y-15698701D01*
X11862205Y-15698701D02*
X11852682Y-15717749D01*
X11852682Y-15717749D02*
X11843158Y-15727273D01*
X11843158Y-15727273D02*
X11824110Y-15736797D01*
X11824110Y-15736797D02*
X11805062Y-15736797D01*
X11805062Y-15736797D02*
X11786015Y-15727273D01*
X11786015Y-15727273D02*
X11776491Y-15717749D01*
X11776491Y-15717749D02*
X11766967Y-15698701D01*
X11766967Y-15698701D02*
X11757443Y-15660606D01*
X11757443Y-15660606D02*
X11757443Y-15612987D01*
X11757443Y-15612987D02*
X11766967Y-15574892D01*
X11766967Y-15574892D02*
X11776491Y-15555844D01*
X11776491Y-15555844D02*
X11786015Y-15546321D01*
X11786015Y-15546321D02*
X11805062Y-15536797D01*
X11995539Y-15536797D02*
X12014586Y-15536797D01*
X12014586Y-15536797D02*
X12033634Y-15546321D01*
X12033634Y-15546321D02*
X12043158Y-15555844D01*
X12043158Y-15555844D02*
X12052682Y-15574892D01*
X12052682Y-15574892D02*
X12062205Y-15612987D01*
X12062205Y-15612987D02*
X12062205Y-15660606D01*
X12062205Y-15660606D02*
X12052682Y-15698701D01*
X12052682Y-15698701D02*
X12043158Y-15717749D01*
X12043158Y-15717749D02*
X12033634Y-15727273D01*
X12033634Y-15727273D02*
X12014586Y-15736797D01*
X12014586Y-15736797D02*
X11995539Y-15736797D01*
X11995539Y-15736797D02*
X11976491Y-15727273D01*
X11976491Y-15727273D02*
X11966967Y-15717749D01*
X11966967Y-15717749D02*
X11957443Y-15698701D01*
X11957443Y-15698701D02*
X11947920Y-15660606D01*
X11947920Y-15660606D02*
X11947920Y-15612987D01*
X11947920Y-15612987D02*
X11957443Y-15574892D01*
X11957443Y-15574892D02*
X11966967Y-15555844D01*
X11966967Y-15555844D02*
X11976491Y-15546321D01*
X11976491Y-15546321D02*
X11995539Y-15536797D01*
X12147920Y-15736797D02*
X12147920Y-15603463D01*
X12147920Y-15622511D02*
X12157443Y-15612987D01*
X12157443Y-15612987D02*
X12176491Y-15603463D01*
X12176491Y-15603463D02*
X12205063Y-15603463D01*
X12205063Y-15603463D02*
X12224110Y-15612987D01*
X12224110Y-15612987D02*
X12233634Y-15632035D01*
X12233634Y-15632035D02*
X12233634Y-15736797D01*
X12233634Y-15632035D02*
X12243158Y-15612987D01*
X12243158Y-15612987D02*
X12262205Y-15603463D01*
X12262205Y-15603463D02*
X12290777Y-15603463D01*
X12290777Y-15603463D02*
X12309824Y-15612987D01*
X12309824Y-15612987D02*
X12319348Y-15632035D01*
X12319348Y-15632035D02*
X12319348Y-15736797D01*
X12414586Y-15736797D02*
X12414586Y-15603463D01*
X12414586Y-15622511D02*
X12424110Y-15612987D01*
X12424110Y-15612987D02*
X12443158Y-15603463D01*
X12443158Y-15603463D02*
X12471729Y-15603463D01*
X12471729Y-15603463D02*
X12490777Y-15612987D01*
X12490777Y-15612987D02*
X12500301Y-15632035D01*
X12500301Y-15632035D02*
X12500301Y-15736797D01*
X12500301Y-15632035D02*
X12509824Y-15612987D01*
X12509824Y-15612987D02*
X12528872Y-15603463D01*
X12528872Y-15603463D02*
X12557443Y-15603463D01*
X12557443Y-15603463D02*
X12576491Y-15612987D01*
X12576491Y-15612987D02*
X12586015Y-15632035D01*
X12586015Y-15632035D02*
X12586015Y-15736797D01*
X12976491Y-15527273D02*
X12805063Y-15784416D01*
X13233634Y-15536797D02*
X13252682Y-15536797D01*
X13252682Y-15536797D02*
X13271729Y-15546321D01*
X13271729Y-15546321D02*
X13281253Y-15555844D01*
X13281253Y-15555844D02*
X13290777Y-15574892D01*
X13290777Y-15574892D02*
X13300301Y-15612987D01*
X13300301Y-15612987D02*
X13300301Y-15660606D01*
X13300301Y-15660606D02*
X13290777Y-15698701D01*
X13290777Y-15698701D02*
X13281253Y-15717749D01*
X13281253Y-15717749D02*
X13271729Y-15727273D01*
X13271729Y-15727273D02*
X13252682Y-15736797D01*
X13252682Y-15736797D02*
X13233634Y-15736797D01*
X13233634Y-15736797D02*
X13214586Y-15727273D01*
X13214586Y-15727273D02*
X13205063Y-15717749D01*
X13205063Y-15717749D02*
X13195539Y-15698701D01*
X13195539Y-15698701D02*
X13186015Y-15660606D01*
X13186015Y-15660606D02*
X13186015Y-15612987D01*
X13186015Y-15612987D02*
X13195539Y-15574892D01*
X13195539Y-15574892D02*
X13205063Y-15555844D01*
X13205063Y-15555844D02*
X13214586Y-15546321D01*
X13214586Y-15546321D02*
X13233634Y-15536797D01*
X13386015Y-15717749D02*
X13395539Y-15727273D01*
X13395539Y-15727273D02*
X13386015Y-15736797D01*
X13386015Y-15736797D02*
X13376491Y-15727273D01*
X13376491Y-15727273D02*
X13386015Y-15717749D01*
X13386015Y-15717749D02*
X13386015Y-15736797D01*
X13519348Y-15536797D02*
X13538396Y-15536797D01*
X13538396Y-15536797D02*
X13557444Y-15546321D01*
X13557444Y-15546321D02*
X13566967Y-15555844D01*
X13566967Y-15555844D02*
X13576491Y-15574892D01*
X13576491Y-15574892D02*
X13586015Y-15612987D01*
X13586015Y-15612987D02*
X13586015Y-15660606D01*
X13586015Y-15660606D02*
X13576491Y-15698701D01*
X13576491Y-15698701D02*
X13566967Y-15717749D01*
X13566967Y-15717749D02*
X13557444Y-15727273D01*
X13557444Y-15727273D02*
X13538396Y-15736797D01*
X13538396Y-15736797D02*
X13519348Y-15736797D01*
X13519348Y-15736797D02*
X13500301Y-15727273D01*
X13500301Y-15727273D02*
X13490777Y-15717749D01*
X13490777Y-15717749D02*
X13481253Y-15698701D01*
X13481253Y-15698701D02*
X13471729Y-15660606D01*
X13471729Y-15660606D02*
X13471729Y-15612987D01*
X13471729Y-15612987D02*
X13481253Y-15574892D01*
X13481253Y-15574892D02*
X13490777Y-15555844D01*
X13490777Y-15555844D02*
X13500301Y-15546321D01*
X13500301Y-15546321D02*
X13519348Y-15536797D01*
X13662206Y-15555844D02*
X13671729Y-15546321D01*
X13671729Y-15546321D02*
X13690777Y-15536797D01*
X13690777Y-15536797D02*
X13738396Y-15536797D01*
X13738396Y-15536797D02*
X13757444Y-15546321D01*
X13757444Y-15546321D02*
X13766967Y-15555844D01*
X13766967Y-15555844D02*
X13776491Y-15574892D01*
X13776491Y-15574892D02*
X13776491Y-15593940D01*
X13776491Y-15593940D02*
X13766967Y-15622511D01*
X13766967Y-15622511D02*
X13652682Y-15736797D01*
X13652682Y-15736797D02*
X13776491Y-15736797D01*
X13843158Y-15536797D02*
X13966967Y-15536797D01*
X13966967Y-15536797D02*
X13900301Y-15612987D01*
X13900301Y-15612987D02*
X13928872Y-15612987D01*
X13928872Y-15612987D02*
X13947920Y-15622511D01*
X13947920Y-15622511D02*
X13957444Y-15632035D01*
X13957444Y-15632035D02*
X13966967Y-15651082D01*
X13966967Y-15651082D02*
X13966967Y-15698701D01*
X13966967Y-15698701D02*
X13957444Y-15717749D01*
X13957444Y-15717749D02*
X13947920Y-15727273D01*
X13947920Y-15727273D02*
X13928872Y-15736797D01*
X13928872Y-15736797D02*
X13871729Y-15736797D01*
X13871729Y-15736797D02*
X13852682Y-15727273D01*
X13852682Y-15727273D02*
X13843158Y-15717749D01*
X14138396Y-15536797D02*
X14100301Y-15536797D01*
X14100301Y-15536797D02*
X14081253Y-15546321D01*
X14081253Y-15546321D02*
X14071729Y-15555844D01*
X14071729Y-15555844D02*
X14052682Y-15584416D01*
X14052682Y-15584416D02*
X14043158Y-15622511D01*
X14043158Y-15622511D02*
X14043158Y-15698701D01*
X14043158Y-15698701D02*
X14052682Y-15717749D01*
X14052682Y-15717749D02*
X14062206Y-15727273D01*
X14062206Y-15727273D02*
X14081253Y-15736797D01*
X14081253Y-15736797D02*
X14119348Y-15736797D01*
X14119348Y-15736797D02*
X14138396Y-15727273D01*
X14138396Y-15727273D02*
X14147920Y-15717749D01*
X14147920Y-15717749D02*
X14157444Y-15698701D01*
X14157444Y-15698701D02*
X14157444Y-15651082D01*
X14157444Y-15651082D02*
X14147920Y-15632035D01*
X14147920Y-15632035D02*
X14138396Y-15622511D01*
X14138396Y-15622511D02*
X14119348Y-15612987D01*
X14119348Y-15612987D02*
X14081253Y-15612987D01*
X14081253Y-15612987D02*
X14062206Y-15622511D01*
X14062206Y-15622511D02*
X14052682Y-15632035D01*
X14052682Y-15632035D02*
X14043158Y-15651082D01*
X14233634Y-15536797D02*
X14233634Y-15574892D01*
X14309825Y-15536797D02*
X14309825Y-15574892D01*
X14605063Y-15812987D02*
X14595539Y-15803463D01*
X14595539Y-15803463D02*
X14576491Y-15774892D01*
X14576491Y-15774892D02*
X14566968Y-15755844D01*
X14566968Y-15755844D02*
X14557444Y-15727273D01*
X14557444Y-15727273D02*
X14547920Y-15679654D01*
X14547920Y-15679654D02*
X14547920Y-15641559D01*
X14547920Y-15641559D02*
X14557444Y-15593940D01*
X14557444Y-15593940D02*
X14566968Y-15565368D01*
X14566968Y-15565368D02*
X14576491Y-15546321D01*
X14576491Y-15546321D02*
X14595539Y-15517749D01*
X14595539Y-15517749D02*
X14605063Y-15508225D01*
X14766968Y-15536797D02*
X14728872Y-15536797D01*
X14728872Y-15536797D02*
X14709825Y-15546321D01*
X14709825Y-15546321D02*
X14700301Y-15555844D01*
X14700301Y-15555844D02*
X14681253Y-15584416D01*
X14681253Y-15584416D02*
X14671729Y-15622511D01*
X14671729Y-15622511D02*
X14671729Y-15698701D01*
X14671729Y-15698701D02*
X14681253Y-15717749D01*
X14681253Y-15717749D02*
X14690777Y-15727273D01*
X14690777Y-15727273D02*
X14709825Y-15736797D01*
X14709825Y-15736797D02*
X14747920Y-15736797D01*
X14747920Y-15736797D02*
X14766968Y-15727273D01*
X14766968Y-15727273D02*
X14776491Y-15717749D01*
X14776491Y-15717749D02*
X14786015Y-15698701D01*
X14786015Y-15698701D02*
X14786015Y-15651082D01*
X14786015Y-15651082D02*
X14776491Y-15632035D01*
X14776491Y-15632035D02*
X14766968Y-15622511D01*
X14766968Y-15622511D02*
X14747920Y-15612987D01*
X14747920Y-15612987D02*
X14709825Y-15612987D01*
X14709825Y-15612987D02*
X14690777Y-15622511D01*
X14690777Y-15622511D02*
X14681253Y-15632035D01*
X14681253Y-15632035D02*
X14671729Y-15651082D01*
X15024110Y-15736797D02*
X15024110Y-15536797D01*
X15109825Y-15736797D02*
X15109825Y-15632035D01*
X15109825Y-15632035D02*
X15100301Y-15612987D01*
X15100301Y-15612987D02*
X15081253Y-15603463D01*
X15081253Y-15603463D02*
X15052682Y-15603463D01*
X15052682Y-15603463D02*
X15033634Y-15612987D01*
X15033634Y-15612987D02*
X15024110Y-15622511D01*
X15233634Y-15736797D02*
X15214587Y-15727273D01*
X15214587Y-15727273D02*
X15205063Y-15717749D01*
X15205063Y-15717749D02*
X15195539Y-15698701D01*
X15195539Y-15698701D02*
X15195539Y-15641559D01*
X15195539Y-15641559D02*
X15205063Y-15622511D01*
X15205063Y-15622511D02*
X15214587Y-15612987D01*
X15214587Y-15612987D02*
X15233634Y-15603463D01*
X15233634Y-15603463D02*
X15262206Y-15603463D01*
X15262206Y-15603463D02*
X15281253Y-15612987D01*
X15281253Y-15612987D02*
X15290777Y-15622511D01*
X15290777Y-15622511D02*
X15300301Y-15641559D01*
X15300301Y-15641559D02*
X15300301Y-15698701D01*
X15300301Y-15698701D02*
X15290777Y-15717749D01*
X15290777Y-15717749D02*
X15281253Y-15727273D01*
X15281253Y-15727273D02*
X15262206Y-15736797D01*
X15262206Y-15736797D02*
X15233634Y-15736797D01*
X15414587Y-15736797D02*
X15395539Y-15727273D01*
X15395539Y-15727273D02*
X15386015Y-15708225D01*
X15386015Y-15708225D02*
X15386015Y-15536797D01*
X15566968Y-15727273D02*
X15547920Y-15736797D01*
X15547920Y-15736797D02*
X15509825Y-15736797D01*
X15509825Y-15736797D02*
X15490777Y-15727273D01*
X15490777Y-15727273D02*
X15481253Y-15708225D01*
X15481253Y-15708225D02*
X15481253Y-15632035D01*
X15481253Y-15632035D02*
X15490777Y-15612987D01*
X15490777Y-15612987D02*
X15509825Y-15603463D01*
X15509825Y-15603463D02*
X15547920Y-15603463D01*
X15547920Y-15603463D02*
X15566968Y-15612987D01*
X15566968Y-15612987D02*
X15576491Y-15632035D01*
X15576491Y-15632035D02*
X15576491Y-15651082D01*
X15576491Y-15651082D02*
X15481253Y-15670130D01*
X15652682Y-15727273D02*
X15671730Y-15736797D01*
X15671730Y-15736797D02*
X15709825Y-15736797D01*
X15709825Y-15736797D02*
X15728872Y-15727273D01*
X15728872Y-15727273D02*
X15738396Y-15708225D01*
X15738396Y-15708225D02*
X15738396Y-15698701D01*
X15738396Y-15698701D02*
X15728872Y-15679654D01*
X15728872Y-15679654D02*
X15709825Y-15670130D01*
X15709825Y-15670130D02*
X15681253Y-15670130D01*
X15681253Y-15670130D02*
X15662206Y-15660606D01*
X15662206Y-15660606D02*
X15652682Y-15641559D01*
X15652682Y-15641559D02*
X15652682Y-15632035D01*
X15652682Y-15632035D02*
X15662206Y-15612987D01*
X15662206Y-15612987D02*
X15681253Y-15603463D01*
X15681253Y-15603463D02*
X15709825Y-15603463D01*
X15709825Y-15603463D02*
X15728872Y-15612987D01*
X15805063Y-15812987D02*
X15814587Y-15803463D01*
X15814587Y-15803463D02*
X15833634Y-15774892D01*
X15833634Y-15774892D02*
X15843158Y-15755844D01*
X15843158Y-15755844D02*
X15852682Y-15727273D01*
X15852682Y-15727273D02*
X15862206Y-15679654D01*
X15862206Y-15679654D02*
X15862206Y-15641559D01*
X15862206Y-15641559D02*
X15852682Y-15593940D01*
X15852682Y-15593940D02*
X15843158Y-15565368D01*
X15843158Y-15565368D02*
X15833634Y-15546321D01*
X15833634Y-15546321D02*
X15814587Y-15517749D01*
X15814587Y-15517749D02*
X15805063Y-15508225D01*
D11*
X10991900Y-15871213D02*
X10991900Y-15947413D01*
X10953800Y-15909313D02*
X11030000Y-15909313D01*
D10*
X11328872Y-15800797D02*
X11347920Y-15800797D01*
X11347920Y-15800797D02*
X11366967Y-15810321D01*
X11366967Y-15810321D02*
X11376491Y-15819844D01*
X11376491Y-15819844D02*
X11386015Y-15838892D01*
X11386015Y-15838892D02*
X11395539Y-15876987D01*
X11395539Y-15876987D02*
X11395539Y-15924606D01*
X11395539Y-15924606D02*
X11386015Y-15962701D01*
X11386015Y-15962701D02*
X11376491Y-15981749D01*
X11376491Y-15981749D02*
X11366967Y-15991273D01*
X11366967Y-15991273D02*
X11347920Y-16000797D01*
X11347920Y-16000797D02*
X11328872Y-16000797D01*
X11328872Y-16000797D02*
X11309824Y-15991273D01*
X11309824Y-15991273D02*
X11300301Y-15981749D01*
X11300301Y-15981749D02*
X11290777Y-15962701D01*
X11290777Y-15962701D02*
X11281253Y-15924606D01*
X11281253Y-15924606D02*
X11281253Y-15876987D01*
X11281253Y-15876987D02*
X11290777Y-15838892D01*
X11290777Y-15838892D02*
X11300301Y-15819844D01*
X11300301Y-15819844D02*
X11309824Y-15810321D01*
X11309824Y-15810321D02*
X11328872Y-15800797D01*
X11481253Y-15981749D02*
X11490777Y-15991273D01*
X11490777Y-15991273D02*
X11481253Y-16000797D01*
X11481253Y-16000797D02*
X11471729Y-15991273D01*
X11471729Y-15991273D02*
X11481253Y-15981749D01*
X11481253Y-15981749D02*
X11481253Y-16000797D01*
X11557443Y-15800797D02*
X11690777Y-15800797D01*
X11690777Y-15800797D02*
X11605062Y-16000797D01*
X11852682Y-15800797D02*
X11814586Y-15800797D01*
X11814586Y-15800797D02*
X11795539Y-15810321D01*
X11795539Y-15810321D02*
X11786015Y-15819844D01*
X11786015Y-15819844D02*
X11766967Y-15848416D01*
X11766967Y-15848416D02*
X11757443Y-15886511D01*
X11757443Y-15886511D02*
X11757443Y-15962701D01*
X11757443Y-15962701D02*
X11766967Y-15981749D01*
X11766967Y-15981749D02*
X11776491Y-15991273D01*
X11776491Y-15991273D02*
X11795539Y-16000797D01*
X11795539Y-16000797D02*
X11833634Y-16000797D01*
X11833634Y-16000797D02*
X11852682Y-15991273D01*
X11852682Y-15991273D02*
X11862205Y-15981749D01*
X11862205Y-15981749D02*
X11871729Y-15962701D01*
X11871729Y-15962701D02*
X11871729Y-15915082D01*
X11871729Y-15915082D02*
X11862205Y-15896035D01*
X11862205Y-15896035D02*
X11852682Y-15886511D01*
X11852682Y-15886511D02*
X11833634Y-15876987D01*
X11833634Y-15876987D02*
X11795539Y-15876987D01*
X11795539Y-15876987D02*
X11776491Y-15886511D01*
X11776491Y-15886511D02*
X11766967Y-15896035D01*
X11766967Y-15896035D02*
X11757443Y-15915082D01*
X11947920Y-15819844D02*
X11957443Y-15810321D01*
X11957443Y-15810321D02*
X11976491Y-15800797D01*
X11976491Y-15800797D02*
X12024110Y-15800797D01*
X12024110Y-15800797D02*
X12043158Y-15810321D01*
X12043158Y-15810321D02*
X12052682Y-15819844D01*
X12052682Y-15819844D02*
X12062205Y-15838892D01*
X12062205Y-15838892D02*
X12062205Y-15857940D01*
X12062205Y-15857940D02*
X12052682Y-15886511D01*
X12052682Y-15886511D02*
X11938396Y-16000797D01*
X11938396Y-16000797D02*
X12062205Y-16000797D01*
X12147920Y-16000797D02*
X12147920Y-15867463D01*
X12147920Y-15886511D02*
X12157443Y-15876987D01*
X12157443Y-15876987D02*
X12176491Y-15867463D01*
X12176491Y-15867463D02*
X12205063Y-15867463D01*
X12205063Y-15867463D02*
X12224110Y-15876987D01*
X12224110Y-15876987D02*
X12233634Y-15896035D01*
X12233634Y-15896035D02*
X12233634Y-16000797D01*
X12233634Y-15896035D02*
X12243158Y-15876987D01*
X12243158Y-15876987D02*
X12262205Y-15867463D01*
X12262205Y-15867463D02*
X12290777Y-15867463D01*
X12290777Y-15867463D02*
X12309824Y-15876987D01*
X12309824Y-15876987D02*
X12319348Y-15896035D01*
X12319348Y-15896035D02*
X12319348Y-16000797D01*
X12414586Y-16000797D02*
X12414586Y-15867463D01*
X12414586Y-15886511D02*
X12424110Y-15876987D01*
X12424110Y-15876987D02*
X12443158Y-15867463D01*
X12443158Y-15867463D02*
X12471729Y-15867463D01*
X12471729Y-15867463D02*
X12490777Y-15876987D01*
X12490777Y-15876987D02*
X12500301Y-15896035D01*
X12500301Y-15896035D02*
X12500301Y-16000797D01*
X12500301Y-15896035D02*
X12509824Y-15876987D01*
X12509824Y-15876987D02*
X12528872Y-15867463D01*
X12528872Y-15867463D02*
X12557443Y-15867463D01*
X12557443Y-15867463D02*
X12576491Y-15876987D01*
X12576491Y-15876987D02*
X12586015Y-15896035D01*
X12586015Y-15896035D02*
X12586015Y-16000797D01*
X12976491Y-15791273D02*
X12805063Y-16048416D01*
X13233634Y-15800797D02*
X13252682Y-15800797D01*
X13252682Y-15800797D02*
X13271729Y-15810321D01*
X13271729Y-15810321D02*
X13281253Y-15819844D01*
X13281253Y-15819844D02*
X13290777Y-15838892D01*
X13290777Y-15838892D02*
X13300301Y-15876987D01*
X13300301Y-15876987D02*
X13300301Y-15924606D01*
X13300301Y-15924606D02*
X13290777Y-15962701D01*
X13290777Y-15962701D02*
X13281253Y-15981749D01*
X13281253Y-15981749D02*
X13271729Y-15991273D01*
X13271729Y-15991273D02*
X13252682Y-16000797D01*
X13252682Y-16000797D02*
X13233634Y-16000797D01*
X13233634Y-16000797D02*
X13214586Y-15991273D01*
X13214586Y-15991273D02*
X13205063Y-15981749D01*
X13205063Y-15981749D02*
X13195539Y-15962701D01*
X13195539Y-15962701D02*
X13186015Y-15924606D01*
X13186015Y-15924606D02*
X13186015Y-15876987D01*
X13186015Y-15876987D02*
X13195539Y-15838892D01*
X13195539Y-15838892D02*
X13205063Y-15819844D01*
X13205063Y-15819844D02*
X13214586Y-15810321D01*
X13214586Y-15810321D02*
X13233634Y-15800797D01*
X13386015Y-15981749D02*
X13395539Y-15991273D01*
X13395539Y-15991273D02*
X13386015Y-16000797D01*
X13386015Y-16000797D02*
X13376491Y-15991273D01*
X13376491Y-15991273D02*
X13386015Y-15981749D01*
X13386015Y-15981749D02*
X13386015Y-16000797D01*
X13519348Y-15800797D02*
X13538396Y-15800797D01*
X13538396Y-15800797D02*
X13557444Y-15810321D01*
X13557444Y-15810321D02*
X13566967Y-15819844D01*
X13566967Y-15819844D02*
X13576491Y-15838892D01*
X13576491Y-15838892D02*
X13586015Y-15876987D01*
X13586015Y-15876987D02*
X13586015Y-15924606D01*
X13586015Y-15924606D02*
X13576491Y-15962701D01*
X13576491Y-15962701D02*
X13566967Y-15981749D01*
X13566967Y-15981749D02*
X13557444Y-15991273D01*
X13557444Y-15991273D02*
X13538396Y-16000797D01*
X13538396Y-16000797D02*
X13519348Y-16000797D01*
X13519348Y-16000797D02*
X13500301Y-15991273D01*
X13500301Y-15991273D02*
X13490777Y-15981749D01*
X13490777Y-15981749D02*
X13481253Y-15962701D01*
X13481253Y-15962701D02*
X13471729Y-15924606D01*
X13471729Y-15924606D02*
X13471729Y-15876987D01*
X13471729Y-15876987D02*
X13481253Y-15838892D01*
X13481253Y-15838892D02*
X13490777Y-15819844D01*
X13490777Y-15819844D02*
X13500301Y-15810321D01*
X13500301Y-15810321D02*
X13519348Y-15800797D01*
X13652682Y-15800797D02*
X13776491Y-15800797D01*
X13776491Y-15800797D02*
X13709825Y-15876987D01*
X13709825Y-15876987D02*
X13738396Y-15876987D01*
X13738396Y-15876987D02*
X13757444Y-15886511D01*
X13757444Y-15886511D02*
X13766967Y-15896035D01*
X13766967Y-15896035D02*
X13776491Y-15915082D01*
X13776491Y-15915082D02*
X13776491Y-15962701D01*
X13776491Y-15962701D02*
X13766967Y-15981749D01*
X13766967Y-15981749D02*
X13757444Y-15991273D01*
X13757444Y-15991273D02*
X13738396Y-16000797D01*
X13738396Y-16000797D02*
X13681253Y-16000797D01*
X13681253Y-16000797D02*
X13662206Y-15991273D01*
X13662206Y-15991273D02*
X13652682Y-15981749D01*
X13900301Y-15800797D02*
X13919348Y-15800797D01*
X13919348Y-15800797D02*
X13938396Y-15810321D01*
X13938396Y-15810321D02*
X13947920Y-15819844D01*
X13947920Y-15819844D02*
X13957444Y-15838892D01*
X13957444Y-15838892D02*
X13966967Y-15876987D01*
X13966967Y-15876987D02*
X13966967Y-15924606D01*
X13966967Y-15924606D02*
X13957444Y-15962701D01*
X13957444Y-15962701D02*
X13947920Y-15981749D01*
X13947920Y-15981749D02*
X13938396Y-15991273D01*
X13938396Y-15991273D02*
X13919348Y-16000797D01*
X13919348Y-16000797D02*
X13900301Y-16000797D01*
X13900301Y-16000797D02*
X13881253Y-15991273D01*
X13881253Y-15991273D02*
X13871729Y-15981749D01*
X13871729Y-15981749D02*
X13862206Y-15962701D01*
X13862206Y-15962701D02*
X13852682Y-15924606D01*
X13852682Y-15924606D02*
X13852682Y-15876987D01*
X13852682Y-15876987D02*
X13862206Y-15838892D01*
X13862206Y-15838892D02*
X13871729Y-15819844D01*
X13871729Y-15819844D02*
X13881253Y-15810321D01*
X13881253Y-15810321D02*
X13900301Y-15800797D01*
X14090777Y-15800797D02*
X14109825Y-15800797D01*
X14109825Y-15800797D02*
X14128872Y-15810321D01*
X14128872Y-15810321D02*
X14138396Y-15819844D01*
X14138396Y-15819844D02*
X14147920Y-15838892D01*
X14147920Y-15838892D02*
X14157444Y-15876987D01*
X14157444Y-15876987D02*
X14157444Y-15924606D01*
X14157444Y-15924606D02*
X14147920Y-15962701D01*
X14147920Y-15962701D02*
X14138396Y-15981749D01*
X14138396Y-15981749D02*
X14128872Y-15991273D01*
X14128872Y-15991273D02*
X14109825Y-16000797D01*
X14109825Y-16000797D02*
X14090777Y-16000797D01*
X14090777Y-16000797D02*
X14071729Y-15991273D01*
X14071729Y-15991273D02*
X14062206Y-15981749D01*
X14062206Y-15981749D02*
X14052682Y-15962701D01*
X14052682Y-15962701D02*
X14043158Y-15924606D01*
X14043158Y-15924606D02*
X14043158Y-15876987D01*
X14043158Y-15876987D02*
X14052682Y-15838892D01*
X14052682Y-15838892D02*
X14062206Y-15819844D01*
X14062206Y-15819844D02*
X14071729Y-15810321D01*
X14071729Y-15810321D02*
X14090777Y-15800797D01*
X14233634Y-15800797D02*
X14233634Y-15838892D01*
X14309825Y-15800797D02*
X14309825Y-15838892D01*
X14605063Y-16076987D02*
X14595539Y-16067463D01*
X14595539Y-16067463D02*
X14576491Y-16038892D01*
X14576491Y-16038892D02*
X14566968Y-16019844D01*
X14566968Y-16019844D02*
X14557444Y-15991273D01*
X14557444Y-15991273D02*
X14547920Y-15943654D01*
X14547920Y-15943654D02*
X14547920Y-15905559D01*
X14547920Y-15905559D02*
X14557444Y-15857940D01*
X14557444Y-15857940D02*
X14566968Y-15829368D01*
X14566968Y-15829368D02*
X14576491Y-15810321D01*
X14576491Y-15810321D02*
X14595539Y-15781749D01*
X14595539Y-15781749D02*
X14605063Y-15772225D01*
X14662206Y-15800797D02*
X14786015Y-15800797D01*
X14786015Y-15800797D02*
X14719348Y-15876987D01*
X14719348Y-15876987D02*
X14747920Y-15876987D01*
X14747920Y-15876987D02*
X14766968Y-15886511D01*
X14766968Y-15886511D02*
X14776491Y-15896035D01*
X14776491Y-15896035D02*
X14786015Y-15915082D01*
X14786015Y-15915082D02*
X14786015Y-15962701D01*
X14786015Y-15962701D02*
X14776491Y-15981749D01*
X14776491Y-15981749D02*
X14766968Y-15991273D01*
X14766968Y-15991273D02*
X14747920Y-16000797D01*
X14747920Y-16000797D02*
X14690777Y-16000797D01*
X14690777Y-16000797D02*
X14671729Y-15991273D01*
X14671729Y-15991273D02*
X14662206Y-15981749D01*
X15024110Y-16000797D02*
X15024110Y-15800797D01*
X15109825Y-16000797D02*
X15109825Y-15896035D01*
X15109825Y-15896035D02*
X15100301Y-15876987D01*
X15100301Y-15876987D02*
X15081253Y-15867463D01*
X15081253Y-15867463D02*
X15052682Y-15867463D01*
X15052682Y-15867463D02*
X15033634Y-15876987D01*
X15033634Y-15876987D02*
X15024110Y-15886511D01*
X15233634Y-16000797D02*
X15214587Y-15991273D01*
X15214587Y-15991273D02*
X15205063Y-15981749D01*
X15205063Y-15981749D02*
X15195539Y-15962701D01*
X15195539Y-15962701D02*
X15195539Y-15905559D01*
X15195539Y-15905559D02*
X15205063Y-15886511D01*
X15205063Y-15886511D02*
X15214587Y-15876987D01*
X15214587Y-15876987D02*
X15233634Y-15867463D01*
X15233634Y-15867463D02*
X15262206Y-15867463D01*
X15262206Y-15867463D02*
X15281253Y-15876987D01*
X15281253Y-15876987D02*
X15290777Y-15886511D01*
X15290777Y-15886511D02*
X15300301Y-15905559D01*
X15300301Y-15905559D02*
X15300301Y-15962701D01*
X15300301Y-15962701D02*
X15290777Y-15981749D01*
X15290777Y-15981749D02*
X15281253Y-15991273D01*
X15281253Y-15991273D02*
X15262206Y-16000797D01*
X15262206Y-16000797D02*
X15233634Y-16000797D01*
X15414587Y-16000797D02*
X15395539Y-15991273D01*
X15395539Y-15991273D02*
X15386015Y-15972225D01*
X15386015Y-15972225D02*
X15386015Y-15800797D01*
X15566968Y-15991273D02*
X15547920Y-16000797D01*
X15547920Y-16000797D02*
X15509825Y-16000797D01*
X15509825Y-16000797D02*
X15490777Y-15991273D01*
X15490777Y-15991273D02*
X15481253Y-15972225D01*
X15481253Y-15972225D02*
X15481253Y-15896035D01*
X15481253Y-15896035D02*
X15490777Y-15876987D01*
X15490777Y-15876987D02*
X15509825Y-15867463D01*
X15509825Y-15867463D02*
X15547920Y-15867463D01*
X15547920Y-15867463D02*
X15566968Y-15876987D01*
X15566968Y-15876987D02*
X15576491Y-15896035D01*
X15576491Y-15896035D02*
X15576491Y-15915082D01*
X15576491Y-15915082D02*
X15481253Y-15934130D01*
X15652682Y-15991273D02*
X15671730Y-16000797D01*
X15671730Y-16000797D02*
X15709825Y-16000797D01*
X15709825Y-16000797D02*
X15728872Y-15991273D01*
X15728872Y-15991273D02*
X15738396Y-15972225D01*
X15738396Y-15972225D02*
X15738396Y-15962701D01*
X15738396Y-15962701D02*
X15728872Y-15943654D01*
X15728872Y-15943654D02*
X15709825Y-15934130D01*
X15709825Y-15934130D02*
X15681253Y-15934130D01*
X15681253Y-15934130D02*
X15662206Y-15924606D01*
X15662206Y-15924606D02*
X15652682Y-15905559D01*
X15652682Y-15905559D02*
X15652682Y-15896035D01*
X15652682Y-15896035D02*
X15662206Y-15876987D01*
X15662206Y-15876987D02*
X15681253Y-15867463D01*
X15681253Y-15867463D02*
X15709825Y-15867463D01*
X15709825Y-15867463D02*
X15728872Y-15876987D01*
X15805063Y-16076987D02*
X15814587Y-16067463D01*
X15814587Y-16067463D02*
X15833634Y-16038892D01*
X15833634Y-16038892D02*
X15843158Y-16019844D01*
X15843158Y-16019844D02*
X15852682Y-15991273D01*
X15852682Y-15991273D02*
X15862206Y-15943654D01*
X15862206Y-15943654D02*
X15862206Y-15905559D01*
X15862206Y-15905559D02*
X15852682Y-15857940D01*
X15852682Y-15857940D02*
X15843158Y-15829368D01*
X15843158Y-15829368D02*
X15833634Y-15810321D01*
X15833634Y-15810321D02*
X15814587Y-15781749D01*
X15814587Y-15781749D02*
X15805063Y-15772225D01*
D11*
X11015356Y-16208669D02*
X11015356Y-16137957D01*
X10944644Y-16137957D01*
X10944644Y-16208669D01*
X11015356Y-16208669D01*
D10*
X11395539Y-16264797D02*
X11281253Y-16264797D01*
X11338396Y-16264797D02*
X11338396Y-16064797D01*
X11338396Y-16064797D02*
X11319348Y-16093368D01*
X11319348Y-16093368D02*
X11300301Y-16112416D01*
X11300301Y-16112416D02*
X11281253Y-16121940D01*
X11481253Y-16245749D02*
X11490777Y-16255273D01*
X11490777Y-16255273D02*
X11481253Y-16264797D01*
X11481253Y-16264797D02*
X11471729Y-16255273D01*
X11471729Y-16255273D02*
X11481253Y-16245749D01*
X11481253Y-16245749D02*
X11481253Y-16264797D01*
X11614586Y-16064797D02*
X11633634Y-16064797D01*
X11633634Y-16064797D02*
X11652682Y-16074321D01*
X11652682Y-16074321D02*
X11662205Y-16083844D01*
X11662205Y-16083844D02*
X11671729Y-16102892D01*
X11671729Y-16102892D02*
X11681253Y-16140987D01*
X11681253Y-16140987D02*
X11681253Y-16188606D01*
X11681253Y-16188606D02*
X11671729Y-16226701D01*
X11671729Y-16226701D02*
X11662205Y-16245749D01*
X11662205Y-16245749D02*
X11652682Y-16255273D01*
X11652682Y-16255273D02*
X11633634Y-16264797D01*
X11633634Y-16264797D02*
X11614586Y-16264797D01*
X11614586Y-16264797D02*
X11595539Y-16255273D01*
X11595539Y-16255273D02*
X11586015Y-16245749D01*
X11586015Y-16245749D02*
X11576491Y-16226701D01*
X11576491Y-16226701D02*
X11566967Y-16188606D01*
X11566967Y-16188606D02*
X11566967Y-16140987D01*
X11566967Y-16140987D02*
X11576491Y-16102892D01*
X11576491Y-16102892D02*
X11586015Y-16083844D01*
X11586015Y-16083844D02*
X11595539Y-16074321D01*
X11595539Y-16074321D02*
X11614586Y-16064797D01*
X11805062Y-16064797D02*
X11824110Y-16064797D01*
X11824110Y-16064797D02*
X11843158Y-16074321D01*
X11843158Y-16074321D02*
X11852682Y-16083844D01*
X11852682Y-16083844D02*
X11862205Y-16102892D01*
X11862205Y-16102892D02*
X11871729Y-16140987D01*
X11871729Y-16140987D02*
X11871729Y-16188606D01*
X11871729Y-16188606D02*
X11862205Y-16226701D01*
X11862205Y-16226701D02*
X11852682Y-16245749D01*
X11852682Y-16245749D02*
X11843158Y-16255273D01*
X11843158Y-16255273D02*
X11824110Y-16264797D01*
X11824110Y-16264797D02*
X11805062Y-16264797D01*
X11805062Y-16264797D02*
X11786015Y-16255273D01*
X11786015Y-16255273D02*
X11776491Y-16245749D01*
X11776491Y-16245749D02*
X11766967Y-16226701D01*
X11766967Y-16226701D02*
X11757443Y-16188606D01*
X11757443Y-16188606D02*
X11757443Y-16140987D01*
X11757443Y-16140987D02*
X11766967Y-16102892D01*
X11766967Y-16102892D02*
X11776491Y-16083844D01*
X11776491Y-16083844D02*
X11786015Y-16074321D01*
X11786015Y-16074321D02*
X11805062Y-16064797D01*
X11995539Y-16064797D02*
X12014586Y-16064797D01*
X12014586Y-16064797D02*
X12033634Y-16074321D01*
X12033634Y-16074321D02*
X12043158Y-16083844D01*
X12043158Y-16083844D02*
X12052682Y-16102892D01*
X12052682Y-16102892D02*
X12062205Y-16140987D01*
X12062205Y-16140987D02*
X12062205Y-16188606D01*
X12062205Y-16188606D02*
X12052682Y-16226701D01*
X12052682Y-16226701D02*
X12043158Y-16245749D01*
X12043158Y-16245749D02*
X12033634Y-16255273D01*
X12033634Y-16255273D02*
X12014586Y-16264797D01*
X12014586Y-16264797D02*
X11995539Y-16264797D01*
X11995539Y-16264797D02*
X11976491Y-16255273D01*
X11976491Y-16255273D02*
X11966967Y-16245749D01*
X11966967Y-16245749D02*
X11957443Y-16226701D01*
X11957443Y-16226701D02*
X11947920Y-16188606D01*
X11947920Y-16188606D02*
X11947920Y-16140987D01*
X11947920Y-16140987D02*
X11957443Y-16102892D01*
X11957443Y-16102892D02*
X11966967Y-16083844D01*
X11966967Y-16083844D02*
X11976491Y-16074321D01*
X11976491Y-16074321D02*
X11995539Y-16064797D01*
X12147920Y-16264797D02*
X12147920Y-16131463D01*
X12147920Y-16150511D02*
X12157443Y-16140987D01*
X12157443Y-16140987D02*
X12176491Y-16131463D01*
X12176491Y-16131463D02*
X12205063Y-16131463D01*
X12205063Y-16131463D02*
X12224110Y-16140987D01*
X12224110Y-16140987D02*
X12233634Y-16160035D01*
X12233634Y-16160035D02*
X12233634Y-16264797D01*
X12233634Y-16160035D02*
X12243158Y-16140987D01*
X12243158Y-16140987D02*
X12262205Y-16131463D01*
X12262205Y-16131463D02*
X12290777Y-16131463D01*
X12290777Y-16131463D02*
X12309824Y-16140987D01*
X12309824Y-16140987D02*
X12319348Y-16160035D01*
X12319348Y-16160035D02*
X12319348Y-16264797D01*
X12414586Y-16264797D02*
X12414586Y-16131463D01*
X12414586Y-16150511D02*
X12424110Y-16140987D01*
X12424110Y-16140987D02*
X12443158Y-16131463D01*
X12443158Y-16131463D02*
X12471729Y-16131463D01*
X12471729Y-16131463D02*
X12490777Y-16140987D01*
X12490777Y-16140987D02*
X12500301Y-16160035D01*
X12500301Y-16160035D02*
X12500301Y-16264797D01*
X12500301Y-16160035D02*
X12509824Y-16140987D01*
X12509824Y-16140987D02*
X12528872Y-16131463D01*
X12528872Y-16131463D02*
X12557443Y-16131463D01*
X12557443Y-16131463D02*
X12576491Y-16140987D01*
X12576491Y-16140987D02*
X12586015Y-16160035D01*
X12586015Y-16160035D02*
X12586015Y-16264797D01*
X12976491Y-16055273D02*
X12805063Y-16312416D01*
X13233634Y-16064797D02*
X13252682Y-16064797D01*
X13252682Y-16064797D02*
X13271729Y-16074321D01*
X13271729Y-16074321D02*
X13281253Y-16083844D01*
X13281253Y-16083844D02*
X13290777Y-16102892D01*
X13290777Y-16102892D02*
X13300301Y-16140987D01*
X13300301Y-16140987D02*
X13300301Y-16188606D01*
X13300301Y-16188606D02*
X13290777Y-16226701D01*
X13290777Y-16226701D02*
X13281253Y-16245749D01*
X13281253Y-16245749D02*
X13271729Y-16255273D01*
X13271729Y-16255273D02*
X13252682Y-16264797D01*
X13252682Y-16264797D02*
X13233634Y-16264797D01*
X13233634Y-16264797D02*
X13214586Y-16255273D01*
X13214586Y-16255273D02*
X13205063Y-16245749D01*
X13205063Y-16245749D02*
X13195539Y-16226701D01*
X13195539Y-16226701D02*
X13186015Y-16188606D01*
X13186015Y-16188606D02*
X13186015Y-16140987D01*
X13186015Y-16140987D02*
X13195539Y-16102892D01*
X13195539Y-16102892D02*
X13205063Y-16083844D01*
X13205063Y-16083844D02*
X13214586Y-16074321D01*
X13214586Y-16074321D02*
X13233634Y-16064797D01*
X13386015Y-16245749D02*
X13395539Y-16255273D01*
X13395539Y-16255273D02*
X13386015Y-16264797D01*
X13386015Y-16264797D02*
X13376491Y-16255273D01*
X13376491Y-16255273D02*
X13386015Y-16245749D01*
X13386015Y-16245749D02*
X13386015Y-16264797D01*
X13519348Y-16064797D02*
X13538396Y-16064797D01*
X13538396Y-16064797D02*
X13557444Y-16074321D01*
X13557444Y-16074321D02*
X13566967Y-16083844D01*
X13566967Y-16083844D02*
X13576491Y-16102892D01*
X13576491Y-16102892D02*
X13586015Y-16140987D01*
X13586015Y-16140987D02*
X13586015Y-16188606D01*
X13586015Y-16188606D02*
X13576491Y-16226701D01*
X13576491Y-16226701D02*
X13566967Y-16245749D01*
X13566967Y-16245749D02*
X13557444Y-16255273D01*
X13557444Y-16255273D02*
X13538396Y-16264797D01*
X13538396Y-16264797D02*
X13519348Y-16264797D01*
X13519348Y-16264797D02*
X13500301Y-16255273D01*
X13500301Y-16255273D02*
X13490777Y-16245749D01*
X13490777Y-16245749D02*
X13481253Y-16226701D01*
X13481253Y-16226701D02*
X13471729Y-16188606D01*
X13471729Y-16188606D02*
X13471729Y-16140987D01*
X13471729Y-16140987D02*
X13481253Y-16102892D01*
X13481253Y-16102892D02*
X13490777Y-16083844D01*
X13490777Y-16083844D02*
X13500301Y-16074321D01*
X13500301Y-16074321D02*
X13519348Y-16064797D01*
X13652682Y-16064797D02*
X13776491Y-16064797D01*
X13776491Y-16064797D02*
X13709825Y-16140987D01*
X13709825Y-16140987D02*
X13738396Y-16140987D01*
X13738396Y-16140987D02*
X13757444Y-16150511D01*
X13757444Y-16150511D02*
X13766967Y-16160035D01*
X13766967Y-16160035D02*
X13776491Y-16179082D01*
X13776491Y-16179082D02*
X13776491Y-16226701D01*
X13776491Y-16226701D02*
X13766967Y-16245749D01*
X13766967Y-16245749D02*
X13757444Y-16255273D01*
X13757444Y-16255273D02*
X13738396Y-16264797D01*
X13738396Y-16264797D02*
X13681253Y-16264797D01*
X13681253Y-16264797D02*
X13662206Y-16255273D01*
X13662206Y-16255273D02*
X13652682Y-16245749D01*
X13871729Y-16264797D02*
X13909825Y-16264797D01*
X13909825Y-16264797D02*
X13928872Y-16255273D01*
X13928872Y-16255273D02*
X13938396Y-16245749D01*
X13938396Y-16245749D02*
X13957444Y-16217178D01*
X13957444Y-16217178D02*
X13966967Y-16179082D01*
X13966967Y-16179082D02*
X13966967Y-16102892D01*
X13966967Y-16102892D02*
X13957444Y-16083844D01*
X13957444Y-16083844D02*
X13947920Y-16074321D01*
X13947920Y-16074321D02*
X13928872Y-16064797D01*
X13928872Y-16064797D02*
X13890777Y-16064797D01*
X13890777Y-16064797D02*
X13871729Y-16074321D01*
X13871729Y-16074321D02*
X13862206Y-16083844D01*
X13862206Y-16083844D02*
X13852682Y-16102892D01*
X13852682Y-16102892D02*
X13852682Y-16150511D01*
X13852682Y-16150511D02*
X13862206Y-16169559D01*
X13862206Y-16169559D02*
X13871729Y-16179082D01*
X13871729Y-16179082D02*
X13890777Y-16188606D01*
X13890777Y-16188606D02*
X13928872Y-16188606D01*
X13928872Y-16188606D02*
X13947920Y-16179082D01*
X13947920Y-16179082D02*
X13957444Y-16169559D01*
X13957444Y-16169559D02*
X13966967Y-16150511D01*
X14138396Y-16131463D02*
X14138396Y-16264797D01*
X14090777Y-16055273D02*
X14043158Y-16198130D01*
X14043158Y-16198130D02*
X14166967Y-16198130D01*
X14233634Y-16064797D02*
X14233634Y-16102892D01*
X14309825Y-16064797D02*
X14309825Y-16102892D01*
X14605063Y-16340987D02*
X14595539Y-16331463D01*
X14595539Y-16331463D02*
X14576491Y-16302892D01*
X14576491Y-16302892D02*
X14566968Y-16283844D01*
X14566968Y-16283844D02*
X14557444Y-16255273D01*
X14557444Y-16255273D02*
X14547920Y-16207654D01*
X14547920Y-16207654D02*
X14547920Y-16169559D01*
X14547920Y-16169559D02*
X14557444Y-16121940D01*
X14557444Y-16121940D02*
X14566968Y-16093368D01*
X14566968Y-16093368D02*
X14576491Y-16074321D01*
X14576491Y-16074321D02*
X14595539Y-16045749D01*
X14595539Y-16045749D02*
X14605063Y-16036225D01*
X14786015Y-16264797D02*
X14671729Y-16264797D01*
X14728872Y-16264797D02*
X14728872Y-16064797D01*
X14728872Y-16064797D02*
X14709825Y-16093368D01*
X14709825Y-16093368D02*
X14690777Y-16112416D01*
X14690777Y-16112416D02*
X14671729Y-16121940D01*
X14852682Y-16064797D02*
X14976491Y-16064797D01*
X14976491Y-16064797D02*
X14909825Y-16140987D01*
X14909825Y-16140987D02*
X14938396Y-16140987D01*
X14938396Y-16140987D02*
X14957444Y-16150511D01*
X14957444Y-16150511D02*
X14966968Y-16160035D01*
X14966968Y-16160035D02*
X14976491Y-16179082D01*
X14976491Y-16179082D02*
X14976491Y-16226701D01*
X14976491Y-16226701D02*
X14966968Y-16245749D01*
X14966968Y-16245749D02*
X14957444Y-16255273D01*
X14957444Y-16255273D02*
X14938396Y-16264797D01*
X14938396Y-16264797D02*
X14881253Y-16264797D01*
X14881253Y-16264797D02*
X14862206Y-16255273D01*
X14862206Y-16255273D02*
X14852682Y-16245749D01*
X15214587Y-16264797D02*
X15214587Y-16064797D01*
X15300301Y-16264797D02*
X15300301Y-16160035D01*
X15300301Y-16160035D02*
X15290777Y-16140987D01*
X15290777Y-16140987D02*
X15271730Y-16131463D01*
X15271730Y-16131463D02*
X15243158Y-16131463D01*
X15243158Y-16131463D02*
X15224110Y-16140987D01*
X15224110Y-16140987D02*
X15214587Y-16150511D01*
X15424110Y-16264797D02*
X15405063Y-16255273D01*
X15405063Y-16255273D02*
X15395539Y-16245749D01*
X15395539Y-16245749D02*
X15386015Y-16226701D01*
X15386015Y-16226701D02*
X15386015Y-16169559D01*
X15386015Y-16169559D02*
X15395539Y-16150511D01*
X15395539Y-16150511D02*
X15405063Y-16140987D01*
X15405063Y-16140987D02*
X15424110Y-16131463D01*
X15424110Y-16131463D02*
X15452682Y-16131463D01*
X15452682Y-16131463D02*
X15471730Y-16140987D01*
X15471730Y-16140987D02*
X15481253Y-16150511D01*
X15481253Y-16150511D02*
X15490777Y-16169559D01*
X15490777Y-16169559D02*
X15490777Y-16226701D01*
X15490777Y-16226701D02*
X15481253Y-16245749D01*
X15481253Y-16245749D02*
X15471730Y-16255273D01*
X15471730Y-16255273D02*
X15452682Y-16264797D01*
X15452682Y-16264797D02*
X15424110Y-16264797D01*
X15605063Y-16264797D02*
X15586015Y-16255273D01*
X15586015Y-16255273D02*
X15576491Y-16236225D01*
X15576491Y-16236225D02*
X15576491Y-16064797D01*
X15757444Y-16255273D02*
X15738396Y-16264797D01*
X15738396Y-16264797D02*
X15700301Y-16264797D01*
X15700301Y-16264797D02*
X15681253Y-16255273D01*
X15681253Y-16255273D02*
X15671730Y-16236225D01*
X15671730Y-16236225D02*
X15671730Y-16160035D01*
X15671730Y-16160035D02*
X15681253Y-16140987D01*
X15681253Y-16140987D02*
X15700301Y-16131463D01*
X15700301Y-16131463D02*
X15738396Y-16131463D01*
X15738396Y-16131463D02*
X15757444Y-16140987D01*
X15757444Y-16140987D02*
X15766968Y-16160035D01*
X15766968Y-16160035D02*
X15766968Y-16179082D01*
X15766968Y-16179082D02*
X15671730Y-16198130D01*
X15843158Y-16255273D02*
X15862206Y-16264797D01*
X15862206Y-16264797D02*
X15900301Y-16264797D01*
X15900301Y-16264797D02*
X15919349Y-16255273D01*
X15919349Y-16255273D02*
X15928872Y-16236225D01*
X15928872Y-16236225D02*
X15928872Y-16226701D01*
X15928872Y-16226701D02*
X15919349Y-16207654D01*
X15919349Y-16207654D02*
X15900301Y-16198130D01*
X15900301Y-16198130D02*
X15871730Y-16198130D01*
X15871730Y-16198130D02*
X15852682Y-16188606D01*
X15852682Y-16188606D02*
X15843158Y-16169559D01*
X15843158Y-16169559D02*
X15843158Y-16160035D01*
X15843158Y-16160035D02*
X15852682Y-16140987D01*
X15852682Y-16140987D02*
X15871730Y-16131463D01*
X15871730Y-16131463D02*
X15900301Y-16131463D01*
X15900301Y-16131463D02*
X15919349Y-16140987D01*
X15995539Y-16340987D02*
X16005063Y-16331463D01*
X16005063Y-16331463D02*
X16024111Y-16302892D01*
X16024111Y-16302892D02*
X16033634Y-16283844D01*
X16033634Y-16283844D02*
X16043158Y-16255273D01*
X16043158Y-16255273D02*
X16052682Y-16207654D01*
X16052682Y-16207654D02*
X16052682Y-16169559D01*
X16052682Y-16169559D02*
X16043158Y-16121940D01*
X16043158Y-16121940D02*
X16033634Y-16093368D01*
X16033634Y-16093368D02*
X16024111Y-16074321D01*
X16024111Y-16074321D02*
X16005063Y-16045749D01*
X16005063Y-16045749D02*
X15995539Y-16036225D01*
D12*
X10975000Y-16492313D02*
X11030000Y-16437313D01*
X10975000Y-16382313D01*
X10920000Y-16437313D01*
X10975000Y-16492313D01*
D10*
X11395539Y-16528797D02*
X11281253Y-16528797D01*
X11338396Y-16528797D02*
X11338396Y-16328797D01*
X11338396Y-16328797D02*
X11319348Y-16357368D01*
X11319348Y-16357368D02*
X11300301Y-16376416D01*
X11300301Y-16376416D02*
X11281253Y-16385940D01*
X11481253Y-16509749D02*
X11490777Y-16519273D01*
X11490777Y-16519273D02*
X11481253Y-16528797D01*
X11481253Y-16528797D02*
X11471729Y-16519273D01*
X11471729Y-16519273D02*
X11481253Y-16509749D01*
X11481253Y-16509749D02*
X11481253Y-16528797D01*
X11681253Y-16528797D02*
X11566967Y-16528797D01*
X11624110Y-16528797D02*
X11624110Y-16328797D01*
X11624110Y-16328797D02*
X11605062Y-16357368D01*
X11605062Y-16357368D02*
X11586015Y-16376416D01*
X11586015Y-16376416D02*
X11566967Y-16385940D01*
X11805062Y-16328797D02*
X11824110Y-16328797D01*
X11824110Y-16328797D02*
X11843158Y-16338321D01*
X11843158Y-16338321D02*
X11852682Y-16347844D01*
X11852682Y-16347844D02*
X11862205Y-16366892D01*
X11862205Y-16366892D02*
X11871729Y-16404987D01*
X11871729Y-16404987D02*
X11871729Y-16452606D01*
X11871729Y-16452606D02*
X11862205Y-16490701D01*
X11862205Y-16490701D02*
X11852682Y-16509749D01*
X11852682Y-16509749D02*
X11843158Y-16519273D01*
X11843158Y-16519273D02*
X11824110Y-16528797D01*
X11824110Y-16528797D02*
X11805062Y-16528797D01*
X11805062Y-16528797D02*
X11786015Y-16519273D01*
X11786015Y-16519273D02*
X11776491Y-16509749D01*
X11776491Y-16509749D02*
X11766967Y-16490701D01*
X11766967Y-16490701D02*
X11757443Y-16452606D01*
X11757443Y-16452606D02*
X11757443Y-16404987D01*
X11757443Y-16404987D02*
X11766967Y-16366892D01*
X11766967Y-16366892D02*
X11776491Y-16347844D01*
X11776491Y-16347844D02*
X11786015Y-16338321D01*
X11786015Y-16338321D02*
X11805062Y-16328797D01*
X11995539Y-16328797D02*
X12014586Y-16328797D01*
X12014586Y-16328797D02*
X12033634Y-16338321D01*
X12033634Y-16338321D02*
X12043158Y-16347844D01*
X12043158Y-16347844D02*
X12052682Y-16366892D01*
X12052682Y-16366892D02*
X12062205Y-16404987D01*
X12062205Y-16404987D02*
X12062205Y-16452606D01*
X12062205Y-16452606D02*
X12052682Y-16490701D01*
X12052682Y-16490701D02*
X12043158Y-16509749D01*
X12043158Y-16509749D02*
X12033634Y-16519273D01*
X12033634Y-16519273D02*
X12014586Y-16528797D01*
X12014586Y-16528797D02*
X11995539Y-16528797D01*
X11995539Y-16528797D02*
X11976491Y-16519273D01*
X11976491Y-16519273D02*
X11966967Y-16509749D01*
X11966967Y-16509749D02*
X11957443Y-16490701D01*
X11957443Y-16490701D02*
X11947920Y-16452606D01*
X11947920Y-16452606D02*
X11947920Y-16404987D01*
X11947920Y-16404987D02*
X11957443Y-16366892D01*
X11957443Y-16366892D02*
X11966967Y-16347844D01*
X11966967Y-16347844D02*
X11976491Y-16338321D01*
X11976491Y-16338321D02*
X11995539Y-16328797D01*
X12147920Y-16528797D02*
X12147920Y-16395463D01*
X12147920Y-16414511D02*
X12157443Y-16404987D01*
X12157443Y-16404987D02*
X12176491Y-16395463D01*
X12176491Y-16395463D02*
X12205063Y-16395463D01*
X12205063Y-16395463D02*
X12224110Y-16404987D01*
X12224110Y-16404987D02*
X12233634Y-16424035D01*
X12233634Y-16424035D02*
X12233634Y-16528797D01*
X12233634Y-16424035D02*
X12243158Y-16404987D01*
X12243158Y-16404987D02*
X12262205Y-16395463D01*
X12262205Y-16395463D02*
X12290777Y-16395463D01*
X12290777Y-16395463D02*
X12309824Y-16404987D01*
X12309824Y-16404987D02*
X12319348Y-16424035D01*
X12319348Y-16424035D02*
X12319348Y-16528797D01*
X12414586Y-16528797D02*
X12414586Y-16395463D01*
X12414586Y-16414511D02*
X12424110Y-16404987D01*
X12424110Y-16404987D02*
X12443158Y-16395463D01*
X12443158Y-16395463D02*
X12471729Y-16395463D01*
X12471729Y-16395463D02*
X12490777Y-16404987D01*
X12490777Y-16404987D02*
X12500301Y-16424035D01*
X12500301Y-16424035D02*
X12500301Y-16528797D01*
X12500301Y-16424035D02*
X12509824Y-16404987D01*
X12509824Y-16404987D02*
X12528872Y-16395463D01*
X12528872Y-16395463D02*
X12557443Y-16395463D01*
X12557443Y-16395463D02*
X12576491Y-16404987D01*
X12576491Y-16404987D02*
X12586015Y-16424035D01*
X12586015Y-16424035D02*
X12586015Y-16528797D01*
X12976491Y-16319273D02*
X12805063Y-16576416D01*
X13233634Y-16328797D02*
X13252682Y-16328797D01*
X13252682Y-16328797D02*
X13271729Y-16338321D01*
X13271729Y-16338321D02*
X13281253Y-16347844D01*
X13281253Y-16347844D02*
X13290777Y-16366892D01*
X13290777Y-16366892D02*
X13300301Y-16404987D01*
X13300301Y-16404987D02*
X13300301Y-16452606D01*
X13300301Y-16452606D02*
X13290777Y-16490701D01*
X13290777Y-16490701D02*
X13281253Y-16509749D01*
X13281253Y-16509749D02*
X13271729Y-16519273D01*
X13271729Y-16519273D02*
X13252682Y-16528797D01*
X13252682Y-16528797D02*
X13233634Y-16528797D01*
X13233634Y-16528797D02*
X13214586Y-16519273D01*
X13214586Y-16519273D02*
X13205063Y-16509749D01*
X13205063Y-16509749D02*
X13195539Y-16490701D01*
X13195539Y-16490701D02*
X13186015Y-16452606D01*
X13186015Y-16452606D02*
X13186015Y-16404987D01*
X13186015Y-16404987D02*
X13195539Y-16366892D01*
X13195539Y-16366892D02*
X13205063Y-16347844D01*
X13205063Y-16347844D02*
X13214586Y-16338321D01*
X13214586Y-16338321D02*
X13233634Y-16328797D01*
X13386015Y-16509749D02*
X13395539Y-16519273D01*
X13395539Y-16519273D02*
X13386015Y-16528797D01*
X13386015Y-16528797D02*
X13376491Y-16519273D01*
X13376491Y-16519273D02*
X13386015Y-16509749D01*
X13386015Y-16509749D02*
X13386015Y-16528797D01*
X13519348Y-16328797D02*
X13538396Y-16328797D01*
X13538396Y-16328797D02*
X13557444Y-16338321D01*
X13557444Y-16338321D02*
X13566967Y-16347844D01*
X13566967Y-16347844D02*
X13576491Y-16366892D01*
X13576491Y-16366892D02*
X13586015Y-16404987D01*
X13586015Y-16404987D02*
X13586015Y-16452606D01*
X13586015Y-16452606D02*
X13576491Y-16490701D01*
X13576491Y-16490701D02*
X13566967Y-16509749D01*
X13566967Y-16509749D02*
X13557444Y-16519273D01*
X13557444Y-16519273D02*
X13538396Y-16528797D01*
X13538396Y-16528797D02*
X13519348Y-16528797D01*
X13519348Y-16528797D02*
X13500301Y-16519273D01*
X13500301Y-16519273D02*
X13490777Y-16509749D01*
X13490777Y-16509749D02*
X13481253Y-16490701D01*
X13481253Y-16490701D02*
X13471729Y-16452606D01*
X13471729Y-16452606D02*
X13471729Y-16404987D01*
X13471729Y-16404987D02*
X13481253Y-16366892D01*
X13481253Y-16366892D02*
X13490777Y-16347844D01*
X13490777Y-16347844D02*
X13500301Y-16338321D01*
X13500301Y-16338321D02*
X13519348Y-16328797D01*
X13757444Y-16395463D02*
X13757444Y-16528797D01*
X13709825Y-16319273D02*
X13662206Y-16462130D01*
X13662206Y-16462130D02*
X13786015Y-16462130D01*
X13843158Y-16328797D02*
X13966967Y-16328797D01*
X13966967Y-16328797D02*
X13900301Y-16404987D01*
X13900301Y-16404987D02*
X13928872Y-16404987D01*
X13928872Y-16404987D02*
X13947920Y-16414511D01*
X13947920Y-16414511D02*
X13957444Y-16424035D01*
X13957444Y-16424035D02*
X13966967Y-16443082D01*
X13966967Y-16443082D02*
X13966967Y-16490701D01*
X13966967Y-16490701D02*
X13957444Y-16509749D01*
X13957444Y-16509749D02*
X13947920Y-16519273D01*
X13947920Y-16519273D02*
X13928872Y-16528797D01*
X13928872Y-16528797D02*
X13871729Y-16528797D01*
X13871729Y-16528797D02*
X13852682Y-16519273D01*
X13852682Y-16519273D02*
X13843158Y-16509749D01*
X14033634Y-16328797D02*
X14157444Y-16328797D01*
X14157444Y-16328797D02*
X14090777Y-16404987D01*
X14090777Y-16404987D02*
X14119348Y-16404987D01*
X14119348Y-16404987D02*
X14138396Y-16414511D01*
X14138396Y-16414511D02*
X14147920Y-16424035D01*
X14147920Y-16424035D02*
X14157444Y-16443082D01*
X14157444Y-16443082D02*
X14157444Y-16490701D01*
X14157444Y-16490701D02*
X14147920Y-16509749D01*
X14147920Y-16509749D02*
X14138396Y-16519273D01*
X14138396Y-16519273D02*
X14119348Y-16528797D01*
X14119348Y-16528797D02*
X14062206Y-16528797D01*
X14062206Y-16528797D02*
X14043158Y-16519273D01*
X14043158Y-16519273D02*
X14033634Y-16509749D01*
X14233634Y-16328797D02*
X14233634Y-16366892D01*
X14309825Y-16328797D02*
X14309825Y-16366892D01*
X14605063Y-16604987D02*
X14595539Y-16595463D01*
X14595539Y-16595463D02*
X14576491Y-16566892D01*
X14576491Y-16566892D02*
X14566968Y-16547844D01*
X14566968Y-16547844D02*
X14557444Y-16519273D01*
X14557444Y-16519273D02*
X14547920Y-16471654D01*
X14547920Y-16471654D02*
X14547920Y-16433559D01*
X14547920Y-16433559D02*
X14557444Y-16385940D01*
X14557444Y-16385940D02*
X14566968Y-16357368D01*
X14566968Y-16357368D02*
X14576491Y-16338321D01*
X14576491Y-16338321D02*
X14595539Y-16309749D01*
X14595539Y-16309749D02*
X14605063Y-16300225D01*
X14671729Y-16347844D02*
X14681253Y-16338321D01*
X14681253Y-16338321D02*
X14700301Y-16328797D01*
X14700301Y-16328797D02*
X14747920Y-16328797D01*
X14747920Y-16328797D02*
X14766968Y-16338321D01*
X14766968Y-16338321D02*
X14776491Y-16347844D01*
X14776491Y-16347844D02*
X14786015Y-16366892D01*
X14786015Y-16366892D02*
X14786015Y-16385940D01*
X14786015Y-16385940D02*
X14776491Y-16414511D01*
X14776491Y-16414511D02*
X14662206Y-16528797D01*
X14662206Y-16528797D02*
X14786015Y-16528797D01*
X14862206Y-16347844D02*
X14871729Y-16338321D01*
X14871729Y-16338321D02*
X14890777Y-16328797D01*
X14890777Y-16328797D02*
X14938396Y-16328797D01*
X14938396Y-16328797D02*
X14957444Y-16338321D01*
X14957444Y-16338321D02*
X14966968Y-16347844D01*
X14966968Y-16347844D02*
X14976491Y-16366892D01*
X14976491Y-16366892D02*
X14976491Y-16385940D01*
X14976491Y-16385940D02*
X14966968Y-16414511D01*
X14966968Y-16414511D02*
X14852682Y-16528797D01*
X14852682Y-16528797D02*
X14976491Y-16528797D01*
X15214587Y-16528797D02*
X15214587Y-16328797D01*
X15300301Y-16528797D02*
X15300301Y-16424035D01*
X15300301Y-16424035D02*
X15290777Y-16404987D01*
X15290777Y-16404987D02*
X15271730Y-16395463D01*
X15271730Y-16395463D02*
X15243158Y-16395463D01*
X15243158Y-16395463D02*
X15224110Y-16404987D01*
X15224110Y-16404987D02*
X15214587Y-16414511D01*
X15424110Y-16528797D02*
X15405063Y-16519273D01*
X15405063Y-16519273D02*
X15395539Y-16509749D01*
X15395539Y-16509749D02*
X15386015Y-16490701D01*
X15386015Y-16490701D02*
X15386015Y-16433559D01*
X15386015Y-16433559D02*
X15395539Y-16414511D01*
X15395539Y-16414511D02*
X15405063Y-16404987D01*
X15405063Y-16404987D02*
X15424110Y-16395463D01*
X15424110Y-16395463D02*
X15452682Y-16395463D01*
X15452682Y-16395463D02*
X15471730Y-16404987D01*
X15471730Y-16404987D02*
X15481253Y-16414511D01*
X15481253Y-16414511D02*
X15490777Y-16433559D01*
X15490777Y-16433559D02*
X15490777Y-16490701D01*
X15490777Y-16490701D02*
X15481253Y-16509749D01*
X15481253Y-16509749D02*
X15471730Y-16519273D01*
X15471730Y-16519273D02*
X15452682Y-16528797D01*
X15452682Y-16528797D02*
X15424110Y-16528797D01*
X15605063Y-16528797D02*
X15586015Y-16519273D01*
X15586015Y-16519273D02*
X15576491Y-16500225D01*
X15576491Y-16500225D02*
X15576491Y-16328797D01*
X15757444Y-16519273D02*
X15738396Y-16528797D01*
X15738396Y-16528797D02*
X15700301Y-16528797D01*
X15700301Y-16528797D02*
X15681253Y-16519273D01*
X15681253Y-16519273D02*
X15671730Y-16500225D01*
X15671730Y-16500225D02*
X15671730Y-16424035D01*
X15671730Y-16424035D02*
X15681253Y-16404987D01*
X15681253Y-16404987D02*
X15700301Y-16395463D01*
X15700301Y-16395463D02*
X15738396Y-16395463D01*
X15738396Y-16395463D02*
X15757444Y-16404987D01*
X15757444Y-16404987D02*
X15766968Y-16424035D01*
X15766968Y-16424035D02*
X15766968Y-16443082D01*
X15766968Y-16443082D02*
X15671730Y-16462130D01*
X15843158Y-16519273D02*
X15862206Y-16528797D01*
X15862206Y-16528797D02*
X15900301Y-16528797D01*
X15900301Y-16528797D02*
X15919349Y-16519273D01*
X15919349Y-16519273D02*
X15928872Y-16500225D01*
X15928872Y-16500225D02*
X15928872Y-16490701D01*
X15928872Y-16490701D02*
X15919349Y-16471654D01*
X15919349Y-16471654D02*
X15900301Y-16462130D01*
X15900301Y-16462130D02*
X15871730Y-16462130D01*
X15871730Y-16462130D02*
X15852682Y-16452606D01*
X15852682Y-16452606D02*
X15843158Y-16433559D01*
X15843158Y-16433559D02*
X15843158Y-16424035D01*
X15843158Y-16424035D02*
X15852682Y-16404987D01*
X15852682Y-16404987D02*
X15871730Y-16395463D01*
X15871730Y-16395463D02*
X15900301Y-16395463D01*
X15900301Y-16395463D02*
X15919349Y-16404987D01*
X15995539Y-16604987D02*
X16005063Y-16595463D01*
X16005063Y-16595463D02*
X16024111Y-16566892D01*
X16024111Y-16566892D02*
X16033634Y-16547844D01*
X16033634Y-16547844D02*
X16043158Y-16519273D01*
X16043158Y-16519273D02*
X16052682Y-16471654D01*
X16052682Y-16471654D02*
X16052682Y-16433559D01*
X16052682Y-16433559D02*
X16043158Y-16385940D01*
X16043158Y-16385940D02*
X16033634Y-16357368D01*
X16033634Y-16357368D02*
X16024111Y-16338321D01*
X16024111Y-16338321D02*
X16005063Y-16309749D01*
X16005063Y-16309749D02*
X15995539Y-16300225D01*
X10830000Y-16601313D02*
X11030000Y-16801313D01*
X11030000Y-16601313D02*
X10830000Y-16801313D01*
X11030000Y-16701313D02*
G75*
G02*
X10830000Y-16701313I-100000J0D01*
G01*
X10830000Y-16701313D02*
G75*
G02*
X11030000Y-16701313I100000J0D01*
G01*
X11281253Y-16611844D02*
X11290777Y-16602321D01*
X11290777Y-16602321D02*
X11309824Y-16592797D01*
X11309824Y-16592797D02*
X11357443Y-16592797D01*
X11357443Y-16592797D02*
X11376491Y-16602321D01*
X11376491Y-16602321D02*
X11386015Y-16611844D01*
X11386015Y-16611844D02*
X11395539Y-16630892D01*
X11395539Y-16630892D02*
X11395539Y-16649940D01*
X11395539Y-16649940D02*
X11386015Y-16678511D01*
X11386015Y-16678511D02*
X11271729Y-16792797D01*
X11271729Y-16792797D02*
X11395539Y-16792797D01*
X11481253Y-16773749D02*
X11490777Y-16783273D01*
X11490777Y-16783273D02*
X11481253Y-16792797D01*
X11481253Y-16792797D02*
X11471729Y-16783273D01*
X11471729Y-16783273D02*
X11481253Y-16773749D01*
X11481253Y-16773749D02*
X11481253Y-16792797D01*
X11557443Y-16592797D02*
X11690777Y-16592797D01*
X11690777Y-16592797D02*
X11605062Y-16792797D01*
X11805062Y-16592797D02*
X11824110Y-16592797D01*
X11824110Y-16592797D02*
X11843158Y-16602321D01*
X11843158Y-16602321D02*
X11852682Y-16611844D01*
X11852682Y-16611844D02*
X11862205Y-16630892D01*
X11862205Y-16630892D02*
X11871729Y-16668987D01*
X11871729Y-16668987D02*
X11871729Y-16716606D01*
X11871729Y-16716606D02*
X11862205Y-16754701D01*
X11862205Y-16754701D02*
X11852682Y-16773749D01*
X11852682Y-16773749D02*
X11843158Y-16783273D01*
X11843158Y-16783273D02*
X11824110Y-16792797D01*
X11824110Y-16792797D02*
X11805062Y-16792797D01*
X11805062Y-16792797D02*
X11786015Y-16783273D01*
X11786015Y-16783273D02*
X11776491Y-16773749D01*
X11776491Y-16773749D02*
X11766967Y-16754701D01*
X11766967Y-16754701D02*
X11757443Y-16716606D01*
X11757443Y-16716606D02*
X11757443Y-16668987D01*
X11757443Y-16668987D02*
X11766967Y-16630892D01*
X11766967Y-16630892D02*
X11776491Y-16611844D01*
X11776491Y-16611844D02*
X11786015Y-16602321D01*
X11786015Y-16602321D02*
X11805062Y-16592797D01*
X11995539Y-16592797D02*
X12014586Y-16592797D01*
X12014586Y-16592797D02*
X12033634Y-16602321D01*
X12033634Y-16602321D02*
X12043158Y-16611844D01*
X12043158Y-16611844D02*
X12052682Y-16630892D01*
X12052682Y-16630892D02*
X12062205Y-16668987D01*
X12062205Y-16668987D02*
X12062205Y-16716606D01*
X12062205Y-16716606D02*
X12052682Y-16754701D01*
X12052682Y-16754701D02*
X12043158Y-16773749D01*
X12043158Y-16773749D02*
X12033634Y-16783273D01*
X12033634Y-16783273D02*
X12014586Y-16792797D01*
X12014586Y-16792797D02*
X11995539Y-16792797D01*
X11995539Y-16792797D02*
X11976491Y-16783273D01*
X11976491Y-16783273D02*
X11966967Y-16773749D01*
X11966967Y-16773749D02*
X11957443Y-16754701D01*
X11957443Y-16754701D02*
X11947920Y-16716606D01*
X11947920Y-16716606D02*
X11947920Y-16668987D01*
X11947920Y-16668987D02*
X11957443Y-16630892D01*
X11957443Y-16630892D02*
X11966967Y-16611844D01*
X11966967Y-16611844D02*
X11976491Y-16602321D01*
X11976491Y-16602321D02*
X11995539Y-16592797D01*
X12147920Y-16792797D02*
X12147920Y-16659463D01*
X12147920Y-16678511D02*
X12157443Y-16668987D01*
X12157443Y-16668987D02*
X12176491Y-16659463D01*
X12176491Y-16659463D02*
X12205063Y-16659463D01*
X12205063Y-16659463D02*
X12224110Y-16668987D01*
X12224110Y-16668987D02*
X12233634Y-16688035D01*
X12233634Y-16688035D02*
X12233634Y-16792797D01*
X12233634Y-16688035D02*
X12243158Y-16668987D01*
X12243158Y-16668987D02*
X12262205Y-16659463D01*
X12262205Y-16659463D02*
X12290777Y-16659463D01*
X12290777Y-16659463D02*
X12309824Y-16668987D01*
X12309824Y-16668987D02*
X12319348Y-16688035D01*
X12319348Y-16688035D02*
X12319348Y-16792797D01*
X12414586Y-16792797D02*
X12414586Y-16659463D01*
X12414586Y-16678511D02*
X12424110Y-16668987D01*
X12424110Y-16668987D02*
X12443158Y-16659463D01*
X12443158Y-16659463D02*
X12471729Y-16659463D01*
X12471729Y-16659463D02*
X12490777Y-16668987D01*
X12490777Y-16668987D02*
X12500301Y-16688035D01*
X12500301Y-16688035D02*
X12500301Y-16792797D01*
X12500301Y-16688035D02*
X12509824Y-16668987D01*
X12509824Y-16668987D02*
X12528872Y-16659463D01*
X12528872Y-16659463D02*
X12557443Y-16659463D01*
X12557443Y-16659463D02*
X12576491Y-16668987D01*
X12576491Y-16668987D02*
X12586015Y-16688035D01*
X12586015Y-16688035D02*
X12586015Y-16792797D01*
X12976491Y-16583273D02*
X12805063Y-16840416D01*
X13233634Y-16592797D02*
X13252682Y-16592797D01*
X13252682Y-16592797D02*
X13271729Y-16602321D01*
X13271729Y-16602321D02*
X13281253Y-16611844D01*
X13281253Y-16611844D02*
X13290777Y-16630892D01*
X13290777Y-16630892D02*
X13300301Y-16668987D01*
X13300301Y-16668987D02*
X13300301Y-16716606D01*
X13300301Y-16716606D02*
X13290777Y-16754701D01*
X13290777Y-16754701D02*
X13281253Y-16773749D01*
X13281253Y-16773749D02*
X13271729Y-16783273D01*
X13271729Y-16783273D02*
X13252682Y-16792797D01*
X13252682Y-16792797D02*
X13233634Y-16792797D01*
X13233634Y-16792797D02*
X13214586Y-16783273D01*
X13214586Y-16783273D02*
X13205063Y-16773749D01*
X13205063Y-16773749D02*
X13195539Y-16754701D01*
X13195539Y-16754701D02*
X13186015Y-16716606D01*
X13186015Y-16716606D02*
X13186015Y-16668987D01*
X13186015Y-16668987D02*
X13195539Y-16630892D01*
X13195539Y-16630892D02*
X13205063Y-16611844D01*
X13205063Y-16611844D02*
X13214586Y-16602321D01*
X13214586Y-16602321D02*
X13233634Y-16592797D01*
X13386015Y-16773749D02*
X13395539Y-16783273D01*
X13395539Y-16783273D02*
X13386015Y-16792797D01*
X13386015Y-16792797D02*
X13376491Y-16783273D01*
X13376491Y-16783273D02*
X13386015Y-16773749D01*
X13386015Y-16773749D02*
X13386015Y-16792797D01*
X13586015Y-16792797D02*
X13471729Y-16792797D01*
X13528872Y-16792797D02*
X13528872Y-16592797D01*
X13528872Y-16592797D02*
X13509825Y-16621368D01*
X13509825Y-16621368D02*
X13490777Y-16640416D01*
X13490777Y-16640416D02*
X13471729Y-16649940D01*
X13709825Y-16592797D02*
X13728872Y-16592797D01*
X13728872Y-16592797D02*
X13747920Y-16602321D01*
X13747920Y-16602321D02*
X13757444Y-16611844D01*
X13757444Y-16611844D02*
X13766967Y-16630892D01*
X13766967Y-16630892D02*
X13776491Y-16668987D01*
X13776491Y-16668987D02*
X13776491Y-16716606D01*
X13776491Y-16716606D02*
X13766967Y-16754701D01*
X13766967Y-16754701D02*
X13757444Y-16773749D01*
X13757444Y-16773749D02*
X13747920Y-16783273D01*
X13747920Y-16783273D02*
X13728872Y-16792797D01*
X13728872Y-16792797D02*
X13709825Y-16792797D01*
X13709825Y-16792797D02*
X13690777Y-16783273D01*
X13690777Y-16783273D02*
X13681253Y-16773749D01*
X13681253Y-16773749D02*
X13671729Y-16754701D01*
X13671729Y-16754701D02*
X13662206Y-16716606D01*
X13662206Y-16716606D02*
X13662206Y-16668987D01*
X13662206Y-16668987D02*
X13671729Y-16630892D01*
X13671729Y-16630892D02*
X13681253Y-16611844D01*
X13681253Y-16611844D02*
X13690777Y-16602321D01*
X13690777Y-16602321D02*
X13709825Y-16592797D01*
X13947920Y-16592797D02*
X13909825Y-16592797D01*
X13909825Y-16592797D02*
X13890777Y-16602321D01*
X13890777Y-16602321D02*
X13881253Y-16611844D01*
X13881253Y-16611844D02*
X13862206Y-16640416D01*
X13862206Y-16640416D02*
X13852682Y-16678511D01*
X13852682Y-16678511D02*
X13852682Y-16754701D01*
X13852682Y-16754701D02*
X13862206Y-16773749D01*
X13862206Y-16773749D02*
X13871729Y-16783273D01*
X13871729Y-16783273D02*
X13890777Y-16792797D01*
X13890777Y-16792797D02*
X13928872Y-16792797D01*
X13928872Y-16792797D02*
X13947920Y-16783273D01*
X13947920Y-16783273D02*
X13957444Y-16773749D01*
X13957444Y-16773749D02*
X13966967Y-16754701D01*
X13966967Y-16754701D02*
X13966967Y-16707082D01*
X13966967Y-16707082D02*
X13957444Y-16688035D01*
X13957444Y-16688035D02*
X13947920Y-16678511D01*
X13947920Y-16678511D02*
X13928872Y-16668987D01*
X13928872Y-16668987D02*
X13890777Y-16668987D01*
X13890777Y-16668987D02*
X13871729Y-16678511D01*
X13871729Y-16678511D02*
X13862206Y-16688035D01*
X13862206Y-16688035D02*
X13852682Y-16707082D01*
X14033634Y-16592797D02*
X14157444Y-16592797D01*
X14157444Y-16592797D02*
X14090777Y-16668987D01*
X14090777Y-16668987D02*
X14119348Y-16668987D01*
X14119348Y-16668987D02*
X14138396Y-16678511D01*
X14138396Y-16678511D02*
X14147920Y-16688035D01*
X14147920Y-16688035D02*
X14157444Y-16707082D01*
X14157444Y-16707082D02*
X14157444Y-16754701D01*
X14157444Y-16754701D02*
X14147920Y-16773749D01*
X14147920Y-16773749D02*
X14138396Y-16783273D01*
X14138396Y-16783273D02*
X14119348Y-16792797D01*
X14119348Y-16792797D02*
X14062206Y-16792797D01*
X14062206Y-16792797D02*
X14043158Y-16783273D01*
X14043158Y-16783273D02*
X14033634Y-16773749D01*
X14233634Y-16592797D02*
X14233634Y-16630892D01*
X14309825Y-16592797D02*
X14309825Y-16630892D01*
X14605063Y-16868987D02*
X14595539Y-16859463D01*
X14595539Y-16859463D02*
X14576491Y-16830892D01*
X14576491Y-16830892D02*
X14566968Y-16811844D01*
X14566968Y-16811844D02*
X14557444Y-16783273D01*
X14557444Y-16783273D02*
X14547920Y-16735654D01*
X14547920Y-16735654D02*
X14547920Y-16697559D01*
X14547920Y-16697559D02*
X14557444Y-16649940D01*
X14557444Y-16649940D02*
X14566968Y-16621368D01*
X14566968Y-16621368D02*
X14576491Y-16602321D01*
X14576491Y-16602321D02*
X14595539Y-16573749D01*
X14595539Y-16573749D02*
X14605063Y-16564225D01*
X14776491Y-16592797D02*
X14681253Y-16592797D01*
X14681253Y-16592797D02*
X14671729Y-16688035D01*
X14671729Y-16688035D02*
X14681253Y-16678511D01*
X14681253Y-16678511D02*
X14700301Y-16668987D01*
X14700301Y-16668987D02*
X14747920Y-16668987D01*
X14747920Y-16668987D02*
X14766968Y-16678511D01*
X14766968Y-16678511D02*
X14776491Y-16688035D01*
X14776491Y-16688035D02*
X14786015Y-16707082D01*
X14786015Y-16707082D02*
X14786015Y-16754701D01*
X14786015Y-16754701D02*
X14776491Y-16773749D01*
X14776491Y-16773749D02*
X14766968Y-16783273D01*
X14766968Y-16783273D02*
X14747920Y-16792797D01*
X14747920Y-16792797D02*
X14700301Y-16792797D01*
X14700301Y-16792797D02*
X14681253Y-16783273D01*
X14681253Y-16783273D02*
X14671729Y-16773749D01*
X15024110Y-16792797D02*
X15024110Y-16592797D01*
X15109825Y-16792797D02*
X15109825Y-16688035D01*
X15109825Y-16688035D02*
X15100301Y-16668987D01*
X15100301Y-16668987D02*
X15081253Y-16659463D01*
X15081253Y-16659463D02*
X15052682Y-16659463D01*
X15052682Y-16659463D02*
X15033634Y-16668987D01*
X15033634Y-16668987D02*
X15024110Y-16678511D01*
X15233634Y-16792797D02*
X15214587Y-16783273D01*
X15214587Y-16783273D02*
X15205063Y-16773749D01*
X15205063Y-16773749D02*
X15195539Y-16754701D01*
X15195539Y-16754701D02*
X15195539Y-16697559D01*
X15195539Y-16697559D02*
X15205063Y-16678511D01*
X15205063Y-16678511D02*
X15214587Y-16668987D01*
X15214587Y-16668987D02*
X15233634Y-16659463D01*
X15233634Y-16659463D02*
X15262206Y-16659463D01*
X15262206Y-16659463D02*
X15281253Y-16668987D01*
X15281253Y-16668987D02*
X15290777Y-16678511D01*
X15290777Y-16678511D02*
X15300301Y-16697559D01*
X15300301Y-16697559D02*
X15300301Y-16754701D01*
X15300301Y-16754701D02*
X15290777Y-16773749D01*
X15290777Y-16773749D02*
X15281253Y-16783273D01*
X15281253Y-16783273D02*
X15262206Y-16792797D01*
X15262206Y-16792797D02*
X15233634Y-16792797D01*
X15414587Y-16792797D02*
X15395539Y-16783273D01*
X15395539Y-16783273D02*
X15386015Y-16764225D01*
X15386015Y-16764225D02*
X15386015Y-16592797D01*
X15566968Y-16783273D02*
X15547920Y-16792797D01*
X15547920Y-16792797D02*
X15509825Y-16792797D01*
X15509825Y-16792797D02*
X15490777Y-16783273D01*
X15490777Y-16783273D02*
X15481253Y-16764225D01*
X15481253Y-16764225D02*
X15481253Y-16688035D01*
X15481253Y-16688035D02*
X15490777Y-16668987D01*
X15490777Y-16668987D02*
X15509825Y-16659463D01*
X15509825Y-16659463D02*
X15547920Y-16659463D01*
X15547920Y-16659463D02*
X15566968Y-16668987D01*
X15566968Y-16668987D02*
X15576491Y-16688035D01*
X15576491Y-16688035D02*
X15576491Y-16707082D01*
X15576491Y-16707082D02*
X15481253Y-16726130D01*
X15652682Y-16783273D02*
X15671730Y-16792797D01*
X15671730Y-16792797D02*
X15709825Y-16792797D01*
X15709825Y-16792797D02*
X15728872Y-16783273D01*
X15728872Y-16783273D02*
X15738396Y-16764225D01*
X15738396Y-16764225D02*
X15738396Y-16754701D01*
X15738396Y-16754701D02*
X15728872Y-16735654D01*
X15728872Y-16735654D02*
X15709825Y-16726130D01*
X15709825Y-16726130D02*
X15681253Y-16726130D01*
X15681253Y-16726130D02*
X15662206Y-16716606D01*
X15662206Y-16716606D02*
X15652682Y-16697559D01*
X15652682Y-16697559D02*
X15652682Y-16688035D01*
X15652682Y-16688035D02*
X15662206Y-16668987D01*
X15662206Y-16668987D02*
X15681253Y-16659463D01*
X15681253Y-16659463D02*
X15709825Y-16659463D01*
X15709825Y-16659463D02*
X15728872Y-16668987D01*
X15805063Y-16868987D02*
X15814587Y-16859463D01*
X15814587Y-16859463D02*
X15833634Y-16830892D01*
X15833634Y-16830892D02*
X15843158Y-16811844D01*
X15843158Y-16811844D02*
X15852682Y-16783273D01*
X15852682Y-16783273D02*
X15862206Y-16735654D01*
X15862206Y-16735654D02*
X15862206Y-16697559D01*
X15862206Y-16697559D02*
X15852682Y-16649940D01*
X15852682Y-16649940D02*
X15843158Y-16621368D01*
X15843158Y-16621368D02*
X15833634Y-16602321D01*
X15833634Y-16602321D02*
X15814587Y-16573749D01*
X15814587Y-16573749D02*
X15805063Y-16564225D01*
M02*
