%TF.GenerationSoftware,KiCad,Pcbnew,9.0.7*%
%TF.CreationDate,2026-01-11T19:31:21+01:00*%
%TF.ProjectId,pcb_phone_controller,7063625f-7068-46f6-9e65-5f636f6e7472,rev?*%
%TF.SameCoordinates,Original*%
%TF.FileFunction,Drillmap*%
%TF.FilePolarity,Positive*%
%FSLAX45Y45*%
G04 Gerber Fmt 4.5, Leading zero omitted, Abs format (unit mm)*
G04 Created by KiCad (PCBNEW 9.0.7) date 2026-01-11 19:31:21*
%MOMM*%
%LPD*%
G01*
G04 APERTURE LIST*
%ADD10C,0.200000*%
G04 APERTURE END LIST*
D10*
X17622136Y-10651318D02*
X17528005Y-10664301D01*
X12475629Y-10644612D02*
X12380200Y-10631450D01*
X16500000Y-12429194D02*
X19038412Y-12429194D01*
X11831588Y-12174194D02*
G75*
G02*
X11781588Y-12224188I-49998J4D01*
G01*
X11531588Y-12224194D02*
X11781587Y-12224194D01*
X11950868Y-10087691D02*
X11505088Y-10026207D01*
X22252863Y-10275000D02*
X22252863Y-10240762D01*
X11531588Y-10629194D02*
X11457267Y-10372925D01*
X13122893Y-9510186D02*
G75*
G02*
X13035803Y-10239160I-5934493J339296D01*
G01*
X13235000Y-14050000D02*
X13235000Y-14670000D01*
X13235000Y-14670000D02*
X11040000Y-14670000D01*
X11040000Y-12920071D02*
X11040000Y-14670000D01*
X11457267Y-10372925D02*
X11505088Y-10026207D01*
X18494912Y-10026207D02*
X18049132Y-10087691D01*
X19650466Y-10371561D02*
X19684632Y-10619279D01*
X13035804Y-10239160D02*
G75*
G02*
X12475629Y-10644617I-491864J89860D01*
G01*
X11781587Y-11124194D02*
G75*
G02*
X11831586Y-11174194I3J-49996D01*
G01*
X22252863Y-14680000D02*
X22252863Y-10275000D01*
X20598810Y-10240762D02*
X22225000Y-10240762D01*
X19468412Y-13124194D02*
G75*
G02*
X19518406Y-13174194I-2J-49996D01*
G01*
X13500000Y-14050000D02*
X13500000Y-11050000D01*
X16968164Y-10260656D02*
G75*
G02*
X16877107Y-9510186I5843436J1089766D01*
G01*
X19238412Y-13124194D02*
X19238412Y-12629194D01*
X22225000Y-10240762D02*
X22252863Y-10240762D01*
X11531588Y-12428483D02*
X11040000Y-12920071D01*
X17528005Y-10664301D02*
G75*
G02*
X16968165Y-10260656I-68315J495311D01*
G01*
X11531588Y-12428483D02*
X11531588Y-12224194D01*
X11531588Y-11124194D02*
X11531588Y-10629194D01*
X19468412Y-13124194D02*
X19238412Y-13124194D01*
X13500000Y-14050000D02*
X13235000Y-14050000D01*
X11831588Y-11174194D02*
X11831588Y-12174194D01*
X19650466Y-10371561D02*
X20598810Y-10240762D01*
X16500000Y-12429194D02*
X16500000Y-11050000D01*
X12380200Y-10631450D02*
G75*
G02*
X11950862Y-10087690I68320J495320D01*
G01*
X19518412Y-14680000D02*
X22252863Y-14680000D01*
X19092715Y-10700930D02*
G75*
G02*
X18529079Y-10273936I-68325J495310D01*
G01*
X19684632Y-10619279D02*
X19092715Y-10700930D01*
X16877107Y-9510186D02*
X13122893Y-9510186D01*
X13500000Y-11050000D02*
X16500000Y-11050000D01*
X19038412Y-12429194D02*
G75*
G02*
X19238406Y-12629194I-2J-199996D01*
G01*
X11781587Y-11124194D02*
X11531588Y-11124194D01*
X19518412Y-13174194D02*
X19518412Y-14680000D01*
X18529080Y-10273936D02*
X18494912Y-10026207D01*
X18049132Y-10087691D02*
G75*
G02*
X17622137Y-10651322I-495312J-68319D01*
G01*
X20848136Y-14631313D02*
X20848136Y-13231313D01*
X20948136Y-13131313D02*
X21348136Y-13131313D01*
X21348136Y-14731313D02*
X20948136Y-14731313D01*
X21448136Y-13231313D02*
X21448136Y-14631313D01*
X20848136Y-13231313D02*
G75*
G02*
X20948136Y-13131313I100000J0D01*
G01*
X20948136Y-14731313D02*
G75*
G02*
X20848136Y-14631313I0J100000D01*
G01*
X21348136Y-13131313D02*
G75*
G02*
X21448136Y-13231313I0J-100000D01*
G01*
X21448136Y-14631313D02*
G75*
G02*
X21348136Y-14731313I-100000J0D01*
G01*
X11290777Y-15052797D02*
X11290777Y-14852797D01*
X11290777Y-14852797D02*
X11338396Y-14852797D01*
X11338396Y-14852797D02*
X11366967Y-14862321D01*
X11366967Y-14862321D02*
X11386015Y-14881368D01*
X11386015Y-14881368D02*
X11395539Y-14900416D01*
X11395539Y-14900416D02*
X11405062Y-14938511D01*
X11405062Y-14938511D02*
X11405062Y-14967082D01*
X11405062Y-14967082D02*
X11395539Y-15005178D01*
X11395539Y-15005178D02*
X11386015Y-15024225D01*
X11386015Y-15024225D02*
X11366967Y-15043273D01*
X11366967Y-15043273D02*
X11338396Y-15052797D01*
X11338396Y-15052797D02*
X11290777Y-15052797D01*
X11490777Y-15052797D02*
X11490777Y-14919463D01*
X11490777Y-14957559D02*
X11500301Y-14938511D01*
X11500301Y-14938511D02*
X11509824Y-14928987D01*
X11509824Y-14928987D02*
X11528872Y-14919463D01*
X11528872Y-14919463D02*
X11547920Y-14919463D01*
X11614586Y-15052797D02*
X11614586Y-14919463D01*
X11614586Y-14852797D02*
X11605062Y-14862321D01*
X11605062Y-14862321D02*
X11614586Y-14871844D01*
X11614586Y-14871844D02*
X11624110Y-14862321D01*
X11624110Y-14862321D02*
X11614586Y-14852797D01*
X11614586Y-14852797D02*
X11614586Y-14871844D01*
X11738396Y-15052797D02*
X11719348Y-15043273D01*
X11719348Y-15043273D02*
X11709824Y-15024225D01*
X11709824Y-15024225D02*
X11709824Y-14852797D01*
X11843158Y-15052797D02*
X11824110Y-15043273D01*
X11824110Y-15043273D02*
X11814586Y-15024225D01*
X11814586Y-15024225D02*
X11814586Y-14852797D01*
X12071729Y-15052797D02*
X12071729Y-14852797D01*
X12071729Y-14852797D02*
X12138396Y-14995654D01*
X12138396Y-14995654D02*
X12205062Y-14852797D01*
X12205062Y-14852797D02*
X12205062Y-15052797D01*
X12386015Y-15052797D02*
X12386015Y-14948035D01*
X12386015Y-14948035D02*
X12376491Y-14928987D01*
X12376491Y-14928987D02*
X12357443Y-14919463D01*
X12357443Y-14919463D02*
X12319348Y-14919463D01*
X12319348Y-14919463D02*
X12300301Y-14928987D01*
X12386015Y-15043273D02*
X12366967Y-15052797D01*
X12366967Y-15052797D02*
X12319348Y-15052797D01*
X12319348Y-15052797D02*
X12300301Y-15043273D01*
X12300301Y-15043273D02*
X12290777Y-15024225D01*
X12290777Y-15024225D02*
X12290777Y-15005178D01*
X12290777Y-15005178D02*
X12300301Y-14986130D01*
X12300301Y-14986130D02*
X12319348Y-14976606D01*
X12319348Y-14976606D02*
X12366967Y-14976606D01*
X12366967Y-14976606D02*
X12386015Y-14967082D01*
X12481253Y-14919463D02*
X12481253Y-15119463D01*
X12481253Y-14928987D02*
X12500301Y-14919463D01*
X12500301Y-14919463D02*
X12538396Y-14919463D01*
X12538396Y-14919463D02*
X12557443Y-14928987D01*
X12557443Y-14928987D02*
X12566967Y-14938511D01*
X12566967Y-14938511D02*
X12576491Y-14957559D01*
X12576491Y-14957559D02*
X12576491Y-15014701D01*
X12576491Y-15014701D02*
X12566967Y-15033749D01*
X12566967Y-15033749D02*
X12557443Y-15043273D01*
X12557443Y-15043273D02*
X12538396Y-15052797D01*
X12538396Y-15052797D02*
X12500301Y-15052797D01*
X12500301Y-15052797D02*
X12481253Y-15043273D01*
X12662205Y-15033749D02*
X12671729Y-15043273D01*
X12671729Y-15043273D02*
X12662205Y-15052797D01*
X12662205Y-15052797D02*
X12652682Y-15043273D01*
X12652682Y-15043273D02*
X12662205Y-15033749D01*
X12662205Y-15033749D02*
X12662205Y-15052797D01*
X12662205Y-14928987D02*
X12671729Y-14938511D01*
X12671729Y-14938511D02*
X12662205Y-14948035D01*
X12662205Y-14948035D02*
X12652682Y-14938511D01*
X12652682Y-14938511D02*
X12662205Y-14928987D01*
X12662205Y-14928987D02*
X12662205Y-14948035D01*
M02*
