%TF.GenerationSoftware,KiCad,Pcbnew,9.0.6*%
%TF.CreationDate,2025-12-29T15:13:59+01:00*%
%TF.ProjectId,pcb_phone_controller,7063625f-7068-46f6-9e65-5f636f6e7472,rev?*%
%TF.SameCoordinates,Original*%
%TF.FileFunction,Legend,Top*%
%TF.FilePolarity,Positive*%
%FSLAX46Y46*%
G04 Gerber Fmt 4.6, Leading zero omitted, Abs format (unit mm)*
G04 Created by KiCad (PCBNEW 9.0.6) date 2025-12-29 15:13:59*
%MOMM*%
%LPD*%
G01*
G04 APERTURE LIST*
%ADD10C,0.150000*%
%ADD11C,0.100000*%
%ADD12C,0.101600*%
%ADD13C,0.120000*%
%ADD14C,0.152400*%
%ADD15C,0.508000*%
G04 APERTURE END LIST*
D10*
X177733333Y-121159580D02*
X177685714Y-121207200D01*
X177685714Y-121207200D02*
X177542857Y-121254819D01*
X177542857Y-121254819D02*
X177447619Y-121254819D01*
X177447619Y-121254819D02*
X177304762Y-121207200D01*
X177304762Y-121207200D02*
X177209524Y-121111961D01*
X177209524Y-121111961D02*
X177161905Y-121016723D01*
X177161905Y-121016723D02*
X177114286Y-120826247D01*
X177114286Y-120826247D02*
X177114286Y-120683390D01*
X177114286Y-120683390D02*
X177161905Y-120492914D01*
X177161905Y-120492914D02*
X177209524Y-120397676D01*
X177209524Y-120397676D02*
X177304762Y-120302438D01*
X177304762Y-120302438D02*
X177447619Y-120254819D01*
X177447619Y-120254819D02*
X177542857Y-120254819D01*
X177542857Y-120254819D02*
X177685714Y-120302438D01*
X177685714Y-120302438D02*
X177733333Y-120350057D01*
X178685714Y-121254819D02*
X178114286Y-121254819D01*
X178400000Y-121254819D02*
X178400000Y-120254819D01*
X178400000Y-120254819D02*
X178304762Y-120397676D01*
X178304762Y-120397676D02*
X178209524Y-120492914D01*
X178209524Y-120492914D02*
X178114286Y-120540533D01*
X139204048Y-108212940D02*
X139385477Y-108273416D01*
X139385477Y-108273416D02*
X139687858Y-108273416D01*
X139687858Y-108273416D02*
X139808810Y-108212940D01*
X139808810Y-108212940D02*
X139869286Y-108152463D01*
X139869286Y-108152463D02*
X139929763Y-108031511D01*
X139929763Y-108031511D02*
X139929763Y-107910559D01*
X139929763Y-107910559D02*
X139869286Y-107789606D01*
X139869286Y-107789606D02*
X139808810Y-107729130D01*
X139808810Y-107729130D02*
X139687858Y-107668654D01*
X139687858Y-107668654D02*
X139445953Y-107608178D01*
X139445953Y-107608178D02*
X139325001Y-107547701D01*
X139325001Y-107547701D02*
X139264524Y-107487225D01*
X139264524Y-107487225D02*
X139204048Y-107366273D01*
X139204048Y-107366273D02*
X139204048Y-107245320D01*
X139204048Y-107245320D02*
X139264524Y-107124368D01*
X139264524Y-107124368D02*
X139325001Y-107063892D01*
X139325001Y-107063892D02*
X139445953Y-107003416D01*
X139445953Y-107003416D02*
X139748334Y-107003416D01*
X139748334Y-107003416D02*
X139929763Y-107063892D01*
X140957858Y-108212940D02*
X140836906Y-108273416D01*
X140836906Y-108273416D02*
X140595001Y-108273416D01*
X140595001Y-108273416D02*
X140474048Y-108212940D01*
X140474048Y-108212940D02*
X140413572Y-108091987D01*
X140413572Y-108091987D02*
X140413572Y-107608178D01*
X140413572Y-107608178D02*
X140474048Y-107487225D01*
X140474048Y-107487225D02*
X140595001Y-107426749D01*
X140595001Y-107426749D02*
X140836906Y-107426749D01*
X140836906Y-107426749D02*
X140957858Y-107487225D01*
X140957858Y-107487225D02*
X141018334Y-107608178D01*
X141018334Y-107608178D02*
X141018334Y-107729130D01*
X141018334Y-107729130D02*
X140413572Y-107850082D01*
X141744048Y-108273416D02*
X141623096Y-108212940D01*
X141623096Y-108212940D02*
X141562619Y-108091987D01*
X141562619Y-108091987D02*
X141562619Y-107003416D01*
X142711667Y-108212940D02*
X142590715Y-108273416D01*
X142590715Y-108273416D02*
X142348810Y-108273416D01*
X142348810Y-108273416D02*
X142227857Y-108212940D01*
X142227857Y-108212940D02*
X142167381Y-108091987D01*
X142167381Y-108091987D02*
X142167381Y-107608178D01*
X142167381Y-107608178D02*
X142227857Y-107487225D01*
X142227857Y-107487225D02*
X142348810Y-107426749D01*
X142348810Y-107426749D02*
X142590715Y-107426749D01*
X142590715Y-107426749D02*
X142711667Y-107487225D01*
X142711667Y-107487225D02*
X142772143Y-107608178D01*
X142772143Y-107608178D02*
X142772143Y-107729130D01*
X142772143Y-107729130D02*
X142167381Y-107850082D01*
X143860714Y-108212940D02*
X143739762Y-108273416D01*
X143739762Y-108273416D02*
X143497857Y-108273416D01*
X143497857Y-108273416D02*
X143376905Y-108212940D01*
X143376905Y-108212940D02*
X143316428Y-108152463D01*
X143316428Y-108152463D02*
X143255952Y-108031511D01*
X143255952Y-108031511D02*
X143255952Y-107668654D01*
X143255952Y-107668654D02*
X143316428Y-107547701D01*
X143316428Y-107547701D02*
X143376905Y-107487225D01*
X143376905Y-107487225D02*
X143497857Y-107426749D01*
X143497857Y-107426749D02*
X143739762Y-107426749D01*
X143739762Y-107426749D02*
X143860714Y-107487225D01*
X144223571Y-107426749D02*
X144707380Y-107426749D01*
X144404999Y-107003416D02*
X144404999Y-108091987D01*
X144404999Y-108091987D02*
X144465476Y-108212940D01*
X144465476Y-108212940D02*
X144586428Y-108273416D01*
X144586428Y-108273416D02*
X144707380Y-108273416D01*
X145795952Y-108273416D02*
X145070237Y-108273416D01*
X145433094Y-108273416D02*
X145433094Y-107003416D01*
X145433094Y-107003416D02*
X145312142Y-107184844D01*
X145312142Y-107184844D02*
X145191190Y-107305797D01*
X145191190Y-107305797D02*
X145070237Y-107366273D01*
X179738095Y-109004819D02*
X179738095Y-108004819D01*
X179738095Y-108481009D02*
X180309523Y-108481009D01*
X180309523Y-109004819D02*
X180309523Y-108004819D01*
X180738095Y-108100057D02*
X180785714Y-108052438D01*
X180785714Y-108052438D02*
X180880952Y-108004819D01*
X180880952Y-108004819D02*
X181119047Y-108004819D01*
X181119047Y-108004819D02*
X181214285Y-108052438D01*
X181214285Y-108052438D02*
X181261904Y-108100057D01*
X181261904Y-108100057D02*
X181309523Y-108195295D01*
X181309523Y-108195295D02*
X181309523Y-108290533D01*
X181309523Y-108290533D02*
X181261904Y-108433390D01*
X181261904Y-108433390D02*
X180690476Y-109004819D01*
X180690476Y-109004819D02*
X181309523Y-109004819D01*
X164979580Y-123033333D02*
X165027200Y-123080952D01*
X165027200Y-123080952D02*
X165074819Y-123223809D01*
X165074819Y-123223809D02*
X165074819Y-123319047D01*
X165074819Y-123319047D02*
X165027200Y-123461904D01*
X165027200Y-123461904D02*
X164931961Y-123557142D01*
X164931961Y-123557142D02*
X164836723Y-123604761D01*
X164836723Y-123604761D02*
X164646247Y-123652380D01*
X164646247Y-123652380D02*
X164503390Y-123652380D01*
X164503390Y-123652380D02*
X164312914Y-123604761D01*
X164312914Y-123604761D02*
X164217676Y-123557142D01*
X164217676Y-123557142D02*
X164122438Y-123461904D01*
X164122438Y-123461904D02*
X164074819Y-123319047D01*
X164074819Y-123319047D02*
X164074819Y-123223809D01*
X164074819Y-123223809D02*
X164122438Y-123080952D01*
X164122438Y-123080952D02*
X164170057Y-123033333D01*
X165074819Y-122461904D02*
X165027200Y-122557142D01*
X165027200Y-122557142D02*
X164931961Y-122604761D01*
X164931961Y-122604761D02*
X164074819Y-122604761D01*
X165074819Y-122080951D02*
X164408152Y-122080951D01*
X164074819Y-122080951D02*
X164122438Y-122128570D01*
X164122438Y-122128570D02*
X164170057Y-122080951D01*
X164170057Y-122080951D02*
X164122438Y-122033332D01*
X164122438Y-122033332D02*
X164074819Y-122080951D01*
X164074819Y-122080951D02*
X164170057Y-122080951D01*
X165027200Y-121176190D02*
X165074819Y-121271428D01*
X165074819Y-121271428D02*
X165074819Y-121461904D01*
X165074819Y-121461904D02*
X165027200Y-121557142D01*
X165027200Y-121557142D02*
X164979580Y-121604761D01*
X164979580Y-121604761D02*
X164884342Y-121652380D01*
X164884342Y-121652380D02*
X164598628Y-121652380D01*
X164598628Y-121652380D02*
X164503390Y-121604761D01*
X164503390Y-121604761D02*
X164455771Y-121557142D01*
X164455771Y-121557142D02*
X164408152Y-121461904D01*
X164408152Y-121461904D02*
X164408152Y-121271428D01*
X164408152Y-121271428D02*
X164455771Y-121176190D01*
X165074819Y-120747618D02*
X164074819Y-120747618D01*
X164693866Y-120652380D02*
X165074819Y-120366666D01*
X164408152Y-120366666D02*
X164789104Y-120747618D01*
X165027200Y-119985713D02*
X165074819Y-119842856D01*
X165074819Y-119842856D02*
X165074819Y-119604761D01*
X165074819Y-119604761D02*
X165027200Y-119509523D01*
X165027200Y-119509523D02*
X164979580Y-119461904D01*
X164979580Y-119461904D02*
X164884342Y-119414285D01*
X164884342Y-119414285D02*
X164789104Y-119414285D01*
X164789104Y-119414285D02*
X164693866Y-119461904D01*
X164693866Y-119461904D02*
X164646247Y-119509523D01*
X164646247Y-119509523D02*
X164598628Y-119604761D01*
X164598628Y-119604761D02*
X164551009Y-119795237D01*
X164551009Y-119795237D02*
X164503390Y-119890475D01*
X164503390Y-119890475D02*
X164455771Y-119938094D01*
X164455771Y-119938094D02*
X164360533Y-119985713D01*
X164360533Y-119985713D02*
X164265295Y-119985713D01*
X164265295Y-119985713D02*
X164170057Y-119938094D01*
X164170057Y-119938094D02*
X164122438Y-119890475D01*
X164122438Y-119890475D02*
X164074819Y-119795237D01*
X164074819Y-119795237D02*
X164074819Y-119557142D01*
X164074819Y-119557142D02*
X164122438Y-119414285D01*
X164408152Y-119128570D02*
X164408152Y-118747618D01*
X164074819Y-118985713D02*
X164931961Y-118985713D01*
X164931961Y-118985713D02*
X165027200Y-118938094D01*
X165027200Y-118938094D02*
X165074819Y-118842856D01*
X165074819Y-118842856D02*
X165074819Y-118747618D01*
X165074819Y-118414284D02*
X164408152Y-118414284D01*
X164074819Y-118414284D02*
X164122438Y-118461903D01*
X164122438Y-118461903D02*
X164170057Y-118414284D01*
X164170057Y-118414284D02*
X164122438Y-118366665D01*
X164122438Y-118366665D02*
X164074819Y-118414284D01*
X164074819Y-118414284D02*
X164170057Y-118414284D01*
X165027200Y-117509523D02*
X165074819Y-117604761D01*
X165074819Y-117604761D02*
X165074819Y-117795237D01*
X165074819Y-117795237D02*
X165027200Y-117890475D01*
X165027200Y-117890475D02*
X164979580Y-117938094D01*
X164979580Y-117938094D02*
X164884342Y-117985713D01*
X164884342Y-117985713D02*
X164598628Y-117985713D01*
X164598628Y-117985713D02*
X164503390Y-117938094D01*
X164503390Y-117938094D02*
X164455771Y-117890475D01*
X164455771Y-117890475D02*
X164408152Y-117795237D01*
X164408152Y-117795237D02*
X164408152Y-117604761D01*
X164408152Y-117604761D02*
X164455771Y-117509523D01*
X165074819Y-117080951D02*
X164074819Y-117080951D01*
X164693866Y-116985713D02*
X165074819Y-116699999D01*
X164408152Y-116699999D02*
X164789104Y-117080951D01*
X165074819Y-115699999D02*
X164598628Y-116033332D01*
X165074819Y-116271427D02*
X164074819Y-116271427D01*
X164074819Y-116271427D02*
X164074819Y-115890475D01*
X164074819Y-115890475D02*
X164122438Y-115795237D01*
X164122438Y-115795237D02*
X164170057Y-115747618D01*
X164170057Y-115747618D02*
X164265295Y-115699999D01*
X164265295Y-115699999D02*
X164408152Y-115699999D01*
X164408152Y-115699999D02*
X164503390Y-115747618D01*
X164503390Y-115747618D02*
X164551009Y-115795237D01*
X164551009Y-115795237D02*
X164598628Y-115890475D01*
X164598628Y-115890475D02*
X164598628Y-116271427D01*
X165074819Y-114747618D02*
X165074819Y-115319046D01*
X165074819Y-115033332D02*
X164074819Y-115033332D01*
X164074819Y-115033332D02*
X164217676Y-115128570D01*
X164217676Y-115128570D02*
X164312914Y-115223808D01*
X164312914Y-115223808D02*
X164360533Y-115319046D01*
X180833333Y-121304819D02*
X180500000Y-120828628D01*
X180261905Y-121304819D02*
X180261905Y-120304819D01*
X180261905Y-120304819D02*
X180642857Y-120304819D01*
X180642857Y-120304819D02*
X180738095Y-120352438D01*
X180738095Y-120352438D02*
X180785714Y-120400057D01*
X180785714Y-120400057D02*
X180833333Y-120495295D01*
X180833333Y-120495295D02*
X180833333Y-120638152D01*
X180833333Y-120638152D02*
X180785714Y-120733390D01*
X180785714Y-120733390D02*
X180738095Y-120781009D01*
X180738095Y-120781009D02*
X180642857Y-120828628D01*
X180642857Y-120828628D02*
X180261905Y-120828628D01*
X181785714Y-121304819D02*
X181214286Y-121304819D01*
X181500000Y-121304819D02*
X181500000Y-120304819D01*
X181500000Y-120304819D02*
X181404762Y-120447676D01*
X181404762Y-120447676D02*
X181309524Y-120542914D01*
X181309524Y-120542914D02*
X181214286Y-120590533D01*
X135739580Y-122938095D02*
X135787200Y-122985714D01*
X135787200Y-122985714D02*
X135834819Y-123128571D01*
X135834819Y-123128571D02*
X135834819Y-123223809D01*
X135834819Y-123223809D02*
X135787200Y-123366666D01*
X135787200Y-123366666D02*
X135691961Y-123461904D01*
X135691961Y-123461904D02*
X135596723Y-123509523D01*
X135596723Y-123509523D02*
X135406247Y-123557142D01*
X135406247Y-123557142D02*
X135263390Y-123557142D01*
X135263390Y-123557142D02*
X135072914Y-123509523D01*
X135072914Y-123509523D02*
X134977676Y-123461904D01*
X134977676Y-123461904D02*
X134882438Y-123366666D01*
X134882438Y-123366666D02*
X134834819Y-123223809D01*
X134834819Y-123223809D02*
X134834819Y-123128571D01*
X134834819Y-123128571D02*
X134882438Y-122985714D01*
X134882438Y-122985714D02*
X134930057Y-122938095D01*
X135834819Y-122366666D02*
X135787200Y-122461904D01*
X135787200Y-122461904D02*
X135691961Y-122509523D01*
X135691961Y-122509523D02*
X134834819Y-122509523D01*
X135834819Y-121985713D02*
X135168152Y-121985713D01*
X134834819Y-121985713D02*
X134882438Y-122033332D01*
X134882438Y-122033332D02*
X134930057Y-121985713D01*
X134930057Y-121985713D02*
X134882438Y-121938094D01*
X134882438Y-121938094D02*
X134834819Y-121985713D01*
X134834819Y-121985713D02*
X134930057Y-121985713D01*
X135787200Y-121080952D02*
X135834819Y-121176190D01*
X135834819Y-121176190D02*
X135834819Y-121366666D01*
X135834819Y-121366666D02*
X135787200Y-121461904D01*
X135787200Y-121461904D02*
X135739580Y-121509523D01*
X135739580Y-121509523D02*
X135644342Y-121557142D01*
X135644342Y-121557142D02*
X135358628Y-121557142D01*
X135358628Y-121557142D02*
X135263390Y-121509523D01*
X135263390Y-121509523D02*
X135215771Y-121461904D01*
X135215771Y-121461904D02*
X135168152Y-121366666D01*
X135168152Y-121366666D02*
X135168152Y-121176190D01*
X135168152Y-121176190D02*
X135215771Y-121080952D01*
X135834819Y-120652380D02*
X134834819Y-120652380D01*
X135453866Y-120557142D02*
X135834819Y-120271428D01*
X135168152Y-120271428D02*
X135549104Y-120652380D01*
X135787200Y-119890475D02*
X135834819Y-119747618D01*
X135834819Y-119747618D02*
X135834819Y-119509523D01*
X135834819Y-119509523D02*
X135787200Y-119414285D01*
X135787200Y-119414285D02*
X135739580Y-119366666D01*
X135739580Y-119366666D02*
X135644342Y-119319047D01*
X135644342Y-119319047D02*
X135549104Y-119319047D01*
X135549104Y-119319047D02*
X135453866Y-119366666D01*
X135453866Y-119366666D02*
X135406247Y-119414285D01*
X135406247Y-119414285D02*
X135358628Y-119509523D01*
X135358628Y-119509523D02*
X135311009Y-119699999D01*
X135311009Y-119699999D02*
X135263390Y-119795237D01*
X135263390Y-119795237D02*
X135215771Y-119842856D01*
X135215771Y-119842856D02*
X135120533Y-119890475D01*
X135120533Y-119890475D02*
X135025295Y-119890475D01*
X135025295Y-119890475D02*
X134930057Y-119842856D01*
X134930057Y-119842856D02*
X134882438Y-119795237D01*
X134882438Y-119795237D02*
X134834819Y-119699999D01*
X134834819Y-119699999D02*
X134834819Y-119461904D01*
X134834819Y-119461904D02*
X134882438Y-119319047D01*
X135168152Y-119033332D02*
X135168152Y-118652380D01*
X134834819Y-118890475D02*
X135691961Y-118890475D01*
X135691961Y-118890475D02*
X135787200Y-118842856D01*
X135787200Y-118842856D02*
X135834819Y-118747618D01*
X135834819Y-118747618D02*
X135834819Y-118652380D01*
X135834819Y-118319046D02*
X135168152Y-118319046D01*
X134834819Y-118319046D02*
X134882438Y-118366665D01*
X134882438Y-118366665D02*
X134930057Y-118319046D01*
X134930057Y-118319046D02*
X134882438Y-118271427D01*
X134882438Y-118271427D02*
X134834819Y-118319046D01*
X134834819Y-118319046D02*
X134930057Y-118319046D01*
X135787200Y-117414285D02*
X135834819Y-117509523D01*
X135834819Y-117509523D02*
X135834819Y-117699999D01*
X135834819Y-117699999D02*
X135787200Y-117795237D01*
X135787200Y-117795237D02*
X135739580Y-117842856D01*
X135739580Y-117842856D02*
X135644342Y-117890475D01*
X135644342Y-117890475D02*
X135358628Y-117890475D01*
X135358628Y-117890475D02*
X135263390Y-117842856D01*
X135263390Y-117842856D02*
X135215771Y-117795237D01*
X135215771Y-117795237D02*
X135168152Y-117699999D01*
X135168152Y-117699999D02*
X135168152Y-117509523D01*
X135168152Y-117509523D02*
X135215771Y-117414285D01*
X135834819Y-116985713D02*
X134834819Y-116985713D01*
X135453866Y-116890475D02*
X135834819Y-116604761D01*
X135168152Y-116604761D02*
X135549104Y-116985713D01*
X135834819Y-115699999D02*
X135834819Y-116176189D01*
X135834819Y-116176189D02*
X134834819Y-116176189D01*
X135834819Y-114842856D02*
X135834819Y-115414284D01*
X135834819Y-115128570D02*
X134834819Y-115128570D01*
X134834819Y-115128570D02*
X134977676Y-115223808D01*
X134977676Y-115223808D02*
X135072914Y-115319046D01*
X135072914Y-115319046D02*
X135120533Y-115414284D01*
X154839047Y-108212940D02*
X155020476Y-108273416D01*
X155020476Y-108273416D02*
X155322857Y-108273416D01*
X155322857Y-108273416D02*
X155443809Y-108212940D01*
X155443809Y-108212940D02*
X155504285Y-108152463D01*
X155504285Y-108152463D02*
X155564762Y-108031511D01*
X155564762Y-108031511D02*
X155564762Y-107910559D01*
X155564762Y-107910559D02*
X155504285Y-107789606D01*
X155504285Y-107789606D02*
X155443809Y-107729130D01*
X155443809Y-107729130D02*
X155322857Y-107668654D01*
X155322857Y-107668654D02*
X155080952Y-107608178D01*
X155080952Y-107608178D02*
X154960000Y-107547701D01*
X154960000Y-107547701D02*
X154899523Y-107487225D01*
X154899523Y-107487225D02*
X154839047Y-107366273D01*
X154839047Y-107366273D02*
X154839047Y-107245320D01*
X154839047Y-107245320D02*
X154899523Y-107124368D01*
X154899523Y-107124368D02*
X154960000Y-107063892D01*
X154960000Y-107063892D02*
X155080952Y-107003416D01*
X155080952Y-107003416D02*
X155383333Y-107003416D01*
X155383333Y-107003416D02*
X155564762Y-107063892D01*
X155927619Y-107426749D02*
X156411428Y-107426749D01*
X156109047Y-107003416D02*
X156109047Y-108091987D01*
X156109047Y-108091987D02*
X156169524Y-108212940D01*
X156169524Y-108212940D02*
X156290476Y-108273416D01*
X156290476Y-108273416D02*
X156411428Y-108273416D01*
X157379047Y-108273416D02*
X157379047Y-107608178D01*
X157379047Y-107608178D02*
X157318571Y-107487225D01*
X157318571Y-107487225D02*
X157197619Y-107426749D01*
X157197619Y-107426749D02*
X156955714Y-107426749D01*
X156955714Y-107426749D02*
X156834761Y-107487225D01*
X157379047Y-108212940D02*
X157258095Y-108273416D01*
X157258095Y-108273416D02*
X156955714Y-108273416D01*
X156955714Y-108273416D02*
X156834761Y-108212940D01*
X156834761Y-108212940D02*
X156774285Y-108091987D01*
X156774285Y-108091987D02*
X156774285Y-107971035D01*
X156774285Y-107971035D02*
X156834761Y-107850082D01*
X156834761Y-107850082D02*
X156955714Y-107789606D01*
X156955714Y-107789606D02*
X157258095Y-107789606D01*
X157258095Y-107789606D02*
X157379047Y-107729130D01*
X157983809Y-108273416D02*
X157983809Y-107426749D01*
X157983809Y-107668654D02*
X158044286Y-107547701D01*
X158044286Y-107547701D02*
X158104762Y-107487225D01*
X158104762Y-107487225D02*
X158225714Y-107426749D01*
X158225714Y-107426749D02*
X158346667Y-107426749D01*
X158588571Y-107426749D02*
X159072380Y-107426749D01*
X158769999Y-107003416D02*
X158769999Y-108091987D01*
X158769999Y-108091987D02*
X158830476Y-108212940D01*
X158830476Y-108212940D02*
X158951428Y-108273416D01*
X158951428Y-108273416D02*
X159072380Y-108273416D01*
X160160952Y-108273416D02*
X159435237Y-108273416D01*
X159798094Y-108273416D02*
X159798094Y-107003416D01*
X159798094Y-107003416D02*
X159677142Y-107184844D01*
X159677142Y-107184844D02*
X159556190Y-107305797D01*
X159556190Y-107305797D02*
X159435237Y-107366273D01*
X217940476Y-117307200D02*
X218083333Y-117354819D01*
X218083333Y-117354819D02*
X218321428Y-117354819D01*
X218321428Y-117354819D02*
X218416666Y-117307200D01*
X218416666Y-117307200D02*
X218464285Y-117259580D01*
X218464285Y-117259580D02*
X218511904Y-117164342D01*
X218511904Y-117164342D02*
X218511904Y-117069104D01*
X218511904Y-117069104D02*
X218464285Y-116973866D01*
X218464285Y-116973866D02*
X218416666Y-116926247D01*
X218416666Y-116926247D02*
X218321428Y-116878628D01*
X218321428Y-116878628D02*
X218130952Y-116831009D01*
X218130952Y-116831009D02*
X218035714Y-116783390D01*
X218035714Y-116783390D02*
X217988095Y-116735771D01*
X217988095Y-116735771D02*
X217940476Y-116640533D01*
X217940476Y-116640533D02*
X217940476Y-116545295D01*
X217940476Y-116545295D02*
X217988095Y-116450057D01*
X217988095Y-116450057D02*
X218035714Y-116402438D01*
X218035714Y-116402438D02*
X218130952Y-116354819D01*
X218130952Y-116354819D02*
X218369047Y-116354819D01*
X218369047Y-116354819D02*
X218511904Y-116402438D01*
X218845238Y-116354819D02*
X219083333Y-117354819D01*
X219083333Y-117354819D02*
X219273809Y-116640533D01*
X219273809Y-116640533D02*
X219464285Y-117354819D01*
X219464285Y-117354819D02*
X219702381Y-116354819D01*
X220607142Y-117354819D02*
X220035714Y-117354819D01*
X220321428Y-117354819D02*
X220321428Y-116354819D01*
X220321428Y-116354819D02*
X220226190Y-116497676D01*
X220226190Y-116497676D02*
X220130952Y-116592914D01*
X220130952Y-116592914D02*
X220035714Y-116640533D01*
X220940476Y-116354819D02*
X221607142Y-116354819D01*
X221607142Y-116354819D02*
X221178571Y-117354819D01*
X133261905Y-101154819D02*
X133261905Y-100154819D01*
X133261905Y-100154819D02*
X133500000Y-100154819D01*
X133500000Y-100154819D02*
X133642857Y-100202438D01*
X133642857Y-100202438D02*
X133738095Y-100297676D01*
X133738095Y-100297676D02*
X133785714Y-100392914D01*
X133785714Y-100392914D02*
X133833333Y-100583390D01*
X133833333Y-100583390D02*
X133833333Y-100726247D01*
X133833333Y-100726247D02*
X133785714Y-100916723D01*
X133785714Y-100916723D02*
X133738095Y-101011961D01*
X133738095Y-101011961D02*
X133642857Y-101107200D01*
X133642857Y-101107200D02*
X133500000Y-101154819D01*
X133500000Y-101154819D02*
X133261905Y-101154819D01*
X134166667Y-100154819D02*
X134785714Y-100154819D01*
X134785714Y-100154819D02*
X134452381Y-100535771D01*
X134452381Y-100535771D02*
X134595238Y-100535771D01*
X134595238Y-100535771D02*
X134690476Y-100583390D01*
X134690476Y-100583390D02*
X134738095Y-100631009D01*
X134738095Y-100631009D02*
X134785714Y-100726247D01*
X134785714Y-100726247D02*
X134785714Y-100964342D01*
X134785714Y-100964342D02*
X134738095Y-101059580D01*
X134738095Y-101059580D02*
X134690476Y-101107200D01*
X134690476Y-101107200D02*
X134595238Y-101154819D01*
X134595238Y-101154819D02*
X134309524Y-101154819D01*
X134309524Y-101154819D02*
X134214286Y-101107200D01*
X134214286Y-101107200D02*
X134166667Y-101059580D01*
X127824405Y-146304819D02*
X127824405Y-145304819D01*
X127824405Y-145304819D02*
X128062500Y-145304819D01*
X128062500Y-145304819D02*
X128205357Y-145352438D01*
X128205357Y-145352438D02*
X128300595Y-145447676D01*
X128300595Y-145447676D02*
X128348214Y-145542914D01*
X128348214Y-145542914D02*
X128395833Y-145733390D01*
X128395833Y-145733390D02*
X128395833Y-145876247D01*
X128395833Y-145876247D02*
X128348214Y-146066723D01*
X128348214Y-146066723D02*
X128300595Y-146161961D01*
X128300595Y-146161961D02*
X128205357Y-146257200D01*
X128205357Y-146257200D02*
X128062500Y-146304819D01*
X128062500Y-146304819D02*
X127824405Y-146304819D01*
X128729167Y-145304819D02*
X129395833Y-145304819D01*
X129395833Y-145304819D02*
X128967262Y-146304819D01*
X109988095Y-141254819D02*
X109988095Y-140254819D01*
X109988095Y-140731009D02*
X110559523Y-140731009D01*
X110559523Y-141254819D02*
X110559523Y-140254819D01*
X111511904Y-140254819D02*
X111035714Y-140254819D01*
X111035714Y-140254819D02*
X110988095Y-140731009D01*
X110988095Y-140731009D02*
X111035714Y-140683390D01*
X111035714Y-140683390D02*
X111130952Y-140635771D01*
X111130952Y-140635771D02*
X111369047Y-140635771D01*
X111369047Y-140635771D02*
X111464285Y-140683390D01*
X111464285Y-140683390D02*
X111511904Y-140731009D01*
X111511904Y-140731009D02*
X111559523Y-140826247D01*
X111559523Y-140826247D02*
X111559523Y-141064342D01*
X111559523Y-141064342D02*
X111511904Y-141159580D01*
X111511904Y-141159580D02*
X111464285Y-141207200D01*
X111464285Y-141207200D02*
X111369047Y-141254819D01*
X111369047Y-141254819D02*
X111130952Y-141254819D01*
X111130952Y-141254819D02*
X111035714Y-141207200D01*
X111035714Y-141207200D02*
X110988095Y-141159580D01*
X212261905Y-120054819D02*
X212261905Y-119054819D01*
X212261905Y-119054819D02*
X212500000Y-119054819D01*
X212500000Y-119054819D02*
X212642857Y-119102438D01*
X212642857Y-119102438D02*
X212738095Y-119197676D01*
X212738095Y-119197676D02*
X212785714Y-119292914D01*
X212785714Y-119292914D02*
X212833333Y-119483390D01*
X212833333Y-119483390D02*
X212833333Y-119626247D01*
X212833333Y-119626247D02*
X212785714Y-119816723D01*
X212785714Y-119816723D02*
X212738095Y-119911961D01*
X212738095Y-119911961D02*
X212642857Y-120007200D01*
X212642857Y-120007200D02*
X212500000Y-120054819D01*
X212500000Y-120054819D02*
X212261905Y-120054819D01*
X213738095Y-119054819D02*
X213261905Y-119054819D01*
X213261905Y-119054819D02*
X213214286Y-119531009D01*
X213214286Y-119531009D02*
X213261905Y-119483390D01*
X213261905Y-119483390D02*
X213357143Y-119435771D01*
X213357143Y-119435771D02*
X213595238Y-119435771D01*
X213595238Y-119435771D02*
X213690476Y-119483390D01*
X213690476Y-119483390D02*
X213738095Y-119531009D01*
X213738095Y-119531009D02*
X213785714Y-119626247D01*
X213785714Y-119626247D02*
X213785714Y-119864342D01*
X213785714Y-119864342D02*
X213738095Y-119959580D01*
X213738095Y-119959580D02*
X213690476Y-120007200D01*
X213690476Y-120007200D02*
X213595238Y-120054819D01*
X213595238Y-120054819D02*
X213357143Y-120054819D01*
X213357143Y-120054819D02*
X213261905Y-120007200D01*
X213261905Y-120007200D02*
X213214286Y-119959580D01*
X118657200Y-119253809D02*
X118704819Y-119110952D01*
X118704819Y-119110952D02*
X118704819Y-118872857D01*
X118704819Y-118872857D02*
X118657200Y-118777619D01*
X118657200Y-118777619D02*
X118609580Y-118730000D01*
X118609580Y-118730000D02*
X118514342Y-118682381D01*
X118514342Y-118682381D02*
X118419104Y-118682381D01*
X118419104Y-118682381D02*
X118323866Y-118730000D01*
X118323866Y-118730000D02*
X118276247Y-118777619D01*
X118276247Y-118777619D02*
X118228628Y-118872857D01*
X118228628Y-118872857D02*
X118181009Y-119063333D01*
X118181009Y-119063333D02*
X118133390Y-119158571D01*
X118133390Y-119158571D02*
X118085771Y-119206190D01*
X118085771Y-119206190D02*
X117990533Y-119253809D01*
X117990533Y-119253809D02*
X117895295Y-119253809D01*
X117895295Y-119253809D02*
X117800057Y-119206190D01*
X117800057Y-119206190D02*
X117752438Y-119158571D01*
X117752438Y-119158571D02*
X117704819Y-119063333D01*
X117704819Y-119063333D02*
X117704819Y-118825238D01*
X117704819Y-118825238D02*
X117752438Y-118682381D01*
X118038152Y-118396666D02*
X118038152Y-118015714D01*
X117704819Y-118253809D02*
X118561961Y-118253809D01*
X118561961Y-118253809D02*
X118657200Y-118206190D01*
X118657200Y-118206190D02*
X118704819Y-118110952D01*
X118704819Y-118110952D02*
X118704819Y-118015714D01*
X118704819Y-117682380D02*
X118038152Y-117682380D01*
X117704819Y-117682380D02*
X117752438Y-117729999D01*
X117752438Y-117729999D02*
X117800057Y-117682380D01*
X117800057Y-117682380D02*
X117752438Y-117634761D01*
X117752438Y-117634761D02*
X117704819Y-117682380D01*
X117704819Y-117682380D02*
X117800057Y-117682380D01*
X118657200Y-116777619D02*
X118704819Y-116872857D01*
X118704819Y-116872857D02*
X118704819Y-117063333D01*
X118704819Y-117063333D02*
X118657200Y-117158571D01*
X118657200Y-117158571D02*
X118609580Y-117206190D01*
X118609580Y-117206190D02*
X118514342Y-117253809D01*
X118514342Y-117253809D02*
X118228628Y-117253809D01*
X118228628Y-117253809D02*
X118133390Y-117206190D01*
X118133390Y-117206190D02*
X118085771Y-117158571D01*
X118085771Y-117158571D02*
X118038152Y-117063333D01*
X118038152Y-117063333D02*
X118038152Y-116872857D01*
X118038152Y-116872857D02*
X118085771Y-116777619D01*
X118704819Y-116349047D02*
X117704819Y-116349047D01*
X118323866Y-116253809D02*
X118704819Y-115968095D01*
X118038152Y-115968095D02*
X118419104Y-116349047D01*
X118704819Y-115063333D02*
X118704819Y-115539523D01*
X118704819Y-115539523D02*
X117704819Y-115539523D01*
X118704819Y-114206190D02*
X118704819Y-114777618D01*
X118704819Y-114491904D02*
X117704819Y-114491904D01*
X117704819Y-114491904D02*
X117847676Y-114587142D01*
X117847676Y-114587142D02*
X117942914Y-114682380D01*
X117942914Y-114682380D02*
X117990533Y-114777618D01*
D11*
X114375234Y-97449059D02*
X114941304Y-97527134D01*
X114521637Y-98478718D02*
X114658269Y-97488097D01*
X115134879Y-98563300D02*
X115225967Y-97902886D01*
X115199942Y-98091575D02*
X115260127Y-98003737D01*
X115260127Y-98003737D02*
X115313806Y-97963071D01*
X115313806Y-97963071D02*
X115414657Y-97928911D01*
X115414657Y-97928911D02*
X115509002Y-97941923D01*
X115748122Y-98647882D02*
X115839210Y-97987467D01*
X115884754Y-97657260D02*
X115831075Y-97697926D01*
X115831075Y-97697926D02*
X115871741Y-97751605D01*
X115871741Y-97751605D02*
X115925420Y-97710939D01*
X115925420Y-97710939D02*
X115884754Y-97657260D01*
X115884754Y-97657260D02*
X115871741Y-97751605D01*
X116735486Y-98111087D02*
X116624879Y-98913019D01*
X116624879Y-98913019D02*
X116564694Y-99000857D01*
X116564694Y-99000857D02*
X116511016Y-99041524D01*
X116511016Y-99041524D02*
X116410164Y-99075683D01*
X116410164Y-99075683D02*
X116268647Y-99056165D01*
X116268647Y-99056165D02*
X116180808Y-98995980D01*
X116650905Y-98724329D02*
X116550053Y-98758489D01*
X116550053Y-98758489D02*
X116361364Y-98732464D01*
X116361364Y-98732464D02*
X116273525Y-98672279D01*
X116273525Y-98672279D02*
X116232859Y-98618600D01*
X116232859Y-98618600D02*
X116198699Y-98517749D01*
X116198699Y-98517749D02*
X116237736Y-98234714D01*
X116237736Y-98234714D02*
X116297922Y-98146875D01*
X116297922Y-98146875D02*
X116351600Y-98106209D01*
X116351600Y-98106209D02*
X116452452Y-98072049D01*
X116452452Y-98072049D02*
X116641141Y-98098074D01*
X116641141Y-98098074D02*
X116728980Y-98158259D01*
X117631763Y-98234706D02*
X117521157Y-99036638D01*
X117521157Y-99036638D02*
X117460971Y-99124477D01*
X117460971Y-99124477D02*
X117407293Y-99165143D01*
X117407293Y-99165143D02*
X117306442Y-99199303D01*
X117306442Y-99199303D02*
X117164924Y-99179784D01*
X117164924Y-99179784D02*
X117077085Y-99119599D01*
X117547182Y-98847948D02*
X117446330Y-98882108D01*
X117446330Y-98882108D02*
X117257641Y-98856083D01*
X117257641Y-98856083D02*
X117169802Y-98795898D01*
X117169802Y-98795898D02*
X117129136Y-98742219D01*
X117129136Y-98742219D02*
X117094976Y-98641368D01*
X117094976Y-98641368D02*
X117134014Y-98358333D01*
X117134014Y-98358333D02*
X117194199Y-98270494D01*
X117194199Y-98270494D02*
X117247877Y-98229828D01*
X117247877Y-98229828D02*
X117348729Y-98195668D01*
X117348729Y-98195668D02*
X117537418Y-98221694D01*
X117537418Y-98221694D02*
X117625257Y-98281879D01*
X118396286Y-98965061D02*
X118295435Y-98999221D01*
X118295435Y-98999221D02*
X118106745Y-98973196D01*
X118106745Y-98973196D02*
X118018906Y-98913011D01*
X118018906Y-98913011D02*
X117984747Y-98812160D01*
X117984747Y-98812160D02*
X118036797Y-98434780D01*
X118036797Y-98434780D02*
X118096982Y-98346941D01*
X118096982Y-98346941D02*
X118197833Y-98312782D01*
X118197833Y-98312782D02*
X118386523Y-98338807D01*
X118386523Y-98338807D02*
X118474362Y-98398992D01*
X118474362Y-98398992D02*
X118508522Y-98499843D01*
X118508522Y-98499843D02*
X118495509Y-98594188D01*
X118495509Y-98594188D02*
X118010772Y-98623470D01*
X118861505Y-99077297D02*
X118952593Y-98416882D01*
X118926568Y-98605572D02*
X118986753Y-98517733D01*
X118986753Y-98517733D02*
X119040431Y-98477067D01*
X119040431Y-98477067D02*
X119141283Y-98442907D01*
X119141283Y-98442907D02*
X119235628Y-98455920D01*
X119946472Y-99226941D02*
X119474747Y-99161878D01*
X119474747Y-99161878D02*
X119611379Y-98171257D01*
X120795577Y-99344054D02*
X120229507Y-99265979D01*
X120512542Y-99305017D02*
X120649174Y-98314395D01*
X120649174Y-98314395D02*
X120535310Y-98442900D01*
X120535310Y-98442900D02*
X120427952Y-98524232D01*
X120427952Y-98524232D02*
X120327101Y-98558392D01*
D10*
X164551009Y-115214285D02*
X164598628Y-115071428D01*
X164598628Y-115071428D02*
X164646247Y-115023809D01*
X164646247Y-115023809D02*
X164741485Y-114976190D01*
X164741485Y-114976190D02*
X164884342Y-114976190D01*
X164884342Y-114976190D02*
X164979580Y-115023809D01*
X164979580Y-115023809D02*
X165027200Y-115071428D01*
X165027200Y-115071428D02*
X165074819Y-115166666D01*
X165074819Y-115166666D02*
X165074819Y-115547618D01*
X165074819Y-115547618D02*
X164074819Y-115547618D01*
X164074819Y-115547618D02*
X164074819Y-115214285D01*
X164074819Y-115214285D02*
X164122438Y-115119047D01*
X164122438Y-115119047D02*
X164170057Y-115071428D01*
X164170057Y-115071428D02*
X164265295Y-115023809D01*
X164265295Y-115023809D02*
X164360533Y-115023809D01*
X164360533Y-115023809D02*
X164455771Y-115071428D01*
X164455771Y-115071428D02*
X164503390Y-115119047D01*
X164503390Y-115119047D02*
X164551009Y-115214285D01*
X164551009Y-115214285D02*
X164551009Y-115547618D01*
X164408152Y-114119047D02*
X165074819Y-114119047D01*
X164408152Y-114547618D02*
X164931961Y-114547618D01*
X164931961Y-114547618D02*
X165027200Y-114499999D01*
X165027200Y-114499999D02*
X165074819Y-114404761D01*
X165074819Y-114404761D02*
X165074819Y-114261904D01*
X165074819Y-114261904D02*
X165027200Y-114166666D01*
X165027200Y-114166666D02*
X164979580Y-114119047D01*
X165074819Y-113642856D02*
X164408152Y-113642856D01*
X164503390Y-113642856D02*
X164455771Y-113595237D01*
X164455771Y-113595237D02*
X164408152Y-113499999D01*
X164408152Y-113499999D02*
X164408152Y-113357142D01*
X164408152Y-113357142D02*
X164455771Y-113261904D01*
X164455771Y-113261904D02*
X164551009Y-113214285D01*
X164551009Y-113214285D02*
X165074819Y-113214285D01*
X164551009Y-113214285D02*
X164455771Y-113166666D01*
X164455771Y-113166666D02*
X164408152Y-113071428D01*
X164408152Y-113071428D02*
X164408152Y-112928571D01*
X164408152Y-112928571D02*
X164455771Y-112833332D01*
X164455771Y-112833332D02*
X164551009Y-112785713D01*
X164551009Y-112785713D02*
X165074819Y-112785713D01*
X164408152Y-112309523D02*
X165408152Y-112309523D01*
X164455771Y-112309523D02*
X164408152Y-112214285D01*
X164408152Y-112214285D02*
X164408152Y-112023809D01*
X164408152Y-112023809D02*
X164455771Y-111928571D01*
X164455771Y-111928571D02*
X164503390Y-111880952D01*
X164503390Y-111880952D02*
X164598628Y-111833333D01*
X164598628Y-111833333D02*
X164884342Y-111833333D01*
X164884342Y-111833333D02*
X164979580Y-111880952D01*
X164979580Y-111880952D02*
X165027200Y-111928571D01*
X165027200Y-111928571D02*
X165074819Y-112023809D01*
X165074819Y-112023809D02*
X165074819Y-112214285D01*
X165074819Y-112214285D02*
X165027200Y-112309523D01*
X165027200Y-111023809D02*
X165074819Y-111119047D01*
X165074819Y-111119047D02*
X165074819Y-111309523D01*
X165074819Y-111309523D02*
X165027200Y-111404761D01*
X165027200Y-111404761D02*
X164931961Y-111452380D01*
X164931961Y-111452380D02*
X164551009Y-111452380D01*
X164551009Y-111452380D02*
X164455771Y-111404761D01*
X164455771Y-111404761D02*
X164408152Y-111309523D01*
X164408152Y-111309523D02*
X164408152Y-111119047D01*
X164408152Y-111119047D02*
X164455771Y-111023809D01*
X164455771Y-111023809D02*
X164551009Y-110976190D01*
X164551009Y-110976190D02*
X164646247Y-110976190D01*
X164646247Y-110976190D02*
X164741485Y-111452380D01*
X165074819Y-110547618D02*
X164408152Y-110547618D01*
X164598628Y-110547618D02*
X164503390Y-110499999D01*
X164503390Y-110499999D02*
X164455771Y-110452380D01*
X164455771Y-110452380D02*
X164408152Y-110357142D01*
X164408152Y-110357142D02*
X164408152Y-110261904D01*
X165074819Y-109357142D02*
X164598628Y-109690475D01*
X165074819Y-109928570D02*
X164074819Y-109928570D01*
X164074819Y-109928570D02*
X164074819Y-109547618D01*
X164074819Y-109547618D02*
X164122438Y-109452380D01*
X164122438Y-109452380D02*
X164170057Y-109404761D01*
X164170057Y-109404761D02*
X164265295Y-109357142D01*
X164265295Y-109357142D02*
X164408152Y-109357142D01*
X164408152Y-109357142D02*
X164503390Y-109404761D01*
X164503390Y-109404761D02*
X164551009Y-109452380D01*
X164551009Y-109452380D02*
X164598628Y-109547618D01*
X164598628Y-109547618D02*
X164598628Y-109928570D01*
X165074819Y-108404761D02*
X165074819Y-108976189D01*
X165074819Y-108690475D02*
X164074819Y-108690475D01*
X164074819Y-108690475D02*
X164217676Y-108785713D01*
X164217676Y-108785713D02*
X164312914Y-108880951D01*
X164312914Y-108880951D02*
X164360533Y-108976189D01*
X196520076Y-127141707D02*
X196701504Y-127202183D01*
X196701504Y-127202183D02*
X196761981Y-127262659D01*
X196761981Y-127262659D02*
X196822457Y-127383611D01*
X196822457Y-127383611D02*
X196822457Y-127565040D01*
X196822457Y-127565040D02*
X196761981Y-127685992D01*
X196761981Y-127685992D02*
X196701504Y-127746469D01*
X196701504Y-127746469D02*
X196580552Y-127806945D01*
X196580552Y-127806945D02*
X196096742Y-127806945D01*
X196096742Y-127806945D02*
X196096742Y-126536945D01*
X196096742Y-126536945D02*
X196520076Y-126536945D01*
X196520076Y-126536945D02*
X196641028Y-126597421D01*
X196641028Y-126597421D02*
X196701504Y-126657897D01*
X196701504Y-126657897D02*
X196761981Y-126778849D01*
X196761981Y-126778849D02*
X196761981Y-126899802D01*
X196761981Y-126899802D02*
X196701504Y-127020754D01*
X196701504Y-127020754D02*
X196641028Y-127081230D01*
X196641028Y-127081230D02*
X196520076Y-127141707D01*
X196520076Y-127141707D02*
X196096742Y-127141707D01*
X198031981Y-127806945D02*
X197306266Y-127806945D01*
X197669123Y-127806945D02*
X197669123Y-126536945D01*
X197669123Y-126536945D02*
X197548171Y-126718373D01*
X197548171Y-126718373D02*
X197427219Y-126839326D01*
X197427219Y-126839326D02*
X197306266Y-126899802D01*
X147066904Y-99773417D02*
X147066904Y-98503417D01*
X147066904Y-99108179D02*
X147792619Y-99108179D01*
X147792619Y-99773417D02*
X147792619Y-98503417D01*
X148578809Y-99773417D02*
X148457857Y-99712941D01*
X148457857Y-99712941D02*
X148397380Y-99652464D01*
X148397380Y-99652464D02*
X148336904Y-99531512D01*
X148336904Y-99531512D02*
X148336904Y-99168655D01*
X148336904Y-99168655D02*
X148397380Y-99047702D01*
X148397380Y-99047702D02*
X148457857Y-98987226D01*
X148457857Y-98987226D02*
X148578809Y-98926750D01*
X148578809Y-98926750D02*
X148760238Y-98926750D01*
X148760238Y-98926750D02*
X148881190Y-98987226D01*
X148881190Y-98987226D02*
X148941666Y-99047702D01*
X148941666Y-99047702D02*
X149002142Y-99168655D01*
X149002142Y-99168655D02*
X149002142Y-99531512D01*
X149002142Y-99531512D02*
X148941666Y-99652464D01*
X148941666Y-99652464D02*
X148881190Y-99712941D01*
X148881190Y-99712941D02*
X148760238Y-99773417D01*
X148760238Y-99773417D02*
X148578809Y-99773417D01*
X149546428Y-99773417D02*
X149546428Y-98926750D01*
X149546428Y-99047702D02*
X149606905Y-98987226D01*
X149606905Y-98987226D02*
X149727857Y-98926750D01*
X149727857Y-98926750D02*
X149909286Y-98926750D01*
X149909286Y-98926750D02*
X150030238Y-98987226D01*
X150030238Y-98987226D02*
X150090714Y-99108179D01*
X150090714Y-99108179D02*
X150090714Y-99773417D01*
X150090714Y-99108179D02*
X150151190Y-98987226D01*
X150151190Y-98987226D02*
X150272143Y-98926750D01*
X150272143Y-98926750D02*
X150453571Y-98926750D01*
X150453571Y-98926750D02*
X150574524Y-98987226D01*
X150574524Y-98987226D02*
X150635000Y-99108179D01*
X150635000Y-99108179D02*
X150635000Y-99773417D01*
X151723571Y-99712941D02*
X151602619Y-99773417D01*
X151602619Y-99773417D02*
X151360714Y-99773417D01*
X151360714Y-99773417D02*
X151239761Y-99712941D01*
X151239761Y-99712941D02*
X151179285Y-99591988D01*
X151179285Y-99591988D02*
X151179285Y-99108179D01*
X151179285Y-99108179D02*
X151239761Y-98987226D01*
X151239761Y-98987226D02*
X151360714Y-98926750D01*
X151360714Y-98926750D02*
X151602619Y-98926750D01*
X151602619Y-98926750D02*
X151723571Y-98987226D01*
X151723571Y-98987226D02*
X151784047Y-99108179D01*
X151784047Y-99108179D02*
X151784047Y-99229131D01*
X151784047Y-99229131D02*
X151179285Y-99350083D01*
X152993571Y-99773417D02*
X152267856Y-99773417D01*
X152630713Y-99773417D02*
X152630713Y-98503417D01*
X152630713Y-98503417D02*
X152509761Y-98684845D01*
X152509761Y-98684845D02*
X152388809Y-98805798D01*
X152388809Y-98805798D02*
X152267856Y-98866274D01*
X163988095Y-95504819D02*
X163988095Y-94504819D01*
X163988095Y-94981009D02*
X164559523Y-94981009D01*
X164559523Y-95504819D02*
X164559523Y-94504819D01*
X165559523Y-95504819D02*
X164988095Y-95504819D01*
X165273809Y-95504819D02*
X165273809Y-94504819D01*
X165273809Y-94504819D02*
X165178571Y-94647676D01*
X165178571Y-94647676D02*
X165083333Y-94742914D01*
X165083333Y-94742914D02*
X164988095Y-94790533D01*
X116972304Y-147321664D02*
X116972304Y-146051664D01*
X116972304Y-146051664D02*
X117274685Y-146051664D01*
X117274685Y-146051664D02*
X117456114Y-146112140D01*
X117456114Y-146112140D02*
X117577066Y-146233092D01*
X117577066Y-146233092D02*
X117637543Y-146354045D01*
X117637543Y-146354045D02*
X117698019Y-146595949D01*
X117698019Y-146595949D02*
X117698019Y-146777378D01*
X117698019Y-146777378D02*
X117637543Y-147019283D01*
X117637543Y-147019283D02*
X117577066Y-147140235D01*
X117577066Y-147140235D02*
X117456114Y-147261188D01*
X117456114Y-147261188D02*
X117274685Y-147321664D01*
X117274685Y-147321664D02*
X116972304Y-147321664D01*
X118484209Y-146051664D02*
X118726114Y-146051664D01*
X118726114Y-146051664D02*
X118847066Y-146112140D01*
X118847066Y-146112140D02*
X118968019Y-146233092D01*
X118968019Y-146233092D02*
X119028495Y-146474997D01*
X119028495Y-146474997D02*
X119028495Y-146898330D01*
X119028495Y-146898330D02*
X118968019Y-147140235D01*
X118968019Y-147140235D02*
X118847066Y-147261188D01*
X118847066Y-147261188D02*
X118726114Y-147321664D01*
X118726114Y-147321664D02*
X118484209Y-147321664D01*
X118484209Y-147321664D02*
X118363257Y-147261188D01*
X118363257Y-147261188D02*
X118242304Y-147140235D01*
X118242304Y-147140235D02*
X118181828Y-146898330D01*
X118181828Y-146898330D02*
X118181828Y-146474997D01*
X118181828Y-146474997D02*
X118242304Y-146233092D01*
X118242304Y-146233092D02*
X118363257Y-146112140D01*
X118363257Y-146112140D02*
X118484209Y-146051664D01*
X119451828Y-146051664D02*
X119754209Y-147321664D01*
X119754209Y-147321664D02*
X119996114Y-146414521D01*
X119996114Y-146414521D02*
X120238019Y-147321664D01*
X120238019Y-147321664D02*
X120540400Y-146051664D01*
X121024209Y-147321664D02*
X121024209Y-146051664D01*
X121024209Y-146051664D02*
X121749924Y-147321664D01*
X121749924Y-147321664D02*
X121749924Y-146051664D01*
X123019924Y-147321664D02*
X122294209Y-147321664D01*
X122657066Y-147321664D02*
X122657066Y-146051664D01*
X122657066Y-146051664D02*
X122536114Y-146233092D01*
X122536114Y-146233092D02*
X122415162Y-146354045D01*
X122415162Y-146354045D02*
X122294209Y-146414521D01*
X186824405Y-112404819D02*
X186824405Y-111404819D01*
X186824405Y-111404819D02*
X187062500Y-111404819D01*
X187062500Y-111404819D02*
X187205357Y-111452438D01*
X187205357Y-111452438D02*
X187300595Y-111547676D01*
X187300595Y-111547676D02*
X187348214Y-111642914D01*
X187348214Y-111642914D02*
X187395833Y-111833390D01*
X187395833Y-111833390D02*
X187395833Y-111976247D01*
X187395833Y-111976247D02*
X187348214Y-112166723D01*
X187348214Y-112166723D02*
X187300595Y-112261961D01*
X187300595Y-112261961D02*
X187205357Y-112357200D01*
X187205357Y-112357200D02*
X187062500Y-112404819D01*
X187062500Y-112404819D02*
X186824405Y-112404819D01*
X188252976Y-111404819D02*
X188062500Y-111404819D01*
X188062500Y-111404819D02*
X187967262Y-111452438D01*
X187967262Y-111452438D02*
X187919643Y-111500057D01*
X187919643Y-111500057D02*
X187824405Y-111642914D01*
X187824405Y-111642914D02*
X187776786Y-111833390D01*
X187776786Y-111833390D02*
X187776786Y-112214342D01*
X187776786Y-112214342D02*
X187824405Y-112309580D01*
X187824405Y-112309580D02*
X187872024Y-112357200D01*
X187872024Y-112357200D02*
X187967262Y-112404819D01*
X187967262Y-112404819D02*
X188157738Y-112404819D01*
X188157738Y-112404819D02*
X188252976Y-112357200D01*
X188252976Y-112357200D02*
X188300595Y-112309580D01*
X188300595Y-112309580D02*
X188348214Y-112214342D01*
X188348214Y-112214342D02*
X188348214Y-111976247D01*
X188348214Y-111976247D02*
X188300595Y-111881009D01*
X188300595Y-111881009D02*
X188252976Y-111833390D01*
X188252976Y-111833390D02*
X188157738Y-111785771D01*
X188157738Y-111785771D02*
X187967262Y-111785771D01*
X187967262Y-111785771D02*
X187872024Y-111833390D01*
X187872024Y-111833390D02*
X187824405Y-111881009D01*
X187824405Y-111881009D02*
X187776786Y-111976247D01*
X118363256Y-130051664D02*
X118363256Y-131079759D01*
X118363256Y-131079759D02*
X118423733Y-131200711D01*
X118423733Y-131200711D02*
X118484209Y-131261188D01*
X118484209Y-131261188D02*
X118605161Y-131321664D01*
X118605161Y-131321664D02*
X118847066Y-131321664D01*
X118847066Y-131321664D02*
X118968018Y-131261188D01*
X118968018Y-131261188D02*
X119028495Y-131200711D01*
X119028495Y-131200711D02*
X119088971Y-131079759D01*
X119088971Y-131079759D02*
X119088971Y-130051664D01*
X119693732Y-131321664D02*
X119693732Y-130051664D01*
X119693732Y-130051664D02*
X120177542Y-130051664D01*
X120177542Y-130051664D02*
X120298494Y-130112140D01*
X120298494Y-130112140D02*
X120358971Y-130172616D01*
X120358971Y-130172616D02*
X120419447Y-130293568D01*
X120419447Y-130293568D02*
X120419447Y-130474997D01*
X120419447Y-130474997D02*
X120358971Y-130595949D01*
X120358971Y-130595949D02*
X120298494Y-130656426D01*
X120298494Y-130656426D02*
X120177542Y-130716902D01*
X120177542Y-130716902D02*
X119693732Y-130716902D01*
X121628971Y-131321664D02*
X120903256Y-131321664D01*
X121266113Y-131321664D02*
X121266113Y-130051664D01*
X121266113Y-130051664D02*
X121145161Y-130233092D01*
X121145161Y-130233092D02*
X121024209Y-130354045D01*
X121024209Y-130354045D02*
X120903256Y-130414521D01*
X187520746Y-118051664D02*
X188367413Y-119321664D01*
X188367413Y-118051664D02*
X187520746Y-119321664D01*
X189516461Y-119321664D02*
X188790746Y-119321664D01*
X189153603Y-119321664D02*
X189153603Y-118051664D01*
X189153603Y-118051664D02*
X189032651Y-118233092D01*
X189032651Y-118233092D02*
X188911699Y-118354045D01*
X188911699Y-118354045D02*
X188790746Y-118414521D01*
X196718577Y-110294796D02*
X196801217Y-110893885D01*
X196208311Y-109693646D02*
X196718577Y-110294796D01*
X196718577Y-110294796D02*
X197047035Y-109577950D01*
X198298939Y-110687284D02*
X197580033Y-110786452D01*
X197939486Y-110736868D02*
X197765941Y-109478782D01*
X197765941Y-109478782D02*
X197670916Y-109675036D01*
X197670916Y-109675036D02*
X197567626Y-109811382D01*
X197567626Y-109811382D02*
X197456072Y-109887819D01*
X170761905Y-114954819D02*
X170761905Y-113954819D01*
X170761905Y-113954819D02*
X171000000Y-113954819D01*
X171000000Y-113954819D02*
X171142857Y-114002438D01*
X171142857Y-114002438D02*
X171238095Y-114097676D01*
X171238095Y-114097676D02*
X171285714Y-114192914D01*
X171285714Y-114192914D02*
X171333333Y-114383390D01*
X171333333Y-114383390D02*
X171333333Y-114526247D01*
X171333333Y-114526247D02*
X171285714Y-114716723D01*
X171285714Y-114716723D02*
X171238095Y-114811961D01*
X171238095Y-114811961D02*
X171142857Y-114907200D01*
X171142857Y-114907200D02*
X171000000Y-114954819D01*
X171000000Y-114954819D02*
X170761905Y-114954819D01*
X171714286Y-114050057D02*
X171761905Y-114002438D01*
X171761905Y-114002438D02*
X171857143Y-113954819D01*
X171857143Y-113954819D02*
X172095238Y-113954819D01*
X172095238Y-113954819D02*
X172190476Y-114002438D01*
X172190476Y-114002438D02*
X172238095Y-114050057D01*
X172238095Y-114050057D02*
X172285714Y-114145295D01*
X172285714Y-114145295D02*
X172285714Y-114240533D01*
X172285714Y-114240533D02*
X172238095Y-114383390D01*
X172238095Y-114383390D02*
X171666667Y-114954819D01*
X171666667Y-114954819D02*
X172285714Y-114954819D01*
X135311009Y-115119047D02*
X135358628Y-114976190D01*
X135358628Y-114976190D02*
X135406247Y-114928571D01*
X135406247Y-114928571D02*
X135501485Y-114880952D01*
X135501485Y-114880952D02*
X135644342Y-114880952D01*
X135644342Y-114880952D02*
X135739580Y-114928571D01*
X135739580Y-114928571D02*
X135787200Y-114976190D01*
X135787200Y-114976190D02*
X135834819Y-115071428D01*
X135834819Y-115071428D02*
X135834819Y-115452380D01*
X135834819Y-115452380D02*
X134834819Y-115452380D01*
X134834819Y-115452380D02*
X134834819Y-115119047D01*
X134834819Y-115119047D02*
X134882438Y-115023809D01*
X134882438Y-115023809D02*
X134930057Y-114976190D01*
X134930057Y-114976190D02*
X135025295Y-114928571D01*
X135025295Y-114928571D02*
X135120533Y-114928571D01*
X135120533Y-114928571D02*
X135215771Y-114976190D01*
X135215771Y-114976190D02*
X135263390Y-115023809D01*
X135263390Y-115023809D02*
X135311009Y-115119047D01*
X135311009Y-115119047D02*
X135311009Y-115452380D01*
X135168152Y-114023809D02*
X135834819Y-114023809D01*
X135168152Y-114452380D02*
X135691961Y-114452380D01*
X135691961Y-114452380D02*
X135787200Y-114404761D01*
X135787200Y-114404761D02*
X135834819Y-114309523D01*
X135834819Y-114309523D02*
X135834819Y-114166666D01*
X135834819Y-114166666D02*
X135787200Y-114071428D01*
X135787200Y-114071428D02*
X135739580Y-114023809D01*
X135834819Y-113547618D02*
X135168152Y-113547618D01*
X135263390Y-113547618D02*
X135215771Y-113499999D01*
X135215771Y-113499999D02*
X135168152Y-113404761D01*
X135168152Y-113404761D02*
X135168152Y-113261904D01*
X135168152Y-113261904D02*
X135215771Y-113166666D01*
X135215771Y-113166666D02*
X135311009Y-113119047D01*
X135311009Y-113119047D02*
X135834819Y-113119047D01*
X135311009Y-113119047D02*
X135215771Y-113071428D01*
X135215771Y-113071428D02*
X135168152Y-112976190D01*
X135168152Y-112976190D02*
X135168152Y-112833333D01*
X135168152Y-112833333D02*
X135215771Y-112738094D01*
X135215771Y-112738094D02*
X135311009Y-112690475D01*
X135311009Y-112690475D02*
X135834819Y-112690475D01*
X135168152Y-112214285D02*
X136168152Y-112214285D01*
X135215771Y-112214285D02*
X135168152Y-112119047D01*
X135168152Y-112119047D02*
X135168152Y-111928571D01*
X135168152Y-111928571D02*
X135215771Y-111833333D01*
X135215771Y-111833333D02*
X135263390Y-111785714D01*
X135263390Y-111785714D02*
X135358628Y-111738095D01*
X135358628Y-111738095D02*
X135644342Y-111738095D01*
X135644342Y-111738095D02*
X135739580Y-111785714D01*
X135739580Y-111785714D02*
X135787200Y-111833333D01*
X135787200Y-111833333D02*
X135834819Y-111928571D01*
X135834819Y-111928571D02*
X135834819Y-112119047D01*
X135834819Y-112119047D02*
X135787200Y-112214285D01*
X135787200Y-110928571D02*
X135834819Y-111023809D01*
X135834819Y-111023809D02*
X135834819Y-111214285D01*
X135834819Y-111214285D02*
X135787200Y-111309523D01*
X135787200Y-111309523D02*
X135691961Y-111357142D01*
X135691961Y-111357142D02*
X135311009Y-111357142D01*
X135311009Y-111357142D02*
X135215771Y-111309523D01*
X135215771Y-111309523D02*
X135168152Y-111214285D01*
X135168152Y-111214285D02*
X135168152Y-111023809D01*
X135168152Y-111023809D02*
X135215771Y-110928571D01*
X135215771Y-110928571D02*
X135311009Y-110880952D01*
X135311009Y-110880952D02*
X135406247Y-110880952D01*
X135406247Y-110880952D02*
X135501485Y-111357142D01*
X135834819Y-110452380D02*
X135168152Y-110452380D01*
X135358628Y-110452380D02*
X135263390Y-110404761D01*
X135263390Y-110404761D02*
X135215771Y-110357142D01*
X135215771Y-110357142D02*
X135168152Y-110261904D01*
X135168152Y-110261904D02*
X135168152Y-110166666D01*
X135834819Y-109357142D02*
X135834819Y-109833332D01*
X135834819Y-109833332D02*
X134834819Y-109833332D01*
X135834819Y-108499999D02*
X135834819Y-109071427D01*
X135834819Y-108785713D02*
X134834819Y-108785713D01*
X134834819Y-108785713D02*
X134977676Y-108880951D01*
X134977676Y-108880951D02*
X135072914Y-108976189D01*
X135072914Y-108976189D02*
X135120533Y-109071427D01*
X110151590Y-139321664D02*
X109546828Y-139321664D01*
X109546828Y-139321664D02*
X109546828Y-138051664D01*
X110574923Y-138656426D02*
X110998257Y-138656426D01*
X111179685Y-139321664D02*
X110574923Y-139321664D01*
X110574923Y-139321664D02*
X110574923Y-138051664D01*
X110574923Y-138051664D02*
X111179685Y-138051664D01*
X112147305Y-138656426D02*
X111723971Y-138656426D01*
X111723971Y-139321664D02*
X111723971Y-138051664D01*
X111723971Y-138051664D02*
X112328733Y-138051664D01*
X112631114Y-138051664D02*
X113356828Y-138051664D01*
X112993971Y-139321664D02*
X112993971Y-138051664D01*
X114445400Y-139321664D02*
X113719685Y-139321664D01*
X114082542Y-139321664D02*
X114082542Y-138051664D01*
X114082542Y-138051664D02*
X113961590Y-138233092D01*
X113961590Y-138233092D02*
X113840638Y-138354045D01*
X113840638Y-138354045D02*
X113719685Y-138414521D01*
D11*
X178939270Y-98384655D02*
X179505339Y-98306579D01*
X179358936Y-99336239D02*
X179222304Y-98345617D01*
X179972179Y-99251657D02*
X179881091Y-98591242D01*
X179907116Y-98779932D02*
X179941276Y-98679081D01*
X179941276Y-98679081D02*
X179981942Y-98625402D01*
X179981942Y-98625402D02*
X180069781Y-98565217D01*
X180069781Y-98565217D02*
X180164126Y-98552205D01*
X180585421Y-99167075D02*
X180494333Y-98506661D01*
X180448789Y-98176453D02*
X180408123Y-98230132D01*
X180408123Y-98230132D02*
X180461802Y-98270798D01*
X180461802Y-98270798D02*
X180502468Y-98217120D01*
X180502468Y-98217120D02*
X180448789Y-98176453D01*
X180448789Y-98176453D02*
X180461802Y-98270798D01*
X181390610Y-98383041D02*
X181501217Y-99184973D01*
X181501217Y-99184973D02*
X181467057Y-99285825D01*
X181467057Y-99285825D02*
X181426390Y-99339503D01*
X181426390Y-99339503D02*
X181338552Y-99399688D01*
X181338552Y-99399688D02*
X181197034Y-99419207D01*
X181197034Y-99419207D02*
X181096183Y-99385047D01*
X181475191Y-98996283D02*
X181387353Y-99056468D01*
X181387353Y-99056468D02*
X181198663Y-99082494D01*
X181198663Y-99082494D02*
X181097812Y-99048334D01*
X181097812Y-99048334D02*
X181044133Y-99007668D01*
X181044133Y-99007668D02*
X180983948Y-98919829D01*
X180983948Y-98919829D02*
X180944910Y-98636794D01*
X180944910Y-98636794D02*
X180979070Y-98535943D01*
X180979070Y-98535943D02*
X181019736Y-98482264D01*
X181019736Y-98482264D02*
X181107575Y-98422079D01*
X181107575Y-98422079D02*
X181296265Y-98396054D01*
X181296265Y-98396054D02*
X181397116Y-98430214D01*
X182286887Y-98259422D02*
X182397494Y-99061354D01*
X182397494Y-99061354D02*
X182363334Y-99162205D01*
X182363334Y-99162205D02*
X182322667Y-99215884D01*
X182322667Y-99215884D02*
X182234829Y-99276069D01*
X182234829Y-99276069D02*
X182093311Y-99295588D01*
X182093311Y-99295588D02*
X181992460Y-99261428D01*
X182371468Y-98872664D02*
X182283630Y-98932849D01*
X182283630Y-98932849D02*
X182094940Y-98958874D01*
X182094940Y-98958874D02*
X181994089Y-98924714D01*
X181994089Y-98924714D02*
X181940410Y-98884048D01*
X181940410Y-98884048D02*
X181880225Y-98796209D01*
X181880225Y-98796209D02*
X181841187Y-98513175D01*
X181841187Y-98513175D02*
X181875347Y-98412323D01*
X181875347Y-98412323D02*
X181916013Y-98358645D01*
X181916013Y-98358645D02*
X182003852Y-98298460D01*
X182003852Y-98298460D02*
X182192542Y-98272434D01*
X182192542Y-98272434D02*
X182293393Y-98306594D01*
X183220573Y-98755551D02*
X183132734Y-98815736D01*
X183132734Y-98815736D02*
X182944044Y-98841761D01*
X182944044Y-98841761D02*
X182843193Y-98807601D01*
X182843193Y-98807601D02*
X182783008Y-98719763D01*
X182783008Y-98719763D02*
X182730958Y-98342383D01*
X182730958Y-98342383D02*
X182765118Y-98241532D01*
X182765118Y-98241532D02*
X182852956Y-98181346D01*
X182852956Y-98181346D02*
X183041646Y-98155321D01*
X183041646Y-98155321D02*
X183142498Y-98189481D01*
X183142498Y-98189481D02*
X183202683Y-98277320D01*
X183202683Y-98277320D02*
X183215695Y-98371665D01*
X183215695Y-98371665D02*
X182756983Y-98531073D01*
X183698804Y-98737660D02*
X183607716Y-98077246D01*
X183633741Y-98265936D02*
X183667901Y-98165085D01*
X183667901Y-98165085D02*
X183708567Y-98111406D01*
X183708567Y-98111406D02*
X183796406Y-98051221D01*
X183796406Y-98051221D02*
X183890751Y-98038208D01*
X184878116Y-98575003D02*
X184482846Y-98148823D01*
X184312047Y-98653079D02*
X184175415Y-97662457D01*
X184175415Y-97662457D02*
X184552794Y-97610407D01*
X184552794Y-97610407D02*
X184653646Y-97644566D01*
X184653646Y-97644566D02*
X184707324Y-97685233D01*
X184707324Y-97685233D02*
X184767509Y-97773071D01*
X184767509Y-97773071D02*
X184787028Y-97914589D01*
X184787028Y-97914589D02*
X184752868Y-98015440D01*
X184752868Y-98015440D02*
X184712202Y-98069119D01*
X184712202Y-98069119D02*
X184624363Y-98129304D01*
X184624363Y-98129304D02*
X184246984Y-98181354D01*
X185821566Y-98444878D02*
X185255496Y-98522953D01*
X185538531Y-98483915D02*
X185401899Y-97493293D01*
X185401899Y-97493293D02*
X185327073Y-97647823D01*
X185327073Y-97647823D02*
X185245740Y-97755181D01*
X185245740Y-97755181D02*
X185157902Y-97815366D01*
D10*
X205988095Y-102754819D02*
X205988095Y-101754819D01*
X205988095Y-102231009D02*
X206559523Y-102231009D01*
X206559523Y-102754819D02*
X206559523Y-101754819D01*
X206940476Y-101754819D02*
X207559523Y-101754819D01*
X207559523Y-101754819D02*
X207226190Y-102135771D01*
X207226190Y-102135771D02*
X207369047Y-102135771D01*
X207369047Y-102135771D02*
X207464285Y-102183390D01*
X207464285Y-102183390D02*
X207511904Y-102231009D01*
X207511904Y-102231009D02*
X207559523Y-102326247D01*
X207559523Y-102326247D02*
X207559523Y-102564342D01*
X207559523Y-102564342D02*
X207511904Y-102659580D01*
X207511904Y-102659580D02*
X207464285Y-102707200D01*
X207464285Y-102707200D02*
X207369047Y-102754819D01*
X207369047Y-102754819D02*
X207083333Y-102754819D01*
X207083333Y-102754819D02*
X206988095Y-102707200D01*
X206988095Y-102707200D02*
X206940476Y-102659580D01*
X200007200Y-139559047D02*
X200054819Y-139416190D01*
X200054819Y-139416190D02*
X200054819Y-139178095D01*
X200054819Y-139178095D02*
X200007200Y-139082857D01*
X200007200Y-139082857D02*
X199959580Y-139035238D01*
X199959580Y-139035238D02*
X199864342Y-138987619D01*
X199864342Y-138987619D02*
X199769104Y-138987619D01*
X199769104Y-138987619D02*
X199673866Y-139035238D01*
X199673866Y-139035238D02*
X199626247Y-139082857D01*
X199626247Y-139082857D02*
X199578628Y-139178095D01*
X199578628Y-139178095D02*
X199531009Y-139368571D01*
X199531009Y-139368571D02*
X199483390Y-139463809D01*
X199483390Y-139463809D02*
X199435771Y-139511428D01*
X199435771Y-139511428D02*
X199340533Y-139559047D01*
X199340533Y-139559047D02*
X199245295Y-139559047D01*
X199245295Y-139559047D02*
X199150057Y-139511428D01*
X199150057Y-139511428D02*
X199102438Y-139463809D01*
X199102438Y-139463809D02*
X199054819Y-139368571D01*
X199054819Y-139368571D02*
X199054819Y-139130476D01*
X199054819Y-139130476D02*
X199102438Y-138987619D01*
X199388152Y-138701904D02*
X199388152Y-138320952D01*
X199054819Y-138559047D02*
X199911961Y-138559047D01*
X199911961Y-138559047D02*
X200007200Y-138511428D01*
X200007200Y-138511428D02*
X200054819Y-138416190D01*
X200054819Y-138416190D02*
X200054819Y-138320952D01*
X200054819Y-137987618D02*
X199388152Y-137987618D01*
X199054819Y-137987618D02*
X199102438Y-138035237D01*
X199102438Y-138035237D02*
X199150057Y-137987618D01*
X199150057Y-137987618D02*
X199102438Y-137939999D01*
X199102438Y-137939999D02*
X199054819Y-137987618D01*
X199054819Y-137987618D02*
X199150057Y-137987618D01*
X200007200Y-137082857D02*
X200054819Y-137178095D01*
X200054819Y-137178095D02*
X200054819Y-137368571D01*
X200054819Y-137368571D02*
X200007200Y-137463809D01*
X200007200Y-137463809D02*
X199959580Y-137511428D01*
X199959580Y-137511428D02*
X199864342Y-137559047D01*
X199864342Y-137559047D02*
X199578628Y-137559047D01*
X199578628Y-137559047D02*
X199483390Y-137511428D01*
X199483390Y-137511428D02*
X199435771Y-137463809D01*
X199435771Y-137463809D02*
X199388152Y-137368571D01*
X199388152Y-137368571D02*
X199388152Y-137178095D01*
X199388152Y-137178095D02*
X199435771Y-137082857D01*
X200054819Y-136654285D02*
X199054819Y-136654285D01*
X199673866Y-136559047D02*
X200054819Y-136273333D01*
X199388152Y-136273333D02*
X199769104Y-136654285D01*
X200054819Y-135273333D02*
X199578628Y-135606666D01*
X200054819Y-135844761D02*
X199054819Y-135844761D01*
X199054819Y-135844761D02*
X199054819Y-135463809D01*
X199054819Y-135463809D02*
X199102438Y-135368571D01*
X199102438Y-135368571D02*
X199150057Y-135320952D01*
X199150057Y-135320952D02*
X199245295Y-135273333D01*
X199245295Y-135273333D02*
X199388152Y-135273333D01*
X199388152Y-135273333D02*
X199483390Y-135320952D01*
X199483390Y-135320952D02*
X199531009Y-135368571D01*
X199531009Y-135368571D02*
X199578628Y-135463809D01*
X199578628Y-135463809D02*
X199578628Y-135844761D01*
X200054819Y-134320952D02*
X200054819Y-134892380D01*
X200054819Y-134606666D02*
X199054819Y-134606666D01*
X199054819Y-134606666D02*
X199197676Y-134701904D01*
X199197676Y-134701904D02*
X199292914Y-134797142D01*
X199292914Y-134797142D02*
X199340533Y-134892380D01*
X126738095Y-124504819D02*
X126738095Y-123504819D01*
X126738095Y-123981009D02*
X127309523Y-123981009D01*
X127309523Y-124504819D02*
X127309523Y-123504819D01*
X128214285Y-123838152D02*
X128214285Y-124504819D01*
X127976190Y-123457200D02*
X127738095Y-124171485D01*
X127738095Y-124171485D02*
X128357142Y-124171485D01*
X113261905Y-129454819D02*
X113261905Y-128454819D01*
X113261905Y-128454819D02*
X113500000Y-128454819D01*
X113500000Y-128454819D02*
X113642857Y-128502438D01*
X113642857Y-128502438D02*
X113738095Y-128597676D01*
X113738095Y-128597676D02*
X113785714Y-128692914D01*
X113785714Y-128692914D02*
X113833333Y-128883390D01*
X113833333Y-128883390D02*
X113833333Y-129026247D01*
X113833333Y-129026247D02*
X113785714Y-129216723D01*
X113785714Y-129216723D02*
X113738095Y-129311961D01*
X113738095Y-129311961D02*
X113642857Y-129407200D01*
X113642857Y-129407200D02*
X113500000Y-129454819D01*
X113500000Y-129454819D02*
X113261905Y-129454819D01*
X114404762Y-128883390D02*
X114309524Y-128835771D01*
X114309524Y-128835771D02*
X114261905Y-128788152D01*
X114261905Y-128788152D02*
X114214286Y-128692914D01*
X114214286Y-128692914D02*
X114214286Y-128645295D01*
X114214286Y-128645295D02*
X114261905Y-128550057D01*
X114261905Y-128550057D02*
X114309524Y-128502438D01*
X114309524Y-128502438D02*
X114404762Y-128454819D01*
X114404762Y-128454819D02*
X114595238Y-128454819D01*
X114595238Y-128454819D02*
X114690476Y-128502438D01*
X114690476Y-128502438D02*
X114738095Y-128550057D01*
X114738095Y-128550057D02*
X114785714Y-128645295D01*
X114785714Y-128645295D02*
X114785714Y-128692914D01*
X114785714Y-128692914D02*
X114738095Y-128788152D01*
X114738095Y-128788152D02*
X114690476Y-128835771D01*
X114690476Y-128835771D02*
X114595238Y-128883390D01*
X114595238Y-128883390D02*
X114404762Y-128883390D01*
X114404762Y-128883390D02*
X114309524Y-128931009D01*
X114309524Y-128931009D02*
X114261905Y-128978628D01*
X114261905Y-128978628D02*
X114214286Y-129073866D01*
X114214286Y-129073866D02*
X114214286Y-129264342D01*
X114214286Y-129264342D02*
X114261905Y-129359580D01*
X114261905Y-129359580D02*
X114309524Y-129407200D01*
X114309524Y-129407200D02*
X114404762Y-129454819D01*
X114404762Y-129454819D02*
X114595238Y-129454819D01*
X114595238Y-129454819D02*
X114690476Y-129407200D01*
X114690476Y-129407200D02*
X114738095Y-129359580D01*
X114738095Y-129359580D02*
X114785714Y-129264342D01*
X114785714Y-129264342D02*
X114785714Y-129073866D01*
X114785714Y-129073866D02*
X114738095Y-128978628D01*
X114738095Y-128978628D02*
X114690476Y-128931009D01*
X114690476Y-128931009D02*
X114595238Y-128883390D01*
X125667781Y-139321664D02*
X125244447Y-138716902D01*
X124942066Y-139321664D02*
X124942066Y-138051664D01*
X124942066Y-138051664D02*
X125425876Y-138051664D01*
X125425876Y-138051664D02*
X125546828Y-138112140D01*
X125546828Y-138112140D02*
X125607305Y-138172616D01*
X125607305Y-138172616D02*
X125667781Y-138293568D01*
X125667781Y-138293568D02*
X125667781Y-138474997D01*
X125667781Y-138474997D02*
X125607305Y-138595949D01*
X125607305Y-138595949D02*
X125546828Y-138656426D01*
X125546828Y-138656426D02*
X125425876Y-138716902D01*
X125425876Y-138716902D02*
X124942066Y-138716902D01*
X126212066Y-139321664D02*
X126212066Y-138051664D01*
X127482067Y-138112140D02*
X127361114Y-138051664D01*
X127361114Y-138051664D02*
X127179686Y-138051664D01*
X127179686Y-138051664D02*
X126998257Y-138112140D01*
X126998257Y-138112140D02*
X126877305Y-138233092D01*
X126877305Y-138233092D02*
X126816828Y-138354045D01*
X126816828Y-138354045D02*
X126756352Y-138595949D01*
X126756352Y-138595949D02*
X126756352Y-138777378D01*
X126756352Y-138777378D02*
X126816828Y-139019283D01*
X126816828Y-139019283D02*
X126877305Y-139140235D01*
X126877305Y-139140235D02*
X126998257Y-139261188D01*
X126998257Y-139261188D02*
X127179686Y-139321664D01*
X127179686Y-139321664D02*
X127300638Y-139321664D01*
X127300638Y-139321664D02*
X127482067Y-139261188D01*
X127482067Y-139261188D02*
X127542543Y-139200711D01*
X127542543Y-139200711D02*
X127542543Y-138777378D01*
X127542543Y-138777378D02*
X127300638Y-138777378D01*
X128086828Y-139321664D02*
X128086828Y-138051664D01*
X128086828Y-138656426D02*
X128812543Y-138656426D01*
X128812543Y-139321664D02*
X128812543Y-138051664D01*
X129235876Y-138051664D02*
X129961590Y-138051664D01*
X129598733Y-139321664D02*
X129598733Y-138051664D01*
X131050162Y-139321664D02*
X130324447Y-139321664D01*
X130687304Y-139321664D02*
X130687304Y-138051664D01*
X130687304Y-138051664D02*
X130566352Y-138233092D01*
X130566352Y-138233092D02*
X130445400Y-138354045D01*
X130445400Y-138354045D02*
X130324447Y-138414521D01*
X157261905Y-101854819D02*
X157261905Y-100854819D01*
X157261905Y-100854819D02*
X157500000Y-100854819D01*
X157500000Y-100854819D02*
X157642857Y-100902438D01*
X157642857Y-100902438D02*
X157738095Y-100997676D01*
X157738095Y-100997676D02*
X157785714Y-101092914D01*
X157785714Y-101092914D02*
X157833333Y-101283390D01*
X157833333Y-101283390D02*
X157833333Y-101426247D01*
X157833333Y-101426247D02*
X157785714Y-101616723D01*
X157785714Y-101616723D02*
X157738095Y-101711961D01*
X157738095Y-101711961D02*
X157642857Y-101807200D01*
X157642857Y-101807200D02*
X157500000Y-101854819D01*
X157500000Y-101854819D02*
X157261905Y-101854819D01*
X158690476Y-101188152D02*
X158690476Y-101854819D01*
X158452381Y-100807200D02*
X158214286Y-101521485D01*
X158214286Y-101521485D02*
X158833333Y-101521485D01*
D12*
X211965164Y-153112150D02*
X211965164Y-152598103D01*
X211965164Y-152598103D02*
X211934926Y-152537627D01*
X211934926Y-152537627D02*
X211904688Y-152507389D01*
X211904688Y-152507389D02*
X211844212Y-152477150D01*
X211844212Y-152477150D02*
X211723259Y-152477150D01*
X211723259Y-152477150D02*
X211662783Y-152507389D01*
X211662783Y-152507389D02*
X211632545Y-152537627D01*
X211632545Y-152537627D02*
X211602307Y-152598103D01*
X211602307Y-152598103D02*
X211602307Y-153112150D01*
X210967307Y-152477150D02*
X211330164Y-152477150D01*
X211148736Y-152477150D02*
X211148736Y-153112150D01*
X211148736Y-153112150D02*
X211209212Y-153021436D01*
X211209212Y-153021436D02*
X211269688Y-152960960D01*
X211269688Y-152960960D02*
X211330164Y-152930722D01*
X211647663Y-151766555D02*
X211617425Y-151796793D01*
X211617425Y-151796793D02*
X211556949Y-151827031D01*
X211556949Y-151827031D02*
X211435997Y-151766555D01*
X211435997Y-151766555D02*
X211375520Y-151796793D01*
X211375520Y-151796793D02*
X211345282Y-151827031D01*
D10*
X174733333Y-121254819D02*
X174400000Y-120778628D01*
X174161905Y-121254819D02*
X174161905Y-120254819D01*
X174161905Y-120254819D02*
X174542857Y-120254819D01*
X174542857Y-120254819D02*
X174638095Y-120302438D01*
X174638095Y-120302438D02*
X174685714Y-120350057D01*
X174685714Y-120350057D02*
X174733333Y-120445295D01*
X174733333Y-120445295D02*
X174733333Y-120588152D01*
X174733333Y-120588152D02*
X174685714Y-120683390D01*
X174685714Y-120683390D02*
X174638095Y-120731009D01*
X174638095Y-120731009D02*
X174542857Y-120778628D01*
X174542857Y-120778628D02*
X174161905Y-120778628D01*
X175114286Y-120350057D02*
X175161905Y-120302438D01*
X175161905Y-120302438D02*
X175257143Y-120254819D01*
X175257143Y-120254819D02*
X175495238Y-120254819D01*
X175495238Y-120254819D02*
X175590476Y-120302438D01*
X175590476Y-120302438D02*
X175638095Y-120350057D01*
X175638095Y-120350057D02*
X175685714Y-120445295D01*
X175685714Y-120445295D02*
X175685714Y-120540533D01*
X175685714Y-120540533D02*
X175638095Y-120683390D01*
X175638095Y-120683390D02*
X175066667Y-121254819D01*
X175066667Y-121254819D02*
X175685714Y-121254819D01*
X204612262Y-118958807D02*
X205217024Y-118958807D01*
X204491310Y-119321664D02*
X204914643Y-118051664D01*
X204914643Y-118051664D02*
X205337977Y-119321664D01*
X206426548Y-119321664D02*
X205700833Y-119321664D01*
X206063690Y-119321664D02*
X206063690Y-118051664D01*
X206063690Y-118051664D02*
X205942738Y-118233092D01*
X205942738Y-118233092D02*
X205821786Y-118354045D01*
X205821786Y-118354045D02*
X205700833Y-118414521D01*
D11*
X169776189Y-127523533D02*
X169014285Y-127523533D01*
X169395237Y-127142580D02*
X169395237Y-127904485D01*
X168538094Y-127523533D02*
X167776190Y-127523533D01*
X166776190Y-127142580D02*
X167347618Y-127142580D01*
X167061904Y-127142580D02*
X167061904Y-128142580D01*
X167061904Y-128142580D02*
X167157142Y-127999723D01*
X167157142Y-127999723D02*
X167252380Y-127904485D01*
X167252380Y-127904485D02*
X167347618Y-127856866D01*
D10*
X133011905Y-117204819D02*
X133011905Y-116204819D01*
X133011905Y-116204819D02*
X133250000Y-116204819D01*
X133250000Y-116204819D02*
X133392857Y-116252438D01*
X133392857Y-116252438D02*
X133488095Y-116347676D01*
X133488095Y-116347676D02*
X133535714Y-116442914D01*
X133535714Y-116442914D02*
X133583333Y-116633390D01*
X133583333Y-116633390D02*
X133583333Y-116776247D01*
X133583333Y-116776247D02*
X133535714Y-116966723D01*
X133535714Y-116966723D02*
X133488095Y-117061961D01*
X133488095Y-117061961D02*
X133392857Y-117157200D01*
X133392857Y-117157200D02*
X133250000Y-117204819D01*
X133250000Y-117204819D02*
X133011905Y-117204819D01*
X134535714Y-117204819D02*
X133964286Y-117204819D01*
X134250000Y-117204819D02*
X134250000Y-116204819D01*
X134250000Y-116204819D02*
X134154762Y-116347676D01*
X134154762Y-116347676D02*
X134059524Y-116442914D01*
X134059524Y-116442914D02*
X133964286Y-116490533D01*
D13*
%TO.C,C1*%
X177223752Y-121765000D02*
X176701248Y-121765000D01*
X177223752Y-123235000D02*
X176701248Y-123235000D01*
D11*
%TO.C,Select1*%
X139300000Y-102413690D02*
X139300000Y-108813690D01*
X139300000Y-102413690D02*
X145700000Y-102413690D01*
X145700000Y-102413690D02*
X145700000Y-108813690D01*
X145700000Y-108813690D02*
X139300000Y-108813690D01*
D13*
%TO.C,ClickStickR1*%
X165620000Y-120580000D02*
X165620000Y-119200000D01*
X167000000Y-120580000D02*
X165620000Y-120580000D01*
X168270000Y-117820000D02*
X173460000Y-117820000D01*
X168270000Y-120580000D02*
X168270000Y-117820000D01*
X168270000Y-120580000D02*
X173460000Y-120580000D01*
X173460000Y-120580000D02*
X173460000Y-117820000D01*
%TO.C,R1*%
X180772936Y-121765000D02*
X181227064Y-121765000D01*
X180772936Y-123235000D02*
X181227064Y-123235000D01*
%TO.C,ClickStickL1*%
X126540000Y-117820000D02*
X126540000Y-120580000D01*
X131730000Y-117820000D02*
X126540000Y-117820000D01*
X131730000Y-117820000D02*
X131730000Y-120580000D01*
X131730000Y-120580000D02*
X126540000Y-120580000D01*
X133000000Y-117820000D02*
X134380000Y-117820000D01*
X134380000Y-117820000D02*
X134380000Y-119200000D01*
D11*
%TO.C,Start1*%
X154300000Y-102413690D02*
X154300000Y-108813690D01*
X154300000Y-102413690D02*
X160700000Y-102413690D01*
X160700000Y-102413690D02*
X160700000Y-108813690D01*
X160700000Y-108813690D02*
X154300000Y-108813690D01*
D14*
%TO.C,SW17*%
X217768800Y-106118500D02*
X217768800Y-114881500D01*
X217768800Y-114881500D02*
X221731200Y-114881500D01*
X221731200Y-106118500D02*
X217768800Y-106118500D01*
X221731200Y-114881500D02*
X221731200Y-106118500D01*
D13*
%TO.C,D3*%
X133240000Y-96440000D02*
X134760000Y-96440000D01*
X133240000Y-97440000D02*
X133240000Y-96440000D01*
X133240000Y-99560000D02*
X133240000Y-98560000D01*
X134760000Y-96440000D02*
X134760000Y-96490000D01*
X134760000Y-97610000D02*
X134760000Y-98390000D01*
X134760000Y-99510000D02*
X134760000Y-99560000D01*
X134760000Y-99560000D02*
X133240000Y-99560000D01*
X135300000Y-98380000D02*
X135060000Y-98050000D01*
X135540000Y-98050000D01*
X135300000Y-98380000D01*
G36*
X135300000Y-98380000D02*
G01*
X135060000Y-98050000D01*
X135540000Y-98050000D01*
X135300000Y-98380000D01*
G37*
%TO.C,D7*%
X127802500Y-141890000D02*
X129322500Y-141890000D01*
X127802500Y-142890000D02*
X127802500Y-141890000D01*
X127802500Y-145010000D02*
X127802500Y-144010000D01*
X129322500Y-141890000D02*
X129322500Y-141940000D01*
X129322500Y-143060000D02*
X129322500Y-143840000D01*
X129322500Y-144960000D02*
X129322500Y-145010000D01*
X129322500Y-145010000D02*
X127802500Y-145010000D01*
X129862500Y-143830000D02*
X129622500Y-143500000D01*
X130102500Y-143500000D01*
X129862500Y-143830000D01*
G36*
X129862500Y-143830000D02*
G01*
X129622500Y-143500000D01*
X130102500Y-143500000D01*
X129862500Y-143830000D01*
G37*
%TO.C,D5*%
X212240000Y-120440000D02*
X213760000Y-120440000D01*
X212240000Y-120490000D02*
X212240000Y-120440000D01*
X212240000Y-122390000D02*
X212240000Y-121610000D01*
X212240000Y-123560000D02*
X212240000Y-123510000D01*
X213760000Y-120440000D02*
X213760000Y-121440000D01*
X213760000Y-122560000D02*
X213760000Y-123560000D01*
X213760000Y-123560000D02*
X212240000Y-123560000D01*
X211940000Y-121950000D02*
X211460000Y-121950000D01*
X211700000Y-121620000D01*
X211940000Y-121950000D01*
G36*
X211940000Y-121950000D02*
G01*
X211460000Y-121950000D01*
X211700000Y-121620000D01*
X211940000Y-121950000D01*
G37*
%TO.C,StickL1*%
X119120000Y-119310000D02*
X119120000Y-111580000D01*
X121880000Y-111580000D02*
X119120000Y-111580000D01*
X121880000Y-119310000D02*
X119120000Y-119310000D01*
X121880000Y-119310000D02*
X121880000Y-111580000D01*
X121880000Y-120580000D02*
X121880000Y-121960000D01*
X121880000Y-121960000D02*
X120500000Y-121960000D01*
D14*
%TO.C,TriggerL1*%
X114989164Y-101767017D02*
X115300975Y-101810024D01*
X115062014Y-101238832D02*
X114989164Y-101767017D01*
X115232096Y-100005691D02*
X115107189Y-100911303D01*
X118954858Y-102313987D02*
X119266669Y-102356994D01*
X119266669Y-102356994D02*
X119339519Y-101828809D01*
X119384694Y-101501280D02*
X119509601Y-100595668D01*
X119509601Y-100595668D02*
X115232096Y-100005691D01*
D15*
X113704277Y-100832136D02*
G75*
G02*
X112942275Y-100832136I-381001J0D01*
G01*
X112942275Y-100832136D02*
G75*
G02*
X113704277Y-100832136I381001J0D01*
G01*
D13*
%TO.C,BumperR1*%
X165620000Y-113380000D02*
X165620000Y-112000000D01*
X167000000Y-113380000D02*
X165620000Y-113380000D01*
X168270000Y-110620000D02*
X173460000Y-110620000D01*
X168270000Y-113380000D02*
X168270000Y-110620000D01*
X168270000Y-113380000D02*
X173460000Y-113380000D01*
X173460000Y-113380000D02*
X173460000Y-110620000D01*
D11*
%TO.C,B1*%
X193834124Y-121947219D02*
X193834124Y-128347219D01*
X193834124Y-121947219D02*
X200234124Y-121947219D01*
X200234124Y-121947219D02*
X200234124Y-128347219D01*
X200234124Y-128347219D02*
X193834124Y-128347219D01*
%TO.C,Home1*%
X146800000Y-93913691D02*
X146800000Y-100313691D01*
X146800000Y-93913691D02*
X153200000Y-93913691D01*
X153200000Y-93913691D02*
X153200000Y-100313691D01*
X153200000Y-100313691D02*
X146800000Y-100313691D01*
%TO.C,DOWN1*%
X116765876Y-141461938D02*
X116765876Y-147861938D01*
X116765876Y-141461938D02*
X123165876Y-141461938D01*
X123165876Y-141461938D02*
X123165876Y-147861938D01*
X123165876Y-147861938D02*
X116765876Y-147861938D01*
D13*
%TO.C,D6*%
X186802500Y-107990000D02*
X188322500Y-107990000D01*
X186802500Y-108990000D02*
X186802500Y-107990000D01*
X186802500Y-111110000D02*
X186802500Y-110110000D01*
X188322500Y-107990000D02*
X188322500Y-108040000D01*
X188322500Y-109160000D02*
X188322500Y-109940000D01*
X188322500Y-111060000D02*
X188322500Y-111110000D01*
X188322500Y-111110000D02*
X186802500Y-111110000D01*
X188862500Y-109930000D02*
X188622500Y-109600000D01*
X189102500Y-109600000D01*
X188862500Y-109930000D01*
G36*
X188862500Y-109930000D02*
G01*
X188622500Y-109600000D01*
X189102500Y-109600000D01*
X188862500Y-109930000D01*
G37*
D11*
%TO.C,UP1*%
X116765876Y-125461938D02*
X116765876Y-131861938D01*
X116765876Y-125461938D02*
X123165876Y-125461938D01*
X123165876Y-125461938D02*
X123165876Y-131861938D01*
X123165876Y-131861938D02*
X116765876Y-131861938D01*
%TO.C,X1*%
X185348842Y-113461938D02*
X185348842Y-119861938D01*
X185348842Y-113461938D02*
X191748842Y-113461938D01*
X191748842Y-113461938D02*
X191748842Y-119861938D01*
X191748842Y-119861938D02*
X185348842Y-119861938D01*
%TO.C,Y1*%
X193429597Y-105443764D02*
X194304152Y-111783728D01*
X193429597Y-105443764D02*
X199769562Y-104569208D01*
X199769562Y-104569208D02*
X200644117Y-110909173D01*
X200644117Y-110909173D02*
X194304152Y-111783728D01*
D13*
%TO.C,D2*%
X168840000Y-114040000D02*
X170360000Y-114040000D01*
X168840000Y-114090000D02*
X168840000Y-114040000D01*
X168840000Y-115990000D02*
X168840000Y-115210000D01*
X168840000Y-117160000D02*
X168840000Y-117110000D01*
X170360000Y-114040000D02*
X170360000Y-115040000D01*
X170360000Y-116160000D02*
X170360000Y-117160000D01*
X170360000Y-117160000D02*
X168840000Y-117160000D01*
X168540000Y-115550000D02*
X168060000Y-115550000D01*
X168300000Y-115220000D01*
X168540000Y-115550000D01*
G36*
X168540000Y-115550000D02*
G01*
X168060000Y-115550000D01*
X168300000Y-115220000D01*
X168540000Y-115550000D01*
G37*
%TO.C,BumperL1*%
X126540000Y-110620000D02*
X126540000Y-113380000D01*
X131730000Y-110620000D02*
X126540000Y-110620000D01*
X131730000Y-110620000D02*
X131730000Y-113380000D01*
X131730000Y-113380000D02*
X126540000Y-113380000D01*
X133000000Y-110620000D02*
X134380000Y-110620000D01*
X134380000Y-110620000D02*
X134380000Y-112000000D01*
D11*
%TO.C,LEFT1*%
X108765876Y-133461938D02*
X108765876Y-139861938D01*
X108765876Y-133461938D02*
X115165876Y-133461938D01*
X115165876Y-133461938D02*
X115165876Y-139861938D01*
X115165876Y-139861938D02*
X108765876Y-139861938D01*
D14*
%TO.C,TriggerR1*%
X180550567Y-100600865D02*
X180675474Y-101506477D01*
X180720649Y-101834006D02*
X180793499Y-102362191D01*
X180793499Y-102362191D02*
X181105310Y-102319184D01*
X184759193Y-101815221D02*
X185071004Y-101772214D01*
X184828072Y-100010888D02*
X180550567Y-100600865D01*
X184952979Y-100916500D02*
X184828072Y-100010888D01*
X185071004Y-101772214D02*
X184998154Y-101244029D01*
D15*
X179317738Y-101913173D02*
G75*
G02*
X178555734Y-101913173I-381002J0D01*
G01*
X178555734Y-101913173D02*
G75*
G02*
X179317738Y-101913173I381002J0D01*
G01*
D13*
%TO.C,StickR1*%
X195620000Y-139540000D02*
X195620000Y-131810000D01*
X198380000Y-131810000D02*
X195620000Y-131810000D01*
X198380000Y-139540000D02*
X195620000Y-139540000D01*
X198380000Y-139540000D02*
X198380000Y-131810000D01*
X198380000Y-140810000D02*
X198380000Y-142190000D01*
X198380000Y-142190000D02*
X197000000Y-142190000D01*
%TO.C,D8*%
X113240000Y-129840000D02*
X114760000Y-129840000D01*
X113240000Y-129890000D02*
X113240000Y-129840000D01*
X113240000Y-131790000D02*
X113240000Y-131010000D01*
X113240000Y-132960000D02*
X113240000Y-132910000D01*
X114760000Y-129840000D02*
X114760000Y-130840000D01*
X114760000Y-131960000D02*
X114760000Y-132960000D01*
X114760000Y-132960000D02*
X113240000Y-132960000D01*
X112940000Y-131350000D02*
X112460000Y-131350000D01*
X112700000Y-131020000D01*
X112940000Y-131350000D01*
G36*
X112940000Y-131350000D02*
G01*
X112460000Y-131350000D01*
X112700000Y-131020000D01*
X112940000Y-131350000D01*
G37*
D11*
%TO.C,RIGHT1*%
X124765876Y-133461938D02*
X124765876Y-139861938D01*
X124765876Y-133461938D02*
X131165876Y-133461938D01*
X131165876Y-133461938D02*
X131165876Y-139861938D01*
X131165876Y-139861938D02*
X124765876Y-139861938D01*
D13*
%TO.C,D4*%
X157240000Y-97440000D02*
X158760000Y-97440000D01*
X157240000Y-98440000D02*
X157240000Y-97440000D01*
X157240000Y-100560000D02*
X157240000Y-99560000D01*
X158760000Y-97440000D02*
X158760000Y-97490000D01*
X158760000Y-98610000D02*
X158760000Y-99390000D01*
X158760000Y-100510000D02*
X158760000Y-100560000D01*
X158760000Y-100560000D02*
X157240000Y-100560000D01*
X159300000Y-99380000D02*
X159060000Y-99050000D01*
X159540000Y-99050000D01*
X159300000Y-99380000D01*
G36*
X159300000Y-99380000D02*
G01*
X159060000Y-99050000D01*
X159540000Y-99050000D01*
X159300000Y-99380000D01*
G37*
%TO.C,R2*%
X172772936Y-121765000D02*
X173227064Y-121765000D01*
X172772936Y-123235000D02*
X173227064Y-123235000D01*
D11*
%TO.C,A1*%
X202319405Y-113461938D02*
X202319405Y-119861938D01*
X202319405Y-113461938D02*
X208719405Y-113461938D01*
X208719405Y-113461938D02*
X208719405Y-119861938D01*
X208719405Y-119861938D02*
X202319405Y-119861938D01*
D13*
%TO.C,D1*%
X131040000Y-114040000D02*
X132560000Y-114040000D01*
X131040000Y-114090000D02*
X131040000Y-114040000D01*
X131040000Y-115990000D02*
X131040000Y-115210000D01*
X131040000Y-117160000D02*
X131040000Y-117110000D01*
X132560000Y-114040000D02*
X132560000Y-115040000D01*
X132560000Y-116160000D02*
X132560000Y-117160000D01*
X132560000Y-117160000D02*
X131040000Y-117160000D01*
X130740000Y-115550000D02*
X130260000Y-115550000D01*
X130500000Y-115220000D01*
X130740000Y-115550000D01*
G36*
X130740000Y-115550000D02*
G01*
X130260000Y-115550000D01*
X130500000Y-115220000D01*
X130740000Y-115550000D01*
G37*
%TD*%
M02*
