%TF.GenerationSoftware,KiCad,Pcbnew,9.0.7*%
%TF.CreationDate,2026-01-02T20:12:16+01:00*%
%TF.ProjectId,pcb_phone_controller,7063625f-7068-46f6-9e65-5f636f6e7472,rev?*%
%TF.SameCoordinates,Original*%
%TF.FileFunction,Plated,1,2,PTH,Drill*%
%TF.FilePolarity,Positive*%
%FSLAX46Y46*%
G04 Gerber Fmt 4.6, Leading zero omitted, Abs format (unit mm)*
G04 Created by KiCad (PCBNEW 9.0.7) date 2026-01-02 20:12:16*
%MOMM*%
%LPD*%
G01*
G04 APERTURE LIST*
%TA.AperFunction,ViaDrill*%
%ADD10C,0.300000*%
%TD*%
%TA.AperFunction,ComponentDrill*%
%ADD11C,0.600000*%
%TD*%
%TA.AperFunction,ComponentDrill*%
%ADD12C,0.762000*%
%TD*%
%TA.AperFunction,ComponentDrill*%
%ADD13C,1.000000*%
%TD*%
%TA.AperFunction,ComponentDrill*%
%ADD14C,1.100000*%
%TD*%
%TA.AperFunction,ComponentDrill*%
%ADD15C,2.700000*%
%TD*%
G04 APERTURE END LIST*
D10*
X115000000Y-128000000D03*
X120000000Y-105500000D03*
X121000000Y-109000000D03*
X122475000Y-130875000D03*
X123659921Y-112518529D03*
X125500000Y-113040000D03*
X127500000Y-116250000D03*
X128500000Y-121250000D03*
X128750000Y-114500000D03*
X129250000Y-117000000D03*
X129424875Y-107220000D03*
X137000000Y-105800000D03*
X143900000Y-103100000D03*
X150250000Y-98000000D03*
X150325000Y-100050000D03*
X151800000Y-103800000D03*
X162250000Y-105500000D03*
X165566999Y-109217000D03*
X165750000Y-121000000D03*
X167000000Y-110250000D03*
X167250000Y-108900000D03*
X168400000Y-109338068D03*
X170000000Y-109500000D03*
X172472197Y-106817092D03*
X174500000Y-115500000D03*
X177422000Y-120000000D03*
X178500000Y-118500000D03*
X180000000Y-122500000D03*
X180750000Y-107000000D03*
X183150000Y-122018000D03*
X183443558Y-117169323D03*
X184500000Y-122595000D03*
X185800000Y-106600000D03*
X188047500Y-119767000D03*
X189400000Y-122000000D03*
X190425000Y-113900000D03*
X191201432Y-111421568D03*
X192790189Y-122267000D03*
X192800000Y-118200000D03*
X193400000Y-130000000D03*
X194700000Y-127300000D03*
X194917641Y-129667641D03*
X195000000Y-123500000D03*
X197564124Y-122111398D03*
X197600000Y-130000000D03*
X199275000Y-110075000D03*
X199750000Y-118250000D03*
X199800000Y-133800000D03*
X200600000Y-137600000D03*
X200723000Y-131200000D03*
X201247728Y-125427587D03*
X201300000Y-131900000D03*
X201338500Y-126323000D03*
X201600000Y-121000000D03*
X202610000Y-130041871D03*
X202610000Y-131311871D03*
X202610000Y-132581871D03*
X202610000Y-135121871D03*
X202610000Y-136391871D03*
X203200000Y-124800000D03*
X203800000Y-118500000D03*
X203800000Y-123200000D03*
X204400000Y-119200000D03*
X206000000Y-115650000D03*
X207500000Y-124600000D03*
X208300000Y-119500000D03*
X214000000Y-112000000D03*
X217514064Y-134785936D03*
X218700000Y-128600000D03*
X220390000Y-137661871D03*
D11*
%TO.C,TriggerL1*%
X116403286Y-101358475D03*
X116804672Y-103937504D03*
X117889218Y-101563423D03*
%TO.C,TriggerR1*%
X182110783Y-101563423D03*
X183195329Y-103937504D03*
X183596715Y-101358475D03*
D12*
%TO.C,SW17*%
X219750000Y-108000000D03*
X219750000Y-110500000D03*
X219750000Y-113000000D03*
D13*
%TO.C,StickL1*%
X120500000Y-112960000D03*
X120500000Y-115500000D03*
X120500000Y-118040000D03*
X120500000Y-120580000D03*
%TO.C,BumperL1*%
X127920000Y-112000000D03*
%TO.C,ClickStickL1*%
X127920000Y-119200000D03*
%TO.C,BumperL1*%
X130460000Y-112000000D03*
%TO.C,ClickStickL1*%
X130460000Y-119200000D03*
%TO.C,BumperL1*%
X133000000Y-112000000D03*
%TO.C,ClickStickL1*%
X133000000Y-119200000D03*
%TO.C,BumperR1*%
X167000000Y-112000000D03*
%TO.C,ClickStickR1*%
X167000000Y-119200000D03*
%TO.C,+-1*%
X167000000Y-122500000D03*
%TO.C,BumperR1*%
X169540000Y-112000000D03*
%TO.C,ClickStickR1*%
X169540000Y-119200000D03*
%TO.C,+-1*%
X169800000Y-122500000D03*
%TO.C,BumperR1*%
X172080000Y-112000000D03*
%TO.C,ClickStickR1*%
X172080000Y-119200000D03*
%TO.C,StickR1*%
X197000000Y-133190000D03*
X197000000Y-135730000D03*
X197000000Y-138270000D03*
X197000000Y-140810000D03*
%TO.C,U1*%
X203880000Y-140201871D03*
X203880000Y-142741871D03*
X203880000Y-145281871D03*
D14*
%TO.C,LEFT1*%
X109425876Y-136641938D03*
X114505876Y-136641938D03*
%TO.C,UP1*%
X117425876Y-128641938D03*
%TO.C,DOWN1*%
X117425876Y-144641938D03*
%TO.C,UP1*%
X122505876Y-128641938D03*
%TO.C,DOWN1*%
X122505876Y-144641938D03*
%TO.C,RIGHT1*%
X125425876Y-136641938D03*
X130505876Y-136641938D03*
%TO.C,Select1*%
X139960000Y-105593690D03*
X145040000Y-105593690D03*
%TO.C,Home1*%
X147460000Y-97093691D03*
X152540000Y-97093691D03*
%TO.C,Start1*%
X154960000Y-105593690D03*
X160040000Y-105593690D03*
%TO.C,X1*%
X186008842Y-116641938D03*
X191088842Y-116641938D03*
%TO.C,B1*%
X194494124Y-125127219D03*
%TO.C,Y1*%
X194517950Y-108503745D03*
X199550298Y-107809567D03*
%TO.C,B1*%
X199574124Y-125127219D03*
%TO.C,A1*%
X202979405Y-116641938D03*
X208059405Y-116641938D03*
D15*
%TO.C,H5*%
X110750000Y-144000000D03*
%TO.C,H4*%
X127500000Y-127250000D03*
%TO.C,H1*%
X164750000Y-98250000D03*
%TO.C,H2*%
X182400000Y-112000000D03*
%TO.C,H3*%
X206750000Y-105500000D03*
M02*
