%TF.GenerationSoftware,KiCad,Pcbnew,9.0.6*%
%TF.CreationDate,2026-01-02T17:59:06+01:00*%
%TF.ProjectId,pcb_phone_controller,7063625f-7068-46f6-9e65-5f636f6e7472,rev?*%
%TF.SameCoordinates,Original*%
%TF.FileFunction,Copper,L2,Bot*%
%TF.FilePolarity,Positive*%
%FSLAX46Y46*%
G04 Gerber Fmt 4.6, Leading zero omitted, Abs format (unit mm)*
G04 Created by KiCad (PCBNEW 9.0.6) date 2026-01-02 17:59:06*
%MOMM*%
%LPD*%
G01*
G04 APERTURE LIST*
G04 Aperture macros list*
%AMRoundRect*
0 Rectangle with rounded corners*
0 $1 Rounding radius*
0 $2 $3 $4 $5 $6 $7 $8 $9 X,Y pos of 4 corners*
0 Add a 4 corners polygon primitive as box body*
4,1,4,$2,$3,$4,$5,$6,$7,$8,$9,$2,$3,0*
0 Add four circle primitives for the rounded corners*
1,1,$1+$1,$2,$3*
1,1,$1+$1,$4,$5*
1,1,$1+$1,$6,$7*
1,1,$1+$1,$8,$9*
0 Add four rect primitives between the rounded corners*
20,1,$1+$1,$2,$3,$4,$5,0*
20,1,$1+$1,$4,$5,$6,$7,0*
20,1,$1+$1,$6,$7,$8,$9,0*
20,1,$1+$1,$8,$9,$2,$3,0*%
%AMRotRect*
0 Rectangle, with rotation*
0 The origin of the aperture is its center*
0 $1 length*
0 $2 width*
0 $3 Rotation angle, in degrees counterclockwise*
0 Add horizontal line*
21,1,$1,$2,0,0,$3*%
G04 Aperture macros list end*
%TA.AperFunction,ComponentPad*%
%ADD10RoundRect,0.275000X-0.166531X-0.805306X0.378311X-0.730158X0.166531X0.805306X-0.378311X0.730158X0*%
%TD*%
%TA.AperFunction,ComponentPad*%
%ADD11RotRect,1.100000X2.100000X7.853000*%
%TD*%
%TA.AperFunction,ComponentPad*%
%ADD12RoundRect,0.275000X-0.378311X-0.730158X0.166531X-0.805306X0.378311X0.730158X-0.166531X0.805306X0*%
%TD*%
%TA.AperFunction,ComponentPad*%
%ADD13RotRect,1.100000X2.100000X352.147000*%
%TD*%
%TA.AperFunction,ComponentPad*%
%ADD14C,2.100000*%
%TD*%
%TA.AperFunction,ComponentPad*%
%ADD15C,4.500000*%
%TD*%
%TA.AperFunction,ComponentPad*%
%ADD16R,1.700000X1.700000*%
%TD*%
%TA.AperFunction,ComponentPad*%
%ADD17C,1.700000*%
%TD*%
%TA.AperFunction,ComponentPad*%
%ADD18R,1.270000X1.270000*%
%TD*%
%TA.AperFunction,ComponentPad*%
%ADD19C,1.270000*%
%TD*%
%TA.AperFunction,ComponentPad*%
%ADD20R,2.000000X2.000000*%
%TD*%
%TA.AperFunction,ComponentPad*%
%ADD21C,2.000000*%
%TD*%
%TA.AperFunction,ViaPad*%
%ADD22C,0.700000*%
%TD*%
%TA.AperFunction,Conductor*%
%ADD23C,0.200000*%
%TD*%
G04 APERTURE END LIST*
D10*
%TO.P,TriggerR1,1,VDD*%
%TO.N,+3.3V*%
X182179099Y-102058734D03*
D11*
%TO.P,TriggerR1,2,GND*%
%TO.N,GND*%
X183263645Y-104432815D03*
D10*
%TO.P,TriggerR1,3,OUT*%
%TO.N,Net-(TriggerR1-OUT)*%
X183665031Y-101853786D03*
%TD*%
D12*
%TO.P,TriggerL1,1,VDD*%
%TO.N,+3.3V*%
X116334970Y-101853786D03*
D13*
%TO.P,TriggerL1,2,GND*%
%TO.N,GND*%
X116736356Y-104432815D03*
D12*
%TO.P,TriggerL1,3,OUT*%
%TO.N,Net-(TriggerL1-OUT)*%
X117820902Y-102058734D03*
%TD*%
D14*
%TO.P,Select1,1,1*%
%TO.N,Column 0*%
X139960000Y-105593690D03*
%TO.P,Select1,2,2*%
%TO.N,Net-(D3-Pad1)*%
X145040000Y-105593690D03*
%TD*%
D15*
%TO.P,H2,1,1*%
%TO.N,GND*%
X182400000Y-112000000D03*
%TD*%
D16*
%TO.P,ClickStickR1,1,GND*%
%TO.N,GND*%
X172080000Y-119200000D03*
D17*
%TO.P,ClickStickR1,2,I/O*%
%TO.N,Net-(ClickStickR1-I{slash}O)*%
X169540000Y-119200000D03*
%TO.P,ClickStickR1,3,VCC*%
%TO.N,Column 3*%
X167000000Y-119200000D03*
%TD*%
D16*
%TO.P,ClickStickL1,1,GND*%
%TO.N,GND*%
X133000000Y-119200000D03*
D17*
%TO.P,ClickStickL1,2,I/O*%
%TO.N,Net-(ClickStickL1-I{slash}O)*%
X130460000Y-119200000D03*
%TO.P,ClickStickL1,3,VCC*%
%TO.N,Column 1*%
X127920000Y-119200000D03*
%TD*%
D14*
%TO.P,Start1,1,1*%
%TO.N,Column 2*%
X154960000Y-105593690D03*
%TO.P,Start1,2,2*%
%TO.N,Net-(D4-Pad1)*%
X160040000Y-105593690D03*
%TD*%
D18*
%TO.P,SW17,1,1*%
%TO.N,unconnected-(SW17-Pad1)*%
X219750000Y-108000000D03*
D19*
%TO.P,SW17,2,2*%
%TO.N,+BAT*%
X219750000Y-110500000D03*
%TO.P,SW17,3,3*%
%TO.N,Net-(+-1-BAT+)*%
X219750000Y-113000000D03*
%TD*%
D15*
%TO.P,H5,1,1*%
%TO.N,GND*%
X110750000Y-144000000D03*
%TD*%
D16*
%TO.P,StickL1,1,GND*%
%TO.N,GND*%
X120500000Y-120580000D03*
D17*
%TO.P,StickL1,2,Y*%
%TO.N,Net-(StickL1-Y)*%
X120500000Y-118040000D03*
%TO.P,StickL1,3,3V3*%
%TO.N,+3.3V*%
X120500000Y-115500000D03*
%TO.P,StickL1,4,X*%
%TO.N,Net-(StickL1-X)*%
X120500000Y-112960000D03*
%TD*%
D16*
%TO.P,BumperR1,1,GND*%
%TO.N,GND*%
X167000000Y-112000000D03*
D17*
%TO.P,BumperR1,2,I/O*%
%TO.N,Net-(BumperR1-I{slash}O)*%
X169540000Y-112000000D03*
%TO.P,BumperR1,3,VCC*%
%TO.N,Column 2*%
X172080000Y-112000000D03*
%TD*%
D14*
%TO.P,B1,1,1*%
%TO.N,Net-(B1-Pad1)*%
X194494124Y-125127219D03*
%TO.P,B1,2,2*%
%TO.N,Column 1*%
X199574124Y-125127219D03*
%TD*%
%TO.P,Home1,1,1*%
%TO.N,Net-(D3-Pad2)*%
X147460000Y-97093691D03*
%TO.P,Home1,2,2*%
%TO.N,Column 1*%
X152540000Y-97093691D03*
%TD*%
D15*
%TO.P,H1,1,1*%
%TO.N,GND*%
X164750000Y-98250000D03*
%TD*%
D14*
%TO.P,DOWN1,1,1*%
%TO.N,Column 0*%
X117425876Y-144641938D03*
%TO.P,DOWN1,2,2*%
%TO.N,Net-(D7-Pad1)*%
X122505876Y-144641938D03*
%TD*%
%TO.P,UP1,1,1*%
%TO.N,Column 2*%
X117425876Y-128641938D03*
%TO.P,UP1,2,2*%
%TO.N,Net-(D8-Pad1)*%
X122505876Y-128641938D03*
%TD*%
%TO.P,X1,1,1*%
%TO.N,Column 2*%
X186008842Y-116641938D03*
%TO.P,X1,2,2*%
%TO.N,Net-(D6-Pad1)*%
X191088842Y-116641938D03*
%TD*%
%TO.P,Y1,1,1*%
%TO.N,Net-(D6-Pad2)*%
X194517950Y-108503745D03*
%TO.P,Y1,2,2*%
%TO.N,Column 3*%
X199550298Y-107809567D03*
%TD*%
D20*
%TO.P,+-1,1,BAT-*%
%TO.N,-BATT*%
X169800000Y-122500000D03*
D21*
%TO.P,+-1,2,BAT+*%
%TO.N,Net-(+-1-BAT+)*%
X167000000Y-122500000D03*
%TD*%
D16*
%TO.P,BumperL1,1,GND*%
%TO.N,GND*%
X127920000Y-112000000D03*
D17*
%TO.P,BumperL1,2,I/O*%
%TO.N,Net-(BumperL1-I{slash}O)*%
X130460000Y-112000000D03*
%TO.P,BumperL1,3,VCC*%
%TO.N,Column 0*%
X133000000Y-112000000D03*
%TD*%
D14*
%TO.P,LEFT1,1,1*%
%TO.N,Net-(D8-Pad2)*%
X109425876Y-136641938D03*
%TO.P,LEFT1,2,2*%
%TO.N,Column 3*%
X114505876Y-136641938D03*
%TD*%
D15*
%TO.P,H3,1,1*%
%TO.N,GND*%
X206750000Y-105500000D03*
%TD*%
D16*
%TO.P,StickR1,1,GND*%
%TO.N,GND*%
X197000000Y-140810000D03*
D17*
%TO.P,StickR1,2,Y*%
%TO.N,Net-(StickR1-Y)*%
X197000000Y-138270000D03*
%TO.P,StickR1,3,3V3*%
%TO.N,+3.3V*%
X197000000Y-135730000D03*
%TO.P,StickR1,4,X*%
%TO.N,Net-(StickR1-X)*%
X197000000Y-133190000D03*
%TD*%
D15*
%TO.P,H4,1,1*%
%TO.N,GND*%
X127500000Y-127250000D03*
%TD*%
D14*
%TO.P,RIGHT1,1,1*%
%TO.N,Net-(D7-Pad2)*%
X125425876Y-136641938D03*
%TO.P,RIGHT1,2,2*%
%TO.N,Column 1*%
X130505876Y-136641938D03*
%TD*%
%TO.P,A1,1,1*%
%TO.N,Column 0*%
X202979405Y-116641938D03*
%TO.P,A1,2,2*%
%TO.N,Net-(A1-Pad2)*%
X208059405Y-116641938D03*
%TD*%
D22*
%TO.N,GND*%
X150250000Y-98000000D03*
%TO.N,Column 0*%
X167250000Y-108900000D03*
X202610000Y-136391871D03*
%TO.N,Net-(B1-Pad1)*%
X201247728Y-125427587D03*
%TO.N,Column 1*%
X201300000Y-131900000D03*
X197564124Y-122111398D03*
X129424875Y-107220000D03*
%TO.N,Net-(C1-Pad1)*%
X188047500Y-119767000D03*
X180000000Y-122500000D03*
%TO.N,Net-(+-1-BAT+)*%
X204400000Y-119200000D03*
X183150000Y-122018000D03*
%TO.N,Row 0*%
X177422000Y-120000000D03*
X195000000Y-123500000D03*
%TO.N,Row 2*%
X203200000Y-124800000D03*
X202610000Y-131311871D03*
%TO.N,GND*%
X128750000Y-114500000D03*
X190425000Y-113900000D03*
X185800000Y-106600000D03*
X122475000Y-130875000D03*
X180750000Y-107000000D03*
X193800000Y-129600000D03*
X165750000Y-121000000D03*
X167000000Y-110250000D03*
X170000000Y-109500000D03*
X214000000Y-112000000D03*
X201600000Y-121000000D03*
X174500000Y-115500000D03*
X208300000Y-119500000D03*
X150325000Y-100050000D03*
X151800000Y-103800000D03*
X218700000Y-128600000D03*
X121000000Y-109000000D03*
X207500000Y-124600000D03*
X183443558Y-117169323D03*
X199275000Y-110075000D03*
X120000000Y-105500000D03*
X202610000Y-142741871D03*
X162250000Y-105500000D03*
X178500000Y-118500000D03*
X189400000Y-122000000D03*
X127500000Y-116250000D03*
X128500000Y-121250000D03*
X199750000Y-118250000D03*
X172472197Y-106817092D03*
X129250000Y-117000000D03*
X143900000Y-103100000D03*
X137000000Y-105800000D03*
%TO.N,Column 3*%
X202610000Y-130041871D03*
X203800000Y-123200000D03*
%TO.N,+BAT*%
X203800000Y-118500000D03*
X184500000Y-122595000D03*
%TO.N,Column 2*%
X168400000Y-109338068D03*
X220390000Y-137661871D03*
X194700000Y-127300000D03*
X115000000Y-128000000D03*
X217514064Y-134785936D03*
X165566999Y-109217000D03*
%TO.N,Net-(StickL1-Y)*%
X125500000Y-113040000D03*
%TO.N,+3.3V*%
X192790189Y-122267000D03*
X192800000Y-118200000D03*
X191201432Y-111421568D03*
%TO.N,Net-(StickL1-X)*%
X123659921Y-112518529D03*
%TO.N,Net-(StickR1-Y)*%
X202610000Y-135121871D03*
%TO.N,Net-(TriggerR1-OUT)*%
X201338500Y-126323000D03*
X200723000Y-131200000D03*
%TO.N,Net-(StickR1-X)*%
X202610000Y-132581871D03*
%TD*%
D23*
%TO.N,Net-(StickL1-X)*%
X123219864Y-112960000D02*
X120500000Y-112960000D01*
X123659921Y-112518529D02*
X123659921Y-112519943D01*
X123659921Y-112519943D02*
X123219864Y-112960000D01*
%TO.N,+3.3V*%
X120500000Y-115500000D02*
X121500000Y-115500000D01*
X128729276Y-107943000D02*
X129215040Y-107943000D01*
X121500000Y-115500000D02*
X126113000Y-110887000D01*
X126113000Y-110887000D02*
X126113000Y-110559276D01*
X126113000Y-110559276D02*
X128729276Y-107943000D01*
%TO.N,Column 2*%
X115000000Y-128000000D02*
X115000000Y-127065800D01*
X119565800Y-122500000D02*
X121572276Y-122500000D01*
X115000000Y-127065800D02*
X119565800Y-122500000D01*
X121572276Y-122500000D02*
X126441000Y-117631276D01*
X152282690Y-108271000D02*
X154960000Y-105593690D01*
X126441000Y-117631276D02*
X126441000Y-110695138D01*
X126441000Y-110695138D02*
X128865138Y-108271000D01*
X128865138Y-108271000D02*
X152282690Y-108271000D01*
%TO.N,Column 3*%
X114540000Y-136500000D02*
X115672000Y-135368000D01*
X115672000Y-135368000D02*
X115672000Y-126857662D01*
X115672000Y-126857662D02*
X119701662Y-122828000D01*
X119701662Y-122828000D02*
X121708138Y-122828000D01*
X121708138Y-122828000D02*
X126769000Y-117767138D01*
X126769000Y-117767138D02*
X126769000Y-110831000D01*
X129001000Y-108599000D02*
X163948942Y-108599000D01*
X163948942Y-108599000D02*
X165601000Y-110251058D01*
X126769000Y-110831000D02*
X129001000Y-108599000D01*
%TO.N,Column 2*%
X194700000Y-127300000D02*
X193143124Y-125743124D01*
X192428000Y-123828000D02*
X179964138Y-123828000D01*
X193143124Y-125743124D02*
X193143124Y-124543124D01*
X193143124Y-124543124D02*
X192428000Y-123828000D01*
X176580000Y-120443862D02*
X176580000Y-116500000D01*
X179964138Y-123828000D02*
X176580000Y-120443862D01*
%TO.N,Column 1*%
X199540000Y-124087272D02*
X199540000Y-125000000D01*
X197564124Y-122111398D02*
X197564126Y-122111398D01*
X197564126Y-122111398D02*
X199540000Y-124087272D01*
%TO.N,Row 0*%
X195000000Y-123500000D02*
X180100000Y-123500000D01*
X180100000Y-123500000D02*
X177422000Y-120822000D01*
X177422000Y-120822000D02*
X177422000Y-120000000D01*
%TO.N,+3.3V*%
X192800000Y-118200000D02*
X192790189Y-118190189D01*
X192790189Y-118190189D02*
X192790189Y-122267000D01*
X191201432Y-111421568D02*
X191200000Y-111423000D01*
X190850724Y-111423000D02*
X187370724Y-107943000D01*
X187370724Y-107943000D02*
X177800000Y-107943000D01*
X191200000Y-111423000D02*
X190850724Y-111423000D01*
%TO.N,Column 0*%
X116000000Y-126993524D02*
X119837524Y-123156000D01*
X187099000Y-108599000D02*
X167551000Y-108599000D01*
X117460000Y-144500000D02*
X116000000Y-143040000D01*
X202610000Y-136391871D02*
X206500000Y-132501871D01*
X195141938Y-116641938D02*
X187099000Y-108599000D01*
X203101938Y-116641938D02*
X195141938Y-116641938D01*
X167551000Y-108599000D02*
X167250000Y-108900000D01*
X206500000Y-132501871D02*
X206500000Y-120040000D01*
X206500000Y-120040000D02*
X203101938Y-116641938D01*
X119837524Y-123156000D02*
X121844000Y-123156000D01*
X121844000Y-123156000D02*
X133000000Y-112000000D01*
X116000000Y-143040000D02*
X116000000Y-126993524D01*
%TO.N,Net-(B1-Pad1)*%
X200197096Y-126478219D02*
X200121781Y-126478219D01*
X200100000Y-126500000D02*
X195500000Y-126500000D01*
X200121781Y-126478219D02*
X200100000Y-126500000D01*
X194460000Y-125460000D02*
X194460000Y-125000000D01*
X201247728Y-125427587D02*
X200197096Y-126478219D01*
X195500000Y-126500000D02*
X194460000Y-125460000D01*
%TO.N,Column 1*%
X202000000Y-126561503D02*
X202000000Y-125300000D01*
X129819875Y-107615000D02*
X145182000Y-107615000D01*
X201500000Y-124800000D02*
X199901343Y-124800000D01*
X152540000Y-100257000D02*
X152540000Y-97000000D01*
X129424875Y-107220000D02*
X129819875Y-107615000D01*
X130540000Y-136500000D02*
X130540000Y-121820000D01*
X202000000Y-125300000D02*
X201500000Y-124800000D01*
X199901343Y-124800000D02*
X199574124Y-125127219D01*
X130540000Y-121820000D02*
X127920000Y-119200000D01*
X201300000Y-127261503D02*
X202000000Y-126561503D01*
X201300000Y-131900000D02*
X201300000Y-127261503D01*
X145182000Y-107615000D02*
X152540000Y-100257000D01*
%TO.N,Net-(C1-Pad1)*%
X182733000Y-119767000D02*
X180000000Y-122500000D01*
X188047500Y-119767000D02*
X182733000Y-119767000D01*
%TO.N,Net-(+-1-BAT+)*%
X184260584Y-123173000D02*
X184259584Y-123172000D01*
X184172000Y-123172000D02*
X183150000Y-122150000D01*
X193328000Y-123172000D02*
X184740416Y-123172000D01*
X203772000Y-119828000D02*
X196672000Y-119828000D01*
X196672000Y-119828000D02*
X193328000Y-123172000D01*
X184740416Y-123172000D02*
X184739416Y-123173000D01*
X204400000Y-119200000D02*
X203772000Y-119828000D01*
X184259584Y-123172000D02*
X184172000Y-123172000D01*
X184739416Y-123173000D02*
X184260584Y-123173000D01*
X183150000Y-122150000D02*
X183150000Y-122018000D01*
%TO.N,Row 2*%
X202032000Y-126993365D02*
X202032000Y-130733871D01*
X202328000Y-126697365D02*
X202032000Y-126993365D01*
X202032000Y-130733871D02*
X202610000Y-131311871D01*
X203200000Y-124800000D02*
X202328000Y-125672000D01*
X202328000Y-125672000D02*
X202328000Y-126697365D01*
%TO.N,GND*%
X128000000Y-112080000D02*
X127920000Y-112000000D01*
%TO.N,Column 3*%
X203778000Y-125022000D02*
X203778000Y-125039416D01*
X203422000Y-125378000D02*
X202656000Y-126144000D01*
X165601000Y-110251058D02*
X165601000Y-117801000D01*
X193240416Y-112000000D02*
X193239416Y-112001000D01*
X199516174Y-107652911D02*
X195169085Y-112000000D01*
X190963862Y-112000000D02*
X187234862Y-108271000D01*
X166200000Y-109100058D02*
X166200000Y-109652058D01*
X203778000Y-125039416D02*
X203439416Y-125378000D01*
X203800000Y-123200000D02*
X203800000Y-125000000D01*
X192759584Y-112000000D02*
X190963862Y-112000000D01*
X202656000Y-126833227D02*
X202610000Y-126879227D01*
X187234862Y-108271000D02*
X167029058Y-108271000D01*
X193239416Y-112001000D02*
X192760584Y-112001000D01*
X203439416Y-125378000D02*
X203422000Y-125378000D01*
X165601000Y-117801000D02*
X167000000Y-119200000D01*
X192760584Y-112001000D02*
X192759584Y-112000000D01*
X202656000Y-126144000D02*
X202656000Y-126833227D01*
X203800000Y-125000000D02*
X203778000Y-125022000D01*
X202610000Y-126879227D02*
X202610000Y-130041871D01*
X195169085Y-112000000D02*
X193240416Y-112000000D01*
X167029058Y-108271000D02*
X166200000Y-109100058D01*
X166200000Y-109652058D02*
X165601000Y-110251058D01*
%TO.N,+BAT*%
X203800000Y-118500000D02*
X202800000Y-119500000D01*
X193192138Y-122844000D02*
X184749000Y-122844000D01*
X196536138Y-119500000D02*
X193192138Y-122844000D01*
X202800000Y-119500000D02*
X196536138Y-119500000D01*
X184749000Y-122844000D02*
X184500000Y-122595000D01*
%TO.N,Column 2*%
X157637310Y-108271000D02*
X164620999Y-108271000D01*
X154960000Y-105593690D02*
X157637310Y-108271000D01*
X168400000Y-109400000D02*
X169600000Y-110600000D01*
X169600000Y-110600000D02*
X170680000Y-110600000D01*
X217514064Y-134785936D02*
X220390000Y-137661871D01*
X164620999Y-108271000D02*
X165566999Y-109217000D01*
X170680000Y-110600000D02*
X172080000Y-112000000D01*
X172080000Y-112000000D02*
X176580000Y-116500000D01*
X168400000Y-109338068D02*
X168400000Y-109400000D01*
X176580000Y-116500000D02*
X185960000Y-116500000D01*
%TO.N,Net-(StickL1-Y)*%
X125500000Y-113040000D02*
X120500000Y-118040000D01*
%TO.N,+3.3V*%
X177800000Y-107943000D02*
X159443000Y-107943000D01*
X116403286Y-101358475D02*
X115600000Y-102161761D01*
X159443000Y-107943000D02*
X155649000Y-104149000D01*
X150557000Y-107943000D02*
X129215040Y-107943000D01*
X155649000Y-104149000D02*
X154351000Y-104149000D01*
X117743000Y-107943000D02*
X129215040Y-107943000D01*
X115600000Y-105800000D02*
X117743000Y-107943000D01*
X154351000Y-104149000D02*
X150557000Y-107943000D01*
X182110783Y-103632217D02*
X177800000Y-107943000D01*
X182110783Y-101563423D02*
X182110783Y-103632217D01*
X115600000Y-102161761D02*
X115600000Y-105800000D01*
%TO.N,Net-(StickR1-Y)*%
X202610000Y-135121871D02*
X200148129Y-135121871D01*
X200148129Y-135121871D02*
X197000000Y-138270000D01*
%TO.N,Net-(TriggerR1-OUT)*%
X200723000Y-131200000D02*
X200723000Y-126938500D01*
X200723000Y-126938500D02*
X201338500Y-126323000D01*
%TO.N,Net-(StickR1-X)*%
X197608129Y-132581871D02*
X197000000Y-133190000D01*
X202610000Y-132581871D02*
X197608129Y-132581871D01*
%TD*%
%TA.AperFunction,Conductor*%
%TO.N,GND*%
G36*
X185022260Y-102500018D02*
G01*
X185061485Y-102557838D01*
X185066250Y-102578779D01*
X185085181Y-102716038D01*
X185085177Y-102716059D01*
X185121557Y-102979820D01*
X185121561Y-102979845D01*
X185215323Y-103399660D01*
X185215327Y-103399676D01*
X185343447Y-103810347D01*
X185343449Y-103810352D01*
X185343450Y-103810355D01*
X185437216Y-104041695D01*
X185505048Y-104209049D01*
X185505048Y-104209050D01*
X185699016Y-104593029D01*
X185850288Y-104839520D01*
X185924031Y-104959681D01*
X186178556Y-105306500D01*
X186340449Y-105492663D01*
X186413254Y-105576383D01*
X186460852Y-105631116D01*
X186768992Y-105931311D01*
X186991308Y-106114671D01*
X187100875Y-106205039D01*
X187445531Y-106444385D01*
X187454216Y-106450416D01*
X187454230Y-106450424D01*
X187826613Y-106665778D01*
X187826629Y-106665786D01*
X188215531Y-106849653D01*
X188215543Y-106849658D01*
X188618297Y-107000781D01*
X188618301Y-107000782D01*
X188618311Y-107000786D01*
X189032189Y-107118139D01*
X189454345Y-107200913D01*
X189881894Y-107248543D01*
X190120795Y-107255298D01*
X190311904Y-107260703D01*
X190311908Y-107260702D01*
X190311916Y-107260703D01*
X190741473Y-107237309D01*
X190915043Y-107213366D01*
X190915044Y-107213367D01*
X193974360Y-106791353D01*
X194043459Y-106801692D01*
X194096000Y-106847748D01*
X194115301Y-106914899D01*
X194095233Y-106981825D01*
X194042168Y-107027277D01*
X194029622Y-107032121D01*
X193922760Y-107066842D01*
X193705307Y-107177641D01*
X193507873Y-107321084D01*
X193507868Y-107321088D01*
X193335293Y-107493663D01*
X193335289Y-107493668D01*
X193191846Y-107691102D01*
X193081047Y-107908557D01*
X193005628Y-108140672D01*
X192997786Y-108190185D01*
X192967450Y-108381718D01*
X192967450Y-108625772D01*
X192976493Y-108682864D01*
X193005499Y-108866005D01*
X193005629Y-108866821D01*
X193081046Y-109098930D01*
X193179792Y-109292731D01*
X193191846Y-109316387D01*
X193335289Y-109513821D01*
X193335293Y-109513826D01*
X193507868Y-109686401D01*
X193507873Y-109686405D01*
X193609543Y-109760272D01*
X193705311Y-109829851D01*
X193922765Y-109940649D01*
X194154874Y-110016066D01*
X194395923Y-110054245D01*
X194395924Y-110054245D01*
X194639976Y-110054245D01*
X194639977Y-110054245D01*
X194881026Y-110016066D01*
X195113135Y-109940649D01*
X195330589Y-109829851D01*
X195528033Y-109686400D01*
X195700605Y-109513828D01*
X195844056Y-109316384D01*
X195954854Y-109098930D01*
X196030271Y-108866821D01*
X196068450Y-108625772D01*
X196068450Y-108381718D01*
X196030271Y-108140669D01*
X195954854Y-107908560D01*
X195844056Y-107691106D01*
X195794475Y-107622863D01*
X195700610Y-107493668D01*
X195700606Y-107493663D01*
X195528031Y-107321088D01*
X195528026Y-107321084D01*
X195330592Y-107177641D01*
X195330591Y-107177640D01*
X195330589Y-107177639D01*
X195113135Y-107066841D01*
X194881026Y-106991424D01*
X194881024Y-106991423D01*
X194881022Y-106991423D01*
X194712719Y-106964766D01*
X194639977Y-106953245D01*
X194607101Y-106953245D01*
X194540062Y-106933560D01*
X194494307Y-106880756D01*
X194484363Y-106811598D01*
X194513388Y-106748042D01*
X194572166Y-106710268D01*
X194590153Y-106706408D01*
X196842329Y-106395735D01*
X196904818Y-106387117D01*
X196912096Y-106386617D01*
X196913221Y-106385958D01*
X196913223Y-106385958D01*
X196913226Y-106385956D01*
X196913227Y-106385956D01*
X196935927Y-106372663D01*
X196978425Y-106347776D01*
X196981841Y-106345930D01*
X196982049Y-106345654D01*
X196982054Y-106345652D01*
X196982055Y-106345649D01*
X196982057Y-106345649D01*
X197005612Y-106314555D01*
X197029002Y-106283679D01*
X197030200Y-106282152D01*
X197030221Y-106282068D01*
X197030223Y-106282068D01*
X197041385Y-106239355D01*
X197049321Y-106208990D01*
X197050437Y-106205247D01*
X197050389Y-106204902D01*
X197050390Y-106204901D01*
X197050389Y-106204898D01*
X197050390Y-106204897D01*
X197044842Y-106164678D01*
X197042792Y-106149812D01*
X196809495Y-104458330D01*
X196747615Y-104009674D01*
X196757955Y-103940575D01*
X196804012Y-103888034D01*
X196853506Y-103869897D01*
X205993427Y-102609280D01*
X206010369Y-102608117D01*
X222204129Y-102608117D01*
X222271168Y-102627802D01*
X222316923Y-102680606D01*
X222328129Y-102732117D01*
X222328129Y-148017438D01*
X222308444Y-148084477D01*
X222255640Y-148130232D01*
X222204129Y-148141438D01*
X195508624Y-148141438D01*
X195441585Y-148121753D01*
X195395830Y-148068949D01*
X195384624Y-148017438D01*
X195384624Y-131689982D01*
X195384565Y-131689392D01*
X195384567Y-131672965D01*
X195364984Y-131574478D01*
X195357658Y-131537631D01*
X195304864Y-131410149D01*
X195228213Y-131295416D01*
X195228211Y-131295413D01*
X195130655Y-131197846D01*
X195130650Y-131197842D01*
X195015930Y-131121178D01*
X195011525Y-131119353D01*
X194888452Y-131068367D01*
X194888450Y-131068366D01*
X194888444Y-131068364D01*
X194888445Y-131068364D01*
X194753126Y-131041442D01*
X194753120Y-131041441D01*
X194735838Y-131041440D01*
X194735838Y-131041439D01*
X194724006Y-131041438D01*
X194724005Y-131041438D01*
X194684133Y-131041438D01*
X194684132Y-131041438D01*
X194684124Y-131041437D01*
X194632439Y-131041435D01*
X194632407Y-131041438D01*
X192708624Y-131041438D01*
X192641585Y-131021753D01*
X192595830Y-130968949D01*
X192584624Y-130917438D01*
X192584624Y-126240105D01*
X192584562Y-126239479D01*
X192584562Y-126238233D01*
X192584564Y-126158837D01*
X192552481Y-125894569D01*
X192526309Y-125788377D01*
X192488781Y-125636106D01*
X192488779Y-125636101D01*
X192488778Y-125636096D01*
X192394384Y-125387185D01*
X192394381Y-125387180D01*
X192394380Y-125387176D01*
X192270676Y-125151470D01*
X192270668Y-125151457D01*
X192119461Y-124932388D01*
X192119458Y-124932385D01*
X192119455Y-124932380D01*
X191982621Y-124777922D01*
X191942924Y-124733112D01*
X191743680Y-124556593D01*
X191743674Y-124556589D01*
X191743672Y-124556587D01*
X191524590Y-124405360D01*
X191303452Y-124289294D01*
X191253242Y-124240711D01*
X191237268Y-124172691D01*
X191260604Y-124106834D01*
X191315840Y-124064047D01*
X191361081Y-124055500D01*
X192282405Y-124055500D01*
X192349444Y-124075185D01*
X192370086Y-124091819D01*
X192879305Y-124601038D01*
X192912790Y-124662361D01*
X192915624Y-124688719D01*
X192915624Y-125788377D01*
X192950260Y-125871994D01*
X193896235Y-126817968D01*
X193929720Y-126879291D01*
X193924736Y-126948982D01*
X193923115Y-126953102D01*
X193882184Y-127051917D01*
X193882182Y-127051925D01*
X193849500Y-127216228D01*
X193849500Y-127383771D01*
X193882182Y-127548074D01*
X193882184Y-127548082D01*
X193946295Y-127702860D01*
X194039373Y-127842162D01*
X194157837Y-127960626D01*
X194250494Y-128022537D01*
X194297137Y-128053703D01*
X194451918Y-128117816D01*
X194616228Y-128150499D01*
X194616232Y-128150500D01*
X194616233Y-128150500D01*
X194783768Y-128150500D01*
X194783769Y-128150499D01*
X194948082Y-128117816D01*
X195102863Y-128053703D01*
X195242162Y-127960626D01*
X195360626Y-127842162D01*
X195453703Y-127702863D01*
X195517816Y-127548082D01*
X195550500Y-127383767D01*
X195550500Y-127216233D01*
X195517816Y-127051918D01*
X195454454Y-126898952D01*
X195446986Y-126829484D01*
X195478261Y-126767004D01*
X195538350Y-126731352D01*
X195569016Y-126727500D01*
X200145252Y-126727500D01*
X200145253Y-126727500D01*
X200152311Y-126724576D01*
X200175050Y-126715158D01*
X200177504Y-126714172D01*
X200199209Y-126705719D01*
X200242349Y-126705719D01*
X200325964Y-126671084D01*
X200350086Y-126646961D01*
X200374353Y-126637511D01*
X200384262Y-126636659D01*
X200392990Y-126631893D01*
X200418492Y-126633716D01*
X200443966Y-126631526D01*
X200452761Y-126636165D01*
X200462682Y-126636875D01*
X200483152Y-126652198D01*
X200505764Y-126664126D01*
X200510654Y-126672783D01*
X200518617Y-126678744D01*
X200527553Y-126702700D01*
X200540127Y-126724961D01*
X200539560Y-126734889D01*
X200543036Y-126744208D01*
X200536848Y-126782396D01*
X200536145Y-126794717D01*
X200534480Y-126797008D01*
X200533913Y-126800512D01*
X200495500Y-126893246D01*
X200495500Y-130290804D01*
X200475815Y-130357843D01*
X200423011Y-130403598D01*
X200418954Y-130405365D01*
X200320137Y-130446296D01*
X200180837Y-130539373D01*
X200062373Y-130657837D01*
X199969295Y-130797139D01*
X199905184Y-130951917D01*
X199905182Y-130951925D01*
X199872500Y-131116228D01*
X199872500Y-131283771D01*
X199905182Y-131448074D01*
X199905184Y-131448082D01*
X199969295Y-131602860D01*
X200062373Y-131742162D01*
X200180837Y-131860626D01*
X200245069Y-131903544D01*
X200320137Y-131953703D01*
X200320138Y-131953703D01*
X200320139Y-131953704D01*
X200393364Y-131984035D01*
X200396040Y-131986191D01*
X200399434Y-131986742D01*
X200423045Y-132007954D01*
X200447767Y-132027876D01*
X200449610Y-132031819D01*
X200451410Y-132033436D01*
X200456955Y-132047530D01*
X200465495Y-132065798D01*
X200466665Y-132070065D01*
X200482184Y-132148082D01*
X200499584Y-132190091D01*
X200501637Y-132197573D01*
X200501144Y-132225055D01*
X200504083Y-132252387D01*
X200500527Y-132259490D01*
X200500385Y-132267431D01*
X200485112Y-132290284D01*
X200472808Y-132314866D01*
X200465977Y-132318919D01*
X200461564Y-132325523D01*
X200436360Y-132336491D01*
X200412720Y-132350519D01*
X200400645Y-132352035D01*
X200397499Y-132353405D01*
X200394113Y-132352856D01*
X200382053Y-132354371D01*
X198124988Y-132354371D01*
X198057949Y-132334686D01*
X198033687Y-132313514D01*
X198033549Y-132313653D01*
X198031515Y-132311619D01*
X198030707Y-132310914D01*
X198030103Y-132310207D01*
X197879786Y-132159890D01*
X197707820Y-132034951D01*
X197518414Y-131938444D01*
X197518413Y-131938443D01*
X197518412Y-131938443D01*
X197316243Y-131872754D01*
X197316241Y-131872753D01*
X197316240Y-131872753D01*
X197154957Y-131847208D01*
X197106287Y-131839500D01*
X196893713Y-131839500D01*
X196845042Y-131847208D01*
X196683760Y-131872753D01*
X196481585Y-131938444D01*
X196292179Y-132034951D01*
X196120213Y-132159890D01*
X195969890Y-132310213D01*
X195844951Y-132482179D01*
X195748444Y-132671585D01*
X195682753Y-132873760D01*
X195665177Y-132984731D01*
X195649500Y-133083713D01*
X195649500Y-133296287D01*
X195655723Y-133335575D01*
X195682753Y-133506239D01*
X195748444Y-133708414D01*
X195844951Y-133897820D01*
X195969890Y-134069786D01*
X196120213Y-134220109D01*
X196292182Y-134345050D01*
X196300946Y-134349516D01*
X196351742Y-134397491D01*
X196368536Y-134465312D01*
X196345998Y-134531447D01*
X196300946Y-134570484D01*
X196292182Y-134574949D01*
X196120213Y-134699890D01*
X195969890Y-134850213D01*
X195844951Y-135022179D01*
X195748444Y-135211585D01*
X195682753Y-135413760D01*
X195649500Y-135623713D01*
X195649500Y-135836286D01*
X195682552Y-136044972D01*
X195682754Y-136046243D01*
X195714448Y-136143788D01*
X195748444Y-136248414D01*
X195844951Y-136437820D01*
X195969890Y-136609786D01*
X196120213Y-136760109D01*
X196292182Y-136885050D01*
X196300946Y-136889516D01*
X196351742Y-136937491D01*
X196368536Y-137005312D01*
X196345998Y-137071447D01*
X196300946Y-137110484D01*
X196292182Y-137114949D01*
X196120213Y-137239890D01*
X195969890Y-137390213D01*
X195844951Y-137562179D01*
X195748444Y-137751585D01*
X195682753Y-137953760D01*
X195662942Y-138078842D01*
X195649500Y-138163713D01*
X195649500Y-138376287D01*
X195655723Y-138415575D01*
X195682753Y-138586239D01*
X195748444Y-138788414D01*
X195844951Y-138977820D01*
X195969890Y-139149786D01*
X196083818Y-139263714D01*
X196117303Y-139325037D01*
X196112319Y-139394729D01*
X196070447Y-139450662D01*
X196039471Y-139467577D01*
X195907912Y-139516646D01*
X195907906Y-139516649D01*
X195792812Y-139602809D01*
X195792809Y-139602812D01*
X195706649Y-139717906D01*
X195706645Y-139717913D01*
X195656403Y-139852620D01*
X195656401Y-139852627D01*
X195650000Y-139912155D01*
X195650000Y-140560000D01*
X196566988Y-140560000D01*
X196534075Y-140617007D01*
X196500000Y-140744174D01*
X196500000Y-140875826D01*
X196534075Y-141002993D01*
X196566988Y-141060000D01*
X195650000Y-141060000D01*
X195650000Y-141707844D01*
X195656401Y-141767372D01*
X195656403Y-141767379D01*
X195706645Y-141902086D01*
X195706649Y-141902093D01*
X195792809Y-142017187D01*
X195792812Y-142017190D01*
X195907906Y-142103350D01*
X195907913Y-142103354D01*
X196042620Y-142153596D01*
X196042627Y-142153598D01*
X196102155Y-142159999D01*
X196102172Y-142160000D01*
X196750000Y-142160000D01*
X196750000Y-141243012D01*
X196807007Y-141275925D01*
X196934174Y-141310000D01*
X197065826Y-141310000D01*
X197192993Y-141275925D01*
X197250000Y-141243012D01*
X197250000Y-142160000D01*
X197897828Y-142160000D01*
X197897844Y-142159999D01*
X197957372Y-142153598D01*
X197957379Y-142153596D01*
X198092086Y-142103354D01*
X198092093Y-142103350D01*
X198207187Y-142017190D01*
X198207190Y-142017187D01*
X198293350Y-141902093D01*
X198293354Y-141902086D01*
X198343596Y-141767379D01*
X198343598Y-141767372D01*
X198349999Y-141707844D01*
X198350000Y-141707827D01*
X198350000Y-141060000D01*
X197433012Y-141060000D01*
X197465925Y-141002993D01*
X197500000Y-140875826D01*
X197500000Y-140744174D01*
X197465925Y-140617007D01*
X197433012Y-140560000D01*
X198350000Y-140560000D01*
X198350000Y-139912172D01*
X198349999Y-139912155D01*
X198343598Y-139852627D01*
X198343596Y-139852620D01*
X198293354Y-139717913D01*
X198293350Y-139717906D01*
X198207190Y-139602812D01*
X198207187Y-139602809D01*
X198092093Y-139516649D01*
X198092088Y-139516646D01*
X197960528Y-139467577D01*
X197904595Y-139425705D01*
X197880178Y-139360241D01*
X197895030Y-139291968D01*
X197916175Y-139263720D01*
X198030104Y-139149792D01*
X198155051Y-138977816D01*
X198251557Y-138788412D01*
X198317246Y-138586243D01*
X198350500Y-138376287D01*
X198350500Y-138163713D01*
X198317246Y-137953757D01*
X198251557Y-137751588D01*
X198155051Y-137562184D01*
X198155050Y-137562183D01*
X198153589Y-137559315D01*
X198140693Y-137490646D01*
X198166969Y-137425905D01*
X198176384Y-137415348D01*
X200206044Y-135385690D01*
X200267367Y-135352205D01*
X200293725Y-135349371D01*
X201700805Y-135349371D01*
X201767844Y-135369056D01*
X201813599Y-135421860D01*
X201815366Y-135425918D01*
X201856295Y-135524732D01*
X201949373Y-135664033D01*
X201954530Y-135669190D01*
X201988015Y-135730513D01*
X201983031Y-135800205D01*
X201954530Y-135844552D01*
X201949376Y-135849705D01*
X201949373Y-135849708D01*
X201856295Y-135989010D01*
X201792184Y-136143788D01*
X201792182Y-136143796D01*
X201759500Y-136308099D01*
X201759500Y-136475642D01*
X201792182Y-136639945D01*
X201792184Y-136639953D01*
X201856295Y-136794731D01*
X201949373Y-136934033D01*
X202067837Y-137052497D01*
X202154621Y-137110484D01*
X202207137Y-137145574D01*
X202361918Y-137209687D01*
X202513760Y-137239890D01*
X202526228Y-137242370D01*
X202526232Y-137242371D01*
X202526233Y-137242371D01*
X202693768Y-137242371D01*
X202693769Y-137242370D01*
X202858082Y-137209687D01*
X203012863Y-137145574D01*
X203152162Y-137052497D01*
X203270626Y-136934033D01*
X203363703Y-136794734D01*
X203427816Y-136639953D01*
X203460500Y-136475638D01*
X203460500Y-136308104D01*
X203427816Y-136143789D01*
X203386883Y-136044971D01*
X203379415Y-135975503D01*
X203410690Y-135913024D01*
X203413735Y-135909867D01*
X206692866Y-132630739D01*
X206692866Y-132630737D01*
X206692868Y-132630736D01*
X206710183Y-132588931D01*
X206727500Y-132547124D01*
X206727500Y-132456618D01*
X206727500Y-132218652D01*
X208280852Y-132218652D01*
X208280855Y-132302863D01*
X208280855Y-146263253D01*
X208280854Y-146263262D01*
X208280855Y-146313137D01*
X208280855Y-146365029D01*
X208280871Y-146365197D01*
X208280872Y-146407613D01*
X208310437Y-146594248D01*
X208310437Y-146594249D01*
X208368829Y-146773951D01*
X208368831Y-146773956D01*
X208454617Y-146942319D01*
X208565684Y-147095189D01*
X208699297Y-147228804D01*
X208699300Y-147228806D01*
X208699302Y-147228808D01*
X208852123Y-147339842D01*
X208852166Y-147339873D01*
X209020527Y-147425662D01*
X209200236Y-147484059D01*
X209386867Y-147513626D01*
X209441468Y-147513628D01*
X209441473Y-147513630D01*
X209481346Y-147513630D01*
X209521228Y-147513632D01*
X209521229Y-147513631D01*
X209533038Y-147513632D01*
X209533071Y-147513630D01*
X213533253Y-147513630D01*
X213533980Y-147513556D01*
X213575825Y-147513559D01*
X213762457Y-147484008D01*
X213942169Y-147425624D01*
X214110535Y-147339846D01*
X214263409Y-147228786D01*
X214397027Y-147095178D01*
X214508099Y-146942312D01*
X214593890Y-146773952D01*
X214652287Y-146594245D01*
X214681852Y-146407615D01*
X214681853Y-146353016D01*
X214681855Y-146353013D01*
X214681855Y-146299500D01*
X214681856Y-146273254D01*
X214681855Y-146273251D01*
X214681855Y-134702164D01*
X216663564Y-134702164D01*
X216663564Y-134869707D01*
X216696246Y-135034010D01*
X216696248Y-135034018D01*
X216760359Y-135188796D01*
X216853437Y-135328098D01*
X216971901Y-135446562D01*
X217064558Y-135508473D01*
X217111201Y-135539639D01*
X217265982Y-135603752D01*
X217366334Y-135623713D01*
X217430292Y-135636435D01*
X217430296Y-135636436D01*
X217430297Y-135636436D01*
X217597832Y-135636436D01*
X217597833Y-135636435D01*
X217762146Y-135603752D01*
X217860964Y-135562819D01*
X217930429Y-135555351D01*
X217992909Y-135586625D01*
X217996095Y-135589700D01*
X219586234Y-137179839D01*
X219619719Y-137241162D01*
X219614735Y-137310854D01*
X219613114Y-137314972D01*
X219572185Y-137413784D01*
X219572182Y-137413796D01*
X219539500Y-137578099D01*
X219539500Y-137745642D01*
X219572182Y-137909945D01*
X219572184Y-137909953D01*
X219636295Y-138064731D01*
X219729373Y-138204033D01*
X219847837Y-138322497D01*
X219928340Y-138376287D01*
X219987137Y-138415574D01*
X220141918Y-138479687D01*
X220306228Y-138512370D01*
X220306232Y-138512371D01*
X220306233Y-138512371D01*
X220473768Y-138512371D01*
X220473769Y-138512370D01*
X220638082Y-138479687D01*
X220792863Y-138415574D01*
X220932162Y-138322497D01*
X221050626Y-138204033D01*
X221143703Y-138064734D01*
X221207816Y-137909953D01*
X221240500Y-137745638D01*
X221240500Y-137578104D01*
X221207816Y-137413789D01*
X221143703Y-137259008D01*
X221082733Y-137167760D01*
X221050626Y-137119708D01*
X220932162Y-137001244D01*
X220792860Y-136908166D01*
X220638082Y-136844055D01*
X220638074Y-136844053D01*
X220473771Y-136811371D01*
X220473767Y-136811371D01*
X220306233Y-136811371D01*
X220306228Y-136811371D01*
X220141925Y-136844053D01*
X220141917Y-136844055D01*
X220043102Y-136884986D01*
X219973632Y-136892455D01*
X219911153Y-136861180D01*
X219907968Y-136858106D01*
X218317829Y-135267967D01*
X218284344Y-135206644D01*
X218289328Y-135136952D01*
X218290949Y-135132833D01*
X218292282Y-135129616D01*
X218331880Y-135034018D01*
X218364564Y-134869703D01*
X218364564Y-134702169D01*
X218331880Y-134537854D01*
X218267767Y-134383073D01*
X218214969Y-134304055D01*
X218174690Y-134243773D01*
X218056226Y-134125309D01*
X217916924Y-134032231D01*
X217762146Y-133968120D01*
X217762138Y-133968118D01*
X217597835Y-133935436D01*
X217597831Y-133935436D01*
X217430297Y-133935436D01*
X217430292Y-133935436D01*
X217265989Y-133968118D01*
X217265981Y-133968120D01*
X217111203Y-134032231D01*
X216971901Y-134125309D01*
X216853437Y-134243773D01*
X216760359Y-134383075D01*
X216696248Y-134537853D01*
X216696246Y-134537861D01*
X216663564Y-134702164D01*
X214681855Y-134702164D01*
X214681855Y-132364513D01*
X214681869Y-132364465D01*
X214681870Y-132313136D01*
X214681872Y-132218652D01*
X214652316Y-132032011D01*
X214652316Y-132032010D01*
X214652315Y-132032006D01*
X214593926Y-131852298D01*
X214593925Y-131852297D01*
X214593924Y-131852292D01*
X214508136Y-131683920D01*
X214397064Y-131531043D01*
X214397061Y-131531040D01*
X214397059Y-131531037D01*
X214263445Y-131397426D01*
X214263441Y-131397422D01*
X214110570Y-131286358D01*
X214110559Y-131286351D01*
X213942195Y-131200570D01*
X213942187Y-131200567D01*
X213762472Y-131142180D01*
X213762473Y-131142180D01*
X213575831Y-131112626D01*
X213575830Y-131112626D01*
X213481346Y-131112630D01*
X209533071Y-131112630D01*
X209531797Y-131112623D01*
X209531505Y-131112620D01*
X209531282Y-131112552D01*
X209386865Y-131112559D01*
X209200215Y-131142130D01*
X209020508Y-131200529D01*
X208852141Y-131286324D01*
X208852135Y-131286328D01*
X208699262Y-131397406D01*
X208699261Y-131397407D01*
X208565650Y-131531026D01*
X208540318Y-131565896D01*
X208454580Y-131683914D01*
X208454579Y-131683916D01*
X208368793Y-131852294D01*
X208310409Y-132032004D01*
X208310409Y-132032006D01*
X208310408Y-132032010D01*
X208307950Y-132047530D01*
X208280852Y-132218652D01*
X206727500Y-132218652D01*
X206727500Y-119994747D01*
X206692865Y-119911132D01*
X206628868Y-119847135D01*
X204345857Y-117564124D01*
X204312372Y-117502801D01*
X204317356Y-117433109D01*
X204323053Y-117420148D01*
X204342285Y-117382403D01*
X204416309Y-117237123D01*
X204491726Y-117005014D01*
X204529905Y-116763965D01*
X204529905Y-116519911D01*
X206508905Y-116519911D01*
X206508905Y-116763964D01*
X206525610Y-116869438D01*
X206547084Y-117005014D01*
X206622501Y-117237123D01*
X206729080Y-117446297D01*
X206733301Y-117454580D01*
X206876744Y-117652014D01*
X206876748Y-117652019D01*
X207049323Y-117824594D01*
X207049328Y-117824598D01*
X207194221Y-117929868D01*
X207246766Y-117968044D01*
X207464220Y-118078842D01*
X207696329Y-118154259D01*
X207937378Y-118192438D01*
X207937379Y-118192438D01*
X208181431Y-118192438D01*
X208181432Y-118192438D01*
X208422481Y-118154259D01*
X208654590Y-118078842D01*
X208872044Y-117968044D01*
X209069488Y-117824593D01*
X209242060Y-117652021D01*
X209385511Y-117454577D01*
X209496309Y-117237123D01*
X209571726Y-117005014D01*
X209609905Y-116763965D01*
X209609905Y-116519911D01*
X209571726Y-116278862D01*
X209496309Y-116046753D01*
X209385511Y-115829299D01*
X209367184Y-115804074D01*
X209242065Y-115631861D01*
X209242061Y-115631856D01*
X209069486Y-115459281D01*
X209069481Y-115459277D01*
X208872047Y-115315834D01*
X208872046Y-115315833D01*
X208872044Y-115315832D01*
X208654590Y-115205034D01*
X208422481Y-115129617D01*
X208422479Y-115129616D01*
X208422477Y-115129616D01*
X208254174Y-115102959D01*
X208181432Y-115091438D01*
X207937378Y-115091438D01*
X207881498Y-115100288D01*
X207696332Y-115129616D01*
X207464217Y-115205035D01*
X207246762Y-115315834D01*
X207049328Y-115459277D01*
X207049323Y-115459281D01*
X206876748Y-115631856D01*
X206876744Y-115631861D01*
X206733301Y-115829295D01*
X206622502Y-116046750D01*
X206547083Y-116278865D01*
X206508905Y-116519911D01*
X204529905Y-116519911D01*
X204491726Y-116278862D01*
X204416309Y-116046753D01*
X204305511Y-115829299D01*
X204287184Y-115804074D01*
X204162065Y-115631861D01*
X204162061Y-115631856D01*
X203989486Y-115459281D01*
X203989481Y-115459277D01*
X203792047Y-115315834D01*
X203792046Y-115315833D01*
X203792044Y-115315832D01*
X203574590Y-115205034D01*
X203342481Y-115129617D01*
X203342479Y-115129616D01*
X203342477Y-115129616D01*
X203174174Y-115102959D01*
X203101432Y-115091438D01*
X202857378Y-115091438D01*
X202801498Y-115100288D01*
X202616332Y-115129616D01*
X202384217Y-115205035D01*
X202166762Y-115315834D01*
X201969328Y-115459277D01*
X201969323Y-115459281D01*
X201796748Y-115631856D01*
X201796744Y-115631861D01*
X201653301Y-115829295D01*
X201542502Y-116046748D01*
X201467083Y-116278861D01*
X201462178Y-116309836D01*
X201432249Y-116372971D01*
X201372937Y-116409902D01*
X201339705Y-116414438D01*
X195287533Y-116414438D01*
X195220494Y-116394753D01*
X195199852Y-116378119D01*
X191289596Y-112467863D01*
X191285566Y-112460483D01*
X191278782Y-112455513D01*
X191269069Y-112430271D01*
X191256111Y-112406540D01*
X191256710Y-112398153D01*
X191253691Y-112390305D01*
X191259165Y-112363823D01*
X191261095Y-112336848D01*
X191266134Y-112330115D01*
X191267837Y-112321882D01*
X191286760Y-112302563D01*
X191302967Y-112280915D01*
X191312115Y-112276679D01*
X191316730Y-112271969D01*
X191344038Y-112261900D01*
X191349669Y-112259294D01*
X191351358Y-112258908D01*
X191449514Y-112239384D01*
X191465075Y-112232938D01*
X191475261Y-112230612D01*
X191484410Y-112231171D01*
X191502869Y-112227500D01*
X192698090Y-112227500D01*
X192708242Y-112228500D01*
X192715331Y-112228500D01*
X193291758Y-112228500D01*
X193301910Y-112227500D01*
X195214337Y-112227500D01*
X195214338Y-112227500D01*
X195297953Y-112192865D01*
X198441223Y-109049593D01*
X198502544Y-109016110D01*
X198572236Y-109021094D01*
X198601787Y-109036958D01*
X198737654Y-109135670D01*
X198737656Y-109135671D01*
X198737659Y-109135673D01*
X198955113Y-109246471D01*
X199187222Y-109321888D01*
X199428271Y-109360067D01*
X199428272Y-109360067D01*
X199672324Y-109360067D01*
X199672325Y-109360067D01*
X199913374Y-109321888D01*
X200145483Y-109246471D01*
X200362937Y-109135673D01*
X200560381Y-108992222D01*
X200732953Y-108819650D01*
X200876404Y-108622206D01*
X200987202Y-108404752D01*
X201062619Y-108172643D01*
X201100798Y-107931594D01*
X201100798Y-107687540D01*
X201062619Y-107446491D01*
X201020589Y-107317135D01*
X218614500Y-107317135D01*
X218614500Y-108682870D01*
X218614501Y-108682876D01*
X218620908Y-108742483D01*
X218671202Y-108877328D01*
X218671206Y-108877335D01*
X218757452Y-108992544D01*
X218757455Y-108992547D01*
X218872664Y-109078793D01*
X218872671Y-109078797D01*
X219007517Y-109129091D01*
X219007516Y-109129091D01*
X219014444Y-109129835D01*
X219067127Y-109135500D01*
X219530920Y-109135499D01*
X219597957Y-109155183D01*
X219643712Y-109207987D01*
X219653656Y-109277146D01*
X219624631Y-109340702D01*
X219565853Y-109378476D01*
X219550317Y-109381972D01*
X219484100Y-109392460D01*
X219484098Y-109392460D01*
X219314121Y-109447689D01*
X219314118Y-109447691D01*
X219154867Y-109528833D01*
X219010270Y-109633890D01*
X218883890Y-109760270D01*
X218778833Y-109904867D01*
X218697691Y-110064118D01*
X218697689Y-110064121D01*
X218642460Y-110234098D01*
X218642460Y-110234101D01*
X218614500Y-110410634D01*
X218614500Y-110589365D01*
X218642460Y-110765898D01*
X218642460Y-110765901D01*
X218697689Y-110935878D01*
X218697691Y-110935881D01*
X218778833Y-111095132D01*
X218883889Y-111239728D01*
X219010272Y-111366111D01*
X219154868Y-111471167D01*
X219314119Y-111552309D01*
X219314121Y-111552310D01*
X219472670Y-111603825D01*
X219484103Y-111607540D01*
X219610295Y-111627527D01*
X219673430Y-111657456D01*
X219710361Y-111716768D01*
X219709363Y-111786630D01*
X219670753Y-111844863D01*
X219610295Y-111872473D01*
X219484101Y-111892460D01*
X219484098Y-111892460D01*
X219314121Y-111947689D01*
X219314118Y-111947691D01*
X219154867Y-112028833D01*
X219010270Y-112133890D01*
X218883890Y-112260270D01*
X218778833Y-112404867D01*
X218697691Y-112564118D01*
X218697689Y-112564121D01*
X218642460Y-112734098D01*
X218642460Y-112734101D01*
X218633303Y-112791918D01*
X218614500Y-112910634D01*
X218614500Y-113089366D01*
X218622980Y-113142908D01*
X218642460Y-113265898D01*
X218642460Y-113265901D01*
X218697689Y-113435878D01*
X218697691Y-113435881D01*
X218778833Y-113595132D01*
X218883889Y-113739728D01*
X219010272Y-113866111D01*
X219154868Y-113971167D01*
X219314119Y-114052309D01*
X219314121Y-114052310D01*
X219472670Y-114103825D01*
X219484103Y-114107540D01*
X219660634Y-114135500D01*
X219660635Y-114135500D01*
X219839365Y-114135500D01*
X219839366Y-114135500D01*
X220015897Y-114107540D01*
X220015900Y-114107539D01*
X220015901Y-114107539D01*
X220185878Y-114052310D01*
X220185878Y-114052309D01*
X220185881Y-114052309D01*
X220345132Y-113971167D01*
X220489728Y-113866111D01*
X220616111Y-113739728D01*
X220721167Y-113595132D01*
X220802309Y-113435881D01*
X220830051Y-113350500D01*
X220857539Y-113265901D01*
X220857539Y-113265900D01*
X220857540Y-113265897D01*
X220885500Y-113089366D01*
X220885500Y-112910634D01*
X220857540Y-112734103D01*
X220857539Y-112734099D01*
X220857539Y-112734098D01*
X220802310Y-112564121D01*
X220802308Y-112564118D01*
X220769639Y-112500000D01*
X220721167Y-112404868D01*
X220616111Y-112260272D01*
X220489728Y-112133889D01*
X220345132Y-112028833D01*
X220185881Y-111947691D01*
X220185878Y-111947689D01*
X220015900Y-111892460D01*
X219923904Y-111877889D01*
X219889703Y-111872472D01*
X219826569Y-111842544D01*
X219789638Y-111783232D01*
X219790636Y-111713370D01*
X219829246Y-111655137D01*
X219889703Y-111627527D01*
X220015897Y-111607540D01*
X220015900Y-111607539D01*
X220015901Y-111607539D01*
X220185878Y-111552310D01*
X220185878Y-111552309D01*
X220185881Y-111552309D01*
X220345132Y-111471167D01*
X220489728Y-111366111D01*
X220616111Y-111239728D01*
X220721167Y-111095132D01*
X220802309Y-110935881D01*
X220805769Y-110925233D01*
X220857539Y-110765901D01*
X220857539Y-110765900D01*
X220857540Y-110765897D01*
X220885500Y-110589366D01*
X220885500Y-110410634D01*
X220857540Y-110234103D01*
X220857539Y-110234099D01*
X220857539Y-110234098D01*
X220802310Y-110064121D01*
X220802308Y-110064118D01*
X220797278Y-110054245D01*
X220721167Y-109904868D01*
X220616111Y-109760272D01*
X220489728Y-109633889D01*
X220345132Y-109528833D01*
X220185881Y-109447691D01*
X220185878Y-109447689D01*
X220015899Y-109392460D01*
X219949681Y-109381972D01*
X219886546Y-109352043D01*
X219849615Y-109292731D01*
X219850613Y-109222868D01*
X219889223Y-109164636D01*
X219953187Y-109136522D01*
X219969073Y-109135499D01*
X220432872Y-109135499D01*
X220492483Y-109129091D01*
X220627331Y-109078796D01*
X220742546Y-108992546D01*
X220828796Y-108877331D01*
X220879091Y-108742483D01*
X220885500Y-108682873D01*
X220885499Y-107317128D01*
X220879734Y-107263500D01*
X220879091Y-107257516D01*
X220828797Y-107122671D01*
X220828793Y-107122664D01*
X220742547Y-107007455D01*
X220742544Y-107007452D01*
X220627335Y-106921206D01*
X220627328Y-106921202D01*
X220492482Y-106870908D01*
X220492483Y-106870908D01*
X220432883Y-106864501D01*
X220432881Y-106864500D01*
X220432873Y-106864500D01*
X220432864Y-106864500D01*
X219067129Y-106864500D01*
X219067123Y-106864501D01*
X219007516Y-106870908D01*
X218872671Y-106921202D01*
X218872664Y-106921206D01*
X218757455Y-107007452D01*
X218757452Y-107007455D01*
X218671206Y-107122664D01*
X218671202Y-107122671D01*
X218620908Y-107257517D01*
X218614501Y-107317116D01*
X218614501Y-107317123D01*
X218614500Y-107317135D01*
X201020589Y-107317135D01*
X200987202Y-107214382D01*
X200876404Y-106996928D01*
X200821389Y-106921206D01*
X200732958Y-106799490D01*
X200732954Y-106799485D01*
X200560379Y-106626910D01*
X200560374Y-106626906D01*
X200362940Y-106483463D01*
X200362939Y-106483462D01*
X200362937Y-106483461D01*
X200145483Y-106372663D01*
X199913374Y-106297246D01*
X199913372Y-106297245D01*
X199913370Y-106297245D01*
X199744080Y-106270432D01*
X199672325Y-106259067D01*
X199428271Y-106259067D01*
X199372391Y-106267917D01*
X199187225Y-106297245D01*
X199131830Y-106315244D01*
X199037389Y-106345930D01*
X198955110Y-106372664D01*
X198737655Y-106483463D01*
X198540221Y-106626906D01*
X198540216Y-106626910D01*
X198367641Y-106799485D01*
X198367637Y-106799490D01*
X198224194Y-106996924D01*
X198113395Y-107214379D01*
X198037976Y-107446494D01*
X197999798Y-107687540D01*
X197999798Y-107931593D01*
X198037637Y-108170500D01*
X198037977Y-108172643D01*
X198106060Y-108382181D01*
X198113395Y-108404754D01*
X198183613Y-108542565D01*
X198196509Y-108611234D01*
X198170233Y-108675975D01*
X198160809Y-108686541D01*
X195111171Y-111736181D01*
X195049848Y-111769666D01*
X195023490Y-111772500D01*
X193188074Y-111772500D01*
X193177922Y-111773500D01*
X192822078Y-111773500D01*
X192811926Y-111772500D01*
X192804837Y-111772500D01*
X192149884Y-111772500D01*
X192082845Y-111752815D01*
X192037090Y-111700011D01*
X192027146Y-111630853D01*
X192028267Y-111624309D01*
X192035931Y-111585777D01*
X192051932Y-111505335D01*
X192051932Y-111337801D01*
X192019248Y-111173486D01*
X191955135Y-111018705D01*
X191892679Y-110925233D01*
X191862058Y-110879405D01*
X191743594Y-110760941D01*
X191604292Y-110667863D01*
X191449514Y-110603752D01*
X191449506Y-110603750D01*
X191285203Y-110571068D01*
X191285199Y-110571068D01*
X191117665Y-110571068D01*
X191117660Y-110571068D01*
X190953357Y-110603750D01*
X190953349Y-110603752D01*
X190798572Y-110667863D01*
X190654641Y-110764034D01*
X190587964Y-110784911D01*
X190520584Y-110766426D01*
X190498070Y-110748612D01*
X187499594Y-107750136D01*
X187415977Y-107715500D01*
X178648595Y-107715500D01*
X178581556Y-107695815D01*
X178535801Y-107643011D01*
X178525857Y-107573853D01*
X178554882Y-107510297D01*
X178560914Y-107503819D01*
X179959735Y-106104998D01*
X181240800Y-104823933D01*
X182257648Y-104823933D01*
X182373489Y-105663807D01*
X182373492Y-105663820D01*
X182387968Y-105721924D01*
X182456149Y-105848511D01*
X182456151Y-105848514D01*
X182557226Y-105950755D01*
X182683022Y-106020386D01*
X182683026Y-106020388D01*
X182823339Y-106051755D01*
X182823346Y-106051756D01*
X182883193Y-106049961D01*
X182883206Y-106049960D01*
X183227767Y-106002435D01*
X183227768Y-106002435D01*
X183050146Y-104714628D01*
X183050146Y-104714627D01*
X182257649Y-104823933D01*
X182257648Y-104823933D01*
X181240800Y-104823933D01*
X181418421Y-104646312D01*
X183545456Y-104646312D01*
X183723078Y-105934119D01*
X184067647Y-105886595D01*
X184067654Y-105886594D01*
X184125758Y-105872119D01*
X184125759Y-105872118D01*
X184252344Y-105803938D01*
X184354591Y-105702857D01*
X184424221Y-105577064D01*
X184424223Y-105577060D01*
X184455590Y-105436747D01*
X184455591Y-105436740D01*
X184453796Y-105376893D01*
X184453795Y-105376879D01*
X184337954Y-104537007D01*
X184337954Y-104537006D01*
X183545457Y-104646312D01*
X183545456Y-104646312D01*
X181418421Y-104646312D01*
X181957976Y-104106757D01*
X182019295Y-104073275D01*
X182088987Y-104078259D01*
X182144920Y-104120131D01*
X182168490Y-104177498D01*
X182189334Y-104328622D01*
X183063849Y-104208005D01*
X183079533Y-104217060D01*
X183155833Y-104237504D01*
X183234825Y-104237504D01*
X183311125Y-104217060D01*
X183379534Y-104177564D01*
X183394729Y-104162368D01*
X184269639Y-104041695D01*
X184269640Y-104041695D01*
X184189492Y-103460600D01*
X184199832Y-103391500D01*
X184245889Y-103338960D01*
X184281741Y-103323490D01*
X184319325Y-103313923D01*
X184474841Y-103234208D01*
X184608720Y-103121887D01*
X184714249Y-102982591D01*
X184786134Y-102823306D01*
X184820775Y-102652017D01*
X184819451Y-102598802D01*
X184837463Y-102531297D01*
X184889112Y-102484243D01*
X184958002Y-102472582D01*
X185022260Y-102500018D01*
G37*
%TD.AperFunction*%
%TA.AperFunction,Conductor*%
G36*
X115721579Y-106243758D02*
G01*
X115728057Y-106249790D01*
X117614129Y-108135864D01*
X117614130Y-108135864D01*
X117614132Y-108135866D01*
X117673252Y-108160353D01*
X117673255Y-108160355D01*
X117673256Y-108160355D01*
X117683401Y-108164557D01*
X117697747Y-108170500D01*
X117697748Y-108170500D01*
X117788253Y-108170500D01*
X127880681Y-108170500D01*
X127947720Y-108190185D01*
X127993475Y-108242989D01*
X128003419Y-108312147D01*
X127974394Y-108375703D01*
X127968362Y-108382181D01*
X125984132Y-110366411D01*
X125920135Y-110430408D01*
X125907829Y-110460118D01*
X125885500Y-110514022D01*
X125885500Y-110741404D01*
X125865815Y-110808443D01*
X125849181Y-110829085D01*
X124580135Y-112098130D01*
X124518812Y-112131615D01*
X124449120Y-112126631D01*
X124393187Y-112084759D01*
X124389352Y-112079340D01*
X124320547Y-111976367D01*
X124320544Y-111976363D01*
X124202083Y-111857902D01*
X124062781Y-111764824D01*
X123908003Y-111700713D01*
X123907995Y-111700711D01*
X123743692Y-111668029D01*
X123743688Y-111668029D01*
X123576154Y-111668029D01*
X123576149Y-111668029D01*
X123411846Y-111700711D01*
X123411838Y-111700713D01*
X123257060Y-111764824D01*
X123117758Y-111857902D01*
X122999294Y-111976366D01*
X122906216Y-112115668D01*
X122842105Y-112270446D01*
X122842103Y-112270454D01*
X122809421Y-112434757D01*
X122809421Y-112608388D01*
X122806557Y-112608388D01*
X122795801Y-112665022D01*
X122747722Y-112715719D01*
X122685432Y-112732500D01*
X121936171Y-112732500D01*
X121869132Y-112712815D01*
X121823377Y-112660011D01*
X121818240Y-112646818D01*
X121817246Y-112643760D01*
X121817246Y-112643757D01*
X121751557Y-112441588D01*
X121655051Y-112252184D01*
X121655049Y-112252181D01*
X121655048Y-112252179D01*
X121530109Y-112080213D01*
X121379786Y-111929890D01*
X121207820Y-111804951D01*
X121018414Y-111708444D01*
X121018413Y-111708443D01*
X121018412Y-111708443D01*
X120816243Y-111642754D01*
X120816241Y-111642753D01*
X120816240Y-111642753D01*
X120654957Y-111617208D01*
X120606287Y-111609500D01*
X120393713Y-111609500D01*
X120345042Y-111617208D01*
X120183760Y-111642753D01*
X119981585Y-111708444D01*
X119792179Y-111804951D01*
X119620213Y-111929890D01*
X119469890Y-112080213D01*
X119344951Y-112252179D01*
X119248444Y-112441585D01*
X119182753Y-112643760D01*
X119149500Y-112853713D01*
X119149500Y-113066286D01*
X119182573Y-113275105D01*
X119182754Y-113276243D01*
X119247009Y-113474000D01*
X119248444Y-113478414D01*
X119344951Y-113667820D01*
X119469890Y-113839786D01*
X119620213Y-113990109D01*
X119792182Y-114115050D01*
X119800946Y-114119516D01*
X119851742Y-114167491D01*
X119868536Y-114235312D01*
X119845998Y-114301447D01*
X119800946Y-114340484D01*
X119792182Y-114344949D01*
X119620213Y-114469890D01*
X119469890Y-114620213D01*
X119344951Y-114792179D01*
X119248444Y-114981585D01*
X119182753Y-115183760D01*
X119149500Y-115393713D01*
X119149500Y-115606286D01*
X119182753Y-115816239D01*
X119248444Y-116018414D01*
X119344951Y-116207820D01*
X119469890Y-116379786D01*
X119620213Y-116530109D01*
X119792182Y-116655050D01*
X119800946Y-116659516D01*
X119851742Y-116707491D01*
X119868536Y-116775312D01*
X119845998Y-116841447D01*
X119800946Y-116880484D01*
X119792182Y-116884949D01*
X119620213Y-117009890D01*
X119469890Y-117160213D01*
X119344951Y-117332179D01*
X119248444Y-117521585D01*
X119182753Y-117723760D01*
X119149500Y-117933713D01*
X119149500Y-118146286D01*
X119177046Y-118320208D01*
X119182754Y-118356243D01*
X119244409Y-118545998D01*
X119248444Y-118558414D01*
X119344951Y-118747820D01*
X119469890Y-118919786D01*
X119583818Y-119033714D01*
X119617303Y-119095037D01*
X119612319Y-119164729D01*
X119570447Y-119220662D01*
X119539471Y-119237577D01*
X119407912Y-119286646D01*
X119407906Y-119286649D01*
X119292812Y-119372809D01*
X119292809Y-119372812D01*
X119206649Y-119487906D01*
X119206645Y-119487913D01*
X119156403Y-119622620D01*
X119156401Y-119622627D01*
X119150000Y-119682155D01*
X119150000Y-120330000D01*
X120066988Y-120330000D01*
X120034075Y-120387007D01*
X120000000Y-120514174D01*
X120000000Y-120645826D01*
X120034075Y-120772993D01*
X120066988Y-120830000D01*
X119150000Y-120830000D01*
X119150000Y-121477844D01*
X119156401Y-121537372D01*
X119156403Y-121537379D01*
X119206645Y-121672086D01*
X119206649Y-121672093D01*
X119292809Y-121787187D01*
X119292812Y-121787190D01*
X119407906Y-121873350D01*
X119407913Y-121873354D01*
X119542620Y-121923596D01*
X119542627Y-121923598D01*
X119602155Y-121929999D01*
X119602172Y-121930000D01*
X120250000Y-121930000D01*
X120250000Y-121013012D01*
X120307007Y-121045925D01*
X120434174Y-121080000D01*
X120565826Y-121080000D01*
X120692993Y-121045925D01*
X120750000Y-121013012D01*
X120750000Y-121930000D01*
X121397828Y-121930000D01*
X121397844Y-121929999D01*
X121457372Y-121923598D01*
X121457376Y-121923597D01*
X121512702Y-121902962D01*
X121582394Y-121897978D01*
X121643717Y-121931462D01*
X121677202Y-121992785D01*
X121672218Y-122062477D01*
X121643718Y-122106824D01*
X121514360Y-122236182D01*
X121453040Y-122269666D01*
X121426681Y-122272500D01*
X119520546Y-122272500D01*
X119443866Y-122304263D01*
X119436929Y-122307136D01*
X115977834Y-125766233D01*
X114871132Y-126872935D01*
X114807135Y-126936932D01*
X114786846Y-126985911D01*
X114772500Y-127020546D01*
X114772500Y-127090804D01*
X114752815Y-127157843D01*
X114700011Y-127203598D01*
X114695954Y-127205365D01*
X114597137Y-127246296D01*
X114457837Y-127339373D01*
X114339373Y-127457837D01*
X114246295Y-127597139D01*
X114182184Y-127751917D01*
X114182182Y-127751925D01*
X114149500Y-127916228D01*
X114149500Y-128083771D01*
X114182182Y-128248074D01*
X114182184Y-128248082D01*
X114246295Y-128402860D01*
X114339373Y-128542162D01*
X114457837Y-128660626D01*
X114550494Y-128722537D01*
X114597137Y-128753703D01*
X114751918Y-128817816D01*
X114916228Y-128850499D01*
X114916232Y-128850500D01*
X114916233Y-128850500D01*
X115083768Y-128850500D01*
X115083769Y-128850499D01*
X115248082Y-128817816D01*
X115273048Y-128807474D01*
X115342513Y-128800005D01*
X115404993Y-128831278D01*
X115440647Y-128891366D01*
X115444500Y-128922035D01*
X115444500Y-135177675D01*
X115424815Y-135244714D01*
X115372011Y-135290469D01*
X115302853Y-135300413D01*
X115264205Y-135288160D01*
X115235955Y-135273766D01*
X115101061Y-135205034D01*
X114868952Y-135129617D01*
X114868950Y-135129616D01*
X114868948Y-135129616D01*
X114682901Y-135100149D01*
X114627903Y-135091438D01*
X114383849Y-135091438D01*
X114328851Y-135100149D01*
X114142803Y-135129616D01*
X113910688Y-135205035D01*
X113693233Y-135315834D01*
X113495799Y-135459277D01*
X113495794Y-135459281D01*
X113323219Y-135631856D01*
X113323215Y-135631861D01*
X113179772Y-135829295D01*
X113068973Y-136046750D01*
X112993554Y-136278865D01*
X112988923Y-136308104D01*
X112955376Y-136519911D01*
X112955376Y-136763965D01*
X112966897Y-136836707D01*
X112992760Y-137000000D01*
X112993555Y-137005014D01*
X113068972Y-137237123D01*
X113159777Y-137415339D01*
X113179772Y-137454580D01*
X113323215Y-137652014D01*
X113323219Y-137652019D01*
X113495794Y-137824594D01*
X113495799Y-137824598D01*
X113554731Y-137867414D01*
X113693237Y-137968044D01*
X113910691Y-138078842D01*
X114142800Y-138154259D01*
X114383849Y-138192438D01*
X114383850Y-138192438D01*
X114627902Y-138192438D01*
X114627903Y-138192438D01*
X114868952Y-138154259D01*
X115101061Y-138078842D01*
X115318515Y-137968044D01*
X115515959Y-137824593D01*
X115560819Y-137779733D01*
X115622142Y-137746248D01*
X115691834Y-137751232D01*
X115747767Y-137793104D01*
X115772184Y-137858568D01*
X115772500Y-137867414D01*
X115772500Y-142994747D01*
X115772500Y-143085253D01*
X115790876Y-143129617D01*
X115807136Y-143168870D01*
X116179654Y-143541387D01*
X116213139Y-143602710D01*
X116208155Y-143672401D01*
X116192291Y-143701953D01*
X116099772Y-143829295D01*
X115988973Y-144046750D01*
X115913554Y-144278865D01*
X115875376Y-144519911D01*
X115875376Y-144763964D01*
X115913554Y-145005010D01*
X115988973Y-145237125D01*
X116099772Y-145454580D01*
X116243215Y-145652014D01*
X116243219Y-145652019D01*
X116415794Y-145824594D01*
X116415799Y-145824598D01*
X116588012Y-145949717D01*
X116613237Y-145968044D01*
X116830691Y-146078842D01*
X117062800Y-146154259D01*
X117303849Y-146192438D01*
X117303850Y-146192438D01*
X117547902Y-146192438D01*
X117547903Y-146192438D01*
X117788952Y-146154259D01*
X118021061Y-146078842D01*
X118238515Y-145968044D01*
X118435959Y-145824593D01*
X118608531Y-145652021D01*
X118751982Y-145454577D01*
X118862780Y-145237123D01*
X118938197Y-145005014D01*
X118976376Y-144763965D01*
X118976376Y-144519911D01*
X120955376Y-144519911D01*
X120955376Y-144763964D01*
X120993554Y-145005010D01*
X121068973Y-145237125D01*
X121179772Y-145454580D01*
X121323215Y-145652014D01*
X121323219Y-145652019D01*
X121495794Y-145824594D01*
X121495799Y-145824598D01*
X121668012Y-145949717D01*
X121693237Y-145968044D01*
X121910691Y-146078842D01*
X122142800Y-146154259D01*
X122383849Y-146192438D01*
X122383850Y-146192438D01*
X122627902Y-146192438D01*
X122627903Y-146192438D01*
X122868952Y-146154259D01*
X123101061Y-146078842D01*
X123318515Y-145968044D01*
X123515959Y-145824593D01*
X123688531Y-145652021D01*
X123831982Y-145454577D01*
X123942780Y-145237123D01*
X124018197Y-145005014D01*
X124056376Y-144763965D01*
X124056376Y-144519911D01*
X124018197Y-144278862D01*
X123942780Y-144046753D01*
X123831982Y-143829299D01*
X123739460Y-143701953D01*
X123688536Y-143631861D01*
X123688532Y-143631856D01*
X123515957Y-143459281D01*
X123515952Y-143459277D01*
X123318518Y-143315834D01*
X123318517Y-143315833D01*
X123318515Y-143315832D01*
X123101061Y-143205034D01*
X122868952Y-143129617D01*
X122868950Y-143129616D01*
X122868948Y-143129616D01*
X122700645Y-143102959D01*
X122627903Y-143091438D01*
X122383849Y-143091438D01*
X122327969Y-143100288D01*
X122142803Y-143129616D01*
X121910688Y-143205035D01*
X121693233Y-143315834D01*
X121495799Y-143459277D01*
X121495794Y-143459281D01*
X121323219Y-143631856D01*
X121323215Y-143631861D01*
X121179772Y-143829295D01*
X121068973Y-144046750D01*
X120993554Y-144278865D01*
X120955376Y-144519911D01*
X118976376Y-144519911D01*
X118938197Y-144278862D01*
X118862780Y-144046753D01*
X118751982Y-143829299D01*
X118659460Y-143701953D01*
X118608536Y-143631861D01*
X118608532Y-143631856D01*
X118435957Y-143459281D01*
X118435952Y-143459277D01*
X118238518Y-143315834D01*
X118238517Y-143315833D01*
X118238515Y-143315832D01*
X118021061Y-143205034D01*
X117788952Y-143129617D01*
X117788950Y-143129616D01*
X117788948Y-143129616D01*
X117620645Y-143102959D01*
X117547903Y-143091438D01*
X117303849Y-143091438D01*
X117247969Y-143100288D01*
X117062803Y-143129616D01*
X116830688Y-143205035D01*
X116683127Y-143280221D01*
X116614457Y-143293117D01*
X116549717Y-143266840D01*
X116539151Y-143257417D01*
X116263819Y-142982085D01*
X116230334Y-142920762D01*
X116227500Y-142894404D01*
X116227500Y-136519911D01*
X123875376Y-136519911D01*
X123875376Y-136763965D01*
X123886897Y-136836707D01*
X123912760Y-137000000D01*
X123913555Y-137005014D01*
X123988972Y-137237123D01*
X124079777Y-137415339D01*
X124099772Y-137454580D01*
X124243215Y-137652014D01*
X124243219Y-137652019D01*
X124415794Y-137824594D01*
X124415799Y-137824598D01*
X124474731Y-137867414D01*
X124613237Y-137968044D01*
X124830691Y-138078842D01*
X125062800Y-138154259D01*
X125303849Y-138192438D01*
X125303850Y-138192438D01*
X125547902Y-138192438D01*
X125547903Y-138192438D01*
X125788952Y-138154259D01*
X126021061Y-138078842D01*
X126238515Y-137968044D01*
X126435959Y-137824593D01*
X126608531Y-137652021D01*
X126751982Y-137454577D01*
X126862780Y-137237123D01*
X126938197Y-137005014D01*
X126976376Y-136763965D01*
X126976376Y-136519911D01*
X126938197Y-136278862D01*
X126862780Y-136046753D01*
X126751982Y-135829299D01*
X126699360Y-135756871D01*
X126608536Y-135631861D01*
X126608532Y-135631856D01*
X126435957Y-135459281D01*
X126435952Y-135459277D01*
X126238518Y-135315834D01*
X126238517Y-135315833D01*
X126238515Y-135315832D01*
X126021061Y-135205034D01*
X125788952Y-135129617D01*
X125788950Y-135129616D01*
X125788948Y-135129616D01*
X125602901Y-135100149D01*
X125547903Y-135091438D01*
X125303849Y-135091438D01*
X125248851Y-135100149D01*
X125062803Y-135129616D01*
X124830688Y-135205035D01*
X124613233Y-135315834D01*
X124415799Y-135459277D01*
X124415794Y-135459281D01*
X124243219Y-135631856D01*
X124243215Y-135631861D01*
X124099772Y-135829295D01*
X123988973Y-136046750D01*
X123913554Y-136278865D01*
X123908923Y-136308104D01*
X123875376Y-136519911D01*
X116227500Y-136519911D01*
X116227500Y-129931154D01*
X116247185Y-129864115D01*
X116299989Y-129818360D01*
X116369147Y-129808416D01*
X116424385Y-129830836D01*
X116505327Y-129889643D01*
X116613237Y-129968044D01*
X116830691Y-130078842D01*
X117062800Y-130154259D01*
X117303849Y-130192438D01*
X117303850Y-130192438D01*
X117547902Y-130192438D01*
X117547903Y-130192438D01*
X117788952Y-130154259D01*
X118021061Y-130078842D01*
X118238515Y-129968044D01*
X118435959Y-129824593D01*
X118608531Y-129652021D01*
X118751982Y-129454577D01*
X118862780Y-129237123D01*
X118938197Y-129005014D01*
X118976376Y-128763965D01*
X118976376Y-128519911D01*
X120955376Y-128519911D01*
X120955376Y-128763965D01*
X120966897Y-128836707D01*
X120986483Y-128960368D01*
X120993555Y-129005014D01*
X121054421Y-129192341D01*
X121068973Y-129237125D01*
X121179772Y-129454580D01*
X121323215Y-129652014D01*
X121323219Y-129652019D01*
X121495794Y-129824594D01*
X121495799Y-129824598D01*
X121585327Y-129889643D01*
X121693237Y-129968044D01*
X121910691Y-130078842D01*
X122142800Y-130154259D01*
X122383849Y-130192438D01*
X122383850Y-130192438D01*
X122627902Y-130192438D01*
X122627903Y-130192438D01*
X122868952Y-130154259D01*
X123101061Y-130078842D01*
X123318515Y-129968044D01*
X123515959Y-129824593D01*
X123688531Y-129652021D01*
X123831982Y-129454577D01*
X123942780Y-129237123D01*
X124018197Y-129005014D01*
X124056376Y-128763965D01*
X124056376Y-128519911D01*
X124018197Y-128278862D01*
X123942780Y-128046753D01*
X123831982Y-127829299D01*
X123775761Y-127751917D01*
X123688536Y-127631861D01*
X123688532Y-127631856D01*
X123515957Y-127459281D01*
X123515952Y-127459277D01*
X123318518Y-127315834D01*
X123318517Y-127315833D01*
X123318515Y-127315832D01*
X123101061Y-127205034D01*
X122868952Y-127129617D01*
X122868950Y-127129616D01*
X122868948Y-127129616D01*
X122700645Y-127102959D01*
X122627903Y-127091438D01*
X122383849Y-127091438D01*
X122327969Y-127100288D01*
X122142803Y-127129616D01*
X121910688Y-127205035D01*
X121693233Y-127315834D01*
X121495799Y-127459277D01*
X121495794Y-127459281D01*
X121323219Y-127631856D01*
X121323215Y-127631861D01*
X121179772Y-127829295D01*
X121068973Y-128046750D01*
X121068972Y-128046752D01*
X121068972Y-128046753D01*
X121045882Y-128117816D01*
X120993554Y-128278865D01*
X120973915Y-128402860D01*
X120955376Y-128519911D01*
X118976376Y-128519911D01*
X118938197Y-128278862D01*
X118862780Y-128046753D01*
X118751982Y-127829299D01*
X118695761Y-127751917D01*
X118608536Y-127631861D01*
X118608532Y-127631856D01*
X118435957Y-127459281D01*
X118435952Y-127459277D01*
X118238518Y-127315834D01*
X118238517Y-127315833D01*
X118238515Y-127315832D01*
X118021061Y-127205034D01*
X117788952Y-127129617D01*
X117788950Y-127129616D01*
X117788948Y-127129616D01*
X117620645Y-127102959D01*
X117547903Y-127091438D01*
X117303849Y-127091438D01*
X117247969Y-127100288D01*
X117062803Y-127129616D01*
X116830688Y-127205035D01*
X116613232Y-127315834D01*
X116424385Y-127453039D01*
X116412525Y-127457270D01*
X116403011Y-127465515D01*
X116380243Y-127468788D01*
X116358578Y-127476519D01*
X116346314Y-127473667D01*
X116333853Y-127475459D01*
X116312928Y-127465902D01*
X116290525Y-127460693D01*
X116281751Y-127451664D01*
X116270297Y-127446434D01*
X116257860Y-127427081D01*
X116241830Y-127410587D01*
X116238426Y-127396841D01*
X116232523Y-127387656D01*
X116227500Y-127352721D01*
X116227500Y-127139119D01*
X116247185Y-127072080D01*
X116263819Y-127051438D01*
X119895438Y-123419819D01*
X119956761Y-123386334D01*
X119983119Y-123383500D01*
X121889252Y-123383500D01*
X121889253Y-123383500D01*
X121972868Y-123348865D01*
X126363911Y-118957820D01*
X126425232Y-118924337D01*
X126494924Y-118929321D01*
X126550857Y-118971193D01*
X126575274Y-119036657D01*
X126574064Y-119064896D01*
X126569500Y-119093713D01*
X126569500Y-119306287D01*
X126574741Y-119339374D01*
X126594313Y-119462953D01*
X126602754Y-119516243D01*
X126657012Y-119683232D01*
X126668444Y-119718414D01*
X126764951Y-119907820D01*
X126889890Y-120079786D01*
X127040213Y-120230109D01*
X127212179Y-120355048D01*
X127212181Y-120355049D01*
X127212184Y-120355051D01*
X127401588Y-120451557D01*
X127603757Y-120517246D01*
X127813713Y-120550500D01*
X127813714Y-120550500D01*
X128026286Y-120550500D01*
X128026287Y-120550500D01*
X128236243Y-120517246D01*
X128438412Y-120451557D01*
X128627816Y-120355051D01*
X128627821Y-120355047D01*
X128630683Y-120353589D01*
X128699352Y-120340693D01*
X128764092Y-120366969D01*
X128774659Y-120376393D01*
X130276181Y-121877914D01*
X130309666Y-121939237D01*
X130312500Y-121965595D01*
X130312500Y-134996832D01*
X130292815Y-135063871D01*
X130240011Y-135109626D01*
X130207900Y-135119305D01*
X130142801Y-135129616D01*
X129910688Y-135205035D01*
X129693233Y-135315834D01*
X129495799Y-135459277D01*
X129495794Y-135459281D01*
X129323219Y-135631856D01*
X129323215Y-135631861D01*
X129179772Y-135829295D01*
X129068973Y-136046750D01*
X128993554Y-136278865D01*
X128988923Y-136308104D01*
X128955376Y-136519911D01*
X128955376Y-136763965D01*
X128966897Y-136836707D01*
X128992760Y-137000000D01*
X128993555Y-137005014D01*
X129068972Y-137237123D01*
X129159777Y-137415339D01*
X129179772Y-137454580D01*
X129323215Y-137652014D01*
X129323219Y-137652019D01*
X129495794Y-137824594D01*
X129495799Y-137824598D01*
X129554731Y-137867414D01*
X129693237Y-137968044D01*
X129910691Y-138078842D01*
X130142800Y-138154259D01*
X130383849Y-138192438D01*
X130383850Y-138192438D01*
X130627902Y-138192438D01*
X130627903Y-138192438D01*
X130868952Y-138154259D01*
X131101061Y-138078842D01*
X131318515Y-137968044D01*
X131515959Y-137824593D01*
X131688531Y-137652021D01*
X131831982Y-137454577D01*
X131942780Y-137237123D01*
X132018197Y-137005014D01*
X132056376Y-136763965D01*
X132056376Y-136519911D01*
X132018197Y-136278862D01*
X131942780Y-136046753D01*
X131831982Y-135829299D01*
X131779360Y-135756871D01*
X131688536Y-135631861D01*
X131688532Y-135631856D01*
X131515957Y-135459281D01*
X131515952Y-135459277D01*
X131318518Y-135315834D01*
X131318517Y-135315833D01*
X131318515Y-135315832D01*
X131101061Y-135205034D01*
X130868952Y-135129617D01*
X130868950Y-135129616D01*
X130868948Y-135129616D01*
X130864212Y-135128479D01*
X130864662Y-135126602D01*
X130808926Y-135100149D01*
X130772021Y-135040821D01*
X130767500Y-135007642D01*
X130767500Y-121774747D01*
X130760232Y-121757202D01*
X130757355Y-121750256D01*
X130757353Y-121750253D01*
X130732866Y-121691132D01*
X130732863Y-121691129D01*
X130732863Y-121691128D01*
X129566631Y-120524897D01*
X129533146Y-120463574D01*
X129538130Y-120393882D01*
X129580002Y-120337949D01*
X129645466Y-120313532D01*
X129713739Y-120328384D01*
X129727196Y-120336897D01*
X129752180Y-120355048D01*
X129752184Y-120355051D01*
X129941588Y-120451557D01*
X130143757Y-120517246D01*
X130353713Y-120550500D01*
X130353714Y-120550500D01*
X130566286Y-120550500D01*
X130566287Y-120550500D01*
X130776243Y-120517246D01*
X130978412Y-120451557D01*
X131167816Y-120355051D01*
X131254478Y-120292088D01*
X131339784Y-120230110D01*
X131339784Y-120230109D01*
X131339792Y-120230104D01*
X131453717Y-120116178D01*
X131515036Y-120082696D01*
X131584728Y-120087680D01*
X131640662Y-120129551D01*
X131657577Y-120160528D01*
X131706646Y-120292088D01*
X131706649Y-120292093D01*
X131792809Y-120407187D01*
X131792812Y-120407190D01*
X131907906Y-120493350D01*
X131907913Y-120493354D01*
X132042620Y-120543596D01*
X132042627Y-120543598D01*
X132102155Y-120549999D01*
X132102172Y-120550000D01*
X132750000Y-120550000D01*
X132750000Y-119633012D01*
X132807007Y-119665925D01*
X132934174Y-119700000D01*
X133065826Y-119700000D01*
X133192993Y-119665925D01*
X133250000Y-119633012D01*
X133250000Y-120550000D01*
X133897828Y-120550000D01*
X133897844Y-120549999D01*
X133957372Y-120543598D01*
X133957379Y-120543596D01*
X134092086Y-120493354D01*
X134092093Y-120493350D01*
X134207187Y-120407190D01*
X134207190Y-120407187D01*
X134293350Y-120292093D01*
X134293354Y-120292086D01*
X134343596Y-120157379D01*
X134343598Y-120157372D01*
X134349999Y-120097844D01*
X134350000Y-120097827D01*
X134350000Y-119450000D01*
X133433012Y-119450000D01*
X133465925Y-119392993D01*
X133500000Y-119265826D01*
X133500000Y-119134174D01*
X133465925Y-119007007D01*
X133433012Y-118950000D01*
X134350000Y-118950000D01*
X134350000Y-118302172D01*
X134349999Y-118302155D01*
X134343598Y-118242627D01*
X134343596Y-118242620D01*
X134293354Y-118107913D01*
X134293350Y-118107906D01*
X134207190Y-117992812D01*
X134207187Y-117992809D01*
X134092093Y-117906649D01*
X134092086Y-117906645D01*
X133957379Y-117856403D01*
X133957372Y-117856401D01*
X133897844Y-117850000D01*
X133250000Y-117850000D01*
X133250000Y-118766988D01*
X133192993Y-118734075D01*
X133065826Y-118700000D01*
X132934174Y-118700000D01*
X132807007Y-118734075D01*
X132750000Y-118766988D01*
X132750000Y-117850000D01*
X132102155Y-117850000D01*
X132042627Y-117856401D01*
X132042620Y-117856403D01*
X131907913Y-117906645D01*
X131907906Y-117906649D01*
X131792812Y-117992809D01*
X131792809Y-117992812D01*
X131706649Y-118107906D01*
X131706646Y-118107912D01*
X131657577Y-118239471D01*
X131615705Y-118295404D01*
X131550241Y-118319821D01*
X131481968Y-118304969D01*
X131453714Y-118283818D01*
X131339786Y-118169890D01*
X131167820Y-118044951D01*
X130978414Y-117948444D01*
X130978413Y-117948443D01*
X130978412Y-117948443D01*
X130776243Y-117882754D01*
X130776241Y-117882753D01*
X130776240Y-117882753D01*
X130614957Y-117857208D01*
X130566287Y-117849500D01*
X130353713Y-117849500D01*
X130305042Y-117857208D01*
X130143760Y-117882753D01*
X129941585Y-117948444D01*
X129752179Y-118044951D01*
X129580213Y-118169890D01*
X129429890Y-118320213D01*
X129304949Y-118492182D01*
X129300484Y-118500946D01*
X129252509Y-118551742D01*
X129184688Y-118568536D01*
X129118553Y-118545998D01*
X129079516Y-118500946D01*
X129075050Y-118492182D01*
X128950109Y-118320213D01*
X128799786Y-118169890D01*
X128627820Y-118044951D01*
X128438414Y-117948444D01*
X128438413Y-117948443D01*
X128438412Y-117948443D01*
X128236243Y-117882754D01*
X128236241Y-117882753D01*
X128236240Y-117882753D01*
X128074957Y-117857208D01*
X128026287Y-117849500D01*
X127813713Y-117849500D01*
X127784898Y-117854063D01*
X127715606Y-117845108D01*
X127662154Y-117800111D01*
X127641516Y-117733359D01*
X127660242Y-117666045D01*
X127677817Y-117643914D01*
X132145341Y-113176391D01*
X132206662Y-113142908D01*
X132276354Y-113147892D01*
X132289315Y-113153589D01*
X132292183Y-113155050D01*
X132292184Y-113155051D01*
X132481588Y-113251557D01*
X132683757Y-113317246D01*
X132893713Y-113350500D01*
X132893714Y-113350500D01*
X133106286Y-113350500D01*
X133106287Y-113350500D01*
X133316243Y-113317246D01*
X133518412Y-113251557D01*
X133707816Y-113155051D01*
X133780506Y-113102239D01*
X133879786Y-113030109D01*
X133879788Y-113030106D01*
X133879792Y-113030104D01*
X134030104Y-112879792D01*
X134030106Y-112879788D01*
X134030109Y-112879786D01*
X134155048Y-112707820D01*
X134155047Y-112707820D01*
X134155051Y-112707816D01*
X134251557Y-112518412D01*
X134317246Y-112316243D01*
X134350500Y-112106287D01*
X134350500Y-111893713D01*
X134317246Y-111683757D01*
X134251557Y-111481588D01*
X134155051Y-111292184D01*
X134155049Y-111292181D01*
X134155048Y-111292179D01*
X134030109Y-111120213D01*
X133879786Y-110969890D01*
X133707820Y-110844951D01*
X133518414Y-110748444D01*
X133518413Y-110748443D01*
X133518412Y-110748443D01*
X133316243Y-110682754D01*
X133316241Y-110682753D01*
X133316240Y-110682753D01*
X133149877Y-110656404D01*
X133106287Y-110649500D01*
X132893713Y-110649500D01*
X132850123Y-110656404D01*
X132683760Y-110682753D01*
X132481585Y-110748444D01*
X132292179Y-110844951D01*
X132120213Y-110969890D01*
X131969890Y-111120213D01*
X131844949Y-111292182D01*
X131840484Y-111300946D01*
X131792509Y-111351742D01*
X131724688Y-111368536D01*
X131658553Y-111345998D01*
X131619516Y-111300946D01*
X131615050Y-111292182D01*
X131490109Y-111120213D01*
X131339786Y-110969890D01*
X131167820Y-110844951D01*
X130978414Y-110748444D01*
X130978413Y-110748443D01*
X130978412Y-110748443D01*
X130776243Y-110682754D01*
X130776241Y-110682753D01*
X130776240Y-110682753D01*
X130609877Y-110656404D01*
X130566287Y-110649500D01*
X130353713Y-110649500D01*
X130310123Y-110656404D01*
X130143760Y-110682753D01*
X129941585Y-110748444D01*
X129752179Y-110844951D01*
X129580215Y-110969889D01*
X129466285Y-111083819D01*
X129404962Y-111117303D01*
X129335270Y-111112319D01*
X129279337Y-111070447D01*
X129262422Y-111039470D01*
X129213354Y-110907913D01*
X129213350Y-110907906D01*
X129127190Y-110792812D01*
X129127187Y-110792809D01*
X129012093Y-110706649D01*
X129012086Y-110706645D01*
X128877379Y-110656403D01*
X128877372Y-110656401D01*
X128817844Y-110650000D01*
X128170000Y-110650000D01*
X128170000Y-111566988D01*
X128112993Y-111534075D01*
X127985826Y-111500000D01*
X127854174Y-111500000D01*
X127727007Y-111534075D01*
X127670000Y-111566988D01*
X127670000Y-110650000D01*
X127571095Y-110650000D01*
X127504056Y-110630315D01*
X127458301Y-110577511D01*
X127448357Y-110508353D01*
X127477382Y-110444797D01*
X127483414Y-110438319D01*
X128057843Y-109863891D01*
X129058915Y-108862819D01*
X129120238Y-108829334D01*
X129146596Y-108826500D01*
X163803347Y-108826500D01*
X163870386Y-108846185D01*
X163891028Y-108862819D01*
X165116028Y-110087819D01*
X165149513Y-110149142D01*
X165144529Y-110218834D01*
X165102657Y-110274767D01*
X165037193Y-110299184D01*
X165028347Y-110299500D01*
X134960116Y-110299500D01*
X134886425Y-110330024D01*
X134830024Y-110386425D01*
X134799500Y-110460116D01*
X134799500Y-140175500D01*
X134779815Y-140242539D01*
X134727011Y-140288294D01*
X134675500Y-140299500D01*
X132310116Y-140299500D01*
X132236425Y-140330024D01*
X132180024Y-140386425D01*
X132149500Y-140460116D01*
X132149500Y-146516246D01*
X132129815Y-146583285D01*
X132077011Y-146629040D01*
X132025046Y-146640245D01*
X107574046Y-146550684D01*
X107507079Y-146530754D01*
X107461518Y-146477783D01*
X107450500Y-146426685D01*
X107450500Y-136519911D01*
X107875376Y-136519911D01*
X107875376Y-136763965D01*
X107886897Y-136836707D01*
X107912760Y-137000000D01*
X107913555Y-137005014D01*
X107988972Y-137237123D01*
X108079777Y-137415339D01*
X108099772Y-137454580D01*
X108243215Y-137652014D01*
X108243219Y-137652019D01*
X108415794Y-137824594D01*
X108415799Y-137824598D01*
X108474731Y-137867414D01*
X108613237Y-137968044D01*
X108830691Y-138078842D01*
X109062800Y-138154259D01*
X109303849Y-138192438D01*
X109303850Y-138192438D01*
X109547902Y-138192438D01*
X109547903Y-138192438D01*
X109788952Y-138154259D01*
X110021061Y-138078842D01*
X110238515Y-137968044D01*
X110435959Y-137824593D01*
X110608531Y-137652021D01*
X110751982Y-137454577D01*
X110862780Y-137237123D01*
X110938197Y-137005014D01*
X110976376Y-136763965D01*
X110976376Y-136519911D01*
X110938197Y-136278862D01*
X110862780Y-136046753D01*
X110751982Y-135829299D01*
X110699360Y-135756871D01*
X110608536Y-135631861D01*
X110608532Y-135631856D01*
X110435957Y-135459281D01*
X110435952Y-135459277D01*
X110238518Y-135315834D01*
X110238517Y-135315833D01*
X110238515Y-135315832D01*
X110021061Y-135205034D01*
X109788952Y-135129617D01*
X109788950Y-135129616D01*
X109788948Y-135129616D01*
X109602901Y-135100149D01*
X109547903Y-135091438D01*
X109303849Y-135091438D01*
X109248851Y-135100149D01*
X109062803Y-135129616D01*
X108830688Y-135205035D01*
X108613233Y-135315834D01*
X108415799Y-135459277D01*
X108415794Y-135459281D01*
X108243219Y-135631856D01*
X108243215Y-135631861D01*
X108099772Y-135829295D01*
X107988973Y-136046750D01*
X107913554Y-136278865D01*
X107908923Y-136308104D01*
X107875376Y-136519911D01*
X107450500Y-136519911D01*
X107450500Y-129323722D01*
X107470185Y-129256683D01*
X107522989Y-129210928D01*
X107574201Y-129199722D01*
X110609135Y-129192438D01*
X110648651Y-129192438D01*
X110648651Y-129192437D01*
X110649128Y-129192342D01*
X110649132Y-129192342D01*
X110685805Y-129177048D01*
X110722343Y-129161914D01*
X110722519Y-129161737D01*
X110722751Y-129161641D01*
X110750780Y-129133476D01*
X115485852Y-124398405D01*
X115516376Y-124324713D01*
X115516376Y-124244948D01*
X115516376Y-122566438D01*
X115536061Y-122499399D01*
X115588865Y-122453644D01*
X115640376Y-122442438D01*
X117867850Y-122442438D01*
X117868443Y-122442377D01*
X117884856Y-122442379D01*
X118020186Y-122415468D01*
X118147665Y-122362672D01*
X118262395Y-122286022D01*
X118359967Y-122188461D01*
X118436632Y-122073741D01*
X118489443Y-121946268D01*
X118516371Y-121810942D01*
X118516373Y-121781825D01*
X118516376Y-121781819D01*
X118516376Y-121741922D01*
X118516379Y-121702070D01*
X118516378Y-121702068D01*
X118516379Y-121690948D01*
X118516376Y-121690902D01*
X118516376Y-111689078D01*
X118516365Y-111688977D01*
X118516367Y-111672962D01*
X118516367Y-111672960D01*
X118489454Y-111537619D01*
X118436654Y-111410131D01*
X118397642Y-111351742D01*
X118359994Y-111295393D01*
X118262421Y-111197817D01*
X118147687Y-111121156D01*
X118020207Y-111068353D01*
X118020194Y-111068349D01*
X117911623Y-111046757D01*
X117884860Y-111041435D01*
X117884859Y-111041435D01*
X117815865Y-111041438D01*
X115640376Y-111041438D01*
X115573337Y-111021753D01*
X115527582Y-110968949D01*
X115516376Y-110917438D01*
X115516376Y-106337471D01*
X115536061Y-106270432D01*
X115588865Y-106224677D01*
X115658023Y-106214733D01*
X115721579Y-106243758D01*
G37*
%TD.AperFunction*%
%TA.AperFunction,Conductor*%
G36*
X205396570Y-119275476D02*
G01*
X205442999Y-119304732D01*
X206236181Y-120097914D01*
X206269666Y-120159237D01*
X206272500Y-120185595D01*
X206272500Y-132356274D01*
X206252815Y-132423313D01*
X206236181Y-132443955D01*
X203654658Y-135025477D01*
X203593335Y-135058962D01*
X203523643Y-135053978D01*
X203467710Y-135012106D01*
X203445360Y-134961987D01*
X203427817Y-134873796D01*
X203427816Y-134873789D01*
X203363703Y-134719008D01*
X203332537Y-134672365D01*
X203270626Y-134579708D01*
X203152162Y-134461244D01*
X203012860Y-134368166D01*
X202858082Y-134304055D01*
X202858074Y-134304053D01*
X202693771Y-134271371D01*
X202693767Y-134271371D01*
X202526233Y-134271371D01*
X202526228Y-134271371D01*
X202361925Y-134304053D01*
X202361917Y-134304055D01*
X202207139Y-134368166D01*
X202067837Y-134461244D01*
X201949373Y-134579708D01*
X201856295Y-134719009D01*
X201815366Y-134817824D01*
X201771525Y-134872227D01*
X201705231Y-134894292D01*
X201700805Y-134894371D01*
X200193382Y-134894371D01*
X200102876Y-134894371D01*
X200102874Y-134894371D01*
X200102872Y-134894372D01*
X200019263Y-134929002D01*
X198324898Y-136623367D01*
X198263575Y-136656852D01*
X198193883Y-136651868D01*
X198137950Y-136609996D01*
X198113533Y-136544532D01*
X198128385Y-136476259D01*
X198136899Y-136462801D01*
X198144083Y-136452911D01*
X198155051Y-136437816D01*
X198251557Y-136248412D01*
X198317246Y-136046243D01*
X198350500Y-135836287D01*
X198350500Y-135623713D01*
X198317246Y-135413757D01*
X198251557Y-135211588D01*
X198155051Y-135022184D01*
X198155049Y-135022181D01*
X198155048Y-135022179D01*
X198030109Y-134850213D01*
X197879786Y-134699890D01*
X197707820Y-134574951D01*
X197707115Y-134574591D01*
X197699054Y-134570485D01*
X197648259Y-134522512D01*
X197631463Y-134454692D01*
X197653999Y-134388556D01*
X197699054Y-134349515D01*
X197707816Y-134345051D01*
X197764243Y-134304055D01*
X197879786Y-134220109D01*
X197879788Y-134220106D01*
X197879792Y-134220104D01*
X198030104Y-134069792D01*
X198030106Y-134069788D01*
X198030109Y-134069786D01*
X198155048Y-133897820D01*
X198155047Y-133897820D01*
X198155051Y-133897816D01*
X198251557Y-133708412D01*
X198317246Y-133506243D01*
X198350500Y-133296287D01*
X198350500Y-133083713D01*
X198329760Y-132952767D01*
X198338714Y-132883476D01*
X198383711Y-132830024D01*
X198450462Y-132809384D01*
X198452233Y-132809371D01*
X201700805Y-132809371D01*
X201767844Y-132829056D01*
X201813599Y-132881860D01*
X201815366Y-132885918D01*
X201856295Y-132984732D01*
X201949373Y-133124033D01*
X202067837Y-133242497D01*
X202148340Y-133296287D01*
X202207137Y-133335574D01*
X202361918Y-133399687D01*
X202526228Y-133432370D01*
X202526232Y-133432371D01*
X202526233Y-133432371D01*
X202693768Y-133432371D01*
X202693769Y-133432370D01*
X202858082Y-133399687D01*
X203012863Y-133335574D01*
X203152162Y-133242497D01*
X203270626Y-133124033D01*
X203363703Y-132984734D01*
X203427816Y-132829953D01*
X203460500Y-132665638D01*
X203460500Y-132498104D01*
X203427816Y-132333789D01*
X203363703Y-132179008D01*
X203270626Y-132039709D01*
X203265471Y-132034554D01*
X203231985Y-131973235D01*
X203236966Y-131903544D01*
X203265471Y-131859187D01*
X203270626Y-131854033D01*
X203363703Y-131714734D01*
X203427816Y-131559953D01*
X203460500Y-131395638D01*
X203460500Y-131228104D01*
X203427816Y-131063789D01*
X203363703Y-130909008D01*
X203270626Y-130769709D01*
X203265471Y-130764554D01*
X203231985Y-130703235D01*
X203236966Y-130633544D01*
X203265471Y-130589187D01*
X203270626Y-130584033D01*
X203363703Y-130444734D01*
X203427816Y-130289953D01*
X203460500Y-130125638D01*
X203460500Y-129958104D01*
X203427816Y-129793789D01*
X203363703Y-129639008D01*
X203332537Y-129592365D01*
X203270626Y-129499708D01*
X203152162Y-129381244D01*
X203012862Y-129288167D01*
X202914046Y-129247236D01*
X202859643Y-129203394D01*
X202837579Y-129137100D01*
X202837500Y-129132675D01*
X202837500Y-127014200D01*
X202846939Y-126966748D01*
X202859289Y-126936931D01*
X202883500Y-126878480D01*
X202883500Y-126787974D01*
X202883500Y-126289595D01*
X202903185Y-126222556D01*
X202919819Y-126201914D01*
X203198967Y-125922766D01*
X203521114Y-125600618D01*
X203522953Y-125599280D01*
X203523562Y-125598236D01*
X203531193Y-125593287D01*
X203552389Y-125577872D01*
X203556773Y-125575632D01*
X203568284Y-125570865D01*
X203570555Y-125568593D01*
X203581798Y-125562851D01*
X203583689Y-125562493D01*
X203590747Y-125558721D01*
X203602863Y-125553703D01*
X203742162Y-125460626D01*
X203860626Y-125342162D01*
X203953703Y-125202863D01*
X203958727Y-125190732D01*
X203962852Y-125181796D01*
X203968593Y-125170554D01*
X203970865Y-125168284D01*
X203975630Y-125156777D01*
X203977872Y-125152390D01*
X203984189Y-125145714D01*
X203987865Y-125140216D01*
X203986080Y-125139023D01*
X203992867Y-125128866D01*
X204002054Y-125106685D01*
X204027500Y-125045252D01*
X204027500Y-125011607D01*
X204029883Y-124987415D01*
X204050500Y-124883767D01*
X204050500Y-124716233D01*
X204029883Y-124612583D01*
X204027500Y-124588392D01*
X204027500Y-124109195D01*
X204047185Y-124042156D01*
X204099989Y-123996401D01*
X204104032Y-123994640D01*
X204202863Y-123953703D01*
X204342162Y-123860626D01*
X204460626Y-123742162D01*
X204553703Y-123602863D01*
X204617816Y-123448082D01*
X204650500Y-123283767D01*
X204650500Y-123116233D01*
X204617816Y-122951918D01*
X204553703Y-122797137D01*
X204476894Y-122682184D01*
X204460626Y-122657837D01*
X204342162Y-122539373D01*
X204202860Y-122446295D01*
X204048082Y-122382184D01*
X204048074Y-122382182D01*
X203883771Y-122349500D01*
X203883767Y-122349500D01*
X203716233Y-122349500D01*
X203716228Y-122349500D01*
X203551925Y-122382182D01*
X203551917Y-122382184D01*
X203397139Y-122446295D01*
X203257837Y-122539373D01*
X203139373Y-122657837D01*
X203046295Y-122797139D01*
X202982184Y-122951917D01*
X202982182Y-122951925D01*
X202949500Y-123116228D01*
X202949500Y-123283771D01*
X202982182Y-123448074D01*
X202982184Y-123448082D01*
X203046295Y-123602860D01*
X203139373Y-123742162D01*
X203144432Y-123747221D01*
X203177917Y-123808544D01*
X203172933Y-123878236D01*
X203131061Y-123934169D01*
X203080942Y-123956519D01*
X202951925Y-123982182D01*
X202951917Y-123982184D01*
X202797139Y-124046295D01*
X202657837Y-124139373D01*
X202539373Y-124257837D01*
X202446295Y-124397139D01*
X202382184Y-124551917D01*
X202382182Y-124551925D01*
X202349500Y-124716228D01*
X202349500Y-124716232D01*
X202349500Y-124716233D01*
X202349500Y-124883767D01*
X202370117Y-124987415D01*
X202379998Y-125037093D01*
X202373770Y-125106685D01*
X202330906Y-125161862D01*
X202265016Y-125185106D01*
X202197019Y-125169038D01*
X202170699Y-125148965D01*
X201918132Y-124896398D01*
X201910761Y-124889027D01*
X201908354Y-124885425D01*
X201789890Y-124766961D01*
X201786286Y-124764553D01*
X201628868Y-124607135D01*
X201545253Y-124572500D01*
X201107634Y-124572500D01*
X201040595Y-124552815D01*
X200997149Y-124504795D01*
X200975300Y-124461914D01*
X200900230Y-124314580D01*
X200796903Y-124172362D01*
X200756784Y-124117142D01*
X200756780Y-124117137D01*
X200584205Y-123944562D01*
X200584200Y-123944558D01*
X200386766Y-123801115D01*
X200386765Y-123801114D01*
X200386763Y-123801113D01*
X200169309Y-123690315D01*
X199937200Y-123614898D01*
X199937198Y-123614897D01*
X199937196Y-123614897D01*
X199740656Y-123583768D01*
X199696151Y-123576719D01*
X199452097Y-123576719D01*
X199452094Y-123576719D01*
X199427378Y-123580633D01*
X199358085Y-123571676D01*
X199320302Y-123545840D01*
X198367889Y-122593427D01*
X198334404Y-122532104D01*
X198339388Y-122462412D01*
X198340983Y-122458356D01*
X198381940Y-122359480D01*
X198414624Y-122195165D01*
X198414624Y-122027631D01*
X198381940Y-121863316D01*
X198317827Y-121708535D01*
X198255422Y-121615139D01*
X198224750Y-121569235D01*
X198106286Y-121450771D01*
X197966984Y-121357693D01*
X197812206Y-121293582D01*
X197812198Y-121293580D01*
X197647895Y-121260898D01*
X197647891Y-121260898D01*
X197480357Y-121260898D01*
X197480352Y-121260898D01*
X197316049Y-121293580D01*
X197316041Y-121293582D01*
X197161263Y-121357693D01*
X197021961Y-121450771D01*
X196903497Y-121569235D01*
X196810419Y-121708537D01*
X196746308Y-121863315D01*
X196746306Y-121863323D01*
X196713624Y-122027626D01*
X196713624Y-122195169D01*
X196746306Y-122359472D01*
X196746308Y-122359480D01*
X196810419Y-122514258D01*
X196903497Y-122653560D01*
X197021961Y-122772024D01*
X197059546Y-122797137D01*
X197161261Y-122865101D01*
X197316042Y-122929214D01*
X197459941Y-122957837D01*
X197480352Y-122961897D01*
X197480356Y-122961898D01*
X197480357Y-122961898D01*
X197647892Y-122961898D01*
X197647893Y-122961897D01*
X197812206Y-122929214D01*
X197911024Y-122888281D01*
X197980490Y-122880812D01*
X198042969Y-122912086D01*
X198046156Y-122915161D01*
X198757646Y-123626652D01*
X198791131Y-123687975D01*
X198786147Y-123757667D01*
X198744275Y-123813600D01*
X198742850Y-123814651D01*
X198564047Y-123944558D01*
X198564042Y-123944562D01*
X198391467Y-124117137D01*
X198391463Y-124117142D01*
X198248020Y-124314576D01*
X198137221Y-124532031D01*
X198061802Y-124764146D01*
X198023624Y-125005192D01*
X198023624Y-125249245D01*
X198038340Y-125342161D01*
X198061803Y-125490295D01*
X198137220Y-125722404D01*
X198239309Y-125922766D01*
X198248020Y-125939861D01*
X198346650Y-126075615D01*
X198370130Y-126141421D01*
X198354304Y-126209475D01*
X198304198Y-126258170D01*
X198246332Y-126272500D01*
X195821916Y-126272500D01*
X195754877Y-126252815D01*
X195709122Y-126200011D01*
X195699178Y-126130853D01*
X195721598Y-126075615D01*
X195773620Y-126004011D01*
X195820230Y-125939858D01*
X195931028Y-125722404D01*
X196006445Y-125490295D01*
X196044624Y-125249246D01*
X196044624Y-125005192D01*
X196006445Y-124764143D01*
X195931028Y-124532034D01*
X195820230Y-124314580D01*
X195769640Y-124244948D01*
X195693066Y-124139552D01*
X195669586Y-124073746D01*
X195685412Y-124005692D01*
X195690264Y-123997804D01*
X195753703Y-123902863D01*
X195817816Y-123748082D01*
X195850500Y-123583767D01*
X195850500Y-123416233D01*
X195817816Y-123251918D01*
X195761613Y-123116233D01*
X195753704Y-123097139D01*
X195660626Y-122957837D01*
X195542162Y-122839373D01*
X195402860Y-122746295D01*
X195248082Y-122682184D01*
X195248074Y-122682182D01*
X195083771Y-122649500D01*
X195083767Y-122649500D01*
X194916233Y-122649500D01*
X194916228Y-122649500D01*
X194751925Y-122682182D01*
X194751917Y-122682184D01*
X194597139Y-122746295D01*
X194457837Y-122839373D01*
X194339373Y-122957837D01*
X194246295Y-123097138D01*
X194205366Y-123195953D01*
X194161525Y-123250356D01*
X194095231Y-123272421D01*
X194090805Y-123272500D01*
X193848595Y-123272500D01*
X193781556Y-123252815D01*
X193735801Y-123200011D01*
X193725857Y-123130853D01*
X193754882Y-123067297D01*
X193760914Y-123060819D01*
X196729914Y-120091819D01*
X196791237Y-120058334D01*
X196817595Y-120055500D01*
X203817252Y-120055500D01*
X203817253Y-120055500D01*
X203900868Y-120020865D01*
X203917967Y-120003765D01*
X203979289Y-119970280D01*
X204048980Y-119975263D01*
X204053102Y-119976885D01*
X204061842Y-119980505D01*
X204151918Y-120017816D01*
X204316228Y-120050499D01*
X204316232Y-120050500D01*
X204316233Y-120050500D01*
X204483768Y-120050500D01*
X204483769Y-120050499D01*
X204648082Y-120017816D01*
X204802863Y-119953703D01*
X204942162Y-119860626D01*
X205060626Y-119742162D01*
X205153703Y-119602863D01*
X205217816Y-119448082D01*
X205233701Y-119368220D01*
X205266085Y-119306311D01*
X205326801Y-119271737D01*
X205396570Y-119275476D01*
G37*
%TD.AperFunction*%
%TA.AperFunction,Conductor*%
G36*
X167250000Y-113350000D02*
G01*
X167897828Y-113350000D01*
X167897844Y-113349999D01*
X167957372Y-113343598D01*
X167957379Y-113343596D01*
X168092086Y-113293354D01*
X168092093Y-113293350D01*
X168207187Y-113207190D01*
X168207190Y-113207187D01*
X168293350Y-113092093D01*
X168293354Y-113092086D01*
X168342422Y-112960529D01*
X168384293Y-112904595D01*
X168449757Y-112880178D01*
X168518030Y-112895030D01*
X168546285Y-112916181D01*
X168660213Y-113030109D01*
X168832179Y-113155048D01*
X168832181Y-113155049D01*
X168832184Y-113155051D01*
X169021588Y-113251557D01*
X169223757Y-113317246D01*
X169433713Y-113350500D01*
X169433714Y-113350500D01*
X169646286Y-113350500D01*
X169646287Y-113350500D01*
X169856243Y-113317246D01*
X170058412Y-113251557D01*
X170247816Y-113155051D01*
X170320506Y-113102239D01*
X170419786Y-113030109D01*
X170419788Y-113030106D01*
X170419792Y-113030104D01*
X170570104Y-112879792D01*
X170570106Y-112879788D01*
X170570109Y-112879786D01*
X170695048Y-112707820D01*
X170695047Y-112707820D01*
X170695051Y-112707816D01*
X170699514Y-112699054D01*
X170747488Y-112648259D01*
X170815308Y-112631463D01*
X170881444Y-112653999D01*
X170920486Y-112699056D01*
X170924951Y-112707820D01*
X171049890Y-112879786D01*
X171200213Y-113030109D01*
X171372179Y-113155048D01*
X171372181Y-113155049D01*
X171372184Y-113155051D01*
X171561588Y-113251557D01*
X171763757Y-113317246D01*
X171973713Y-113350500D01*
X171973714Y-113350500D01*
X172186286Y-113350500D01*
X172186287Y-113350500D01*
X172396243Y-113317246D01*
X172598412Y-113251557D01*
X172787816Y-113155051D01*
X172787819Y-113155048D01*
X172790684Y-113153589D01*
X172859353Y-113140693D01*
X172924094Y-113166969D01*
X172934660Y-113176393D01*
X176316181Y-116557914D01*
X176349666Y-116619237D01*
X176352500Y-116645595D01*
X176352500Y-120489115D01*
X176387136Y-120572732D01*
X179694161Y-123879757D01*
X179727646Y-123941080D01*
X179722662Y-124010772D01*
X179680790Y-124066705D01*
X179615326Y-124091122D01*
X179606480Y-124091438D01*
X171217663Y-124091438D01*
X171150624Y-124071753D01*
X171104869Y-124018949D01*
X171094925Y-123949791D01*
X171123950Y-123886235D01*
X171143348Y-123868174D01*
X171157546Y-123857546D01*
X171243796Y-123742331D01*
X171294091Y-123607483D01*
X171300500Y-123547873D01*
X171300499Y-121452128D01*
X171294091Y-121392517D01*
X171282794Y-121362229D01*
X171243797Y-121257671D01*
X171243793Y-121257664D01*
X171157547Y-121142455D01*
X171157544Y-121142452D01*
X171042335Y-121056206D01*
X171042328Y-121056202D01*
X170907482Y-121005908D01*
X170907483Y-121005908D01*
X170847883Y-120999501D01*
X170847881Y-120999500D01*
X170847873Y-120999500D01*
X170847864Y-120999500D01*
X168752129Y-120999500D01*
X168752123Y-120999501D01*
X168692516Y-121005908D01*
X168557671Y-121056202D01*
X168557664Y-121056206D01*
X168442455Y-121142452D01*
X168442452Y-121142455D01*
X168356206Y-121257664D01*
X168356202Y-121257671D01*
X168305909Y-121392516D01*
X168305329Y-121397910D01*
X168278589Y-121462460D01*
X168221196Y-121502307D01*
X168151370Y-121504798D01*
X168094359Y-121472332D01*
X167977512Y-121355485D01*
X167977510Y-121355483D01*
X167786433Y-121216657D01*
X167754099Y-121200182D01*
X167575996Y-121109433D01*
X167351368Y-121036446D01*
X167118097Y-120999500D01*
X167118092Y-120999500D01*
X166881908Y-120999500D01*
X166881903Y-120999500D01*
X166648631Y-121036446D01*
X166424003Y-121109433D01*
X166213566Y-121216657D01*
X166147999Y-121264295D01*
X166022490Y-121355483D01*
X166022488Y-121355485D01*
X166022487Y-121355485D01*
X165855485Y-121522487D01*
X165855485Y-121522488D01*
X165855483Y-121522490D01*
X165821521Y-121569235D01*
X165716657Y-121713566D01*
X165609433Y-121924003D01*
X165536446Y-122148631D01*
X165499500Y-122381902D01*
X165499500Y-122618097D01*
X165536446Y-122851368D01*
X165609433Y-123075996D01*
X165709558Y-123272500D01*
X165716657Y-123286433D01*
X165855483Y-123477510D01*
X166022490Y-123644517D01*
X166213567Y-123783343D01*
X166358035Y-123856953D01*
X166408831Y-123904928D01*
X166425626Y-123972749D01*
X166403089Y-124038883D01*
X166348374Y-124082335D01*
X166301740Y-124091438D01*
X165324500Y-124091438D01*
X165257461Y-124071753D01*
X165211706Y-124018949D01*
X165200500Y-123967438D01*
X165200500Y-118021595D01*
X165220185Y-117954556D01*
X165272989Y-117908801D01*
X165342147Y-117898857D01*
X165405703Y-117927882D01*
X165412181Y-117933914D01*
X165823606Y-118345340D01*
X165857091Y-118406663D01*
X165852107Y-118476355D01*
X165846410Y-118489316D01*
X165748444Y-118681585D01*
X165682753Y-118883760D01*
X165658537Y-119036657D01*
X165649500Y-119093713D01*
X165649500Y-119306287D01*
X165654741Y-119339374D01*
X165674313Y-119462953D01*
X165682754Y-119516243D01*
X165737012Y-119683232D01*
X165748444Y-119718414D01*
X165844951Y-119907820D01*
X165969890Y-120079786D01*
X166120213Y-120230109D01*
X166292179Y-120355048D01*
X166292181Y-120355049D01*
X166292184Y-120355051D01*
X166481588Y-120451557D01*
X166683757Y-120517246D01*
X166893713Y-120550500D01*
X166893714Y-120550500D01*
X167106286Y-120550500D01*
X167106287Y-120550500D01*
X167316243Y-120517246D01*
X167518412Y-120451557D01*
X167707816Y-120355051D01*
X167744520Y-120328384D01*
X167879786Y-120230109D01*
X167879788Y-120230106D01*
X167879792Y-120230104D01*
X168030104Y-120079792D01*
X168030106Y-120079788D01*
X168030109Y-120079786D01*
X168152642Y-119911132D01*
X168155051Y-119907816D01*
X168159514Y-119899054D01*
X168207488Y-119848259D01*
X168275308Y-119831463D01*
X168341444Y-119853999D01*
X168380486Y-119899056D01*
X168384951Y-119907820D01*
X168509890Y-120079786D01*
X168660213Y-120230109D01*
X168832179Y-120355048D01*
X168832181Y-120355049D01*
X168832184Y-120355051D01*
X169021588Y-120451557D01*
X169223757Y-120517246D01*
X169433713Y-120550500D01*
X169433714Y-120550500D01*
X169646286Y-120550500D01*
X169646287Y-120550500D01*
X169856243Y-120517246D01*
X170058412Y-120451557D01*
X170247816Y-120355051D01*
X170334478Y-120292088D01*
X170419784Y-120230110D01*
X170419784Y-120230109D01*
X170419792Y-120230104D01*
X170533717Y-120116178D01*
X170595036Y-120082696D01*
X170664728Y-120087680D01*
X170720662Y-120129551D01*
X170737577Y-120160528D01*
X170786646Y-120292088D01*
X170786649Y-120292093D01*
X170872809Y-120407187D01*
X170872812Y-120407190D01*
X170987906Y-120493350D01*
X170987913Y-120493354D01*
X171122620Y-120543596D01*
X171122627Y-120543598D01*
X171182155Y-120549999D01*
X171182172Y-120550000D01*
X171830000Y-120550000D01*
X171830000Y-119633012D01*
X171887007Y-119665925D01*
X172014174Y-119700000D01*
X172145826Y-119700000D01*
X172272993Y-119665925D01*
X172330000Y-119633012D01*
X172330000Y-120550000D01*
X172977828Y-120550000D01*
X172977844Y-120549999D01*
X173037372Y-120543598D01*
X173037379Y-120543596D01*
X173172086Y-120493354D01*
X173172093Y-120493350D01*
X173287187Y-120407190D01*
X173287190Y-120407187D01*
X173373350Y-120292093D01*
X173373354Y-120292086D01*
X173423596Y-120157379D01*
X173423598Y-120157372D01*
X173429999Y-120097844D01*
X173430000Y-120097827D01*
X173430000Y-119450000D01*
X172513012Y-119450000D01*
X172545925Y-119392993D01*
X172580000Y-119265826D01*
X172580000Y-119134174D01*
X172545925Y-119007007D01*
X172513012Y-118950000D01*
X173430000Y-118950000D01*
X173430000Y-118302172D01*
X173429999Y-118302155D01*
X173423598Y-118242627D01*
X173423596Y-118242620D01*
X173373354Y-118107913D01*
X173373350Y-118107906D01*
X173287190Y-117992812D01*
X173287187Y-117992809D01*
X173172093Y-117906649D01*
X173172086Y-117906645D01*
X173037379Y-117856403D01*
X173037372Y-117856401D01*
X172977844Y-117850000D01*
X172330000Y-117850000D01*
X172330000Y-118766988D01*
X172272993Y-118734075D01*
X172145826Y-118700000D01*
X172014174Y-118700000D01*
X171887007Y-118734075D01*
X171830000Y-118766988D01*
X171830000Y-117850000D01*
X171182155Y-117850000D01*
X171122627Y-117856401D01*
X171122620Y-117856403D01*
X170987913Y-117906645D01*
X170987906Y-117906649D01*
X170872812Y-117992809D01*
X170872809Y-117992812D01*
X170786649Y-118107906D01*
X170786646Y-118107912D01*
X170737577Y-118239471D01*
X170695705Y-118295404D01*
X170630241Y-118319821D01*
X170561968Y-118304969D01*
X170533714Y-118283818D01*
X170419786Y-118169890D01*
X170247820Y-118044951D01*
X170058414Y-117948444D01*
X170058413Y-117948443D01*
X170058412Y-117948443D01*
X169856243Y-117882754D01*
X169856241Y-117882753D01*
X169856240Y-117882753D01*
X169694957Y-117857208D01*
X169646287Y-117849500D01*
X169433713Y-117849500D01*
X169385042Y-117857208D01*
X169223760Y-117882753D01*
X169021585Y-117948444D01*
X168832179Y-118044951D01*
X168660213Y-118169890D01*
X168509890Y-118320213D01*
X168384949Y-118492182D01*
X168380484Y-118500946D01*
X168332509Y-118551742D01*
X168264688Y-118568536D01*
X168198553Y-118545998D01*
X168159516Y-118500946D01*
X168155050Y-118492182D01*
X168030109Y-118320213D01*
X167879786Y-118169890D01*
X167707820Y-118044951D01*
X167518414Y-117948444D01*
X167518413Y-117948443D01*
X167518412Y-117948443D01*
X167316243Y-117882754D01*
X167316241Y-117882753D01*
X167316240Y-117882753D01*
X167154957Y-117857208D01*
X167106287Y-117849500D01*
X166893713Y-117849500D01*
X166845042Y-117857208D01*
X166683760Y-117882753D01*
X166481585Y-117948444D01*
X166289316Y-118046410D01*
X166220646Y-118059306D01*
X166155906Y-118033030D01*
X166145340Y-118023606D01*
X165864819Y-117743085D01*
X165831334Y-117681762D01*
X165828500Y-117655404D01*
X165828500Y-113442327D01*
X165848185Y-113375288D01*
X165900989Y-113329533D01*
X165970147Y-113319589D01*
X165995836Y-113326146D01*
X166042622Y-113343597D01*
X166042627Y-113343598D01*
X166102155Y-113349999D01*
X166102172Y-113350000D01*
X166750000Y-113350000D01*
X166750000Y-112433012D01*
X166807007Y-112465925D01*
X166934174Y-112500000D01*
X167065826Y-112500000D01*
X167192993Y-112465925D01*
X167250000Y-112433012D01*
X167250000Y-113350000D01*
G37*
%TD.AperFunction*%
%TA.AperFunction,Conductor*%
G36*
X187020444Y-108846185D02*
G01*
X187041086Y-108862819D01*
X194949073Y-116770806D01*
X195013070Y-116834803D01*
X195096685Y-116869438D01*
X201339705Y-116869438D01*
X201406744Y-116889123D01*
X201452499Y-116941927D01*
X201462178Y-116974040D01*
X201467083Y-117005014D01*
X201542502Y-117237127D01*
X201599760Y-117349500D01*
X201649080Y-117446297D01*
X201653301Y-117454580D01*
X201796744Y-117652014D01*
X201796748Y-117652019D01*
X201969323Y-117824594D01*
X201969328Y-117824598D01*
X202114221Y-117929868D01*
X202166766Y-117968044D01*
X202384220Y-118078842D01*
X202616329Y-118154259D01*
X202857378Y-118192438D01*
X202857379Y-118192438D01*
X202862190Y-118193200D01*
X202861812Y-118195581D01*
X202917828Y-118216765D01*
X202959445Y-118272888D01*
X202964686Y-118339884D01*
X202949500Y-118416234D01*
X202949500Y-118583771D01*
X202982182Y-118748074D01*
X202982185Y-118748086D01*
X203023114Y-118846898D01*
X203030583Y-118916367D01*
X202999307Y-118978846D01*
X202996235Y-118982031D01*
X202742084Y-119236182D01*
X202680764Y-119269666D01*
X202654405Y-119272500D01*
X196490882Y-119272500D01*
X196409321Y-119306284D01*
X196409322Y-119306285D01*
X196407270Y-119307135D01*
X196407269Y-119307135D01*
X193764851Y-121949552D01*
X193703528Y-121983037D01*
X193633836Y-121978053D01*
X193577903Y-121936181D01*
X193562609Y-121909323D01*
X193543894Y-121864141D01*
X193543893Y-121864139D01*
X193543342Y-121863315D01*
X193498541Y-121796264D01*
X193450815Y-121724837D01*
X193332351Y-121606373D01*
X193193051Y-121513296D01*
X193094235Y-121472365D01*
X193039832Y-121428523D01*
X193017768Y-121362229D01*
X193017689Y-121357804D01*
X193017689Y-119113259D01*
X193037374Y-119046220D01*
X193090178Y-119000465D01*
X193094236Y-118998698D01*
X193113859Y-118990570D01*
X193202863Y-118953703D01*
X193342162Y-118860626D01*
X193460626Y-118742162D01*
X193553703Y-118602863D01*
X193617816Y-118448082D01*
X193650500Y-118283767D01*
X193650500Y-118116233D01*
X193617816Y-117951918D01*
X193553703Y-117797137D01*
X193522537Y-117750494D01*
X193460626Y-117657837D01*
X193342162Y-117539373D01*
X193202860Y-117446295D01*
X193048082Y-117382184D01*
X193048074Y-117382182D01*
X192883771Y-117349500D01*
X192883767Y-117349500D01*
X192716233Y-117349500D01*
X192681044Y-117356499D01*
X192611453Y-117350270D01*
X192556276Y-117307406D01*
X192533033Y-117241516D01*
X192538923Y-117196567D01*
X192601163Y-117005014D01*
X192639342Y-116763965D01*
X192639342Y-116519911D01*
X192601163Y-116278862D01*
X192525746Y-116046753D01*
X192414948Y-115829299D01*
X192396621Y-115804074D01*
X192271502Y-115631861D01*
X192271498Y-115631856D01*
X192098923Y-115459281D01*
X192098918Y-115459277D01*
X191901484Y-115315834D01*
X191901483Y-115315833D01*
X191901481Y-115315832D01*
X191684027Y-115205034D01*
X191451918Y-115129617D01*
X191451916Y-115129616D01*
X191451914Y-115129616D01*
X191283611Y-115102959D01*
X191210869Y-115091438D01*
X190966815Y-115091438D01*
X190910935Y-115100288D01*
X190725769Y-115129616D01*
X190493654Y-115205035D01*
X190276199Y-115315834D01*
X190078765Y-115459277D01*
X190078760Y-115459281D01*
X189906185Y-115631856D01*
X189906181Y-115631861D01*
X189762738Y-115829295D01*
X189651939Y-116046750D01*
X189576520Y-116278865D01*
X189538342Y-116519911D01*
X189538342Y-116763964D01*
X189555047Y-116869438D01*
X189576521Y-117005014D01*
X189651938Y-117237123D01*
X189758517Y-117446297D01*
X189762738Y-117454580D01*
X189906181Y-117652014D01*
X189906185Y-117652019D01*
X190078760Y-117824594D01*
X190078765Y-117824598D01*
X190223658Y-117929868D01*
X190276203Y-117968044D01*
X190493657Y-118078842D01*
X190725766Y-118154259D01*
X190966815Y-118192438D01*
X190966816Y-118192438D01*
X191210868Y-118192438D01*
X191210869Y-118192438D01*
X191451918Y-118154259D01*
X191684027Y-118078842D01*
X191769204Y-118035441D01*
X191837874Y-118022545D01*
X191902614Y-118048821D01*
X191942872Y-118105927D01*
X191949500Y-118145926D01*
X191949500Y-118283771D01*
X191982182Y-118448074D01*
X191982184Y-118448082D01*
X192046295Y-118602860D01*
X192139373Y-118742162D01*
X192257837Y-118860626D01*
X192292460Y-118883760D01*
X192397137Y-118953703D01*
X192397138Y-118953703D01*
X192397139Y-118953704D01*
X192397141Y-118953705D01*
X192486141Y-118990570D01*
X192540545Y-119034411D01*
X192562610Y-119100705D01*
X192562689Y-119105131D01*
X192562689Y-121357804D01*
X192543004Y-121424843D01*
X192490200Y-121470598D01*
X192486143Y-121472365D01*
X192387326Y-121513296D01*
X192248026Y-121606373D01*
X192129562Y-121724837D01*
X192036484Y-121864139D01*
X191972373Y-122018917D01*
X191972371Y-122018925D01*
X191939689Y-122183228D01*
X191939689Y-122350771D01*
X191963069Y-122468309D01*
X191956842Y-122537900D01*
X191913979Y-122593078D01*
X191848089Y-122616322D01*
X191841452Y-122616500D01*
X185473203Y-122616500D01*
X185406164Y-122596815D01*
X185360409Y-122544011D01*
X185351586Y-122516691D01*
X185331602Y-122416228D01*
X185317816Y-122346918D01*
X185253703Y-122192137D01*
X185193322Y-122101771D01*
X185160626Y-122052837D01*
X185042162Y-121934373D01*
X184902860Y-121841295D01*
X184748082Y-121777184D01*
X184748074Y-121777182D01*
X184583771Y-121744500D01*
X184583767Y-121744500D01*
X184416233Y-121744500D01*
X184416228Y-121744500D01*
X184251925Y-121777182D01*
X184251913Y-121777185D01*
X184126550Y-121829112D01*
X184057081Y-121836581D01*
X183994602Y-121805305D01*
X183964537Y-121762003D01*
X183962860Y-121757955D01*
X183903703Y-121615137D01*
X183841796Y-121522487D01*
X183810626Y-121475837D01*
X183692162Y-121357373D01*
X183552860Y-121264295D01*
X183398082Y-121200184D01*
X183398074Y-121200182D01*
X183233771Y-121167500D01*
X183233767Y-121167500D01*
X183066233Y-121167500D01*
X183066228Y-121167500D01*
X182901925Y-121200182D01*
X182901917Y-121200184D01*
X182747139Y-121264295D01*
X182607837Y-121357373D01*
X182489373Y-121475837D01*
X182396295Y-121615139D01*
X182332184Y-121769917D01*
X182332182Y-121769925D01*
X182299500Y-121934228D01*
X182299500Y-122101771D01*
X182332182Y-122266074D01*
X182332184Y-122266082D01*
X182396295Y-122420860D01*
X182489373Y-122560162D01*
X182607837Y-122678626D01*
X182700494Y-122740537D01*
X182747137Y-122771703D01*
X182901918Y-122835816D01*
X183025642Y-122860426D01*
X183066228Y-122868499D01*
X183066232Y-122868500D01*
X183066233Y-122868500D01*
X183233768Y-122868500D01*
X183233769Y-122868499D01*
X183398082Y-122835816D01*
X183403548Y-122833551D01*
X183473014Y-122826075D01*
X183535497Y-122857342D01*
X183538693Y-122860426D01*
X183739086Y-123060819D01*
X183772571Y-123122142D01*
X183767587Y-123191834D01*
X183725715Y-123247767D01*
X183660251Y-123272184D01*
X183651405Y-123272500D01*
X180729651Y-123272500D01*
X180662612Y-123252815D01*
X180616857Y-123200011D01*
X180606913Y-123130853D01*
X180635938Y-123067297D01*
X180641970Y-123060819D01*
X180660623Y-123042165D01*
X180660626Y-123042162D01*
X180753703Y-122902863D01*
X180817816Y-122748082D01*
X180850500Y-122583767D01*
X180850500Y-122416233D01*
X180817816Y-122251918D01*
X180776883Y-122153100D01*
X180769415Y-122083632D01*
X180800690Y-122021153D01*
X180803734Y-122017997D01*
X182790915Y-120030819D01*
X182852238Y-119997334D01*
X182878596Y-119994500D01*
X187138305Y-119994500D01*
X187205344Y-120014185D01*
X187251099Y-120066989D01*
X187252866Y-120071047D01*
X187293795Y-120169861D01*
X187386873Y-120309162D01*
X187505337Y-120427626D01*
X187597362Y-120489115D01*
X187644637Y-120520703D01*
X187799418Y-120584816D01*
X187963728Y-120617499D01*
X187963732Y-120617500D01*
X187963733Y-120617500D01*
X188131268Y-120617500D01*
X188131269Y-120617499D01*
X188295582Y-120584816D01*
X188450363Y-120520703D01*
X188589662Y-120427626D01*
X188708126Y-120309162D01*
X188801203Y-120169863D01*
X188865316Y-120015082D01*
X188898000Y-119850767D01*
X188898000Y-119683233D01*
X188865316Y-119518918D01*
X188804795Y-119372809D01*
X188801204Y-119364139D01*
X188796598Y-119357246D01*
X188761510Y-119304732D01*
X188708126Y-119224837D01*
X188589662Y-119106373D01*
X188450360Y-119013295D01*
X188295582Y-118949184D01*
X188295574Y-118949182D01*
X188131271Y-118916500D01*
X188131267Y-118916500D01*
X187963733Y-118916500D01*
X187963728Y-118916500D01*
X187799425Y-118949182D01*
X187799417Y-118949184D01*
X187644639Y-119013295D01*
X187505337Y-119106373D01*
X187386873Y-119224837D01*
X187293795Y-119364138D01*
X187259688Y-119446481D01*
X187254985Y-119457838D01*
X187252866Y-119462953D01*
X187209025Y-119517356D01*
X187142731Y-119539421D01*
X187138305Y-119539500D01*
X182687747Y-119539500D01*
X182663257Y-119549644D01*
X182641415Y-119558690D01*
X182604132Y-119574133D01*
X180482031Y-121696234D01*
X180420708Y-121729719D01*
X180351016Y-121724735D01*
X180346898Y-121723114D01*
X180248086Y-121682185D01*
X180248074Y-121682182D01*
X180083771Y-121649500D01*
X180083767Y-121649500D01*
X179916233Y-121649500D01*
X179916228Y-121649500D01*
X179751925Y-121682182D01*
X179751917Y-121682184D01*
X179597139Y-121746295D01*
X179457837Y-121839373D01*
X179339373Y-121957837D01*
X179246292Y-122097144D01*
X179245889Y-122097899D01*
X179245573Y-122098219D01*
X179242913Y-122102202D01*
X179242157Y-122101697D01*
X179196924Y-122147740D01*
X179128785Y-122163197D01*
X179063107Y-122139361D01*
X179048854Y-122127120D01*
X177842128Y-120920395D01*
X177808643Y-120859072D01*
X177813627Y-120789380D01*
X177855499Y-120733447D01*
X177860918Y-120729612D01*
X177891418Y-120709232D01*
X177964162Y-120660626D01*
X178082626Y-120542162D01*
X178175703Y-120402863D01*
X178239816Y-120248082D01*
X178272500Y-120083767D01*
X178272500Y-119916233D01*
X178239816Y-119751918D01*
X178175703Y-119597137D01*
X178121651Y-119516243D01*
X178082626Y-119457837D01*
X177964162Y-119339373D01*
X177824860Y-119246295D01*
X177670082Y-119182184D01*
X177670074Y-119182182D01*
X177505771Y-119149500D01*
X177505767Y-119149500D01*
X177338233Y-119149500D01*
X177338228Y-119149500D01*
X177173925Y-119182182D01*
X177173917Y-119182184D01*
X177019138Y-119246296D01*
X177000388Y-119258824D01*
X176933710Y-119279700D01*
X176866330Y-119261214D01*
X176819641Y-119209233D01*
X176807500Y-119155720D01*
X176807500Y-116851500D01*
X176827185Y-116784461D01*
X176879989Y-116738706D01*
X176931500Y-116727500D01*
X184346661Y-116727500D01*
X184413700Y-116747185D01*
X184459455Y-116799989D01*
X184469134Y-116832102D01*
X184475047Y-116869438D01*
X184496521Y-117005014D01*
X184571938Y-117237123D01*
X184678517Y-117446297D01*
X184682738Y-117454580D01*
X184826181Y-117652014D01*
X184826185Y-117652019D01*
X184998760Y-117824594D01*
X184998765Y-117824598D01*
X185143658Y-117929868D01*
X185196203Y-117968044D01*
X185413657Y-118078842D01*
X185645766Y-118154259D01*
X185886815Y-118192438D01*
X185886816Y-118192438D01*
X186130868Y-118192438D01*
X186130869Y-118192438D01*
X186371918Y-118154259D01*
X186604027Y-118078842D01*
X186821481Y-117968044D01*
X187018925Y-117824593D01*
X187191497Y-117652021D01*
X187334948Y-117454577D01*
X187445746Y-117237123D01*
X187521163Y-117005014D01*
X187559342Y-116763965D01*
X187559342Y-116519911D01*
X187521163Y-116278862D01*
X187445746Y-116046753D01*
X187334948Y-115829299D01*
X187316621Y-115804074D01*
X187191502Y-115631861D01*
X187191498Y-115631856D01*
X187018923Y-115459281D01*
X187018918Y-115459277D01*
X186821484Y-115315834D01*
X186821483Y-115315833D01*
X186821481Y-115315832D01*
X186604027Y-115205034D01*
X186371918Y-115129617D01*
X186371916Y-115129616D01*
X186371914Y-115129616D01*
X186203611Y-115102959D01*
X186130869Y-115091438D01*
X185886815Y-115091438D01*
X185830935Y-115100288D01*
X185645769Y-115129616D01*
X185413654Y-115205035D01*
X185196199Y-115315834D01*
X184998765Y-115459277D01*
X184998760Y-115459281D01*
X184826185Y-115631856D01*
X184826181Y-115631861D01*
X184682738Y-115829295D01*
X184571939Y-116046750D01*
X184526428Y-116186818D01*
X184486990Y-116244494D01*
X184422632Y-116271692D01*
X184408497Y-116272500D01*
X176725595Y-116272500D01*
X176658556Y-116252815D01*
X176637914Y-116236181D01*
X173256393Y-112854660D01*
X173222908Y-112793337D01*
X173227892Y-112723645D01*
X173233589Y-112710684D01*
X173235048Y-112707819D01*
X173235051Y-112707816D01*
X173331557Y-112518412D01*
X173397246Y-112316243D01*
X173430500Y-112106287D01*
X173430500Y-111893713D01*
X173397246Y-111683757D01*
X173331557Y-111481588D01*
X173235051Y-111292184D01*
X173235049Y-111292181D01*
X173235048Y-111292179D01*
X173110109Y-111120213D01*
X172959786Y-110969890D01*
X172787820Y-110844951D01*
X172598414Y-110748444D01*
X172598413Y-110748443D01*
X172598412Y-110748443D01*
X172396243Y-110682754D01*
X172396241Y-110682753D01*
X172396240Y-110682753D01*
X172229877Y-110656404D01*
X172186287Y-110649500D01*
X171973713Y-110649500D01*
X171930123Y-110656404D01*
X171763760Y-110682753D01*
X171561585Y-110748444D01*
X171369316Y-110846410D01*
X171300646Y-110859306D01*
X171235906Y-110833030D01*
X171225340Y-110823606D01*
X170808869Y-110407136D01*
X170808868Y-110407135D01*
X170725253Y-110372500D01*
X169745595Y-110372500D01*
X169678556Y-110352815D01*
X169657914Y-110336181D01*
X169185624Y-109863891D01*
X169152139Y-109802568D01*
X169157123Y-109732876D01*
X169158704Y-109728857D01*
X169217816Y-109586150D01*
X169250500Y-109421835D01*
X169250500Y-109254301D01*
X169217816Y-109089986D01*
X169179693Y-108997951D01*
X169172225Y-108928484D01*
X169203500Y-108866005D01*
X169263588Y-108830352D01*
X169294255Y-108826500D01*
X186953405Y-108826500D01*
X187020444Y-108846185D01*
G37*
%TD.AperFunction*%
%TA.AperFunction,Conductor*%
G36*
X126154667Y-113712633D02*
G01*
X126201357Y-113764612D01*
X126213500Y-113818129D01*
X126213500Y-117485680D01*
X126193815Y-117552719D01*
X126177181Y-117573361D01*
X122026825Y-121723717D01*
X121965502Y-121757202D01*
X121895810Y-121752218D01*
X121839877Y-121710346D01*
X121815460Y-121644882D01*
X121822962Y-121592702D01*
X121843597Y-121537376D01*
X121843598Y-121537372D01*
X121849999Y-121477844D01*
X121850000Y-121477827D01*
X121850000Y-120830000D01*
X120933012Y-120830000D01*
X120965925Y-120772993D01*
X121000000Y-120645826D01*
X121000000Y-120514174D01*
X120965925Y-120387007D01*
X120933012Y-120330000D01*
X121850000Y-120330000D01*
X121850000Y-119682172D01*
X121849999Y-119682155D01*
X121843598Y-119622627D01*
X121843596Y-119622620D01*
X121793354Y-119487913D01*
X121793350Y-119487906D01*
X121707190Y-119372812D01*
X121707187Y-119372809D01*
X121592093Y-119286649D01*
X121592088Y-119286646D01*
X121460528Y-119237577D01*
X121404595Y-119195705D01*
X121380178Y-119130241D01*
X121395030Y-119061968D01*
X121416175Y-119033720D01*
X121530104Y-118919792D01*
X121532593Y-118916367D01*
X121654858Y-118748082D01*
X121655051Y-118747816D01*
X121751557Y-118558412D01*
X121817246Y-118356243D01*
X121850500Y-118146287D01*
X121850500Y-117933713D01*
X121817246Y-117723757D01*
X121751557Y-117521588D01*
X121655051Y-117332184D01*
X121655050Y-117332183D01*
X121653589Y-117329315D01*
X121640693Y-117260646D01*
X121666969Y-117195905D01*
X121676384Y-117185348D01*
X125017970Y-113843762D01*
X125079291Y-113810279D01*
X125148983Y-113815263D01*
X125153050Y-113816863D01*
X125251918Y-113857816D01*
X125416228Y-113890499D01*
X125416232Y-113890500D01*
X125416233Y-113890500D01*
X125583768Y-113890500D01*
X125583769Y-113890499D01*
X125748082Y-113857816D01*
X125902863Y-113793703D01*
X126020609Y-113715026D01*
X126087287Y-113694149D01*
X126154667Y-113712633D01*
G37*
%TD.AperFunction*%
%TA.AperFunction,Conductor*%
G36*
X128170000Y-113350000D02*
G01*
X128817828Y-113350000D01*
X128817844Y-113349999D01*
X128877372Y-113343598D01*
X128877379Y-113343596D01*
X129012086Y-113293354D01*
X129012093Y-113293350D01*
X129127187Y-113207190D01*
X129127190Y-113207187D01*
X129213350Y-113092093D01*
X129213354Y-113092086D01*
X129262422Y-112960529D01*
X129304293Y-112904595D01*
X129369757Y-112880178D01*
X129438030Y-112895030D01*
X129466285Y-112916181D01*
X129580213Y-113030109D01*
X129752179Y-113155048D01*
X129752181Y-113155049D01*
X129752184Y-113155051D01*
X129941588Y-113251557D01*
X130143757Y-113317246D01*
X130353713Y-113350500D01*
X130353714Y-113350500D01*
X130566286Y-113350500D01*
X130566287Y-113350500D01*
X130776243Y-113317246D01*
X130978412Y-113251557D01*
X131167816Y-113155051D01*
X131192799Y-113136899D01*
X131258604Y-113113419D01*
X131326658Y-113129243D01*
X131375354Y-113179348D01*
X131389230Y-113247826D01*
X131363882Y-113312936D01*
X131353366Y-113324898D01*
X127208181Y-117470084D01*
X127146858Y-117503569D01*
X127077166Y-117498585D01*
X127021233Y-117456713D01*
X126996816Y-117391249D01*
X126996500Y-117382403D01*
X126996500Y-113474000D01*
X127016185Y-113406961D01*
X127068989Y-113361206D01*
X127120500Y-113350000D01*
X127670000Y-113350000D01*
X127670000Y-112433012D01*
X127727007Y-112465925D01*
X127854174Y-112500000D01*
X127985826Y-112500000D01*
X128112993Y-112465925D01*
X128170000Y-112433012D01*
X128170000Y-113350000D01*
G37*
%TD.AperFunction*%
%TA.AperFunction,Conductor*%
G36*
X166632703Y-109485938D02*
G01*
X166639181Y-109491970D01*
X166707837Y-109560626D01*
X166746025Y-109586142D01*
X166847137Y-109653703D01*
X167001918Y-109717816D01*
X167166228Y-109750499D01*
X167166232Y-109750500D01*
X167166233Y-109750500D01*
X167333768Y-109750500D01*
X167333769Y-109750499D01*
X167498082Y-109717816D01*
X167508048Y-109713687D01*
X167577515Y-109706215D01*
X167639996Y-109737486D01*
X167658608Y-109759356D01*
X167739370Y-109880225D01*
X167739376Y-109880233D01*
X167857837Y-109998694D01*
X167940976Y-110054245D01*
X167997137Y-110091771D01*
X168151918Y-110155884D01*
X168316228Y-110188567D01*
X168316232Y-110188568D01*
X168316233Y-110188568D01*
X168483768Y-110188568D01*
X168483769Y-110188567D01*
X168648082Y-110155884D01*
X168703106Y-110133091D01*
X168772574Y-110125623D01*
X168835053Y-110156897D01*
X168838239Y-110159972D01*
X169184276Y-110506009D01*
X169217761Y-110567332D01*
X169212777Y-110637024D01*
X169170905Y-110692957D01*
X169134914Y-110711621D01*
X169021583Y-110748444D01*
X168832179Y-110844951D01*
X168660215Y-110969889D01*
X168546285Y-111083819D01*
X168484962Y-111117303D01*
X168415270Y-111112319D01*
X168359337Y-111070447D01*
X168342422Y-111039470D01*
X168293354Y-110907913D01*
X168293350Y-110907906D01*
X168207190Y-110792812D01*
X168207187Y-110792809D01*
X168092093Y-110706649D01*
X168092086Y-110706645D01*
X167957379Y-110656403D01*
X167957372Y-110656401D01*
X167897844Y-110650000D01*
X167250000Y-110650000D01*
X167250000Y-111566988D01*
X167192993Y-111534075D01*
X167065826Y-111500000D01*
X166934174Y-111500000D01*
X166807007Y-111534075D01*
X166750000Y-111566988D01*
X166750000Y-110650000D01*
X166102155Y-110650000D01*
X166042627Y-110656401D01*
X166042616Y-110656404D01*
X165995832Y-110673853D01*
X165965225Y-110676041D01*
X165934853Y-110680409D01*
X165930697Y-110678511D01*
X165926140Y-110678837D01*
X165899207Y-110664130D01*
X165871297Y-110651384D01*
X165868827Y-110647540D01*
X165864817Y-110645351D01*
X165850110Y-110618416D01*
X165833523Y-110592606D01*
X165832631Y-110586404D01*
X165831333Y-110584027D01*
X165828500Y-110557671D01*
X165828500Y-110396653D01*
X165848185Y-110329614D01*
X165864819Y-110308972D01*
X166109673Y-110064118D01*
X166392866Y-109780926D01*
X166392866Y-109780924D01*
X166392868Y-109780923D01*
X166419006Y-109717817D01*
X166427500Y-109697311D01*
X166427500Y-109606805D01*
X166427500Y-109579651D01*
X166447185Y-109512612D01*
X166499989Y-109466857D01*
X166569147Y-109456913D01*
X166632703Y-109485938D01*
G37*
%TD.AperFunction*%
%TA.AperFunction,Conductor*%
G36*
X147349974Y-95322048D02*
G01*
X147395729Y-95374852D01*
X147405673Y-95444010D01*
X147376648Y-95507566D01*
X147317870Y-95545340D01*
X147302334Y-95548835D01*
X147271851Y-95553663D01*
X147096927Y-95581369D01*
X146864812Y-95656788D01*
X146647357Y-95767587D01*
X146449923Y-95911030D01*
X146449918Y-95911034D01*
X146277343Y-96083609D01*
X146277339Y-96083614D01*
X146133896Y-96281048D01*
X146023097Y-96498503D01*
X145947678Y-96730618D01*
X145909500Y-96971664D01*
X145909500Y-97215717D01*
X145947678Y-97456763D01*
X146023097Y-97688878D01*
X146133896Y-97906333D01*
X146277339Y-98103767D01*
X146277343Y-98103772D01*
X146449918Y-98276347D01*
X146449923Y-98276351D01*
X146622136Y-98401470D01*
X146647361Y-98419797D01*
X146864815Y-98530595D01*
X147096924Y-98606012D01*
X147337973Y-98644191D01*
X147337974Y-98644191D01*
X147582026Y-98644191D01*
X147582027Y-98644191D01*
X147823076Y-98606012D01*
X148055185Y-98530595D01*
X148272639Y-98419797D01*
X148470083Y-98276346D01*
X148642655Y-98103774D01*
X148786106Y-97906330D01*
X148896904Y-97688876D01*
X148972321Y-97456767D01*
X149010500Y-97215718D01*
X149010500Y-96971664D01*
X148972321Y-96730615D01*
X148896904Y-96498506D01*
X148786106Y-96281052D01*
X148767779Y-96255827D01*
X148642660Y-96083614D01*
X148642656Y-96083609D01*
X148470081Y-95911034D01*
X148470076Y-95911030D01*
X148272642Y-95767587D01*
X148272641Y-95767586D01*
X148272639Y-95767585D01*
X148055185Y-95656787D01*
X147823076Y-95581370D01*
X147823074Y-95581369D01*
X147823072Y-95581369D01*
X147658691Y-95555333D01*
X147617666Y-95548835D01*
X147554532Y-95518907D01*
X147517601Y-95459595D01*
X147518599Y-95389733D01*
X147557209Y-95331500D01*
X147621173Y-95303386D01*
X147637065Y-95302363D01*
X152362935Y-95302363D01*
X152429974Y-95322048D01*
X152475729Y-95374852D01*
X152485673Y-95444010D01*
X152456648Y-95507566D01*
X152397870Y-95545340D01*
X152382334Y-95548835D01*
X152351851Y-95553663D01*
X152176927Y-95581369D01*
X151944812Y-95656788D01*
X151727357Y-95767587D01*
X151529923Y-95911030D01*
X151529918Y-95911034D01*
X151357343Y-96083609D01*
X151357339Y-96083614D01*
X151213896Y-96281048D01*
X151103097Y-96498503D01*
X151027678Y-96730618D01*
X150989500Y-96971664D01*
X150989500Y-97215717D01*
X151027678Y-97456763D01*
X151103097Y-97688878D01*
X151213896Y-97906333D01*
X151357339Y-98103767D01*
X151357343Y-98103772D01*
X151529918Y-98276347D01*
X151529923Y-98276351D01*
X151702136Y-98401470D01*
X151727361Y-98419797D01*
X151865923Y-98490397D01*
X151944810Y-98530593D01*
X151944812Y-98530593D01*
X151944815Y-98530595D01*
X152176924Y-98606012D01*
X152207899Y-98610917D01*
X152271030Y-98640844D01*
X152307963Y-98700155D01*
X152312500Y-98733390D01*
X152312500Y-100111404D01*
X152292815Y-100178443D01*
X152276181Y-100199085D01*
X146802181Y-105673085D01*
X146740858Y-105706570D01*
X146671166Y-105701586D01*
X146615233Y-105659714D01*
X146590816Y-105594250D01*
X146590500Y-105585404D01*
X146590500Y-105471663D01*
X146582629Y-105421968D01*
X146552321Y-105230614D01*
X146476904Y-104998505D01*
X146366106Y-104781051D01*
X146309517Y-104703163D01*
X146222660Y-104583613D01*
X146222656Y-104583608D01*
X146050081Y-104411033D01*
X146050076Y-104411029D01*
X145852642Y-104267586D01*
X145852641Y-104267585D01*
X145852639Y-104267584D01*
X145635185Y-104156786D01*
X145403076Y-104081369D01*
X145403074Y-104081368D01*
X145403072Y-104081368D01*
X145225858Y-104053300D01*
X145162027Y-104043190D01*
X144917973Y-104043190D01*
X144862093Y-104052040D01*
X144676927Y-104081368D01*
X144444812Y-104156787D01*
X144227357Y-104267586D01*
X144029923Y-104411029D01*
X144029918Y-104411033D01*
X143857343Y-104583608D01*
X143857339Y-104583613D01*
X143713896Y-104781047D01*
X143603097Y-104998502D01*
X143527678Y-105230617D01*
X143489500Y-105471663D01*
X143489500Y-105715716D01*
X143525983Y-105946063D01*
X143527679Y-105956766D01*
X143603096Y-106188875D01*
X143708496Y-106395735D01*
X143713896Y-106406332D01*
X143857339Y-106603766D01*
X143857343Y-106603771D01*
X144029918Y-106776346D01*
X144029923Y-106776350D01*
X144161217Y-106871740D01*
X144227361Y-106919796D01*
X144444815Y-107030594D01*
X144676924Y-107106011D01*
X144898004Y-107141027D01*
X144961139Y-107170956D01*
X144998070Y-107230268D01*
X144997072Y-107300130D01*
X144958462Y-107358363D01*
X144894498Y-107386477D01*
X144878606Y-107387500D01*
X140121394Y-107387500D01*
X140054355Y-107367815D01*
X140008600Y-107315011D01*
X139998656Y-107245853D01*
X140027681Y-107182297D01*
X140086459Y-107144523D01*
X140101993Y-107141027D01*
X140323076Y-107106011D01*
X140555185Y-107030594D01*
X140772639Y-106919796D01*
X140970083Y-106776345D01*
X141142655Y-106603773D01*
X141286106Y-106406329D01*
X141396904Y-106188875D01*
X141472321Y-105956766D01*
X141510500Y-105715717D01*
X141510500Y-105471663D01*
X141472321Y-105230614D01*
X141396904Y-104998505D01*
X141286106Y-104781051D01*
X141229517Y-104703163D01*
X141142660Y-104583613D01*
X141142656Y-104583608D01*
X140970081Y-104411033D01*
X140970076Y-104411029D01*
X140772642Y-104267586D01*
X140772641Y-104267585D01*
X140772639Y-104267584D01*
X140555185Y-104156786D01*
X140323076Y-104081369D01*
X140323074Y-104081368D01*
X140323072Y-104081368D01*
X140145858Y-104053300D01*
X140082027Y-104043190D01*
X139837973Y-104043190D01*
X139782093Y-104052040D01*
X139596927Y-104081368D01*
X139364812Y-104156787D01*
X139147357Y-104267586D01*
X138949923Y-104411029D01*
X138949918Y-104411033D01*
X138777343Y-104583608D01*
X138777339Y-104583613D01*
X138633896Y-104781047D01*
X138523097Y-104998502D01*
X138447678Y-105230617D01*
X138409500Y-105471663D01*
X138409500Y-105715716D01*
X138445983Y-105946063D01*
X138447679Y-105956766D01*
X138523096Y-106188875D01*
X138628496Y-106395735D01*
X138633896Y-106406332D01*
X138777339Y-106603766D01*
X138777343Y-106603771D01*
X138949918Y-106776346D01*
X138949923Y-106776350D01*
X139081217Y-106871740D01*
X139147361Y-106919796D01*
X139364815Y-107030594D01*
X139596924Y-107106011D01*
X139818004Y-107141027D01*
X139881139Y-107170956D01*
X139918070Y-107230268D01*
X139917072Y-107300130D01*
X139878462Y-107358363D01*
X139814498Y-107386477D01*
X139798606Y-107387500D01*
X130399375Y-107387500D01*
X130332336Y-107367815D01*
X130286581Y-107315011D01*
X130275375Y-107263500D01*
X130275375Y-107136232D01*
X130275374Y-107136228D01*
X130270629Y-107112375D01*
X130242691Y-106971918D01*
X130183609Y-106829283D01*
X130178579Y-106817139D01*
X130166786Y-106799490D01*
X130112908Y-106718855D01*
X130085501Y-106677837D01*
X129967037Y-106559373D01*
X129827735Y-106466295D01*
X129672957Y-106402184D01*
X129672949Y-106402182D01*
X129508646Y-106369500D01*
X129508642Y-106369500D01*
X129341108Y-106369500D01*
X129341103Y-106369500D01*
X129176800Y-106402182D01*
X129176792Y-106402184D01*
X129022014Y-106466295D01*
X128882712Y-106559373D01*
X128764248Y-106677837D01*
X128671170Y-106817139D01*
X128607059Y-106971917D01*
X128607057Y-106971925D01*
X128574375Y-107136228D01*
X128574375Y-107303771D01*
X128607057Y-107468074D01*
X128607059Y-107468082D01*
X128638525Y-107544047D01*
X128645994Y-107613517D01*
X128614719Y-107675996D01*
X128554630Y-107711648D01*
X128523964Y-107715500D01*
X117888596Y-107715500D01*
X117821557Y-107695815D01*
X117800915Y-107679181D01*
X116251746Y-106130012D01*
X116243369Y-106114671D01*
X116230938Y-106102382D01*
X116226971Y-106084641D01*
X116218261Y-106068689D01*
X116219507Y-106051254D01*
X116215694Y-106034196D01*
X116221948Y-106017128D01*
X116222999Y-106002435D01*
X116772231Y-106002435D01*
X117116794Y-106049960D01*
X117116807Y-106049961D01*
X117176654Y-106051756D01*
X117176661Y-106051755D01*
X117316974Y-106020388D01*
X117316978Y-106020386D01*
X117442774Y-105950755D01*
X117543849Y-105848514D01*
X117543851Y-105848511D01*
X117612032Y-105721924D01*
X117626510Y-105663815D01*
X117742351Y-104823933D01*
X116949852Y-104714627D01*
X116772231Y-106002435D01*
X116222999Y-106002435D01*
X116223245Y-105998997D01*
X116233780Y-105984838D01*
X116239734Y-105968592D01*
X116264547Y-105943493D01*
X116272410Y-105937536D01*
X116272411Y-105937535D01*
X116272413Y-105937534D01*
X116276920Y-105934118D01*
X116471758Y-104521494D01*
X116500418Y-104457772D01*
X116558978Y-104419661D01*
X116611538Y-104415599D01*
X116736355Y-104432814D01*
X116753571Y-104307997D01*
X116782230Y-104244276D01*
X116792636Y-104237504D01*
X116844168Y-104237504D01*
X116920468Y-104217060D01*
X116936151Y-104208005D01*
X117810665Y-104328622D01*
X117890813Y-103747528D01*
X117919473Y-103683806D01*
X117978033Y-103645695D01*
X118016729Y-103640508D01*
X118055506Y-103641473D01*
X118226795Y-103606832D01*
X118386080Y-103534947D01*
X118525376Y-103429418D01*
X118637697Y-103295539D01*
X118717412Y-103140023D01*
X118749710Y-103013141D01*
X118973391Y-101391390D01*
X118976646Y-101260503D01*
X118958326Y-101169916D01*
X118960858Y-101140560D01*
X118960689Y-101111086D01*
X118963826Y-101106141D01*
X118964330Y-101100308D01*
X118982333Y-101076977D01*
X118998126Y-101052092D01*
X119003438Y-101049628D01*
X119007016Y-101044993D01*
X119034773Y-101035100D01*
X119061514Y-101022703D01*
X119069693Y-101022656D01*
X119072831Y-101021538D01*
X119096800Y-101022500D01*
X119179628Y-101033924D01*
X119243348Y-101062584D01*
X119281459Y-101121144D01*
X119286675Y-101158247D01*
X119282336Y-101520214D01*
X119314637Y-101961564D01*
X119314638Y-101961579D01*
X119384311Y-102398587D01*
X119490850Y-102828101D01*
X119490854Y-102828116D01*
X119633487Y-103247014D01*
X119633494Y-103247033D01*
X119811195Y-103652307D01*
X119811197Y-103652310D01*
X119897180Y-103810352D01*
X119957650Y-103921500D01*
X120022686Y-104041039D01*
X120266429Y-104410400D01*
X120540665Y-104757722D01*
X120843412Y-105080495D01*
X120843415Y-105080498D01*
X120914339Y-105144271D01*
X121172480Y-105376387D01*
X121525492Y-105643258D01*
X121899897Y-105879180D01*
X122292987Y-106082448D01*
X122564268Y-106194655D01*
X122672347Y-106239359D01*
X122701923Y-106251592D01*
X123123748Y-106385390D01*
X123555413Y-106482875D01*
X123555417Y-106482875D01*
X123555419Y-106482876D01*
X123606416Y-106489913D01*
X123723698Y-106506098D01*
X123723703Y-106506099D01*
X123735092Y-106507672D01*
X123735097Y-106507675D01*
X123770503Y-106512557D01*
X123774603Y-106513123D01*
X123774603Y-106513124D01*
X123814111Y-106518573D01*
X123814111Y-106518572D01*
X123869991Y-106526280D01*
X123869997Y-106526280D01*
X124678543Y-106637798D01*
X124678673Y-106637856D01*
X124728897Y-106644784D01*
X124728897Y-106644785D01*
X124947570Y-106674950D01*
X124947587Y-106674950D01*
X124947588Y-106674951D01*
X124969117Y-106676075D01*
X125388456Y-106697989D01*
X125829709Y-106683584D01*
X125829725Y-106683582D01*
X125829727Y-106683582D01*
X125980514Y-106665786D01*
X126268153Y-106631839D01*
X126700636Y-106543127D01*
X127124046Y-106418086D01*
X127535337Y-106257614D01*
X127931550Y-106062867D01*
X128309836Y-105835246D01*
X128667472Y-105576388D01*
X129001886Y-105288154D01*
X129310673Y-104972619D01*
X129591610Y-104632053D01*
X129842678Y-104268905D01*
X130062069Y-103885788D01*
X130248206Y-103485458D01*
X130399750Y-103070794D01*
X130515610Y-102644780D01*
X130551645Y-102447499D01*
X130555275Y-102427629D01*
X130562442Y-102388397D01*
X130562438Y-102388383D01*
X130563702Y-102381462D01*
X130665665Y-101823356D01*
X130861517Y-100610520D01*
X130861519Y-100610507D01*
X131032349Y-99393903D01*
X131178083Y-98174047D01*
X131298663Y-96951441D01*
X131298665Y-96951420D01*
X131394038Y-95726580D01*
X131411606Y-95419283D01*
X131435085Y-95353479D01*
X131490414Y-95310812D01*
X131535404Y-95302363D01*
X147282935Y-95302363D01*
X147349974Y-95322048D01*
G37*
%TD.AperFunction*%
%TA.AperFunction,Conductor*%
G36*
X168531627Y-95322048D02*
G01*
X168577382Y-95374852D01*
X168588386Y-95419286D01*
X168606995Y-95744828D01*
X168705982Y-97006077D01*
X168831691Y-98264900D01*
X168984073Y-99520780D01*
X169163062Y-100773192D01*
X169368569Y-102021493D01*
X169472503Y-102578779D01*
X169477228Y-102604110D01*
X169477228Y-102604111D01*
X169484539Y-102643317D01*
X169500439Y-102728584D01*
X169500441Y-102728599D01*
X169524888Y-102859787D01*
X169524892Y-102859808D01*
X169641943Y-103284373D01*
X169641949Y-103284391D01*
X169794474Y-103697547D01*
X169794482Y-103697566D01*
X169981376Y-104096323D01*
X169981381Y-104096334D01*
X169981385Y-104096342D01*
X169981388Y-104096347D01*
X170201343Y-104477913D01*
X170452767Y-104839520D01*
X170591924Y-105007372D01*
X170733860Y-105178577D01*
X171042611Y-105492660D01*
X171042615Y-105492663D01*
X171286018Y-105701586D01*
X171376806Y-105779513D01*
X171734056Y-106037090D01*
X172111802Y-106263545D01*
X172111810Y-106263549D01*
X172111817Y-106263553D01*
X172507332Y-106457252D01*
X172507339Y-106457255D01*
X172917835Y-106616834D01*
X173340353Y-106741140D01*
X173625983Y-106799484D01*
X173771846Y-106829279D01*
X173771852Y-106829280D01*
X173771867Y-106829283D01*
X174209287Y-106880632D01*
X174649483Y-106894818D01*
X175089302Y-106871741D01*
X175299998Y-106842651D01*
X175299998Y-106842654D01*
X175300011Y-106842649D01*
X175307444Y-106841625D01*
X175346952Y-106836176D01*
X175346952Y-106836175D01*
X176197566Y-106718855D01*
X176197732Y-106718880D01*
X176349197Y-106697988D01*
X176461841Y-106682451D01*
X176881688Y-106588682D01*
X177292358Y-106460562D01*
X177691045Y-106298967D01*
X178075025Y-106105000D01*
X178441676Y-105879987D01*
X178788494Y-105625464D01*
X179113108Y-105343171D01*
X179413303Y-105035036D01*
X179687026Y-104703163D01*
X179932408Y-104349819D01*
X180147773Y-103977419D01*
X180331651Y-103588506D01*
X180482783Y-103185737D01*
X180600139Y-102771863D01*
X180682917Y-102349711D01*
X180730551Y-101922166D01*
X180742715Y-101492147D01*
X180724737Y-101161949D01*
X180740748Y-101093941D01*
X180790987Y-101045383D01*
X180831609Y-101032373D01*
X180903193Y-101022500D01*
X180972293Y-101032840D01*
X181024833Y-101078897D01*
X181044133Y-101146048D01*
X181041675Y-101169916D01*
X181023355Y-101260503D01*
X181026610Y-101391391D01*
X181250289Y-103013134D01*
X181250291Y-103013141D01*
X181282589Y-103140023D01*
X181356580Y-103284373D01*
X181362302Y-103295535D01*
X181362306Y-103295542D01*
X181398733Y-103338960D01*
X181474625Y-103429418D01*
X181613921Y-103534947D01*
X181613922Y-103534947D01*
X181613923Y-103534948D01*
X181638050Y-103545837D01*
X181691057Y-103591356D01*
X181711041Y-103658307D01*
X181691655Y-103725434D01*
X181674723Y-103746541D01*
X177742086Y-107679181D01*
X177680763Y-107712666D01*
X177654405Y-107715500D01*
X159588595Y-107715500D01*
X159521556Y-107695815D01*
X159500914Y-107679181D01*
X157376206Y-105554472D01*
X157293397Y-105471663D01*
X158489500Y-105471663D01*
X158489500Y-105715716D01*
X158525983Y-105946063D01*
X158527679Y-105956766D01*
X158603096Y-106188875D01*
X158708496Y-106395735D01*
X158713896Y-106406332D01*
X158857339Y-106603766D01*
X158857343Y-106603771D01*
X159029918Y-106776346D01*
X159029923Y-106776350D01*
X159161217Y-106871740D01*
X159227361Y-106919796D01*
X159444815Y-107030594D01*
X159676924Y-107106011D01*
X159917973Y-107144190D01*
X159917974Y-107144190D01*
X160162026Y-107144190D01*
X160162027Y-107144190D01*
X160403076Y-107106011D01*
X160635185Y-107030594D01*
X160852639Y-106919796D01*
X161050083Y-106776345D01*
X161222655Y-106603773D01*
X161366106Y-106406329D01*
X161476904Y-106188875D01*
X161552321Y-105956766D01*
X161590500Y-105715717D01*
X161590500Y-105471663D01*
X161552321Y-105230614D01*
X161476904Y-104998505D01*
X161366106Y-104781051D01*
X161309517Y-104703163D01*
X161222660Y-104583613D01*
X161222656Y-104583608D01*
X161050081Y-104411033D01*
X161050076Y-104411029D01*
X160852642Y-104267586D01*
X160852641Y-104267585D01*
X160852639Y-104267584D01*
X160635185Y-104156786D01*
X160403076Y-104081369D01*
X160403074Y-104081368D01*
X160403072Y-104081368D01*
X160225858Y-104053300D01*
X160162027Y-104043190D01*
X159917973Y-104043190D01*
X159862093Y-104052040D01*
X159676927Y-104081368D01*
X159444812Y-104156787D01*
X159227357Y-104267586D01*
X159029923Y-104411029D01*
X159029918Y-104411033D01*
X158857343Y-104583608D01*
X158857339Y-104583613D01*
X158713896Y-104781047D01*
X158603097Y-104998502D01*
X158527678Y-105230617D01*
X158489500Y-105471663D01*
X157293397Y-105471663D01*
X155777870Y-103956136D01*
X155694253Y-103921500D01*
X154305747Y-103921500D01*
X154305746Y-103921500D01*
X154222129Y-103956136D01*
X150499086Y-107679181D01*
X150437763Y-107712666D01*
X150411405Y-107715500D01*
X145702595Y-107715500D01*
X145635556Y-107695815D01*
X145589801Y-107643011D01*
X145579857Y-107573853D01*
X145608882Y-107510297D01*
X145614914Y-107503819D01*
X149162598Y-103956135D01*
X152732865Y-100385868D01*
X152743020Y-100361351D01*
X152767500Y-100302253D01*
X152767500Y-98733390D01*
X152787185Y-98666351D01*
X152839989Y-98620596D01*
X152872095Y-98610918D01*
X152903076Y-98606012D01*
X153135185Y-98530595D01*
X153352639Y-98419797D01*
X153550083Y-98276346D01*
X153722655Y-98103774D01*
X153866106Y-97906330D01*
X153976904Y-97688876D01*
X154052321Y-97456767D01*
X154090500Y-97215718D01*
X154090500Y-96971664D01*
X154052321Y-96730615D01*
X153976904Y-96498506D01*
X153866106Y-96281052D01*
X153847779Y-96255827D01*
X153722660Y-96083614D01*
X153722656Y-96083609D01*
X153550081Y-95911034D01*
X153550076Y-95911030D01*
X153352642Y-95767587D01*
X153352641Y-95767586D01*
X153352639Y-95767585D01*
X153135185Y-95656787D01*
X152903076Y-95581370D01*
X152903074Y-95581369D01*
X152903072Y-95581369D01*
X152738691Y-95555333D01*
X152697666Y-95548835D01*
X152634532Y-95518907D01*
X152597601Y-95459595D01*
X152598599Y-95389733D01*
X152637209Y-95331500D01*
X152701173Y-95303386D01*
X152717065Y-95302363D01*
X168464588Y-95302363D01*
X168531627Y-95322048D01*
G37*
%TD.AperFunction*%
%TD*%
M02*
