%TF.GenerationSoftware,KiCad,Pcbnew,9.0.7*%
%TF.CreationDate,2026-01-16T16:20:26+01:00*%
%TF.ProjectId,pcb_phone_controller,7063625f-7068-46f6-9e65-5f636f6e7472,rev?*%
%TF.SameCoordinates,Original*%
%TF.FileFunction,Legend,Bot*%
%TF.FilePolarity,Positive*%
%FSLAX46Y46*%
G04 Gerber Fmt 4.6, Leading zero omitted, Abs format (unit mm)*
G04 Created by KiCad (PCBNEW 9.0.7) date 2026-01-16 16:20:26*
%MOMM*%
%LPD*%
G01*
G04 APERTURE LIST*
%ADD10C,0.200000*%
%ADD11C,0.150000*%
%ADD12C,0.100000*%
%ADD13C,0.000000*%
G04 APERTURE END LIST*
D10*
X208225000Y-131050000D02*
X214750000Y-131050000D01*
X214750000Y-147575000D01*
X208225000Y-147575000D01*
X208225000Y-131050000D01*
D11*
X217540827Y-121906074D02*
X217493208Y-121858455D01*
X217493208Y-121858455D02*
X217350351Y-121763217D01*
X217350351Y-121763217D02*
X217255113Y-121715598D01*
X217255113Y-121715598D02*
X217112256Y-121667979D01*
X217112256Y-121667979D02*
X216874160Y-121620360D01*
X216874160Y-121620360D02*
X216683684Y-121620360D01*
X216683684Y-121620360D02*
X216445589Y-121667979D01*
X216445589Y-121667979D02*
X216302732Y-121715598D01*
X216302732Y-121715598D02*
X216207494Y-121763217D01*
X216207494Y-121763217D02*
X216064636Y-121858455D01*
X216064636Y-121858455D02*
X216017017Y-121906074D01*
X217064636Y-122858455D02*
X217112256Y-122810836D01*
X217112256Y-122810836D02*
X217159875Y-122667979D01*
X217159875Y-122667979D02*
X217159875Y-122572741D01*
X217159875Y-122572741D02*
X217112256Y-122429884D01*
X217112256Y-122429884D02*
X217017017Y-122334646D01*
X217017017Y-122334646D02*
X216921779Y-122287027D01*
X216921779Y-122287027D02*
X216731303Y-122239408D01*
X216731303Y-122239408D02*
X216588446Y-122239408D01*
X216588446Y-122239408D02*
X216397970Y-122287027D01*
X216397970Y-122287027D02*
X216302732Y-122334646D01*
X216302732Y-122334646D02*
X216207494Y-122429884D01*
X216207494Y-122429884D02*
X216159875Y-122572741D01*
X216159875Y-122572741D02*
X216159875Y-122667979D01*
X216159875Y-122667979D02*
X216207494Y-122810836D01*
X216207494Y-122810836D02*
X216255113Y-122858455D01*
X217540827Y-123191789D02*
X217493208Y-123239408D01*
X217493208Y-123239408D02*
X217350351Y-123334646D01*
X217350351Y-123334646D02*
X217255113Y-123382265D01*
X217255113Y-123382265D02*
X217112256Y-123429884D01*
X217112256Y-123429884D02*
X216874160Y-123477503D01*
X216874160Y-123477503D02*
X216683684Y-123477503D01*
X216683684Y-123477503D02*
X216445589Y-123429884D01*
X216445589Y-123429884D02*
X216302732Y-123382265D01*
X216302732Y-123382265D02*
X216207494Y-123334646D01*
X216207494Y-123334646D02*
X216064636Y-123239408D01*
X216064636Y-123239408D02*
X216017017Y-123191789D01*
X216255113Y-124667980D02*
X216207494Y-124715599D01*
X216207494Y-124715599D02*
X216159875Y-124810837D01*
X216159875Y-124810837D02*
X216159875Y-125048932D01*
X216159875Y-125048932D02*
X216207494Y-125144170D01*
X216207494Y-125144170D02*
X216255113Y-125191789D01*
X216255113Y-125191789D02*
X216350351Y-125239408D01*
X216350351Y-125239408D02*
X216445589Y-125239408D01*
X216445589Y-125239408D02*
X216588446Y-125191789D01*
X216588446Y-125191789D02*
X217159875Y-124620361D01*
X217159875Y-124620361D02*
X217159875Y-125239408D01*
X216159875Y-125858456D02*
X216159875Y-125953694D01*
X216159875Y-125953694D02*
X216207494Y-126048932D01*
X216207494Y-126048932D02*
X216255113Y-126096551D01*
X216255113Y-126096551D02*
X216350351Y-126144170D01*
X216350351Y-126144170D02*
X216540827Y-126191789D01*
X216540827Y-126191789D02*
X216778922Y-126191789D01*
X216778922Y-126191789D02*
X216969398Y-126144170D01*
X216969398Y-126144170D02*
X217064636Y-126096551D01*
X217064636Y-126096551D02*
X217112256Y-126048932D01*
X217112256Y-126048932D02*
X217159875Y-125953694D01*
X217159875Y-125953694D02*
X217159875Y-125858456D01*
X217159875Y-125858456D02*
X217112256Y-125763218D01*
X217112256Y-125763218D02*
X217064636Y-125715599D01*
X217064636Y-125715599D02*
X216969398Y-125667980D01*
X216969398Y-125667980D02*
X216778922Y-125620361D01*
X216778922Y-125620361D02*
X216540827Y-125620361D01*
X216540827Y-125620361D02*
X216350351Y-125667980D01*
X216350351Y-125667980D02*
X216255113Y-125715599D01*
X216255113Y-125715599D02*
X216207494Y-125763218D01*
X216207494Y-125763218D02*
X216159875Y-125858456D01*
X216255113Y-126572742D02*
X216207494Y-126620361D01*
X216207494Y-126620361D02*
X216159875Y-126715599D01*
X216159875Y-126715599D02*
X216159875Y-126953694D01*
X216159875Y-126953694D02*
X216207494Y-127048932D01*
X216207494Y-127048932D02*
X216255113Y-127096551D01*
X216255113Y-127096551D02*
X216350351Y-127144170D01*
X216350351Y-127144170D02*
X216445589Y-127144170D01*
X216445589Y-127144170D02*
X216588446Y-127096551D01*
X216588446Y-127096551D02*
X217159875Y-126525123D01*
X217159875Y-126525123D02*
X217159875Y-127144170D01*
X216159875Y-128001313D02*
X216159875Y-127810837D01*
X216159875Y-127810837D02*
X216207494Y-127715599D01*
X216207494Y-127715599D02*
X216255113Y-127667980D01*
X216255113Y-127667980D02*
X216397970Y-127572742D01*
X216397970Y-127572742D02*
X216588446Y-127525123D01*
X216588446Y-127525123D02*
X216969398Y-127525123D01*
X216969398Y-127525123D02*
X217064636Y-127572742D01*
X217064636Y-127572742D02*
X217112256Y-127620361D01*
X217112256Y-127620361D02*
X217159875Y-127715599D01*
X217159875Y-127715599D02*
X217159875Y-127906075D01*
X217159875Y-127906075D02*
X217112256Y-128001313D01*
X217112256Y-128001313D02*
X217064636Y-128048932D01*
X217064636Y-128048932D02*
X216969398Y-128096551D01*
X216969398Y-128096551D02*
X216731303Y-128096551D01*
X216731303Y-128096551D02*
X216636065Y-128048932D01*
X216636065Y-128048932D02*
X216588446Y-128001313D01*
X216588446Y-128001313D02*
X216540827Y-127906075D01*
X216540827Y-127906075D02*
X216540827Y-127715599D01*
X216540827Y-127715599D02*
X216588446Y-127620361D01*
X216588446Y-127620361D02*
X216636065Y-127572742D01*
X216636065Y-127572742D02*
X216731303Y-127525123D01*
X217159875Y-129763218D02*
X217159875Y-129287028D01*
X217159875Y-129287028D02*
X216159875Y-129287028D01*
X216874160Y-130048933D02*
X216874160Y-130525123D01*
X217159875Y-129953695D02*
X216159875Y-130287028D01*
X216159875Y-130287028D02*
X217159875Y-130620361D01*
X217159875Y-130953695D02*
X216159875Y-130953695D01*
X216159875Y-130953695D02*
X216159875Y-131334647D01*
X216159875Y-131334647D02*
X216207494Y-131429885D01*
X216207494Y-131429885D02*
X216255113Y-131477504D01*
X216255113Y-131477504D02*
X216350351Y-131525123D01*
X216350351Y-131525123D02*
X216493208Y-131525123D01*
X216493208Y-131525123D02*
X216588446Y-131477504D01*
X216588446Y-131477504D02*
X216636065Y-131429885D01*
X216636065Y-131429885D02*
X216683684Y-131334647D01*
X216683684Y-131334647D02*
X216683684Y-130953695D01*
X217064636Y-132525123D02*
X217112256Y-132477504D01*
X217112256Y-132477504D02*
X217159875Y-132334647D01*
X217159875Y-132334647D02*
X217159875Y-132239409D01*
X217159875Y-132239409D02*
X217112256Y-132096552D01*
X217112256Y-132096552D02*
X217017017Y-132001314D01*
X217017017Y-132001314D02*
X216921779Y-131953695D01*
X216921779Y-131953695D02*
X216731303Y-131906076D01*
X216731303Y-131906076D02*
X216588446Y-131906076D01*
X216588446Y-131906076D02*
X216397970Y-131953695D01*
X216397970Y-131953695D02*
X216302732Y-132001314D01*
X216302732Y-132001314D02*
X216207494Y-132096552D01*
X216207494Y-132096552D02*
X216159875Y-132239409D01*
X216159875Y-132239409D02*
X216159875Y-132334647D01*
X216159875Y-132334647D02*
X216207494Y-132477504D01*
X216207494Y-132477504D02*
X216255113Y-132525123D01*
X217159875Y-133096552D02*
X217112256Y-133001314D01*
X217112256Y-133001314D02*
X217064636Y-132953695D01*
X217064636Y-132953695D02*
X216969398Y-132906076D01*
X216969398Y-132906076D02*
X216683684Y-132906076D01*
X216683684Y-132906076D02*
X216588446Y-132953695D01*
X216588446Y-132953695D02*
X216540827Y-133001314D01*
X216540827Y-133001314D02*
X216493208Y-133096552D01*
X216493208Y-133096552D02*
X216493208Y-133239409D01*
X216493208Y-133239409D02*
X216540827Y-133334647D01*
X216540827Y-133334647D02*
X216588446Y-133382266D01*
X216588446Y-133382266D02*
X216683684Y-133429885D01*
X216683684Y-133429885D02*
X216969398Y-133429885D01*
X216969398Y-133429885D02*
X217064636Y-133382266D01*
X217064636Y-133382266D02*
X217112256Y-133334647D01*
X217112256Y-133334647D02*
X217159875Y-133239409D01*
X217159875Y-133239409D02*
X217159875Y-133096552D01*
X217159875Y-134287028D02*
X216159875Y-134287028D01*
X217112256Y-134287028D02*
X217159875Y-134191790D01*
X217159875Y-134191790D02*
X217159875Y-134001314D01*
X217159875Y-134001314D02*
X217112256Y-133906076D01*
X217112256Y-133906076D02*
X217064636Y-133858457D01*
X217064636Y-133858457D02*
X216969398Y-133810838D01*
X216969398Y-133810838D02*
X216683684Y-133810838D01*
X216683684Y-133810838D02*
X216588446Y-133858457D01*
X216588446Y-133858457D02*
X216540827Y-133906076D01*
X216540827Y-133906076D02*
X216493208Y-134001314D01*
X216493208Y-134001314D02*
X216493208Y-134191790D01*
X216493208Y-134191790D02*
X216540827Y-134287028D01*
X217112256Y-135144171D02*
X217159875Y-135048933D01*
X217159875Y-135048933D02*
X217159875Y-134858457D01*
X217159875Y-134858457D02*
X217112256Y-134763219D01*
X217112256Y-134763219D02*
X217017017Y-134715600D01*
X217017017Y-134715600D02*
X216636065Y-134715600D01*
X216636065Y-134715600D02*
X216540827Y-134763219D01*
X216540827Y-134763219D02*
X216493208Y-134858457D01*
X216493208Y-134858457D02*
X216493208Y-135048933D01*
X216493208Y-135048933D02*
X216540827Y-135144171D01*
X216540827Y-135144171D02*
X216636065Y-135191790D01*
X216636065Y-135191790D02*
X216731303Y-135191790D01*
X216731303Y-135191790D02*
X216826541Y-134715600D01*
X217159875Y-135620362D02*
X216493208Y-135620362D01*
X216683684Y-135620362D02*
X216588446Y-135667981D01*
X216588446Y-135667981D02*
X216540827Y-135715600D01*
X216540827Y-135715600D02*
X216493208Y-135810838D01*
X216493208Y-135810838D02*
X216493208Y-135906076D01*
X217159875Y-137810839D02*
X217159875Y-137763220D01*
X217159875Y-137763220D02*
X217112256Y-137667981D01*
X217112256Y-137667981D02*
X216969398Y-137525124D01*
X216969398Y-137525124D02*
X216683684Y-137287029D01*
X216683684Y-137287029D02*
X216540827Y-137191791D01*
X216540827Y-137191791D02*
X216397970Y-137144172D01*
X216397970Y-137144172D02*
X216302732Y-137144172D01*
X216302732Y-137144172D02*
X216207494Y-137191791D01*
X216207494Y-137191791D02*
X216159875Y-137287029D01*
X216159875Y-137287029D02*
X216159875Y-137334648D01*
X216159875Y-137334648D02*
X216207494Y-137429886D01*
X216207494Y-137429886D02*
X216302732Y-137477505D01*
X216302732Y-137477505D02*
X216350351Y-137477505D01*
X216350351Y-137477505D02*
X216445589Y-137429886D01*
X216445589Y-137429886D02*
X216493208Y-137382267D01*
X216493208Y-137382267D02*
X216683684Y-137096553D01*
X216683684Y-137096553D02*
X216731303Y-137048934D01*
X216731303Y-137048934D02*
X216826541Y-137001315D01*
X216826541Y-137001315D02*
X216969398Y-137001315D01*
X216969398Y-137001315D02*
X217064636Y-137048934D01*
X217064636Y-137048934D02*
X217112256Y-137096553D01*
X217112256Y-137096553D02*
X217159875Y-137191791D01*
X217159875Y-137191791D02*
X217159875Y-137334648D01*
X217159875Y-137334648D02*
X217112256Y-137429886D01*
X217112256Y-137429886D02*
X217064636Y-137477505D01*
X217064636Y-137477505D02*
X216874160Y-137620362D01*
X216874160Y-137620362D02*
X216731303Y-137667981D01*
X216731303Y-137667981D02*
X216636065Y-137667981D01*
X217159875Y-139572743D02*
X216683684Y-139239410D01*
X217159875Y-139001315D02*
X216159875Y-139001315D01*
X216159875Y-139001315D02*
X216159875Y-139382267D01*
X216159875Y-139382267D02*
X216207494Y-139477505D01*
X216207494Y-139477505D02*
X216255113Y-139525124D01*
X216255113Y-139525124D02*
X216350351Y-139572743D01*
X216350351Y-139572743D02*
X216493208Y-139572743D01*
X216493208Y-139572743D02*
X216588446Y-139525124D01*
X216588446Y-139525124D02*
X216636065Y-139477505D01*
X216636065Y-139477505D02*
X216683684Y-139382267D01*
X216683684Y-139382267D02*
X216683684Y-139001315D01*
X217159875Y-140001315D02*
X216493208Y-140001315D01*
X216159875Y-140001315D02*
X216207494Y-139953696D01*
X216207494Y-139953696D02*
X216255113Y-140001315D01*
X216255113Y-140001315D02*
X216207494Y-140048934D01*
X216207494Y-140048934D02*
X216159875Y-140001315D01*
X216159875Y-140001315D02*
X216255113Y-140001315D01*
X216493208Y-140334648D02*
X216493208Y-140715600D01*
X216159875Y-140477505D02*
X217017017Y-140477505D01*
X217017017Y-140477505D02*
X217112256Y-140525124D01*
X217112256Y-140525124D02*
X217159875Y-140620362D01*
X217159875Y-140620362D02*
X217159875Y-140715600D01*
X217159875Y-141048934D02*
X216493208Y-141048934D01*
X216683684Y-141048934D02*
X216588446Y-141096553D01*
X216588446Y-141096553D02*
X216540827Y-141144172D01*
X216540827Y-141144172D02*
X216493208Y-141239410D01*
X216493208Y-141239410D02*
X216493208Y-141334648D01*
X217159875Y-141810839D02*
X217112256Y-141715601D01*
X217112256Y-141715601D02*
X217064636Y-141667982D01*
X217064636Y-141667982D02*
X216969398Y-141620363D01*
X216969398Y-141620363D02*
X216683684Y-141620363D01*
X216683684Y-141620363D02*
X216588446Y-141667982D01*
X216588446Y-141667982D02*
X216540827Y-141715601D01*
X216540827Y-141715601D02*
X216493208Y-141810839D01*
X216493208Y-141810839D02*
X216493208Y-141953696D01*
X216493208Y-141953696D02*
X216540827Y-142048934D01*
X216540827Y-142048934D02*
X216588446Y-142096553D01*
X216588446Y-142096553D02*
X216683684Y-142144172D01*
X216683684Y-142144172D02*
X216969398Y-142144172D01*
X216969398Y-142144172D02*
X217064636Y-142096553D01*
X217064636Y-142096553D02*
X217112256Y-142048934D01*
X217112256Y-142048934D02*
X217159875Y-141953696D01*
X217159875Y-141953696D02*
X217159875Y-141810839D01*
X217159875Y-142477506D02*
X216493208Y-143001315D01*
X216493208Y-142477506D02*
X217159875Y-143001315D01*
X216159875Y-143572744D02*
X216159875Y-143667982D01*
X216159875Y-143667982D02*
X216207494Y-143763220D01*
X216207494Y-143763220D02*
X216255113Y-143810839D01*
X216255113Y-143810839D02*
X216350351Y-143858458D01*
X216350351Y-143858458D02*
X216540827Y-143906077D01*
X216540827Y-143906077D02*
X216778922Y-143906077D01*
X216778922Y-143906077D02*
X216969398Y-143858458D01*
X216969398Y-143858458D02*
X217064636Y-143810839D01*
X217064636Y-143810839D02*
X217112256Y-143763220D01*
X217112256Y-143763220D02*
X217159875Y-143667982D01*
X217159875Y-143667982D02*
X217159875Y-143572744D01*
X217159875Y-143572744D02*
X217112256Y-143477506D01*
X217112256Y-143477506D02*
X217064636Y-143429887D01*
X217064636Y-143429887D02*
X216969398Y-143382268D01*
X216969398Y-143382268D02*
X216778922Y-143334649D01*
X216778922Y-143334649D02*
X216540827Y-143334649D01*
X216540827Y-143334649D02*
X216350351Y-143382268D01*
X216350351Y-143382268D02*
X216255113Y-143429887D01*
X216255113Y-143429887D02*
X216207494Y-143477506D01*
X216207494Y-143477506D02*
X216159875Y-143572744D01*
X216159875Y-144525125D02*
X216159875Y-144620363D01*
X216159875Y-144620363D02*
X216207494Y-144715601D01*
X216207494Y-144715601D02*
X216255113Y-144763220D01*
X216255113Y-144763220D02*
X216350351Y-144810839D01*
X216350351Y-144810839D02*
X216540827Y-144858458D01*
X216540827Y-144858458D02*
X216778922Y-144858458D01*
X216778922Y-144858458D02*
X216969398Y-144810839D01*
X216969398Y-144810839D02*
X217064636Y-144763220D01*
X217064636Y-144763220D02*
X217112256Y-144715601D01*
X217112256Y-144715601D02*
X217159875Y-144620363D01*
X217159875Y-144620363D02*
X217159875Y-144525125D01*
X217159875Y-144525125D02*
X217112256Y-144429887D01*
X217112256Y-144429887D02*
X217064636Y-144382268D01*
X217064636Y-144382268D02*
X216969398Y-144334649D01*
X216969398Y-144334649D02*
X216778922Y-144287030D01*
X216778922Y-144287030D02*
X216540827Y-144287030D01*
X216540827Y-144287030D02*
X216350351Y-144334649D01*
X216350351Y-144334649D02*
X216255113Y-144382268D01*
X216255113Y-144382268D02*
X216207494Y-144429887D01*
X216207494Y-144429887D02*
X216159875Y-144525125D01*
X216588446Y-145429887D02*
X216540827Y-145334649D01*
X216540827Y-145334649D02*
X216493208Y-145287030D01*
X216493208Y-145287030D02*
X216397970Y-145239411D01*
X216397970Y-145239411D02*
X216350351Y-145239411D01*
X216350351Y-145239411D02*
X216255113Y-145287030D01*
X216255113Y-145287030D02*
X216207494Y-145334649D01*
X216207494Y-145334649D02*
X216159875Y-145429887D01*
X216159875Y-145429887D02*
X216159875Y-145620363D01*
X216159875Y-145620363D02*
X216207494Y-145715601D01*
X216207494Y-145715601D02*
X216255113Y-145763220D01*
X216255113Y-145763220D02*
X216350351Y-145810839D01*
X216350351Y-145810839D02*
X216397970Y-145810839D01*
X216397970Y-145810839D02*
X216493208Y-145763220D01*
X216493208Y-145763220D02*
X216540827Y-145715601D01*
X216540827Y-145715601D02*
X216588446Y-145620363D01*
X216588446Y-145620363D02*
X216588446Y-145429887D01*
X216588446Y-145429887D02*
X216636065Y-145334649D01*
X216636065Y-145334649D02*
X216683684Y-145287030D01*
X216683684Y-145287030D02*
X216778922Y-145239411D01*
X216778922Y-145239411D02*
X216969398Y-145239411D01*
X216969398Y-145239411D02*
X217064636Y-145287030D01*
X217064636Y-145287030D02*
X217112256Y-145334649D01*
X217112256Y-145334649D02*
X217159875Y-145429887D01*
X217159875Y-145429887D02*
X217159875Y-145620363D01*
X217159875Y-145620363D02*
X217112256Y-145715601D01*
X217112256Y-145715601D02*
X217064636Y-145763220D01*
X217064636Y-145763220D02*
X216969398Y-145810839D01*
X216969398Y-145810839D02*
X216778922Y-145810839D01*
X216778922Y-145810839D02*
X216683684Y-145763220D01*
X216683684Y-145763220D02*
X216636065Y-145715601D01*
X216636065Y-145715601D02*
X216588446Y-145620363D01*
X217769819Y-124810837D02*
X218579342Y-124810837D01*
X218579342Y-124810837D02*
X218674580Y-124858456D01*
X218674580Y-124858456D02*
X218722200Y-124906075D01*
X218722200Y-124906075D02*
X218769819Y-125001313D01*
X218769819Y-125001313D02*
X218769819Y-125191789D01*
X218769819Y-125191789D02*
X218722200Y-125287027D01*
X218722200Y-125287027D02*
X218674580Y-125334646D01*
X218674580Y-125334646D02*
X218579342Y-125382265D01*
X218579342Y-125382265D02*
X217769819Y-125382265D01*
X218103152Y-125858456D02*
X218769819Y-125858456D01*
X218198390Y-125858456D02*
X218150771Y-125906075D01*
X218150771Y-125906075D02*
X218103152Y-126001313D01*
X218103152Y-126001313D02*
X218103152Y-126144170D01*
X218103152Y-126144170D02*
X218150771Y-126239408D01*
X218150771Y-126239408D02*
X218246009Y-126287027D01*
X218246009Y-126287027D02*
X218769819Y-126287027D01*
X218769819Y-127191789D02*
X217769819Y-127191789D01*
X218722200Y-127191789D02*
X218769819Y-127096551D01*
X218769819Y-127096551D02*
X218769819Y-126906075D01*
X218769819Y-126906075D02*
X218722200Y-126810837D01*
X218722200Y-126810837D02*
X218674580Y-126763218D01*
X218674580Y-126763218D02*
X218579342Y-126715599D01*
X218579342Y-126715599D02*
X218293628Y-126715599D01*
X218293628Y-126715599D02*
X218198390Y-126763218D01*
X218198390Y-126763218D02*
X218150771Y-126810837D01*
X218150771Y-126810837D02*
X218103152Y-126906075D01*
X218103152Y-126906075D02*
X218103152Y-127096551D01*
X218103152Y-127096551D02*
X218150771Y-127191789D01*
X218722200Y-128048932D02*
X218769819Y-127953694D01*
X218769819Y-127953694D02*
X218769819Y-127763218D01*
X218769819Y-127763218D02*
X218722200Y-127667980D01*
X218722200Y-127667980D02*
X218626961Y-127620361D01*
X218626961Y-127620361D02*
X218246009Y-127620361D01*
X218246009Y-127620361D02*
X218150771Y-127667980D01*
X218150771Y-127667980D02*
X218103152Y-127763218D01*
X218103152Y-127763218D02*
X218103152Y-127953694D01*
X218103152Y-127953694D02*
X218150771Y-128048932D01*
X218150771Y-128048932D02*
X218246009Y-128096551D01*
X218246009Y-128096551D02*
X218341247Y-128096551D01*
X218341247Y-128096551D02*
X218436485Y-127620361D01*
X218769819Y-128525123D02*
X218103152Y-128525123D01*
X218293628Y-128525123D02*
X218198390Y-128572742D01*
X218198390Y-128572742D02*
X218150771Y-128620361D01*
X218150771Y-128620361D02*
X218103152Y-128715599D01*
X218103152Y-128715599D02*
X218103152Y-128810837D01*
X218103152Y-129763219D02*
X218103152Y-130144171D01*
X217769819Y-129906076D02*
X218626961Y-129906076D01*
X218626961Y-129906076D02*
X218722200Y-129953695D01*
X218722200Y-129953695D02*
X218769819Y-130048933D01*
X218769819Y-130048933D02*
X218769819Y-130144171D01*
X218769819Y-130477505D02*
X217769819Y-130477505D01*
X218769819Y-130906076D02*
X218246009Y-130906076D01*
X218246009Y-130906076D02*
X218150771Y-130858457D01*
X218150771Y-130858457D02*
X218103152Y-130763219D01*
X218103152Y-130763219D02*
X218103152Y-130620362D01*
X218103152Y-130620362D02*
X218150771Y-130525124D01*
X218150771Y-130525124D02*
X218198390Y-130477505D01*
X218722200Y-131763219D02*
X218769819Y-131667981D01*
X218769819Y-131667981D02*
X218769819Y-131477505D01*
X218769819Y-131477505D02*
X218722200Y-131382267D01*
X218722200Y-131382267D02*
X218626961Y-131334648D01*
X218626961Y-131334648D02*
X218246009Y-131334648D01*
X218246009Y-131334648D02*
X218150771Y-131382267D01*
X218150771Y-131382267D02*
X218103152Y-131477505D01*
X218103152Y-131477505D02*
X218103152Y-131667981D01*
X218103152Y-131667981D02*
X218150771Y-131763219D01*
X218150771Y-131763219D02*
X218246009Y-131810838D01*
X218246009Y-131810838D02*
X218341247Y-131810838D01*
X218341247Y-131810838D02*
X218436485Y-131334648D01*
X217817438Y-133525124D02*
X217769819Y-133429886D01*
X217769819Y-133429886D02*
X217769819Y-133287029D01*
X217769819Y-133287029D02*
X217817438Y-133144172D01*
X217817438Y-133144172D02*
X217912676Y-133048934D01*
X217912676Y-133048934D02*
X218007914Y-133001315D01*
X218007914Y-133001315D02*
X218198390Y-132953696D01*
X218198390Y-132953696D02*
X218341247Y-132953696D01*
X218341247Y-132953696D02*
X218531723Y-133001315D01*
X218531723Y-133001315D02*
X218626961Y-133048934D01*
X218626961Y-133048934D02*
X218722200Y-133144172D01*
X218722200Y-133144172D02*
X218769819Y-133287029D01*
X218769819Y-133287029D02*
X218769819Y-133382267D01*
X218769819Y-133382267D02*
X218722200Y-133525124D01*
X218722200Y-133525124D02*
X218674580Y-133572743D01*
X218674580Y-133572743D02*
X218341247Y-133572743D01*
X218341247Y-133572743D02*
X218341247Y-133382267D01*
X218769819Y-134001315D02*
X217769819Y-134001315D01*
X217769819Y-134001315D02*
X217769819Y-134382267D01*
X217769819Y-134382267D02*
X217817438Y-134477505D01*
X217817438Y-134477505D02*
X217865057Y-134525124D01*
X217865057Y-134525124D02*
X217960295Y-134572743D01*
X217960295Y-134572743D02*
X218103152Y-134572743D01*
X218103152Y-134572743D02*
X218198390Y-134525124D01*
X218198390Y-134525124D02*
X218246009Y-134477505D01*
X218246009Y-134477505D02*
X218293628Y-134382267D01*
X218293628Y-134382267D02*
X218293628Y-134001315D01*
X218769819Y-135477505D02*
X218769819Y-135001315D01*
X218769819Y-135001315D02*
X217769819Y-135001315D01*
X218388866Y-135810839D02*
X218388866Y-136572744D01*
X218103152Y-136953696D02*
X218769819Y-137191791D01*
X218769819Y-137191791D02*
X218103152Y-137429886D01*
X217769819Y-137715601D02*
X217769819Y-138334648D01*
X217769819Y-138334648D02*
X218150771Y-138001315D01*
X218150771Y-138001315D02*
X218150771Y-138144172D01*
X218150771Y-138144172D02*
X218198390Y-138239410D01*
X218198390Y-138239410D02*
X218246009Y-138287029D01*
X218246009Y-138287029D02*
X218341247Y-138334648D01*
X218341247Y-138334648D02*
X218579342Y-138334648D01*
X218579342Y-138334648D02*
X218674580Y-138287029D01*
X218674580Y-138287029D02*
X218722200Y-138239410D01*
X218722200Y-138239410D02*
X218769819Y-138144172D01*
X218769819Y-138144172D02*
X218769819Y-137858458D01*
X218769819Y-137858458D02*
X218722200Y-137763220D01*
X218722200Y-137763220D02*
X218674580Y-137715601D01*
X218674580Y-138763220D02*
X218722200Y-138810839D01*
X218722200Y-138810839D02*
X218769819Y-138763220D01*
X218769819Y-138763220D02*
X218722200Y-138715601D01*
X218722200Y-138715601D02*
X218674580Y-138763220D01*
X218674580Y-138763220D02*
X218769819Y-138763220D01*
X217769819Y-139429886D02*
X217769819Y-139525124D01*
X217769819Y-139525124D02*
X217817438Y-139620362D01*
X217817438Y-139620362D02*
X217865057Y-139667981D01*
X217865057Y-139667981D02*
X217960295Y-139715600D01*
X217960295Y-139715600D02*
X218150771Y-139763219D01*
X218150771Y-139763219D02*
X218388866Y-139763219D01*
X218388866Y-139763219D02*
X218579342Y-139715600D01*
X218579342Y-139715600D02*
X218674580Y-139667981D01*
X218674580Y-139667981D02*
X218722200Y-139620362D01*
X218722200Y-139620362D02*
X218769819Y-139525124D01*
X218769819Y-139525124D02*
X218769819Y-139429886D01*
X218769819Y-139429886D02*
X218722200Y-139334648D01*
X218722200Y-139334648D02*
X218674580Y-139287029D01*
X218674580Y-139287029D02*
X218579342Y-139239410D01*
X218579342Y-139239410D02*
X218388866Y-139191791D01*
X218388866Y-139191791D02*
X218150771Y-139191791D01*
X218150771Y-139191791D02*
X217960295Y-139239410D01*
X217960295Y-139239410D02*
X217865057Y-139287029D01*
X217865057Y-139287029D02*
X217817438Y-139334648D01*
X217817438Y-139334648D02*
X217769819Y-139429886D01*
X218769819Y-141096553D02*
X218722200Y-141001315D01*
X218722200Y-141001315D02*
X218626961Y-140953696D01*
X218626961Y-140953696D02*
X217769819Y-140953696D01*
X218769819Y-141477506D02*
X218103152Y-141477506D01*
X217769819Y-141477506D02*
X217817438Y-141429887D01*
X217817438Y-141429887D02*
X217865057Y-141477506D01*
X217865057Y-141477506D02*
X217817438Y-141525125D01*
X217817438Y-141525125D02*
X217769819Y-141477506D01*
X217769819Y-141477506D02*
X217865057Y-141477506D01*
X218722200Y-142382267D02*
X218769819Y-142287029D01*
X218769819Y-142287029D02*
X218769819Y-142096553D01*
X218769819Y-142096553D02*
X218722200Y-142001315D01*
X218722200Y-142001315D02*
X218674580Y-141953696D01*
X218674580Y-141953696D02*
X218579342Y-141906077D01*
X218579342Y-141906077D02*
X218293628Y-141906077D01*
X218293628Y-141906077D02*
X218198390Y-141953696D01*
X218198390Y-141953696D02*
X218150771Y-142001315D01*
X218150771Y-142001315D02*
X218103152Y-142096553D01*
X218103152Y-142096553D02*
X218103152Y-142287029D01*
X218103152Y-142287029D02*
X218150771Y-142382267D01*
X218722200Y-143191791D02*
X218769819Y-143096553D01*
X218769819Y-143096553D02*
X218769819Y-142906077D01*
X218769819Y-142906077D02*
X218722200Y-142810839D01*
X218722200Y-142810839D02*
X218626961Y-142763220D01*
X218626961Y-142763220D02*
X218246009Y-142763220D01*
X218246009Y-142763220D02*
X218150771Y-142810839D01*
X218150771Y-142810839D02*
X218103152Y-142906077D01*
X218103152Y-142906077D02*
X218103152Y-143096553D01*
X218103152Y-143096553D02*
X218150771Y-143191791D01*
X218150771Y-143191791D02*
X218246009Y-143239410D01*
X218246009Y-143239410D02*
X218341247Y-143239410D01*
X218341247Y-143239410D02*
X218436485Y-142763220D01*
X218103152Y-143667982D02*
X218769819Y-143667982D01*
X218198390Y-143667982D02*
X218150771Y-143715601D01*
X218150771Y-143715601D02*
X218103152Y-143810839D01*
X218103152Y-143810839D02*
X218103152Y-143953696D01*
X218103152Y-143953696D02*
X218150771Y-144048934D01*
X218150771Y-144048934D02*
X218246009Y-144096553D01*
X218246009Y-144096553D02*
X218769819Y-144096553D01*
X218722200Y-144525125D02*
X218769819Y-144620363D01*
X218769819Y-144620363D02*
X218769819Y-144810839D01*
X218769819Y-144810839D02*
X218722200Y-144906077D01*
X218722200Y-144906077D02*
X218626961Y-144953696D01*
X218626961Y-144953696D02*
X218579342Y-144953696D01*
X218579342Y-144953696D02*
X218484104Y-144906077D01*
X218484104Y-144906077D02*
X218436485Y-144810839D01*
X218436485Y-144810839D02*
X218436485Y-144667982D01*
X218436485Y-144667982D02*
X218388866Y-144572744D01*
X218388866Y-144572744D02*
X218293628Y-144525125D01*
X218293628Y-144525125D02*
X218246009Y-144525125D01*
X218246009Y-144525125D02*
X218150771Y-144572744D01*
X218150771Y-144572744D02*
X218103152Y-144667982D01*
X218103152Y-144667982D02*
X218103152Y-144810839D01*
X218103152Y-144810839D02*
X218150771Y-144906077D01*
X218722200Y-145763220D02*
X218769819Y-145667982D01*
X218769819Y-145667982D02*
X218769819Y-145477506D01*
X218769819Y-145477506D02*
X218722200Y-145382268D01*
X218722200Y-145382268D02*
X218626961Y-145334649D01*
X218626961Y-145334649D02*
X218246009Y-145334649D01*
X218246009Y-145334649D02*
X218150771Y-145382268D01*
X218150771Y-145382268D02*
X218103152Y-145477506D01*
X218103152Y-145477506D02*
X218103152Y-145667982D01*
X218103152Y-145667982D02*
X218150771Y-145763220D01*
X218150771Y-145763220D02*
X218246009Y-145810839D01*
X218246009Y-145810839D02*
X218341247Y-145810839D01*
X218341247Y-145810839D02*
X218436485Y-145334649D01*
X179333333Y-122234580D02*
X179380952Y-122282200D01*
X179380952Y-122282200D02*
X179523809Y-122329819D01*
X179523809Y-122329819D02*
X179619047Y-122329819D01*
X179619047Y-122329819D02*
X179761904Y-122282200D01*
X179761904Y-122282200D02*
X179857142Y-122186961D01*
X179857142Y-122186961D02*
X179904761Y-122091723D01*
X179904761Y-122091723D02*
X179952380Y-121901247D01*
X179952380Y-121901247D02*
X179952380Y-121758390D01*
X179952380Y-121758390D02*
X179904761Y-121567914D01*
X179904761Y-121567914D02*
X179857142Y-121472676D01*
X179857142Y-121472676D02*
X179761904Y-121377438D01*
X179761904Y-121377438D02*
X179619047Y-121329819D01*
X179619047Y-121329819D02*
X179523809Y-121329819D01*
X179523809Y-121329819D02*
X179380952Y-121377438D01*
X179380952Y-121377438D02*
X179333333Y-121425057D01*
X178761904Y-122329819D02*
X178857142Y-122282200D01*
X178857142Y-122282200D02*
X178904761Y-122186961D01*
X178904761Y-122186961D02*
X178904761Y-121329819D01*
X178380951Y-122329819D02*
X178380951Y-121663152D01*
X178380951Y-121329819D02*
X178428570Y-121377438D01*
X178428570Y-121377438D02*
X178380951Y-121425057D01*
X178380951Y-121425057D02*
X178333332Y-121377438D01*
X178333332Y-121377438D02*
X178380951Y-121329819D01*
X178380951Y-121329819D02*
X178380951Y-121425057D01*
X177476190Y-122282200D02*
X177571428Y-122329819D01*
X177571428Y-122329819D02*
X177761904Y-122329819D01*
X177761904Y-122329819D02*
X177857142Y-122282200D01*
X177857142Y-122282200D02*
X177904761Y-122234580D01*
X177904761Y-122234580D02*
X177952380Y-122139342D01*
X177952380Y-122139342D02*
X177952380Y-121853628D01*
X177952380Y-121853628D02*
X177904761Y-121758390D01*
X177904761Y-121758390D02*
X177857142Y-121710771D01*
X177857142Y-121710771D02*
X177761904Y-121663152D01*
X177761904Y-121663152D02*
X177571428Y-121663152D01*
X177571428Y-121663152D02*
X177476190Y-121710771D01*
X177047618Y-122329819D02*
X177047618Y-121329819D01*
X176952380Y-121948866D02*
X176666666Y-122329819D01*
X176666666Y-121663152D02*
X177047618Y-122044104D01*
X176285713Y-122282200D02*
X176142856Y-122329819D01*
X176142856Y-122329819D02*
X175904761Y-122329819D01*
X175904761Y-122329819D02*
X175809523Y-122282200D01*
X175809523Y-122282200D02*
X175761904Y-122234580D01*
X175761904Y-122234580D02*
X175714285Y-122139342D01*
X175714285Y-122139342D02*
X175714285Y-122044104D01*
X175714285Y-122044104D02*
X175761904Y-121948866D01*
X175761904Y-121948866D02*
X175809523Y-121901247D01*
X175809523Y-121901247D02*
X175904761Y-121853628D01*
X175904761Y-121853628D02*
X176095237Y-121806009D01*
X176095237Y-121806009D02*
X176190475Y-121758390D01*
X176190475Y-121758390D02*
X176238094Y-121710771D01*
X176238094Y-121710771D02*
X176285713Y-121615533D01*
X176285713Y-121615533D02*
X176285713Y-121520295D01*
X176285713Y-121520295D02*
X176238094Y-121425057D01*
X176238094Y-121425057D02*
X176190475Y-121377438D01*
X176190475Y-121377438D02*
X176095237Y-121329819D01*
X176095237Y-121329819D02*
X175857142Y-121329819D01*
X175857142Y-121329819D02*
X175714285Y-121377438D01*
X175428570Y-121663152D02*
X175047618Y-121663152D01*
X175285713Y-121329819D02*
X175285713Y-122186961D01*
X175285713Y-122186961D02*
X175238094Y-122282200D01*
X175238094Y-122282200D02*
X175142856Y-122329819D01*
X175142856Y-122329819D02*
X175047618Y-122329819D01*
X174714284Y-122329819D02*
X174714284Y-121663152D01*
X174714284Y-121329819D02*
X174761903Y-121377438D01*
X174761903Y-121377438D02*
X174714284Y-121425057D01*
X174714284Y-121425057D02*
X174666665Y-121377438D01*
X174666665Y-121377438D02*
X174714284Y-121329819D01*
X174714284Y-121329819D02*
X174714284Y-121425057D01*
X173809523Y-122282200D02*
X173904761Y-122329819D01*
X173904761Y-122329819D02*
X174095237Y-122329819D01*
X174095237Y-122329819D02*
X174190475Y-122282200D01*
X174190475Y-122282200D02*
X174238094Y-122234580D01*
X174238094Y-122234580D02*
X174285713Y-122139342D01*
X174285713Y-122139342D02*
X174285713Y-121853628D01*
X174285713Y-121853628D02*
X174238094Y-121758390D01*
X174238094Y-121758390D02*
X174190475Y-121710771D01*
X174190475Y-121710771D02*
X174095237Y-121663152D01*
X174095237Y-121663152D02*
X173904761Y-121663152D01*
X173904761Y-121663152D02*
X173809523Y-121710771D01*
X173380951Y-122329819D02*
X173380951Y-121329819D01*
X173285713Y-121948866D02*
X172999999Y-122329819D01*
X172999999Y-121663152D02*
X173380951Y-122044104D01*
X171999999Y-122329819D02*
X172333332Y-121853628D01*
X172571427Y-122329819D02*
X172571427Y-121329819D01*
X172571427Y-121329819D02*
X172190475Y-121329819D01*
X172190475Y-121329819D02*
X172095237Y-121377438D01*
X172095237Y-121377438D02*
X172047618Y-121425057D01*
X172047618Y-121425057D02*
X171999999Y-121520295D01*
X171999999Y-121520295D02*
X171999999Y-121663152D01*
X171999999Y-121663152D02*
X172047618Y-121758390D01*
X172047618Y-121758390D02*
X172095237Y-121806009D01*
X172095237Y-121806009D02*
X172190475Y-121853628D01*
X172190475Y-121853628D02*
X172571427Y-121853628D01*
X171047618Y-122329819D02*
X171619046Y-122329819D01*
X171333332Y-122329819D02*
X171333332Y-121329819D01*
X171333332Y-121329819D02*
X171428570Y-121472676D01*
X171428570Y-121472676D02*
X171523808Y-121567914D01*
X171523808Y-121567914D02*
X171619046Y-121615533D01*
X133988095Y-124859580D02*
X134035714Y-124907200D01*
X134035714Y-124907200D02*
X134178571Y-124954819D01*
X134178571Y-124954819D02*
X134273809Y-124954819D01*
X134273809Y-124954819D02*
X134416666Y-124907200D01*
X134416666Y-124907200D02*
X134511904Y-124811961D01*
X134511904Y-124811961D02*
X134559523Y-124716723D01*
X134559523Y-124716723D02*
X134607142Y-124526247D01*
X134607142Y-124526247D02*
X134607142Y-124383390D01*
X134607142Y-124383390D02*
X134559523Y-124192914D01*
X134559523Y-124192914D02*
X134511904Y-124097676D01*
X134511904Y-124097676D02*
X134416666Y-124002438D01*
X134416666Y-124002438D02*
X134273809Y-123954819D01*
X134273809Y-123954819D02*
X134178571Y-123954819D01*
X134178571Y-123954819D02*
X134035714Y-124002438D01*
X134035714Y-124002438D02*
X133988095Y-124050057D01*
X133416666Y-124954819D02*
X133511904Y-124907200D01*
X133511904Y-124907200D02*
X133559523Y-124811961D01*
X133559523Y-124811961D02*
X133559523Y-123954819D01*
X133035713Y-124954819D02*
X133035713Y-124288152D01*
X133035713Y-123954819D02*
X133083332Y-124002438D01*
X133083332Y-124002438D02*
X133035713Y-124050057D01*
X133035713Y-124050057D02*
X132988094Y-124002438D01*
X132988094Y-124002438D02*
X133035713Y-123954819D01*
X133035713Y-123954819D02*
X133035713Y-124050057D01*
X132130952Y-124907200D02*
X132226190Y-124954819D01*
X132226190Y-124954819D02*
X132416666Y-124954819D01*
X132416666Y-124954819D02*
X132511904Y-124907200D01*
X132511904Y-124907200D02*
X132559523Y-124859580D01*
X132559523Y-124859580D02*
X132607142Y-124764342D01*
X132607142Y-124764342D02*
X132607142Y-124478628D01*
X132607142Y-124478628D02*
X132559523Y-124383390D01*
X132559523Y-124383390D02*
X132511904Y-124335771D01*
X132511904Y-124335771D02*
X132416666Y-124288152D01*
X132416666Y-124288152D02*
X132226190Y-124288152D01*
X132226190Y-124288152D02*
X132130952Y-124335771D01*
X131702380Y-124954819D02*
X131702380Y-123954819D01*
X131607142Y-124573866D02*
X131321428Y-124954819D01*
X131321428Y-124288152D02*
X131702380Y-124669104D01*
X130940475Y-124907200D02*
X130797618Y-124954819D01*
X130797618Y-124954819D02*
X130559523Y-124954819D01*
X130559523Y-124954819D02*
X130464285Y-124907200D01*
X130464285Y-124907200D02*
X130416666Y-124859580D01*
X130416666Y-124859580D02*
X130369047Y-124764342D01*
X130369047Y-124764342D02*
X130369047Y-124669104D01*
X130369047Y-124669104D02*
X130416666Y-124573866D01*
X130416666Y-124573866D02*
X130464285Y-124526247D01*
X130464285Y-124526247D02*
X130559523Y-124478628D01*
X130559523Y-124478628D02*
X130749999Y-124431009D01*
X130749999Y-124431009D02*
X130845237Y-124383390D01*
X130845237Y-124383390D02*
X130892856Y-124335771D01*
X130892856Y-124335771D02*
X130940475Y-124240533D01*
X130940475Y-124240533D02*
X130940475Y-124145295D01*
X130940475Y-124145295D02*
X130892856Y-124050057D01*
X130892856Y-124050057D02*
X130845237Y-124002438D01*
X130845237Y-124002438D02*
X130749999Y-123954819D01*
X130749999Y-123954819D02*
X130511904Y-123954819D01*
X130511904Y-123954819D02*
X130369047Y-124002438D01*
X130083332Y-124288152D02*
X129702380Y-124288152D01*
X129940475Y-123954819D02*
X129940475Y-124811961D01*
X129940475Y-124811961D02*
X129892856Y-124907200D01*
X129892856Y-124907200D02*
X129797618Y-124954819D01*
X129797618Y-124954819D02*
X129702380Y-124954819D01*
X129369046Y-124954819D02*
X129369046Y-124288152D01*
X129369046Y-123954819D02*
X129416665Y-124002438D01*
X129416665Y-124002438D02*
X129369046Y-124050057D01*
X129369046Y-124050057D02*
X129321427Y-124002438D01*
X129321427Y-124002438D02*
X129369046Y-123954819D01*
X129369046Y-123954819D02*
X129369046Y-124050057D01*
X128464285Y-124907200D02*
X128559523Y-124954819D01*
X128559523Y-124954819D02*
X128749999Y-124954819D01*
X128749999Y-124954819D02*
X128845237Y-124907200D01*
X128845237Y-124907200D02*
X128892856Y-124859580D01*
X128892856Y-124859580D02*
X128940475Y-124764342D01*
X128940475Y-124764342D02*
X128940475Y-124478628D01*
X128940475Y-124478628D02*
X128892856Y-124383390D01*
X128892856Y-124383390D02*
X128845237Y-124335771D01*
X128845237Y-124335771D02*
X128749999Y-124288152D01*
X128749999Y-124288152D02*
X128559523Y-124288152D01*
X128559523Y-124288152D02*
X128464285Y-124335771D01*
X128035713Y-124954819D02*
X128035713Y-123954819D01*
X127940475Y-124573866D02*
X127654761Y-124954819D01*
X127654761Y-124288152D02*
X128035713Y-124669104D01*
X126749999Y-124954819D02*
X127226189Y-124954819D01*
X127226189Y-124954819D02*
X127226189Y-123954819D01*
X125892856Y-124954819D02*
X126464284Y-124954819D01*
X126178570Y-124954819D02*
X126178570Y-123954819D01*
X126178570Y-123954819D02*
X126273808Y-124097676D01*
X126273808Y-124097676D02*
X126369046Y-124192914D01*
X126369046Y-124192914D02*
X126464284Y-124240533D01*
X172714285Y-110931009D02*
X172571428Y-110978628D01*
X172571428Y-110978628D02*
X172523809Y-111026247D01*
X172523809Y-111026247D02*
X172476190Y-111121485D01*
X172476190Y-111121485D02*
X172476190Y-111264342D01*
X172476190Y-111264342D02*
X172523809Y-111359580D01*
X172523809Y-111359580D02*
X172571428Y-111407200D01*
X172571428Y-111407200D02*
X172666666Y-111454819D01*
X172666666Y-111454819D02*
X173047618Y-111454819D01*
X173047618Y-111454819D02*
X173047618Y-110454819D01*
X173047618Y-110454819D02*
X172714285Y-110454819D01*
X172714285Y-110454819D02*
X172619047Y-110502438D01*
X172619047Y-110502438D02*
X172571428Y-110550057D01*
X172571428Y-110550057D02*
X172523809Y-110645295D01*
X172523809Y-110645295D02*
X172523809Y-110740533D01*
X172523809Y-110740533D02*
X172571428Y-110835771D01*
X172571428Y-110835771D02*
X172619047Y-110883390D01*
X172619047Y-110883390D02*
X172714285Y-110931009D01*
X172714285Y-110931009D02*
X173047618Y-110931009D01*
X171619047Y-110788152D02*
X171619047Y-111454819D01*
X172047618Y-110788152D02*
X172047618Y-111311961D01*
X172047618Y-111311961D02*
X171999999Y-111407200D01*
X171999999Y-111407200D02*
X171904761Y-111454819D01*
X171904761Y-111454819D02*
X171761904Y-111454819D01*
X171761904Y-111454819D02*
X171666666Y-111407200D01*
X171666666Y-111407200D02*
X171619047Y-111359580D01*
X171142856Y-111454819D02*
X171142856Y-110788152D01*
X171142856Y-110883390D02*
X171095237Y-110835771D01*
X171095237Y-110835771D02*
X170999999Y-110788152D01*
X170999999Y-110788152D02*
X170857142Y-110788152D01*
X170857142Y-110788152D02*
X170761904Y-110835771D01*
X170761904Y-110835771D02*
X170714285Y-110931009D01*
X170714285Y-110931009D02*
X170714285Y-111454819D01*
X170714285Y-110931009D02*
X170666666Y-110835771D01*
X170666666Y-110835771D02*
X170571428Y-110788152D01*
X170571428Y-110788152D02*
X170428571Y-110788152D01*
X170428571Y-110788152D02*
X170333332Y-110835771D01*
X170333332Y-110835771D02*
X170285713Y-110931009D01*
X170285713Y-110931009D02*
X170285713Y-111454819D01*
X169809523Y-110788152D02*
X169809523Y-111788152D01*
X169809523Y-110835771D02*
X169714285Y-110788152D01*
X169714285Y-110788152D02*
X169523809Y-110788152D01*
X169523809Y-110788152D02*
X169428571Y-110835771D01*
X169428571Y-110835771D02*
X169380952Y-110883390D01*
X169380952Y-110883390D02*
X169333333Y-110978628D01*
X169333333Y-110978628D02*
X169333333Y-111264342D01*
X169333333Y-111264342D02*
X169380952Y-111359580D01*
X169380952Y-111359580D02*
X169428571Y-111407200D01*
X169428571Y-111407200D02*
X169523809Y-111454819D01*
X169523809Y-111454819D02*
X169714285Y-111454819D01*
X169714285Y-111454819D02*
X169809523Y-111407200D01*
X168523809Y-111407200D02*
X168619047Y-111454819D01*
X168619047Y-111454819D02*
X168809523Y-111454819D01*
X168809523Y-111454819D02*
X168904761Y-111407200D01*
X168904761Y-111407200D02*
X168952380Y-111311961D01*
X168952380Y-111311961D02*
X168952380Y-110931009D01*
X168952380Y-110931009D02*
X168904761Y-110835771D01*
X168904761Y-110835771D02*
X168809523Y-110788152D01*
X168809523Y-110788152D02*
X168619047Y-110788152D01*
X168619047Y-110788152D02*
X168523809Y-110835771D01*
X168523809Y-110835771D02*
X168476190Y-110931009D01*
X168476190Y-110931009D02*
X168476190Y-111026247D01*
X168476190Y-111026247D02*
X168952380Y-111121485D01*
X168047618Y-111454819D02*
X168047618Y-110788152D01*
X168047618Y-110978628D02*
X167999999Y-110883390D01*
X167999999Y-110883390D02*
X167952380Y-110835771D01*
X167952380Y-110835771D02*
X167857142Y-110788152D01*
X167857142Y-110788152D02*
X167761904Y-110788152D01*
X166857142Y-111454819D02*
X167190475Y-110978628D01*
X167428570Y-111454819D02*
X167428570Y-110454819D01*
X167428570Y-110454819D02*
X167047618Y-110454819D01*
X167047618Y-110454819D02*
X166952380Y-110502438D01*
X166952380Y-110502438D02*
X166904761Y-110550057D01*
X166904761Y-110550057D02*
X166857142Y-110645295D01*
X166857142Y-110645295D02*
X166857142Y-110788152D01*
X166857142Y-110788152D02*
X166904761Y-110883390D01*
X166904761Y-110883390D02*
X166952380Y-110931009D01*
X166952380Y-110931009D02*
X167047618Y-110978628D01*
X167047618Y-110978628D02*
X167428570Y-110978628D01*
X165904761Y-111454819D02*
X166476189Y-111454819D01*
X166190475Y-111454819D02*
X166190475Y-110454819D01*
X166190475Y-110454819D02*
X166285713Y-110597676D01*
X166285713Y-110597676D02*
X166380951Y-110692914D01*
X166380951Y-110692914D02*
X166476189Y-110740533D01*
X133619047Y-111181009D02*
X133476190Y-111228628D01*
X133476190Y-111228628D02*
X133428571Y-111276247D01*
X133428571Y-111276247D02*
X133380952Y-111371485D01*
X133380952Y-111371485D02*
X133380952Y-111514342D01*
X133380952Y-111514342D02*
X133428571Y-111609580D01*
X133428571Y-111609580D02*
X133476190Y-111657200D01*
X133476190Y-111657200D02*
X133571428Y-111704819D01*
X133571428Y-111704819D02*
X133952380Y-111704819D01*
X133952380Y-111704819D02*
X133952380Y-110704819D01*
X133952380Y-110704819D02*
X133619047Y-110704819D01*
X133619047Y-110704819D02*
X133523809Y-110752438D01*
X133523809Y-110752438D02*
X133476190Y-110800057D01*
X133476190Y-110800057D02*
X133428571Y-110895295D01*
X133428571Y-110895295D02*
X133428571Y-110990533D01*
X133428571Y-110990533D02*
X133476190Y-111085771D01*
X133476190Y-111085771D02*
X133523809Y-111133390D01*
X133523809Y-111133390D02*
X133619047Y-111181009D01*
X133619047Y-111181009D02*
X133952380Y-111181009D01*
X132523809Y-111038152D02*
X132523809Y-111704819D01*
X132952380Y-111038152D02*
X132952380Y-111561961D01*
X132952380Y-111561961D02*
X132904761Y-111657200D01*
X132904761Y-111657200D02*
X132809523Y-111704819D01*
X132809523Y-111704819D02*
X132666666Y-111704819D01*
X132666666Y-111704819D02*
X132571428Y-111657200D01*
X132571428Y-111657200D02*
X132523809Y-111609580D01*
X132047618Y-111704819D02*
X132047618Y-111038152D01*
X132047618Y-111133390D02*
X131999999Y-111085771D01*
X131999999Y-111085771D02*
X131904761Y-111038152D01*
X131904761Y-111038152D02*
X131761904Y-111038152D01*
X131761904Y-111038152D02*
X131666666Y-111085771D01*
X131666666Y-111085771D02*
X131619047Y-111181009D01*
X131619047Y-111181009D02*
X131619047Y-111704819D01*
X131619047Y-111181009D02*
X131571428Y-111085771D01*
X131571428Y-111085771D02*
X131476190Y-111038152D01*
X131476190Y-111038152D02*
X131333333Y-111038152D01*
X131333333Y-111038152D02*
X131238094Y-111085771D01*
X131238094Y-111085771D02*
X131190475Y-111181009D01*
X131190475Y-111181009D02*
X131190475Y-111704819D01*
X130714285Y-111038152D02*
X130714285Y-112038152D01*
X130714285Y-111085771D02*
X130619047Y-111038152D01*
X130619047Y-111038152D02*
X130428571Y-111038152D01*
X130428571Y-111038152D02*
X130333333Y-111085771D01*
X130333333Y-111085771D02*
X130285714Y-111133390D01*
X130285714Y-111133390D02*
X130238095Y-111228628D01*
X130238095Y-111228628D02*
X130238095Y-111514342D01*
X130238095Y-111514342D02*
X130285714Y-111609580D01*
X130285714Y-111609580D02*
X130333333Y-111657200D01*
X130333333Y-111657200D02*
X130428571Y-111704819D01*
X130428571Y-111704819D02*
X130619047Y-111704819D01*
X130619047Y-111704819D02*
X130714285Y-111657200D01*
X129428571Y-111657200D02*
X129523809Y-111704819D01*
X129523809Y-111704819D02*
X129714285Y-111704819D01*
X129714285Y-111704819D02*
X129809523Y-111657200D01*
X129809523Y-111657200D02*
X129857142Y-111561961D01*
X129857142Y-111561961D02*
X129857142Y-111181009D01*
X129857142Y-111181009D02*
X129809523Y-111085771D01*
X129809523Y-111085771D02*
X129714285Y-111038152D01*
X129714285Y-111038152D02*
X129523809Y-111038152D01*
X129523809Y-111038152D02*
X129428571Y-111085771D01*
X129428571Y-111085771D02*
X129380952Y-111181009D01*
X129380952Y-111181009D02*
X129380952Y-111276247D01*
X129380952Y-111276247D02*
X129857142Y-111371485D01*
X128952380Y-111704819D02*
X128952380Y-111038152D01*
X128952380Y-111228628D02*
X128904761Y-111133390D01*
X128904761Y-111133390D02*
X128857142Y-111085771D01*
X128857142Y-111085771D02*
X128761904Y-111038152D01*
X128761904Y-111038152D02*
X128666666Y-111038152D01*
X127857142Y-111704819D02*
X128333332Y-111704819D01*
X128333332Y-111704819D02*
X128333332Y-110704819D01*
X126999999Y-111704819D02*
X127571427Y-111704819D01*
X127285713Y-111704819D02*
X127285713Y-110704819D01*
X127285713Y-110704819D02*
X127380951Y-110847676D01*
X127380951Y-110847676D02*
X127476189Y-110942914D01*
X127476189Y-110942914D02*
X127571427Y-110990533D01*
D12*
%TO.C,ClickStickR1*%
X170400000Y-121875000D02*
X165600000Y-121875000D01*
X170400000Y-120075000D02*
X165600000Y-120075000D01*
X165600000Y-123675000D01*
X170400000Y-123675000D01*
X170400000Y-120075000D01*
%TO.C,ClickStickL1*%
X134400000Y-120075000D02*
X129600000Y-120075000D01*
X129600000Y-123675000D01*
X134400000Y-123675000D01*
X134400000Y-120075000D01*
X134400000Y-121875000D02*
X129600000Y-121875000D01*
D13*
%TO.C,G\u002A\u002A\u002A*%
G36*
X206177567Y-124249719D02*
G01*
X206177567Y-124535513D01*
X206034669Y-124535513D01*
X205891772Y-124535513D01*
X205891772Y-124249719D01*
X205891772Y-123963924D01*
X206034669Y-123963924D01*
X206177567Y-123963924D01*
X206177567Y-124249719D01*
G37*
G36*
X206177567Y-126536076D02*
G01*
X206177567Y-126821871D01*
X206034669Y-126821871D01*
X205891772Y-126821871D01*
X205891772Y-126536076D01*
X205891772Y-126250281D01*
X206034669Y-126250281D01*
X206177567Y-126250281D01*
X206177567Y-126536076D01*
G37*
G36*
X206463361Y-124678411D02*
G01*
X206463361Y-124821308D01*
X206320464Y-124821308D01*
X206177567Y-124821308D01*
X206177567Y-124678411D01*
X206177567Y-124535513D01*
X206320464Y-124535513D01*
X206463361Y-124535513D01*
X206463361Y-124678411D01*
G37*
G36*
X207034951Y-124964205D02*
G01*
X207034951Y-125107103D01*
X206892053Y-125107103D01*
X206749156Y-125107103D01*
X206749156Y-124964205D01*
X206749156Y-124821308D01*
X206892053Y-124821308D01*
X207034951Y-124821308D01*
X207034951Y-124964205D01*
G37*
G36*
X207892335Y-128679536D02*
G01*
X207892335Y-128822433D01*
X207749437Y-128822433D01*
X207606540Y-128822433D01*
X207606540Y-128679536D01*
X207606540Y-128536639D01*
X207749437Y-128536639D01*
X207892335Y-128536639D01*
X207892335Y-128679536D01*
G37*
G36*
X208178129Y-128965330D02*
G01*
X208178129Y-129108228D01*
X208035232Y-129108228D01*
X207892335Y-129108228D01*
X207892335Y-128965330D01*
X207892335Y-128822433D01*
X208035232Y-128822433D01*
X208178129Y-128822433D01*
X208178129Y-128965330D01*
G37*
G36*
X208463924Y-127250563D02*
G01*
X208463924Y-127393460D01*
X208178129Y-127393460D01*
X207892335Y-127393460D01*
X207892335Y-127250563D01*
X207892335Y-127107665D01*
X208178129Y-127107665D01*
X208463924Y-127107665D01*
X208463924Y-127250563D01*
G37*
G36*
X209321308Y-128965330D02*
G01*
X209321308Y-129108228D01*
X209178411Y-129108228D01*
X209035513Y-129108228D01*
X209035513Y-128965330D01*
X209035513Y-128822433D01*
X209178411Y-128822433D01*
X209321308Y-128822433D01*
X209321308Y-128965330D01*
G37*
G36*
X210178692Y-128679536D02*
G01*
X210178692Y-128822433D01*
X210035795Y-128822433D01*
X209892897Y-128822433D01*
X209892897Y-128679536D01*
X209892897Y-128536639D01*
X210035795Y-128536639D01*
X210178692Y-128536639D01*
X210178692Y-128679536D01*
G37*
G36*
X210464487Y-124678411D02*
G01*
X210464487Y-124821308D01*
X210321589Y-124821308D01*
X210178692Y-124821308D01*
X210178692Y-124678411D01*
X210178692Y-124535513D01*
X210321589Y-124535513D01*
X210464487Y-124535513D01*
X210464487Y-124678411D01*
G37*
G36*
X210464487Y-128965330D02*
G01*
X210464487Y-129108228D01*
X210321589Y-129108228D01*
X210178692Y-129108228D01*
X210178692Y-128965330D01*
X210178692Y-128822433D01*
X210321589Y-128822433D01*
X210464487Y-128822433D01*
X210464487Y-128965330D01*
G37*
G36*
X211036076Y-122106259D02*
G01*
X211036076Y-122249156D01*
X210893179Y-122249156D01*
X210750281Y-122249156D01*
X210750281Y-122106259D01*
X210750281Y-121963361D01*
X210893179Y-121963361D01*
X211036076Y-121963361D01*
X211036076Y-122106259D01*
G37*
G36*
X211607665Y-128107947D02*
G01*
X211607665Y-128250844D01*
X211464768Y-128250844D01*
X211321871Y-128250844D01*
X211321871Y-128107947D01*
X211321871Y-127965049D01*
X211464768Y-127965049D01*
X211607665Y-127965049D01*
X211607665Y-128107947D01*
G37*
G36*
X211893460Y-127536357D02*
G01*
X211893460Y-127679255D01*
X211750563Y-127679255D01*
X211607665Y-127679255D01*
X211607665Y-127536357D01*
X211607665Y-127393460D01*
X211750563Y-127393460D01*
X211893460Y-127393460D01*
X211893460Y-127536357D01*
G37*
G36*
X211893460Y-128393741D02*
G01*
X211893460Y-128536639D01*
X211750563Y-128536639D01*
X211607665Y-128536639D01*
X211607665Y-128393741D01*
X211607665Y-128250844D01*
X211750563Y-128250844D01*
X211893460Y-128250844D01*
X211893460Y-128393741D01*
G37*
G36*
X212465049Y-126964768D02*
G01*
X212465049Y-127107665D01*
X212322152Y-127107665D01*
X212179255Y-127107665D01*
X212179255Y-126964768D01*
X212179255Y-126821871D01*
X212322152Y-126821871D01*
X212465049Y-126821871D01*
X212465049Y-126964768D01*
G37*
G36*
X213036639Y-126964768D02*
G01*
X213036639Y-127107665D01*
X212893741Y-127107665D01*
X212750844Y-127107665D01*
X212750844Y-126964768D01*
X212750844Y-126821871D01*
X212893741Y-126821871D01*
X213036639Y-126821871D01*
X213036639Y-126964768D01*
G37*
G36*
X213322433Y-127250563D02*
G01*
X213322433Y-127393460D01*
X213179536Y-127393460D01*
X213036639Y-127393460D01*
X213036639Y-127250563D01*
X213036639Y-127107665D01*
X213179536Y-127107665D01*
X213322433Y-127107665D01*
X213322433Y-127250563D01*
G37*
G36*
X213608228Y-125821589D02*
G01*
X213608228Y-125964487D01*
X213465330Y-125964487D01*
X213322433Y-125964487D01*
X213322433Y-125821589D01*
X213322433Y-125678692D01*
X213465330Y-125678692D01*
X213608228Y-125678692D01*
X213608228Y-125821589D01*
G37*
G36*
X210464487Y-123106540D02*
G01*
X210464487Y-123392335D01*
X210178692Y-123392335D01*
X209892897Y-123392335D01*
X209892897Y-123249437D01*
X209892897Y-123106540D01*
X210035795Y-123106540D01*
X210178692Y-123106540D01*
X210178692Y-122963643D01*
X210178692Y-122820745D01*
X210321589Y-122820745D01*
X210464487Y-122820745D01*
X210464487Y-123106540D01*
G37*
G36*
X211321871Y-129108228D02*
G01*
X211321871Y-129679817D01*
X211178973Y-129679817D01*
X211036076Y-129679817D01*
X211036076Y-129536920D01*
X211036076Y-129394022D01*
X210893179Y-129394022D01*
X210750281Y-129394022D01*
X210750281Y-129251125D01*
X210750281Y-129108228D01*
X210893179Y-129108228D01*
X211036076Y-129108228D01*
X211036076Y-128822433D01*
X211036076Y-128536639D01*
X211178973Y-128536639D01*
X211321871Y-128536639D01*
X211321871Y-129108228D01*
G37*
G36*
X214179817Y-128393741D02*
G01*
X214179817Y-128536639D01*
X214036920Y-128536639D01*
X213894022Y-128536639D01*
X213894022Y-128679536D01*
X213894022Y-128822433D01*
X213751125Y-128822433D01*
X213608228Y-128822433D01*
X213608228Y-128679536D01*
X213608228Y-128536639D01*
X213751125Y-128536639D01*
X213894022Y-128536639D01*
X213894022Y-128393741D01*
X213894022Y-128250844D01*
X214036920Y-128250844D01*
X214179817Y-128250844D01*
X214179817Y-128393741D01*
G37*
G36*
X206034669Y-120820183D02*
G01*
X206749156Y-120820183D01*
X206749156Y-121534669D01*
X206749156Y-122249156D01*
X206034669Y-122249156D01*
X205320183Y-122249156D01*
X205320183Y-121534669D01*
X205320183Y-121105977D01*
X205605977Y-121105977D01*
X205605977Y-121534669D01*
X205605977Y-121963361D01*
X206034669Y-121963361D01*
X206463361Y-121963361D01*
X206463361Y-121534669D01*
X206463361Y-121105977D01*
X206034669Y-121105977D01*
X205605977Y-121105977D01*
X205320183Y-121105977D01*
X205320183Y-120820183D01*
X206034669Y-120820183D01*
G37*
G36*
X206034669Y-128250844D02*
G01*
X206749156Y-128250844D01*
X206749156Y-128965330D01*
X206749156Y-129679817D01*
X206034669Y-129679817D01*
X205320183Y-129679817D01*
X205320183Y-128965330D01*
X205320183Y-128536639D01*
X205605977Y-128536639D01*
X205605977Y-128965330D01*
X205605977Y-129394022D01*
X206034669Y-129394022D01*
X206463361Y-129394022D01*
X206463361Y-128965330D01*
X206463361Y-128536639D01*
X206034669Y-128536639D01*
X205605977Y-128536639D01*
X205320183Y-128536639D01*
X205320183Y-128250844D01*
X206034669Y-128250844D01*
G37*
G36*
X212607947Y-127679255D02*
G01*
X213036639Y-127679255D01*
X213036639Y-128107947D01*
X213036639Y-128536639D01*
X212607947Y-128536639D01*
X212179255Y-128536639D01*
X212179255Y-128107947D01*
X212179255Y-127965049D01*
X212465049Y-127965049D01*
X212465049Y-128107947D01*
X212465049Y-128250844D01*
X212607947Y-128250844D01*
X212750844Y-128250844D01*
X212750844Y-128107947D01*
X212750844Y-127965049D01*
X212607947Y-127965049D01*
X212465049Y-127965049D01*
X212179255Y-127965049D01*
X212179255Y-127679255D01*
X212607947Y-127679255D01*
G37*
G36*
X213465330Y-120820183D02*
G01*
X214179817Y-120820183D01*
X214179817Y-121534669D01*
X214179817Y-122249156D01*
X213465330Y-122249156D01*
X212750844Y-122249156D01*
X212750844Y-121534669D01*
X212750844Y-121105977D01*
X213036639Y-121105977D01*
X213036639Y-121534669D01*
X213036639Y-121963361D01*
X213465330Y-121963361D01*
X213894022Y-121963361D01*
X213894022Y-121534669D01*
X213894022Y-121105977D01*
X213465330Y-121105977D01*
X213036639Y-121105977D01*
X212750844Y-121105977D01*
X212750844Y-120820183D01*
X213465330Y-120820183D01*
G37*
G36*
X212750844Y-128965330D02*
G01*
X212750844Y-129108228D01*
X212465049Y-129108228D01*
X212179255Y-129108228D01*
X212179255Y-129251125D01*
X212179255Y-129394022D01*
X212036357Y-129394022D01*
X211893460Y-129394022D01*
X211893460Y-129536920D01*
X211893460Y-129679817D01*
X211750563Y-129679817D01*
X211607665Y-129679817D01*
X211607665Y-129536920D01*
X211607665Y-129394022D01*
X211750563Y-129394022D01*
X211893460Y-129394022D01*
X211893460Y-129108228D01*
X211893460Y-128822433D01*
X212322152Y-128822433D01*
X212750844Y-128822433D01*
X212750844Y-128965330D01*
G37*
G36*
X214179817Y-127393460D02*
G01*
X214179817Y-127679255D01*
X214036920Y-127679255D01*
X213894022Y-127679255D01*
X213894022Y-127822152D01*
X213894022Y-127965049D01*
X213751125Y-127965049D01*
X213608228Y-127965049D01*
X213608228Y-128250844D01*
X213608228Y-128536639D01*
X213465330Y-128536639D01*
X213322433Y-128536639D01*
X213322433Y-128250844D01*
X213322433Y-127965049D01*
X213465330Y-127965049D01*
X213608228Y-127965049D01*
X213608228Y-127536357D01*
X213608228Y-127107665D01*
X213894022Y-127107665D01*
X214179817Y-127107665D01*
X214179817Y-127393460D01*
G37*
G36*
X213036639Y-123821027D02*
G01*
X213036639Y-123963924D01*
X213179536Y-123963924D01*
X213322433Y-123963924D01*
X213322433Y-124249719D01*
X213322433Y-124535513D01*
X213465330Y-124535513D01*
X213608228Y-124535513D01*
X213608228Y-124678411D01*
X213608228Y-124821308D01*
X213179536Y-124821308D01*
X212750844Y-124821308D01*
X212750844Y-124678411D01*
X212750844Y-124535513D01*
X212607947Y-124535513D01*
X212465049Y-124535513D01*
X212465049Y-124964205D01*
X212465049Y-125392897D01*
X212750844Y-125392897D01*
X213036639Y-125392897D01*
X213036639Y-125250000D01*
X213036639Y-125107103D01*
X213179536Y-125107103D01*
X213322433Y-125107103D01*
X213322433Y-125392897D01*
X213322433Y-125678692D01*
X213179536Y-125678692D01*
X213036639Y-125678692D01*
X213036639Y-125964487D01*
X213036639Y-126250281D01*
X212750844Y-126250281D01*
X212465049Y-126250281D01*
X212465049Y-126393179D01*
X212465049Y-126536076D01*
X212322152Y-126536076D01*
X212179255Y-126536076D01*
X212179255Y-126678973D01*
X212179255Y-126821871D01*
X212036357Y-126821871D01*
X211893460Y-126821871D01*
X211893460Y-126536076D01*
X211893460Y-126250281D01*
X212179255Y-126250281D01*
X212465049Y-126250281D01*
X212465049Y-126107384D01*
X212465049Y-125964487D01*
X212607947Y-125964487D01*
X212750844Y-125964487D01*
X212750844Y-125821589D01*
X212750844Y-125678692D01*
X212465049Y-125678692D01*
X212179255Y-125678692D01*
X212179255Y-125821589D01*
X212179255Y-125964487D01*
X212036357Y-125964487D01*
X211893460Y-125964487D01*
X211893460Y-125821589D01*
X211893460Y-125678692D01*
X212036357Y-125678692D01*
X212179255Y-125678692D01*
X212179255Y-125535795D01*
X212179255Y-125392897D01*
X212036357Y-125392897D01*
X211893460Y-125392897D01*
X211893460Y-125535795D01*
X211893460Y-125678692D01*
X211750563Y-125678692D01*
X211607665Y-125678692D01*
X211607665Y-125964487D01*
X211607665Y-126250281D01*
X211464768Y-126250281D01*
X211321871Y-126250281D01*
X211321871Y-125964487D01*
X211321871Y-125678692D01*
X211178973Y-125678692D01*
X211036076Y-125678692D01*
X211036076Y-125821589D01*
X211036076Y-125964487D01*
X210893179Y-125964487D01*
X210750281Y-125964487D01*
X210750281Y-125678692D01*
X210750281Y-125392897D01*
X210893179Y-125392897D01*
X211036076Y-125392897D01*
X211036076Y-125250000D01*
X211036076Y-125107103D01*
X211178973Y-125107103D01*
X211321871Y-125107103D01*
X211321871Y-125250000D01*
X211321871Y-125392897D01*
X211464768Y-125392897D01*
X211607665Y-125392897D01*
X211607665Y-125250000D01*
X211607665Y-125107103D01*
X211893460Y-125107103D01*
X212179255Y-125107103D01*
X212179255Y-124964205D01*
X212179255Y-124821308D01*
X212036357Y-124821308D01*
X211893460Y-124821308D01*
X211893460Y-124678411D01*
X211893460Y-124535513D01*
X212179255Y-124535513D01*
X212465049Y-124535513D01*
X212465049Y-124392616D01*
X212465049Y-124249719D01*
X212607947Y-124249719D01*
X212750844Y-124249719D01*
X212750844Y-123963924D01*
X212750844Y-123678129D01*
X212893741Y-123678129D01*
X213036639Y-123678129D01*
X213036639Y-123821027D01*
G37*
G36*
X212179255Y-123535232D02*
G01*
X212179255Y-123678129D01*
X212036357Y-123678129D01*
X211893460Y-123678129D01*
X211893460Y-123821027D01*
X211893460Y-123963924D01*
X211750563Y-123963924D01*
X211607665Y-123963924D01*
X211607665Y-124106821D01*
X211607665Y-124249719D01*
X211464768Y-124249719D01*
X211321871Y-124249719D01*
X211321871Y-124392616D01*
X211321871Y-124535513D01*
X211464768Y-124535513D01*
X211607665Y-124535513D01*
X211607665Y-124678411D01*
X211607665Y-124821308D01*
X211321871Y-124821308D01*
X211036076Y-124821308D01*
X211036076Y-124964205D01*
X211036076Y-125107103D01*
X210893179Y-125107103D01*
X210750281Y-125107103D01*
X210750281Y-124964205D01*
X210750281Y-124821308D01*
X210893179Y-124821308D01*
X211036076Y-124821308D01*
X211036076Y-124535513D01*
X211036076Y-124249719D01*
X210893179Y-124249719D01*
X210750281Y-124249719D01*
X210750281Y-124106821D01*
X210750281Y-123963924D01*
X210893179Y-123963924D01*
X211036076Y-123963924D01*
X211036076Y-124106821D01*
X211036076Y-124249719D01*
X211178973Y-124249719D01*
X211321871Y-124249719D01*
X211321871Y-124106821D01*
X211321871Y-123963924D01*
X211464768Y-123963924D01*
X211607665Y-123963924D01*
X211607665Y-123821027D01*
X211607665Y-123678129D01*
X211750563Y-123678129D01*
X211893460Y-123678129D01*
X211893460Y-123535232D01*
X211893460Y-123392335D01*
X212036357Y-123392335D01*
X212179255Y-123392335D01*
X212179255Y-123535232D01*
G37*
G36*
X212322152Y-123678129D02*
G01*
X212465049Y-123678129D01*
X212465049Y-123821027D01*
X212465049Y-123963924D01*
X212322152Y-123963924D01*
X212179255Y-123963924D01*
X212179255Y-124106821D01*
X212179255Y-124249719D01*
X212036357Y-124249719D01*
X211893460Y-124249719D01*
X211893460Y-124106821D01*
X211893460Y-123963924D01*
X212036357Y-123963924D01*
X212179255Y-123963924D01*
X212179255Y-123821027D01*
X212179255Y-123678129D01*
X212322152Y-123678129D01*
G37*
G36*
X210035795Y-125678692D02*
G01*
X210464487Y-125678692D01*
X210464487Y-125964487D01*
X210464487Y-126250281D01*
X210178692Y-126250281D01*
X209892897Y-126250281D01*
X209892897Y-126393179D01*
X209892897Y-126536076D01*
X210178692Y-126536076D01*
X210464487Y-126536076D01*
X210464487Y-126678973D01*
X210464487Y-126821871D01*
X210607384Y-126821871D01*
X210750281Y-126821871D01*
X210750281Y-126536076D01*
X210750281Y-126250281D01*
X210893179Y-126250281D01*
X211036076Y-126250281D01*
X211036076Y-126536076D01*
X211036076Y-126821871D01*
X210893179Y-126821871D01*
X210750281Y-126821871D01*
X210750281Y-126964768D01*
X210750281Y-127107665D01*
X210893179Y-127107665D01*
X211036076Y-127107665D01*
X211036076Y-127250563D01*
X211036076Y-127393460D01*
X211178973Y-127393460D01*
X211321871Y-127393460D01*
X211321871Y-126964768D01*
X211321871Y-126536076D01*
X211464768Y-126536076D01*
X211607665Y-126536076D01*
X211607665Y-126964768D01*
X211607665Y-127393460D01*
X211464768Y-127393460D01*
X211321871Y-127393460D01*
X211321871Y-127679255D01*
X211321871Y-127965049D01*
X211178973Y-127965049D01*
X211036076Y-127965049D01*
X211036076Y-128107947D01*
X211036076Y-128250844D01*
X210750281Y-128250844D01*
X210464487Y-128250844D01*
X210464487Y-128107947D01*
X210464487Y-127965049D01*
X210178692Y-127965049D01*
X209892897Y-127965049D01*
X209892897Y-128107947D01*
X209892897Y-128250844D01*
X209750000Y-128250844D01*
X209607103Y-128250844D01*
X209607103Y-128107947D01*
X209607103Y-127965049D01*
X209750000Y-127965049D01*
X209892897Y-127965049D01*
X209892897Y-127679255D01*
X209892897Y-127393460D01*
X209750000Y-127393460D01*
X209607103Y-127393460D01*
X209607103Y-127536357D01*
X209607103Y-127679255D01*
X209321308Y-127679255D01*
X209035513Y-127679255D01*
X209035513Y-127822152D01*
X209035513Y-127965049D01*
X208892616Y-127965049D01*
X208749719Y-127965049D01*
X208749719Y-127822152D01*
X208749719Y-127679255D01*
X208892616Y-127679255D01*
X209035513Y-127679255D01*
X209035513Y-127393460D01*
X209035513Y-127107665D01*
X208892616Y-127107665D01*
X208749719Y-127107665D01*
X208749719Y-126964768D01*
X208749719Y-126821871D01*
X208606821Y-126821871D01*
X208463924Y-126821871D01*
X208463924Y-126678973D01*
X208463924Y-126536076D01*
X208321027Y-126536076D01*
X208178129Y-126536076D01*
X208178129Y-126393179D01*
X208178129Y-126250281D01*
X208035232Y-126250281D01*
X207892335Y-126250281D01*
X207892335Y-126107384D01*
X207892335Y-125964487D01*
X208178129Y-125964487D01*
X208463924Y-125964487D01*
X208463924Y-126107384D01*
X208463924Y-126250281D01*
X208606821Y-126250281D01*
X208749719Y-126250281D01*
X208749719Y-126393179D01*
X208749719Y-126536076D01*
X208892616Y-126536076D01*
X209035513Y-126536076D01*
X209035513Y-126250281D01*
X209035513Y-125964487D01*
X209321308Y-125964487D01*
X209607103Y-125964487D01*
X209607103Y-126107384D01*
X209607103Y-126250281D01*
X209464205Y-126250281D01*
X209321308Y-126250281D01*
X209321308Y-126536076D01*
X209321308Y-126821871D01*
X209178411Y-126821871D01*
X209035513Y-126821871D01*
X209035513Y-126964768D01*
X209035513Y-127107665D01*
X209178411Y-127107665D01*
X209321308Y-127107665D01*
X209321308Y-126964768D01*
X209321308Y-126821871D01*
X209464205Y-126821871D01*
X209607103Y-126821871D01*
X209607103Y-126964768D01*
X209607103Y-127107665D01*
X209750000Y-127107665D01*
X209892897Y-127107665D01*
X209892897Y-127250563D01*
X209892897Y-127393460D01*
X210035795Y-127393460D01*
X210178692Y-127393460D01*
X210178692Y-127536357D01*
X210178692Y-127679255D01*
X210321589Y-127679255D01*
X210464487Y-127679255D01*
X210464487Y-127536357D01*
X210464487Y-127393460D01*
X210750281Y-127393460D01*
X210750281Y-127679255D01*
X210750281Y-127965049D01*
X210893179Y-127965049D01*
X211036076Y-127965049D01*
X211036076Y-127679255D01*
X211036076Y-127393460D01*
X210893179Y-127393460D01*
X210750281Y-127393460D01*
X210464487Y-127393460D01*
X210321589Y-127393460D01*
X210178692Y-127393460D01*
X210178692Y-127250563D01*
X210178692Y-127107665D01*
X210321589Y-127107665D01*
X210464487Y-127107665D01*
X210464487Y-126964768D01*
X210464487Y-126821871D01*
X210321589Y-126821871D01*
X210178692Y-126821871D01*
X210178692Y-126964768D01*
X210178692Y-127107665D01*
X210035795Y-127107665D01*
X209892897Y-127107665D01*
X209892897Y-126964768D01*
X209892897Y-126821871D01*
X209750000Y-126821871D01*
X209607103Y-126821871D01*
X209607103Y-126536076D01*
X209607103Y-126250281D01*
X209750000Y-126250281D01*
X209892897Y-126250281D01*
X209892897Y-126107384D01*
X209892897Y-125964487D01*
X209750000Y-125964487D01*
X209607103Y-125964487D01*
X209607103Y-125821589D01*
X209607103Y-125678692D01*
X210035795Y-125678692D01*
G37*
G36*
X209607103Y-125535795D02*
G01*
X209607103Y-125678692D01*
X209464205Y-125678692D01*
X209321308Y-125678692D01*
X209321308Y-125535795D01*
X209321308Y-125392897D01*
X209464205Y-125392897D01*
X209607103Y-125392897D01*
X209607103Y-125535795D01*
G37*
G36*
X208749719Y-121248875D02*
G01*
X208749719Y-121391772D01*
X208892616Y-121391772D01*
X209035513Y-121391772D01*
X209035513Y-121534669D01*
X209035513Y-121677567D01*
X209178411Y-121677567D01*
X209321308Y-121677567D01*
X209321308Y-121963361D01*
X209321308Y-122249156D01*
X209178411Y-122249156D01*
X209035513Y-122249156D01*
X209035513Y-122392053D01*
X209035513Y-122534951D01*
X209178411Y-122534951D01*
X209321308Y-122534951D01*
X209321308Y-122677848D01*
X209321308Y-122820745D01*
X209464205Y-122820745D01*
X209607103Y-122820745D01*
X209607103Y-122677848D01*
X209607103Y-122534951D01*
X209750000Y-122534951D01*
X209892897Y-122534951D01*
X209892897Y-122392053D01*
X209892897Y-122249156D01*
X209750000Y-122249156D01*
X209607103Y-122249156D01*
X209607103Y-122392053D01*
X209607103Y-122534951D01*
X209464205Y-122534951D01*
X209321308Y-122534951D01*
X209321308Y-122392053D01*
X209321308Y-122249156D01*
X209464205Y-122249156D01*
X209607103Y-122249156D01*
X209607103Y-122106259D01*
X209607103Y-121963361D01*
X209750000Y-121963361D01*
X209892897Y-121963361D01*
X209892897Y-122106259D01*
X209892897Y-122249156D01*
X210035795Y-122249156D01*
X210178692Y-122249156D01*
X210178692Y-122106259D01*
X210178692Y-121963361D01*
X210321589Y-121963361D01*
X210464487Y-121963361D01*
X210464487Y-122106259D01*
X210464487Y-122249156D01*
X210321589Y-122249156D01*
X210178692Y-122249156D01*
X210178692Y-122392053D01*
X210178692Y-122534951D01*
X210035795Y-122534951D01*
X209892897Y-122534951D01*
X209892897Y-122820745D01*
X209892897Y-123106540D01*
X209750000Y-123106540D01*
X209607103Y-123106540D01*
X209607103Y-123249437D01*
X209607103Y-123392335D01*
X209464205Y-123392335D01*
X209321308Y-123392335D01*
X209321308Y-123535232D01*
X209321308Y-123678129D01*
X209464205Y-123678129D01*
X209607103Y-123678129D01*
X209607103Y-123821027D01*
X209607103Y-123963924D01*
X209750000Y-123963924D01*
X209892897Y-123963924D01*
X209892897Y-123821027D01*
X209892897Y-123678129D01*
X210035795Y-123678129D01*
X210178692Y-123678129D01*
X210178692Y-123821027D01*
X210178692Y-123963924D01*
X210321589Y-123963924D01*
X210464487Y-123963924D01*
X210464487Y-123821027D01*
X210464487Y-123678129D01*
X210607384Y-123678129D01*
X210750281Y-123678129D01*
X210750281Y-123821027D01*
X210750281Y-123963924D01*
X210607384Y-123963924D01*
X210464487Y-123963924D01*
X210464487Y-124106821D01*
X210464487Y-124249719D01*
X210321589Y-124249719D01*
X210178692Y-124249719D01*
X210178692Y-124392616D01*
X210178692Y-124535513D01*
X210035795Y-124535513D01*
X209892897Y-124535513D01*
X209892897Y-124821308D01*
X209892897Y-125107103D01*
X209607103Y-125107103D01*
X209321308Y-125107103D01*
X209321308Y-125250000D01*
X209321308Y-125392897D01*
X209178411Y-125392897D01*
X209035513Y-125392897D01*
X209035513Y-125535795D01*
X209035513Y-125678692D01*
X208606821Y-125678692D01*
X208178129Y-125678692D01*
X208178129Y-125535795D01*
X208178129Y-125392897D01*
X208035232Y-125392897D01*
X207892335Y-125392897D01*
X207892335Y-125250000D01*
X207892335Y-125107103D01*
X208321027Y-125107103D01*
X208749719Y-125107103D01*
X208749719Y-125250000D01*
X208749719Y-125392897D01*
X208892616Y-125392897D01*
X209035513Y-125392897D01*
X209035513Y-124964205D01*
X209035513Y-124535513D01*
X209178411Y-124535513D01*
X209321308Y-124535513D01*
X209321308Y-124392616D01*
X209321308Y-124249719D01*
X209178411Y-124249719D01*
X209035513Y-124249719D01*
X209035513Y-124392616D01*
X209035513Y-124535513D01*
X208892616Y-124535513D01*
X208749719Y-124535513D01*
X208749719Y-124678411D01*
X208749719Y-124821308D01*
X208606821Y-124821308D01*
X208463924Y-124821308D01*
X208463924Y-124678411D01*
X208463924Y-124535513D01*
X208321027Y-124535513D01*
X208178129Y-124535513D01*
X208178129Y-124678411D01*
X208178129Y-124821308D01*
X208035232Y-124821308D01*
X207892335Y-124821308D01*
X207892335Y-124964205D01*
X207892335Y-125107103D01*
X207749437Y-125107103D01*
X207606540Y-125107103D01*
X207606540Y-124678411D01*
X207606540Y-124249719D01*
X207749437Y-124249719D01*
X207892335Y-124249719D01*
X207892335Y-124106821D01*
X207892335Y-123963924D01*
X208463924Y-123963924D01*
X208463924Y-124249719D01*
X208749719Y-124249719D01*
X209035513Y-124249719D01*
X209035513Y-123963924D01*
X209035513Y-123678129D01*
X208749719Y-123678129D01*
X208463924Y-123678129D01*
X208463924Y-123963924D01*
X207892335Y-123963924D01*
X207749437Y-123963924D01*
X207606540Y-123963924D01*
X207606540Y-124106821D01*
X207606540Y-124249719D01*
X207463643Y-124249719D01*
X207320745Y-124249719D01*
X207320745Y-124392616D01*
X207320745Y-124535513D01*
X207034951Y-124535513D01*
X206749156Y-124535513D01*
X206749156Y-124392616D01*
X206749156Y-124249719D01*
X207034951Y-124249719D01*
X207320745Y-124249719D01*
X207320745Y-124106821D01*
X207320745Y-123963924D01*
X206892053Y-123963924D01*
X206463361Y-123963924D01*
X206463361Y-123821027D01*
X206463361Y-123678129D01*
X206034669Y-123678129D01*
X205605977Y-123678129D01*
X205605977Y-123535232D01*
X205605977Y-123392335D01*
X205748875Y-123392335D01*
X205891772Y-123392335D01*
X205891772Y-123249437D01*
X205891772Y-123106540D01*
X206034669Y-123106540D01*
X206177567Y-123106540D01*
X206177567Y-123249437D01*
X206177567Y-123392335D01*
X206320464Y-123392335D01*
X206463361Y-123392335D01*
X206749156Y-123392335D01*
X206749156Y-123535232D01*
X206749156Y-123678129D01*
X206892053Y-123678129D01*
X207034951Y-123678129D01*
X207034951Y-123535232D01*
X207034951Y-123392335D01*
X206892053Y-123392335D01*
X206749156Y-123392335D01*
X206463361Y-123392335D01*
X206463361Y-123249437D01*
X206463361Y-123106540D01*
X206892053Y-123106540D01*
X207320745Y-123106540D01*
X207320745Y-123535232D01*
X207320745Y-123963924D01*
X207463643Y-123963924D01*
X207606540Y-123963924D01*
X207606540Y-123821027D01*
X207606540Y-123678129D01*
X208035232Y-123678129D01*
X208463924Y-123678129D01*
X208463924Y-123535232D01*
X208463924Y-123392335D01*
X208178129Y-123392335D01*
X207892335Y-123392335D01*
X207892335Y-123249437D01*
X207892335Y-123106540D01*
X208178129Y-123106540D01*
X208463924Y-123106540D01*
X208463924Y-123249437D01*
X208463924Y-123392335D01*
X208892616Y-123392335D01*
X209321308Y-123392335D01*
X209321308Y-123106540D01*
X209321308Y-122820745D01*
X209178411Y-122820745D01*
X209035513Y-122820745D01*
X209035513Y-122963643D01*
X209035513Y-123106540D01*
X208892616Y-123106540D01*
X208749719Y-123106540D01*
X208749719Y-122963643D01*
X208749719Y-122820745D01*
X208892616Y-122820745D01*
X209035513Y-122820745D01*
X209035513Y-122677848D01*
X209035513Y-122534951D01*
X208892616Y-122534951D01*
X208749719Y-122534951D01*
X208749719Y-122106259D01*
X208749719Y-121677567D01*
X208606821Y-121677567D01*
X208463924Y-121677567D01*
X208463924Y-121820464D01*
X208463924Y-121963361D01*
X208321027Y-121963361D01*
X208178129Y-121963361D01*
X208178129Y-122106259D01*
X208178129Y-122249156D01*
X208035232Y-122249156D01*
X207892335Y-122249156D01*
X207892335Y-122106259D01*
X207892335Y-121963361D01*
X207749437Y-121963361D01*
X207606540Y-121963361D01*
X207606540Y-121677567D01*
X207606540Y-121391772D01*
X207892335Y-121391772D01*
X208178129Y-121391772D01*
X208178129Y-121534669D01*
X208178129Y-121677567D01*
X208321027Y-121677567D01*
X208463924Y-121677567D01*
X208463924Y-121391772D01*
X208463924Y-121105977D01*
X208606821Y-121105977D01*
X208749719Y-121105977D01*
X208749719Y-121248875D01*
G37*
G36*
X206034669Y-120248594D02*
G01*
X207463643Y-120248594D01*
X207892335Y-120248594D01*
X209178411Y-120248594D01*
X209607103Y-120248594D01*
X209750000Y-120248594D01*
X210178692Y-120248594D01*
X211607665Y-120248594D01*
X213465330Y-120248594D01*
X214751406Y-120248594D01*
X214751406Y-125250000D01*
X214751406Y-130251406D01*
X209750000Y-130251406D01*
X204748594Y-130251406D01*
X204748594Y-127965049D01*
X205034388Y-127965049D01*
X205034388Y-128965330D01*
X205034388Y-129965612D01*
X206034669Y-129965612D01*
X207034951Y-129965612D01*
X207034951Y-128965330D01*
X207034951Y-127965049D01*
X206034669Y-127965049D01*
X205034388Y-127965049D01*
X204748594Y-127965049D01*
X204748594Y-127107665D01*
X205034388Y-127107665D01*
X205034388Y-127250563D01*
X205034388Y-127393460D01*
X205177285Y-127393460D01*
X205320183Y-127393460D01*
X205891772Y-127393460D01*
X205891772Y-127536357D01*
X205891772Y-127679255D01*
X206034669Y-127679255D01*
X206177567Y-127679255D01*
X206177567Y-127536357D01*
X206177567Y-127393460D01*
X206749156Y-127393460D01*
X206749156Y-127536357D01*
X206749156Y-127679255D01*
X206892053Y-127679255D01*
X207034951Y-127679255D01*
X207034951Y-127536357D01*
X207034951Y-127393460D01*
X206892053Y-127393460D01*
X206749156Y-127393460D01*
X206177567Y-127393460D01*
X206034669Y-127393460D01*
X205891772Y-127393460D01*
X205320183Y-127393460D01*
X205320183Y-127250563D01*
X205320183Y-127107665D01*
X205177285Y-127107665D01*
X205034388Y-127107665D01*
X204748594Y-127107665D01*
X204748594Y-125678692D01*
X205034388Y-125678692D01*
X205034388Y-126250281D01*
X205034388Y-126821871D01*
X205177285Y-126821871D01*
X205320183Y-126821871D01*
X205320183Y-126250281D01*
X205320183Y-125964487D01*
X205605977Y-125964487D01*
X205605977Y-126536076D01*
X205605977Y-127107665D01*
X205891772Y-127107665D01*
X206034669Y-127107665D01*
X206177567Y-127107665D01*
X206177567Y-126964768D01*
X206177567Y-126821871D01*
X206320464Y-126821871D01*
X206463361Y-126821871D01*
X206463361Y-126393179D01*
X206463361Y-125964487D01*
X206034669Y-125964487D01*
X205605977Y-125964487D01*
X205320183Y-125964487D01*
X205320183Y-125678692D01*
X205177285Y-125678692D01*
X205034388Y-125678692D01*
X204748594Y-125678692D01*
X204748594Y-125250000D01*
X204748594Y-123963924D01*
X205034388Y-123963924D01*
X205034388Y-124249719D01*
X205034388Y-124535513D01*
X205177285Y-124535513D01*
X205320183Y-124535513D01*
X205320183Y-124821308D01*
X205320183Y-125107103D01*
X205177285Y-125107103D01*
X205034388Y-125107103D01*
X205034388Y-125250000D01*
X205034388Y-125392897D01*
X205177285Y-125392897D01*
X205320183Y-125392897D01*
X205320183Y-125250000D01*
X205320183Y-125107103D01*
X205463080Y-125107103D01*
X205605977Y-125107103D01*
X205605977Y-124821308D01*
X205605977Y-124535513D01*
X205748875Y-124535513D01*
X205891772Y-124535513D01*
X205891772Y-125107103D01*
X205891772Y-125678692D01*
X206034669Y-125678692D01*
X206177567Y-125678692D01*
X206749156Y-125678692D01*
X206749156Y-125821589D01*
X206749156Y-125964487D01*
X206892053Y-125964487D01*
X207034951Y-125964487D01*
X207034951Y-125821589D01*
X207034951Y-125678692D01*
X206892053Y-125678692D01*
X206749156Y-125678692D01*
X206177567Y-125678692D01*
X206177567Y-125392897D01*
X206177567Y-125107103D01*
X206320464Y-125107103D01*
X206463361Y-125107103D01*
X206463361Y-125250000D01*
X206463361Y-125392897D01*
X206749156Y-125392897D01*
X206892053Y-125392897D01*
X207034951Y-125392897D01*
X207034951Y-125250000D01*
X207034951Y-125107103D01*
X207177848Y-125107103D01*
X207320745Y-125107103D01*
X207320745Y-125392897D01*
X207320745Y-125678692D01*
X207463643Y-125678692D01*
X207606540Y-125678692D01*
X207606540Y-125535795D01*
X207606540Y-125392897D01*
X207749437Y-125392897D01*
X207892335Y-125392897D01*
X207892335Y-125678692D01*
X207892335Y-125964487D01*
X207606540Y-125964487D01*
X207320745Y-125964487D01*
X207320745Y-126107384D01*
X207320745Y-126250281D01*
X207034951Y-126250281D01*
X206749156Y-126250281D01*
X206749156Y-126393179D01*
X206749156Y-126536076D01*
X206892053Y-126536076D01*
X207034951Y-126536076D01*
X207034951Y-126678973D01*
X207034951Y-126821871D01*
X206892053Y-126821871D01*
X206749156Y-126821871D01*
X206749156Y-126964768D01*
X206749156Y-127107665D01*
X206892053Y-127107665D01*
X207034951Y-127107665D01*
X207034951Y-126964768D01*
X207034951Y-126821871D01*
X207177848Y-126821871D01*
X207320745Y-126821871D01*
X207320745Y-126536076D01*
X207320745Y-126250281D01*
X207463643Y-126250281D01*
X207606540Y-126250281D01*
X207606540Y-126393179D01*
X207606540Y-126536076D01*
X207892335Y-126536076D01*
X208178129Y-126536076D01*
X208178129Y-126678973D01*
X208178129Y-126821871D01*
X208035232Y-126821871D01*
X207892335Y-126821871D01*
X207892335Y-126964768D01*
X207892335Y-127107665D01*
X207606540Y-127107665D01*
X207320745Y-127107665D01*
X207320745Y-127250563D01*
X207320745Y-127393460D01*
X207606540Y-127393460D01*
X207892335Y-127393460D01*
X207892335Y-127536357D01*
X207892335Y-127679255D01*
X208178129Y-127679255D01*
X208463924Y-127679255D01*
X208463924Y-127822152D01*
X208463924Y-127965049D01*
X208606821Y-127965049D01*
X208749719Y-127965049D01*
X208749719Y-128107947D01*
X208749719Y-128250844D01*
X209178411Y-128250844D01*
X209607103Y-128250844D01*
X209607103Y-128393741D01*
X209607103Y-128536639D01*
X209321308Y-128536639D01*
X209035513Y-128536639D01*
X209035513Y-128679536D01*
X209035513Y-128822433D01*
X208749719Y-128822433D01*
X208463924Y-128822433D01*
X208463924Y-128679536D01*
X208463924Y-128536639D01*
X208178129Y-128536639D01*
X207892335Y-128536639D01*
X207892335Y-128250844D01*
X207892335Y-127965049D01*
X207606540Y-127965049D01*
X207320745Y-127965049D01*
X207320745Y-128679536D01*
X207320745Y-129394022D01*
X207463643Y-129394022D01*
X207606540Y-129394022D01*
X207606540Y-129679817D01*
X207606540Y-129965612D01*
X207749437Y-129965612D01*
X207892335Y-129965612D01*
X207892335Y-129822714D01*
X207892335Y-129679817D01*
X208035232Y-129679817D01*
X208178129Y-129679817D01*
X208178129Y-129822714D01*
X208178129Y-129965612D01*
X208321027Y-129965612D01*
X208463924Y-129965612D01*
X208463924Y-129536920D01*
X208463924Y-129108228D01*
X208606821Y-129108228D01*
X208749719Y-129108228D01*
X208749719Y-129536920D01*
X208749719Y-129965612D01*
X208892616Y-129965612D01*
X209035513Y-129965612D01*
X209035513Y-129822714D01*
X209035513Y-129679817D01*
X209178411Y-129679817D01*
X209321308Y-129679817D01*
X209321308Y-129536920D01*
X209321308Y-129394022D01*
X209464205Y-129394022D01*
X209607103Y-129394022D01*
X209607103Y-129108228D01*
X209607103Y-128822433D01*
X209750000Y-128822433D01*
X209892897Y-128822433D01*
X209892897Y-129108228D01*
X209892897Y-129394022D01*
X210035795Y-129394022D01*
X210178692Y-129394022D01*
X210178692Y-129536920D01*
X210178692Y-129679817D01*
X209892897Y-129679817D01*
X209607103Y-129679817D01*
X209607103Y-129822714D01*
X209607103Y-129965612D01*
X209892897Y-129965612D01*
X210178692Y-129965612D01*
X210178692Y-129822714D01*
X210178692Y-129679817D01*
X210607384Y-129679817D01*
X211036076Y-129679817D01*
X211036076Y-129822714D01*
X211036076Y-129965612D01*
X211178973Y-129965612D01*
X211321871Y-129965612D01*
X211321871Y-129822714D01*
X211321871Y-129679817D01*
X211464768Y-129679817D01*
X211607665Y-129679817D01*
X211607665Y-129822714D01*
X211607665Y-129965612D01*
X211750563Y-129965612D01*
X211893460Y-129965612D01*
X211893460Y-129822714D01*
X211893460Y-129679817D01*
X212036357Y-129679817D01*
X212179255Y-129679817D01*
X212179255Y-129822714D01*
X212179255Y-129965612D01*
X212322152Y-129965612D01*
X212465049Y-129965612D01*
X212465049Y-129822714D01*
X212465049Y-129679817D01*
X212607947Y-129679817D01*
X212750844Y-129679817D01*
X212750844Y-129536920D01*
X212750844Y-129394022D01*
X212893741Y-129394022D01*
X213036639Y-129394022D01*
X213036639Y-129536920D01*
X213036639Y-129679817D01*
X213179536Y-129679817D01*
X213322433Y-129679817D01*
X213322433Y-129822714D01*
X213322433Y-129965612D01*
X213465330Y-129965612D01*
X213608228Y-129965612D01*
X213608228Y-129679817D01*
X213608228Y-129394022D01*
X213322433Y-129394022D01*
X213036639Y-129394022D01*
X213036639Y-129251125D01*
X213036639Y-129108228D01*
X213322433Y-129108228D01*
X213465330Y-129108228D01*
X213894022Y-129108228D01*
X213894022Y-129251125D01*
X213894022Y-129394022D01*
X214036920Y-129394022D01*
X214179817Y-129394022D01*
X214179817Y-129536920D01*
X214179817Y-129679817D01*
X214322714Y-129679817D01*
X214465612Y-129679817D01*
X214465612Y-129536920D01*
X214465612Y-129394022D01*
X214322714Y-129394022D01*
X214179817Y-129394022D01*
X214179817Y-128965330D01*
X214179817Y-128536639D01*
X214322714Y-128536639D01*
X214465612Y-128536639D01*
X214465612Y-127679255D01*
X214465612Y-126821871D01*
X214322714Y-126821871D01*
X214179817Y-126821871D01*
X214179817Y-126678973D01*
X214179817Y-126536076D01*
X214036920Y-126536076D01*
X213894022Y-126536076D01*
X213894022Y-126678973D01*
X213894022Y-126821871D01*
X213465330Y-126821871D01*
X213036639Y-126821871D01*
X213036639Y-126536076D01*
X213036639Y-126250281D01*
X213179536Y-126250281D01*
X213322433Y-126250281D01*
X213322433Y-126393179D01*
X213322433Y-126536076D01*
X213465330Y-126536076D01*
X213608228Y-126536076D01*
X213608228Y-126250281D01*
X213608228Y-125964487D01*
X213751125Y-125964487D01*
X213894022Y-125964487D01*
X213894022Y-126107384D01*
X213894022Y-126250281D01*
X214036920Y-126250281D01*
X214179817Y-126250281D01*
X214179817Y-126107384D01*
X214179817Y-125964487D01*
X214036920Y-125964487D01*
X213894022Y-125964487D01*
X213894022Y-125821589D01*
X213894022Y-125678692D01*
X213751125Y-125678692D01*
X213608228Y-125678692D01*
X213608228Y-125250000D01*
X213608228Y-125107103D01*
X213894022Y-125107103D01*
X213894022Y-125250000D01*
X213894022Y-125392897D01*
X214036920Y-125392897D01*
X214179817Y-125392897D01*
X214179817Y-125535795D01*
X214179817Y-125678692D01*
X214322714Y-125678692D01*
X214465612Y-125678692D01*
X214465612Y-125535795D01*
X214465612Y-125392897D01*
X214322714Y-125392897D01*
X214179817Y-125392897D01*
X214179817Y-125250000D01*
X214179817Y-125107103D01*
X214036920Y-125107103D01*
X213894022Y-125107103D01*
X213608228Y-125107103D01*
X213608228Y-124821308D01*
X213894022Y-124821308D01*
X214036920Y-124821308D01*
X214179817Y-124821308D01*
X214179817Y-124535513D01*
X214179817Y-124249719D01*
X214036920Y-124249719D01*
X213894022Y-124249719D01*
X213894022Y-123963924D01*
X213894022Y-123678129D01*
X214179817Y-123678129D01*
X214322714Y-123678129D01*
X214465612Y-123678129D01*
X214465612Y-123535232D01*
X214465612Y-123392335D01*
X214322714Y-123392335D01*
X214179817Y-123392335D01*
X214179817Y-123249437D01*
X214179817Y-123106540D01*
X214322714Y-123106540D01*
X214465612Y-123106540D01*
X214465612Y-122963643D01*
X214465612Y-122820745D01*
X214322714Y-122820745D01*
X214179817Y-122820745D01*
X214179817Y-122963643D01*
X214179817Y-123106540D01*
X214036920Y-123106540D01*
X213894022Y-123106540D01*
X213894022Y-122963643D01*
X213894022Y-122820745D01*
X213322433Y-122820745D01*
X212750844Y-122820745D01*
X212750844Y-122963643D01*
X212750844Y-123106540D01*
X213036639Y-123106540D01*
X213322433Y-123106540D01*
X213322433Y-123249437D01*
X213322433Y-123392335D01*
X213608228Y-123392335D01*
X213894022Y-123392335D01*
X213894022Y-123535232D01*
X213894022Y-123678129D01*
X213751125Y-123678129D01*
X213608228Y-123678129D01*
X213608228Y-123821027D01*
X213608228Y-123963924D01*
X213465330Y-123963924D01*
X213322433Y-123963924D01*
X213322433Y-123821027D01*
X213322433Y-123678129D01*
X213179536Y-123678129D01*
X213036639Y-123678129D01*
X213036639Y-123535232D01*
X213036639Y-123392335D01*
X212893741Y-123392335D01*
X212750844Y-123392335D01*
X212750844Y-123535232D01*
X212750844Y-123678129D01*
X212607947Y-123678129D01*
X212465049Y-123678129D01*
X212465049Y-123249437D01*
X212465049Y-122820745D01*
X212322152Y-122820745D01*
X212179255Y-122820745D01*
X212179255Y-122963643D01*
X212179255Y-123106540D01*
X211893460Y-123106540D01*
X211607665Y-123106540D01*
X211607665Y-123249437D01*
X211607665Y-123392335D01*
X211464768Y-123392335D01*
X211321871Y-123392335D01*
X211321871Y-123678129D01*
X211321871Y-123963924D01*
X211178973Y-123963924D01*
X211036076Y-123963924D01*
X211036076Y-123678129D01*
X211036076Y-123392335D01*
X210893179Y-123392335D01*
X210750281Y-123392335D01*
X210750281Y-123249437D01*
X210750281Y-123106540D01*
X211036076Y-123106540D01*
X211321871Y-123106540D01*
X211321871Y-122963643D01*
X211321871Y-122820745D01*
X210893179Y-122820745D01*
X210464487Y-122820745D01*
X210464487Y-122534951D01*
X210464487Y-122249156D01*
X210607384Y-122249156D01*
X210750281Y-122249156D01*
X210750281Y-122392053D01*
X210750281Y-122534951D01*
X210893179Y-122534951D01*
X211036076Y-122534951D01*
X211036076Y-122392053D01*
X211036076Y-122249156D01*
X211178973Y-122249156D01*
X211321871Y-122249156D01*
X211321871Y-122392053D01*
X211321871Y-122534951D01*
X211464768Y-122534951D01*
X211607665Y-122534951D01*
X211607665Y-122392053D01*
X211607665Y-122249156D01*
X211893460Y-122249156D01*
X211893460Y-122392053D01*
X211893460Y-122534951D01*
X212036357Y-122534951D01*
X212179255Y-122534951D01*
X212179255Y-122392053D01*
X212179255Y-122249156D01*
X212036357Y-122249156D01*
X211893460Y-122249156D01*
X211607665Y-122249156D01*
X211464768Y-122249156D01*
X211321871Y-122249156D01*
X211321871Y-122106259D01*
X211321871Y-121963361D01*
X211178973Y-121963361D01*
X211036076Y-121963361D01*
X211036076Y-121820464D01*
X211036076Y-121677567D01*
X210607384Y-121677567D01*
X210178692Y-121677567D01*
X210178692Y-121820464D01*
X210178692Y-121963361D01*
X210035795Y-121963361D01*
X209892897Y-121963361D01*
X209892897Y-121820464D01*
X209892897Y-121677567D01*
X209750000Y-121677567D01*
X209607103Y-121677567D01*
X209607103Y-121534669D01*
X209607103Y-121391772D01*
X209321308Y-121391772D01*
X209035513Y-121391772D01*
X209035513Y-121248875D01*
X209035513Y-121105977D01*
X208892616Y-121105977D01*
X208749719Y-121105977D01*
X208749719Y-120963080D01*
X208749719Y-120820183D01*
X208463924Y-120820183D01*
X208178129Y-120820183D01*
X208178129Y-120963080D01*
X208178129Y-121105977D01*
X207749437Y-121105977D01*
X207320745Y-121105977D01*
X207320745Y-121820464D01*
X207320745Y-122534951D01*
X207463643Y-122534951D01*
X207606540Y-122534951D01*
X207606540Y-122392053D01*
X207606540Y-122249156D01*
X207749437Y-122249156D01*
X207892335Y-122249156D01*
X207892335Y-122392053D01*
X207892335Y-122534951D01*
X208035232Y-122534951D01*
X208178129Y-122534951D01*
X208178129Y-122392053D01*
X208178129Y-122249156D01*
X208321027Y-122249156D01*
X208463924Y-122249156D01*
X208463924Y-122534951D01*
X208463924Y-122820745D01*
X208035232Y-122820745D01*
X207606540Y-122820745D01*
X207606540Y-122963643D01*
X207606540Y-123106540D01*
X207463643Y-123106540D01*
X207320745Y-123106540D01*
X207320745Y-122963643D01*
X207320745Y-122820745D01*
X206463361Y-122820745D01*
X205605977Y-122820745D01*
X205605977Y-122963643D01*
X205605977Y-123106540D01*
X205463080Y-123106540D01*
X205320183Y-123106540D01*
X205320183Y-123392335D01*
X205320183Y-123678129D01*
X205463080Y-123678129D01*
X205605977Y-123678129D01*
X205605977Y-123821027D01*
X205605977Y-123963924D01*
X205320183Y-123963924D01*
X205034388Y-123963924D01*
X204748594Y-123963924D01*
X204748594Y-120534388D01*
X205034388Y-120534388D01*
X205034388Y-121534669D01*
X205034388Y-122534951D01*
X206034669Y-122534951D01*
X207034951Y-122534951D01*
X207034951Y-121534669D01*
X207034951Y-120534388D01*
X207320745Y-120534388D01*
X207320745Y-120677285D01*
X207320745Y-120820183D01*
X207463643Y-120820183D01*
X207606540Y-120820183D01*
X207606540Y-120677285D01*
X207892335Y-120677285D01*
X207892335Y-120820183D01*
X208035232Y-120820183D01*
X208178129Y-120820183D01*
X208178129Y-120677285D01*
X208178129Y-120534388D01*
X209035513Y-120534388D01*
X209035513Y-120677285D01*
X209035513Y-120820183D01*
X209178411Y-120820183D01*
X209321308Y-120820183D01*
X209321308Y-120963080D01*
X209321308Y-121105977D01*
X209607103Y-121105977D01*
X209892897Y-121105977D01*
X209892897Y-121248875D01*
X209892897Y-121391772D01*
X210035795Y-121391772D01*
X210178692Y-121391772D01*
X210178692Y-121248875D01*
X210178692Y-121105977D01*
X210321589Y-121105977D01*
X210464487Y-121105977D01*
X210750281Y-121105977D01*
X210750281Y-121248875D01*
X210750281Y-121391772D01*
X211036076Y-121391772D01*
X211321871Y-121391772D01*
X211321871Y-121534669D01*
X211321871Y-121677567D01*
X211464768Y-121677567D01*
X211607665Y-121677567D01*
X211893460Y-121677567D01*
X211893460Y-121534669D01*
X211893460Y-121391772D01*
X212036357Y-121391772D01*
X212179255Y-121391772D01*
X212179255Y-121248875D01*
X212179255Y-121105977D01*
X212036357Y-121105977D01*
X211893460Y-121105977D01*
X211893460Y-121248875D01*
X211893460Y-121391772D01*
X211750563Y-121391772D01*
X211607665Y-121391772D01*
X211607665Y-121248875D01*
X211607665Y-121105977D01*
X211178973Y-121105977D01*
X210750281Y-121105977D01*
X210464487Y-121105977D01*
X210464487Y-120963080D01*
X210464487Y-120820183D01*
X210607384Y-120820183D01*
X210750281Y-120820183D01*
X210750281Y-120677285D01*
X210750281Y-120534388D01*
X211036076Y-120534388D01*
X211036076Y-120677285D01*
X211036076Y-120820183D01*
X211178973Y-120820183D01*
X211607665Y-120820183D01*
X212179255Y-120820183D01*
X212179255Y-120677285D01*
X212179255Y-120534388D01*
X212465049Y-120534388D01*
X212465049Y-121534669D01*
X212465049Y-122534951D01*
X213465330Y-122534951D01*
X214465612Y-122534951D01*
X214465612Y-121534669D01*
X214465612Y-120534388D01*
X213465330Y-120534388D01*
X212465049Y-120534388D01*
X212179255Y-120534388D01*
X211607665Y-120534388D01*
X211036076Y-120534388D01*
X210750281Y-120534388D01*
X210464487Y-120534388D01*
X210178692Y-120534388D01*
X210178692Y-120820183D01*
X210178692Y-121105977D01*
X210035795Y-121105977D01*
X209892897Y-121105977D01*
X209892897Y-120820183D01*
X209892897Y-120534388D01*
X209750000Y-120534388D01*
X209607103Y-120534388D01*
X209607103Y-120677285D01*
X209607103Y-120820183D01*
X209464205Y-120820183D01*
X209321308Y-120820183D01*
X209321308Y-120677285D01*
X209321308Y-120534388D01*
X209178411Y-120534388D01*
X209035513Y-120534388D01*
X208178129Y-120534388D01*
X208035232Y-120534388D01*
X207892335Y-120534388D01*
X207892335Y-120677285D01*
X207606540Y-120677285D01*
X207606540Y-120534388D01*
X207463643Y-120534388D01*
X207320745Y-120534388D01*
X207034951Y-120534388D01*
X206034669Y-120534388D01*
X205034388Y-120534388D01*
X204748594Y-120534388D01*
X204748594Y-120248594D01*
X206034669Y-120248594D01*
G37*
D12*
%TO.C,BumperR1*%
X171900000Y-108500000D02*
X167100000Y-108500000D01*
X171900000Y-106700000D02*
X167100000Y-106700000D01*
X167100000Y-110300000D01*
X171900000Y-110300000D01*
X171900000Y-106700000D01*
%TO.C,BumperL1*%
X132900000Y-108500000D02*
X128100000Y-108500000D01*
X132900000Y-106700000D02*
X128100000Y-106700000D01*
X128100000Y-110300000D01*
X132900000Y-110300000D01*
X132900000Y-106700000D01*
%TD*%
M02*
