%TF.GenerationSoftware,KiCad,Pcbnew,9.0.7*%
%TF.CreationDate,2026-01-18T17:53:02+01:00*%
%TF.ProjectId,pcb_phone_controller,7063625f-7068-46f6-9e65-5f636f6e7472,rev?*%
%TF.SameCoordinates,Original*%
%TF.FileFunction,Copper,L1,Top*%
%TF.FilePolarity,Positive*%
%FSLAX46Y46*%
G04 Gerber Fmt 4.6, Leading zero omitted, Abs format (unit mm)*
G04 Created by KiCad (PCBNEW 9.0.7) date 2026-01-18 17:53:02*
%MOMM*%
%LPD*%
G01*
G04 APERTURE LIST*
G04 Aperture macros list*
%AMRoundRect*
0 Rectangle with rounded corners*
0 $1 Rounding radius*
0 $2 $3 $4 $5 $6 $7 $8 $9 X,Y pos of 4 corners*
0 Add a 4 corners polygon primitive as box body*
4,1,4,$2,$3,$4,$5,$6,$7,$8,$9,$2,$3,0*
0 Add four circle primitives for the rounded corners*
1,1,$1+$1,$2,$3*
1,1,$1+$1,$4,$5*
1,1,$1+$1,$6,$7*
1,1,$1+$1,$8,$9*
0 Add four rect primitives between the rounded corners*
20,1,$1+$1,$2,$3,$4,$5,0*
20,1,$1+$1,$4,$5,$6,$7,0*
20,1,$1+$1,$6,$7,$8,$9,0*
20,1,$1+$1,$8,$9,$2,$3,0*%
%AMRotRect*
0 Rectangle, with rotation*
0 The origin of the aperture is its center*
0 $1 length*
0 $2 width*
0 $3 Rotation angle, in degrees counterclockwise*
0 Add horizontal line*
21,1,$1,$2,0,0,$3*%
G04 Aperture macros list end*
%TA.AperFunction,SMDPad,CuDef*%
%ADD10RoundRect,0.250000X0.337500X0.475000X-0.337500X0.475000X-0.337500X-0.475000X0.337500X-0.475000X0*%
%TD*%
%TA.AperFunction,ComponentPad*%
%ADD11C,2.100000*%
%TD*%
%TA.AperFunction,ComponentPad*%
%ADD12C,4.500000*%
%TD*%
%TA.AperFunction,SMDPad,CuDef*%
%ADD13RoundRect,0.250000X-0.350000X-0.450000X0.350000X-0.450000X0.350000X0.450000X-0.350000X0.450000X0*%
%TD*%
%TA.AperFunction,ComponentPad*%
%ADD14R,1.270000X1.270000*%
%TD*%
%TA.AperFunction,ComponentPad*%
%ADD15C,1.270000*%
%TD*%
%TA.AperFunction,SMDPad,CuDef*%
%ADD16RoundRect,0.150000X0.587500X0.150000X-0.587500X0.150000X-0.587500X-0.150000X0.587500X-0.150000X0*%
%TD*%
%TA.AperFunction,SMDPad,CuDef*%
%ADD17RoundRect,0.250000X0.350000X0.450000X-0.350000X0.450000X-0.350000X-0.450000X0.350000X-0.450000X0*%
%TD*%
%TA.AperFunction,SMDPad,CuDef*%
%ADD18RoundRect,0.150000X-0.587500X-0.150000X0.587500X-0.150000X0.587500X0.150000X-0.587500X0.150000X0*%
%TD*%
%TA.AperFunction,ComponentPad*%
%ADD19R,1.700000X1.700000*%
%TD*%
%TA.AperFunction,ComponentPad*%
%ADD20C,1.700000*%
%TD*%
%TA.AperFunction,ComponentPad*%
%ADD21RoundRect,0.275000X-0.378311X-0.730158X0.166531X-0.805306X0.378311X0.730158X-0.166531X0.805306X0*%
%TD*%
%TA.AperFunction,ComponentPad*%
%ADD22RotRect,1.100000X2.100000X352.147000*%
%TD*%
%TA.AperFunction,ComponentPad*%
%ADD23R,2.000000X2.000000*%
%TD*%
%TA.AperFunction,ComponentPad*%
%ADD24C,2.000000*%
%TD*%
%TA.AperFunction,ComponentPad*%
%ADD25RoundRect,0.275000X-0.166531X-0.805306X0.378311X-0.730158X0.166531X0.805306X-0.378311X0.730158X0*%
%TD*%
%TA.AperFunction,ComponentPad*%
%ADD26RotRect,1.100000X2.100000X7.853000*%
%TD*%
%TA.AperFunction,SMDPad,CuDef*%
%ADD27RoundRect,0.250000X0.500000X-0.250000X0.500000X0.250000X-0.500000X0.250000X-0.500000X-0.250000X0*%
%TD*%
%TA.AperFunction,ComponentPad*%
%ADD28RoundRect,0.500000X-1.000000X0.500000X-1.000000X-0.500000X1.000000X-0.500000X1.000000X0.500000X0*%
%TD*%
%TA.AperFunction,SMDPad,CuDef*%
%ADD29RoundRect,0.250000X-0.500000X0.250000X-0.500000X-0.250000X0.500000X-0.250000X0.500000X0.250000X0*%
%TD*%
%TA.AperFunction,ComponentPad*%
%ADD30R,3.000000X2.000000*%
%TD*%
%TA.AperFunction,SMDPad,CuDef*%
%ADD31RoundRect,0.250000X-0.450000X0.350000X-0.450000X-0.350000X0.450000X-0.350000X0.450000X0.350000X0*%
%TD*%
%TA.AperFunction,ViaPad*%
%ADD32C,0.700000*%
%TD*%
%TA.AperFunction,Conductor*%
%ADD33C,0.200000*%
%TD*%
G04 APERTURE END LIST*
D10*
%TO.P,C1,1*%
%TO.N,Net-(C1-Pad1)*%
X178000000Y-122500000D03*
%TO.P,C1,2*%
%TO.N,Net-(C1-Pad2)*%
X175925000Y-122500000D03*
%TD*%
D11*
%TO.P,Select1,1,1*%
%TO.N,Column 0*%
X139960000Y-105593690D03*
%TO.P,Select1,2,2*%
%TO.N,Net-(D3-Pad1)*%
X145040000Y-105593690D03*
%TD*%
D12*
%TO.P,H2,1,1*%
%TO.N,GND*%
X182400000Y-112000000D03*
%TD*%
D13*
%TO.P,R1,1*%
%TO.N,Net-(C1-Pad1)*%
X180000000Y-122500000D03*
%TO.P,R1,2*%
%TO.N,+BATT*%
X182000000Y-122500000D03*
%TD*%
D11*
%TO.P,Start1,1,1*%
%TO.N,Column 2*%
X154960000Y-105593690D03*
%TO.P,Start1,2,2*%
%TO.N,Net-(D4-Pad1)*%
X160040000Y-105593690D03*
%TD*%
D14*
%TO.P,SW17,1,1*%
%TO.N,unconnected-(SW17-Pad1)*%
X219750000Y-108000000D03*
D15*
%TO.P,SW17,2,2*%
%TO.N,+BATT*%
X219750000Y-110500000D03*
%TO.P,SW17,3,3*%
%TO.N,Net-(+-1-BATT+)*%
X219750000Y-113000000D03*
%TD*%
D16*
%TO.P,D3,1*%
%TO.N,Net-(D3-Pad1)*%
X138437500Y-98950000D03*
%TO.P,D3,2*%
%TO.N,Net-(D3-Pad2)*%
X138437500Y-97050000D03*
%TO.P,D3,3*%
%TO.N,Row 1*%
X136562500Y-98000000D03*
%TD*%
D17*
%TO.P,R5,1*%
%TO.N,Row 3*%
X124200000Y-109100000D03*
%TO.P,R5,2*%
%TO.N,+3.3V*%
X122200000Y-109100000D03*
%TD*%
%TO.P,R6,1*%
%TO.N,Row 2*%
X199350000Y-130350000D03*
%TO.P,R6,2*%
%TO.N,+3.3V*%
X197350000Y-130350000D03*
%TD*%
D16*
%TO.P,D7,1*%
%TO.N,Net-(D7-Pad1)*%
X129500000Y-144400000D03*
%TO.P,D7,2*%
%TO.N,Net-(D7-Pad2)*%
X129500000Y-142500000D03*
%TO.P,D7,3*%
%TO.N,Row 3*%
X127625000Y-143450000D03*
%TD*%
D12*
%TO.P,H5,1,1*%
%TO.N,GND*%
X113100000Y-143700000D03*
%TD*%
D18*
%TO.P,D5,1*%
%TO.N,Net-(A1-Pad2)*%
X208062500Y-121050000D03*
%TO.P,D5,2*%
%TO.N,Net-(B1-Pad1)*%
X208062500Y-122950000D03*
%TO.P,D5,3*%
%TO.N,Row 2*%
X209937500Y-122000000D03*
%TD*%
D19*
%TO.P,StickL1,1,GND*%
%TO.N,GND*%
X120500000Y-120580000D03*
D20*
%TO.P,StickL1,2,Y*%
%TO.N,Net-(StickL1-Y)*%
X120500000Y-118040000D03*
%TO.P,StickL1,3,3V3*%
%TO.N,+3.3V*%
X120500000Y-115500000D03*
%TO.P,StickL1,4,X*%
%TO.N,Net-(StickL1-X)*%
X120500000Y-112960000D03*
%TD*%
D21*
%TO.P,TriggerL1,1,VDD*%
%TO.N,+3.3V*%
X116334970Y-101853786D03*
D22*
%TO.P,TriggerL1,2,GND*%
%TO.N,GND*%
X116736356Y-104432815D03*
D21*
%TO.P,TriggerL1,3,OUT*%
%TO.N,Net-(TriggerL1-OUT)*%
X117820902Y-102058734D03*
%TD*%
D11*
%TO.P,B1,1,1*%
%TO.N,Net-(B1-Pad1)*%
X194494124Y-125127219D03*
%TO.P,B1,2,2*%
%TO.N,Column 1*%
X199574124Y-125127219D03*
%TD*%
%TO.P,Home1,1,1*%
%TO.N,Net-(D3-Pad2)*%
X147460000Y-97093691D03*
%TO.P,Home1,2,2*%
%TO.N,Column 1*%
X152540000Y-97093691D03*
%TD*%
D12*
%TO.P,H1,1,1*%
%TO.N,GND*%
X164750000Y-98250000D03*
%TD*%
D11*
%TO.P,DOWN1,1,1*%
%TO.N,Column 0*%
X117425876Y-144641938D03*
%TO.P,DOWN1,2,2*%
%TO.N,Net-(D7-Pad1)*%
X122505876Y-144641938D03*
%TD*%
D16*
%TO.P,D6,1*%
%TO.N,Net-(D6-Pad1)*%
X188500000Y-110500000D03*
%TO.P,D6,2*%
%TO.N,Net-(D6-Pad2)*%
X188500000Y-108600000D03*
%TO.P,D6,3*%
%TO.N,Row 2*%
X186625000Y-109550000D03*
%TD*%
D11*
%TO.P,UP1,1,1*%
%TO.N,Column 2*%
X117425876Y-128641938D03*
%TO.P,UP1,2,2*%
%TO.N,Net-(D8-Pad1)*%
X122505876Y-128641938D03*
%TD*%
%TO.P,X1,1,1*%
%TO.N,Column 2*%
X186008842Y-116641938D03*
%TO.P,X1,2,2*%
%TO.N,Net-(D6-Pad1)*%
X191088842Y-116641938D03*
%TD*%
%TO.P,Y1,1,1*%
%TO.N,Net-(D6-Pad2)*%
X194517950Y-108503745D03*
%TO.P,Y1,2,2*%
%TO.N,Column 3*%
X199550298Y-107809567D03*
%TD*%
D23*
%TO.P,+-1,1,BATT-*%
%TO.N,-BATT*%
X167750000Y-117300000D03*
D24*
%TO.P,+-1,2,BATT+*%
%TO.N,Net-(+-1-BATT+)*%
X167750000Y-114500000D03*
%TD*%
D18*
%TO.P,D2,1*%
%TO.N,Net-(BumperR1-Pad2)*%
X173812500Y-118300000D03*
%TO.P,D2,2*%
%TO.N,Net-(ClickStickR1-Pad1)*%
X173812500Y-120200000D03*
%TO.P,D2,3*%
%TO.N,Row 0*%
X175687500Y-119250000D03*
%TD*%
D11*
%TO.P,LEFT1,1,1*%
%TO.N,Net-(D8-Pad2)*%
X111965876Y-134101938D03*
%TO.P,LEFT1,2,2*%
%TO.N,Column 3*%
X111965876Y-139181938D03*
%TD*%
D25*
%TO.P,TriggerR1,1,VDD*%
%TO.N,+3.3V*%
X182179099Y-102058734D03*
D26*
%TO.P,TriggerR1,2,GND*%
%TO.N,GND*%
X183263645Y-104432815D03*
D25*
%TO.P,TriggerR1,3,OUT*%
%TO.N,Net-(TriggerR1-OUT)*%
X183665031Y-101853786D03*
%TD*%
D12*
%TO.P,H3,1,1*%
%TO.N,GND*%
X206750000Y-105500000D03*
%TD*%
D19*
%TO.P,StickR1,1,GND*%
%TO.N,GND*%
X197000000Y-140810000D03*
D20*
%TO.P,StickR1,2,Y*%
%TO.N,Net-(StickR1-Y)*%
X197000000Y-138270000D03*
%TO.P,StickR1,3,3V3*%
%TO.N,+3.3V*%
X197000000Y-135730000D03*
%TO.P,StickR1,4,X*%
%TO.N,Net-(StickR1-X)*%
X197000000Y-133190000D03*
%TD*%
D12*
%TO.P,H4,1,1*%
%TO.N,GND*%
X127500000Y-127250000D03*
%TD*%
D18*
%TO.P,D8,1*%
%TO.N,Net-(D8-Pad1)*%
X113062500Y-130450000D03*
%TO.P,D8,2*%
%TO.N,Net-(D8-Pad2)*%
X113062500Y-132350000D03*
%TO.P,D8,3*%
%TO.N,Row 3*%
X114937500Y-131400000D03*
%TD*%
D11*
%TO.P,RIGHT1,1,1*%
%TO.N,Net-(D7-Pad2)*%
X125425876Y-136641938D03*
%TO.P,RIGHT1,2,2*%
%TO.N,Column 1*%
X130505876Y-136641938D03*
%TD*%
D16*
%TO.P,D4,1*%
%TO.N,Net-(D4-Pad1)*%
X158937500Y-99950000D03*
%TO.P,D4,2*%
%TO.N,unconnected-(D4-Pad2)*%
X158937500Y-98050000D03*
%TO.P,D4,3*%
%TO.N,Row 1*%
X157062500Y-99000000D03*
%TD*%
D27*
%TO.P,U1,1,GPIO*%
%TO.N,Net-(StickL1-Y)*%
X220390000Y-145281871D03*
%TO.P,U1,2,GPIO*%
%TO.N,Net-(StickL1-X)*%
X220390000Y-142741871D03*
%TO.P,U1,3,GPIO*%
%TO.N,unconnected-(U1-GPIO-Pad3)*%
X220390000Y-140201871D03*
D28*
%TO.P,U1,3V3,3V3*%
%TO.N,+3.3V*%
X203380000Y-140201871D03*
D27*
%TO.P,U1,4,GPIO*%
%TO.N,Column 2*%
X220390000Y-137661871D03*
%TO.P,U1,5,GPIO*%
%TO.N,unconnected-(U1-GPIO-Pad5)*%
X220390000Y-135121871D03*
D28*
%TO.P,U1,5V,5V*%
%TO.N,unconnected-(U1-Pad5V)*%
X203380000Y-145281871D03*
D27*
%TO.P,U1,6,GPIO*%
%TO.N,Net-(TriggerL1-OUT)*%
X220390000Y-132581871D03*
D29*
%TO.P,U1,7,GPIO*%
%TO.N,Net-(StickR1-X)*%
X202610000Y-132581871D03*
%TO.P,U1,8,GPIO*%
%TO.N,Net-(StickR1-Y)*%
X202610000Y-135121871D03*
%TO.P,U1,9,GPIO*%
%TO.N,Net-(TriggerR1-OUT)*%
X202610000Y-137661871D03*
D27*
%TO.P,U1,10,GPIO*%
%TO.N,Net-(C1-Pad1)*%
X220390000Y-131311871D03*
D29*
%TO.P,U1,11,GPIO*%
%TO.N,Row 2*%
X202610000Y-131311871D03*
%TO.P,U1,12,GPIO*%
%TO.N,Column 1*%
X202610000Y-133851871D03*
%TO.P,U1,13,GPIO*%
%TO.N,Column 0*%
X202610000Y-136391871D03*
D27*
%TO.P,U1,38,GPIO*%
%TO.N,unconnected-(U1-GPIO-Pad38)*%
X220390000Y-144011871D03*
%TO.P,U1,39,GPIO*%
%TO.N,Row 0*%
X220390000Y-141471871D03*
%TO.P,U1,40,GPIO*%
%TO.N,Row 1*%
X220390000Y-138931871D03*
%TO.P,U1,41,GPIO*%
%TO.N,Row 3*%
X220390000Y-136391871D03*
%TO.P,U1,42,GPIO*%
%TO.N,unconnected-(U1-GPIO-Pad42)*%
X220390000Y-133851871D03*
%TO.P,U1,43,GPIO*%
%TO.N,unconnected-(U1-GPIO-Pad43)*%
X220390000Y-130041871D03*
D29*
%TO.P,U1,44,GPIO*%
%TO.N,Column 3*%
X202610000Y-130041871D03*
D30*
%TO.P,U1,GND,GND*%
%TO.N,GND*%
X203380000Y-142741871D03*
%TD*%
D17*
%TO.P,R3,1*%
%TO.N,Row 0*%
X124900000Y-123300000D03*
%TO.P,R3,2*%
%TO.N,+3.3V*%
X122900000Y-123300000D03*
%TD*%
D13*
%TO.P,R2,1*%
%TO.N,-BATT*%
X172000000Y-122500000D03*
%TO.P,R2,2*%
%TO.N,Net-(C1-Pad2)*%
X174000000Y-122500000D03*
%TD*%
D11*
%TO.P,A1,1,1*%
%TO.N,Column 0*%
X202979405Y-116641938D03*
%TO.P,A1,2,2*%
%TO.N,Net-(A1-Pad2)*%
X208059405Y-116641938D03*
%TD*%
D31*
%TO.P,R4,1*%
%TO.N,Row 1*%
X151900000Y-102300000D03*
%TO.P,R4,2*%
%TO.N,+3.3V*%
X151900000Y-104300000D03*
%TD*%
D18*
%TO.P,D1,1*%
%TO.N,Net-(BumperL1-Pad2)*%
X130862500Y-114650000D03*
%TO.P,D1,2*%
%TO.N,Net-(ClickStickL1-Pad1)*%
X130862500Y-116550000D03*
%TO.P,D1,3*%
%TO.N,Row 0*%
X132737500Y-115600000D03*
%TD*%
D32*
%TO.N,Column 0*%
X170423000Y-110825000D03*
X202610000Y-136391871D03*
X136912500Y-107162500D03*
X132850000Y-111225000D03*
%TO.N,Net-(B1-Pad1)*%
X201247728Y-125427587D03*
%TO.N,Column 1*%
X201300000Y-131900000D03*
X128000000Y-119250000D03*
X197564124Y-122628814D03*
X138000000Y-103921000D03*
%TO.N,Net-(C1-Pad1)*%
X188047500Y-119767000D03*
X180000000Y-122500000D03*
%TO.N,Net-(+-1-BATT+)*%
X204105327Y-118461330D03*
X183150000Y-122018000D03*
%TO.N,Row 0*%
X177436070Y-120000000D03*
X194100000Y-123500000D03*
%TO.N,Row 2*%
X203200000Y-124800000D03*
X202610000Y-131311871D03*
%TO.N,GND*%
X207000000Y-118750000D03*
X172000000Y-117500000D03*
X171500000Y-119500000D03*
X190425000Y-113900000D03*
X150250000Y-98000000D03*
X185800000Y-106600000D03*
X122475000Y-130875000D03*
X181750000Y-106500000D03*
X193700000Y-128700000D03*
X125500000Y-113750000D03*
X199800000Y-133800000D03*
X128327000Y-111250000D03*
X214000000Y-112000000D03*
X173500000Y-113750000D03*
X201600000Y-121000000D03*
X126750000Y-111250000D03*
X123000000Y-111500000D03*
X166000000Y-111000000D03*
X148500000Y-106000000D03*
X218700000Y-128600000D03*
X119400000Y-109300000D03*
X168000000Y-122250000D03*
X135750000Y-101000000D03*
X207500000Y-124600000D03*
X199275000Y-110075000D03*
X162500000Y-106000000D03*
X180000000Y-120000000D03*
X189400000Y-122000000D03*
X126400000Y-120500000D03*
X199300000Y-131800000D03*
X199750000Y-118250000D03*
X181000000Y-103750000D03*
X143900000Y-103100000D03*
%TO.N,Column 3*%
X202610000Y-130041871D03*
X203800000Y-122000000D03*
%TO.N,-BATT*%
X195245924Y-129061928D03*
%TO.N,Column 2*%
X170000000Y-111750000D03*
X220390000Y-137661871D03*
X195041999Y-126858001D03*
X115000000Y-128000000D03*
X217514064Y-134785936D03*
X166198249Y-109235749D03*
%TO.N,Net-(StickL1-Y)*%
X126845000Y-115893069D03*
%TO.N,+3.3V*%
X192790189Y-122267000D03*
X192800000Y-118200000D03*
X190328862Y-110549000D03*
X151900000Y-104300000D03*
%TO.N,Net-(StickL1-X)*%
X123659921Y-112518529D03*
%TO.N,Net-(StickR1-Y)*%
X202610000Y-135121871D03*
%TO.N,Net-(TriggerR1-OUT)*%
X201338500Y-126323000D03*
X200723000Y-131200000D03*
%TO.N,Net-(StickR1-X)*%
X202610000Y-132581871D03*
%TO.N,+BATT*%
X205950000Y-115650000D03*
X203208001Y-118391999D03*
X184753873Y-122595000D03*
%TO.N,Net-(BumperL1-Pad2)*%
X130862500Y-114650000D03*
%TO.N,Net-(BumperR1-Pad2)*%
X173812500Y-118300000D03*
%TO.N,Net-(ClickStickL1-Pad1)*%
X130862500Y-116550000D03*
%TO.N,Net-(ClickStickR1-Pad1)*%
X169550000Y-120500000D03*
%TO.N,GND*%
X157500000Y-105750000D03*
%TD*%
D33*
%TO.N,Net-(TriggerR1-OUT)*%
X190572000Y-109972000D02*
X187678000Y-109972000D01*
X201338500Y-126338500D02*
X201177000Y-126500000D01*
X183596715Y-102596715D02*
X183596715Y-101358475D01*
X193200000Y-112600000D02*
X190572000Y-109972000D01*
X187550000Y-110100000D02*
X185600000Y-110100000D01*
X193200000Y-116800000D02*
X193200000Y-112600000D01*
X185600000Y-110100000D02*
X184400000Y-108900000D01*
X198141124Y-125677262D02*
X198141124Y-121741124D01*
X198963862Y-126500000D02*
X198141124Y-125677262D01*
X187678000Y-109972000D02*
X187550000Y-110100000D01*
X201177000Y-126500000D02*
X198963862Y-126500000D01*
X201338500Y-126323000D02*
X201338500Y-126338500D01*
X184400000Y-103400000D02*
X183596715Y-102596715D01*
X198141124Y-121741124D02*
X193200000Y-116800000D01*
X184400000Y-108900000D02*
X184400000Y-103400000D01*
%TO.N,Row 0*%
X194100000Y-123500000D02*
X194836138Y-123500000D01*
X195845124Y-126628296D02*
X198084828Y-128868000D01*
X194836138Y-123500000D02*
X195845124Y-124508986D01*
X195845124Y-124508986D02*
X195845124Y-126628296D01*
X198084828Y-128868000D02*
X214468000Y-128868000D01*
X218116000Y-132516000D02*
X218116000Y-144566000D01*
X218116000Y-144566000D02*
X219650000Y-146100000D01*
X214468000Y-128868000D02*
X218116000Y-132516000D01*
X219650000Y-146100000D02*
X221100000Y-146100000D01*
X221100000Y-146100000D02*
X221500000Y-145700000D01*
X221500000Y-145700000D02*
X221500000Y-141831871D01*
X221500000Y-141831871D02*
X221140000Y-141471871D01*
X221140000Y-141471871D02*
X220390000Y-141471871D01*
%TO.N,Column 1*%
X197564124Y-122628814D02*
X193796310Y-118861000D01*
X193796310Y-118861000D02*
X183185486Y-118861000D01*
X161328000Y-100364138D02*
X160250000Y-99286138D01*
X183185486Y-118861000D02*
X170668486Y-106344000D01*
X164557862Y-106344000D02*
X161328000Y-103114138D01*
X161328000Y-103114138D02*
X161328000Y-100364138D01*
X159266968Y-97000000D02*
X152540000Y-97000000D01*
X170668486Y-106344000D02*
X164557862Y-106344000D01*
X160250000Y-99286138D02*
X160250000Y-97983032D01*
X160250000Y-97983032D02*
X159266968Y-97000000D01*
X197564124Y-122628814D02*
X197561398Y-122626088D01*
%TO.N,Row 1*%
X221600000Y-129600000D02*
X221600000Y-138000000D01*
X197813124Y-125813124D02*
X198900000Y-126900000D01*
X198900000Y-126900000D02*
X218900000Y-126900000D01*
X170532624Y-106672000D02*
X183049624Y-119189000D01*
X197813124Y-123693814D02*
X197813124Y-125813124D01*
X183049624Y-119189000D02*
X193308310Y-119189000D01*
X218900000Y-126900000D02*
X221600000Y-129600000D01*
X193308310Y-119189000D02*
X197813124Y-123693814D01*
X164422000Y-106672000D02*
X170532624Y-106672000D01*
X161000000Y-103250000D02*
X164422000Y-106672000D01*
X161000000Y-100500000D02*
X161000000Y-103250000D01*
X159500000Y-99000000D02*
X161000000Y-100500000D01*
X157062500Y-99000000D02*
X159500000Y-99000000D01*
X221600000Y-138000000D02*
X220668129Y-138931871D01*
X220668129Y-138931871D02*
X220390000Y-138931871D01*
%TO.N,Net-(C1-Pad1)*%
X188047500Y-119767000D02*
X193422448Y-119767000D01*
X215147310Y-127228000D02*
X219231181Y-131311871D01*
X193422448Y-119767000D02*
X197485124Y-123829676D01*
X197485124Y-123829676D02*
X197485124Y-125948986D01*
X197485124Y-125948986D02*
X198764138Y-127228000D01*
X219231181Y-131311871D02*
X220390000Y-131311871D01*
X198764138Y-127228000D02*
X215147310Y-127228000D01*
%TO.N,Net-(TriggerL1-OUT)*%
X170396762Y-107000000D02*
X183740762Y-120344000D01*
X144400000Y-107000000D02*
X170396762Y-107000000D01*
X143115724Y-105715724D02*
X144400000Y-107000000D01*
X143107310Y-105715724D02*
X143115724Y-105715724D01*
X141043448Y-102688000D02*
X142907000Y-104551552D01*
X215011448Y-127556000D02*
X220037319Y-132581871D01*
X137384276Y-102688000D02*
X141043448Y-102688000D01*
X122000000Y-107250000D02*
X132822276Y-107250000D01*
X142907000Y-104551552D02*
X142907000Y-105515414D01*
X132822276Y-107250000D02*
X137384276Y-102688000D01*
X118800000Y-104050000D02*
X122000000Y-107250000D01*
X142907000Y-105515414D02*
X143107310Y-105715724D01*
X118800000Y-102474205D02*
X118800000Y-104050000D01*
X187807084Y-120344000D02*
X187808084Y-120345000D01*
X197157124Y-123965538D02*
X197157124Y-126084848D01*
X117889218Y-101563423D02*
X118800000Y-102474205D01*
X183740762Y-120344000D02*
X187807084Y-120344000D01*
X197157124Y-126084848D02*
X198628276Y-127556000D01*
X187808084Y-120345000D02*
X188286916Y-120345000D01*
X193535586Y-120344000D02*
X197157124Y-123965538D01*
X188286916Y-120345000D02*
X188287916Y-120344000D01*
X188287916Y-120344000D02*
X193535586Y-120344000D01*
X198628276Y-127556000D02*
X215011448Y-127556000D01*
X220037319Y-132581871D02*
X220390000Y-132581871D01*
%TO.N,Row 3*%
X187671222Y-120672000D02*
X183604900Y-120672000D01*
X187672222Y-120673000D02*
X187671222Y-120672000D01*
X183604900Y-120672000D02*
X170260900Y-107328000D01*
X142971448Y-106043724D02*
X142579000Y-105651276D01*
X196829124Y-126220710D02*
X196829124Y-124101400D01*
X137520138Y-103016000D02*
X128595609Y-111940529D01*
X198492414Y-127884000D02*
X196829124Y-126220710D01*
X128595609Y-111940529D02*
X123421919Y-111940529D01*
X219100000Y-132108414D02*
X214875586Y-127884000D01*
X219100000Y-135432396D02*
X219100000Y-132108414D01*
X196829124Y-124101400D02*
X193399724Y-120672000D01*
X188423778Y-120672000D02*
X188422778Y-120673000D01*
X170260900Y-107328000D02*
X144264138Y-107328000D01*
X214875586Y-127884000D02*
X198492414Y-127884000D01*
X220059475Y-136391871D02*
X219100000Y-135432396D01*
X142579000Y-105651276D02*
X142579000Y-104687414D01*
X188422778Y-120673000D02*
X187672222Y-120673000D01*
X193399724Y-120672000D02*
X188423778Y-120672000D01*
X220390000Y-136391871D02*
X220059475Y-136391871D01*
X142979862Y-106043724D02*
X142971448Y-106043724D01*
X144264138Y-107328000D02*
X142979862Y-106043724D01*
X142579000Y-104687414D02*
X140907586Y-103016000D01*
X140907586Y-103016000D02*
X137520138Y-103016000D01*
%TO.N,Net-(StickL1-X)*%
X183469038Y-121000000D02*
X187535360Y-121000000D01*
X170125038Y-107656000D02*
X183469038Y-121000000D01*
X214739724Y-128212000D02*
X218772000Y-132244276D01*
X144128276Y-107656000D02*
X170125038Y-107656000D01*
X218772000Y-141572000D02*
X219941871Y-142741871D01*
X142844000Y-106371724D02*
X144128276Y-107656000D01*
X193263862Y-121000000D02*
X196501124Y-124237262D01*
X142835586Y-106371724D02*
X142844000Y-106371724D01*
X142251000Y-105787138D02*
X142835586Y-106371724D01*
X140771724Y-103344000D02*
X142251000Y-104823276D01*
X137656000Y-103344000D02*
X140771724Y-103344000D01*
X187535360Y-121000000D02*
X187536360Y-121001000D01*
X128731471Y-112268529D02*
X137656000Y-103344000D01*
X219941871Y-142741871D02*
X220390000Y-142741871D01*
X123909921Y-112268529D02*
X128731471Y-112268529D01*
X142251000Y-104823276D02*
X142251000Y-105787138D01*
X123659921Y-112518529D02*
X123909921Y-112268529D01*
X187536360Y-121001000D02*
X188558640Y-121001000D01*
X188558640Y-121001000D02*
X188559640Y-121000000D01*
X188559640Y-121000000D02*
X193263862Y-121000000D01*
X196501124Y-124237262D02*
X196501124Y-126356572D01*
X218772000Y-132244276D02*
X218772000Y-141572000D01*
X196501124Y-126356572D02*
X198356552Y-128212000D01*
X198356552Y-128212000D02*
X214739724Y-128212000D01*
%TO.N,Net-(StickL1-Y)*%
X187399498Y-121328000D02*
X187400498Y-121329000D01*
X220081871Y-145281871D02*
X220390000Y-145281871D01*
X143992414Y-107984000D02*
X169989176Y-107984000D01*
X183333176Y-121328000D02*
X187399498Y-121328000D01*
X143400000Y-107400000D02*
X143408414Y-107400000D01*
X141923000Y-105923000D02*
X143400000Y-107400000D01*
X187400498Y-121329000D02*
X188694502Y-121329000D01*
X218444000Y-143644000D02*
X220081871Y-145281871D01*
X169989176Y-107984000D02*
X183333176Y-121328000D01*
X141923000Y-104959138D02*
X141923000Y-105923000D01*
X143408414Y-107400000D02*
X143992414Y-107984000D01*
X140635862Y-103672000D02*
X141923000Y-104959138D01*
X139114138Y-103672000D02*
X140635862Y-103672000D01*
X198220690Y-128540000D02*
X214603862Y-128540000D01*
X126893069Y-115893069D02*
X139114138Y-103672000D01*
X188694502Y-121329000D02*
X188695502Y-121328000D01*
X196173124Y-126492434D02*
X198220690Y-128540000D01*
X126845000Y-115893069D02*
X126893069Y-115893069D01*
X188695502Y-121328000D02*
X193128000Y-121328000D01*
X193128000Y-121328000D02*
X196173124Y-124373124D01*
X196173124Y-124373124D02*
X196173124Y-126492434D01*
X214603862Y-128540000D02*
X218444000Y-132380138D01*
X218444000Y-132380138D02*
X218444000Y-143644000D01*
%TO.N,Column 3*%
X203800000Y-122000000D02*
X203800000Y-120263862D01*
X203800000Y-120263862D02*
X200964000Y-117427862D01*
X200964000Y-117427862D02*
X200964000Y-109100737D01*
X200964000Y-109100737D02*
X199516174Y-107652911D01*
%TO.N,Row 2*%
X206000000Y-122000000D02*
X201292000Y-117292000D01*
X201292000Y-117292000D02*
X201292000Y-107518134D01*
X201292000Y-107518134D02*
X200075777Y-106301911D01*
X200075777Y-106301911D02*
X198903414Y-106301911D01*
X198903414Y-106301911D02*
X195205325Y-110000000D01*
X195205325Y-110000000D02*
X193700000Y-110000000D01*
X193700000Y-110000000D02*
X193250000Y-109550000D01*
X193250000Y-109550000D02*
X186625000Y-109550000D01*
%TO.N,Net-(+-1-BATT+)*%
X204105327Y-118461330D02*
X209566657Y-113000000D01*
X209566657Y-113000000D02*
X219750000Y-113000000D01*
%TO.N,+BATT*%
X205950000Y-115650000D02*
X211100000Y-110500000D01*
X211100000Y-110500000D02*
X219750000Y-110500000D01*
X205950000Y-115650000D02*
X203208001Y-118391999D01*
%TO.N,Column 0*%
X170423000Y-110825000D02*
X168238000Y-108640000D01*
X140665966Y-105593690D02*
X139960000Y-105593690D01*
X136912500Y-107162500D02*
X138481310Y-105593690D01*
X139960000Y-105593690D02*
X139960000Y-105500000D01*
X138481310Y-105593690D02*
X139960000Y-105593690D01*
X143408690Y-108328000D02*
X143400276Y-108328000D01*
X143720690Y-108640000D02*
X143408690Y-108328000D01*
X136912500Y-107162500D02*
X132850000Y-111225000D01*
X168238000Y-108640000D02*
X143720690Y-108640000D01*
X143400276Y-108328000D02*
X140665966Y-105593690D01*
%TO.N,Net-(A1-Pad2)*%
X208059405Y-116641938D02*
X208059405Y-121046905D01*
X208059405Y-121046905D02*
X208062500Y-121050000D01*
X208040000Y-116500000D02*
X208040000Y-117027500D01*
%TO.N,Net-(B1-Pad1)*%
X201247728Y-125427587D02*
X203587919Y-125427587D01*
X203587919Y-125427587D02*
X206065506Y-122950000D01*
X208062500Y-122950000D02*
X206065506Y-122950000D01*
%TO.N,Column 1*%
X126250000Y-115671000D02*
X138000000Y-103921000D01*
X126250000Y-117500000D02*
X126250000Y-115671000D01*
X202251871Y-133851871D02*
X202610000Y-133851871D01*
X201300000Y-132900000D02*
X202251871Y-133851871D01*
X201300000Y-131900000D02*
X201300000Y-132900000D01*
X128000000Y-119250000D02*
X126250000Y-117500000D01*
%TO.N,Net-(C1-Pad2)*%
X174000000Y-122500000D02*
X175925000Y-122500000D01*
%TO.N,Net-(C1-Pad1)*%
X178000000Y-122500000D02*
X180000000Y-122500000D01*
%TO.N,Net-(+-1-BATT+)*%
X172500000Y-119250000D02*
X167750000Y-114500000D01*
X175750000Y-120750000D02*
X174250000Y-119250000D01*
X181882000Y-120750000D02*
X175750000Y-120750000D01*
X183150000Y-122018000D02*
X181882000Y-120750000D01*
X174250000Y-119250000D02*
X172500000Y-119250000D01*
%TO.N,Row 0*%
X177422000Y-119985930D02*
X177422000Y-115880686D01*
X169853314Y-108312000D02*
X143856552Y-108312000D01*
X132272000Y-110978000D02*
X132272000Y-115600000D01*
X139250000Y-104000000D02*
X132272000Y-110978000D01*
X176686070Y-119250000D02*
X177436070Y-120000000D01*
X126517416Y-123300000D02*
X124900000Y-123300000D01*
X143544552Y-108000000D02*
X143536138Y-108000000D01*
X177436070Y-120000000D02*
X177422000Y-119985930D01*
X141595000Y-105095000D02*
X140500000Y-104000000D01*
X143856552Y-108312000D02*
X143544552Y-108000000D01*
X132737500Y-117079916D02*
X126517416Y-123300000D01*
X132272000Y-115600000D02*
X132737500Y-115600000D01*
X177422000Y-115880686D02*
X169853314Y-108312000D01*
X175687500Y-119250000D02*
X176686070Y-119250000D01*
X141595000Y-106058862D02*
X141595000Y-105095000D01*
X132737500Y-115600000D02*
X132737500Y-117079916D01*
X143536138Y-108000000D02*
X141595000Y-106058862D01*
X140500000Y-104000000D02*
X139250000Y-104000000D01*
%TO.N,Net-(D3-Pad1)*%
X138396310Y-98950000D02*
X144946310Y-105500000D01*
X144946310Y-105500000D02*
X145040000Y-105500000D01*
%TO.N,Row 1*%
X151900000Y-100200000D02*
X152900000Y-99200000D01*
X156862500Y-99200000D02*
X157062500Y-99000000D01*
X145450000Y-99200000D02*
X152900000Y-99200000D01*
X144250000Y-98000000D02*
X145450000Y-99200000D01*
X151900000Y-102300000D02*
X151900000Y-100200000D01*
X136562500Y-98000000D02*
X144250000Y-98000000D01*
X152900000Y-99200000D02*
X156862500Y-99200000D01*
%TO.N,Net-(D3-Pad2)*%
X147416309Y-97050000D02*
X147460000Y-97093691D01*
X147410000Y-97050000D02*
X147460000Y-97000000D01*
X138437500Y-97050000D02*
X147416309Y-97050000D01*
%TO.N,Net-(D4-Pad1)*%
X160040000Y-105500000D02*
X160040000Y-101052500D01*
X160040000Y-101052500D02*
X158937500Y-99950000D01*
%TO.N,Row 2*%
X206000000Y-122000000D02*
X209937500Y-122000000D01*
X201485207Y-130350000D02*
X202447078Y-131311871D01*
X202447078Y-131311871D02*
X202610000Y-131311871D01*
X199350000Y-130350000D02*
X201485207Y-130350000D01*
X203200000Y-124800000D02*
X206000000Y-122000000D01*
%TO.N,Net-(D6-Pad1)*%
X188500000Y-113960000D02*
X191040000Y-116500000D01*
X188500000Y-110500000D02*
X188500000Y-113960000D01*
%TO.N,Net-(D6-Pad2)*%
X188500000Y-108600000D02*
X194230915Y-108600000D01*
X194230915Y-108600000D02*
X194483826Y-108347089D01*
X193860000Y-108600000D02*
X194460000Y-108000000D01*
%TO.N,Net-(D7-Pad2)*%
X129500000Y-142500000D02*
X125460000Y-138460000D01*
X125460000Y-138460000D02*
X125460000Y-136500000D01*
%TO.N,Row 3*%
X123000000Y-121700000D02*
X123000000Y-112363862D01*
X124200000Y-111162448D02*
X124200000Y-109100000D01*
X123081921Y-112281941D02*
X123081921Y-112279113D01*
X127625000Y-143450000D02*
X127625000Y-141088862D01*
X127625000Y-141088862D02*
X123891000Y-137354862D01*
X126987500Y-143450000D02*
X127625000Y-143450000D01*
X123420505Y-111940529D02*
X123421919Y-111940529D01*
X114937500Y-131400000D02*
X126987500Y-143450000D01*
X123891000Y-137354862D02*
X123891000Y-122591000D01*
X123421919Y-111940529D02*
X124200000Y-111162448D01*
X123000000Y-112363862D02*
X123081921Y-112281941D01*
X123891000Y-122591000D02*
X123000000Y-121700000D01*
X123081921Y-112279113D02*
X123420505Y-111940529D01*
%TO.N,Net-(D7-Pad1)*%
X129400000Y-144500000D02*
X129500000Y-144400000D01*
X122540000Y-144500000D02*
X129400000Y-144500000D01*
%TO.N,Net-(D8-Pad1)*%
X120590000Y-130450000D02*
X122540000Y-128500000D01*
X113062500Y-130450000D02*
X120590000Y-130450000D01*
%TO.N,Net-(D8-Pad2)*%
X113062500Y-133005314D02*
X113062500Y-132350000D01*
X111965876Y-134101938D02*
X113062500Y-133005314D01*
%TO.N,-BATT*%
X167750000Y-117300000D02*
X167750000Y-120750000D01*
X173000000Y-123500000D02*
X172000000Y-122500000D01*
X169500000Y-122500000D02*
X172000000Y-122500000D01*
X192800000Y-125200000D02*
X191100000Y-123500000D01*
X191100000Y-123500000D02*
X173000000Y-123500000D01*
X195245924Y-129061928D02*
X195245924Y-128745924D01*
X192800000Y-126300000D02*
X192800000Y-125200000D01*
X195245924Y-128745924D02*
X192800000Y-126300000D01*
X167750000Y-120750000D02*
X169500000Y-122500000D01*
%TO.N,Column 2*%
X197948966Y-129196000D02*
X214332138Y-129196000D01*
X166198249Y-109235749D02*
X166250000Y-109287500D01*
X195041999Y-126858001D02*
X195610967Y-126858001D01*
X167537500Y-109287500D02*
X170000000Y-111750000D01*
X217514064Y-132377926D02*
X217514064Y-134785936D01*
X117460000Y-128500000D02*
X115500000Y-128500000D01*
X166250000Y-109287500D02*
X167537500Y-109287500D01*
X214332138Y-129196000D02*
X217514064Y-132377926D01*
X115500000Y-128500000D02*
X115000000Y-128000000D01*
X195610967Y-126858001D02*
X197948966Y-129196000D01*
%TO.N,+3.3V*%
X190328864Y-110549000D02*
X192800000Y-113020136D01*
X195849000Y-128849001D02*
X195849000Y-129446279D01*
X193143124Y-124567616D02*
X193143124Y-125686822D01*
X197350000Y-130350000D02*
X195849000Y-128849001D01*
X122200000Y-113800000D02*
X120500000Y-115500000D01*
X192790189Y-122267000D02*
X193150000Y-122626811D01*
X193150000Y-124560740D02*
X193143124Y-124567616D01*
X201471871Y-140201871D02*
X197000000Y-135730000D01*
X122200000Y-109100000D02*
X122200000Y-113800000D01*
X193150000Y-125693698D02*
X193150000Y-126150001D01*
X120500000Y-115500000D02*
X122672000Y-117672000D01*
X195849000Y-134579000D02*
X197000000Y-135730000D01*
X193150000Y-126150001D02*
X195849000Y-128849001D01*
X203880000Y-140201871D02*
X201471871Y-140201871D01*
X122672000Y-117672000D02*
X122672000Y-123072000D01*
X190328862Y-110549000D02*
X190328864Y-110549000D01*
X122672000Y-123072000D02*
X122900000Y-123300000D01*
X193143124Y-125686822D02*
X193150000Y-125693698D01*
X192800000Y-113020136D02*
X192800000Y-118200000D01*
X193150000Y-122626811D02*
X193150000Y-124560740D01*
X195849000Y-129446279D02*
X195849000Y-134579000D01*
%TO.N,+BATT*%
X184753873Y-122595000D02*
X182100898Y-122595000D01*
X182100898Y-122595000D02*
X182002949Y-122497051D01*
%TO.N,Net-(ClickStickR1-Pad1)*%
X173512500Y-120500000D02*
X173812500Y-120200000D01*
X169550000Y-120500000D02*
X173512500Y-120500000D01*
%TO.N,Net-(TriggerR1-OUT)*%
X200723000Y-131200000D02*
X200723000Y-136223000D01*
X200723000Y-136223000D02*
X202161871Y-137661871D01*
X202161871Y-137661871D02*
X202610000Y-137661871D01*
%TD*%
%TA.AperFunction,Conductor*%
%TO.N,GND*%
G36*
X195589827Y-134582061D02*
G01*
X195623184Y-134628318D01*
X195656135Y-134707868D01*
X195656136Y-134707869D01*
X195823606Y-134875340D01*
X195857091Y-134936663D01*
X195852107Y-135006355D01*
X195846410Y-135019316D01*
X195748444Y-135211585D01*
X195682753Y-135413760D01*
X195650997Y-135614259D01*
X195649500Y-135623713D01*
X195649500Y-135836287D01*
X195682754Y-136046243D01*
X195745191Y-136238404D01*
X195748444Y-136248414D01*
X195844951Y-136437820D01*
X195969890Y-136609786D01*
X196120213Y-136760109D01*
X196292182Y-136885050D01*
X196300946Y-136889516D01*
X196351742Y-136937491D01*
X196368536Y-137005312D01*
X196345998Y-137071447D01*
X196300946Y-137110484D01*
X196292182Y-137114949D01*
X196120213Y-137239890D01*
X195969890Y-137390213D01*
X195844951Y-137562179D01*
X195748444Y-137751585D01*
X195682753Y-137953760D01*
X195649500Y-138163713D01*
X195649500Y-138376286D01*
X195678553Y-138559724D01*
X195682754Y-138586243D01*
X195748309Y-138788001D01*
X195748444Y-138788414D01*
X195844951Y-138977820D01*
X195969890Y-139149786D01*
X196083818Y-139263714D01*
X196117303Y-139325037D01*
X196112319Y-139394729D01*
X196070447Y-139450662D01*
X196039471Y-139467577D01*
X195907912Y-139516646D01*
X195907906Y-139516649D01*
X195792812Y-139602809D01*
X195792809Y-139602812D01*
X195706649Y-139717906D01*
X195706645Y-139717913D01*
X195656403Y-139852620D01*
X195656401Y-139852627D01*
X195650000Y-139912155D01*
X195650000Y-140560000D01*
X196566988Y-140560000D01*
X196534075Y-140617007D01*
X196500000Y-140744174D01*
X196500000Y-140875826D01*
X196534075Y-141002993D01*
X196566988Y-141060000D01*
X195650000Y-141060000D01*
X195650000Y-141707844D01*
X195656401Y-141767372D01*
X195656403Y-141767379D01*
X195706645Y-141902086D01*
X195706649Y-141902093D01*
X195792809Y-142017187D01*
X195792812Y-142017190D01*
X195907906Y-142103350D01*
X195907913Y-142103354D01*
X196042620Y-142153596D01*
X196042627Y-142153598D01*
X196102155Y-142159999D01*
X196102172Y-142160000D01*
X196750000Y-142160000D01*
X196750000Y-141243012D01*
X196807007Y-141275925D01*
X196934174Y-141310000D01*
X197065826Y-141310000D01*
X197192993Y-141275925D01*
X197250000Y-141243012D01*
X197250000Y-142160000D01*
X197897828Y-142160000D01*
X197897844Y-142159999D01*
X197957372Y-142153598D01*
X197957379Y-142153596D01*
X198092086Y-142103354D01*
X198092093Y-142103350D01*
X198207187Y-142017190D01*
X198207190Y-142017187D01*
X198293350Y-141902093D01*
X198293354Y-141902086D01*
X198343596Y-141767379D01*
X198343598Y-141767372D01*
X198349999Y-141707844D01*
X198350000Y-141707827D01*
X198350000Y-141060000D01*
X197433012Y-141060000D01*
X197465925Y-141002993D01*
X197500000Y-140875826D01*
X197500000Y-140744174D01*
X197465925Y-140617007D01*
X197433012Y-140560000D01*
X198350000Y-140560000D01*
X198350000Y-139912172D01*
X198349999Y-139912155D01*
X198343598Y-139852627D01*
X198343596Y-139852620D01*
X198293354Y-139717913D01*
X198293350Y-139717906D01*
X198207190Y-139602812D01*
X198207187Y-139602809D01*
X198092093Y-139516649D01*
X198092088Y-139516646D01*
X197960528Y-139467577D01*
X197904595Y-139425705D01*
X197880178Y-139360241D01*
X197895030Y-139291968D01*
X197916175Y-139263720D01*
X198030104Y-139149792D01*
X198155051Y-138977816D01*
X198251557Y-138788412D01*
X198317246Y-138586243D01*
X198350500Y-138376287D01*
X198350500Y-138163713D01*
X198317246Y-137953757D01*
X198251557Y-137751588D01*
X198155051Y-137562184D01*
X198152947Y-137559288D01*
X198136897Y-137537196D01*
X198113417Y-137471390D01*
X198129243Y-137403336D01*
X198179349Y-137354641D01*
X198247827Y-137340766D01*
X198312936Y-137366115D01*
X198324896Y-137376630D01*
X201343181Y-140394915D01*
X201376666Y-140456238D01*
X201379500Y-140482596D01*
X201379500Y-140759899D01*
X201379500Y-140759904D01*
X201379501Y-140759907D01*
X201380599Y-140772258D01*
X201390113Y-140879286D01*
X201446089Y-141074916D01*
X201446091Y-141074920D01*
X201519261Y-141214997D01*
X201536774Y-141248524D01*
X201550365Y-141317059D01*
X201526132Y-141380246D01*
X201436646Y-141499782D01*
X201436645Y-141499784D01*
X201386403Y-141634491D01*
X201386401Y-141634498D01*
X201380000Y-141694026D01*
X201380000Y-142491871D01*
X203446988Y-142491871D01*
X203414075Y-142548878D01*
X203380000Y-142676045D01*
X203380000Y-142807697D01*
X203414075Y-142934864D01*
X203446988Y-142991871D01*
X201380000Y-142991871D01*
X201380000Y-143789715D01*
X201386401Y-143849243D01*
X201386403Y-143849250D01*
X201436645Y-143983957D01*
X201436646Y-143983959D01*
X201526132Y-144103496D01*
X201550549Y-144168960D01*
X201536774Y-144235218D01*
X201446090Y-144408823D01*
X201390114Y-144604454D01*
X201390113Y-144604457D01*
X201379500Y-144723837D01*
X201379500Y-145839899D01*
X201379501Y-145839905D01*
X201390113Y-145959286D01*
X201446089Y-146154916D01*
X201446090Y-146154919D01*
X201446091Y-146154920D01*
X201540302Y-146335278D01*
X201540304Y-146335280D01*
X201590743Y-146397139D01*
X201617852Y-146461536D01*
X201605843Y-146530365D01*
X201558527Y-146581776D01*
X201494641Y-146599500D01*
X195508624Y-146599500D01*
X195441585Y-146579815D01*
X195395830Y-146527011D01*
X195384624Y-146475500D01*
X195384624Y-134675774D01*
X195404309Y-134608735D01*
X195457113Y-134562980D01*
X195526271Y-134553036D01*
X195589827Y-134582061D01*
G37*
%TD.AperFunction*%
%TA.AperFunction,Conductor*%
G36*
X222271168Y-102627802D02*
G01*
X222316923Y-102680606D01*
X222328129Y-102732117D01*
X222328129Y-146475500D01*
X222308444Y-146542539D01*
X222255640Y-146588294D01*
X222204129Y-146599500D01*
X214805855Y-146599500D01*
X214738816Y-146579815D01*
X214693061Y-146527011D01*
X214681855Y-146475500D01*
X214681855Y-146313124D01*
X214681856Y-146273254D01*
X214681855Y-146273251D01*
X214681855Y-146273218D01*
X214681855Y-146273217D01*
X214681855Y-132364513D01*
X214681869Y-132364465D01*
X214681870Y-132313136D01*
X214681872Y-132218652D01*
X214652782Y-132034951D01*
X214652316Y-132032010D01*
X214652315Y-132032006D01*
X214593926Y-131852298D01*
X214593925Y-131852297D01*
X214593924Y-131852292D01*
X214508136Y-131683920D01*
X214397064Y-131531043D01*
X214397061Y-131531040D01*
X214397059Y-131531037D01*
X214263445Y-131397426D01*
X214263441Y-131397422D01*
X214110570Y-131286358D01*
X214110559Y-131286351D01*
X213942195Y-131200570D01*
X213942187Y-131200567D01*
X213762472Y-131142180D01*
X213762473Y-131142180D01*
X213575831Y-131112626D01*
X213575830Y-131112626D01*
X213481346Y-131112630D01*
X209533071Y-131112630D01*
X209531797Y-131112623D01*
X209531505Y-131112620D01*
X209531282Y-131112552D01*
X209386865Y-131112559D01*
X209200215Y-131142130D01*
X209020508Y-131200529D01*
X208852141Y-131286324D01*
X208852135Y-131286328D01*
X208699262Y-131397406D01*
X208699261Y-131397407D01*
X208565650Y-131531026D01*
X208504141Y-131615694D01*
X208454580Y-131683914D01*
X208454579Y-131683916D01*
X208368793Y-131852294D01*
X208310409Y-132032004D01*
X208310409Y-132032006D01*
X208310408Y-132032010D01*
X208280852Y-132218652D01*
X208280855Y-132301280D01*
X208280855Y-146273248D01*
X208280855Y-146273251D01*
X208280854Y-146273254D01*
X208280855Y-146313124D01*
X208280855Y-146475500D01*
X208261170Y-146542539D01*
X208208366Y-146588294D01*
X208156855Y-146599500D01*
X205265359Y-146599500D01*
X205198320Y-146579815D01*
X205152565Y-146527011D01*
X205142621Y-146457853D01*
X205169257Y-146397139D01*
X205186901Y-146375500D01*
X205219698Y-146335278D01*
X205313909Y-146154920D01*
X205369886Y-145959289D01*
X205380500Y-145839908D01*
X205380499Y-144723835D01*
X205369886Y-144604453D01*
X205317223Y-144420404D01*
X205313909Y-144408821D01*
X205246025Y-144278865D01*
X205223225Y-144235217D01*
X205209634Y-144166684D01*
X205233868Y-144103495D01*
X205323352Y-143983960D01*
X205323354Y-143983957D01*
X205373596Y-143849250D01*
X205373598Y-143849243D01*
X205379999Y-143789715D01*
X205380000Y-143789698D01*
X205380000Y-142991871D01*
X204313012Y-142991871D01*
X204345925Y-142934864D01*
X204380000Y-142807697D01*
X204380000Y-142676045D01*
X204345925Y-142548878D01*
X204313012Y-142491871D01*
X205380000Y-142491871D01*
X205380000Y-141694043D01*
X205379999Y-141694026D01*
X205373598Y-141634498D01*
X205373596Y-141634491D01*
X205323354Y-141499784D01*
X205323352Y-141499781D01*
X205233868Y-141380245D01*
X205209451Y-141314781D01*
X205223226Y-141248524D01*
X205313909Y-141074920D01*
X205369886Y-140879289D01*
X205380500Y-140759908D01*
X205380499Y-139643835D01*
X205369886Y-139524453D01*
X205313909Y-139328822D01*
X205219698Y-139148464D01*
X205147493Y-139059911D01*
X205091109Y-138990761D01*
X204933409Y-138862175D01*
X204933410Y-138862175D01*
X204933407Y-138862173D01*
X204753049Y-138767962D01*
X204753048Y-138767961D01*
X204753045Y-138767960D01*
X204635829Y-138734421D01*
X204557418Y-138711985D01*
X204557415Y-138711984D01*
X204557413Y-138711984D01*
X204484631Y-138705513D01*
X204438037Y-138701371D01*
X204438033Y-138701371D01*
X203681229Y-138701371D01*
X203614190Y-138681686D01*
X203568435Y-138628882D01*
X203558491Y-138559724D01*
X203587516Y-138496168D01*
X203593521Y-138489717D01*
X203702712Y-138380527D01*
X203794814Y-138231205D01*
X203849999Y-138064668D01*
X203860500Y-137961880D01*
X203860499Y-137361863D01*
X203849999Y-137259074D01*
X203794814Y-137092537D01*
X203794465Y-137091971D01*
X203794345Y-137091534D01*
X203791760Y-137085989D01*
X203792707Y-137085547D01*
X203776022Y-137024583D01*
X203792594Y-136968142D01*
X203791760Y-136967753D01*
X203794322Y-136962258D01*
X203794465Y-136961770D01*
X203794814Y-136961205D01*
X203849999Y-136794668D01*
X203860500Y-136691880D01*
X203860499Y-136091863D01*
X203855838Y-136046239D01*
X203849999Y-135989074D01*
X203849998Y-135989071D01*
X203794814Y-135822537D01*
X203794465Y-135821971D01*
X203794345Y-135821534D01*
X203791760Y-135815989D01*
X203792707Y-135815547D01*
X203776022Y-135754583D01*
X203792594Y-135698142D01*
X203791760Y-135697753D01*
X203794322Y-135692258D01*
X203794465Y-135691770D01*
X203794814Y-135691205D01*
X203849999Y-135524668D01*
X203860500Y-135421880D01*
X203860499Y-134821863D01*
X203849999Y-134719074D01*
X203794814Y-134552537D01*
X203794465Y-134551971D01*
X203794345Y-134551534D01*
X203791760Y-134545989D01*
X203792707Y-134545547D01*
X203776022Y-134484583D01*
X203792594Y-134428142D01*
X203791760Y-134427753D01*
X203794322Y-134422258D01*
X203794465Y-134421770D01*
X203794814Y-134421205D01*
X203849999Y-134254668D01*
X203860500Y-134151880D01*
X203860499Y-133551863D01*
X203855838Y-133506239D01*
X203849999Y-133449074D01*
X203849998Y-133449071D01*
X203834896Y-133403496D01*
X203794814Y-133282537D01*
X203794465Y-133281971D01*
X203794345Y-133281534D01*
X203791760Y-133275989D01*
X203792707Y-133275547D01*
X203776022Y-133214583D01*
X203792594Y-133158142D01*
X203791760Y-133157753D01*
X203794322Y-133152258D01*
X203794465Y-133151770D01*
X203794814Y-133151205D01*
X203849999Y-132984668D01*
X203860500Y-132881880D01*
X203860499Y-132281863D01*
X203849999Y-132179074D01*
X203794814Y-132012537D01*
X203794465Y-132011971D01*
X203794345Y-132011534D01*
X203791760Y-132005989D01*
X203792707Y-132005547D01*
X203776022Y-131944583D01*
X203792594Y-131888142D01*
X203791760Y-131887753D01*
X203794322Y-131882258D01*
X203794465Y-131881770D01*
X203794814Y-131881205D01*
X203849999Y-131714668D01*
X203860500Y-131611880D01*
X203860499Y-131011863D01*
X203859477Y-131001862D01*
X203849999Y-130909074D01*
X203849998Y-130909071D01*
X203833869Y-130860398D01*
X203794814Y-130742537D01*
X203794465Y-130741971D01*
X203794345Y-130741534D01*
X203791760Y-130735989D01*
X203792707Y-130735547D01*
X203776022Y-130674583D01*
X203792594Y-130618142D01*
X203791760Y-130617753D01*
X203794322Y-130612258D01*
X203794465Y-130611770D01*
X203794814Y-130611205D01*
X203849999Y-130444668D01*
X203860500Y-130341880D01*
X203860499Y-129741863D01*
X203856044Y-129698255D01*
X203849999Y-129639074D01*
X203849998Y-129639071D01*
X203832579Y-129586504D01*
X203830177Y-129516676D01*
X203865909Y-129456634D01*
X203928429Y-129425441D01*
X203950285Y-129423500D01*
X214186543Y-129423500D01*
X214253582Y-129443185D01*
X214274224Y-129459819D01*
X217250245Y-132435840D01*
X217283730Y-132497163D01*
X217286564Y-132523521D01*
X217286564Y-133876740D01*
X217266879Y-133943779D01*
X217214075Y-133989534D01*
X217210018Y-133991301D01*
X217111201Y-134032232D01*
X216971901Y-134125309D01*
X216853437Y-134243773D01*
X216760359Y-134383075D01*
X216696248Y-134537853D01*
X216696246Y-134537861D01*
X216663564Y-134702164D01*
X216663564Y-134869707D01*
X216696246Y-135034010D01*
X216696248Y-135034018D01*
X216760359Y-135188796D01*
X216853437Y-135328098D01*
X216971901Y-135446562D01*
X217064558Y-135508473D01*
X217111201Y-135539639D01*
X217265982Y-135603752D01*
X217366334Y-135623713D01*
X217430292Y-135636435D01*
X217430296Y-135636436D01*
X217430297Y-135636436D01*
X217597832Y-135636436D01*
X217597833Y-135636435D01*
X217646937Y-135626668D01*
X217740309Y-135608096D01*
X217809900Y-135614323D01*
X217865078Y-135657186D01*
X217888322Y-135723076D01*
X217888500Y-135729713D01*
X217888500Y-144520747D01*
X217888500Y-144611253D01*
X217923135Y-144694868D01*
X217923136Y-144694869D01*
X219521129Y-146292864D01*
X219521130Y-146292864D01*
X219521132Y-146292866D01*
X219580252Y-146317353D01*
X219580255Y-146317355D01*
X219580256Y-146317355D01*
X219590401Y-146321557D01*
X219604747Y-146327500D01*
X221145252Y-146327500D01*
X221145253Y-146327500D01*
X221228868Y-146292865D01*
X221692865Y-145828868D01*
X221723137Y-145755785D01*
X221727500Y-145745253D01*
X221727500Y-141786618D01*
X221721395Y-141771879D01*
X221692866Y-141703003D01*
X221665059Y-141675196D01*
X221656815Y-141660757D01*
X221652428Y-141642289D01*
X221643333Y-141625632D01*
X221640499Y-141599274D01*
X221640499Y-141171869D01*
X221640498Y-141171852D01*
X221629999Y-141069074D01*
X221629998Y-141069071D01*
X221608102Y-141002993D01*
X221574814Y-140902537D01*
X221574465Y-140901971D01*
X221574345Y-140901534D01*
X221571760Y-140895989D01*
X221572707Y-140895547D01*
X221556022Y-140834583D01*
X221572594Y-140778142D01*
X221571760Y-140777753D01*
X221574322Y-140772258D01*
X221574465Y-140771770D01*
X221574814Y-140771205D01*
X221629999Y-140604668D01*
X221640500Y-140501880D01*
X221640499Y-139901863D01*
X221635469Y-139852627D01*
X221629999Y-139799074D01*
X221629998Y-139799071D01*
X221603105Y-139717913D01*
X221574814Y-139632537D01*
X221574465Y-139631971D01*
X221574345Y-139631534D01*
X221571760Y-139625989D01*
X221572707Y-139625547D01*
X221556022Y-139564583D01*
X221572594Y-139508142D01*
X221571760Y-139507753D01*
X221574322Y-139502258D01*
X221574465Y-139501770D01*
X221574814Y-139501205D01*
X221629999Y-139334668D01*
X221640500Y-139231880D01*
X221640499Y-138631863D01*
X221640194Y-138628882D01*
X221629999Y-138529074D01*
X221629998Y-138529071D01*
X221594985Y-138423408D01*
X221592583Y-138353580D01*
X221625008Y-138296724D01*
X221792866Y-138128868D01*
X221792867Y-138128866D01*
X221817352Y-138069751D01*
X221817356Y-138069741D01*
X221827500Y-138045255D01*
X221827500Y-129554747D01*
X221817355Y-129530257D01*
X221792866Y-129471132D01*
X221792863Y-129471129D01*
X221792863Y-129471128D01*
X219028869Y-126707136D01*
X219028868Y-126707135D01*
X218945253Y-126672500D01*
X202287237Y-126672500D01*
X202220198Y-126652815D01*
X202174443Y-126600011D01*
X202164499Y-126530853D01*
X202165620Y-126524309D01*
X202188999Y-126406771D01*
X202189000Y-126406768D01*
X202189000Y-126239232D01*
X202188999Y-126239228D01*
X202156317Y-126074925D01*
X202156316Y-126074918D01*
X202092203Y-125920137D01*
X202050055Y-125857059D01*
X202047682Y-125849480D01*
X202042271Y-125843667D01*
X202037393Y-125816622D01*
X202029179Y-125790387D01*
X202030964Y-125780972D01*
X202029871Y-125774907D01*
X202038602Y-125740710D01*
X202042366Y-125731625D01*
X202086211Y-125677225D01*
X202152507Y-125655166D01*
X202156923Y-125655087D01*
X203633171Y-125655087D01*
X203633172Y-125655087D01*
X203716787Y-125620452D01*
X206123420Y-123213819D01*
X206184743Y-123180334D01*
X206211101Y-123177500D01*
X206727017Y-123177500D01*
X206794056Y-123197185D01*
X206839811Y-123249989D01*
X206846093Y-123266905D01*
X206873254Y-123360393D01*
X206873255Y-123360396D01*
X206956917Y-123501862D01*
X206956923Y-123501870D01*
X207073129Y-123618076D01*
X207073133Y-123618079D01*
X207073135Y-123618081D01*
X207214602Y-123701744D01*
X207256224Y-123713836D01*
X207372426Y-123747597D01*
X207372429Y-123747597D01*
X207372431Y-123747598D01*
X207409306Y-123750500D01*
X207409314Y-123750500D01*
X208715686Y-123750500D01*
X208715694Y-123750500D01*
X208752569Y-123747598D01*
X208752571Y-123747597D01*
X208752573Y-123747597D01*
X208821746Y-123727500D01*
X208910398Y-123701744D01*
X209051865Y-123618081D01*
X209168081Y-123501865D01*
X209251744Y-123360398D01*
X209297598Y-123202569D01*
X209300500Y-123165694D01*
X209300500Y-122924500D01*
X209320185Y-122857461D01*
X209372989Y-122811706D01*
X209424500Y-122800500D01*
X210590686Y-122800500D01*
X210590694Y-122800500D01*
X210627569Y-122797598D01*
X210627571Y-122797597D01*
X210627573Y-122797597D01*
X210669191Y-122785505D01*
X210785398Y-122751744D01*
X210926865Y-122668081D01*
X211043081Y-122551865D01*
X211126744Y-122410398D01*
X211162879Y-122286022D01*
X211172597Y-122252573D01*
X211172598Y-122252567D01*
X211173022Y-122247185D01*
X211175500Y-122215694D01*
X211175500Y-121784306D01*
X211172598Y-121747431D01*
X211171746Y-121744500D01*
X211137887Y-121627956D01*
X211126744Y-121589602D01*
X211043081Y-121448135D01*
X211043079Y-121448133D01*
X211043076Y-121448129D01*
X210926870Y-121331923D01*
X210926862Y-121331917D01*
X210785396Y-121248255D01*
X210785393Y-121248254D01*
X210627573Y-121202402D01*
X210627567Y-121202401D01*
X210590701Y-121199500D01*
X210590694Y-121199500D01*
X209424500Y-121199500D01*
X209357461Y-121179815D01*
X209311706Y-121127011D01*
X209300500Y-121075500D01*
X209300500Y-120834313D01*
X209300499Y-120834298D01*
X209297598Y-120797432D01*
X209297597Y-120797426D01*
X209251745Y-120639606D01*
X209251744Y-120639603D01*
X209251744Y-120639602D01*
X209168081Y-120498135D01*
X209168079Y-120498133D01*
X209168076Y-120498129D01*
X209051870Y-120381923D01*
X209051862Y-120381917D01*
X208910396Y-120298255D01*
X208910393Y-120298254D01*
X208752573Y-120252402D01*
X208752567Y-120252401D01*
X208715701Y-120249500D01*
X208715694Y-120249500D01*
X208410905Y-120249500D01*
X208343866Y-120229815D01*
X208298111Y-120177011D01*
X208286905Y-120125500D01*
X208286905Y-118281637D01*
X208306590Y-118214598D01*
X208359394Y-118168843D01*
X208391500Y-118159165D01*
X208422481Y-118154259D01*
X208654590Y-118078842D01*
X208872044Y-117968044D01*
X209069488Y-117824593D01*
X209242060Y-117652021D01*
X209385511Y-117454577D01*
X209496309Y-117237123D01*
X209571726Y-117005014D01*
X209609905Y-116763965D01*
X209609905Y-116519911D01*
X209571726Y-116278862D01*
X209496309Y-116046753D01*
X209385511Y-115829299D01*
X209306644Y-115720747D01*
X209242065Y-115631861D01*
X209242061Y-115631856D01*
X209069486Y-115459281D01*
X209069481Y-115459277D01*
X208872047Y-115315834D01*
X208872046Y-115315833D01*
X208872044Y-115315832D01*
X208654590Y-115205034D01*
X208422481Y-115129617D01*
X208422479Y-115129616D01*
X208422477Y-115129616D01*
X208216820Y-115097043D01*
X208181432Y-115091438D01*
X208096314Y-115091438D01*
X208029275Y-115071753D01*
X207983520Y-115018949D01*
X207973576Y-114949791D01*
X208002601Y-114886235D01*
X208008633Y-114879757D01*
X208720900Y-114167491D01*
X209624572Y-113263819D01*
X209685895Y-113230334D01*
X209712253Y-113227500D01*
X218539893Y-113227500D01*
X218606932Y-113247185D01*
X218652687Y-113299989D01*
X218657824Y-113313182D01*
X218697689Y-113435878D01*
X218697691Y-113435881D01*
X218778833Y-113595132D01*
X218883889Y-113739728D01*
X219010272Y-113866111D01*
X219154868Y-113971167D01*
X219314119Y-114052309D01*
X219314121Y-114052310D01*
X219426636Y-114088868D01*
X219484103Y-114107540D01*
X219660634Y-114135500D01*
X219660635Y-114135500D01*
X219839365Y-114135500D01*
X219839366Y-114135500D01*
X220015897Y-114107540D01*
X220015900Y-114107539D01*
X220015901Y-114107539D01*
X220185878Y-114052310D01*
X220185878Y-114052309D01*
X220185881Y-114052309D01*
X220345132Y-113971167D01*
X220489728Y-113866111D01*
X220616111Y-113739728D01*
X220721167Y-113595132D01*
X220802309Y-113435881D01*
X220820944Y-113378529D01*
X220857539Y-113265901D01*
X220857539Y-113265900D01*
X220857540Y-113265897D01*
X220885500Y-113089366D01*
X220885500Y-112910634D01*
X220857540Y-112734103D01*
X220857539Y-112734099D01*
X220857539Y-112734098D01*
X220802310Y-112564121D01*
X220802308Y-112564118D01*
X220797534Y-112554747D01*
X220721167Y-112404868D01*
X220616111Y-112260272D01*
X220489728Y-112133889D01*
X220345132Y-112028833D01*
X220185881Y-111947691D01*
X220185878Y-111947689D01*
X220015900Y-111892460D01*
X219923904Y-111877889D01*
X219889703Y-111872472D01*
X219826569Y-111842544D01*
X219789638Y-111783232D01*
X219790636Y-111713370D01*
X219829246Y-111655137D01*
X219889703Y-111627527D01*
X220015897Y-111607540D01*
X220015900Y-111607539D01*
X220015901Y-111607539D01*
X220185878Y-111552310D01*
X220185878Y-111552309D01*
X220185881Y-111552309D01*
X220345132Y-111471167D01*
X220489728Y-111366111D01*
X220616111Y-111239728D01*
X220721167Y-111095132D01*
X220802309Y-110935881D01*
X220802310Y-110935878D01*
X220857539Y-110765901D01*
X220857539Y-110765900D01*
X220857540Y-110765897D01*
X220885500Y-110589366D01*
X220885500Y-110410634D01*
X220857540Y-110234103D01*
X220857539Y-110234099D01*
X220857539Y-110234098D01*
X220802310Y-110064121D01*
X220802308Y-110064118D01*
X220797960Y-110055583D01*
X220721167Y-109904868D01*
X220616111Y-109760272D01*
X220489728Y-109633889D01*
X220345132Y-109528833D01*
X220185881Y-109447691D01*
X220185878Y-109447689D01*
X220015899Y-109392460D01*
X219949681Y-109381972D01*
X219886546Y-109352043D01*
X219849615Y-109292731D01*
X219850613Y-109222868D01*
X219889223Y-109164636D01*
X219953187Y-109136522D01*
X219969073Y-109135499D01*
X220432872Y-109135499D01*
X220492483Y-109129091D01*
X220627331Y-109078796D01*
X220742546Y-108992546D01*
X220828796Y-108877331D01*
X220879091Y-108742483D01*
X220885500Y-108682873D01*
X220885499Y-107317128D01*
X220880299Y-107268757D01*
X220879091Y-107257516D01*
X220828797Y-107122671D01*
X220828793Y-107122664D01*
X220742547Y-107007455D01*
X220742544Y-107007452D01*
X220627335Y-106921206D01*
X220627328Y-106921202D01*
X220492482Y-106870908D01*
X220492483Y-106870908D01*
X220432883Y-106864501D01*
X220432881Y-106864500D01*
X220432873Y-106864500D01*
X220432864Y-106864500D01*
X219067129Y-106864500D01*
X219067123Y-106864501D01*
X219007516Y-106870908D01*
X218872671Y-106921202D01*
X218872664Y-106921206D01*
X218757455Y-107007452D01*
X218757452Y-107007455D01*
X218671206Y-107122664D01*
X218671202Y-107122671D01*
X218620908Y-107257517D01*
X218614501Y-107317116D01*
X218614501Y-107317123D01*
X218614500Y-107317135D01*
X218614500Y-108682870D01*
X218614501Y-108682876D01*
X218620908Y-108742483D01*
X218671202Y-108877328D01*
X218671206Y-108877335D01*
X218757452Y-108992544D01*
X218757455Y-108992547D01*
X218872664Y-109078793D01*
X218872671Y-109078797D01*
X219007517Y-109129091D01*
X219007516Y-109129091D01*
X219014444Y-109129835D01*
X219067127Y-109135500D01*
X219530920Y-109135499D01*
X219597957Y-109155183D01*
X219643712Y-109207987D01*
X219653656Y-109277146D01*
X219624631Y-109340702D01*
X219565853Y-109378476D01*
X219550317Y-109381972D01*
X219484100Y-109392460D01*
X219484098Y-109392460D01*
X219314121Y-109447689D01*
X219314118Y-109447691D01*
X219154867Y-109528833D01*
X219010270Y-109633890D01*
X218883890Y-109760270D01*
X218778833Y-109904867D01*
X218697691Y-110064118D01*
X218697689Y-110064121D01*
X218657824Y-110186818D01*
X218618387Y-110244493D01*
X218554029Y-110271692D01*
X218539893Y-110272500D01*
X211145253Y-110272500D01*
X211054747Y-110272500D01*
X211054745Y-110272500D01*
X211054743Y-110272501D01*
X210971134Y-110307131D01*
X206432031Y-114846234D01*
X206370708Y-114879719D01*
X206301016Y-114874735D01*
X206296898Y-114873114D01*
X206198086Y-114832185D01*
X206198074Y-114832182D01*
X206033771Y-114799500D01*
X206033767Y-114799500D01*
X205866233Y-114799500D01*
X205866228Y-114799500D01*
X205701925Y-114832182D01*
X205701917Y-114832184D01*
X205547139Y-114896295D01*
X205407837Y-114989373D01*
X205289373Y-115107837D01*
X205196295Y-115247139D01*
X205132184Y-115401917D01*
X205132182Y-115401925D01*
X205099500Y-115566228D01*
X205099500Y-115733771D01*
X205132182Y-115898074D01*
X205132185Y-115898086D01*
X205173114Y-115996898D01*
X205180583Y-116066367D01*
X205149307Y-116128846D01*
X205146234Y-116132031D01*
X204733224Y-116545042D01*
X204671901Y-116578527D01*
X204602210Y-116573543D01*
X204546276Y-116531672D01*
X204523070Y-116476759D01*
X204521654Y-116467816D01*
X204491726Y-116278862D01*
X204416309Y-116046753D01*
X204305511Y-115829299D01*
X204226644Y-115720747D01*
X204162065Y-115631861D01*
X204162061Y-115631856D01*
X203989486Y-115459281D01*
X203989481Y-115459277D01*
X203792047Y-115315834D01*
X203792046Y-115315833D01*
X203792044Y-115315832D01*
X203574590Y-115205034D01*
X203342481Y-115129617D01*
X203342479Y-115129616D01*
X203342477Y-115129616D01*
X203136820Y-115097043D01*
X203101432Y-115091438D01*
X202857378Y-115091438D01*
X202821990Y-115097043D01*
X202616332Y-115129616D01*
X202384217Y-115205035D01*
X202166762Y-115315834D01*
X201969328Y-115459277D01*
X201969323Y-115459281D01*
X201796748Y-115631856D01*
X201743818Y-115704709D01*
X201688488Y-115747374D01*
X201618875Y-115753353D01*
X201557080Y-115720747D01*
X201522722Y-115659908D01*
X201519500Y-115631823D01*
X201519500Y-107472882D01*
X201519500Y-107472881D01*
X201484865Y-107389266D01*
X201420868Y-107325269D01*
X200814454Y-106718855D01*
X200204647Y-106109047D01*
X200204642Y-106109045D01*
X200121030Y-106074411D01*
X198858161Y-106074411D01*
X198858160Y-106074411D01*
X198858156Y-106074412D01*
X198838759Y-106082447D01*
X198838756Y-106082449D01*
X198774546Y-106109044D01*
X196280131Y-108603460D01*
X196218808Y-108636945D01*
X196149116Y-108631961D01*
X196093183Y-108590089D01*
X196068766Y-108524625D01*
X196068450Y-108515779D01*
X196068450Y-108381718D01*
X196063872Y-108352815D01*
X196030271Y-108140669D01*
X195954854Y-107908560D01*
X195844056Y-107691106D01*
X195752699Y-107565363D01*
X195700610Y-107493668D01*
X195700606Y-107493663D01*
X195528031Y-107321088D01*
X195528026Y-107321084D01*
X195330592Y-107177641D01*
X195330591Y-107177640D01*
X195330589Y-107177639D01*
X195113135Y-107066841D01*
X194881026Y-106991424D01*
X194881024Y-106991423D01*
X194881022Y-106991423D01*
X194712719Y-106964766D01*
X194639977Y-106953245D01*
X194607101Y-106953245D01*
X194540062Y-106933560D01*
X194494307Y-106880756D01*
X194484363Y-106811598D01*
X194513388Y-106748042D01*
X194572166Y-106710268D01*
X194590153Y-106706408D01*
X196842329Y-106395735D01*
X196904818Y-106387117D01*
X196912096Y-106386617D01*
X196913221Y-106385958D01*
X196913223Y-106385958D01*
X196913226Y-106385956D01*
X196913227Y-106385956D01*
X196935927Y-106372663D01*
X196978434Y-106347771D01*
X196981840Y-106345930D01*
X196982047Y-106345655D01*
X196982054Y-106345652D01*
X196982055Y-106345649D01*
X196982057Y-106345649D01*
X197007548Y-106312000D01*
X197029033Y-106283640D01*
X197030200Y-106282150D01*
X197030220Y-106282073D01*
X197030221Y-106282072D01*
X197030221Y-106282069D01*
X197030223Y-106282068D01*
X197042108Y-106236589D01*
X197049330Y-106208954D01*
X197050437Y-106205244D01*
X197050389Y-106204897D01*
X197050390Y-106204897D01*
X197045573Y-106169979D01*
X197042021Y-106144222D01*
X196747615Y-104009675D01*
X196757955Y-103940575D01*
X196804012Y-103888034D01*
X196853506Y-103869897D01*
X205993427Y-102609280D01*
X206010369Y-102608117D01*
X222204129Y-102608117D01*
X222271168Y-102627802D01*
G37*
%TD.AperFunction*%
%TA.AperFunction,Conductor*%
G36*
X138433720Y-106065525D02*
G01*
X138489653Y-106107397D01*
X138508316Y-106143387D01*
X138523096Y-106188875D01*
X138628496Y-106395735D01*
X138633896Y-106406332D01*
X138777339Y-106603766D01*
X138777343Y-106603771D01*
X138949918Y-106776346D01*
X138949923Y-106776350D01*
X139081217Y-106871740D01*
X139147361Y-106919796D01*
X139364815Y-107030594D01*
X139596924Y-107106011D01*
X139837973Y-107144190D01*
X139837974Y-107144190D01*
X140082026Y-107144190D01*
X140082027Y-107144190D01*
X140323076Y-107106011D01*
X140555185Y-107030594D01*
X140772639Y-106919796D01*
X140970083Y-106776345D01*
X141142655Y-106603773D01*
X141146386Y-106598636D01*
X141201715Y-106555972D01*
X141271328Y-106549993D01*
X141333124Y-106582598D01*
X141334385Y-106583842D01*
X143207411Y-108456868D01*
X143271408Y-108520865D01*
X143283051Y-108525687D01*
X143299097Y-108540324D01*
X143300304Y-108542312D01*
X143303211Y-108544254D01*
X143591822Y-108832866D01*
X143591827Y-108832868D01*
X143644643Y-108854745D01*
X143644649Y-108854747D01*
X143652548Y-108858019D01*
X143675434Y-108867499D01*
X143675435Y-108867499D01*
X143675437Y-108867500D01*
X143675438Y-108867500D01*
X143765943Y-108867500D01*
X165253241Y-108867500D01*
X165320280Y-108887185D01*
X165366035Y-108939989D01*
X165375979Y-109009147D01*
X165374858Y-109015691D01*
X165347749Y-109151977D01*
X165347749Y-109319520D01*
X165380431Y-109483823D01*
X165380433Y-109483831D01*
X165444544Y-109638609D01*
X165537622Y-109777911D01*
X165656086Y-109896375D01*
X165703204Y-109927858D01*
X165795386Y-109989452D01*
X165950167Y-110053565D01*
X166039303Y-110071295D01*
X166114477Y-110086248D01*
X166114481Y-110086249D01*
X166114482Y-110086249D01*
X166282017Y-110086249D01*
X166282018Y-110086248D01*
X166446331Y-110053565D01*
X166601112Y-109989452D01*
X166740411Y-109896375D01*
X166858875Y-109777911D01*
X166951952Y-109638612D01*
X166967942Y-109600009D01*
X166971447Y-109591548D01*
X167015288Y-109537144D01*
X167081582Y-109515079D01*
X167086008Y-109515000D01*
X167391905Y-109515000D01*
X167458944Y-109534685D01*
X167479586Y-109551319D01*
X169196234Y-111267968D01*
X169229719Y-111329291D01*
X169224735Y-111398983D01*
X169223114Y-111403101D01*
X169182185Y-111501913D01*
X169182182Y-111501925D01*
X169149500Y-111666228D01*
X169149500Y-111833771D01*
X169182182Y-111998074D01*
X169182184Y-111998082D01*
X169246295Y-112152860D01*
X169339373Y-112292162D01*
X169457837Y-112410626D01*
X169520399Y-112452428D01*
X169597137Y-112503703D01*
X169751918Y-112567816D01*
X169887879Y-112594860D01*
X169916228Y-112600499D01*
X169916232Y-112600500D01*
X169916233Y-112600500D01*
X170083768Y-112600500D01*
X170083769Y-112600499D01*
X170248082Y-112567816D01*
X170402863Y-112503703D01*
X170542162Y-112410626D01*
X170660626Y-112292162D01*
X170753703Y-112152863D01*
X170817816Y-111998082D01*
X170850500Y-111833767D01*
X170850500Y-111666233D01*
X170848406Y-111655706D01*
X170854630Y-111586117D01*
X170897490Y-111530937D01*
X170901093Y-111528434D01*
X170965162Y-111485626D01*
X171083626Y-111367162D01*
X171176703Y-111227863D01*
X171240816Y-111073082D01*
X171273500Y-110908767D01*
X171273500Y-110741233D01*
X171240816Y-110576918D01*
X171178573Y-110426651D01*
X171176704Y-110422139D01*
X171165044Y-110404689D01*
X171133487Y-110357460D01*
X171083626Y-110282837D01*
X170965162Y-110164373D01*
X170825860Y-110071295D01*
X170671082Y-110007184D01*
X170671074Y-110007182D01*
X170506771Y-109974500D01*
X170506767Y-109974500D01*
X170339233Y-109974500D01*
X170339228Y-109974500D01*
X170174925Y-110007182D01*
X170174913Y-110007185D01*
X170076101Y-110048114D01*
X170006631Y-110055583D01*
X169944152Y-110024307D01*
X169940968Y-110021234D01*
X169308796Y-109389062D01*
X168670913Y-108751180D01*
X168637429Y-108689858D01*
X168642413Y-108620166D01*
X168684285Y-108564233D01*
X168749749Y-108539816D01*
X168758595Y-108539500D01*
X169707719Y-108539500D01*
X169774758Y-108559185D01*
X169795400Y-108575819D01*
X177158181Y-115938600D01*
X177191666Y-115999923D01*
X177194500Y-116026281D01*
X177194500Y-119096632D01*
X177188868Y-119115811D01*
X177188155Y-119135789D01*
X177179225Y-119148650D01*
X177174815Y-119163671D01*
X177159709Y-119176759D01*
X177148308Y-119193182D01*
X177124356Y-119207393D01*
X177122011Y-119209426D01*
X177117955Y-119211192D01*
X177096955Y-119219891D01*
X177027486Y-119227361D01*
X176965006Y-119196088D01*
X176929352Y-119136000D01*
X176925500Y-119105331D01*
X176925500Y-119034313D01*
X176925499Y-119034298D01*
X176922598Y-118997432D01*
X176922597Y-118997426D01*
X176883888Y-118864193D01*
X176876744Y-118839602D01*
X176793081Y-118698135D01*
X176793079Y-118698133D01*
X176793076Y-118698129D01*
X176676870Y-118581923D01*
X176676862Y-118581917D01*
X176535396Y-118498255D01*
X176535393Y-118498254D01*
X176377573Y-118452402D01*
X176377567Y-118452401D01*
X176340701Y-118449500D01*
X176340694Y-118449500D01*
X175174500Y-118449500D01*
X175107461Y-118429815D01*
X175061706Y-118377011D01*
X175050500Y-118325500D01*
X175050500Y-118084313D01*
X175050499Y-118084298D01*
X175048466Y-118058467D01*
X175047598Y-118047431D01*
X175001744Y-117889602D01*
X174918081Y-117748135D01*
X174918079Y-117748133D01*
X174918076Y-117748129D01*
X174801870Y-117631923D01*
X174801862Y-117631917D01*
X174660396Y-117548255D01*
X174660393Y-117548254D01*
X174502573Y-117502402D01*
X174502567Y-117502401D01*
X174465701Y-117499500D01*
X174465694Y-117499500D01*
X174127051Y-117499500D01*
X174079599Y-117490061D01*
X174060582Y-117482184D01*
X174060574Y-117482182D01*
X173896271Y-117449500D01*
X173896267Y-117449500D01*
X173728733Y-117449500D01*
X173728728Y-117449500D01*
X173564425Y-117482182D01*
X173564417Y-117482184D01*
X173551929Y-117487356D01*
X173545400Y-117490061D01*
X173497949Y-117499500D01*
X173159298Y-117499500D01*
X173122432Y-117502401D01*
X173122426Y-117502402D01*
X172964606Y-117548254D01*
X172964603Y-117548255D01*
X172823137Y-117631917D01*
X172823129Y-117631923D01*
X172706923Y-117748129D01*
X172706917Y-117748137D01*
X172623255Y-117889603D01*
X172623254Y-117889606D01*
X172577402Y-118047426D01*
X172577401Y-118047432D01*
X172574500Y-118084298D01*
X172574500Y-118515701D01*
X172577401Y-118552567D01*
X172577402Y-118552573D01*
X172623254Y-118710393D01*
X172625326Y-118715181D01*
X172633887Y-118784524D01*
X172603600Y-118847488D01*
X172544080Y-118884082D01*
X172474224Y-118882687D01*
X172423845Y-118852112D01*
X169034514Y-115462781D01*
X169001029Y-115401458D01*
X169006013Y-115331766D01*
X169021878Y-115302213D01*
X169033343Y-115286433D01*
X169140568Y-115075992D01*
X169213553Y-114851368D01*
X169216592Y-114832182D01*
X169250500Y-114618097D01*
X169250500Y-114381902D01*
X169213553Y-114148631D01*
X169162413Y-113991241D01*
X169140568Y-113924008D01*
X169140566Y-113924005D01*
X169140566Y-113924003D01*
X169046673Y-113739729D01*
X169033343Y-113713567D01*
X168894517Y-113522490D01*
X168727510Y-113355483D01*
X168536433Y-113216657D01*
X168325996Y-113109433D01*
X168101368Y-113036446D01*
X167868097Y-112999500D01*
X167868092Y-112999500D01*
X167631908Y-112999500D01*
X167631903Y-112999500D01*
X167398631Y-113036446D01*
X167174003Y-113109433D01*
X166963566Y-113216657D01*
X166881554Y-113276243D01*
X166772490Y-113355483D01*
X166772488Y-113355485D01*
X166772487Y-113355485D01*
X166605485Y-113522487D01*
X166605485Y-113522488D01*
X166605483Y-113522490D01*
X166552705Y-113595132D01*
X166466657Y-113713566D01*
X166359433Y-113924003D01*
X166286446Y-114148631D01*
X166249500Y-114381902D01*
X166249500Y-114618097D01*
X166286446Y-114851368D01*
X166359433Y-115075996D01*
X166446635Y-115247137D01*
X166466657Y-115286433D01*
X166605483Y-115477510D01*
X166605485Y-115477512D01*
X166722331Y-115594358D01*
X166755816Y-115655681D01*
X166750832Y-115725373D01*
X166708960Y-115781306D01*
X166647912Y-115805328D01*
X166642518Y-115805908D01*
X166507671Y-115856202D01*
X166507664Y-115856206D01*
X166392455Y-115942452D01*
X166392452Y-115942455D01*
X166306206Y-116057664D01*
X166306202Y-116057671D01*
X166255908Y-116192517D01*
X166249501Y-116252116D01*
X166249500Y-116252135D01*
X166249500Y-118347870D01*
X166249501Y-118347876D01*
X166255908Y-118407483D01*
X166306202Y-118542328D01*
X166306206Y-118542335D01*
X166392452Y-118657544D01*
X166392455Y-118657547D01*
X166507664Y-118743793D01*
X166507671Y-118743797D01*
X166642517Y-118794091D01*
X166642516Y-118794091D01*
X166649444Y-118794835D01*
X166702127Y-118800500D01*
X167398500Y-118800499D01*
X167465539Y-118820183D01*
X167511294Y-118872987D01*
X167522500Y-118924499D01*
X167522500Y-120704747D01*
X167522500Y-120795253D01*
X167557135Y-120878868D01*
X167557136Y-120878869D01*
X169371132Y-122692866D01*
X169371134Y-122692868D01*
X169435801Y-122719652D01*
X169454747Y-122727500D01*
X169545253Y-122727500D01*
X170775501Y-122727500D01*
X170842540Y-122747185D01*
X170888295Y-122799989D01*
X170899501Y-122851500D01*
X170899501Y-123000011D01*
X170910000Y-123102796D01*
X170910001Y-123102799D01*
X170946740Y-123213667D01*
X170965186Y-123269334D01*
X171057288Y-123418656D01*
X171181344Y-123542712D01*
X171330666Y-123634814D01*
X171497203Y-123689999D01*
X171599991Y-123700500D01*
X172400008Y-123700499D01*
X172400016Y-123700498D01*
X172400019Y-123700498D01*
X172456302Y-123694748D01*
X172502797Y-123689999D01*
X172669334Y-123634814D01*
X172674783Y-123631452D01*
X172742172Y-123613006D01*
X172808838Y-123633922D01*
X172809236Y-123634189D01*
X172819128Y-123640862D01*
X172871132Y-123692866D01*
X172924567Y-123714999D01*
X172954747Y-123727500D01*
X172954748Y-123727500D01*
X173045253Y-123727500D01*
X190954405Y-123727500D01*
X191021444Y-123747185D01*
X191042086Y-123763819D01*
X191317037Y-124038770D01*
X191350522Y-124100093D01*
X191345538Y-124169785D01*
X191303666Y-124225718D01*
X191238202Y-124250135D01*
X191185384Y-124242393D01*
X191039969Y-124187242D01*
X191039964Y-124187240D01*
X191039957Y-124187238D01*
X190781503Y-124123532D01*
X190781499Y-124123531D01*
X190781497Y-124123531D01*
X190517230Y-124091440D01*
X190517226Y-124091439D01*
X190517229Y-124091439D01*
X190424008Y-124091438D01*
X190424007Y-124091438D01*
X190424006Y-124091438D01*
X190424005Y-124091438D01*
X165324500Y-124091438D01*
X165257461Y-124071753D01*
X165211706Y-124018949D01*
X165200500Y-123967438D01*
X165200500Y-110460119D01*
X165200499Y-110460116D01*
X165169976Y-110386426D01*
X165113574Y-110330024D01*
X165039883Y-110299500D01*
X165039882Y-110299500D01*
X135039882Y-110299500D01*
X134960118Y-110299500D01*
X134960116Y-110299500D01*
X134886425Y-110330024D01*
X134830024Y-110386425D01*
X134799500Y-110460116D01*
X134799500Y-140175500D01*
X134779815Y-140242539D01*
X134727011Y-140288294D01*
X134675500Y-140299500D01*
X132310116Y-140299500D01*
X132236425Y-140330024D01*
X132180024Y-140386425D01*
X132149500Y-140460116D01*
X132149500Y-146375500D01*
X132129815Y-146442539D01*
X132077011Y-146488294D01*
X132025500Y-146499500D01*
X110724500Y-146499500D01*
X110657461Y-146479815D01*
X110611706Y-146427011D01*
X110600500Y-146375500D01*
X110600500Y-144519911D01*
X115875376Y-144519911D01*
X115875376Y-144763964D01*
X115905137Y-144951870D01*
X115913555Y-145005014D01*
X115977072Y-145200500D01*
X115988973Y-145237125D01*
X116099772Y-145454580D01*
X116243215Y-145652014D01*
X116243219Y-145652019D01*
X116415794Y-145824594D01*
X116415799Y-145824598D01*
X116436872Y-145839908D01*
X116613237Y-145968044D01*
X116830691Y-146078842D01*
X117062800Y-146154259D01*
X117303849Y-146192438D01*
X117303850Y-146192438D01*
X117547902Y-146192438D01*
X117547903Y-146192438D01*
X117788952Y-146154259D01*
X118021061Y-146078842D01*
X118238515Y-145968044D01*
X118435959Y-145824593D01*
X118608531Y-145652021D01*
X118751982Y-145454577D01*
X118862780Y-145237123D01*
X118938197Y-145005014D01*
X118976376Y-144763965D01*
X118976376Y-144519911D01*
X118938197Y-144278862D01*
X118862780Y-144046753D01*
X118751982Y-143829299D01*
X118717160Y-143781371D01*
X118608536Y-143631861D01*
X118608532Y-143631856D01*
X118435957Y-143459281D01*
X118435952Y-143459277D01*
X118238518Y-143315834D01*
X118238517Y-143315833D01*
X118238515Y-143315832D01*
X118021061Y-143205034D01*
X117788952Y-143129617D01*
X117788950Y-143129616D01*
X117788948Y-143129616D01*
X117620645Y-143102959D01*
X117547903Y-143091438D01*
X117303849Y-143091438D01*
X117247969Y-143100288D01*
X117062803Y-143129616D01*
X116830688Y-143205035D01*
X116613233Y-143315834D01*
X116415799Y-143459277D01*
X116415794Y-143459281D01*
X116243219Y-143631856D01*
X116243215Y-143631861D01*
X116099772Y-143829295D01*
X115988973Y-144046750D01*
X115913554Y-144278865D01*
X115875376Y-144519911D01*
X110600500Y-144519911D01*
X110600500Y-140308662D01*
X110620185Y-140241623D01*
X110672989Y-140195868D01*
X110742147Y-140185924D01*
X110805703Y-140214949D01*
X110812181Y-140220981D01*
X110955794Y-140364594D01*
X110955799Y-140364598D01*
X111087272Y-140460118D01*
X111153237Y-140508044D01*
X111370691Y-140618842D01*
X111602800Y-140694259D01*
X111843849Y-140732438D01*
X111843850Y-140732438D01*
X112087902Y-140732438D01*
X112087903Y-140732438D01*
X112328952Y-140694259D01*
X112561061Y-140618842D01*
X112778515Y-140508044D01*
X112975959Y-140364593D01*
X113148531Y-140192021D01*
X113291982Y-139994577D01*
X113402780Y-139777123D01*
X113478197Y-139545014D01*
X113516376Y-139303965D01*
X113516376Y-139059911D01*
X113478197Y-138818862D01*
X113402780Y-138586753D01*
X113291982Y-138369299D01*
X113191653Y-138231207D01*
X113148536Y-138171861D01*
X113148532Y-138171856D01*
X112975957Y-137999281D01*
X112975952Y-137999277D01*
X112778518Y-137855834D01*
X112778517Y-137855833D01*
X112778515Y-137855832D01*
X112561061Y-137745034D01*
X112328952Y-137669617D01*
X112328950Y-137669616D01*
X112328948Y-137669616D01*
X112160645Y-137642959D01*
X112087903Y-137631438D01*
X111843849Y-137631438D01*
X111787969Y-137640288D01*
X111602803Y-137669616D01*
X111370688Y-137745035D01*
X111153233Y-137855834D01*
X110955799Y-137999277D01*
X110955794Y-137999281D01*
X110812181Y-138142895D01*
X110750858Y-138176380D01*
X110681166Y-138171396D01*
X110625233Y-138129524D01*
X110600816Y-138064060D01*
X110600500Y-138055214D01*
X110600500Y-135228662D01*
X110620185Y-135161623D01*
X110672989Y-135115868D01*
X110742147Y-135105924D01*
X110805703Y-135134949D01*
X110812181Y-135140981D01*
X110955794Y-135284594D01*
X110955799Y-135284598D01*
X111128012Y-135409717D01*
X111153237Y-135428044D01*
X111370691Y-135538842D01*
X111602800Y-135614259D01*
X111843849Y-135652438D01*
X111843850Y-135652438D01*
X112087902Y-135652438D01*
X112087903Y-135652438D01*
X112328952Y-135614259D01*
X112561061Y-135538842D01*
X112778515Y-135428044D01*
X112975959Y-135284593D01*
X113148531Y-135112021D01*
X113291982Y-134914577D01*
X113402780Y-134697123D01*
X113478197Y-134465014D01*
X113516376Y-134223965D01*
X113516376Y-133979911D01*
X113478197Y-133738862D01*
X113402780Y-133506753D01*
X113313124Y-133330794D01*
X113300229Y-133262126D01*
X113326505Y-133197385D01*
X113383612Y-133157128D01*
X113423610Y-133150500D01*
X113715686Y-133150500D01*
X113715694Y-133150500D01*
X113752569Y-133147598D01*
X113752571Y-133147597D01*
X113752573Y-133147597D01*
X113794191Y-133135505D01*
X113910398Y-133101744D01*
X114051865Y-133018081D01*
X114168081Y-132901865D01*
X114251744Y-132760398D01*
X114285505Y-132644191D01*
X114297597Y-132602573D01*
X114297598Y-132602567D01*
X114300499Y-132565701D01*
X114300500Y-132565694D01*
X114300500Y-132324500D01*
X114320185Y-132257461D01*
X114372989Y-132211706D01*
X114424500Y-132200500D01*
X115364905Y-132200500D01*
X115431944Y-132220185D01*
X115452586Y-132236819D01*
X126351179Y-143135412D01*
X126384664Y-143196735D01*
X126387054Y-143231866D01*
X126387096Y-143231868D01*
X126387080Y-143232250D01*
X126387118Y-143232794D01*
X126387001Y-143234281D01*
X126387000Y-143234313D01*
X126387000Y-143665701D01*
X126389901Y-143702567D01*
X126389902Y-143702573D01*
X126435754Y-143860393D01*
X126435755Y-143860396D01*
X126435756Y-143860398D01*
X126473181Y-143923681D01*
X126519417Y-144001862D01*
X126519423Y-144001870D01*
X126578372Y-144060819D01*
X126611857Y-144122142D01*
X126606873Y-144191834D01*
X126565001Y-144247767D01*
X126499537Y-144272184D01*
X126490691Y-144272500D01*
X124106221Y-144272500D01*
X124039182Y-144252815D01*
X123993427Y-144200011D01*
X123988290Y-144186818D01*
X123987471Y-144184298D01*
X123942780Y-144046753D01*
X123831982Y-143829299D01*
X123797160Y-143781371D01*
X123688536Y-143631861D01*
X123688532Y-143631856D01*
X123515957Y-143459281D01*
X123515952Y-143459277D01*
X123318518Y-143315834D01*
X123318517Y-143315833D01*
X123318515Y-143315832D01*
X123101061Y-143205034D01*
X122868952Y-143129617D01*
X122868950Y-143129616D01*
X122868948Y-143129616D01*
X122700645Y-143102959D01*
X122627903Y-143091438D01*
X122383849Y-143091438D01*
X122327969Y-143100288D01*
X122142803Y-143129616D01*
X121910688Y-143205035D01*
X121693233Y-143315834D01*
X121495799Y-143459277D01*
X121495794Y-143459281D01*
X121323219Y-143631856D01*
X121323215Y-143631861D01*
X121179772Y-143829295D01*
X121068973Y-144046750D01*
X120993554Y-144278865D01*
X120955376Y-144519911D01*
X120955376Y-144763964D01*
X120985137Y-144951870D01*
X120993555Y-145005014D01*
X121057072Y-145200500D01*
X121068973Y-145237125D01*
X121179772Y-145454580D01*
X121323215Y-145652014D01*
X121323219Y-145652019D01*
X121495794Y-145824594D01*
X121495799Y-145824598D01*
X121516872Y-145839908D01*
X121693237Y-145968044D01*
X121910691Y-146078842D01*
X122142800Y-146154259D01*
X122383849Y-146192438D01*
X122383850Y-146192438D01*
X122627902Y-146192438D01*
X122627903Y-146192438D01*
X122868952Y-146154259D01*
X123101061Y-146078842D01*
X123318515Y-145968044D01*
X123515959Y-145824593D01*
X123688531Y-145652021D01*
X123831982Y-145454577D01*
X123942780Y-145237123D01*
X124018197Y-145005014D01*
X124045584Y-144832102D01*
X124075513Y-144768967D01*
X124134825Y-144732036D01*
X124168057Y-144727500D01*
X128193570Y-144727500D01*
X128260609Y-144747185D01*
X128306364Y-144799989D01*
X128307582Y-144803268D01*
X128307657Y-144803236D01*
X128310756Y-144810399D01*
X128394417Y-144951862D01*
X128394423Y-144951870D01*
X128510629Y-145068076D01*
X128510633Y-145068079D01*
X128510635Y-145068081D01*
X128652102Y-145151744D01*
X128693724Y-145163836D01*
X128809926Y-145197597D01*
X128809929Y-145197597D01*
X128809931Y-145197598D01*
X128846806Y-145200500D01*
X128846814Y-145200500D01*
X130153186Y-145200500D01*
X130153194Y-145200500D01*
X130190069Y-145197598D01*
X130190071Y-145197597D01*
X130190073Y-145197597D01*
X130231691Y-145185505D01*
X130347898Y-145151744D01*
X130489365Y-145068081D01*
X130605581Y-144951865D01*
X130689244Y-144810398D01*
X130735098Y-144652569D01*
X130738000Y-144615694D01*
X130738000Y-144184306D01*
X130735098Y-144147431D01*
X130722333Y-144103495D01*
X130689245Y-143989606D01*
X130689244Y-143989603D01*
X130689244Y-143989602D01*
X130605581Y-143848135D01*
X130605579Y-143848133D01*
X130605576Y-143848129D01*
X130489370Y-143731923D01*
X130489362Y-143731917D01*
X130347896Y-143648255D01*
X130347893Y-143648254D01*
X130190073Y-143602402D01*
X130190067Y-143602401D01*
X130153201Y-143599500D01*
X130153194Y-143599500D01*
X128987000Y-143599500D01*
X128978314Y-143596949D01*
X128969353Y-143598238D01*
X128945312Y-143587259D01*
X128919961Y-143579815D01*
X128914033Y-143572974D01*
X128905797Y-143569213D01*
X128891507Y-143546978D01*
X128874206Y-143527011D01*
X128871918Y-143516496D01*
X128868023Y-143510435D01*
X128863000Y-143475500D01*
X128863000Y-143424500D01*
X128882685Y-143357461D01*
X128935489Y-143311706D01*
X128987000Y-143300500D01*
X130153186Y-143300500D01*
X130153194Y-143300500D01*
X130190069Y-143297598D01*
X130190071Y-143297597D01*
X130190073Y-143297597D01*
X130231691Y-143285505D01*
X130347898Y-143251744D01*
X130489365Y-143168081D01*
X130605581Y-143051865D01*
X130689244Y-142910398D01*
X130735098Y-142752569D01*
X130738000Y-142715694D01*
X130738000Y-142284306D01*
X130735098Y-142247431D01*
X130709696Y-142159999D01*
X130693238Y-142103350D01*
X130689244Y-142089602D01*
X130605581Y-141948135D01*
X130605579Y-141948133D01*
X130605576Y-141948129D01*
X130489370Y-141831923D01*
X130489362Y-141831917D01*
X130380233Y-141767379D01*
X130347898Y-141748256D01*
X130347897Y-141748255D01*
X130347896Y-141748255D01*
X130347893Y-141748254D01*
X130190073Y-141702402D01*
X130190067Y-141702401D01*
X130153201Y-141699500D01*
X130153194Y-141699500D01*
X129072596Y-141699500D01*
X129005557Y-141679815D01*
X128984915Y-141663181D01*
X125723819Y-138402085D01*
X125709115Y-138375157D01*
X125692523Y-138349339D01*
X125691631Y-138343138D01*
X125690334Y-138340762D01*
X125687500Y-138314404D01*
X125687500Y-138276233D01*
X125707185Y-138209194D01*
X125759989Y-138163439D01*
X125784390Y-138156086D01*
X125784224Y-138155394D01*
X125788952Y-138154259D01*
X126021061Y-138078842D01*
X126238515Y-137968044D01*
X126435959Y-137824593D01*
X126608531Y-137652021D01*
X126751982Y-137454577D01*
X126862780Y-137237123D01*
X126938197Y-137005014D01*
X126976376Y-136763965D01*
X126976376Y-136519911D01*
X128955376Y-136519911D01*
X128955376Y-136763964D01*
X128992760Y-137000000D01*
X128993555Y-137005014D01*
X129068972Y-137237123D01*
X129153661Y-137403336D01*
X129179772Y-137454580D01*
X129323215Y-137652014D01*
X129323219Y-137652019D01*
X129495794Y-137824594D01*
X129495799Y-137824598D01*
X129668012Y-137949717D01*
X129693237Y-137968044D01*
X129910691Y-138078842D01*
X130142800Y-138154259D01*
X130383849Y-138192438D01*
X130383850Y-138192438D01*
X130627902Y-138192438D01*
X130627903Y-138192438D01*
X130868952Y-138154259D01*
X131101061Y-138078842D01*
X131318515Y-137968044D01*
X131515959Y-137824593D01*
X131688531Y-137652021D01*
X131831982Y-137454577D01*
X131942780Y-137237123D01*
X132018197Y-137005014D01*
X132056376Y-136763965D01*
X132056376Y-136519911D01*
X132018197Y-136278862D01*
X131942780Y-136046753D01*
X131831982Y-135829299D01*
X131754807Y-135723076D01*
X131688536Y-135631861D01*
X131688532Y-135631856D01*
X131515957Y-135459281D01*
X131515952Y-135459277D01*
X131318518Y-135315834D01*
X131318517Y-135315833D01*
X131318515Y-135315832D01*
X131101061Y-135205034D01*
X130868952Y-135129617D01*
X130868950Y-135129616D01*
X130868948Y-135129616D01*
X130700645Y-135102959D01*
X130627903Y-135091438D01*
X130383849Y-135091438D01*
X130327969Y-135100288D01*
X130142803Y-135129616D01*
X129910688Y-135205035D01*
X129693233Y-135315834D01*
X129495799Y-135459277D01*
X129495794Y-135459281D01*
X129323219Y-135631856D01*
X129323215Y-135631861D01*
X129179772Y-135829295D01*
X129068973Y-136046750D01*
X128993554Y-136278865D01*
X128955376Y-136519911D01*
X126976376Y-136519911D01*
X126938197Y-136278862D01*
X126862780Y-136046753D01*
X126751982Y-135829299D01*
X126674807Y-135723076D01*
X126608536Y-135631861D01*
X126608532Y-135631856D01*
X126435957Y-135459281D01*
X126435952Y-135459277D01*
X126238518Y-135315834D01*
X126238517Y-135315833D01*
X126238515Y-135315832D01*
X126021061Y-135205034D01*
X125788952Y-135129617D01*
X125788950Y-135129616D01*
X125788948Y-135129616D01*
X125620645Y-135102959D01*
X125547903Y-135091438D01*
X125303849Y-135091438D01*
X125247969Y-135100288D01*
X125062803Y-135129616D01*
X124830688Y-135205035D01*
X124613233Y-135315834D01*
X124415799Y-135459277D01*
X124415794Y-135459281D01*
X124330181Y-135544895D01*
X124268858Y-135578380D01*
X124199166Y-135573396D01*
X124143233Y-135531524D01*
X124118816Y-135466060D01*
X124118500Y-135457214D01*
X124118500Y-124569365D01*
X124138185Y-124502326D01*
X124190989Y-124456571D01*
X124260147Y-124446627D01*
X124281490Y-124451655D01*
X124397203Y-124489999D01*
X124499991Y-124500500D01*
X125300008Y-124500499D01*
X125300016Y-124500498D01*
X125300019Y-124500498D01*
X125356302Y-124494748D01*
X125402797Y-124489999D01*
X125569334Y-124434814D01*
X125718656Y-124342712D01*
X125842712Y-124218656D01*
X125934814Y-124069334D01*
X125989999Y-123902797D01*
X126000500Y-123800009D01*
X126000500Y-123651500D01*
X126020185Y-123584461D01*
X126072989Y-123538706D01*
X126124500Y-123527500D01*
X126562668Y-123527500D01*
X126562669Y-123527500D01*
X126646284Y-123492865D01*
X126646286Y-123492863D01*
X126646287Y-123492863D01*
X132930362Y-117208787D01*
X132930365Y-117208784D01*
X132933796Y-117200500D01*
X132965000Y-117125169D01*
X132965000Y-116524500D01*
X132984685Y-116457461D01*
X133037489Y-116411706D01*
X133089000Y-116400500D01*
X133390686Y-116400500D01*
X133390694Y-116400500D01*
X133427569Y-116397598D01*
X133427571Y-116397597D01*
X133427573Y-116397597D01*
X133488857Y-116379792D01*
X133585398Y-116351744D01*
X133726865Y-116268081D01*
X133843081Y-116151865D01*
X133926744Y-116010398D01*
X133972598Y-115852569D01*
X133975500Y-115815694D01*
X133975500Y-115384306D01*
X133972598Y-115347431D01*
X133964954Y-115321122D01*
X133926745Y-115189606D01*
X133926744Y-115189603D01*
X133926744Y-115189602D01*
X133843081Y-115048135D01*
X133843079Y-115048133D01*
X133843076Y-115048129D01*
X133726870Y-114931923D01*
X133726862Y-114931917D01*
X133648681Y-114885681D01*
X133585398Y-114848256D01*
X133585397Y-114848255D01*
X133585396Y-114848255D01*
X133585393Y-114848254D01*
X133427573Y-114802402D01*
X133427567Y-114802401D01*
X133390701Y-114799500D01*
X133390694Y-114799500D01*
X132623500Y-114799500D01*
X132556461Y-114779815D01*
X132510706Y-114727011D01*
X132499500Y-114675500D01*
X132499500Y-112173538D01*
X132519185Y-112106499D01*
X132571989Y-112060744D01*
X132641147Y-112050800D01*
X132647691Y-112051921D01*
X132714483Y-112065206D01*
X132766230Y-112075499D01*
X132766232Y-112075500D01*
X132766233Y-112075500D01*
X132933768Y-112075500D01*
X132933769Y-112075499D01*
X133098082Y-112042816D01*
X133252863Y-111978703D01*
X133392162Y-111885626D01*
X133510626Y-111767162D01*
X133603703Y-111627863D01*
X133667816Y-111473082D01*
X133700500Y-111308767D01*
X133700500Y-111141233D01*
X133667816Y-110976918D01*
X133626883Y-110878100D01*
X133619415Y-110808632D01*
X133650690Y-110746153D01*
X133653735Y-110742996D01*
X136430470Y-107966262D01*
X136491791Y-107932779D01*
X136561483Y-107937763D01*
X136565550Y-107939363D01*
X136664418Y-107980316D01*
X136828728Y-108012999D01*
X136828732Y-108013000D01*
X136828733Y-108013000D01*
X136996268Y-108013000D01*
X136996269Y-108012999D01*
X137160582Y-107980316D01*
X137315363Y-107916203D01*
X137454662Y-107823126D01*
X137573126Y-107704662D01*
X137666203Y-107565363D01*
X137730316Y-107410582D01*
X137763000Y-107246267D01*
X137763000Y-107078733D01*
X137730316Y-106914418D01*
X137689383Y-106815600D01*
X137681915Y-106746132D01*
X137713190Y-106683653D01*
X137716236Y-106680495D01*
X138302707Y-106094024D01*
X138364028Y-106060541D01*
X138433720Y-106065525D01*
G37*
%TD.AperFunction*%
%TA.AperFunction,Conductor*%
G36*
X123600475Y-129852790D02*
G01*
X123649170Y-129902895D01*
X123663500Y-129960762D01*
X123663500Y-137309609D01*
X123663500Y-137400115D01*
X123686060Y-137454580D01*
X123698136Y-137483732D01*
X127361181Y-141146776D01*
X127394666Y-141208099D01*
X127397500Y-141234457D01*
X127397500Y-142525500D01*
X127377815Y-142592539D01*
X127325011Y-142638294D01*
X127273500Y-142649500D01*
X126971798Y-142649500D01*
X126934932Y-142652401D01*
X126934926Y-142652402D01*
X126777103Y-142698254D01*
X126721887Y-142730908D01*
X126654163Y-142748088D01*
X126587901Y-142725927D01*
X126571088Y-142711855D01*
X116014770Y-132155537D01*
X115981285Y-132094214D01*
X115986269Y-132024522D01*
X116014767Y-131980177D01*
X116043081Y-131951865D01*
X116126744Y-131810398D01*
X116172598Y-131652569D01*
X116175500Y-131615694D01*
X116175500Y-131184306D01*
X116172598Y-131147431D01*
X116171072Y-131142180D01*
X116126745Y-130989606D01*
X116126744Y-130989603D01*
X116126744Y-130989602D01*
X116052831Y-130864621D01*
X116035648Y-130796897D01*
X116057808Y-130730634D01*
X116112274Y-130686871D01*
X116159563Y-130677500D01*
X120635252Y-130677500D01*
X120635253Y-130677500D01*
X120718868Y-130642865D01*
X121444855Y-129916876D01*
X121506176Y-129883393D01*
X121575867Y-129888377D01*
X121605416Y-129904239D01*
X121693237Y-129968044D01*
X121910691Y-130078842D01*
X122142800Y-130154259D01*
X122383849Y-130192438D01*
X122383850Y-130192438D01*
X122627902Y-130192438D01*
X122627903Y-130192438D01*
X122868952Y-130154259D01*
X123101061Y-130078842D01*
X123318515Y-129968044D01*
X123428168Y-129888377D01*
X123466615Y-129860444D01*
X123532421Y-129836964D01*
X123600475Y-129852790D01*
G37*
%TD.AperFunction*%
%TA.AperFunction,Conductor*%
G36*
X196281703Y-131073084D02*
G01*
X196312884Y-131114396D01*
X196315184Y-131119330D01*
X196315186Y-131119334D01*
X196407288Y-131268656D01*
X196531344Y-131392712D01*
X196680666Y-131484814D01*
X196847203Y-131539999D01*
X196949991Y-131550500D01*
X197750008Y-131550499D01*
X197750016Y-131550498D01*
X197750019Y-131550498D01*
X197806302Y-131544748D01*
X197852797Y-131539999D01*
X198019334Y-131484814D01*
X198168656Y-131392712D01*
X198262319Y-131299049D01*
X198323642Y-131265564D01*
X198393334Y-131270548D01*
X198437681Y-131299049D01*
X198531344Y-131392712D01*
X198680666Y-131484814D01*
X198847203Y-131539999D01*
X198949991Y-131550500D01*
X199750008Y-131550499D01*
X199848654Y-131540422D01*
X199917347Y-131553192D01*
X199965234Y-131598251D01*
X199965913Y-131597798D01*
X199967878Y-131600739D01*
X199968232Y-131601072D01*
X199968911Y-131602286D01*
X200062373Y-131742162D01*
X200180837Y-131860626D01*
X200213212Y-131882258D01*
X200320137Y-131953703D01*
X200320138Y-131953703D01*
X200320139Y-131953704D01*
X200393364Y-131984035D01*
X200397593Y-131987443D01*
X200402926Y-131988481D01*
X200424507Y-132009131D01*
X200447767Y-132027876D01*
X200450526Y-132034029D01*
X200453407Y-132036786D01*
X200461853Y-132059287D01*
X200466467Y-132069575D01*
X200467047Y-132071986D01*
X200482184Y-132148082D01*
X200489780Y-132166422D01*
X200492056Y-132175873D01*
X200491592Y-132185250D01*
X200495500Y-132204894D01*
X200495500Y-136177747D01*
X200495500Y-136268253D01*
X200529857Y-136351198D01*
X200530136Y-136351870D01*
X201334577Y-137156310D01*
X201368062Y-137217633D01*
X201370254Y-137256593D01*
X201359500Y-137361852D01*
X201359500Y-137961872D01*
X201359501Y-137961890D01*
X201370000Y-138064667D01*
X201370001Y-138064670D01*
X201405521Y-138171861D01*
X201425186Y-138231205D01*
X201517288Y-138380527D01*
X201641344Y-138504583D01*
X201790666Y-138596685D01*
X201845749Y-138614937D01*
X201903193Y-138654710D01*
X201930016Y-138719226D01*
X201917701Y-138788001D01*
X201870158Y-138839201D01*
X201864157Y-138842551D01*
X201826592Y-138862173D01*
X201668890Y-138990761D01*
X201540304Y-139148461D01*
X201540302Y-139148464D01*
X201496730Y-139231879D01*
X201446089Y-139328825D01*
X201418556Y-139425051D01*
X201394782Y-139508142D01*
X201388493Y-139530120D01*
X201387238Y-139529761D01*
X201358606Y-139586199D01*
X201298325Y-139621525D01*
X201228514Y-139618654D01*
X201180628Y-139588894D01*
X198176393Y-136584659D01*
X198142908Y-136523336D01*
X198147892Y-136453644D01*
X198153589Y-136440683D01*
X198155048Y-136437820D01*
X198155051Y-136437816D01*
X198251557Y-136248412D01*
X198317246Y-136046243D01*
X198350500Y-135836287D01*
X198350500Y-135623713D01*
X198317246Y-135413757D01*
X198251557Y-135211588D01*
X198155051Y-135022184D01*
X198155049Y-135022181D01*
X198155048Y-135022179D01*
X198030109Y-134850213D01*
X197879786Y-134699890D01*
X197707820Y-134574951D01*
X197707115Y-134574591D01*
X197699054Y-134570485D01*
X197648259Y-134522512D01*
X197631463Y-134454692D01*
X197653999Y-134388556D01*
X197699054Y-134349515D01*
X197707816Y-134345051D01*
X197832216Y-134254670D01*
X197879786Y-134220109D01*
X197879788Y-134220106D01*
X197879792Y-134220104D01*
X198030104Y-134069792D01*
X198030106Y-134069788D01*
X198030109Y-134069786D01*
X198155048Y-133897820D01*
X198155047Y-133897820D01*
X198155051Y-133897816D01*
X198251557Y-133708412D01*
X198317246Y-133506243D01*
X198350500Y-133296287D01*
X198350500Y-133083713D01*
X198317246Y-132873757D01*
X198251557Y-132671588D01*
X198155051Y-132482184D01*
X198155049Y-132482181D01*
X198155048Y-132482179D01*
X198030109Y-132310213D01*
X197879786Y-132159890D01*
X197707820Y-132034951D01*
X197518414Y-131938444D01*
X197518413Y-131938443D01*
X197518412Y-131938443D01*
X197316243Y-131872754D01*
X197316241Y-131872753D01*
X197316240Y-131872753D01*
X197154957Y-131847208D01*
X197106287Y-131839500D01*
X196893713Y-131839500D01*
X196845042Y-131847208D01*
X196683760Y-131872753D01*
X196481585Y-131938444D01*
X196292180Y-132034950D01*
X196273384Y-132048607D01*
X196207577Y-132072086D01*
X196139523Y-132056260D01*
X196090829Y-132006153D01*
X196076500Y-131948288D01*
X196076500Y-131166797D01*
X196096185Y-131099758D01*
X196148989Y-131054003D01*
X196218147Y-131044059D01*
X196281703Y-131073084D01*
G37*
%TD.AperFunction*%
%TA.AperFunction,Conductor*%
G36*
X115149833Y-102513965D02*
G01*
X115179223Y-102577353D01*
X115180549Y-102598784D01*
X115180318Y-102608117D01*
X115179226Y-102652019D01*
X115213866Y-102823306D01*
X115213867Y-102823308D01*
X115285749Y-102982586D01*
X115285749Y-102982587D01*
X115352573Y-103070794D01*
X115391281Y-103121887D01*
X115397907Y-103127446D01*
X115499069Y-103212319D01*
X115525160Y-103234208D01*
X115680676Y-103313923D01*
X115718257Y-103323489D01*
X115778369Y-103359101D01*
X115809685Y-103421560D01*
X115810507Y-103460599D01*
X115730359Y-104041695D01*
X116605271Y-104162368D01*
X116620467Y-104177564D01*
X116688876Y-104217060D01*
X116765176Y-104237504D01*
X116844168Y-104237504D01*
X116920468Y-104217060D01*
X116936151Y-104208005D01*
X117810665Y-104328622D01*
X117890813Y-103747528D01*
X117919473Y-103683806D01*
X117978033Y-103645695D01*
X118016729Y-103640508D01*
X118055506Y-103641473D01*
X118226795Y-103606832D01*
X118253981Y-103594563D01*
X118392428Y-103532083D01*
X118393056Y-103533475D01*
X118452839Y-103518172D01*
X118519149Y-103540190D01*
X118563028Y-103594563D01*
X118572500Y-103642096D01*
X118572500Y-104004747D01*
X118572500Y-104095253D01*
X118603081Y-104169082D01*
X118607136Y-104178870D01*
X121807135Y-107378868D01*
X121871132Y-107442865D01*
X121954747Y-107477500D01*
X132437543Y-107477500D01*
X132504582Y-107497185D01*
X132550337Y-107549989D01*
X132560281Y-107619147D01*
X132531256Y-107682703D01*
X132525224Y-107689181D01*
X128537695Y-111676710D01*
X128476372Y-111710195D01*
X128450014Y-111713029D01*
X124270514Y-111713029D01*
X124203475Y-111693344D01*
X124157720Y-111640540D01*
X124147776Y-111571382D01*
X124176801Y-111507826D01*
X124182826Y-111501355D01*
X124392866Y-111291316D01*
X124392866Y-111291314D01*
X124392868Y-111291313D01*
X124414234Y-111239728D01*
X124427500Y-111207701D01*
X124427500Y-111117195D01*
X124427500Y-110424499D01*
X124447185Y-110357460D01*
X124499989Y-110311705D01*
X124551500Y-110300499D01*
X124600002Y-110300499D01*
X124600008Y-110300499D01*
X124702797Y-110289999D01*
X124869334Y-110234814D01*
X125018656Y-110142712D01*
X125142712Y-110018656D01*
X125234814Y-109869334D01*
X125289999Y-109702797D01*
X125300500Y-109600009D01*
X125300499Y-108599992D01*
X125299487Y-108590089D01*
X125289999Y-108497203D01*
X125289998Y-108497200D01*
X125259364Y-108404754D01*
X125234814Y-108330666D01*
X125142712Y-108181344D01*
X125018656Y-108057288D01*
X124925888Y-108000069D01*
X124869336Y-107965187D01*
X124869331Y-107965185D01*
X124867862Y-107964698D01*
X124702797Y-107910001D01*
X124702795Y-107910000D01*
X124600010Y-107899500D01*
X123799998Y-107899500D01*
X123799980Y-107899501D01*
X123697203Y-107910000D01*
X123697200Y-107910001D01*
X123530668Y-107965185D01*
X123530663Y-107965187D01*
X123381342Y-108057289D01*
X123287681Y-108150951D01*
X123226358Y-108184436D01*
X123156666Y-108179452D01*
X123112319Y-108150951D01*
X123018657Y-108057289D01*
X123018656Y-108057288D01*
X122925888Y-108000069D01*
X122869336Y-107965187D01*
X122869331Y-107965185D01*
X122867862Y-107964698D01*
X122702797Y-107910001D01*
X122702795Y-107910000D01*
X122600010Y-107899500D01*
X121799998Y-107899500D01*
X121799980Y-107899501D01*
X121697203Y-107910000D01*
X121697200Y-107910001D01*
X121530668Y-107965185D01*
X121530663Y-107965187D01*
X121381342Y-108057289D01*
X121257289Y-108181342D01*
X121165187Y-108330663D01*
X121165185Y-108330668D01*
X121148269Y-108381718D01*
X121110001Y-108497203D01*
X121110001Y-108497204D01*
X121110000Y-108497204D01*
X121099500Y-108599983D01*
X121099500Y-109600001D01*
X121099501Y-109600019D01*
X121110000Y-109702796D01*
X121110001Y-109702799D01*
X121141278Y-109797185D01*
X121165186Y-109869334D01*
X121257288Y-110018656D01*
X121381344Y-110142712D01*
X121530666Y-110234814D01*
X121697203Y-110289999D01*
X121799991Y-110300500D01*
X121848500Y-110300499D01*
X121915537Y-110320182D01*
X121961293Y-110372985D01*
X121972500Y-110424499D01*
X121972500Y-112358715D01*
X121952815Y-112425754D01*
X121900011Y-112471509D01*
X121830853Y-112481453D01*
X121767297Y-112452428D01*
X121738015Y-112415010D01*
X121688896Y-112318609D01*
X121655051Y-112252184D01*
X121655049Y-112252181D01*
X121655048Y-112252179D01*
X121530109Y-112080213D01*
X121379786Y-111929890D01*
X121207820Y-111804951D01*
X121018414Y-111708444D01*
X121018413Y-111708443D01*
X121018412Y-111708443D01*
X120816243Y-111642754D01*
X120816241Y-111642753D01*
X120816240Y-111642753D01*
X120654957Y-111617208D01*
X120606287Y-111609500D01*
X120393713Y-111609500D01*
X120345042Y-111617208D01*
X120183760Y-111642753D01*
X119981585Y-111708444D01*
X119792179Y-111804951D01*
X119620213Y-111929890D01*
X119469890Y-112080213D01*
X119344951Y-112252179D01*
X119248444Y-112441585D01*
X119182753Y-112643760D01*
X119156877Y-112807134D01*
X119149500Y-112853713D01*
X119149500Y-113066287D01*
X119159534Y-113129644D01*
X119182118Y-113272232D01*
X119182754Y-113276243D01*
X119237771Y-113445568D01*
X119248444Y-113478414D01*
X119344951Y-113667820D01*
X119469890Y-113839786D01*
X119620213Y-113990109D01*
X119792182Y-114115050D01*
X119800946Y-114119516D01*
X119851742Y-114167491D01*
X119868536Y-114235312D01*
X119845998Y-114301447D01*
X119800946Y-114340484D01*
X119792182Y-114344949D01*
X119620213Y-114469890D01*
X119469890Y-114620213D01*
X119344951Y-114792179D01*
X119248444Y-114981585D01*
X119248443Y-114981587D01*
X119248443Y-114981588D01*
X119245913Y-114989374D01*
X119182753Y-115183760D01*
X119149500Y-115393713D01*
X119149500Y-115606286D01*
X119182665Y-115815686D01*
X119182754Y-115816243D01*
X119245838Y-116010396D01*
X119248444Y-116018414D01*
X119344951Y-116207820D01*
X119469890Y-116379786D01*
X119620213Y-116530109D01*
X119792182Y-116655050D01*
X119800946Y-116659516D01*
X119851742Y-116707491D01*
X119868536Y-116775312D01*
X119845998Y-116841447D01*
X119800946Y-116880484D01*
X119792182Y-116884949D01*
X119620213Y-117009890D01*
X119469890Y-117160213D01*
X119344951Y-117332179D01*
X119248444Y-117521585D01*
X119182753Y-117723760D01*
X119149500Y-117933713D01*
X119149500Y-118146286D01*
X119181428Y-118347876D01*
X119182754Y-118356243D01*
X119246544Y-118552569D01*
X119248444Y-118558414D01*
X119344951Y-118747820D01*
X119469890Y-118919786D01*
X119583818Y-119033714D01*
X119617303Y-119095037D01*
X119612319Y-119164729D01*
X119570447Y-119220662D01*
X119539471Y-119237577D01*
X119407912Y-119286646D01*
X119407906Y-119286649D01*
X119292812Y-119372809D01*
X119292809Y-119372812D01*
X119206649Y-119487906D01*
X119206645Y-119487913D01*
X119156403Y-119622620D01*
X119156401Y-119622627D01*
X119150000Y-119682155D01*
X119150000Y-120330000D01*
X120066988Y-120330000D01*
X120034075Y-120387007D01*
X120000000Y-120514174D01*
X120000000Y-120645826D01*
X120034075Y-120772993D01*
X120066988Y-120830000D01*
X119150000Y-120830000D01*
X119150000Y-121477844D01*
X119156401Y-121537372D01*
X119156403Y-121537379D01*
X119206645Y-121672086D01*
X119206649Y-121672093D01*
X119292809Y-121787187D01*
X119292812Y-121787190D01*
X119407906Y-121873350D01*
X119407913Y-121873354D01*
X119542620Y-121923596D01*
X119542627Y-121923598D01*
X119602155Y-121929999D01*
X119602172Y-121930000D01*
X120250000Y-121930000D01*
X120250000Y-121013012D01*
X120307007Y-121045925D01*
X120434174Y-121080000D01*
X120565826Y-121080000D01*
X120692993Y-121045925D01*
X120750000Y-121013012D01*
X120750000Y-121930000D01*
X121397828Y-121930000D01*
X121397844Y-121929999D01*
X121457372Y-121923598D01*
X121457379Y-121923596D01*
X121592086Y-121873354D01*
X121592093Y-121873350D01*
X121707187Y-121787190D01*
X121707190Y-121787187D01*
X121793350Y-121672093D01*
X121793354Y-121672086D01*
X121843596Y-121537379D01*
X121843598Y-121537372D01*
X121849999Y-121477844D01*
X121850000Y-121477827D01*
X121850000Y-120830000D01*
X120933012Y-120830000D01*
X120965925Y-120772993D01*
X121000000Y-120645826D01*
X121000000Y-120514174D01*
X120965925Y-120387007D01*
X120933012Y-120330000D01*
X121850000Y-120330000D01*
X121850000Y-119682172D01*
X121849999Y-119682155D01*
X121843598Y-119622627D01*
X121843596Y-119622620D01*
X121793354Y-119487913D01*
X121793350Y-119487906D01*
X121707190Y-119372812D01*
X121707187Y-119372809D01*
X121592093Y-119286649D01*
X121592088Y-119286646D01*
X121460528Y-119237577D01*
X121404595Y-119195705D01*
X121380178Y-119130241D01*
X121395030Y-119061968D01*
X121416175Y-119033720D01*
X121530104Y-118919792D01*
X121655051Y-118747816D01*
X121751557Y-118558412D01*
X121817246Y-118356243D01*
X121850500Y-118146287D01*
X121850500Y-117933713D01*
X121817246Y-117723757D01*
X121751557Y-117521588D01*
X121655051Y-117332184D01*
X121655049Y-117332181D01*
X121655048Y-117332179D01*
X121636896Y-117307195D01*
X121613415Y-117241389D01*
X121629240Y-117173335D01*
X121679345Y-117124640D01*
X121747823Y-117110764D01*
X121812932Y-117136112D01*
X121824894Y-117146628D01*
X122408181Y-117729914D01*
X122441666Y-117791237D01*
X122444500Y-117817595D01*
X122444500Y-122004787D01*
X122424815Y-122071826D01*
X122372011Y-122117581D01*
X122359505Y-122122493D01*
X122230666Y-122165186D01*
X122230663Y-122165187D01*
X122081342Y-122257289D01*
X121957289Y-122381342D01*
X121865187Y-122530663D01*
X121865185Y-122530668D01*
X121853332Y-122566438D01*
X121810001Y-122697203D01*
X121810001Y-122697204D01*
X121810000Y-122697204D01*
X121799500Y-122799983D01*
X121799500Y-123800001D01*
X121799501Y-123800019D01*
X121810000Y-123902796D01*
X121810001Y-123902799D01*
X121840963Y-123996234D01*
X121865186Y-124069334D01*
X121957288Y-124218656D01*
X122081344Y-124342712D01*
X122230666Y-124434814D01*
X122397203Y-124489999D01*
X122499991Y-124500500D01*
X123300008Y-124500499D01*
X123300016Y-124500498D01*
X123300019Y-124500498D01*
X123356302Y-124494748D01*
X123402797Y-124489999D01*
X123500498Y-124457623D01*
X123570323Y-124455222D01*
X123630366Y-124490953D01*
X123661559Y-124553473D01*
X123663500Y-124575330D01*
X123663500Y-127323113D01*
X123643815Y-127390152D01*
X123591011Y-127435907D01*
X123521853Y-127445851D01*
X123466615Y-127423432D01*
X123318514Y-127315831D01*
X123101063Y-127205035D01*
X123101062Y-127205034D01*
X123101061Y-127205034D01*
X122868952Y-127129617D01*
X122868950Y-127129616D01*
X122868948Y-127129616D01*
X122700645Y-127102959D01*
X122627903Y-127091438D01*
X122383849Y-127091438D01*
X122327969Y-127100288D01*
X122142803Y-127129616D01*
X121910688Y-127205035D01*
X121693233Y-127315834D01*
X121495799Y-127459277D01*
X121495794Y-127459281D01*
X121323219Y-127631856D01*
X121323215Y-127631861D01*
X121179772Y-127829295D01*
X121068973Y-128046750D01*
X120993554Y-128278865D01*
X120988904Y-128308224D01*
X120955376Y-128519911D01*
X120955376Y-128763965D01*
X120993555Y-129005014D01*
X121062939Y-129218556D01*
X121068973Y-129237125D01*
X121167195Y-129429898D01*
X121180091Y-129498568D01*
X121153814Y-129563308D01*
X121144391Y-129573874D01*
X120532086Y-130186181D01*
X120470763Y-130219666D01*
X120444405Y-130222500D01*
X118255614Y-130222500D01*
X118188575Y-130202815D01*
X118142820Y-130150011D01*
X118132876Y-130080853D01*
X118161901Y-130017297D01*
X118199320Y-129988015D01*
X118211171Y-129981976D01*
X118238515Y-129968044D01*
X118435959Y-129824593D01*
X118608531Y-129652021D01*
X118751982Y-129454577D01*
X118862780Y-129237123D01*
X118938197Y-129005014D01*
X118976376Y-128763965D01*
X118976376Y-128519911D01*
X118938197Y-128278862D01*
X118862780Y-128046753D01*
X118751982Y-127829299D01*
X118695761Y-127751917D01*
X118608536Y-127631861D01*
X118608532Y-127631856D01*
X118435957Y-127459281D01*
X118435952Y-127459277D01*
X118238518Y-127315834D01*
X118238517Y-127315833D01*
X118238515Y-127315832D01*
X118021061Y-127205034D01*
X117788952Y-127129617D01*
X117788950Y-127129616D01*
X117788948Y-127129616D01*
X117620645Y-127102959D01*
X117547903Y-127091438D01*
X117303849Y-127091438D01*
X117247969Y-127100288D01*
X117062803Y-127129616D01*
X116830688Y-127205035D01*
X116613233Y-127315834D01*
X116415799Y-127459277D01*
X116415794Y-127459281D01*
X116243219Y-127631856D01*
X116243215Y-127631861D01*
X116099771Y-127829295D01*
X116070391Y-127886956D01*
X116022415Y-127937751D01*
X115954594Y-127954545D01*
X115888460Y-127932006D01*
X115845009Y-127877290D01*
X115838292Y-127854859D01*
X115817816Y-127751918D01*
X115753703Y-127597137D01*
X115661592Y-127459283D01*
X115660626Y-127457837D01*
X115542162Y-127339373D01*
X115402860Y-127246295D01*
X115248082Y-127182184D01*
X115248074Y-127182182D01*
X115083771Y-127149500D01*
X115083767Y-127149500D01*
X114916233Y-127149500D01*
X114916228Y-127149500D01*
X114751925Y-127182182D01*
X114751917Y-127182184D01*
X114597139Y-127246295D01*
X114457837Y-127339373D01*
X114339373Y-127457837D01*
X114246295Y-127597139D01*
X114182184Y-127751917D01*
X114182182Y-127751925D01*
X114149500Y-127916228D01*
X114149500Y-128083771D01*
X114182182Y-128248074D01*
X114182184Y-128248082D01*
X114246295Y-128402860D01*
X114339373Y-128542162D01*
X114457837Y-128660626D01*
X114503607Y-128691208D01*
X114597137Y-128753703D01*
X114751918Y-128817816D01*
X114916228Y-128850499D01*
X114916232Y-128850500D01*
X114916233Y-128850500D01*
X115083768Y-128850500D01*
X115083769Y-128850499D01*
X115248082Y-128817816D01*
X115402863Y-128753703D01*
X115410799Y-128748399D01*
X115477475Y-128727520D01*
X115479693Y-128727500D01*
X115545253Y-128727500D01*
X115763695Y-128727500D01*
X115830734Y-128747185D01*
X115876489Y-128799989D01*
X115886168Y-128832102D01*
X115913555Y-129005014D01*
X115988972Y-129237123D01*
X116087932Y-129431344D01*
X116099772Y-129454580D01*
X116243215Y-129652014D01*
X116243219Y-129652019D01*
X116415794Y-129824594D01*
X116415799Y-129824598D01*
X116613235Y-129968043D01*
X116652432Y-129988015D01*
X116703229Y-130035989D01*
X116720024Y-130103810D01*
X116697487Y-130169945D01*
X116642772Y-130213397D01*
X116596138Y-130222500D01*
X114397983Y-130222500D01*
X114330944Y-130202815D01*
X114285189Y-130150011D01*
X114278907Y-130133095D01*
X114251745Y-130039606D01*
X114251744Y-130039603D01*
X114251744Y-130039602D01*
X114168081Y-129898135D01*
X114168079Y-129898133D01*
X114168076Y-129898129D01*
X114051870Y-129781923D01*
X114051862Y-129781917D01*
X113910396Y-129698255D01*
X113910393Y-129698254D01*
X113752573Y-129652402D01*
X113752567Y-129652401D01*
X113715701Y-129649500D01*
X113715694Y-129649500D01*
X112409306Y-129649500D01*
X112409298Y-129649500D01*
X112372432Y-129652401D01*
X112372426Y-129652402D01*
X112214606Y-129698254D01*
X112214603Y-129698255D01*
X112073137Y-129781917D01*
X112073129Y-129781923D01*
X111956923Y-129898129D01*
X111956917Y-129898137D01*
X111873255Y-130039603D01*
X111873254Y-130039606D01*
X111827402Y-130197426D01*
X111827401Y-130197432D01*
X111824500Y-130234298D01*
X111824500Y-130665701D01*
X111827401Y-130702567D01*
X111827402Y-130702573D01*
X111873254Y-130860393D01*
X111873255Y-130860396D01*
X111873256Y-130860398D01*
X111901991Y-130908986D01*
X111956917Y-131001862D01*
X111956923Y-131001870D01*
X112073129Y-131118076D01*
X112073133Y-131118079D01*
X112073135Y-131118081D01*
X112214602Y-131201744D01*
X112215676Y-131202056D01*
X112372426Y-131247597D01*
X112372429Y-131247597D01*
X112372431Y-131247598D01*
X112409306Y-131250500D01*
X113575500Y-131250500D01*
X113584185Y-131253050D01*
X113593147Y-131251762D01*
X113617187Y-131262740D01*
X113642539Y-131270185D01*
X113648466Y-131277025D01*
X113656703Y-131280787D01*
X113670992Y-131303021D01*
X113688294Y-131322989D01*
X113690581Y-131333503D01*
X113694477Y-131339565D01*
X113699500Y-131374500D01*
X113699500Y-131425500D01*
X113679815Y-131492539D01*
X113627011Y-131538294D01*
X113575500Y-131549500D01*
X112409298Y-131549500D01*
X112372432Y-131552401D01*
X112372426Y-131552402D01*
X112214606Y-131598254D01*
X112214603Y-131598255D01*
X112073137Y-131681917D01*
X112073129Y-131681923D01*
X111956923Y-131798129D01*
X111956917Y-131798137D01*
X111873255Y-131939603D01*
X111873254Y-131939606D01*
X111827402Y-132097426D01*
X111827401Y-132097432D01*
X111824500Y-132134298D01*
X111824500Y-132448596D01*
X111804815Y-132515635D01*
X111752011Y-132561390D01*
X111719899Y-132571069D01*
X111602802Y-132589616D01*
X111370688Y-132665035D01*
X111153233Y-132775834D01*
X110955799Y-132919277D01*
X110955794Y-132919281D01*
X110812181Y-133062895D01*
X110750858Y-133096380D01*
X110681166Y-133091396D01*
X110625233Y-133049524D01*
X110600816Y-132984060D01*
X110600500Y-132975214D01*
X110600500Y-129335119D01*
X110620185Y-129268080D01*
X110636819Y-129247438D01*
X113014490Y-126869767D01*
X115485852Y-124398405D01*
X115516376Y-124324713D01*
X115516376Y-124244948D01*
X115516376Y-122566438D01*
X115536061Y-122499399D01*
X115588865Y-122453644D01*
X115640376Y-122442438D01*
X117867850Y-122442438D01*
X117868443Y-122442377D01*
X117884856Y-122442379D01*
X118020186Y-122415468D01*
X118147665Y-122362672D01*
X118262395Y-122286022D01*
X118359967Y-122188461D01*
X118436632Y-122073741D01*
X118489443Y-121946268D01*
X118516371Y-121810942D01*
X118516373Y-121781825D01*
X118516376Y-121781819D01*
X118516376Y-121741922D01*
X118516379Y-121702070D01*
X118516378Y-121702068D01*
X118516379Y-121690948D01*
X118516376Y-121690902D01*
X118516376Y-111689078D01*
X118516365Y-111688977D01*
X118516367Y-111672962D01*
X118513284Y-111657456D01*
X118489454Y-111537619D01*
X118436654Y-111410131D01*
X118400161Y-111355512D01*
X118359994Y-111295393D01*
X118262421Y-111197817D01*
X118147687Y-111121156D01*
X118020207Y-111068353D01*
X118020194Y-111068349D01*
X117911623Y-111046757D01*
X117884860Y-111041435D01*
X117884859Y-111041435D01*
X117815865Y-111041438D01*
X115640376Y-111041438D01*
X115573337Y-111021753D01*
X115527582Y-110968949D01*
X115516376Y-110917438D01*
X115516376Y-106303019D01*
X115519550Y-106274396D01*
X115516376Y-106263451D01*
X115516376Y-106252056D01*
X115507973Y-106231770D01*
X115503447Y-106218872D01*
X115440678Y-106002435D01*
X116772231Y-106002435D01*
X117116794Y-106049960D01*
X117116807Y-106049961D01*
X117176654Y-106051756D01*
X117176661Y-106051755D01*
X117316974Y-106020388D01*
X117316978Y-106020386D01*
X117442774Y-105950755D01*
X117543849Y-105848514D01*
X117543851Y-105848511D01*
X117612032Y-105721924D01*
X117626510Y-105663815D01*
X117742351Y-104823933D01*
X116949852Y-104714627D01*
X116772231Y-106002435D01*
X115440678Y-106002435D01*
X115337341Y-105646109D01*
X115337341Y-105646101D01*
X115337332Y-105646081D01*
X115276621Y-105436740D01*
X115544409Y-105436740D01*
X115544410Y-105436749D01*
X115575776Y-105577057D01*
X115575778Y-105577062D01*
X115645409Y-105702857D01*
X115747656Y-105803938D01*
X115874241Y-105872118D01*
X115874242Y-105872119D01*
X115932346Y-105886594D01*
X115932353Y-105886595D01*
X116276920Y-105934120D01*
X116276920Y-105934119D01*
X116454543Y-104646312D01*
X115662044Y-104537006D01*
X115546205Y-105376877D01*
X115546204Y-105376893D01*
X115544409Y-105436740D01*
X115276621Y-105436740D01*
X114784470Y-103739719D01*
X114780727Y-103688240D01*
X114787092Y-103642096D01*
X114933751Y-102578761D01*
X114962410Y-102515041D01*
X115020971Y-102476929D01*
X115090839Y-102476528D01*
X115149833Y-102513965D01*
G37*
%TD.AperFunction*%
%TA.AperFunction,Conductor*%
G36*
X192789827Y-126612006D02*
G01*
X192796305Y-126618038D01*
X194558494Y-128380227D01*
X194591979Y-128441550D01*
X194586995Y-128511242D01*
X194573916Y-128536798D01*
X194492219Y-128659068D01*
X194428108Y-128813845D01*
X194428106Y-128813853D01*
X194395424Y-128978156D01*
X194395424Y-129145699D01*
X194428106Y-129310002D01*
X194428108Y-129310010D01*
X194492219Y-129464788D01*
X194585297Y-129604090D01*
X194703761Y-129722554D01*
X194792605Y-129781917D01*
X194843061Y-129815631D01*
X194997842Y-129879744D01*
X195120998Y-129904241D01*
X195162152Y-129912427D01*
X195162156Y-129912428D01*
X195162157Y-129912428D01*
X195329692Y-129912428D01*
X195329692Y-129912427D01*
X195450605Y-129888377D01*
X195473309Y-129883861D01*
X195542900Y-129890088D01*
X195598078Y-129932951D01*
X195621322Y-129998841D01*
X195621500Y-130005478D01*
X195621500Y-131605097D01*
X195601815Y-131672136D01*
X195549011Y-131717891D01*
X195479853Y-131727835D01*
X195416297Y-131698810D01*
X195378523Y-131640032D01*
X195375881Y-131629279D01*
X195360595Y-131552402D01*
X195357658Y-131537631D01*
X195304864Y-131410149D01*
X195228213Y-131295416D01*
X195228211Y-131295413D01*
X195130655Y-131197846D01*
X195130650Y-131197842D01*
X195015930Y-131121178D01*
X195011479Y-131119334D01*
X194888452Y-131068367D01*
X194888450Y-131068366D01*
X194888444Y-131068364D01*
X194888445Y-131068364D01*
X194753126Y-131041442D01*
X194753120Y-131041441D01*
X194735838Y-131041440D01*
X194735838Y-131041439D01*
X194724006Y-131041438D01*
X194724005Y-131041438D01*
X194684133Y-131041438D01*
X194684132Y-131041438D01*
X194684124Y-131041437D01*
X194632439Y-131041435D01*
X194632407Y-131041438D01*
X192708624Y-131041438D01*
X192641585Y-131021753D01*
X192595830Y-130968949D01*
X192584624Y-130917438D01*
X192584624Y-126705719D01*
X192604309Y-126638680D01*
X192657113Y-126592925D01*
X192726271Y-126582981D01*
X192789827Y-126612006D01*
G37*
%TD.AperFunction*%
%TA.AperFunction,Conductor*%
G36*
X218821444Y-127147185D02*
G01*
X218842086Y-127163819D01*
X220507956Y-128829690D01*
X220541441Y-128891013D01*
X220536457Y-128960705D01*
X220494585Y-129016638D01*
X220429121Y-129041055D01*
X220420275Y-129041371D01*
X219839998Y-129041371D01*
X219839980Y-129041372D01*
X219737203Y-129051871D01*
X219737200Y-129051872D01*
X219570668Y-129107056D01*
X219570663Y-129107058D01*
X219421342Y-129199160D01*
X219297289Y-129323213D01*
X219205187Y-129472534D01*
X219205186Y-129472537D01*
X219150001Y-129639074D01*
X219150001Y-129639075D01*
X219150000Y-129639075D01*
X219139500Y-129741854D01*
X219139500Y-130341872D01*
X219139501Y-130341890D01*
X219150000Y-130444667D01*
X219150001Y-130444670D01*
X219205187Y-130611208D01*
X219205537Y-130611775D01*
X219205658Y-130612219D01*
X219208240Y-130617756D01*
X219207294Y-130618196D01*
X219209649Y-130626805D01*
X219218314Y-130639759D01*
X219218682Y-130659816D01*
X219223977Y-130679168D01*
X219219327Y-130694996D01*
X219219596Y-130709617D01*
X219205526Y-130741985D01*
X219202961Y-130746142D01*
X219151005Y-130792858D01*
X219082041Y-130804069D01*
X219017963Y-130776215D01*
X219009763Y-130768719D01*
X215580223Y-127339180D01*
X215546739Y-127277858D01*
X215551723Y-127208166D01*
X215593595Y-127152233D01*
X215659059Y-127127816D01*
X215667905Y-127127500D01*
X218754405Y-127127500D01*
X218821444Y-127147185D01*
G37*
%TD.AperFunction*%
%TA.AperFunction,Conductor*%
G36*
X197905696Y-107709479D02*
G01*
X197919132Y-107710440D01*
X197936858Y-107723710D01*
X197957001Y-107732909D01*
X197964283Y-107744240D01*
X197975065Y-107752312D01*
X197982802Y-107773057D01*
X197994775Y-107791687D01*
X197997926Y-107813605D01*
X197999482Y-107817776D01*
X197999798Y-107826622D01*
X197999798Y-107931594D01*
X197999850Y-107931923D01*
X198032912Y-108140669D01*
X198037977Y-108172643D01*
X198113394Y-108404752D01*
X198214640Y-108603460D01*
X198224194Y-108622209D01*
X198367637Y-108819643D01*
X198367641Y-108819648D01*
X198540216Y-108992223D01*
X198540221Y-108992227D01*
X198687086Y-109098930D01*
X198737659Y-109135673D01*
X198955113Y-109246471D01*
X199187222Y-109321888D01*
X199428271Y-109360067D01*
X199428272Y-109360067D01*
X199672324Y-109360067D01*
X199672325Y-109360067D01*
X199913374Y-109321888D01*
X200145483Y-109246471D01*
X200362937Y-109135673D01*
X200459278Y-109065676D01*
X200491412Y-109054210D01*
X200523317Y-109042311D01*
X200524215Y-109042506D01*
X200525083Y-109042197D01*
X200558300Y-109049921D01*
X200591590Y-109057163D01*
X200592557Y-109057887D01*
X200593137Y-109058022D01*
X200619844Y-109078314D01*
X200700181Y-109158651D01*
X200733666Y-109219974D01*
X200736500Y-109246332D01*
X200736500Y-117382609D01*
X200736500Y-117473115D01*
X200767624Y-117548255D01*
X200771136Y-117556732D01*
X203536181Y-120321776D01*
X203569666Y-120383099D01*
X203572500Y-120409457D01*
X203572500Y-121090804D01*
X203552815Y-121157843D01*
X203500011Y-121203598D01*
X203495954Y-121205365D01*
X203397137Y-121246296D01*
X203257837Y-121339373D01*
X203139373Y-121457837D01*
X203046295Y-121597139D01*
X202982184Y-121751917D01*
X202982182Y-121751925D01*
X202949500Y-121916228D01*
X202949500Y-122083771D01*
X202982182Y-122248074D01*
X202982184Y-122248082D01*
X203046295Y-122402860D01*
X203139373Y-122542162D01*
X203257837Y-122660626D01*
X203312920Y-122697431D01*
X203397137Y-122753703D01*
X203397138Y-122753703D01*
X203397139Y-122753704D01*
X203405425Y-122757136D01*
X203551918Y-122817816D01*
X203678900Y-122843074D01*
X203716228Y-122850499D01*
X203716232Y-122850500D01*
X203716233Y-122850500D01*
X203883768Y-122850500D01*
X203883769Y-122850499D01*
X204048082Y-122817816D01*
X204202863Y-122753703D01*
X204342162Y-122660626D01*
X204460626Y-122542162D01*
X204553703Y-122402863D01*
X204617816Y-122248082D01*
X204650500Y-122083767D01*
X204650500Y-121916233D01*
X204617816Y-121751918D01*
X204557278Y-121605767D01*
X204553704Y-121597139D01*
X204552277Y-121595004D01*
X204518666Y-121544701D01*
X204460626Y-121457837D01*
X204342162Y-121339373D01*
X204202862Y-121246296D01*
X204104046Y-121205365D01*
X204049643Y-121161523D01*
X204027579Y-121095229D01*
X204027500Y-121090804D01*
X204027500Y-120648595D01*
X204047185Y-120581556D01*
X204099989Y-120535801D01*
X204169147Y-120525857D01*
X204232703Y-120554882D01*
X204239181Y-120560914D01*
X205590585Y-121912318D01*
X205624070Y-121973641D01*
X205619086Y-122043333D01*
X205590585Y-122087680D01*
X203682031Y-123996234D01*
X203620708Y-124029719D01*
X203551016Y-124024735D01*
X203546898Y-124023114D01*
X203448086Y-123982185D01*
X203448074Y-123982182D01*
X203283771Y-123949500D01*
X203283767Y-123949500D01*
X203116233Y-123949500D01*
X203116228Y-123949500D01*
X202951925Y-123982182D01*
X202951917Y-123982184D01*
X202797139Y-124046295D01*
X202657837Y-124139373D01*
X202539373Y-124257837D01*
X202446295Y-124397139D01*
X202382184Y-124551917D01*
X202382182Y-124551925D01*
X202349500Y-124716228D01*
X202349500Y-124883771D01*
X202382942Y-125051896D01*
X202381064Y-125072879D01*
X202384063Y-125093734D01*
X202378013Y-125106981D01*
X202376715Y-125121488D01*
X202363789Y-125138126D01*
X202355038Y-125157290D01*
X202342786Y-125165163D01*
X202333852Y-125176665D01*
X202313983Y-125183674D01*
X202296260Y-125195064D01*
X202271676Y-125198598D01*
X202267962Y-125199909D01*
X202261325Y-125200087D01*
X202156923Y-125200087D01*
X202089884Y-125180402D01*
X202044129Y-125127598D01*
X202042362Y-125123540D01*
X202001432Y-125024725D01*
X201908354Y-124885424D01*
X201789890Y-124766960D01*
X201650588Y-124673882D01*
X201495810Y-124609771D01*
X201495802Y-124609769D01*
X201331499Y-124577087D01*
X201331495Y-124577087D01*
X201163961Y-124577087D01*
X201138004Y-124582249D01*
X201068414Y-124576021D01*
X201013237Y-124533158D01*
X201003330Y-124516926D01*
X200998698Y-124507836D01*
X200900230Y-124314580D01*
X200859004Y-124257837D01*
X200756784Y-124117142D01*
X200756780Y-124117137D01*
X200584205Y-123944562D01*
X200584200Y-123944558D01*
X200386766Y-123801115D01*
X200386765Y-123801114D01*
X200386763Y-123801113D01*
X200169309Y-123690315D01*
X199937200Y-123614898D01*
X199937198Y-123614897D01*
X199937196Y-123614897D01*
X199716708Y-123579975D01*
X199696151Y-123576719D01*
X199452097Y-123576719D01*
X199431540Y-123579975D01*
X199211051Y-123614897D01*
X198978936Y-123690316D01*
X198761480Y-123801115D01*
X198565509Y-123943496D01*
X198499703Y-123966976D01*
X198431649Y-123951150D01*
X198382954Y-123901044D01*
X198368624Y-123843178D01*
X198368624Y-122933708D01*
X198378062Y-122886257D01*
X198381940Y-122876896D01*
X198414624Y-122712581D01*
X198414624Y-122545047D01*
X198411764Y-122530668D01*
X198381942Y-122380739D01*
X198381940Y-122380736D01*
X198381940Y-122380732D01*
X198378061Y-122371368D01*
X198368624Y-122323920D01*
X198368624Y-121695872D01*
X198368623Y-121695869D01*
X198358772Y-121672086D01*
X198351590Y-121654747D01*
X198333990Y-121612256D01*
X193463819Y-116742085D01*
X193430334Y-116680762D01*
X193427500Y-116654404D01*
X193427500Y-112554748D01*
X193427500Y-112554747D01*
X193392865Y-112471132D01*
X193328868Y-112407135D01*
X191110397Y-110188664D01*
X191096237Y-110171724D01*
X191088623Y-110160763D01*
X191082565Y-110146137D01*
X190989488Y-110006838D01*
X190963997Y-109981347D01*
X190957672Y-109972241D01*
X190949993Y-109949186D01*
X190938347Y-109927858D01*
X190939149Y-109916631D01*
X190935593Y-109905952D01*
X190941597Y-109882406D01*
X190943331Y-109858166D01*
X190950076Y-109849154D01*
X190952858Y-109838249D01*
X190970639Y-109821686D01*
X190985203Y-109802233D01*
X190995748Y-109798299D01*
X191003985Y-109790628D01*
X191027898Y-109786308D01*
X191050667Y-109777816D01*
X191059513Y-109777500D01*
X193104405Y-109777500D01*
X193171444Y-109797185D01*
X193192086Y-109813819D01*
X193571129Y-110192863D01*
X193571130Y-110192863D01*
X193571132Y-110192865D01*
X193654747Y-110227500D01*
X193654748Y-110227500D01*
X195250577Y-110227500D01*
X195250578Y-110227500D01*
X195334193Y-110192865D01*
X197788117Y-107738941D01*
X197807553Y-107728328D01*
X197824287Y-107713828D01*
X197837618Y-107711911D01*
X197849440Y-107705456D01*
X197871526Y-107707035D01*
X197893445Y-107703884D01*
X197905696Y-107709479D01*
G37*
%TD.AperFunction*%
%TA.AperFunction,Conductor*%
G36*
X187348156Y-121556500D02*
G01*
X187355245Y-121556500D01*
X188746844Y-121556500D01*
X188756996Y-121555500D01*
X192010723Y-121555500D01*
X192077762Y-121575185D01*
X192123517Y-121627989D01*
X192133461Y-121697147D01*
X192113825Y-121748391D01*
X192036484Y-121864139D01*
X191972373Y-122018917D01*
X191972371Y-122018925D01*
X191939689Y-122183228D01*
X191939689Y-122350771D01*
X191972371Y-122515074D01*
X191972373Y-122515082D01*
X192036484Y-122669860D01*
X192129562Y-122809162D01*
X192248026Y-122927626D01*
X192293242Y-122957838D01*
X192387326Y-123020703D01*
X192542107Y-123084816D01*
X192632530Y-123102802D01*
X192706417Y-123117499D01*
X192706421Y-123117500D01*
X192798500Y-123117500D01*
X192865539Y-123137185D01*
X192911294Y-123189989D01*
X192922500Y-123241500D01*
X192922500Y-124481096D01*
X192922436Y-124485089D01*
X192921708Y-124507674D01*
X192915624Y-124522363D01*
X192915624Y-124696534D01*
X192915560Y-124698521D01*
X192905235Y-124729906D01*
X192895939Y-124761567D01*
X192894374Y-124762922D01*
X192893727Y-124764892D01*
X192868063Y-124785721D01*
X192843135Y-124807322D01*
X192841086Y-124807616D01*
X192839477Y-124808923D01*
X192806647Y-124812568D01*
X192773977Y-124817266D01*
X192772092Y-124816405D01*
X192770034Y-124816634D01*
X192740456Y-124801957D01*
X192710421Y-124788241D01*
X192707692Y-124785700D01*
X192707446Y-124785578D01*
X192707301Y-124785336D01*
X192703943Y-124782209D01*
X191228870Y-123307136D01*
X191145253Y-123272500D01*
X185556057Y-123272500D01*
X185489018Y-123252815D01*
X185443263Y-123200011D01*
X185433319Y-123130853D01*
X185452955Y-123079610D01*
X185492314Y-123020704D01*
X185507576Y-122997863D01*
X185571689Y-122843082D01*
X185604373Y-122678767D01*
X185604373Y-122511233D01*
X185571689Y-122346918D01*
X185507576Y-122192137D01*
X185457759Y-122117581D01*
X185414499Y-122052837D01*
X185296035Y-121934373D01*
X185156733Y-121841295D01*
X185042699Y-121794061D01*
X184988296Y-121750220D01*
X184966231Y-121683926D01*
X184983510Y-121616226D01*
X185034648Y-121568616D01*
X185090152Y-121555500D01*
X187338004Y-121555500D01*
X187348156Y-121556500D01*
G37*
%TD.AperFunction*%
%TA.AperFunction,Conductor*%
G36*
X131906262Y-111275228D02*
G01*
X131933226Y-111277157D01*
X131939967Y-111282203D01*
X131948213Y-111283910D01*
X131967520Y-111302830D01*
X131989159Y-111319029D01*
X131993123Y-111327920D01*
X131998116Y-111332812D01*
X132010785Y-111365754D01*
X132011177Y-111367473D01*
X132032184Y-111473082D01*
X132039065Y-111489695D01*
X132041393Y-111499895D01*
X132044500Y-111527480D01*
X132044500Y-113878447D01*
X132024815Y-113945486D01*
X131972011Y-113991241D01*
X131902853Y-114001185D01*
X131857380Y-113985179D01*
X131710400Y-113898257D01*
X131710393Y-113898254D01*
X131552573Y-113852402D01*
X131552567Y-113852401D01*
X131515701Y-113849500D01*
X131515694Y-113849500D01*
X131177051Y-113849500D01*
X131129599Y-113840061D01*
X131110582Y-113832184D01*
X131110574Y-113832182D01*
X130946271Y-113799500D01*
X130946267Y-113799500D01*
X130778733Y-113799500D01*
X130778728Y-113799500D01*
X130614425Y-113832182D01*
X130614417Y-113832184D01*
X130601929Y-113837356D01*
X130595400Y-113840061D01*
X130547949Y-113849500D01*
X130209298Y-113849500D01*
X130172432Y-113852401D01*
X130172426Y-113852402D01*
X130014606Y-113898254D01*
X130014603Y-113898255D01*
X129873137Y-113981917D01*
X129873129Y-113981923D01*
X129756923Y-114098129D01*
X129756917Y-114098137D01*
X129673255Y-114239603D01*
X129673254Y-114239606D01*
X129627402Y-114397426D01*
X129627401Y-114397432D01*
X129624500Y-114434298D01*
X129624500Y-114865701D01*
X129627401Y-114902567D01*
X129627402Y-114902573D01*
X129673254Y-115060393D01*
X129673255Y-115060396D01*
X129756917Y-115201862D01*
X129756923Y-115201870D01*
X129873129Y-115318076D01*
X129873133Y-115318079D01*
X129873135Y-115318081D01*
X130014602Y-115401744D01*
X130056224Y-115413836D01*
X130172426Y-115447597D01*
X130172429Y-115447597D01*
X130172431Y-115447598D01*
X130209306Y-115450500D01*
X130547949Y-115450500D01*
X130556634Y-115453050D01*
X130565596Y-115451762D01*
X130595400Y-115459938D01*
X130614418Y-115467816D01*
X130634070Y-115471725D01*
X130667539Y-115478383D01*
X130729450Y-115510768D01*
X130764024Y-115571484D01*
X130760285Y-115641253D01*
X130719418Y-115697925D01*
X130667539Y-115721617D01*
X130614425Y-115732182D01*
X130614417Y-115732184D01*
X130601929Y-115737356D01*
X130595400Y-115740061D01*
X130547949Y-115749500D01*
X130209298Y-115749500D01*
X130172432Y-115752401D01*
X130172426Y-115752402D01*
X130014606Y-115798254D01*
X130014603Y-115798255D01*
X129873137Y-115881917D01*
X129873129Y-115881923D01*
X129756923Y-115998129D01*
X129756917Y-115998137D01*
X129673255Y-116139603D01*
X129673254Y-116139606D01*
X129627402Y-116297426D01*
X129627401Y-116297432D01*
X129624500Y-116334298D01*
X129624500Y-116765701D01*
X129627401Y-116802567D01*
X129627402Y-116802573D01*
X129673254Y-116960393D01*
X129673255Y-116960396D01*
X129673256Y-116960398D01*
X129697481Y-117001360D01*
X129756917Y-117101862D01*
X129756923Y-117101870D01*
X129873129Y-117218076D01*
X129873133Y-117218079D01*
X129873135Y-117218081D01*
X130014602Y-117301744D01*
X130056224Y-117313836D01*
X130172426Y-117347597D01*
X130172429Y-117347597D01*
X130172431Y-117347598D01*
X130209306Y-117350500D01*
X130547949Y-117350500D01*
X130595400Y-117359938D01*
X130614418Y-117367816D01*
X130778728Y-117400499D01*
X130778732Y-117400500D01*
X130778733Y-117400500D01*
X130946268Y-117400500D01*
X130946269Y-117400499D01*
X131110582Y-117367816D01*
X131129599Y-117359938D01*
X131177051Y-117350500D01*
X131515686Y-117350500D01*
X131515694Y-117350500D01*
X131552569Y-117347598D01*
X131552571Y-117347597D01*
X131552573Y-117347597D01*
X131605641Y-117332179D01*
X131710398Y-117301744D01*
X131851865Y-117218081D01*
X131968081Y-117101865D01*
X132051744Y-116960398D01*
X132097598Y-116802569D01*
X132100500Y-116765694D01*
X132100500Y-116524500D01*
X132103050Y-116515814D01*
X132101762Y-116506853D01*
X132112740Y-116482812D01*
X132120185Y-116457461D01*
X132127025Y-116451533D01*
X132130787Y-116443297D01*
X132153021Y-116429007D01*
X132172989Y-116411706D01*
X132183503Y-116409418D01*
X132189565Y-116405523D01*
X132224500Y-116400500D01*
X132386000Y-116400500D01*
X132453039Y-116420185D01*
X132498794Y-116472989D01*
X132510000Y-116524500D01*
X132510000Y-116934321D01*
X132490315Y-117001360D01*
X132473681Y-117022002D01*
X126459502Y-123036181D01*
X126398179Y-123069666D01*
X126371821Y-123072500D01*
X126124499Y-123072500D01*
X126057460Y-123052815D01*
X126011705Y-123000011D01*
X126000499Y-122948500D01*
X126000499Y-122799989D01*
X126000498Y-122799981D01*
X125989999Y-122697203D01*
X125989998Y-122697200D01*
X125988702Y-122693289D01*
X125934814Y-122530666D01*
X125842712Y-122381344D01*
X125718656Y-122257288D01*
X125613029Y-122192137D01*
X125569336Y-122165187D01*
X125569331Y-122165185D01*
X125545397Y-122157254D01*
X125402797Y-122110001D01*
X125402795Y-122110000D01*
X125300010Y-122099500D01*
X124499998Y-122099500D01*
X124499980Y-122099501D01*
X124397203Y-122110000D01*
X124397200Y-122110001D01*
X124230668Y-122165185D01*
X124230663Y-122165187D01*
X124081339Y-122257291D01*
X124067858Y-122270772D01*
X124006533Y-122304254D01*
X123936841Y-122299265D01*
X123892500Y-122270767D01*
X123263819Y-121642086D01*
X123230334Y-121580763D01*
X123227500Y-121554405D01*
X123227500Y-113445568D01*
X123247185Y-113378529D01*
X123299989Y-113332774D01*
X123369147Y-113322830D01*
X123398948Y-113331005D01*
X123411839Y-113336345D01*
X123576149Y-113369028D01*
X123576153Y-113369029D01*
X123576154Y-113369029D01*
X123743689Y-113369029D01*
X123743690Y-113369028D01*
X123908003Y-113336345D01*
X124062784Y-113272232D01*
X124202083Y-113179155D01*
X124320547Y-113060691D01*
X124413624Y-112921392D01*
X124477737Y-112766611D01*
X124495940Y-112675094D01*
X124511610Y-112596321D01*
X124514299Y-112596855D01*
X124536101Y-112543002D01*
X124593170Y-112502693D01*
X124633275Y-112496029D01*
X128776725Y-112496029D01*
X128783391Y-112494703D01*
X128852983Y-112500930D01*
X128908160Y-112543793D01*
X128931405Y-112609682D01*
X128915337Y-112677680D01*
X128895264Y-112704001D01*
X126489902Y-115109363D01*
X126449682Y-115136240D01*
X126442138Y-115139365D01*
X126302837Y-115232442D01*
X126184373Y-115350906D01*
X126091295Y-115490209D01*
X126091293Y-115490211D01*
X126089194Y-115495277D01*
X126089176Y-115495324D01*
X126078735Y-115520531D01*
X126057135Y-115542132D01*
X126022500Y-115625747D01*
X126022500Y-115668535D01*
X126018259Y-115689853D01*
X126018259Y-115689855D01*
X125994500Y-115809298D01*
X125994500Y-115976837D01*
X126020117Y-116105621D01*
X126022500Y-116129813D01*
X126022500Y-117454747D01*
X126022500Y-117545253D01*
X126057135Y-117628868D01*
X126057136Y-117628869D01*
X127196234Y-118767968D01*
X127229719Y-118829291D01*
X127224735Y-118898983D01*
X127223114Y-118903101D01*
X127182185Y-119001913D01*
X127182182Y-119001925D01*
X127149500Y-119166228D01*
X127149500Y-119333771D01*
X127182182Y-119498074D01*
X127182184Y-119498082D01*
X127246295Y-119652860D01*
X127339373Y-119792162D01*
X127457837Y-119910626D01*
X127528494Y-119957837D01*
X127597137Y-120003703D01*
X127751918Y-120067816D01*
X127878920Y-120093078D01*
X127916228Y-120100499D01*
X127916232Y-120100500D01*
X127916233Y-120100500D01*
X128083768Y-120100500D01*
X128083769Y-120100499D01*
X128248082Y-120067816D01*
X128402863Y-120003703D01*
X128542162Y-119910626D01*
X128660626Y-119792162D01*
X128753703Y-119652863D01*
X128817816Y-119498082D01*
X128850500Y-119333767D01*
X128850500Y-119166233D01*
X128817816Y-119001918D01*
X128755764Y-118852112D01*
X128753704Y-118847139D01*
X128742044Y-118829689D01*
X128700804Y-118767968D01*
X128660626Y-118707837D01*
X128542162Y-118589373D01*
X128402860Y-118496295D01*
X128248082Y-118432184D01*
X128248074Y-118432182D01*
X128083771Y-118399500D01*
X128083767Y-118399500D01*
X127916233Y-118399500D01*
X127916228Y-118399500D01*
X127751925Y-118432182D01*
X127751913Y-118432185D01*
X127653101Y-118473114D01*
X127583631Y-118480583D01*
X127521152Y-118449307D01*
X127517968Y-118446234D01*
X126513819Y-117442085D01*
X126480334Y-117380762D01*
X126477500Y-117354404D01*
X126477500Y-116838225D01*
X126497185Y-116771186D01*
X126549989Y-116725431D01*
X126619147Y-116715487D01*
X126625675Y-116716605D01*
X126761231Y-116743568D01*
X126761232Y-116743569D01*
X126761233Y-116743569D01*
X126928768Y-116743569D01*
X126928769Y-116743568D01*
X127093082Y-116710885D01*
X127247863Y-116646772D01*
X127387162Y-116553695D01*
X127505626Y-116435231D01*
X127598703Y-116295932D01*
X127662816Y-116141151D01*
X127695500Y-115976836D01*
X127695500Y-115809302D01*
X127662816Y-115644987D01*
X127635962Y-115580159D01*
X127628494Y-115510691D01*
X127659768Y-115448212D01*
X127662815Y-115445054D01*
X131802213Y-111305656D01*
X131809600Y-111301623D01*
X131814579Y-111294830D01*
X131839811Y-111285126D01*
X131863534Y-111272173D01*
X131871933Y-111272773D01*
X131879793Y-111269751D01*
X131906262Y-111275228D01*
G37*
%TD.AperFunction*%
%TA.AperFunction,Conductor*%
G36*
X169455702Y-116527881D02*
G01*
X169462180Y-116533913D01*
X172307135Y-119378868D01*
X172371132Y-119442865D01*
X172454747Y-119477500D01*
X172590437Y-119477500D01*
X172657476Y-119497185D01*
X172703231Y-119549989D01*
X172713175Y-119619147D01*
X172697169Y-119664621D01*
X172623255Y-119789603D01*
X172623254Y-119789606D01*
X172577402Y-119947426D01*
X172577401Y-119947432D01*
X172574500Y-119984298D01*
X172574500Y-120148500D01*
X172554815Y-120215539D01*
X172502011Y-120261294D01*
X172450500Y-120272500D01*
X170459195Y-120272500D01*
X170392156Y-120252815D01*
X170346401Y-120200011D01*
X170344634Y-120195953D01*
X170303704Y-120097138D01*
X170210626Y-119957837D01*
X170092162Y-119839373D01*
X169952860Y-119746295D01*
X169798082Y-119682184D01*
X169798074Y-119682182D01*
X169633771Y-119649500D01*
X169633767Y-119649500D01*
X169466233Y-119649500D01*
X169466228Y-119649500D01*
X169301925Y-119682182D01*
X169301917Y-119682184D01*
X169147139Y-119746295D01*
X169007837Y-119839373D01*
X168889373Y-119957837D01*
X168796295Y-120097139D01*
X168732184Y-120251917D01*
X168732182Y-120251925D01*
X168699500Y-120416228D01*
X168699500Y-120583771D01*
X168732182Y-120748074D01*
X168732184Y-120748082D01*
X168796295Y-120902860D01*
X168889373Y-121042162D01*
X169007837Y-121160626D01*
X169094952Y-121218834D01*
X169147137Y-121253703D01*
X169147138Y-121253703D01*
X169147139Y-121253704D01*
X169176102Y-121265701D01*
X169301918Y-121317816D01*
X169414376Y-121340185D01*
X169466228Y-121350499D01*
X169466232Y-121350500D01*
X169466233Y-121350500D01*
X169633768Y-121350500D01*
X169633769Y-121350499D01*
X169798082Y-121317816D01*
X169952863Y-121253703D01*
X170092162Y-121160626D01*
X170210626Y-121042162D01*
X170303703Y-120902863D01*
X170344634Y-120804046D01*
X170388475Y-120749644D01*
X170454769Y-120727579D01*
X170459195Y-120727500D01*
X172631191Y-120727500D01*
X172698230Y-120747185D01*
X172718872Y-120763819D01*
X172823129Y-120868076D01*
X172823133Y-120868079D01*
X172823135Y-120868081D01*
X172964602Y-120951744D01*
X173006224Y-120963836D01*
X173122426Y-120997597D01*
X173122429Y-120997597D01*
X173122431Y-120997598D01*
X173159306Y-121000500D01*
X173159314Y-121000500D01*
X174465686Y-121000500D01*
X174465694Y-121000500D01*
X174502569Y-120997598D01*
X174502571Y-120997597D01*
X174502573Y-120997597D01*
X174571746Y-120977500D01*
X174660398Y-120951744D01*
X174801865Y-120868081D01*
X174918081Y-120751865D01*
X175001744Y-120610398D01*
X175007839Y-120589417D01*
X175045445Y-120530532D01*
X175108917Y-120501324D01*
X175178103Y-120511069D01*
X175214597Y-120536330D01*
X175557135Y-120878868D01*
X175621132Y-120942865D01*
X175704747Y-120977500D01*
X181736405Y-120977500D01*
X181765845Y-120986144D01*
X181795832Y-120992668D01*
X181800847Y-120996422D01*
X181803444Y-120997185D01*
X181824086Y-121013819D01*
X181898086Y-121087819D01*
X181931571Y-121149142D01*
X181926587Y-121218834D01*
X181884715Y-121274767D01*
X181819251Y-121299184D01*
X181810406Y-121299500D01*
X181599999Y-121299500D01*
X181599980Y-121299501D01*
X181497203Y-121310000D01*
X181497200Y-121310001D01*
X181330668Y-121365185D01*
X181330663Y-121365187D01*
X181181342Y-121457289D01*
X181087681Y-121550951D01*
X181026358Y-121584436D01*
X180956666Y-121579452D01*
X180912319Y-121550951D01*
X180818657Y-121457289D01*
X180818656Y-121457288D01*
X180669334Y-121365186D01*
X180502797Y-121310001D01*
X180502795Y-121310000D01*
X180400010Y-121299500D01*
X179599998Y-121299500D01*
X179599980Y-121299501D01*
X179497203Y-121310000D01*
X179497200Y-121310001D01*
X179330668Y-121365185D01*
X179330663Y-121365187D01*
X179181342Y-121457289D01*
X179093931Y-121544701D01*
X179032608Y-121578186D01*
X178962916Y-121573202D01*
X178918569Y-121544701D01*
X178806157Y-121432289D01*
X178806156Y-121432288D01*
X178656834Y-121340186D01*
X178490297Y-121285001D01*
X178490295Y-121285000D01*
X178387510Y-121274500D01*
X177612498Y-121274500D01*
X177612480Y-121274501D01*
X177509703Y-121285000D01*
X177509700Y-121285001D01*
X177343168Y-121340185D01*
X177343163Y-121340187D01*
X177193842Y-121432289D01*
X177069785Y-121556346D01*
X177068037Y-121559182D01*
X177066329Y-121560717D01*
X177065307Y-121562011D01*
X177065085Y-121561836D01*
X177016089Y-121605905D01*
X176947126Y-121617126D01*
X176883044Y-121589282D01*
X176856963Y-121559182D01*
X176855214Y-121556346D01*
X176731157Y-121432289D01*
X176731156Y-121432288D01*
X176581834Y-121340186D01*
X176415297Y-121285001D01*
X176415295Y-121285000D01*
X176312510Y-121274500D01*
X175537498Y-121274500D01*
X175537480Y-121274501D01*
X175434703Y-121285000D01*
X175434700Y-121285001D01*
X175268168Y-121340185D01*
X175268163Y-121340187D01*
X175118842Y-121432289D01*
X175043929Y-121507201D01*
X174982606Y-121540686D01*
X174912914Y-121535700D01*
X174868568Y-121507200D01*
X174818657Y-121457289D01*
X174818656Y-121457288D01*
X174669334Y-121365186D01*
X174502797Y-121310001D01*
X174502795Y-121310000D01*
X174400010Y-121299500D01*
X173599998Y-121299500D01*
X173599980Y-121299501D01*
X173497203Y-121310000D01*
X173497200Y-121310001D01*
X173330668Y-121365185D01*
X173330663Y-121365187D01*
X173181342Y-121457289D01*
X173087681Y-121550951D01*
X173026358Y-121584436D01*
X172956666Y-121579452D01*
X172912319Y-121550951D01*
X172818657Y-121457289D01*
X172818656Y-121457288D01*
X172669334Y-121365186D01*
X172502797Y-121310001D01*
X172502795Y-121310000D01*
X172400010Y-121299500D01*
X171599998Y-121299500D01*
X171599980Y-121299501D01*
X171497203Y-121310000D01*
X171497200Y-121310001D01*
X171330668Y-121365185D01*
X171330663Y-121365187D01*
X171181342Y-121457289D01*
X171057289Y-121581342D01*
X170965187Y-121730663D01*
X170965185Y-121730668D01*
X170947414Y-121784298D01*
X170910001Y-121897203D01*
X170910001Y-121897204D01*
X170910000Y-121897204D01*
X170899500Y-121999983D01*
X170899500Y-122148500D01*
X170879815Y-122215539D01*
X170827011Y-122261294D01*
X170775500Y-122272500D01*
X169645596Y-122272500D01*
X169578557Y-122252815D01*
X169557915Y-122236181D01*
X168013819Y-120692085D01*
X167980334Y-120630762D01*
X167977500Y-120604404D01*
X167977500Y-118924499D01*
X167997185Y-118857460D01*
X168049989Y-118811705D01*
X168101500Y-118800499D01*
X168797871Y-118800499D01*
X168797872Y-118800499D01*
X168857483Y-118794091D01*
X168992331Y-118743796D01*
X169107546Y-118657546D01*
X169193796Y-118542331D01*
X169244091Y-118407483D01*
X169250500Y-118347873D01*
X169250499Y-116621593D01*
X169270184Y-116554555D01*
X169322987Y-116508800D01*
X169392146Y-116498856D01*
X169455702Y-116527881D01*
G37*
%TD.AperFunction*%
%TA.AperFunction,Conductor*%
G36*
X206414803Y-116561703D02*
G01*
X206428239Y-116562664D01*
X206445965Y-116575934D01*
X206466108Y-116585133D01*
X206473390Y-116596464D01*
X206484172Y-116604536D01*
X206491909Y-116625281D01*
X206503882Y-116643911D01*
X206507033Y-116665829D01*
X206508589Y-116670000D01*
X206508905Y-116678846D01*
X206508905Y-116763964D01*
X206540016Y-116960393D01*
X206547084Y-117005014D01*
X206622501Y-117237123D01*
X206731357Y-117450766D01*
X206733301Y-117454580D01*
X206876744Y-117652014D01*
X206876748Y-117652019D01*
X207049323Y-117824594D01*
X207049328Y-117824598D01*
X207138805Y-117889606D01*
X207246766Y-117968044D01*
X207385328Y-118038644D01*
X207464215Y-118078840D01*
X207464217Y-118078840D01*
X207464220Y-118078842D01*
X207696329Y-118154259D01*
X207727304Y-118159164D01*
X207790435Y-118189091D01*
X207827368Y-118248402D01*
X207831905Y-118281637D01*
X207831905Y-120125500D01*
X207812220Y-120192539D01*
X207759416Y-120238294D01*
X207707905Y-120249500D01*
X207409298Y-120249500D01*
X207372432Y-120252401D01*
X207372426Y-120252402D01*
X207214606Y-120298254D01*
X207214603Y-120298255D01*
X207073137Y-120381917D01*
X207073129Y-120381923D01*
X206956923Y-120498129D01*
X206956917Y-120498137D01*
X206873255Y-120639603D01*
X206873254Y-120639606D01*
X206827402Y-120797426D01*
X206827401Y-120797432D01*
X206824500Y-120834298D01*
X206824500Y-121265701D01*
X206827401Y-121302567D01*
X206827402Y-121302573D01*
X206873254Y-121460393D01*
X206873255Y-121460396D01*
X206873256Y-121460398D01*
X206900935Y-121507200D01*
X206947169Y-121585379D01*
X206964352Y-121653103D01*
X206942192Y-121719366D01*
X206887726Y-121763129D01*
X206840437Y-121772500D01*
X206145595Y-121772500D01*
X206078556Y-121752815D01*
X206057914Y-121736181D01*
X203826268Y-119504535D01*
X203792783Y-119443212D01*
X203797767Y-119373520D01*
X203839639Y-119317587D01*
X203905103Y-119293170D01*
X203938140Y-119295237D01*
X203969746Y-119301523D01*
X204021557Y-119311829D01*
X204021559Y-119311830D01*
X204021560Y-119311830D01*
X204189095Y-119311830D01*
X204189096Y-119311829D01*
X204353409Y-119279146D01*
X204508190Y-119215033D01*
X204647489Y-119121956D01*
X204765953Y-119003492D01*
X204859030Y-118864193D01*
X204923143Y-118709412D01*
X204955827Y-118545097D01*
X204955827Y-118377563D01*
X204923143Y-118213248D01*
X204882210Y-118114430D01*
X204874742Y-118044962D01*
X204906017Y-117982483D01*
X204909062Y-117979326D01*
X206297225Y-116591163D01*
X206316660Y-116580552D01*
X206333394Y-116566052D01*
X206346725Y-116564135D01*
X206358547Y-116557680D01*
X206380633Y-116559259D01*
X206402552Y-116556108D01*
X206414803Y-116561703D01*
G37*
%TD.AperFunction*%
%TA.AperFunction,Conductor*%
G36*
X177854703Y-116171706D02*
G01*
X177861181Y-116177738D01*
X181994261Y-120310819D01*
X182027746Y-120372142D01*
X182022762Y-120441834D01*
X181980890Y-120497767D01*
X181915426Y-120522184D01*
X181906580Y-120522500D01*
X178325797Y-120522500D01*
X178258758Y-120502815D01*
X178213003Y-120450011D01*
X178203059Y-120380853D01*
X178211236Y-120351047D01*
X178219954Y-120330000D01*
X178253886Y-120248082D01*
X178286570Y-120083767D01*
X178286570Y-119916233D01*
X178253886Y-119751918D01*
X178189773Y-119597137D01*
X178146196Y-119531919D01*
X178096696Y-119457837D01*
X177978232Y-119339373D01*
X177838930Y-119246295D01*
X177726047Y-119199537D01*
X177671643Y-119155695D01*
X177649579Y-119089401D01*
X177649500Y-119084976D01*
X177649500Y-116265419D01*
X177669185Y-116198380D01*
X177721989Y-116152625D01*
X177791147Y-116142681D01*
X177854703Y-116171706D01*
G37*
%TD.AperFunction*%
%TA.AperFunction,Conductor*%
G36*
X168531627Y-95322048D02*
G01*
X168577382Y-95374852D01*
X168588386Y-95419286D01*
X168606995Y-95744828D01*
X168705982Y-97006077D01*
X168831691Y-98264900D01*
X168984073Y-99520780D01*
X169163062Y-100773192D01*
X169368569Y-102021493D01*
X169472503Y-102578779D01*
X169477228Y-102604110D01*
X169477228Y-102604111D01*
X169484539Y-102643317D01*
X169500439Y-102728584D01*
X169500441Y-102728599D01*
X169524888Y-102859787D01*
X169524892Y-102859808D01*
X169641943Y-103284373D01*
X169641949Y-103284391D01*
X169794474Y-103697547D01*
X169794482Y-103697566D01*
X169981376Y-104096323D01*
X169981381Y-104096334D01*
X169981385Y-104096342D01*
X169981388Y-104096347D01*
X170201343Y-104477913D01*
X170452767Y-104839520D01*
X170614852Y-105035028D01*
X170733860Y-105178577D01*
X171042611Y-105492660D01*
X171042615Y-105492663D01*
X171287499Y-105702857D01*
X171376806Y-105779513D01*
X171734056Y-106037090D01*
X172111802Y-106263545D01*
X172111810Y-106263549D01*
X172111817Y-106263553D01*
X172507332Y-106457252D01*
X172507339Y-106457255D01*
X172917835Y-106616834D01*
X173340353Y-106741140D01*
X173636582Y-106801649D01*
X173771846Y-106829279D01*
X173771852Y-106829280D01*
X173771867Y-106829283D01*
X174209287Y-106880632D01*
X174649483Y-106894818D01*
X175089302Y-106871741D01*
X175299998Y-106842651D01*
X175299998Y-106842654D01*
X175300011Y-106842649D01*
X175307444Y-106841625D01*
X175346952Y-106836176D01*
X175346952Y-106836175D01*
X176197566Y-106718855D01*
X176197732Y-106718880D01*
X176349197Y-106697988D01*
X176461841Y-106682451D01*
X176814150Y-106603766D01*
X176881666Y-106588687D01*
X176881669Y-106588686D01*
X176881688Y-106588682D01*
X177292358Y-106460562D01*
X177691045Y-106298967D01*
X178075025Y-106105000D01*
X178441676Y-105879987D01*
X178788494Y-105625464D01*
X179113108Y-105343171D01*
X179413303Y-105035036D01*
X179587417Y-104823933D01*
X182257648Y-104823933D01*
X182373489Y-105663807D01*
X182373492Y-105663820D01*
X182387968Y-105721924D01*
X182456149Y-105848511D01*
X182456151Y-105848514D01*
X182557226Y-105950755D01*
X182683022Y-106020386D01*
X182683026Y-106020388D01*
X182823339Y-106051755D01*
X182823346Y-106051756D01*
X182883193Y-106049961D01*
X182883206Y-106049960D01*
X183227767Y-106002435D01*
X183227768Y-106002435D01*
X183050146Y-104714627D01*
X182257649Y-104823933D01*
X182257648Y-104823933D01*
X179587417Y-104823933D01*
X179687026Y-104703163D01*
X179932408Y-104349819D01*
X180147773Y-103977419D01*
X180331651Y-103588506D01*
X180482783Y-103185737D01*
X180600139Y-102771863D01*
X180682917Y-102349711D01*
X180730551Y-101922166D01*
X180742715Y-101492147D01*
X180724737Y-101161949D01*
X180740748Y-101093941D01*
X180790987Y-101045383D01*
X180831609Y-101032373D01*
X180903193Y-101022500D01*
X180972293Y-101032840D01*
X181024833Y-101078897D01*
X181044133Y-101146048D01*
X181041675Y-101169916D01*
X181023355Y-101260503D01*
X181026610Y-101391391D01*
X181250289Y-103013134D01*
X181282589Y-103140023D01*
X181356580Y-103284373D01*
X181362302Y-103295535D01*
X181362306Y-103295542D01*
X181439609Y-103387681D01*
X181474625Y-103429418D01*
X181604248Y-103527619D01*
X181613924Y-103534949D01*
X181773203Y-103606831D01*
X181773205Y-103606832D01*
X181861283Y-103624644D01*
X181944495Y-103641473D01*
X181983266Y-103640508D01*
X182050773Y-103658519D01*
X182097827Y-103710169D01*
X182109186Y-103747528D01*
X182189334Y-104328622D01*
X183063849Y-104208005D01*
X183079533Y-104217060D01*
X183155833Y-104237504D01*
X183204340Y-104237504D01*
X183228291Y-104258499D01*
X183246429Y-104307996D01*
X183263645Y-104432814D01*
X183388462Y-104415599D01*
X183457562Y-104425939D01*
X183510103Y-104471996D01*
X183528242Y-104521494D01*
X183723078Y-105934119D01*
X184031558Y-105891573D01*
X184100658Y-105901913D01*
X184153198Y-105947970D01*
X184172500Y-106014410D01*
X184172500Y-108854747D01*
X184172500Y-108945253D01*
X184191955Y-108992222D01*
X184207136Y-109028870D01*
X185407135Y-110228868D01*
X185471132Y-110292865D01*
X185554747Y-110327500D01*
X185848107Y-110327500D01*
X185882701Y-110332423D01*
X185934931Y-110347598D01*
X185971806Y-110350500D01*
X187138000Y-110350500D01*
X187205039Y-110370185D01*
X187250794Y-110422989D01*
X187262000Y-110474500D01*
X187262000Y-110715701D01*
X187264901Y-110752567D01*
X187264902Y-110752573D01*
X187310754Y-110910393D01*
X187310755Y-110910396D01*
X187310756Y-110910398D01*
X187325825Y-110935878D01*
X187394417Y-111051862D01*
X187394423Y-111051870D01*
X187510629Y-111168076D01*
X187510633Y-111168079D01*
X187510635Y-111168081D01*
X187652102Y-111251744D01*
X187693724Y-111263836D01*
X187809926Y-111297597D01*
X187809929Y-111297597D01*
X187809931Y-111297598D01*
X187846806Y-111300500D01*
X188148500Y-111300500D01*
X188215539Y-111320185D01*
X188261294Y-111372989D01*
X188272500Y-111424500D01*
X188272500Y-114005253D01*
X188307136Y-114088870D01*
X189807707Y-115589440D01*
X189841192Y-115650763D01*
X189836208Y-115720455D01*
X189820345Y-115750005D01*
X189762736Y-115829298D01*
X189762735Y-115829300D01*
X189651939Y-116046750D01*
X189576520Y-116278865D01*
X189538342Y-116519911D01*
X189538342Y-116763964D01*
X189569453Y-116960393D01*
X189576521Y-117005014D01*
X189651938Y-117237123D01*
X189760794Y-117450766D01*
X189762738Y-117454580D01*
X189906181Y-117652014D01*
X189906185Y-117652019D01*
X190078760Y-117824594D01*
X190078765Y-117824598D01*
X190168242Y-117889606D01*
X190276203Y-117968044D01*
X190493657Y-118078842D01*
X190725766Y-118154259D01*
X190966815Y-118192438D01*
X190966816Y-118192438D01*
X191210868Y-118192438D01*
X191210869Y-118192438D01*
X191451918Y-118154259D01*
X191684027Y-118078842D01*
X191769204Y-118035441D01*
X191837874Y-118022545D01*
X191902614Y-118048821D01*
X191942872Y-118105927D01*
X191949500Y-118145926D01*
X191949500Y-118283771D01*
X191982182Y-118448074D01*
X191982185Y-118448087D01*
X191987968Y-118462046D01*
X191995438Y-118531515D01*
X191964164Y-118593995D01*
X191904076Y-118629648D01*
X191873408Y-118633500D01*
X183331081Y-118633500D01*
X183264042Y-118613815D01*
X183243400Y-118597181D01*
X181248939Y-116602720D01*
X181166130Y-116519911D01*
X184458342Y-116519911D01*
X184458342Y-116763964D01*
X184489453Y-116960393D01*
X184496521Y-117005014D01*
X184571938Y-117237123D01*
X184680794Y-117450766D01*
X184682738Y-117454580D01*
X184826181Y-117652014D01*
X184826185Y-117652019D01*
X184998760Y-117824594D01*
X184998765Y-117824598D01*
X185088242Y-117889606D01*
X185196203Y-117968044D01*
X185413657Y-118078842D01*
X185645766Y-118154259D01*
X185886815Y-118192438D01*
X185886816Y-118192438D01*
X186130868Y-118192438D01*
X186130869Y-118192438D01*
X186371918Y-118154259D01*
X186604027Y-118078842D01*
X186821481Y-117968044D01*
X187018925Y-117824593D01*
X187191497Y-117652021D01*
X187334948Y-117454577D01*
X187445746Y-117237123D01*
X187521163Y-117005014D01*
X187559342Y-116763965D01*
X187559342Y-116519911D01*
X187521163Y-116278862D01*
X187445746Y-116046753D01*
X187334948Y-115829299D01*
X187256081Y-115720747D01*
X187191502Y-115631861D01*
X187191498Y-115631856D01*
X187018923Y-115459281D01*
X187018918Y-115459277D01*
X186821484Y-115315834D01*
X186821483Y-115315833D01*
X186821481Y-115315832D01*
X186604027Y-115205034D01*
X186371918Y-115129617D01*
X186371916Y-115129616D01*
X186371914Y-115129616D01*
X186166257Y-115097043D01*
X186130869Y-115091438D01*
X185886815Y-115091438D01*
X185851427Y-115097043D01*
X185645769Y-115129616D01*
X185413654Y-115205035D01*
X185196199Y-115315834D01*
X184998765Y-115459277D01*
X184998760Y-115459281D01*
X184826185Y-115631856D01*
X184826181Y-115631861D01*
X184682738Y-115829295D01*
X184571939Y-116046750D01*
X184496520Y-116278865D01*
X184458342Y-116519911D01*
X181166130Y-116519911D01*
X170797356Y-106151136D01*
X170780669Y-106144224D01*
X170713739Y-106116500D01*
X164703458Y-106116500D01*
X164636419Y-106096815D01*
X164615777Y-106080181D01*
X161591819Y-103056223D01*
X161558334Y-102994900D01*
X161555500Y-102968542D01*
X161555500Y-100318886D01*
X161555500Y-100318885D01*
X161520865Y-100235270D01*
X161456868Y-100171273D01*
X160513819Y-99228224D01*
X160480334Y-99166901D01*
X160477500Y-99140543D01*
X160477500Y-97937780D01*
X160477500Y-97937779D01*
X160442865Y-97854164D01*
X160378868Y-97790167D01*
X159888690Y-97299989D01*
X159395838Y-96807136D01*
X159385406Y-96802815D01*
X159312221Y-96772500D01*
X154156021Y-96772500D01*
X154088982Y-96752815D01*
X154043227Y-96700011D01*
X154038090Y-96686818D01*
X154022749Y-96639603D01*
X153976904Y-96498506D01*
X153866106Y-96281052D01*
X153843182Y-96249500D01*
X153722660Y-96083614D01*
X153722656Y-96083609D01*
X153550081Y-95911034D01*
X153550076Y-95911030D01*
X153352642Y-95767587D01*
X153352641Y-95767586D01*
X153352639Y-95767585D01*
X153135185Y-95656787D01*
X152903076Y-95581370D01*
X152903074Y-95581369D01*
X152903072Y-95581369D01*
X152738691Y-95555333D01*
X152697666Y-95548835D01*
X152634532Y-95518907D01*
X152597601Y-95459595D01*
X152598599Y-95389733D01*
X152637209Y-95331500D01*
X152701173Y-95303386D01*
X152717065Y-95302363D01*
X168464588Y-95302363D01*
X168531627Y-95322048D01*
G37*
%TD.AperFunction*%
%TA.AperFunction,Conductor*%
G36*
X123243334Y-110020548D02*
G01*
X123287681Y-110049049D01*
X123381344Y-110142712D01*
X123530666Y-110234814D01*
X123697203Y-110289999D01*
X123799991Y-110300500D01*
X123848500Y-110300499D01*
X123915537Y-110320182D01*
X123961293Y-110372985D01*
X123972500Y-110424499D01*
X123972500Y-111016852D01*
X123952815Y-111083891D01*
X123936181Y-111104533D01*
X123306644Y-111734069D01*
X123266423Y-111760946D01*
X123257059Y-111764825D01*
X123117758Y-111857902D01*
X122999294Y-111976366D01*
X122906217Y-112115667D01*
X122901340Y-112127441D01*
X122896716Y-112134361D01*
X122895622Y-112139395D01*
X122874475Y-112167652D01*
X122871139Y-112170989D01*
X122807137Y-112234991D01*
X122807136Y-112234991D01*
X122772500Y-112318608D01*
X122772500Y-117151404D01*
X122752815Y-117218443D01*
X122700011Y-117264198D01*
X122630853Y-117274142D01*
X122567297Y-117245117D01*
X122560819Y-117239085D01*
X121676393Y-116354659D01*
X121642908Y-116293336D01*
X121647892Y-116223644D01*
X121653589Y-116210683D01*
X121655048Y-116207820D01*
X121655051Y-116207816D01*
X121751557Y-116018412D01*
X121817246Y-115816243D01*
X121850500Y-115606287D01*
X121850500Y-115393713D01*
X121817246Y-115183757D01*
X121751557Y-114981588D01*
X121655051Y-114792184D01*
X121655050Y-114792183D01*
X121653589Y-114789315D01*
X121640693Y-114720646D01*
X121666969Y-114655905D01*
X121676393Y-114645339D01*
X122020286Y-114301447D01*
X122392865Y-113928868D01*
X122427500Y-113845253D01*
X122427500Y-113754747D01*
X122427500Y-110424499D01*
X122447185Y-110357460D01*
X122499989Y-110311705D01*
X122551500Y-110300499D01*
X122600002Y-110300499D01*
X122600008Y-110300499D01*
X122702797Y-110289999D01*
X122869334Y-110234814D01*
X123018656Y-110142712D01*
X123112319Y-110049049D01*
X123173642Y-110015564D01*
X123243334Y-110020548D01*
G37*
%TD.AperFunction*%
%TA.AperFunction,Conductor*%
G36*
X189634230Y-111097480D02*
G01*
X189660590Y-111099365D01*
X189669645Y-111105184D01*
X189676686Y-111106716D01*
X189704940Y-111127867D01*
X189786699Y-111209626D01*
X189849735Y-111251745D01*
X189925999Y-111302703D01*
X189926000Y-111302703D01*
X189926001Y-111302704D01*
X189940641Y-111308768D01*
X190080780Y-111366816D01*
X190242496Y-111398983D01*
X190245090Y-111399499D01*
X190245094Y-111399500D01*
X190245095Y-111399500D01*
X190412630Y-111399500D01*
X190412631Y-111399499D01*
X190576944Y-111366816D01*
X190675762Y-111325883D01*
X190745228Y-111318414D01*
X190807707Y-111349688D01*
X190810894Y-111352763D01*
X192536181Y-113078050D01*
X192569666Y-113139373D01*
X192572500Y-113165731D01*
X192572500Y-115664517D01*
X192552815Y-115731556D01*
X192500011Y-115777311D01*
X192430853Y-115787255D01*
X192367297Y-115758230D01*
X192348182Y-115737402D01*
X192271502Y-115631861D01*
X192271498Y-115631856D01*
X192098923Y-115459281D01*
X192098918Y-115459277D01*
X191901484Y-115315834D01*
X191901483Y-115315833D01*
X191901481Y-115315832D01*
X191684027Y-115205034D01*
X191451918Y-115129617D01*
X191451916Y-115129616D01*
X191451914Y-115129616D01*
X191246257Y-115097043D01*
X191210869Y-115091438D01*
X190966815Y-115091438D01*
X190931427Y-115097043D01*
X190725769Y-115129616D01*
X190493654Y-115205035D01*
X190411021Y-115247139D01*
X190317391Y-115294846D01*
X190291131Y-115308226D01*
X190222462Y-115321122D01*
X190157721Y-115294846D01*
X190147155Y-115285422D01*
X188763819Y-113902086D01*
X188730334Y-113840763D01*
X188727500Y-113814405D01*
X188727500Y-111424500D01*
X188747185Y-111357461D01*
X188799989Y-111311706D01*
X188851500Y-111300500D01*
X189153186Y-111300500D01*
X189153194Y-111300500D01*
X189190069Y-111297598D01*
X189190071Y-111297597D01*
X189190073Y-111297597D01*
X189244377Y-111281820D01*
X189347898Y-111251744D01*
X189489365Y-111168081D01*
X189529578Y-111127867D01*
X189537522Y-111123529D01*
X189542949Y-111116281D01*
X189567704Y-111107047D01*
X189590898Y-111094382D01*
X189599930Y-111095027D01*
X189608413Y-111091864D01*
X189634230Y-111097480D01*
G37*
%TD.AperFunction*%
%TA.AperFunction,Conductor*%
G36*
X218606932Y-110747185D02*
G01*
X218652687Y-110799989D01*
X218657822Y-110813178D01*
X218662204Y-110826662D01*
X218697689Y-110935878D01*
X218697691Y-110935881D01*
X218778833Y-111095132D01*
X218883889Y-111239728D01*
X219010272Y-111366111D01*
X219154868Y-111471167D01*
X219314119Y-111552309D01*
X219314121Y-111552310D01*
X219472670Y-111603825D01*
X219484103Y-111607540D01*
X219610295Y-111627527D01*
X219673430Y-111657456D01*
X219710361Y-111716768D01*
X219709363Y-111786630D01*
X219670753Y-111844863D01*
X219610295Y-111872473D01*
X219484101Y-111892460D01*
X219484098Y-111892460D01*
X219314121Y-111947689D01*
X219314118Y-111947691D01*
X219154867Y-112028833D01*
X219010270Y-112133890D01*
X218883890Y-112260270D01*
X218778833Y-112404867D01*
X218697691Y-112564118D01*
X218697689Y-112564121D01*
X218657824Y-112686818D01*
X218618387Y-112744493D01*
X218554029Y-112771692D01*
X218539893Y-112772500D01*
X209521402Y-112772500D01*
X209462004Y-112797103D01*
X209392534Y-112804570D01*
X209330056Y-112773294D01*
X209294404Y-112713205D01*
X209296899Y-112643380D01*
X209326870Y-112594863D01*
X211157915Y-110763819D01*
X211219238Y-110730334D01*
X211245596Y-110727500D01*
X218539893Y-110727500D01*
X218606932Y-110747185D01*
G37*
%TD.AperFunction*%
%TA.AperFunction,Conductor*%
G36*
X184950962Y-102473773D02*
G01*
X184958002Y-102472582D01*
X184983985Y-102483676D01*
X185011050Y-102491792D01*
X185015694Y-102497214D01*
X185022260Y-102500018D01*
X185038122Y-102523400D01*
X185056501Y-102544858D01*
X185059310Y-102554632D01*
X185061485Y-102557838D01*
X185066250Y-102578779D01*
X185085181Y-102716038D01*
X185085177Y-102716059D01*
X185121557Y-102979820D01*
X185121561Y-102979845D01*
X185215323Y-103399660D01*
X185215327Y-103399676D01*
X185343447Y-103810347D01*
X185343449Y-103810352D01*
X185343450Y-103810355D01*
X185437216Y-104041695D01*
X185505048Y-104209049D01*
X185505048Y-104209050D01*
X185699016Y-104593029D01*
X185850288Y-104839520D01*
X185924031Y-104959681D01*
X186178556Y-105306500D01*
X186340449Y-105492663D01*
X186419597Y-105583677D01*
X186460852Y-105631116D01*
X186768992Y-105931311D01*
X186995348Y-106118003D01*
X187100875Y-106205039D01*
X187445531Y-106444385D01*
X187454216Y-106450416D01*
X187454230Y-106450424D01*
X187826613Y-106665778D01*
X187826629Y-106665786D01*
X188215531Y-106849653D01*
X188215543Y-106849658D01*
X188618297Y-107000781D01*
X188618301Y-107000782D01*
X188618311Y-107000786D01*
X189032189Y-107118139D01*
X189454345Y-107200913D01*
X189881894Y-107248543D01*
X190120795Y-107255298D01*
X190311904Y-107260703D01*
X190311908Y-107260702D01*
X190311916Y-107260703D01*
X190741473Y-107237309D01*
X190915043Y-107213366D01*
X190915044Y-107213367D01*
X193974360Y-106791353D01*
X194043459Y-106801692D01*
X194096000Y-106847748D01*
X194115301Y-106914899D01*
X194095233Y-106981825D01*
X194042168Y-107027277D01*
X194029622Y-107032121D01*
X193922760Y-107066842D01*
X193705307Y-107177641D01*
X193507873Y-107321084D01*
X193507868Y-107321088D01*
X193335293Y-107493663D01*
X193335289Y-107493668D01*
X193191846Y-107691102D01*
X193081047Y-107908557D01*
X193005628Y-108140671D01*
X192985478Y-108267898D01*
X192955549Y-108331032D01*
X192896238Y-108367964D01*
X192863005Y-108372500D01*
X189835483Y-108372500D01*
X189768444Y-108352815D01*
X189722689Y-108300011D01*
X189716407Y-108283095D01*
X189689245Y-108189606D01*
X189689244Y-108189603D01*
X189689244Y-108189602D01*
X189605581Y-108048135D01*
X189605579Y-108048133D01*
X189605576Y-108048129D01*
X189489370Y-107931923D01*
X189489362Y-107931917D01*
X189347896Y-107848255D01*
X189347893Y-107848254D01*
X189190073Y-107802402D01*
X189190067Y-107802401D01*
X189153201Y-107799500D01*
X189153194Y-107799500D01*
X187846806Y-107799500D01*
X187846798Y-107799500D01*
X187809932Y-107802401D01*
X187809926Y-107802402D01*
X187652106Y-107848254D01*
X187652103Y-107848255D01*
X187510637Y-107931917D01*
X187510629Y-107931923D01*
X187394423Y-108048129D01*
X187394417Y-108048137D01*
X187310755Y-108189603D01*
X187310754Y-108189606D01*
X187264902Y-108347426D01*
X187264901Y-108347432D01*
X187262000Y-108384298D01*
X187262000Y-108625500D01*
X187242315Y-108692539D01*
X187189511Y-108738294D01*
X187138000Y-108749500D01*
X185971798Y-108749500D01*
X185934932Y-108752401D01*
X185934926Y-108752402D01*
X185777106Y-108798254D01*
X185777103Y-108798255D01*
X185635637Y-108881917D01*
X185635629Y-108881923D01*
X185519423Y-108998129D01*
X185519417Y-108998137D01*
X185435755Y-109139603D01*
X185435754Y-109139606D01*
X185388134Y-109303515D01*
X185385982Y-109302889D01*
X185359159Y-109356186D01*
X185298993Y-109391708D01*
X185229173Y-109389062D01*
X185180907Y-109359174D01*
X184663819Y-108842086D01*
X184630334Y-108780763D01*
X184627500Y-108754405D01*
X184627500Y-103354748D01*
X184627500Y-103354747D01*
X184610590Y-103313923D01*
X184592866Y-103271132D01*
X184591016Y-103269282D01*
X184585455Y-103256580D01*
X184582359Y-103232359D01*
X184575064Y-103209062D01*
X184578009Y-103198322D01*
X184576598Y-103187274D01*
X184587087Y-103165227D01*
X184593546Y-103141682D01*
X184604526Y-103127446D01*
X184604515Y-103127438D01*
X184606001Y-103125476D01*
X184606617Y-103124182D01*
X184607305Y-103123754D01*
X184608718Y-103121888D01*
X184608720Y-103121887D01*
X184714249Y-102982591D01*
X184786134Y-102823306D01*
X184820775Y-102652017D01*
X184819451Y-102598802D01*
X184826734Y-102571506D01*
X184830916Y-102543563D01*
X184835622Y-102538193D01*
X184837463Y-102531297D01*
X184858346Y-102512271D01*
X184876974Y-102491022D01*
X184883835Y-102489050D01*
X184889112Y-102484243D01*
X184916968Y-102479527D01*
X184944125Y-102471723D01*
X184950962Y-102473773D01*
G37*
%TD.AperFunction*%
%TA.AperFunction,Conductor*%
G36*
X147349974Y-95322048D02*
G01*
X147395729Y-95374852D01*
X147405673Y-95444010D01*
X147376648Y-95507566D01*
X147317870Y-95545340D01*
X147302334Y-95548835D01*
X147271851Y-95553663D01*
X147096927Y-95581369D01*
X146864812Y-95656788D01*
X146647357Y-95767587D01*
X146449923Y-95911030D01*
X146449918Y-95911034D01*
X146277343Y-96083609D01*
X146277339Y-96083614D01*
X146133896Y-96281048D01*
X146023097Y-96498501D01*
X145946173Y-96735249D01*
X145944308Y-96734643D01*
X145913644Y-96788043D01*
X145851616Y-96820204D01*
X145827865Y-96822500D01*
X139772983Y-96822500D01*
X139705944Y-96802815D01*
X139660189Y-96750011D01*
X139653907Y-96733095D01*
X139626745Y-96639606D01*
X139626744Y-96639603D01*
X139626744Y-96639602D01*
X139543081Y-96498135D01*
X139543079Y-96498133D01*
X139543076Y-96498129D01*
X139426870Y-96381923D01*
X139426862Y-96381917D01*
X139285396Y-96298255D01*
X139285393Y-96298254D01*
X139127573Y-96252402D01*
X139127567Y-96252401D01*
X139090701Y-96249500D01*
X139090694Y-96249500D01*
X137784306Y-96249500D01*
X137784298Y-96249500D01*
X137747432Y-96252401D01*
X137747426Y-96252402D01*
X137589606Y-96298254D01*
X137589603Y-96298255D01*
X137448137Y-96381917D01*
X137448129Y-96381923D01*
X137331923Y-96498129D01*
X137331917Y-96498137D01*
X137248255Y-96639603D01*
X137248254Y-96639606D01*
X137202402Y-96797426D01*
X137202401Y-96797432D01*
X137199500Y-96834298D01*
X137199500Y-97075500D01*
X137179815Y-97142539D01*
X137127011Y-97188294D01*
X137075500Y-97199500D01*
X135909298Y-97199500D01*
X135872432Y-97202401D01*
X135872426Y-97202402D01*
X135714606Y-97248254D01*
X135714603Y-97248255D01*
X135573137Y-97331917D01*
X135573129Y-97331923D01*
X135456923Y-97448129D01*
X135456917Y-97448137D01*
X135373255Y-97589603D01*
X135373254Y-97589606D01*
X135327402Y-97747426D01*
X135327401Y-97747432D01*
X135324500Y-97784298D01*
X135324500Y-98215701D01*
X135327401Y-98252567D01*
X135327402Y-98252573D01*
X135373254Y-98410393D01*
X135373255Y-98410396D01*
X135373256Y-98410398D01*
X135378813Y-98419794D01*
X135456917Y-98551862D01*
X135456923Y-98551870D01*
X135573129Y-98668076D01*
X135573133Y-98668079D01*
X135573135Y-98668081D01*
X135714602Y-98751744D01*
X135756224Y-98763836D01*
X135872426Y-98797597D01*
X135872429Y-98797597D01*
X135872431Y-98797598D01*
X135909306Y-98800500D01*
X137075500Y-98800500D01*
X137142539Y-98820185D01*
X137188294Y-98872989D01*
X137199500Y-98924500D01*
X137199500Y-99165701D01*
X137202401Y-99202567D01*
X137202402Y-99202573D01*
X137248254Y-99360393D01*
X137248255Y-99360396D01*
X137331917Y-99501862D01*
X137331923Y-99501870D01*
X137448129Y-99618076D01*
X137448133Y-99618079D01*
X137448135Y-99618081D01*
X137589602Y-99701744D01*
X137631224Y-99713836D01*
X137747426Y-99747597D01*
X137747429Y-99747597D01*
X137747431Y-99747598D01*
X137784306Y-99750500D01*
X138823715Y-99750500D01*
X138890754Y-99770185D01*
X138911396Y-99786819D01*
X143719689Y-104595113D01*
X143753174Y-104656436D01*
X143748190Y-104726128D01*
X143732329Y-104755675D01*
X143713896Y-104781047D01*
X143603097Y-104998502D01*
X143527678Y-105230617D01*
X143489499Y-105471665D01*
X143489117Y-105476526D01*
X143487160Y-105476371D01*
X143484436Y-105485646D01*
X143484395Y-105503617D01*
X143474797Y-105518474D01*
X143469815Y-105535443D01*
X143456235Y-105547209D01*
X143446484Y-105562306D01*
X143430376Y-105569616D01*
X143417011Y-105581198D01*
X143399225Y-105583755D01*
X143382860Y-105591183D01*
X143365358Y-105588624D01*
X143347853Y-105591142D01*
X143331507Y-105583677D01*
X143313725Y-105581078D01*
X143290658Y-105565022D01*
X143284297Y-105562117D01*
X143284079Y-105561927D01*
X143280840Y-105559107D01*
X143244592Y-105522859D01*
X143234314Y-105518601D01*
X143219046Y-105505309D01*
X143217194Y-105502413D01*
X143212786Y-105499467D01*
X143170819Y-105457500D01*
X143137334Y-105396177D01*
X143134500Y-105369819D01*
X143134500Y-104506300D01*
X143134500Y-104506299D01*
X143116632Y-104463162D01*
X143099866Y-104422684D01*
X141172316Y-102495135D01*
X141088701Y-102460500D01*
X137339023Y-102460500D01*
X137339020Y-102460500D01*
X137260889Y-102492863D01*
X137260890Y-102492864D01*
X137255407Y-102495135D01*
X137255405Y-102495136D01*
X132764362Y-106986181D01*
X132703039Y-107019666D01*
X132676681Y-107022500D01*
X122145595Y-107022500D01*
X122078556Y-107002815D01*
X122057914Y-106986181D01*
X119063819Y-103992086D01*
X119030334Y-103930763D01*
X119027500Y-103904405D01*
X119027500Y-102428953D01*
X119027500Y-102428952D01*
X118992865Y-102345337D01*
X118928868Y-102281340D01*
X118903700Y-102256172D01*
X118870215Y-102194849D01*
X118868544Y-102151555D01*
X118973391Y-101391390D01*
X118976646Y-101260503D01*
X118958326Y-101169916D01*
X118960858Y-101140560D01*
X118960689Y-101111086D01*
X118963826Y-101106141D01*
X118964330Y-101100308D01*
X118982333Y-101076977D01*
X118998126Y-101052092D01*
X119003438Y-101049628D01*
X119007016Y-101044993D01*
X119034773Y-101035100D01*
X119061514Y-101022703D01*
X119069693Y-101022656D01*
X119072831Y-101021538D01*
X119096800Y-101022500D01*
X119179628Y-101033924D01*
X119243348Y-101062584D01*
X119281459Y-101121144D01*
X119286675Y-101158247D01*
X119282336Y-101520214D01*
X119314637Y-101961564D01*
X119314638Y-101961579D01*
X119384311Y-102398587D01*
X119490850Y-102828101D01*
X119490854Y-102828116D01*
X119633487Y-103247014D01*
X119633494Y-103247033D01*
X119811195Y-103652307D01*
X119811197Y-103652310D01*
X119897180Y-103810352D01*
X119993404Y-103987218D01*
X120022686Y-104041039D01*
X120266429Y-104410400D01*
X120540665Y-104757722D01*
X120843412Y-105080495D01*
X120843415Y-105080498D01*
X120914339Y-105144271D01*
X121172480Y-105376387D01*
X121172491Y-105376395D01*
X121172493Y-105376397D01*
X121204375Y-105400499D01*
X121525492Y-105643258D01*
X121899897Y-105879180D01*
X122049929Y-105956762D01*
X122277446Y-106074412D01*
X122292987Y-106082448D01*
X122564268Y-106194655D01*
X122665650Y-106236589D01*
X122701923Y-106251592D01*
X123123748Y-106385390D01*
X123555413Y-106482875D01*
X123555417Y-106482875D01*
X123555419Y-106482876D01*
X123606416Y-106489913D01*
X123723698Y-106506098D01*
X123723703Y-106506099D01*
X123735092Y-106507672D01*
X123735097Y-106507675D01*
X123770503Y-106512557D01*
X123774603Y-106513123D01*
X123774603Y-106513124D01*
X123814111Y-106518573D01*
X123814111Y-106518572D01*
X123869991Y-106526280D01*
X123869997Y-106526280D01*
X124678543Y-106637798D01*
X124678673Y-106637856D01*
X124728897Y-106644784D01*
X124728897Y-106644785D01*
X124947570Y-106674950D01*
X124947587Y-106674950D01*
X124947588Y-106674951D01*
X124969117Y-106676075D01*
X125388456Y-106697989D01*
X125829709Y-106683584D01*
X125829725Y-106683582D01*
X125829727Y-106683582D01*
X125980514Y-106665786D01*
X126268153Y-106631839D01*
X126700636Y-106543127D01*
X127124046Y-106418086D01*
X127535337Y-106257614D01*
X127931550Y-106062867D01*
X128309836Y-105835246D01*
X128667472Y-105576388D01*
X129001886Y-105288154D01*
X129310673Y-104972619D01*
X129591610Y-104632053D01*
X129842678Y-104268905D01*
X130062069Y-103885788D01*
X130248206Y-103485458D01*
X130399750Y-103070794D01*
X130515610Y-102644780D01*
X130551645Y-102447499D01*
X130555275Y-102427629D01*
X130562442Y-102388397D01*
X130562438Y-102388383D01*
X130563702Y-102381462D01*
X130665665Y-101823356D01*
X130861517Y-100610520D01*
X130868904Y-100557914D01*
X131032349Y-99393903D01*
X131178083Y-98174047D01*
X131298663Y-96951441D01*
X131307784Y-96834306D01*
X131394038Y-95726580D01*
X131411606Y-95419283D01*
X131435085Y-95353479D01*
X131490414Y-95310812D01*
X131535404Y-95302363D01*
X147282935Y-95302363D01*
X147349974Y-95322048D01*
G37*
%TD.AperFunction*%
%TA.AperFunction,Conductor*%
G36*
X144171444Y-98247185D02*
G01*
X144192086Y-98263819D01*
X145257135Y-99328868D01*
X145321132Y-99392865D01*
X145404747Y-99427500D01*
X152051404Y-99427500D01*
X152118443Y-99447185D01*
X152164198Y-99499989D01*
X152174142Y-99569147D01*
X152145117Y-99632703D01*
X152139085Y-99639181D01*
X151905278Y-99872989D01*
X151771132Y-100007135D01*
X151707135Y-100071132D01*
X151699213Y-100090258D01*
X151672500Y-100154746D01*
X151672500Y-101075500D01*
X151652815Y-101142539D01*
X151600011Y-101188294D01*
X151548501Y-101199500D01*
X151399999Y-101199500D01*
X151399980Y-101199501D01*
X151297203Y-101210000D01*
X151297200Y-101210001D01*
X151130668Y-101265185D01*
X151130663Y-101265187D01*
X150981342Y-101357289D01*
X150857289Y-101481342D01*
X150765187Y-101630663D01*
X150765186Y-101630666D01*
X150710001Y-101797203D01*
X150710001Y-101797204D01*
X150710000Y-101797204D01*
X150699500Y-101899983D01*
X150699500Y-102700001D01*
X150699501Y-102700019D01*
X150710000Y-102802796D01*
X150710001Y-102802799D01*
X150765185Y-102969331D01*
X150765187Y-102969336D01*
X150771654Y-102979820D01*
X150827762Y-103070787D01*
X150857289Y-103118657D01*
X150950951Y-103212319D01*
X150984436Y-103273642D01*
X150979452Y-103343334D01*
X150950951Y-103387681D01*
X150857289Y-103481342D01*
X150765187Y-103630663D01*
X150765185Y-103630668D01*
X150743058Y-103697444D01*
X150710001Y-103797203D01*
X150710001Y-103797204D01*
X150710000Y-103797204D01*
X150699500Y-103899983D01*
X150699500Y-104700001D01*
X150699501Y-104700019D01*
X150710000Y-104802796D01*
X150710001Y-104802799D01*
X150765185Y-104969331D01*
X150765187Y-104969336D01*
X150767212Y-104972619D01*
X150857288Y-105118656D01*
X150981344Y-105242712D01*
X151130666Y-105334814D01*
X151297203Y-105389999D01*
X151399991Y-105400500D01*
X152400008Y-105400499D01*
X152400016Y-105400498D01*
X152400019Y-105400498D01*
X152456302Y-105394748D01*
X152502797Y-105389999D01*
X152669334Y-105334814D01*
X152818656Y-105242712D01*
X152942712Y-105118656D01*
X153034814Y-104969334D01*
X153089999Y-104802797D01*
X153100500Y-104700009D01*
X153100499Y-103899992D01*
X153100296Y-103898008D01*
X153089999Y-103797203D01*
X153089998Y-103797200D01*
X153076955Y-103757838D01*
X153034814Y-103630666D01*
X152942712Y-103481344D01*
X152849049Y-103387681D01*
X152815564Y-103326358D01*
X152820548Y-103256666D01*
X152849049Y-103212319D01*
X152875650Y-103185718D01*
X152942712Y-103118656D01*
X153034814Y-102969334D01*
X153089999Y-102802797D01*
X153100500Y-102700009D01*
X153100499Y-101899992D01*
X153089999Y-101797203D01*
X153034814Y-101630666D01*
X152942712Y-101481344D01*
X152818656Y-101357288D01*
X152669334Y-101265186D01*
X152502797Y-101210001D01*
X152502795Y-101210000D01*
X152400016Y-101199500D01*
X152400009Y-101199500D01*
X152251500Y-101199500D01*
X152184461Y-101179815D01*
X152138706Y-101127011D01*
X152127500Y-101075500D01*
X152127500Y-100345595D01*
X152147185Y-100278556D01*
X152163819Y-100257914D01*
X152957915Y-99463819D01*
X153019238Y-99430334D01*
X153045596Y-99427500D01*
X155812642Y-99427500D01*
X155879681Y-99447185D01*
X155919372Y-99488377D01*
X155938547Y-99520800D01*
X155956918Y-99551864D01*
X155956923Y-99551870D01*
X156073129Y-99668076D01*
X156073133Y-99668079D01*
X156073135Y-99668081D01*
X156214602Y-99751744D01*
X156256224Y-99763836D01*
X156372426Y-99797597D01*
X156372429Y-99797597D01*
X156372431Y-99797598D01*
X156409306Y-99800500D01*
X157575500Y-99800500D01*
X157642539Y-99820185D01*
X157688294Y-99872989D01*
X157699500Y-99924500D01*
X157699500Y-100165701D01*
X157702401Y-100202567D01*
X157702402Y-100202573D01*
X157748254Y-100360393D01*
X157748255Y-100360396D01*
X157831917Y-100501862D01*
X157831923Y-100501870D01*
X157948129Y-100618076D01*
X157948133Y-100618079D01*
X157948135Y-100618081D01*
X158089602Y-100701744D01*
X158131224Y-100713836D01*
X158247426Y-100747597D01*
X158247429Y-100747597D01*
X158247431Y-100747598D01*
X158284306Y-100750500D01*
X159364905Y-100750500D01*
X159431944Y-100770185D01*
X159452586Y-100786819D01*
X159776181Y-101110414D01*
X159809666Y-101171737D01*
X159812500Y-101198095D01*
X159812500Y-103953989D01*
X159792815Y-104021028D01*
X159740011Y-104066783D01*
X159707901Y-104076462D01*
X159684092Y-104080233D01*
X159676924Y-104081369D01*
X159444815Y-104156786D01*
X159444812Y-104156787D01*
X159227357Y-104267586D01*
X159029923Y-104411029D01*
X159029918Y-104411033D01*
X158857343Y-104583608D01*
X158857339Y-104583613D01*
X158713896Y-104781047D01*
X158603097Y-104998502D01*
X158527678Y-105230617D01*
X158489500Y-105471663D01*
X158489500Y-105715716D01*
X158526285Y-105947970D01*
X158527679Y-105956766D01*
X158603096Y-106188875D01*
X158708496Y-106395735D01*
X158713896Y-106406332D01*
X158836886Y-106575615D01*
X158860366Y-106641421D01*
X158844540Y-106709475D01*
X158794434Y-106758170D01*
X158736568Y-106772500D01*
X156263432Y-106772500D01*
X156196393Y-106752815D01*
X156150638Y-106700011D01*
X156140694Y-106630853D01*
X156163114Y-106575615D01*
X156246702Y-106460564D01*
X156286106Y-106406329D01*
X156396904Y-106188875D01*
X156472321Y-105956766D01*
X156510500Y-105715717D01*
X156510500Y-105471663D01*
X156472321Y-105230614D01*
X156396904Y-104998505D01*
X156286106Y-104781051D01*
X156265797Y-104753098D01*
X156142660Y-104583613D01*
X156142656Y-104583608D01*
X155970081Y-104411033D01*
X155970076Y-104411029D01*
X155772642Y-104267586D01*
X155772641Y-104267585D01*
X155772639Y-104267584D01*
X155555185Y-104156786D01*
X155323076Y-104081369D01*
X155323074Y-104081368D01*
X155323072Y-104081368D01*
X155145858Y-104053300D01*
X155082027Y-104043190D01*
X154837973Y-104043190D01*
X154782093Y-104052040D01*
X154596927Y-104081368D01*
X154364812Y-104156787D01*
X154147357Y-104267586D01*
X153949923Y-104411029D01*
X153949918Y-104411033D01*
X153777343Y-104583608D01*
X153777339Y-104583613D01*
X153633896Y-104781047D01*
X153523097Y-104998502D01*
X153447678Y-105230617D01*
X153409500Y-105471663D01*
X153409500Y-105715716D01*
X153446285Y-105947970D01*
X153447679Y-105956766D01*
X153523096Y-106188875D01*
X153628496Y-106395735D01*
X153633896Y-106406332D01*
X153756886Y-106575615D01*
X153780366Y-106641421D01*
X153764540Y-106709475D01*
X153714434Y-106758170D01*
X153656568Y-106772500D01*
X146343432Y-106772500D01*
X146276393Y-106752815D01*
X146230638Y-106700011D01*
X146220694Y-106630853D01*
X146243114Y-106575615D01*
X146326702Y-106460564D01*
X146366106Y-106406329D01*
X146476904Y-106188875D01*
X146552321Y-105956766D01*
X146590500Y-105715717D01*
X146590500Y-105471663D01*
X146552321Y-105230614D01*
X146476904Y-104998505D01*
X146366106Y-104781051D01*
X146345797Y-104753098D01*
X146222660Y-104583613D01*
X146222656Y-104583608D01*
X146050081Y-104411033D01*
X146050076Y-104411029D01*
X145852642Y-104267586D01*
X145852641Y-104267585D01*
X145852639Y-104267584D01*
X145635185Y-104156786D01*
X145403076Y-104081369D01*
X145403074Y-104081368D01*
X145403072Y-104081368D01*
X145225858Y-104053300D01*
X145162027Y-104043190D01*
X144917973Y-104043190D01*
X144862093Y-104052040D01*
X144676927Y-104081368D01*
X144444812Y-104156787D01*
X144227357Y-104267586D01*
X144201985Y-104286019D01*
X144136178Y-104309496D01*
X144068125Y-104293668D01*
X144041423Y-104273379D01*
X139494176Y-99726132D01*
X139460691Y-99664809D01*
X139465675Y-99595117D01*
X139494177Y-99550769D01*
X139543076Y-99501870D01*
X139543081Y-99501865D01*
X139626744Y-99360398D01*
X139660505Y-99244191D01*
X139672597Y-99202573D01*
X139672598Y-99202567D01*
X139675499Y-99165701D01*
X139675500Y-99165694D01*
X139675500Y-98734306D01*
X139672598Y-98697431D01*
X139664071Y-98668082D01*
X139626745Y-98539606D01*
X139626744Y-98539603D01*
X139626744Y-98539602D01*
X139552831Y-98414621D01*
X139535648Y-98346897D01*
X139557808Y-98280634D01*
X139612274Y-98236871D01*
X139659563Y-98227500D01*
X144104405Y-98227500D01*
X144171444Y-98247185D01*
G37*
%TD.AperFunction*%
%TA.AperFunction,Conductor*%
G36*
X160331244Y-100164210D02*
G01*
X160367737Y-100189470D01*
X160736181Y-100557914D01*
X160769666Y-100619237D01*
X160772500Y-100645595D01*
X160772500Y-103204747D01*
X160772500Y-103295253D01*
X160804807Y-103373249D01*
X160807136Y-103378870D01*
X163989085Y-106560819D01*
X164022570Y-106622142D01*
X164017586Y-106691834D01*
X163975714Y-106747767D01*
X163910250Y-106772184D01*
X163901404Y-106772500D01*
X161343432Y-106772500D01*
X161276393Y-106752815D01*
X161230638Y-106700011D01*
X161220694Y-106630853D01*
X161243114Y-106575615D01*
X161326702Y-106460564D01*
X161366106Y-106406329D01*
X161476904Y-106188875D01*
X161552321Y-105956766D01*
X161590500Y-105715717D01*
X161590500Y-105471663D01*
X161552321Y-105230614D01*
X161476904Y-104998505D01*
X161366106Y-104781051D01*
X161345797Y-104753098D01*
X161222660Y-104583613D01*
X161222656Y-104583608D01*
X161050081Y-104411033D01*
X161050076Y-104411029D01*
X160852642Y-104267586D01*
X160852641Y-104267585D01*
X160852639Y-104267584D01*
X160635185Y-104156786D01*
X160403076Y-104081369D01*
X160391433Y-104079524D01*
X160372099Y-104076462D01*
X160308965Y-104046530D01*
X160272035Y-103987218D01*
X160267500Y-103953989D01*
X160267500Y-101007248D01*
X160267500Y-101007247D01*
X160232865Y-100923632D01*
X160168868Y-100859635D01*
X160014770Y-100705537D01*
X159981285Y-100644214D01*
X159986269Y-100574522D01*
X160014767Y-100530177D01*
X160043081Y-100501865D01*
X160126744Y-100360398D01*
X160160981Y-100242553D01*
X160198585Y-100183671D01*
X160262058Y-100154464D01*
X160331244Y-100164210D01*
G37*
%TD.AperFunction*%
%TA.AperFunction,Conductor*%
G36*
X152429974Y-95322048D02*
G01*
X152475729Y-95374852D01*
X152485673Y-95444010D01*
X152456648Y-95507566D01*
X152397870Y-95545340D01*
X152382334Y-95548835D01*
X152351851Y-95553663D01*
X152176927Y-95581369D01*
X151944812Y-95656788D01*
X151727357Y-95767587D01*
X151529923Y-95911030D01*
X151529918Y-95911034D01*
X151357343Y-96083609D01*
X151357339Y-96083614D01*
X151213896Y-96281048D01*
X151103097Y-96498503D01*
X151027678Y-96730618D01*
X150992706Y-96951420D01*
X150989500Y-96971664D01*
X150989500Y-97215718D01*
X150994654Y-97248256D01*
X151027678Y-97456763D01*
X151027678Y-97456765D01*
X151027679Y-97456767D01*
X151103096Y-97688876D01*
X151187314Y-97854164D01*
X151213896Y-97906333D01*
X151357339Y-98103767D01*
X151357343Y-98103772D01*
X151529918Y-98276347D01*
X151529923Y-98276351D01*
X151606412Y-98331923D01*
X151727361Y-98419797D01*
X151944815Y-98530595D01*
X152176924Y-98606012D01*
X152417973Y-98644191D01*
X152417974Y-98644191D01*
X152662026Y-98644191D01*
X152662027Y-98644191D01*
X152903076Y-98606012D01*
X153135185Y-98530595D01*
X153352639Y-98419797D01*
X153550083Y-98276346D01*
X153722655Y-98103774D01*
X153866106Y-97906330D01*
X153976904Y-97688876D01*
X154052321Y-97456767D01*
X154072066Y-97332100D01*
X154101995Y-97268967D01*
X154161307Y-97232036D01*
X154194539Y-97227500D01*
X157803191Y-97227500D01*
X157870230Y-97247185D01*
X157915985Y-97299989D01*
X157925929Y-97369147D01*
X157896904Y-97432703D01*
X157890872Y-97439181D01*
X157831923Y-97498129D01*
X157831917Y-97498137D01*
X157748255Y-97639603D01*
X157748254Y-97639606D01*
X157702402Y-97797426D01*
X157702401Y-97797432D01*
X157699500Y-97834298D01*
X157699500Y-98075500D01*
X157679815Y-98142539D01*
X157627011Y-98188294D01*
X157575500Y-98199500D01*
X156409298Y-98199500D01*
X156372432Y-98202401D01*
X156372426Y-98202402D01*
X156214606Y-98248254D01*
X156214603Y-98248255D01*
X156073137Y-98331917D01*
X156073129Y-98331923D01*
X155956923Y-98448129D01*
X155956917Y-98448137D01*
X155873255Y-98589603D01*
X155873254Y-98589606D01*
X155827402Y-98747426D01*
X155827401Y-98747432D01*
X155824500Y-98784298D01*
X155824500Y-98848500D01*
X155804815Y-98915539D01*
X155752011Y-98961294D01*
X155700500Y-98972500D01*
X145595595Y-98972500D01*
X145528556Y-98952815D01*
X145507914Y-98936181D01*
X144378870Y-97807136D01*
X144355428Y-97797426D01*
X144295253Y-97772500D01*
X139659563Y-97772500D01*
X139592524Y-97752815D01*
X139546769Y-97700011D01*
X139536825Y-97630853D01*
X139552831Y-97585379D01*
X139565626Y-97563742D01*
X139626744Y-97460398D01*
X139639465Y-97416610D01*
X139653907Y-97366905D01*
X139691513Y-97308019D01*
X139754986Y-97278813D01*
X139772983Y-97277500D01*
X145813380Y-97277500D01*
X145880419Y-97297185D01*
X145926174Y-97349989D01*
X145935853Y-97382102D01*
X145947678Y-97456763D01*
X145947678Y-97456765D01*
X145947679Y-97456767D01*
X146023096Y-97688876D01*
X146107314Y-97854164D01*
X146133896Y-97906333D01*
X146277339Y-98103767D01*
X146277343Y-98103772D01*
X146449918Y-98276347D01*
X146449923Y-98276351D01*
X146526412Y-98331923D01*
X146647361Y-98419797D01*
X146864815Y-98530595D01*
X147096924Y-98606012D01*
X147337973Y-98644191D01*
X147337974Y-98644191D01*
X147582026Y-98644191D01*
X147582027Y-98644191D01*
X147823076Y-98606012D01*
X148055185Y-98530595D01*
X148272639Y-98419797D01*
X148470083Y-98276346D01*
X148642655Y-98103774D01*
X148786106Y-97906330D01*
X148896904Y-97688876D01*
X148972321Y-97456767D01*
X149010500Y-97215718D01*
X149010500Y-96971664D01*
X148972321Y-96730615D01*
X148896904Y-96498506D01*
X148786106Y-96281052D01*
X148763182Y-96249500D01*
X148642660Y-96083614D01*
X148642656Y-96083609D01*
X148470081Y-95911034D01*
X148470076Y-95911030D01*
X148272642Y-95767587D01*
X148272641Y-95767586D01*
X148272639Y-95767585D01*
X148055185Y-95656787D01*
X147823076Y-95581370D01*
X147823074Y-95581369D01*
X147823072Y-95581369D01*
X147658691Y-95555333D01*
X147617666Y-95548835D01*
X147554532Y-95518907D01*
X147517601Y-95459595D01*
X147518599Y-95389733D01*
X147557209Y-95331500D01*
X147621173Y-95303386D01*
X147637065Y-95302363D01*
X152362935Y-95302363D01*
X152429974Y-95322048D01*
G37*
%TD.AperFunction*%
%TD*%
M02*
