%TF.GenerationSoftware,KiCad,Pcbnew,9.0.6*%
%TF.CreationDate,2025-12-29T15:13:58+01:00*%
%TF.ProjectId,pcb_phone_controller,7063625f-7068-46f6-9e65-5f636f6e7472,rev?*%
%TF.SameCoordinates,Original*%
%TF.FileFunction,Copper,L1,Top*%
%TF.FilePolarity,Positive*%
%FSLAX46Y46*%
G04 Gerber Fmt 4.6, Leading zero omitted, Abs format (unit mm)*
G04 Created by KiCad (PCBNEW 9.0.6) date 2025-12-29 15:13:58*
%MOMM*%
%LPD*%
G01*
G04 APERTURE LIST*
G04 Aperture macros list*
%AMRoundRect*
0 Rectangle with rounded corners*
0 $1 Rounding radius*
0 $2 $3 $4 $5 $6 $7 $8 $9 X,Y pos of 4 corners*
0 Add a 4 corners polygon primitive as box body*
4,1,4,$2,$3,$4,$5,$6,$7,$8,$9,$2,$3,0*
0 Add four circle primitives for the rounded corners*
1,1,$1+$1,$2,$3*
1,1,$1+$1,$4,$5*
1,1,$1+$1,$6,$7*
1,1,$1+$1,$8,$9*
0 Add four rect primitives between the rounded corners*
20,1,$1+$1,$2,$3,$4,$5,0*
20,1,$1+$1,$4,$5,$6,$7,0*
20,1,$1+$1,$6,$7,$8,$9,0*
20,1,$1+$1,$8,$9,$2,$3,0*%
G04 Aperture macros list end*
%TA.AperFunction,SMDPad,CuDef*%
%ADD10RoundRect,0.250000X0.337500X0.475000X-0.337500X0.475000X-0.337500X-0.475000X0.337500X-0.475000X0*%
%TD*%
%TA.AperFunction,ComponentPad*%
%ADD11C,2.100000*%
%TD*%
%TA.AperFunction,ComponentPad*%
%ADD12C,4.500000*%
%TD*%
%TA.AperFunction,ComponentPad*%
%ADD13R,1.700000X1.700000*%
%TD*%
%TA.AperFunction,ComponentPad*%
%ADD14C,1.700000*%
%TD*%
%TA.AperFunction,SMDPad,CuDef*%
%ADD15RoundRect,0.250000X-0.350000X-0.450000X0.350000X-0.450000X0.350000X0.450000X-0.350000X0.450000X0*%
%TD*%
%TA.AperFunction,ComponentPad*%
%ADD16R,1.270000X1.270000*%
%TD*%
%TA.AperFunction,ComponentPad*%
%ADD17C,1.270000*%
%TD*%
%TA.AperFunction,SMDPad,CuDef*%
%ADD18RoundRect,0.150000X0.587500X0.150000X-0.587500X0.150000X-0.587500X-0.150000X0.587500X-0.150000X0*%
%TD*%
%TA.AperFunction,SMDPad,CuDef*%
%ADD19RoundRect,0.150000X-0.587500X-0.150000X0.587500X-0.150000X0.587500X0.150000X-0.587500X0.150000X0*%
%TD*%
%TA.AperFunction,ComponentPad*%
%ADD20C,1.143000*%
%TD*%
%TA.AperFunction,SMDPad,CuDef*%
%ADD21RoundRect,0.250000X0.500000X-0.250000X0.500000X0.250000X-0.500000X0.250000X-0.500000X-0.250000X0*%
%TD*%
%TA.AperFunction,SMDPad,CuDef*%
%ADD22RoundRect,0.250000X-0.500000X0.250000X-0.500000X-0.250000X0.500000X-0.250000X0.500000X0.250000X0*%
%TD*%
%TA.AperFunction,ComponentPad*%
%ADD23R,2.000000X2.000000*%
%TD*%
%TA.AperFunction,ComponentPad*%
%ADD24C,2.000000*%
%TD*%
%TA.AperFunction,ViaPad*%
%ADD25C,0.700000*%
%TD*%
%TA.AperFunction,Conductor*%
%ADD26C,0.200000*%
%TD*%
G04 APERTURE END LIST*
D10*
%TO.P,C1,1*%
%TO.N,Net-(C1-Pad1)*%
X178000000Y-122500000D03*
%TO.P,C1,2*%
%TO.N,Net-(C1-Pad2)*%
X175925000Y-122500000D03*
%TD*%
D11*
%TO.P,Select1,1,1*%
%TO.N,Column 0*%
X139960000Y-105593690D03*
%TO.P,Select1,2,2*%
%TO.N,Net-(D3-Pad1)*%
X145040000Y-105593690D03*
%TD*%
D12*
%TO.P,H2,1,1*%
%TO.N,GND*%
X180500000Y-111750000D03*
%TD*%
D13*
%TO.P,ClickStickR1,1,GND*%
%TO.N,GND*%
X167000000Y-119200000D03*
D14*
%TO.P,ClickStickR1,2,I/O*%
%TO.N,Net-(ClickStickR1-I{slash}O)*%
X169540000Y-119200000D03*
%TO.P,ClickStickR1,3,VCC*%
%TO.N,Column 3*%
X172080000Y-119200000D03*
%TD*%
D15*
%TO.P,R1,1*%
%TO.N,Net-(C1-Pad1)*%
X180000000Y-122500000D03*
%TO.P,R1,2*%
%TO.N,+BAT*%
X182000000Y-122500000D03*
%TD*%
D13*
%TO.P,ClickStickL1,1,GND*%
%TO.N,GND*%
X133000000Y-119200000D03*
D14*
%TO.P,ClickStickL1,2,I/O*%
%TO.N,Net-(ClickStickL1-I{slash}O)*%
X130460000Y-119200000D03*
%TO.P,ClickStickL1,3,VCC*%
%TO.N,Column 1*%
X127920000Y-119200000D03*
%TD*%
D11*
%TO.P,Start1,1,1*%
%TO.N,Column 2*%
X154960000Y-105593690D03*
%TO.P,Start1,2,2*%
%TO.N,Net-(D4-Pad1)*%
X160040000Y-105593690D03*
%TD*%
D16*
%TO.P,SW17,1,1*%
%TO.N,unconnected-(SW17-Pad1)*%
X219750000Y-108000000D03*
D17*
%TO.P,SW17,2,2*%
%TO.N,+BAT*%
X219750000Y-110500000D03*
%TO.P,SW17,3,3*%
%TO.N,Net-(+-1-BAT+)*%
X219750000Y-113000000D03*
%TD*%
D18*
%TO.P,D3,1*%
%TO.N,Net-(D3-Pad1)*%
X134937500Y-98950000D03*
%TO.P,D3,2*%
%TO.N,Net-(D3-Pad2)*%
X134937500Y-97050000D03*
%TO.P,D3,3*%
%TO.N,Row 1*%
X133062500Y-98000000D03*
%TD*%
%TO.P,D7,1*%
%TO.N,Net-(D7-Pad1)*%
X129500000Y-144400000D03*
%TO.P,D7,2*%
%TO.N,Net-(D7-Pad2)*%
X129500000Y-142500000D03*
%TO.P,D7,3*%
%TO.N,Row 3*%
X127625000Y-143450000D03*
%TD*%
D12*
%TO.P,H5,1,1*%
%TO.N,GND*%
X110750000Y-144000000D03*
%TD*%
D19*
%TO.P,D5,1*%
%TO.N,Net-(A1-Pad2)*%
X212062500Y-121050000D03*
%TO.P,D5,2*%
%TO.N,Net-(B1-Pad1)*%
X212062500Y-122950000D03*
%TO.P,D5,3*%
%TO.N,Row 2*%
X213937500Y-122000000D03*
%TD*%
D13*
%TO.P,StickL1,1,GND*%
%TO.N,GND*%
X120500000Y-120580000D03*
D14*
%TO.P,StickL1,2,Y*%
%TO.N,Net-(StickL1-Y)*%
X120500000Y-118040000D03*
%TO.P,StickL1,3,3V3*%
%TO.N,+3.3V*%
X120500000Y-115500000D03*
%TO.P,StickL1,4,X*%
%TO.N,Net-(StickL1-X)*%
X120500000Y-112960000D03*
%TD*%
D20*
%TO.P,TriggerL1,1,VDD*%
%TO.N,+3.3V*%
X118481444Y-101543579D03*
%TO.P,TriggerL1,2,GND*%
%TO.N,GND*%
X117223354Y-101370056D03*
%TO.P,TriggerL1,3,OUT*%
%TO.N,Net-(TriggerL1-OUT)*%
X115965264Y-101196534D03*
%TD*%
D13*
%TO.P,BumperR1,1,GND*%
%TO.N,GND*%
X167000000Y-112000000D03*
D14*
%TO.P,BumperR1,2,I/O*%
%TO.N,Net-(BumperR1-I{slash}O)*%
X169540000Y-112000000D03*
%TO.P,BumperR1,3,VCC*%
%TO.N,Column 2*%
X172080000Y-112000000D03*
%TD*%
D11*
%TO.P,B1,1,1*%
%TO.N,Net-(B1-Pad1)*%
X194494124Y-125127219D03*
%TO.P,B1,2,2*%
%TO.N,Column 1*%
X199574124Y-125127219D03*
%TD*%
%TO.P,Home1,1,1*%
%TO.N,Net-(D3-Pad2)*%
X147460000Y-97093691D03*
%TO.P,Home1,2,2*%
%TO.N,Column 1*%
X152540000Y-97093691D03*
%TD*%
D12*
%TO.P,H1,1,1*%
%TO.N,GND*%
X164750000Y-98250000D03*
%TD*%
D11*
%TO.P,DOWN1,1,1*%
%TO.N,Column 0*%
X117425876Y-144641938D03*
%TO.P,DOWN1,2,2*%
%TO.N,Net-(D7-Pad1)*%
X122505876Y-144641938D03*
%TD*%
D18*
%TO.P,D6,1*%
%TO.N,Net-(D6-Pad1)*%
X188500000Y-110500000D03*
%TO.P,D6,2*%
%TO.N,Net-(D6-Pad2)*%
X188500000Y-108600000D03*
%TO.P,D6,3*%
%TO.N,Row 2*%
X186625000Y-109550000D03*
%TD*%
D11*
%TO.P,UP1,1,1*%
%TO.N,Column 2*%
X117425876Y-128641938D03*
%TO.P,UP1,2,2*%
%TO.N,Net-(D8-Pad1)*%
X122505876Y-128641938D03*
%TD*%
%TO.P,X1,1,1*%
%TO.N,Column 2*%
X186008842Y-116641938D03*
%TO.P,X1,2,2*%
%TO.N,Net-(D6-Pad1)*%
X191088842Y-116641938D03*
%TD*%
%TO.P,Y1,1,1*%
%TO.N,Net-(D6-Pad2)*%
X194517950Y-108503745D03*
%TO.P,Y1,2,2*%
%TO.N,Column 3*%
X199550298Y-107809567D03*
%TD*%
D19*
%TO.P,D2,1*%
%TO.N,Net-(BumperR1-I{slash}O)*%
X168662500Y-114650000D03*
%TO.P,D2,2*%
%TO.N,Net-(ClickStickR1-I{slash}O)*%
X168662500Y-116550000D03*
%TO.P,D2,3*%
%TO.N,Row 0*%
X170537500Y-115600000D03*
%TD*%
D13*
%TO.P,BumperL1,1,GND*%
%TO.N,GND*%
X133000000Y-112000000D03*
D14*
%TO.P,BumperL1,2,I/O*%
%TO.N,Net-(BumperL1-I{slash}O)*%
X130460000Y-112000000D03*
%TO.P,BumperL1,3,VCC*%
%TO.N,Column 0*%
X127920000Y-112000000D03*
%TD*%
D11*
%TO.P,LEFT1,1,1*%
%TO.N,Net-(D8-Pad2)*%
X109425876Y-136641938D03*
%TO.P,LEFT1,2,2*%
%TO.N,Column 3*%
X114505876Y-136641938D03*
%TD*%
D20*
%TO.P,TriggerR1,1,VDD*%
%TO.N,+3.3V*%
X184094904Y-101201731D03*
%TO.P,TriggerR1,2,GND*%
%TO.N,GND*%
X182836814Y-101375253D03*
%TO.P,TriggerR1,3,OUT*%
%TO.N,Net-(TriggerR1-OUT)*%
X181578724Y-101548776D03*
%TD*%
D12*
%TO.P,H3,1,1*%
%TO.N,GND*%
X206750000Y-105500000D03*
%TD*%
D13*
%TO.P,StickR1,1,GND*%
%TO.N,GND*%
X197000000Y-140810000D03*
D14*
%TO.P,StickR1,2,Y*%
%TO.N,Net-(StickR1-Y)*%
X197000000Y-138270000D03*
%TO.P,StickR1,3,3V3*%
%TO.N,+3.3V*%
X197000000Y-135730000D03*
%TO.P,StickR1,4,X*%
%TO.N,Net-(StickR1-X)*%
X197000000Y-133190000D03*
%TD*%
D12*
%TO.P,H4,1,1*%
%TO.N,GND*%
X127500000Y-127250000D03*
%TD*%
D19*
%TO.P,D8,1*%
%TO.N,Net-(D8-Pad1)*%
X113062500Y-130450000D03*
%TO.P,D8,2*%
%TO.N,Net-(D8-Pad2)*%
X113062500Y-132350000D03*
%TO.P,D8,3*%
%TO.N,Row 3*%
X114937500Y-131400000D03*
%TD*%
D11*
%TO.P,RIGHT1,1,1*%
%TO.N,Net-(D7-Pad2)*%
X125425876Y-136641938D03*
%TO.P,RIGHT1,2,2*%
%TO.N,Column 1*%
X130505876Y-136641938D03*
%TD*%
D18*
%TO.P,D4,1*%
%TO.N,Net-(D4-Pad1)*%
X158937500Y-99950000D03*
%TO.P,D4,2*%
%TO.N,unconnected-(D4-Pad2)*%
X158937500Y-98050000D03*
%TO.P,D4,3*%
%TO.N,Row 1*%
X157062500Y-99000000D03*
%TD*%
D21*
%TO.P,U1,1,GPIO*%
%TO.N,Net-(StickL1-Y)*%
X220390000Y-145281871D03*
%TO.P,U1,2,GPIO*%
%TO.N,Net-(StickL1-X)*%
X220390000Y-142741871D03*
%TO.P,U1,3,GPIO*%
%TO.N,unconnected-(U1-GPIO-Pad3)*%
X220390000Y-140201871D03*
D22*
%TO.P,U1,3V3,3V3*%
%TO.N,+3.3V*%
X202610000Y-140201871D03*
D21*
%TO.P,U1,4,GPIO*%
%TO.N,Column 2*%
X220390000Y-137661871D03*
%TO.P,U1,5,GPIO*%
%TO.N,unconnected-(U1-GPIO-Pad5)*%
X220390000Y-135121871D03*
D22*
%TO.P,U1,5V,5V*%
%TO.N,unconnected-(U1-Pad5V)*%
X202610000Y-145281871D03*
D21*
%TO.P,U1,6,GPIO*%
%TO.N,Net-(TriggerL1-OUT)*%
X220390000Y-132581871D03*
D22*
%TO.P,U1,7,GPIO*%
%TO.N,Net-(StickR1-X)*%
X202610000Y-132581871D03*
%TO.P,U1,8,GPIO*%
%TO.N,Net-(StickR1-Y)*%
X202610000Y-135121871D03*
%TO.P,U1,9,GPIO*%
%TO.N,Net-(TriggerR1-OUT)*%
X202610000Y-137661871D03*
D21*
%TO.P,U1,10,GPIO*%
%TO.N,Net-(C1-Pad1)*%
X220390000Y-131311871D03*
D22*
%TO.P,U1,11,GPIO*%
%TO.N,Row 2*%
X202610000Y-131311871D03*
%TO.P,U1,12,GPIO*%
%TO.N,Column 1*%
X202610000Y-133851871D03*
%TO.P,U1,13,GPIO*%
%TO.N,Column 0*%
X202610000Y-136391871D03*
D21*
%TO.P,U1,38,GPIO*%
%TO.N,unconnected-(U1-GPIO-Pad38)*%
X220390000Y-144011871D03*
%TO.P,U1,39,GPIO*%
%TO.N,Row 0*%
X220390000Y-141471871D03*
%TO.P,U1,40,GPIO*%
%TO.N,Row 1*%
X220390000Y-138931871D03*
%TO.P,U1,41,GPIO*%
%TO.N,Row 3*%
X220390000Y-136391871D03*
%TO.P,U1,42,GPIO*%
%TO.N,unconnected-(U1-GPIO-Pad42)*%
X220390000Y-133851871D03*
%TO.P,U1,43,GPIO*%
%TO.N,unconnected-(U1-GPIO-Pad43)*%
X220390000Y-130041871D03*
D22*
%TO.P,U1,44,GPIO*%
%TO.N,Column 3*%
X202610000Y-130041871D03*
%TO.P,U1,GND,GND*%
%TO.N,GND*%
X202610000Y-142741871D03*
%TD*%
D15*
%TO.P,R2,1*%
%TO.N,-BATT*%
X172000000Y-122500000D03*
%TO.P,R2,2*%
%TO.N,Net-(C1-Pad2)*%
X174000000Y-122500000D03*
%TD*%
D11*
%TO.P,A1,1,1*%
%TO.N,Column 0*%
X202979405Y-116641938D03*
%TO.P,A1,2,2*%
%TO.N,Net-(A1-Pad2)*%
X208059405Y-116641938D03*
%TD*%
D23*
%TO.P,+-1,1,BAT-*%
%TO.N,-BATT*%
X169800000Y-122500000D03*
D24*
%TO.P,+-1,2,BAT+*%
%TO.N,Net-(+-1-BAT+)*%
X167000000Y-122500000D03*
%TD*%
D19*
%TO.P,D1,1*%
%TO.N,Net-(BumperL1-I{slash}O)*%
X130862500Y-114650000D03*
%TO.P,D1,2*%
%TO.N,Net-(ClickStickL1-I{slash}O)*%
X130862500Y-116550000D03*
%TO.P,D1,3*%
%TO.N,Row 0*%
X132737500Y-115600000D03*
%TD*%
D25*
%TO.N,Column 0*%
X167250000Y-108900000D03*
X206500000Y-125000000D03*
%TO.N,Net-(B1-Pad1)*%
X204330500Y-124569500D03*
%TO.N,Column 1*%
X197000000Y-120500000D03*
X129424875Y-107220000D03*
%TO.N,Net-(C1-Pad1)*%
X178000000Y-122500000D03*
X218289065Y-129210935D03*
X199047933Y-127923000D03*
X187000000Y-118905000D03*
X180000000Y-122500000D03*
%TO.N,Net-(+-1-BAT+)*%
X205000000Y-119750000D03*
X183150000Y-122018000D03*
%TO.N,Row 0*%
X177422000Y-120000000D03*
X218209065Y-139290935D03*
X195000000Y-123500000D03*
X197341999Y-129658001D03*
%TO.N,Row 1*%
X199423000Y-129905000D03*
X218500000Y-138000000D03*
%TO.N,Row 3*%
X197158001Y-127341999D03*
X218577000Y-134500000D03*
%TO.N,GND*%
X190425000Y-113900000D03*
X122475000Y-130875000D03*
X180750000Y-107000000D03*
X220400000Y-124700000D03*
X183000000Y-103000000D03*
X134450000Y-109650000D03*
X167500000Y-120750000D03*
X167000000Y-110250000D03*
X170000000Y-109500000D03*
X214000000Y-112000000D03*
X165800000Y-114750000D03*
X174500000Y-115500000D03*
X150325000Y-100050000D03*
X151800000Y-103800000D03*
X133700000Y-114400000D03*
X204000000Y-122000000D03*
X121000000Y-109000000D03*
X117000000Y-103000000D03*
X208200000Y-124600000D03*
X183443558Y-117169323D03*
X199275000Y-110075000D03*
X120000000Y-105500000D03*
X199500000Y-145500000D03*
X162250000Y-105500000D03*
X207000000Y-137500000D03*
X178500000Y-118500000D03*
X128500000Y-121250000D03*
X193000000Y-113000000D03*
X199750000Y-118250000D03*
X172900000Y-107300000D03*
X143900000Y-103100000D03*
X137000000Y-105800000D03*
%TO.N,+BAT*%
X204400000Y-118967177D03*
X184500000Y-122595000D03*
%TO.N,Column 2*%
X168400000Y-109338068D03*
X218500000Y-136000000D03*
X115000000Y-128000000D03*
X165303470Y-109105000D03*
%TO.N,Net-(StickL1-Y)*%
X196422124Y-128738125D03*
X125500000Y-115000000D03*
X218500000Y-146000000D03*
%TO.N,+3.3V*%
X192790189Y-122267000D03*
X194500000Y-117000000D03*
X193000000Y-111423000D03*
%TO.N,Net-(StickL1-X)*%
X124000000Y-113000000D03*
X217824065Y-140175935D03*
X199000000Y-131077000D03*
%TO.N,Net-(StickR1-Y)*%
X202610000Y-135121871D03*
%TO.N,Net-(TriggerL1-OUT)*%
X198139932Y-127860068D03*
X217652667Y-129847333D03*
%TO.N,Net-(StickR1-X)*%
X202610000Y-132581871D03*
%TD*%
D26*
%TO.N,Column 0*%
X127920000Y-112000000D02*
X127920000Y-111580000D01*
X138962000Y-104502000D02*
X139960000Y-105500000D01*
X206500000Y-125000000D02*
X206500000Y-133251871D01*
X139960000Y-105733203D02*
X143483797Y-109257000D01*
X166855000Y-108505000D02*
X167250000Y-108900000D01*
X143483797Y-109257000D02*
X164243000Y-109257000D01*
X164243000Y-109257000D02*
X164995000Y-108505000D01*
X134998000Y-104502000D02*
X138962000Y-104502000D01*
X206500000Y-133251871D02*
X203360000Y-136391871D01*
X164995000Y-108505000D02*
X166855000Y-108505000D01*
X203360000Y-136391871D02*
X202610000Y-136391871D01*
X139960000Y-105500000D02*
X139960000Y-105733203D01*
X127920000Y-111580000D02*
X134998000Y-104502000D01*
%TO.N,Net-(A1-Pad2)*%
X208040000Y-116500000D02*
X212062500Y-120522500D01*
X212062500Y-120522500D02*
X212062500Y-121050000D01*
%TO.N,Net-(B1-Pad1)*%
X205950000Y-122950000D02*
X212062500Y-122950000D01*
X204330500Y-124569500D02*
X205950000Y-122950000D01*
%TO.N,Column 1*%
X161651000Y-103333900D02*
X161651000Y-99384032D01*
X169931200Y-105297000D02*
X163614100Y-105297000D01*
X182634200Y-118000000D02*
X169931200Y-105297000D01*
X124578000Y-113239416D02*
X124578000Y-115858000D01*
X129071586Y-107220000D02*
X124578000Y-111713586D01*
X124578000Y-115858000D02*
X127920000Y-119200000D01*
X201860000Y-133851871D02*
X202610000Y-133851871D01*
X201000000Y-126553095D02*
X201000000Y-132991871D01*
X161651000Y-99384032D02*
X159266968Y-97000000D01*
X163614100Y-105297000D02*
X161651000Y-103333900D01*
X129424875Y-107220000D02*
X129071586Y-107220000D01*
X194500000Y-118000000D02*
X182634200Y-118000000D01*
X124578000Y-111713586D02*
X124578000Y-113239416D01*
X199574124Y-125127219D02*
X201000000Y-126553095D01*
X197000000Y-120500000D02*
X194500000Y-118000000D01*
X201000000Y-132991871D02*
X201860000Y-133851871D01*
X159266968Y-97000000D02*
X152540000Y-97000000D01*
%TO.N,Net-(C1-Pad2)*%
X174000000Y-122500000D02*
X175925000Y-122500000D01*
%TO.N,Net-(C1-Pad1)*%
X199047933Y-127547933D02*
X197500000Y-126000000D01*
X218289065Y-129289065D02*
X219000000Y-130000000D01*
X197500000Y-122500000D02*
X193905000Y-118905000D01*
X193905000Y-118905000D02*
X187000000Y-118905000D01*
X219000000Y-130671871D02*
X219640000Y-131311871D01*
X219640000Y-131311871D02*
X220390000Y-131311871D01*
X218289065Y-129210935D02*
X218289065Y-129289065D01*
X197500000Y-126000000D02*
X197500000Y-122500000D01*
X199047933Y-127923000D02*
X199047933Y-127547933D01*
X219000000Y-130000000D02*
X219000000Y-130671871D01*
%TO.N,Net-(+-1-BAT+)*%
X183150000Y-122018000D02*
X182632000Y-121500000D01*
X208500000Y-113000000D02*
X219750000Y-113000000D01*
X168500000Y-121000000D02*
X167000000Y-122500000D01*
X182632000Y-121500000D02*
X180000000Y-121500000D01*
X205151000Y-119599000D02*
X205151000Y-116349000D01*
X180000000Y-121500000D02*
X179500000Y-121000000D01*
X205151000Y-116349000D02*
X208500000Y-113000000D01*
X205000000Y-119750000D02*
X205151000Y-119599000D01*
X179500000Y-121000000D02*
X168500000Y-121000000D01*
%TO.N,Row 0*%
X218209065Y-139290935D02*
X218209065Y-139453858D01*
X140500000Y-104000000D02*
X134000000Y-104000000D01*
X141595000Y-105095000D02*
X140500000Y-104000000D01*
X177422000Y-120000000D02*
X177422000Y-119897000D01*
X196182708Y-129316125D02*
X197000123Y-129316125D01*
X126600000Y-114400000D02*
X127800000Y-115600000D01*
X195844124Y-128498709D02*
X195844124Y-128977541D01*
X134000000Y-104000000D02*
X126600000Y-111400000D01*
X195000000Y-123500000D02*
X195845124Y-124345124D01*
X220227078Y-141471871D02*
X220390000Y-141471871D01*
X195844124Y-128977541D02*
X196182708Y-129316125D01*
X143649897Y-108856000D02*
X141595000Y-106801103D01*
X164076900Y-108856000D02*
X143649897Y-108856000D01*
X164828900Y-108104000D02*
X164076900Y-108856000D01*
X195845124Y-128497709D02*
X195844124Y-128498709D01*
X141595000Y-106801103D02*
X141595000Y-105095000D01*
X197000123Y-129316125D02*
X197341999Y-129658001D01*
X170837500Y-109337500D02*
X169604000Y-108104000D01*
X195845124Y-124345124D02*
X195845124Y-128497709D01*
X126600000Y-111400000D02*
X126600000Y-114400000D01*
X169604000Y-108104000D02*
X164828900Y-108104000D01*
X170537500Y-115600000D02*
X170837500Y-115300000D01*
X173125000Y-115600000D02*
X170537500Y-115600000D01*
X170837500Y-115300000D02*
X170837500Y-109337500D01*
X127800000Y-115600000D02*
X132737500Y-115600000D01*
X177422000Y-119897000D02*
X173125000Y-115600000D01*
X218209065Y-139453858D02*
X220227078Y-141471871D01*
%TO.N,Net-(BumperL1-I{slash}O)*%
X130460000Y-112000000D02*
X130460000Y-114247500D01*
X130460000Y-114247500D02*
X130862500Y-114650000D01*
%TO.N,Net-(D3-Pad1)*%
X134937500Y-98950000D02*
X142350000Y-98950000D01*
X142350000Y-98950000D02*
X145040000Y-101640000D01*
X145040000Y-101640000D02*
X145040000Y-105500000D01*
%TO.N,Row 1*%
X163448000Y-105698000D02*
X161250000Y-103500000D01*
X193828000Y-118328000D02*
X182395100Y-118328000D01*
X199625933Y-127625933D02*
X199500000Y-127500000D01*
X197500000Y-122000000D02*
X197861000Y-122361000D01*
X199423000Y-129905000D02*
X199595000Y-129905000D01*
X199595000Y-129905000D02*
X199625933Y-129874067D01*
X199625933Y-129874067D02*
X199625933Y-127625933D01*
X182395100Y-118328000D02*
X169765100Y-105698000D01*
X169765100Y-105698000D02*
X163448000Y-105698000D01*
X146781250Y-99000000D02*
X157062500Y-99000000D01*
X159500000Y-99000000D02*
X157062500Y-99000000D01*
X145781250Y-98000000D02*
X146781250Y-99000000D01*
X133062500Y-98000000D02*
X145781250Y-98000000D01*
X197861000Y-125861000D02*
X199500000Y-127500000D01*
X218500000Y-138000000D02*
X219431871Y-138931871D01*
X219431871Y-138931871D02*
X220390000Y-138931871D01*
X199500000Y-127500000D02*
X199672000Y-127672000D01*
X197500000Y-122000000D02*
X193828000Y-118328000D01*
X197861000Y-122361000D02*
X197861000Y-125861000D01*
X161250000Y-100750000D02*
X159500000Y-99000000D01*
X161250000Y-103500000D02*
X161250000Y-100750000D01*
%TO.N,Net-(D3-Pad2)*%
X147410000Y-97050000D02*
X147460000Y-97000000D01*
X134937500Y-97050000D02*
X147410000Y-97050000D01*
%TO.N,Net-(D4-Pad1)*%
X160040000Y-105500000D02*
X160040000Y-101052500D01*
X160040000Y-101052500D02*
X158937500Y-99950000D01*
%TO.N,Row 2*%
X203661000Y-124339000D02*
X203661000Y-131010871D01*
X203360000Y-131311871D02*
X202610000Y-131311871D01*
X200075777Y-106301911D02*
X198903414Y-106301911D01*
X201250000Y-108819637D02*
X201250000Y-107476134D01*
X189918100Y-109351000D02*
X186824000Y-109351000D01*
X198903414Y-106301911D02*
X195205325Y-110000000D01*
X203661000Y-124339000D02*
X206000000Y-122000000D01*
X201250000Y-107476134D02*
X200075777Y-106301911D01*
X195205325Y-110000000D02*
X190567100Y-110000000D01*
X203661000Y-131010871D02*
X203360000Y-131311871D01*
X190567100Y-110000000D02*
X189918100Y-109351000D01*
X201292000Y-117292000D02*
X201292000Y-108861637D01*
X201292000Y-108861637D02*
X201250000Y-108819637D01*
X206000000Y-122000000D02*
X213937500Y-122000000D01*
X186824000Y-109351000D02*
X186625000Y-109550000D01*
X206000000Y-122000000D02*
X201292000Y-117292000D01*
%TO.N,Net-(D6-Pad1)*%
X188500000Y-113960000D02*
X191040000Y-116500000D01*
X188500000Y-110500000D02*
X188500000Y-113960000D01*
%TO.N,Net-(D6-Pad2)*%
X188500000Y-108600000D02*
X194230915Y-108600000D01*
X194230915Y-108600000D02*
X194483826Y-108347089D01*
X193860000Y-108600000D02*
X194460000Y-108000000D01*
%TO.N,Net-(D7-Pad2)*%
X129500000Y-142500000D02*
X125460000Y-138460000D01*
X125460000Y-138460000D02*
X125460000Y-136500000D01*
%TO.N,Row 3*%
X163164500Y-107500000D02*
X144000000Y-107500000D01*
X197158001Y-126585725D02*
X196844000Y-126271724D01*
X183432900Y-120500000D02*
X169432900Y-106500000D01*
X143000000Y-104267100D02*
X141229900Y-102497000D01*
X218577000Y-134741793D02*
X220227078Y-136391871D01*
X196968721Y-127341999D02*
X197158001Y-127152719D01*
X169432900Y-106500000D02*
X164164500Y-106500000D01*
X141229900Y-102497000D02*
X132866862Y-102497000D01*
X143000000Y-106500000D02*
X143000000Y-104267100D01*
X123891000Y-119738100D02*
X123891000Y-139716000D01*
X132866862Y-102497000D02*
X123000000Y-112363862D01*
X164164500Y-106500000D02*
X163164500Y-107500000D01*
X220227078Y-136391871D02*
X220390000Y-136391871D01*
X218577000Y-134500000D02*
X218577000Y-134741793D01*
X123000000Y-118847100D02*
X123891000Y-119738100D01*
X144000000Y-107500000D02*
X143000000Y-106500000D01*
X197158001Y-127152719D02*
X197158001Y-126585725D01*
X126987500Y-143450000D02*
X127625000Y-143450000D01*
X197158001Y-127341999D02*
X196968721Y-127341999D01*
X123000000Y-112363862D02*
X123000000Y-118847100D01*
X114937500Y-131400000D02*
X126987500Y-143450000D01*
X196844000Y-126271724D02*
X196844000Y-122771724D01*
X196844000Y-122771724D02*
X194572276Y-120500000D01*
X123891000Y-139716000D02*
X127625000Y-143450000D01*
X194572276Y-120500000D02*
X183432900Y-120500000D01*
%TO.N,Net-(D7-Pad1)*%
X129400000Y-144500000D02*
X129500000Y-144400000D01*
X122540000Y-144500000D02*
X129400000Y-144500000D01*
%TO.N,Net-(D8-Pad1)*%
X120590000Y-130450000D02*
X122540000Y-128500000D01*
X113062500Y-130450000D02*
X120590000Y-130450000D01*
%TO.N,Net-(D8-Pad2)*%
X113062500Y-132897500D02*
X113062500Y-132350000D01*
X109460000Y-136500000D02*
X113062500Y-132897500D01*
%TO.N,GND*%
X117000000Y-103000000D02*
X117223354Y-102776646D01*
X117223354Y-101761013D02*
X117140453Y-101678112D01*
X182836814Y-102836814D02*
X182836814Y-101699639D01*
X182836814Y-101699639D02*
X182883090Y-101653363D01*
X117223354Y-102776646D02*
X117223354Y-101761013D01*
X183000000Y-103000000D02*
X182836814Y-102836814D01*
%TO.N,Column 3*%
X200863263Y-119363263D02*
X202610000Y-121110000D01*
X200863263Y-109000000D02*
X200891000Y-109027737D01*
X202610000Y-121110000D02*
X202610000Y-130041871D01*
X199516174Y-107652911D02*
X200863263Y-109000000D01*
X200863263Y-109000000D02*
X200863263Y-119363263D01*
%TO.N,+BAT*%
X184500000Y-122595000D02*
X182100898Y-122595000D01*
X204750000Y-116000000D02*
X210250000Y-110500000D01*
X204400000Y-118967177D02*
X204750000Y-118617177D01*
X182100898Y-122595000D02*
X182002949Y-122497051D01*
X204750000Y-118617177D02*
X204750000Y-116000000D01*
X210250000Y-110500000D02*
X219750000Y-110500000D01*
%TO.N,-BATT*%
X172000000Y-122500000D02*
X169750000Y-122500000D01*
%TO.N,Column 2*%
X168238068Y-109500000D02*
X165750000Y-109500000D01*
X220161871Y-137661871D02*
X220390000Y-137661871D01*
X165750000Y-109500000D02*
X165355000Y-109105000D01*
X168400000Y-109338068D02*
X168238068Y-109500000D01*
X117460000Y-128500000D02*
X115500000Y-128500000D01*
X115500000Y-128500000D02*
X115000000Y-128000000D01*
X218500000Y-136000000D02*
X220161871Y-137661871D01*
X165355000Y-109105000D02*
X165303470Y-109105000D01*
%TO.N,Net-(StickL1-Y)*%
X133864138Y-103672000D02*
X140635862Y-103672000D01*
X169781176Y-107776000D02*
X183333176Y-121328000D01*
X196173124Y-128489125D02*
X196422124Y-128738125D01*
X193645416Y-121328000D02*
X196173124Y-123855708D01*
X129536138Y-108000000D02*
X133864138Y-103672000D01*
X140635862Y-103672000D02*
X141923000Y-104959138D01*
X125500000Y-111500000D02*
X129000000Y-108000000D01*
X163816224Y-107776000D02*
X169781176Y-107776000D01*
X183333176Y-121328000D02*
X193645416Y-121328000D01*
X218500000Y-146000000D02*
X219218129Y-145281871D01*
X143860997Y-108500000D02*
X163092224Y-108500000D01*
X125500000Y-115000000D02*
X125500000Y-111500000D01*
X219218129Y-145281871D02*
X220390000Y-145281871D01*
X129000000Y-108000000D02*
X129536138Y-108000000D01*
X163092224Y-108500000D02*
X163816224Y-107776000D01*
X141923000Y-106562003D02*
X143860997Y-108500000D01*
X141923000Y-104959138D02*
X141923000Y-106562003D01*
X196173124Y-123855708D02*
X196173124Y-128489125D01*
%TO.N,+3.3V*%
X201471871Y-140201871D02*
X197000000Y-135730000D01*
X192790189Y-122267000D02*
X192790189Y-126387468D01*
X184091950Y-101239397D02*
X184094904Y-101242351D01*
X184141180Y-101479841D02*
X184091950Y-101430611D01*
X195849000Y-134579000D02*
X197000000Y-135730000D01*
X195849000Y-129446279D02*
X195849000Y-134579000D01*
X192790189Y-126387468D02*
X195849000Y-129446279D01*
X202610000Y-140201871D02*
X201471871Y-140201871D01*
X193000000Y-111500000D02*
X194500000Y-113000000D01*
X118349313Y-101611191D02*
X118481444Y-101743322D01*
X193000000Y-111423000D02*
X193000000Y-111500000D01*
X194500000Y-113000000D02*
X194500000Y-117000000D01*
X184091950Y-101430611D02*
X184091950Y-101239397D01*
%TO.N,Net-(StickL1-X)*%
X219640000Y-142741871D02*
X220390000Y-142741871D01*
X199000000Y-131000000D02*
X199000000Y-131077000D01*
X198000000Y-129500000D02*
X198000000Y-130000000D01*
X198000000Y-130000000D02*
X199000000Y-131000000D01*
X217824065Y-140925936D02*
X219640000Y-142741871D01*
X143864138Y-107828000D02*
X163300362Y-107828000D01*
X164300362Y-106828000D02*
X169297038Y-106828000D01*
X163300362Y-107828000D02*
X164300362Y-106828000D01*
X124250000Y-112750000D02*
X124250000Y-111577724D01*
X196501124Y-122892710D02*
X196501124Y-128001124D01*
X124000000Y-113000000D02*
X124250000Y-112750000D01*
X183469038Y-121000000D02*
X194608414Y-121000000D01*
X132655724Y-103172000D02*
X141441038Y-103172000D01*
X141441038Y-103172000D02*
X142672000Y-104402962D01*
X169297038Y-106828000D02*
X183469038Y-121000000D01*
X217824065Y-140175935D02*
X217824065Y-140925936D01*
X124250000Y-111577724D02*
X132655724Y-103172000D01*
X194608414Y-121000000D02*
X196501124Y-122892710D01*
X142672000Y-106635862D02*
X143864138Y-107828000D01*
X196501124Y-128001124D02*
X198000000Y-129500000D01*
X142672000Y-104402962D02*
X142672000Y-106635862D01*
%TO.N,Net-(ClickStickL1-I{slash}O)*%
X130460000Y-116952500D02*
X130862500Y-116550000D01*
X130460000Y-119200000D02*
X130460000Y-116952500D01*
%TO.N,Net-(TriggerL1-OUT)*%
X143500000Y-106185302D02*
X144314698Y-107000000D01*
X217652667Y-129847333D02*
X217652667Y-130594538D01*
X163998400Y-106099000D02*
X169599000Y-106099000D01*
X198139932Y-127860068D02*
X198139932Y-127103794D01*
X194036138Y-119500000D02*
X183000000Y-119500000D01*
X183000000Y-119500000D02*
X183172000Y-119672000D01*
X116000000Y-103000000D02*
X120100000Y-107100000D01*
X141396000Y-102096000D02*
X143500000Y-104200000D01*
X163097400Y-107000000D02*
X163998400Y-106099000D01*
X115965264Y-101196534D02*
X116000000Y-101231270D01*
X120100000Y-107100000D02*
X127800000Y-107100000D01*
X197172000Y-126135862D02*
X197172000Y-122635862D01*
X198139932Y-127103794D02*
X197172000Y-126135862D01*
X217652667Y-130594538D02*
X219640000Y-132581871D01*
X219640000Y-132581871D02*
X220390000Y-132581871D01*
X132804000Y-102096000D02*
X141396000Y-102096000D01*
X144314698Y-107000000D02*
X163097400Y-107000000D01*
X143500000Y-104200000D02*
X143500000Y-106185302D01*
X197172000Y-122635862D02*
X194036138Y-119500000D01*
X127800000Y-107100000D02*
X132804000Y-102096000D01*
X169599000Y-106099000D02*
X183000000Y-119500000D01*
X116000000Y-101231270D02*
X116000000Y-103000000D01*
%TO.N,Net-(TriggerR1-OUT)*%
X199000000Y-126500000D02*
X200000000Y-127500000D01*
X199000000Y-126463698D02*
X199000000Y-126500000D01*
X198223124Y-125223124D02*
X198223124Y-125686822D01*
X193000000Y-110500000D02*
X198189000Y-115689000D01*
X200000000Y-135801871D02*
X201860000Y-137661871D01*
X198189000Y-125189000D02*
X198223124Y-125223124D01*
X185651000Y-110151000D02*
X187469532Y-110151000D01*
X187469532Y-110151000D02*
X187868532Y-109752000D01*
X181578724Y-101548776D02*
X181578724Y-106078724D01*
X189855238Y-109752000D02*
X190603238Y-110500000D01*
X181578724Y-106078724D02*
X185651000Y-110151000D01*
X187868532Y-109752000D02*
X189855238Y-109752000D01*
X198189000Y-115689000D02*
X198189000Y-125189000D01*
X198223124Y-125686822D02*
X199000000Y-126463698D01*
X201860000Y-137661871D02*
X202610000Y-137661871D01*
X190603238Y-110500000D02*
X193000000Y-110500000D01*
X200000000Y-127500000D02*
X200000000Y-135801871D01*
%TO.N,Net-(BumperR1-I{slash}O)*%
X169540000Y-113772500D02*
X169540000Y-112000000D01*
X168662500Y-114650000D02*
X169540000Y-113772500D01*
%TO.N,Net-(ClickStickR1-I{slash}O)*%
X169540000Y-117427500D02*
X169540000Y-119200000D01*
X168662500Y-116550000D02*
X169540000Y-117427500D01*
%TD*%
%TA.AperFunction,Conductor*%
%TO.N,GND*%
G36*
X222271168Y-102627802D02*
G01*
X222316923Y-102680606D01*
X222328129Y-102732117D01*
X222328129Y-148017438D01*
X222308444Y-148084477D01*
X222255640Y-148130232D01*
X222204129Y-148141438D01*
X195508624Y-148141438D01*
X195441585Y-148121753D01*
X195395830Y-148068949D01*
X195384624Y-148017438D01*
X195384624Y-144981854D01*
X201359500Y-144981854D01*
X201359500Y-145581872D01*
X201359501Y-145581890D01*
X201370000Y-145684667D01*
X201370001Y-145684670D01*
X201416368Y-145824593D01*
X201425186Y-145851205D01*
X201517288Y-146000527D01*
X201641344Y-146124583D01*
X201790666Y-146216685D01*
X201957203Y-146271870D01*
X202059991Y-146282371D01*
X203160008Y-146282370D01*
X203160016Y-146282369D01*
X203160019Y-146282369D01*
X203216302Y-146276619D01*
X203262797Y-146271870D01*
X203429334Y-146216685D01*
X203578656Y-146124583D01*
X203702712Y-146000527D01*
X203794814Y-145851205D01*
X203849999Y-145684668D01*
X203860500Y-145581880D01*
X203860499Y-144981863D01*
X203857434Y-144951862D01*
X203849999Y-144879074D01*
X203849998Y-144879071D01*
X203824879Y-144803268D01*
X203794814Y-144712537D01*
X203702712Y-144563215D01*
X203578656Y-144439159D01*
X203429334Y-144347057D01*
X203262797Y-144291872D01*
X203262795Y-144291871D01*
X203160010Y-144281371D01*
X202059998Y-144281371D01*
X202059980Y-144281372D01*
X201957203Y-144291871D01*
X201957200Y-144291872D01*
X201790668Y-144347056D01*
X201790663Y-144347058D01*
X201641342Y-144439160D01*
X201517289Y-144563213D01*
X201425187Y-144712534D01*
X201425185Y-144712539D01*
X201413705Y-144747185D01*
X201370001Y-144879074D01*
X201370001Y-144879075D01*
X201370000Y-144879075D01*
X201359500Y-144981854D01*
X195384624Y-144981854D01*
X195384624Y-143041857D01*
X201360001Y-143041857D01*
X201370494Y-143144568D01*
X201425641Y-143310990D01*
X201425643Y-143310995D01*
X201517684Y-143460216D01*
X201641654Y-143584186D01*
X201790875Y-143676227D01*
X201790880Y-143676229D01*
X201957302Y-143731376D01*
X201957309Y-143731377D01*
X202060019Y-143741870D01*
X202359999Y-143741870D01*
X202860000Y-143741870D01*
X203159972Y-143741870D01*
X203159986Y-143741869D01*
X203262697Y-143731376D01*
X203429119Y-143676229D01*
X203429124Y-143676227D01*
X203578345Y-143584186D01*
X203702315Y-143460216D01*
X203794356Y-143310995D01*
X203794358Y-143310990D01*
X203849505Y-143144568D01*
X203849506Y-143144561D01*
X203859999Y-143041857D01*
X203860000Y-143041844D01*
X203860000Y-142991871D01*
X202860000Y-142991871D01*
X202860000Y-143741870D01*
X202359999Y-143741870D01*
X202360000Y-143741869D01*
X202360000Y-142991871D01*
X201360001Y-142991871D01*
X201360001Y-143041857D01*
X195384624Y-143041857D01*
X195384624Y-142441884D01*
X201360000Y-142441884D01*
X201360000Y-142491871D01*
X202360000Y-142491871D01*
X202860000Y-142491871D01*
X203859999Y-142491871D01*
X203859999Y-142441899D01*
X203859998Y-142441884D01*
X203849505Y-142339173D01*
X203794358Y-142172751D01*
X203794356Y-142172746D01*
X203702315Y-142023525D01*
X203578345Y-141899555D01*
X203429124Y-141807514D01*
X203429119Y-141807512D01*
X203262697Y-141752365D01*
X203262690Y-141752364D01*
X203159986Y-141741871D01*
X202860000Y-141741871D01*
X202860000Y-142491871D01*
X202360000Y-142491871D01*
X202360000Y-141741871D01*
X202060028Y-141741871D01*
X202060012Y-141741872D01*
X201957302Y-141752365D01*
X201790880Y-141807512D01*
X201790875Y-141807514D01*
X201641654Y-141899555D01*
X201517684Y-142023525D01*
X201425643Y-142172746D01*
X201425641Y-142172751D01*
X201370494Y-142339173D01*
X201370493Y-142339180D01*
X201360000Y-142441884D01*
X195384624Y-142441884D01*
X195384624Y-134675774D01*
X195404309Y-134608735D01*
X195457113Y-134562980D01*
X195526271Y-134553036D01*
X195589827Y-134582061D01*
X195623184Y-134628318D01*
X195656135Y-134707868D01*
X195656136Y-134707869D01*
X195823606Y-134875340D01*
X195857091Y-134936663D01*
X195852107Y-135006355D01*
X195846410Y-135019316D01*
X195748444Y-135211585D01*
X195682753Y-135413760D01*
X195653709Y-135597137D01*
X195649500Y-135623713D01*
X195649500Y-135836287D01*
X195659534Y-135899644D01*
X195662161Y-135916228D01*
X195682754Y-136046243D01*
X195748333Y-136248074D01*
X195748444Y-136248414D01*
X195844951Y-136437820D01*
X195969890Y-136609786D01*
X196120213Y-136760109D01*
X196292182Y-136885050D01*
X196300946Y-136889516D01*
X196351742Y-136937491D01*
X196368536Y-137005312D01*
X196345998Y-137071447D01*
X196300946Y-137110484D01*
X196292182Y-137114949D01*
X196120213Y-137239890D01*
X195969890Y-137390213D01*
X195844951Y-137562179D01*
X195748444Y-137751585D01*
X195682753Y-137953760D01*
X195650998Y-138154257D01*
X195649500Y-138163713D01*
X195649500Y-138376287D01*
X195682754Y-138586243D01*
X195737165Y-138753703D01*
X195748444Y-138788414D01*
X195844951Y-138977820D01*
X195969890Y-139149786D01*
X196083818Y-139263714D01*
X196117303Y-139325037D01*
X196112319Y-139394729D01*
X196070447Y-139450662D01*
X196039471Y-139467577D01*
X195907912Y-139516646D01*
X195907906Y-139516649D01*
X195792812Y-139602809D01*
X195792809Y-139602812D01*
X195706649Y-139717906D01*
X195706645Y-139717913D01*
X195656403Y-139852620D01*
X195656401Y-139852627D01*
X195650000Y-139912155D01*
X195650000Y-140560000D01*
X196566988Y-140560000D01*
X196534075Y-140617007D01*
X196500000Y-140744174D01*
X196500000Y-140875826D01*
X196534075Y-141002993D01*
X196566988Y-141060000D01*
X195650000Y-141060000D01*
X195650000Y-141707844D01*
X195656401Y-141767372D01*
X195656403Y-141767379D01*
X195706645Y-141902086D01*
X195706649Y-141902093D01*
X195792809Y-142017187D01*
X195792812Y-142017190D01*
X195907906Y-142103350D01*
X195907913Y-142103354D01*
X196042620Y-142153596D01*
X196042627Y-142153598D01*
X196102155Y-142159999D01*
X196102172Y-142160000D01*
X196750000Y-142160000D01*
X196750000Y-141243012D01*
X196807007Y-141275925D01*
X196934174Y-141310000D01*
X197065826Y-141310000D01*
X197192993Y-141275925D01*
X197250000Y-141243012D01*
X197250000Y-142160000D01*
X197897828Y-142160000D01*
X197897844Y-142159999D01*
X197957372Y-142153598D01*
X197957379Y-142153596D01*
X198092086Y-142103354D01*
X198092093Y-142103350D01*
X198207187Y-142017190D01*
X198207190Y-142017187D01*
X198293350Y-141902093D01*
X198293354Y-141902086D01*
X198343596Y-141767379D01*
X198343598Y-141767372D01*
X198349999Y-141707844D01*
X198350000Y-141707827D01*
X198350000Y-141060000D01*
X197433012Y-141060000D01*
X197465925Y-141002993D01*
X197500000Y-140875826D01*
X197500000Y-140744174D01*
X197465925Y-140617007D01*
X197433012Y-140560000D01*
X198350000Y-140560000D01*
X198350000Y-139912172D01*
X198349999Y-139912155D01*
X198343598Y-139852627D01*
X198343596Y-139852620D01*
X198293354Y-139717913D01*
X198293350Y-139717906D01*
X198207190Y-139602812D01*
X198207187Y-139602809D01*
X198092093Y-139516649D01*
X198092088Y-139516646D01*
X197960528Y-139467577D01*
X197904595Y-139425705D01*
X197880178Y-139360241D01*
X197895030Y-139291968D01*
X197916175Y-139263720D01*
X198030104Y-139149792D01*
X198155051Y-138977816D01*
X198251557Y-138788412D01*
X198317246Y-138586243D01*
X198350500Y-138376287D01*
X198350500Y-138163713D01*
X198317246Y-137953757D01*
X198251557Y-137751588D01*
X198155051Y-137562184D01*
X198152947Y-137559288D01*
X198136897Y-137537196D01*
X198113417Y-137471390D01*
X198129243Y-137403336D01*
X198179349Y-137354641D01*
X198247827Y-137340766D01*
X198312936Y-137366115D01*
X198324896Y-137376630D01*
X201323181Y-140374915D01*
X201356666Y-140436238D01*
X201359500Y-140462593D01*
X201359500Y-140501870D01*
X201359501Y-140501890D01*
X201370000Y-140604667D01*
X201370001Y-140604670D01*
X201425185Y-140771202D01*
X201425186Y-140771205D01*
X201517288Y-140920527D01*
X201641344Y-141044583D01*
X201790666Y-141136685D01*
X201957203Y-141191870D01*
X202059991Y-141202371D01*
X203160008Y-141202370D01*
X203160016Y-141202369D01*
X203160019Y-141202369D01*
X203216302Y-141196619D01*
X203262797Y-141191870D01*
X203429334Y-141136685D01*
X203578656Y-141044583D01*
X203702712Y-140920527D01*
X203794814Y-140771205D01*
X203849999Y-140604668D01*
X203860500Y-140501880D01*
X203860499Y-139901863D01*
X203855469Y-139852627D01*
X203849999Y-139799074D01*
X203849998Y-139799071D01*
X203823105Y-139717913D01*
X203794814Y-139632537D01*
X203702712Y-139483215D01*
X203578656Y-139359159D01*
X203482912Y-139300104D01*
X203429336Y-139267058D01*
X203429331Y-139267056D01*
X203427862Y-139266569D01*
X203262797Y-139211872D01*
X203262795Y-139211871D01*
X203160010Y-139201371D01*
X202059998Y-139201371D01*
X202059980Y-139201372D01*
X201957203Y-139211871D01*
X201957200Y-139211872D01*
X201790668Y-139267056D01*
X201790663Y-139267058D01*
X201641342Y-139359160D01*
X201517289Y-139483213D01*
X201430866Y-139623328D01*
X201378918Y-139670052D01*
X201309955Y-139681275D01*
X201245873Y-139653431D01*
X201237646Y-139645912D01*
X198176393Y-136584659D01*
X198142908Y-136523336D01*
X198147892Y-136453644D01*
X198153589Y-136440683D01*
X198155048Y-136437820D01*
X198155051Y-136437816D01*
X198251557Y-136248412D01*
X198317246Y-136046243D01*
X198350500Y-135836287D01*
X198350500Y-135623713D01*
X198317246Y-135413757D01*
X198251557Y-135211588D01*
X198155051Y-135022184D01*
X198155049Y-135022181D01*
X198155048Y-135022179D01*
X198030109Y-134850213D01*
X197879786Y-134699890D01*
X197707820Y-134574951D01*
X197707115Y-134574591D01*
X197699054Y-134570485D01*
X197648259Y-134522512D01*
X197631463Y-134454692D01*
X197653999Y-134388556D01*
X197699054Y-134349515D01*
X197707816Y-134345051D01*
X197832216Y-134254670D01*
X197879786Y-134220109D01*
X197879788Y-134220106D01*
X197879792Y-134220104D01*
X198030104Y-134069792D01*
X198030106Y-134069788D01*
X198030109Y-134069786D01*
X198155048Y-133897820D01*
X198155047Y-133897820D01*
X198155051Y-133897816D01*
X198251557Y-133708412D01*
X198317246Y-133506243D01*
X198350500Y-133296287D01*
X198350500Y-133083713D01*
X198317246Y-132873757D01*
X198251557Y-132671588D01*
X198155051Y-132482184D01*
X198155049Y-132482181D01*
X198155048Y-132482179D01*
X198030109Y-132310213D01*
X197879786Y-132159890D01*
X197707820Y-132034951D01*
X197518414Y-131938444D01*
X197518413Y-131938443D01*
X197518412Y-131938443D01*
X197316243Y-131872754D01*
X197316241Y-131872753D01*
X197316240Y-131872753D01*
X197154957Y-131847208D01*
X197106287Y-131839500D01*
X196893713Y-131839500D01*
X196845042Y-131847208D01*
X196683760Y-131872753D01*
X196481585Y-131938444D01*
X196292180Y-132034950D01*
X196273384Y-132048607D01*
X196207577Y-132072086D01*
X196139523Y-132056260D01*
X196090829Y-132006153D01*
X196076500Y-131948288D01*
X196076500Y-129687633D01*
X196081621Y-129670191D01*
X196081726Y-129652014D01*
X196091260Y-129637363D01*
X196096185Y-129620594D01*
X196109922Y-129608690D01*
X196119838Y-129593455D01*
X196135779Y-129586285D01*
X196148989Y-129574839D01*
X196166981Y-129572251D01*
X196183559Y-129564796D01*
X196212803Y-129565663D01*
X196218147Y-129564895D01*
X196218853Y-129564999D01*
X196221788Y-129565438D01*
X196338357Y-129588625D01*
X196376724Y-129588625D01*
X196385852Y-129589991D01*
X196409513Y-129600962D01*
X196434538Y-129608310D01*
X196440700Y-129615422D01*
X196449239Y-129619381D01*
X196463214Y-129641404D01*
X196480293Y-129661114D01*
X196482677Y-129672075D01*
X196486675Y-129678375D01*
X196486607Y-129690139D01*
X196491499Y-129712625D01*
X196491499Y-129741772D01*
X196524181Y-129906075D01*
X196524183Y-129906083D01*
X196588294Y-130060861D01*
X196681372Y-130200163D01*
X196799836Y-130318627D01*
X196839950Y-130345430D01*
X196939136Y-130411704D01*
X197093917Y-130475817D01*
X197255492Y-130507956D01*
X197258227Y-130508500D01*
X197258231Y-130508501D01*
X197258232Y-130508501D01*
X197425767Y-130508501D01*
X197425768Y-130508500D01*
X197590081Y-130475817D01*
X197744862Y-130411704D01*
X197867128Y-130330007D01*
X197933802Y-130309131D01*
X198001182Y-130327615D01*
X198023697Y-130345430D01*
X198218788Y-130540521D01*
X198252273Y-130601844D01*
X198247289Y-130671536D01*
X198245668Y-130675655D01*
X198182184Y-130828917D01*
X198182182Y-130828925D01*
X198149500Y-130993228D01*
X198149500Y-131160771D01*
X198182182Y-131325074D01*
X198182184Y-131325082D01*
X198246295Y-131479860D01*
X198339373Y-131619162D01*
X198457837Y-131737626D01*
X198547638Y-131797629D01*
X198597137Y-131830703D01*
X198597138Y-131830703D01*
X198597139Y-131830704D01*
X198632201Y-131845227D01*
X198751918Y-131894816D01*
X198916228Y-131927499D01*
X198916232Y-131927500D01*
X198916233Y-131927500D01*
X199083768Y-131927500D01*
X199083769Y-131927499D01*
X199248082Y-131894816D01*
X199402863Y-131830703D01*
X199542162Y-131737626D01*
X199547447Y-131732341D01*
X199560819Y-131718970D01*
X199622142Y-131685485D01*
X199691834Y-131690469D01*
X199747767Y-131732341D01*
X199772184Y-131797805D01*
X199772500Y-131806651D01*
X199772500Y-135847124D01*
X199807136Y-135930741D01*
X201323181Y-137446785D01*
X201356666Y-137508108D01*
X201359500Y-137534466D01*
X201359500Y-137961872D01*
X201359501Y-137961890D01*
X201370000Y-138064667D01*
X201370001Y-138064670D01*
X201405013Y-138170327D01*
X201425186Y-138231205D01*
X201517288Y-138380527D01*
X201641344Y-138504583D01*
X201790666Y-138596685D01*
X201957203Y-138651870D01*
X202059991Y-138662371D01*
X203160008Y-138662370D01*
X203160016Y-138662369D01*
X203160019Y-138662369D01*
X203216302Y-138656619D01*
X203262797Y-138651870D01*
X203429334Y-138596685D01*
X203578656Y-138504583D01*
X203702712Y-138380527D01*
X203794814Y-138231205D01*
X203849999Y-138064668D01*
X203860500Y-137961880D01*
X203860499Y-137361863D01*
X203849999Y-137259074D01*
X203794814Y-137092537D01*
X203794465Y-137091971D01*
X203794345Y-137091534D01*
X203791760Y-137085989D01*
X203792707Y-137085547D01*
X203776022Y-137024583D01*
X203792594Y-136968142D01*
X203791760Y-136967753D01*
X203794322Y-136962258D01*
X203794465Y-136961770D01*
X203794814Y-136961205D01*
X203849999Y-136794668D01*
X203860500Y-136691880D01*
X203860499Y-136264464D01*
X203880183Y-136197426D01*
X203896813Y-136176789D01*
X206692866Y-133380739D01*
X206727500Y-133297123D01*
X206727500Y-133206618D01*
X206727500Y-131273246D01*
X208280855Y-131273246D01*
X208280855Y-131273248D01*
X208280855Y-147353012D01*
X208311379Y-147426704D01*
X208367781Y-147483106D01*
X208441473Y-147513630D01*
X208441475Y-147513630D01*
X214521235Y-147513630D01*
X214521237Y-147513630D01*
X214594929Y-147483106D01*
X214651331Y-147426704D01*
X214681855Y-147353012D01*
X214681855Y-131273248D01*
X214651331Y-131199556D01*
X214594929Y-131143154D01*
X214548016Y-131123722D01*
X214521238Y-131112630D01*
X214521237Y-131112630D01*
X208521237Y-131112630D01*
X208441473Y-131112630D01*
X208441471Y-131112630D01*
X208367780Y-131143154D01*
X208311379Y-131199555D01*
X208280855Y-131273246D01*
X206727500Y-131273246D01*
X206727500Y-129763561D01*
X216802167Y-129763561D01*
X216802167Y-129931104D01*
X216834849Y-130095407D01*
X216834851Y-130095415D01*
X216898962Y-130250193D01*
X216992040Y-130389495D01*
X217110504Y-130507959D01*
X217159237Y-130540521D01*
X217249804Y-130601036D01*
X217394658Y-130661037D01*
X217449060Y-130704877D01*
X217456383Y-130718289D01*
X217459803Y-130723407D01*
X219103181Y-132366785D01*
X219136666Y-132428108D01*
X219139500Y-132454466D01*
X219139500Y-132881872D01*
X219139501Y-132881890D01*
X219150000Y-132984667D01*
X219150001Y-132984670D01*
X219205187Y-133151208D01*
X219205537Y-133151775D01*
X219205658Y-133152219D01*
X219208240Y-133157756D01*
X219207294Y-133158196D01*
X219223977Y-133219168D01*
X219207407Y-133275597D01*
X219208240Y-133275986D01*
X219205682Y-133281471D01*
X219205537Y-133281967D01*
X219205187Y-133282533D01*
X219177841Y-133365056D01*
X219150001Y-133449074D01*
X219150001Y-133449075D01*
X219150000Y-133449075D01*
X219139500Y-133551854D01*
X219139500Y-133626841D01*
X219119815Y-133693880D01*
X219067011Y-133739635D01*
X218997853Y-133749579D01*
X218968047Y-133741402D01*
X218825082Y-133682184D01*
X218825074Y-133682182D01*
X218660771Y-133649500D01*
X218660767Y-133649500D01*
X218493233Y-133649500D01*
X218493228Y-133649500D01*
X218328925Y-133682182D01*
X218328917Y-133682184D01*
X218174139Y-133746295D01*
X218034837Y-133839373D01*
X217916373Y-133957837D01*
X217823295Y-134097139D01*
X217759184Y-134251917D01*
X217759182Y-134251925D01*
X217726500Y-134416228D01*
X217726500Y-134583771D01*
X217759182Y-134748074D01*
X217759184Y-134748082D01*
X217823295Y-134902860D01*
X217916373Y-135042162D01*
X218004307Y-135130096D01*
X218037792Y-135191419D01*
X218032808Y-135261111D01*
X217990936Y-135317044D01*
X217985517Y-135320879D01*
X217957838Y-135339373D01*
X217957834Y-135339376D01*
X217839373Y-135457837D01*
X217746295Y-135597139D01*
X217682184Y-135751917D01*
X217682182Y-135751925D01*
X217649500Y-135916228D01*
X217649500Y-136083771D01*
X217682182Y-136248074D01*
X217682184Y-136248082D01*
X217746295Y-136402860D01*
X217839373Y-136542162D01*
X217957837Y-136660626D01*
X218004623Y-136691887D01*
X218097137Y-136753703D01*
X218251918Y-136817816D01*
X218416228Y-136850499D01*
X218416232Y-136850500D01*
X218416233Y-136850500D01*
X218583768Y-136850500D01*
X218583769Y-136850499D01*
X218748082Y-136817816D01*
X218846900Y-136776883D01*
X218916365Y-136769415D01*
X218978845Y-136800689D01*
X218982025Y-136803758D01*
X219167435Y-136989169D01*
X219174897Y-137002835D01*
X219186313Y-137013435D01*
X219191302Y-137032878D01*
X219200920Y-137050491D01*
X219200048Y-137066956D01*
X219203681Y-137081112D01*
X219197460Y-137115853D01*
X219159882Y-137229254D01*
X219120109Y-137286699D01*
X219055593Y-137313522D01*
X218986817Y-137301207D01*
X218973285Y-137293352D01*
X218963328Y-137286699D01*
X218902863Y-137246297D01*
X218902862Y-137246296D01*
X218902860Y-137246295D01*
X218748082Y-137182184D01*
X218748074Y-137182182D01*
X218583771Y-137149500D01*
X218583767Y-137149500D01*
X218416233Y-137149500D01*
X218416228Y-137149500D01*
X218251925Y-137182182D01*
X218251917Y-137182184D01*
X218097139Y-137246295D01*
X217957837Y-137339373D01*
X217839373Y-137457837D01*
X217746295Y-137597139D01*
X217682184Y-137751917D01*
X217682182Y-137751925D01*
X217649500Y-137916228D01*
X217649500Y-138083771D01*
X217682182Y-138248074D01*
X217682184Y-138248082D01*
X217746296Y-138402861D01*
X217746297Y-138402863D01*
X217757967Y-138420329D01*
X217778844Y-138487006D01*
X217760359Y-138554386D01*
X217723756Y-138592319D01*
X217666905Y-138630306D01*
X217666899Y-138630311D01*
X217548438Y-138748772D01*
X217455360Y-138888074D01*
X217391249Y-139042852D01*
X217391247Y-139042860D01*
X217358565Y-139207163D01*
X217358565Y-139374703D01*
X217359162Y-139380765D01*
X217357329Y-139380945D01*
X217351855Y-139441954D01*
X217308979Y-139497122D01*
X217305371Y-139499626D01*
X217281906Y-139515305D01*
X217281897Y-139515313D01*
X217163438Y-139633772D01*
X217070360Y-139773074D01*
X217006249Y-139927852D01*
X217006247Y-139927860D01*
X216973565Y-140092163D01*
X216973565Y-140259706D01*
X217006247Y-140424009D01*
X217006249Y-140424017D01*
X217070360Y-140578795D01*
X217163438Y-140718097D01*
X217281902Y-140836561D01*
X217370181Y-140895547D01*
X217421202Y-140929638D01*
X217421203Y-140929638D01*
X217421204Y-140929639D01*
X217564656Y-140989059D01*
X217619059Y-141032900D01*
X217630221Y-141053339D01*
X217631201Y-141054806D01*
X219103181Y-142526786D01*
X219136666Y-142588109D01*
X219139500Y-142614467D01*
X219139500Y-143041872D01*
X219139501Y-143041890D01*
X219150000Y-143144667D01*
X219150001Y-143144670D01*
X219205187Y-143311208D01*
X219205537Y-143311775D01*
X219205658Y-143312219D01*
X219208240Y-143317756D01*
X219207294Y-143318196D01*
X219223977Y-143379168D01*
X219207407Y-143435597D01*
X219208240Y-143435986D01*
X219205682Y-143441471D01*
X219205537Y-143441967D01*
X219205187Y-143442533D01*
X219194263Y-143475500D01*
X219150001Y-143609074D01*
X219150001Y-143609075D01*
X219150000Y-143609075D01*
X219139500Y-143711854D01*
X219139500Y-144311872D01*
X219139501Y-144311890D01*
X219150000Y-144414667D01*
X219150001Y-144414670D01*
X219205187Y-144581208D01*
X219205537Y-144581775D01*
X219205658Y-144582219D01*
X219208240Y-144587756D01*
X219207294Y-144588196D01*
X219223977Y-144649168D01*
X219207407Y-144705597D01*
X219208240Y-144705986D01*
X219205682Y-144711471D01*
X219205537Y-144711967D01*
X219205187Y-144712533D01*
X219193705Y-144747185D01*
X219150001Y-144879074D01*
X219150001Y-144879075D01*
X219150000Y-144879075D01*
X219139500Y-144981854D01*
X219139500Y-144989157D01*
X219119815Y-145056196D01*
X219102539Y-145077476D01*
X219091985Y-145087876D01*
X219089261Y-145089005D01*
X218981758Y-145196507D01*
X218981388Y-145196872D01*
X218950959Y-145213199D01*
X218920706Y-145229719D01*
X218920236Y-145229685D01*
X218919822Y-145229908D01*
X218885359Y-145227190D01*
X218851014Y-145224734D01*
X218850215Y-145224419D01*
X218850169Y-145224416D01*
X218850129Y-145224385D01*
X218846897Y-145223114D01*
X218748086Y-145182185D01*
X218748074Y-145182182D01*
X218583771Y-145149500D01*
X218583767Y-145149500D01*
X218416233Y-145149500D01*
X218416228Y-145149500D01*
X218251925Y-145182182D01*
X218251917Y-145182184D01*
X218097139Y-145246295D01*
X217957837Y-145339373D01*
X217839373Y-145457837D01*
X217746295Y-145597139D01*
X217682184Y-145751917D01*
X217682182Y-145751925D01*
X217649500Y-145916228D01*
X217649500Y-146083771D01*
X217682182Y-146248074D01*
X217682184Y-146248082D01*
X217746295Y-146402860D01*
X217839373Y-146542162D01*
X217957837Y-146660626D01*
X218050494Y-146722537D01*
X218097137Y-146753703D01*
X218251918Y-146817816D01*
X218374134Y-146842126D01*
X218416228Y-146850499D01*
X218416232Y-146850500D01*
X218416233Y-146850500D01*
X218583768Y-146850500D01*
X218583769Y-146850499D01*
X218748082Y-146817816D01*
X218902863Y-146753703D01*
X219042162Y-146660626D01*
X219160626Y-146542162D01*
X219253703Y-146402863D01*
X219317816Y-146248082D01*
X219317819Y-146248064D01*
X219318954Y-146244326D01*
X219320089Y-146242593D01*
X219320147Y-146242454D01*
X219320173Y-146242464D01*
X219357247Y-146185884D01*
X219421056Y-146157422D01*
X219490124Y-146167976D01*
X219502705Y-146174766D01*
X219570666Y-146216685D01*
X219737203Y-146271870D01*
X219839991Y-146282371D01*
X220940008Y-146282370D01*
X220940016Y-146282369D01*
X220940019Y-146282369D01*
X220996302Y-146276619D01*
X221042797Y-146271870D01*
X221209334Y-146216685D01*
X221358656Y-146124583D01*
X221482712Y-146000527D01*
X221574814Y-145851205D01*
X221629999Y-145684668D01*
X221640500Y-145581880D01*
X221640499Y-144981863D01*
X221637434Y-144951862D01*
X221629999Y-144879074D01*
X221629998Y-144879071D01*
X221604879Y-144803268D01*
X221574814Y-144712537D01*
X221574465Y-144711971D01*
X221574345Y-144711534D01*
X221571760Y-144705989D01*
X221572707Y-144705547D01*
X221556022Y-144644583D01*
X221572594Y-144588142D01*
X221571760Y-144587753D01*
X221574322Y-144582258D01*
X221574465Y-144581770D01*
X221574814Y-144581205D01*
X221629999Y-144414668D01*
X221640500Y-144311880D01*
X221640499Y-143711863D01*
X221639549Y-143702567D01*
X221629999Y-143609074D01*
X221629998Y-143609071D01*
X221621752Y-143584186D01*
X221574814Y-143442537D01*
X221574465Y-143441971D01*
X221574345Y-143441534D01*
X221571760Y-143435989D01*
X221572707Y-143435547D01*
X221556022Y-143374583D01*
X221572594Y-143318142D01*
X221571760Y-143317753D01*
X221574322Y-143312258D01*
X221574465Y-143311770D01*
X221574814Y-143311205D01*
X221629999Y-143144668D01*
X221640500Y-143041880D01*
X221640499Y-142441863D01*
X221629999Y-142339074D01*
X221574814Y-142172537D01*
X221574465Y-142171971D01*
X221574345Y-142171534D01*
X221571760Y-142165989D01*
X221572707Y-142165547D01*
X221556022Y-142104583D01*
X221572594Y-142048142D01*
X221571760Y-142047753D01*
X221574322Y-142042258D01*
X221574465Y-142041770D01*
X221574814Y-142041205D01*
X221629999Y-141874668D01*
X221640500Y-141771880D01*
X221640499Y-141171863D01*
X221634895Y-141117007D01*
X221629999Y-141069074D01*
X221629998Y-141069071D01*
X221605039Y-140993751D01*
X221574814Y-140902537D01*
X221574465Y-140901971D01*
X221574345Y-140901534D01*
X221571760Y-140895989D01*
X221572707Y-140895547D01*
X221556022Y-140834583D01*
X221572594Y-140778142D01*
X221571760Y-140777753D01*
X221574322Y-140772258D01*
X221574465Y-140771770D01*
X221574814Y-140771205D01*
X221629999Y-140604668D01*
X221640500Y-140501880D01*
X221640499Y-139901863D01*
X221635469Y-139852627D01*
X221629999Y-139799074D01*
X221629998Y-139799071D01*
X221603105Y-139717913D01*
X221574814Y-139632537D01*
X221574465Y-139631971D01*
X221574345Y-139631534D01*
X221571760Y-139625989D01*
X221572707Y-139625547D01*
X221556022Y-139564583D01*
X221572594Y-139508142D01*
X221571760Y-139507753D01*
X221574322Y-139502258D01*
X221574465Y-139501770D01*
X221574814Y-139501205D01*
X221629999Y-139334668D01*
X221640500Y-139231880D01*
X221640499Y-138631863D01*
X221640340Y-138630311D01*
X221629999Y-138529074D01*
X221629998Y-138529071D01*
X221593964Y-138420329D01*
X221574814Y-138362537D01*
X221574465Y-138361971D01*
X221574345Y-138361534D01*
X221571760Y-138355989D01*
X221572707Y-138355547D01*
X221556022Y-138294583D01*
X221572594Y-138238142D01*
X221571760Y-138237753D01*
X221574322Y-138232258D01*
X221574465Y-138231770D01*
X221574814Y-138231205D01*
X221629999Y-138064668D01*
X221640500Y-137961880D01*
X221640499Y-137361863D01*
X221629999Y-137259074D01*
X221574814Y-137092537D01*
X221574465Y-137091971D01*
X221574345Y-137091534D01*
X221571760Y-137085989D01*
X221572707Y-137085547D01*
X221556022Y-137024583D01*
X221572594Y-136968142D01*
X221571760Y-136967753D01*
X221574322Y-136962258D01*
X221574465Y-136961770D01*
X221574814Y-136961205D01*
X221629999Y-136794668D01*
X221640500Y-136691880D01*
X221640499Y-136091863D01*
X221639672Y-136083771D01*
X221629999Y-135989074D01*
X221629998Y-135989071D01*
X221610669Y-135930741D01*
X221574814Y-135822537D01*
X221574465Y-135821971D01*
X221574345Y-135821534D01*
X221571760Y-135815989D01*
X221572707Y-135815547D01*
X221556022Y-135754583D01*
X221572594Y-135698142D01*
X221571760Y-135697753D01*
X221574322Y-135692258D01*
X221574465Y-135691770D01*
X221574814Y-135691205D01*
X221629999Y-135524668D01*
X221640500Y-135421880D01*
X221640499Y-134821863D01*
X221629999Y-134719074D01*
X221574814Y-134552537D01*
X221574465Y-134551971D01*
X221574345Y-134551534D01*
X221571760Y-134545989D01*
X221572707Y-134545547D01*
X221556022Y-134484583D01*
X221572594Y-134428142D01*
X221571760Y-134427753D01*
X221574322Y-134422258D01*
X221574465Y-134421770D01*
X221574814Y-134421205D01*
X221629999Y-134254668D01*
X221640500Y-134151880D01*
X221640499Y-133551863D01*
X221635838Y-133506239D01*
X221629999Y-133449074D01*
X221629998Y-133449071D01*
X221574814Y-133282537D01*
X221574465Y-133281971D01*
X221574345Y-133281534D01*
X221571760Y-133275989D01*
X221572707Y-133275547D01*
X221556022Y-133214583D01*
X221572594Y-133158142D01*
X221571760Y-133157753D01*
X221574322Y-133152258D01*
X221574465Y-133151770D01*
X221574814Y-133151205D01*
X221629999Y-132984668D01*
X221640500Y-132881880D01*
X221640499Y-132281863D01*
X221629999Y-132179074D01*
X221574814Y-132012537D01*
X221574465Y-132011971D01*
X221574345Y-132011534D01*
X221571760Y-132005989D01*
X221572707Y-132005547D01*
X221556022Y-131944583D01*
X221572594Y-131888142D01*
X221571760Y-131887753D01*
X221574322Y-131882258D01*
X221574465Y-131881770D01*
X221574814Y-131881205D01*
X221629999Y-131714668D01*
X221640500Y-131611880D01*
X221640499Y-131011863D01*
X221639477Y-131001862D01*
X221629999Y-130909074D01*
X221629998Y-130909071D01*
X221613869Y-130860398D01*
X221574814Y-130742537D01*
X221574465Y-130741971D01*
X221574345Y-130741534D01*
X221571760Y-130735989D01*
X221572707Y-130735547D01*
X221556022Y-130674583D01*
X221572594Y-130618142D01*
X221571760Y-130617753D01*
X221574322Y-130612258D01*
X221574465Y-130611770D01*
X221574814Y-130611205D01*
X221629999Y-130444668D01*
X221640500Y-130341880D01*
X221640499Y-129741863D01*
X221640489Y-129741768D01*
X221629999Y-129639074D01*
X221629998Y-129639071D01*
X221616803Y-129599251D01*
X221574814Y-129472537D01*
X221482712Y-129323215D01*
X221358656Y-129199159D01*
X221223572Y-129115839D01*
X221209336Y-129107058D01*
X221209331Y-129107056D01*
X221149355Y-129087182D01*
X221042797Y-129051872D01*
X221042795Y-129051871D01*
X220940010Y-129041371D01*
X219839998Y-129041371D01*
X219839980Y-129041372D01*
X219737203Y-129051871D01*
X219737200Y-129051872D01*
X219570668Y-129107056D01*
X219570663Y-129107058D01*
X219421342Y-129199160D01*
X219351246Y-129269257D01*
X219289923Y-129302742D01*
X219220231Y-129297758D01*
X219164298Y-129255886D01*
X219139881Y-129190422D01*
X219139565Y-129181576D01*
X219139565Y-129127167D01*
X219139564Y-129127163D01*
X219135565Y-129107057D01*
X219106881Y-128962853D01*
X219051861Y-128830024D01*
X219042769Y-128808074D01*
X219036713Y-128799011D01*
X219002896Y-128748400D01*
X218949691Y-128668772D01*
X218831227Y-128550308D01*
X218691925Y-128457230D01*
X218537147Y-128393119D01*
X218537139Y-128393117D01*
X218372836Y-128360435D01*
X218372832Y-128360435D01*
X218205298Y-128360435D01*
X218205293Y-128360435D01*
X218040990Y-128393117D01*
X218040982Y-128393119D01*
X217886204Y-128457230D01*
X217746902Y-128550308D01*
X217628438Y-128668772D01*
X217535360Y-128808074D01*
X217471379Y-128962539D01*
X217427538Y-129016942D01*
X217404271Y-129029647D01*
X217249806Y-129093628D01*
X217110504Y-129186706D01*
X216992040Y-129305170D01*
X216898962Y-129444472D01*
X216834851Y-129599250D01*
X216834849Y-129599258D01*
X216802167Y-129763561D01*
X206727500Y-129763561D01*
X206727500Y-125909195D01*
X206747185Y-125842156D01*
X206799989Y-125796401D01*
X206804032Y-125794640D01*
X206902863Y-125753703D01*
X207042162Y-125660626D01*
X207160626Y-125542162D01*
X207253703Y-125402863D01*
X207317816Y-125248082D01*
X207350500Y-125083767D01*
X207350500Y-124916233D01*
X207317816Y-124751918D01*
X207253703Y-124597137D01*
X207222537Y-124550494D01*
X207160626Y-124457837D01*
X207042162Y-124339373D01*
X206902860Y-124246295D01*
X206748082Y-124182184D01*
X206748074Y-124182182D01*
X206583771Y-124149500D01*
X206583767Y-124149500D01*
X206416233Y-124149500D01*
X206416228Y-124149500D01*
X206251925Y-124182182D01*
X206251917Y-124182184D01*
X206097139Y-124246295D01*
X205957837Y-124339373D01*
X205839373Y-124457837D01*
X205746295Y-124597139D01*
X205682184Y-124751917D01*
X205682182Y-124751925D01*
X205649500Y-124916228D01*
X205649500Y-125083771D01*
X205682182Y-125248074D01*
X205682184Y-125248082D01*
X205746295Y-125402860D01*
X205839373Y-125542162D01*
X205957837Y-125660626D01*
X206097138Y-125753704D01*
X206161241Y-125780256D01*
X206195953Y-125794634D01*
X206250356Y-125838475D01*
X206272421Y-125904769D01*
X206272500Y-125909195D01*
X206272500Y-133106275D01*
X206252815Y-133173314D01*
X206236181Y-133193956D01*
X204072180Y-135357956D01*
X204010857Y-135391441D01*
X203941165Y-135386457D01*
X203885232Y-135344585D01*
X203860815Y-135279121D01*
X203860499Y-135270295D01*
X203860499Y-134821863D01*
X203849999Y-134719074D01*
X203794814Y-134552537D01*
X203794465Y-134551971D01*
X203794345Y-134551534D01*
X203791760Y-134545989D01*
X203792707Y-134545547D01*
X203776022Y-134484583D01*
X203792594Y-134428142D01*
X203791760Y-134427753D01*
X203794322Y-134422258D01*
X203794465Y-134421770D01*
X203794814Y-134421205D01*
X203849999Y-134254668D01*
X203860500Y-134151880D01*
X203860499Y-133551863D01*
X203855838Y-133506239D01*
X203849999Y-133449074D01*
X203849998Y-133449071D01*
X203794814Y-133282537D01*
X203794465Y-133281971D01*
X203794345Y-133281534D01*
X203791760Y-133275989D01*
X203792707Y-133275547D01*
X203776022Y-133214583D01*
X203792594Y-133158142D01*
X203791760Y-133157753D01*
X203794322Y-133152258D01*
X203794465Y-133151770D01*
X203794814Y-133151205D01*
X203849999Y-132984668D01*
X203860500Y-132881880D01*
X203860499Y-132281863D01*
X203849999Y-132179074D01*
X203794814Y-132012537D01*
X203794465Y-132011971D01*
X203794345Y-132011534D01*
X203791760Y-132005989D01*
X203792707Y-132005547D01*
X203776022Y-131944583D01*
X203792594Y-131888142D01*
X203791760Y-131887753D01*
X203794322Y-131882258D01*
X203794465Y-131881770D01*
X203794814Y-131881205D01*
X203849999Y-131714668D01*
X203860500Y-131611880D01*
X203860499Y-131148388D01*
X203869938Y-131100935D01*
X203871657Y-131096785D01*
X203888500Y-131056124D01*
X203888500Y-125492571D01*
X203908185Y-125425532D01*
X203960989Y-125379777D01*
X204030147Y-125369833D01*
X204059953Y-125378010D01*
X204082418Y-125387316D01*
X204246728Y-125419999D01*
X204246732Y-125420000D01*
X204246733Y-125420000D01*
X204414268Y-125420000D01*
X204414269Y-125419999D01*
X204578582Y-125387316D01*
X204733363Y-125323203D01*
X204872662Y-125230126D01*
X204991126Y-125111662D01*
X205084203Y-124972363D01*
X205148316Y-124817582D01*
X205181000Y-124653267D01*
X205181000Y-124485733D01*
X205148316Y-124321418D01*
X205107383Y-124222600D01*
X205099915Y-124153132D01*
X205131190Y-124090653D01*
X205134233Y-124087499D01*
X206007915Y-123213819D01*
X206069238Y-123180334D01*
X206095596Y-123177500D01*
X210727017Y-123177500D01*
X210794056Y-123197185D01*
X210839811Y-123249989D01*
X210846093Y-123266905D01*
X210873254Y-123360393D01*
X210873255Y-123360396D01*
X210956917Y-123501862D01*
X210956923Y-123501870D01*
X211073129Y-123618076D01*
X211073133Y-123618079D01*
X211073135Y-123618081D01*
X211214602Y-123701744D01*
X211256224Y-123713836D01*
X211372426Y-123747597D01*
X211372429Y-123747597D01*
X211372431Y-123747598D01*
X211409306Y-123750500D01*
X211409314Y-123750500D01*
X212715686Y-123750500D01*
X212715694Y-123750500D01*
X212752569Y-123747598D01*
X212752571Y-123747597D01*
X212752573Y-123747597D01*
X212828630Y-123725500D01*
X212910398Y-123701744D01*
X213051865Y-123618081D01*
X213168081Y-123501865D01*
X213251744Y-123360398D01*
X213297598Y-123202569D01*
X213300500Y-123165694D01*
X213300500Y-122924500D01*
X213320185Y-122857461D01*
X213372989Y-122811706D01*
X213424500Y-122800500D01*
X214590686Y-122800500D01*
X214590694Y-122800500D01*
X214627569Y-122797598D01*
X214627571Y-122797597D01*
X214627573Y-122797597D01*
X214669191Y-122785505D01*
X214785398Y-122751744D01*
X214926865Y-122668081D01*
X215043081Y-122551865D01*
X215126744Y-122410398D01*
X215162879Y-122286022D01*
X215172597Y-122252573D01*
X215172598Y-122252567D01*
X215175499Y-122215701D01*
X215175500Y-122215694D01*
X215175500Y-121784306D01*
X215172598Y-121747431D01*
X215171972Y-121745277D01*
X215126745Y-121589606D01*
X215126744Y-121589603D01*
X215126744Y-121589602D01*
X215043081Y-121448135D01*
X215043079Y-121448133D01*
X215043076Y-121448129D01*
X214926870Y-121331923D01*
X214926862Y-121331917D01*
X214836683Y-121278586D01*
X214785398Y-121248256D01*
X214785397Y-121248255D01*
X214785396Y-121248255D01*
X214785393Y-121248254D01*
X214627573Y-121202402D01*
X214627567Y-121202401D01*
X214590701Y-121199500D01*
X214590694Y-121199500D01*
X213424500Y-121199500D01*
X213357461Y-121179815D01*
X213311706Y-121127011D01*
X213300500Y-121075500D01*
X213300500Y-120834313D01*
X213300499Y-120834298D01*
X213297598Y-120797432D01*
X213297597Y-120797426D01*
X213251745Y-120639606D01*
X213251744Y-120639603D01*
X213251744Y-120639602D01*
X213168081Y-120498135D01*
X213168079Y-120498133D01*
X213168076Y-120498129D01*
X213051870Y-120381923D01*
X213051862Y-120381917D01*
X212910396Y-120298255D01*
X212910393Y-120298254D01*
X212752573Y-120252402D01*
X212752567Y-120252401D01*
X212715701Y-120249500D01*
X212715694Y-120249500D01*
X212162595Y-120249500D01*
X212095556Y-120229815D01*
X212074914Y-120213181D01*
X209425857Y-117564124D01*
X209392372Y-117502801D01*
X209397356Y-117433109D01*
X209403053Y-117420148D01*
X209496309Y-117237123D01*
X209571726Y-117005014D01*
X209609905Y-116763965D01*
X209609905Y-116519911D01*
X209571726Y-116278862D01*
X209496309Y-116046753D01*
X209385511Y-115829299D01*
X209330588Y-115753704D01*
X209242065Y-115631861D01*
X209242061Y-115631856D01*
X209069486Y-115459281D01*
X209069481Y-115459277D01*
X208872047Y-115315834D01*
X208872046Y-115315833D01*
X208872044Y-115315832D01*
X208654590Y-115205034D01*
X208422481Y-115129617D01*
X208422479Y-115129616D01*
X208422477Y-115129616D01*
X208254174Y-115102959D01*
X208181432Y-115091438D01*
X207937378Y-115091438D01*
X207881498Y-115100288D01*
X207696332Y-115129616D01*
X207464217Y-115205035D01*
X207246762Y-115315834D01*
X207049328Y-115459277D01*
X207049323Y-115459281D01*
X206876748Y-115631856D01*
X206876744Y-115631861D01*
X206733301Y-115829295D01*
X206622502Y-116046750D01*
X206547083Y-116278865D01*
X206508905Y-116519911D01*
X206508905Y-116763964D01*
X206540016Y-116960393D01*
X206547084Y-117005014D01*
X206622501Y-117237123D01*
X206730266Y-117448625D01*
X206733301Y-117454580D01*
X206876744Y-117652014D01*
X206876748Y-117652019D01*
X207049323Y-117824594D01*
X207049328Y-117824598D01*
X207199513Y-117933713D01*
X207246766Y-117968044D01*
X207464220Y-118078842D01*
X207696329Y-118154259D01*
X207937378Y-118192438D01*
X207937379Y-118192438D01*
X208181431Y-118192438D01*
X208181432Y-118192438D01*
X208422481Y-118154259D01*
X208654590Y-118078842D01*
X208872044Y-117968044D01*
X208968387Y-117898046D01*
X209034189Y-117874567D01*
X209102244Y-117890392D01*
X209128951Y-117910684D01*
X211300292Y-120082025D01*
X211333777Y-120143348D01*
X211328793Y-120213040D01*
X211286921Y-120268973D01*
X211247209Y-120288782D01*
X211214602Y-120298255D01*
X211073137Y-120381917D01*
X211073129Y-120381923D01*
X210956923Y-120498129D01*
X210956917Y-120498137D01*
X210873255Y-120639603D01*
X210873254Y-120639606D01*
X210827402Y-120797426D01*
X210827401Y-120797432D01*
X210824500Y-120834298D01*
X210824500Y-121265701D01*
X210827401Y-121302567D01*
X210827402Y-121302573D01*
X210873254Y-121460393D01*
X210873255Y-121460396D01*
X210873256Y-121460398D01*
X210885338Y-121480828D01*
X210947169Y-121585379D01*
X210964352Y-121653103D01*
X210942192Y-121719366D01*
X210887726Y-121763129D01*
X210840437Y-121772500D01*
X206145595Y-121772500D01*
X206078556Y-121752815D01*
X206057914Y-121736181D01*
X205113073Y-120791340D01*
X205079588Y-120730017D01*
X205084572Y-120660325D01*
X205126444Y-120604392D01*
X205176561Y-120582042D01*
X205248082Y-120567816D01*
X205402863Y-120503703D01*
X205542162Y-120410626D01*
X205660626Y-120292162D01*
X205753703Y-120152863D01*
X205817816Y-119998082D01*
X205850500Y-119833767D01*
X205850500Y-119666233D01*
X205817816Y-119501918D01*
X205753703Y-119347137D01*
X205717133Y-119292407D01*
X205660626Y-119207837D01*
X205542162Y-119089373D01*
X205433609Y-119016841D01*
X205388804Y-118963229D01*
X205378500Y-118913739D01*
X205378500Y-116494595D01*
X205398185Y-116427556D01*
X205414819Y-116406914D01*
X208557914Y-113263819D01*
X208619237Y-113230334D01*
X208645595Y-113227500D01*
X218539893Y-113227500D01*
X218606932Y-113247185D01*
X218652687Y-113299989D01*
X218657824Y-113313182D01*
X218697689Y-113435878D01*
X218697691Y-113435881D01*
X218778833Y-113595132D01*
X218883889Y-113739728D01*
X219010272Y-113866111D01*
X219154868Y-113971167D01*
X219314119Y-114052309D01*
X219314121Y-114052310D01*
X219455139Y-114098129D01*
X219484103Y-114107540D01*
X219660634Y-114135500D01*
X219660635Y-114135500D01*
X219839365Y-114135500D01*
X219839366Y-114135500D01*
X220015897Y-114107540D01*
X220015900Y-114107539D01*
X220015901Y-114107539D01*
X220185878Y-114052310D01*
X220185878Y-114052309D01*
X220185881Y-114052309D01*
X220345132Y-113971167D01*
X220489728Y-113866111D01*
X220616111Y-113739728D01*
X220721167Y-113595132D01*
X220802309Y-113435881D01*
X220813037Y-113402863D01*
X220857539Y-113265901D01*
X220857539Y-113265900D01*
X220857540Y-113265897D01*
X220885500Y-113089366D01*
X220885500Y-112910634D01*
X220857540Y-112734103D01*
X220857539Y-112734099D01*
X220857539Y-112734098D01*
X220802310Y-112564121D01*
X220802308Y-112564118D01*
X220800628Y-112560819D01*
X220721167Y-112404868D01*
X220616111Y-112260272D01*
X220489728Y-112133889D01*
X220345132Y-112028833D01*
X220185881Y-111947691D01*
X220185878Y-111947689D01*
X220015900Y-111892460D01*
X219923904Y-111877889D01*
X219889703Y-111872472D01*
X219826569Y-111842544D01*
X219789638Y-111783232D01*
X219790636Y-111713370D01*
X219829246Y-111655137D01*
X219889703Y-111627527D01*
X220015897Y-111607540D01*
X220015900Y-111607539D01*
X220015901Y-111607539D01*
X220185878Y-111552310D01*
X220185878Y-111552309D01*
X220185881Y-111552309D01*
X220345132Y-111471167D01*
X220489728Y-111366111D01*
X220616111Y-111239728D01*
X220721167Y-111095132D01*
X220802309Y-110935881D01*
X220807342Y-110920390D01*
X220857539Y-110765901D01*
X220857539Y-110765900D01*
X220857540Y-110765897D01*
X220885500Y-110589366D01*
X220885500Y-110410634D01*
X220857540Y-110234103D01*
X220857539Y-110234099D01*
X220857539Y-110234098D01*
X220802310Y-110064121D01*
X220802308Y-110064118D01*
X220759194Y-109979500D01*
X220721167Y-109904868D01*
X220616111Y-109760272D01*
X220489728Y-109633889D01*
X220345132Y-109528833D01*
X220185881Y-109447691D01*
X220185878Y-109447689D01*
X220015899Y-109392460D01*
X219949681Y-109381972D01*
X219886546Y-109352043D01*
X219849615Y-109292731D01*
X219850613Y-109222868D01*
X219889223Y-109164636D01*
X219953187Y-109136522D01*
X219969073Y-109135499D01*
X220432872Y-109135499D01*
X220492483Y-109129091D01*
X220627331Y-109078796D01*
X220742546Y-108992546D01*
X220828796Y-108877331D01*
X220879091Y-108742483D01*
X220885500Y-108682873D01*
X220885499Y-107317128D01*
X220880299Y-107268757D01*
X220879091Y-107257516D01*
X220828797Y-107122671D01*
X220828793Y-107122664D01*
X220742547Y-107007455D01*
X220742544Y-107007452D01*
X220627335Y-106921206D01*
X220627328Y-106921202D01*
X220492482Y-106870908D01*
X220492483Y-106870908D01*
X220432883Y-106864501D01*
X220432881Y-106864500D01*
X220432873Y-106864500D01*
X220432864Y-106864500D01*
X219067129Y-106864500D01*
X219067123Y-106864501D01*
X219007516Y-106870908D01*
X218872671Y-106921202D01*
X218872664Y-106921206D01*
X218757455Y-107007452D01*
X218757452Y-107007455D01*
X218671206Y-107122664D01*
X218671202Y-107122671D01*
X218620908Y-107257517D01*
X218614501Y-107317116D01*
X218614500Y-107317128D01*
X218614500Y-108682870D01*
X218614501Y-108682876D01*
X218620908Y-108742483D01*
X218671202Y-108877328D01*
X218671206Y-108877335D01*
X218757452Y-108992544D01*
X218757455Y-108992547D01*
X218872664Y-109078793D01*
X218872671Y-109078797D01*
X219007517Y-109129091D01*
X219007516Y-109129091D01*
X219014444Y-109129835D01*
X219067127Y-109135500D01*
X219530920Y-109135499D01*
X219597957Y-109155183D01*
X219643712Y-109207987D01*
X219653656Y-109277146D01*
X219624631Y-109340702D01*
X219565853Y-109378476D01*
X219550317Y-109381972D01*
X219484100Y-109392460D01*
X219484098Y-109392460D01*
X219314121Y-109447689D01*
X219314118Y-109447691D01*
X219154867Y-109528833D01*
X219010270Y-109633890D01*
X218883890Y-109760270D01*
X218778833Y-109904867D01*
X218697691Y-110064118D01*
X218697689Y-110064121D01*
X218657824Y-110186818D01*
X218618387Y-110244493D01*
X218554029Y-110271692D01*
X218539893Y-110272500D01*
X210204747Y-110272500D01*
X210180257Y-110282644D01*
X210158415Y-110291690D01*
X210121132Y-110307133D01*
X204624221Y-115804045D01*
X204624214Y-115804052D01*
X204621132Y-115807135D01*
X204557135Y-115871132D01*
X204549080Y-115890577D01*
X204535861Y-115905801D01*
X204522732Y-115914218D01*
X204512948Y-115926359D01*
X204493923Y-115932689D01*
X204477043Y-115943513D01*
X204461448Y-115943496D01*
X204446653Y-115948420D01*
X204427225Y-115943460D01*
X204407173Y-115943439D01*
X204394063Y-115934994D01*
X204378955Y-115931137D01*
X204365042Y-115916300D01*
X204348435Y-115905602D01*
X204342225Y-115891966D01*
X204331749Y-115880794D01*
X204326826Y-115871132D01*
X204305511Y-115829299D01*
X204250588Y-115753704D01*
X204162065Y-115631861D01*
X204162061Y-115631856D01*
X203989486Y-115459281D01*
X203989481Y-115459277D01*
X203792047Y-115315834D01*
X203792046Y-115315833D01*
X203792044Y-115315832D01*
X203574590Y-115205034D01*
X203342481Y-115129617D01*
X203342479Y-115129616D01*
X203342477Y-115129616D01*
X203174174Y-115102959D01*
X203101432Y-115091438D01*
X202857378Y-115091438D01*
X202801498Y-115100288D01*
X202616332Y-115129616D01*
X202384217Y-115205035D01*
X202166762Y-115315834D01*
X201969328Y-115459277D01*
X201969323Y-115459281D01*
X201796748Y-115631856D01*
X201743818Y-115704709D01*
X201688488Y-115747374D01*
X201618875Y-115753353D01*
X201557080Y-115720747D01*
X201522722Y-115659908D01*
X201519500Y-115631823D01*
X201519500Y-108816385D01*
X201519498Y-108816379D01*
X201502104Y-108774386D01*
X201502102Y-108774382D01*
X201486938Y-108737770D01*
X201486937Y-108737763D01*
X201477500Y-108690320D01*
X201477500Y-107430882D01*
X201477500Y-107430881D01*
X201442865Y-107347266D01*
X201378868Y-107283269D01*
X200793588Y-106697989D01*
X200204647Y-106109047D01*
X200204642Y-106109045D01*
X200121030Y-106074411D01*
X198858161Y-106074411D01*
X198858160Y-106074411D01*
X198838765Y-106082445D01*
X198838764Y-106082444D01*
X198774551Y-106109042D01*
X198774543Y-106109047D01*
X196280131Y-108603460D01*
X196218808Y-108636945D01*
X196149116Y-108631961D01*
X196093183Y-108590089D01*
X196068766Y-108524625D01*
X196068450Y-108515779D01*
X196068450Y-108381718D01*
X196063614Y-108351185D01*
X196030271Y-108140669D01*
X195954854Y-107908560D01*
X195844056Y-107691106D01*
X195740447Y-107548500D01*
X195700610Y-107493668D01*
X195700606Y-107493663D01*
X195528031Y-107321088D01*
X195528026Y-107321084D01*
X195330592Y-107177641D01*
X195330591Y-107177640D01*
X195330589Y-107177639D01*
X195113135Y-107066841D01*
X194881026Y-106991424D01*
X194881024Y-106991423D01*
X194881022Y-106991423D01*
X194712719Y-106964766D01*
X194639977Y-106953245D01*
X194607101Y-106953245D01*
X194540062Y-106933560D01*
X194494307Y-106880756D01*
X194484363Y-106811598D01*
X194513388Y-106748042D01*
X194572166Y-106710268D01*
X194590153Y-106706408D01*
X196842329Y-106395735D01*
X196904818Y-106387117D01*
X196912096Y-106386617D01*
X196913221Y-106385958D01*
X196913223Y-106385958D01*
X196913226Y-106385956D01*
X196913227Y-106385956D01*
X196935927Y-106372663D01*
X196978425Y-106347776D01*
X196981842Y-106345930D01*
X196982051Y-106345653D01*
X196982054Y-106345652D01*
X196982055Y-106345649D01*
X196982057Y-106345649D01*
X197005904Y-106314170D01*
X197029042Y-106283626D01*
X197030200Y-106282150D01*
X197030220Y-106282073D01*
X197030221Y-106282072D01*
X197030221Y-106282069D01*
X197030223Y-106282068D01*
X197045079Y-106225221D01*
X197049327Y-106208966D01*
X197050437Y-106205245D01*
X197050389Y-106204897D01*
X197050390Y-106204897D01*
X197041445Y-106140049D01*
X197041049Y-106137181D01*
X196747615Y-104009675D01*
X196757955Y-103940575D01*
X196804012Y-103888034D01*
X196853506Y-103869897D01*
X205993427Y-102609280D01*
X206010369Y-102608117D01*
X222204129Y-102608117D01*
X222271168Y-102627802D01*
G37*
%TD.AperFunction*%
%TA.AperFunction,Conductor*%
G36*
X115218986Y-101966293D02*
G01*
X115266903Y-102014210D01*
X115403413Y-102113391D01*
X115477153Y-102150963D01*
X115553758Y-102189996D01*
X115553764Y-102189998D01*
X115686817Y-102233229D01*
X115744493Y-102272666D01*
X115771692Y-102337024D01*
X115772500Y-102351160D01*
X115772500Y-103045253D01*
X115807136Y-103128870D01*
X117908880Y-105230614D01*
X119971132Y-107292866D01*
X119971137Y-107292868D01*
X120029705Y-107317128D01*
X120029706Y-107317128D01*
X120054744Y-107327499D01*
X120054745Y-107327499D01*
X120054747Y-107327500D01*
X120054748Y-107327500D01*
X120145253Y-107327500D01*
X127415267Y-107327500D01*
X127482306Y-107347185D01*
X127528061Y-107399989D01*
X127538005Y-107469147D01*
X127508980Y-107532703D01*
X127502948Y-107539181D01*
X122871132Y-112170997D01*
X122807135Y-112234994D01*
X122791185Y-112273500D01*
X122773482Y-112316239D01*
X122772500Y-112318609D01*
X122772500Y-118801847D01*
X122772500Y-118892353D01*
X122787433Y-118928405D01*
X122807136Y-118975970D01*
X123627181Y-119796014D01*
X123660666Y-119857337D01*
X123663500Y-119883695D01*
X123663500Y-127323113D01*
X123643815Y-127390152D01*
X123591011Y-127435907D01*
X123521853Y-127445851D01*
X123466615Y-127423432D01*
X123318514Y-127315831D01*
X123101063Y-127205035D01*
X123101062Y-127205034D01*
X123101061Y-127205034D01*
X122868952Y-127129617D01*
X122868950Y-127129616D01*
X122868948Y-127129616D01*
X122700645Y-127102959D01*
X122627903Y-127091438D01*
X122383849Y-127091438D01*
X122327969Y-127100288D01*
X122142803Y-127129616D01*
X121910688Y-127205035D01*
X121693233Y-127315834D01*
X121495799Y-127459277D01*
X121495794Y-127459281D01*
X121323219Y-127631856D01*
X121323215Y-127631861D01*
X121179772Y-127829295D01*
X121068973Y-128046750D01*
X120993554Y-128278865D01*
X120964816Y-128460309D01*
X120955376Y-128519911D01*
X120955376Y-128763965D01*
X120961082Y-128799989D01*
X120993355Y-129003756D01*
X120993555Y-129005014D01*
X121053908Y-129190762D01*
X121068973Y-129237125D01*
X121167195Y-129429898D01*
X121180091Y-129498568D01*
X121153814Y-129563308D01*
X121144391Y-129573874D01*
X120532086Y-130186181D01*
X120470763Y-130219666D01*
X120444405Y-130222500D01*
X118255614Y-130222500D01*
X118188575Y-130202815D01*
X118142820Y-130150011D01*
X118132876Y-130080853D01*
X118161901Y-130017297D01*
X118199320Y-129988015D01*
X118229477Y-129972649D01*
X118238515Y-129968044D01*
X118435959Y-129824593D01*
X118608531Y-129652021D01*
X118751982Y-129454577D01*
X118862780Y-129237123D01*
X118938197Y-129005014D01*
X118976376Y-128763965D01*
X118976376Y-128519911D01*
X118938197Y-128278862D01*
X118862780Y-128046753D01*
X118751982Y-127829299D01*
X118695761Y-127751917D01*
X118608536Y-127631861D01*
X118608532Y-127631856D01*
X118435957Y-127459281D01*
X118435952Y-127459277D01*
X118238518Y-127315834D01*
X118238517Y-127315833D01*
X118238515Y-127315832D01*
X118021061Y-127205034D01*
X117788952Y-127129617D01*
X117788950Y-127129616D01*
X117788948Y-127129616D01*
X117620645Y-127102959D01*
X117547903Y-127091438D01*
X117303849Y-127091438D01*
X117247969Y-127100288D01*
X117062803Y-127129616D01*
X116830688Y-127205035D01*
X116613233Y-127315834D01*
X116415799Y-127459277D01*
X116415794Y-127459281D01*
X116243219Y-127631856D01*
X116243215Y-127631861D01*
X116099771Y-127829295D01*
X116070391Y-127886956D01*
X116022415Y-127937751D01*
X115954594Y-127954545D01*
X115888460Y-127932006D01*
X115845009Y-127877290D01*
X115838292Y-127854859D01*
X115817816Y-127751918D01*
X115753703Y-127597137D01*
X115661592Y-127459283D01*
X115660626Y-127457837D01*
X115542162Y-127339373D01*
X115402860Y-127246295D01*
X115248082Y-127182184D01*
X115248074Y-127182182D01*
X115083771Y-127149500D01*
X115083767Y-127149500D01*
X114916233Y-127149500D01*
X114916228Y-127149500D01*
X114751925Y-127182182D01*
X114751917Y-127182184D01*
X114597139Y-127246295D01*
X114457837Y-127339373D01*
X114339373Y-127457837D01*
X114246295Y-127597139D01*
X114182184Y-127751917D01*
X114182182Y-127751925D01*
X114149500Y-127916228D01*
X114149500Y-128083771D01*
X114182182Y-128248074D01*
X114182184Y-128248082D01*
X114246295Y-128402860D01*
X114339373Y-128542162D01*
X114457837Y-128660626D01*
X114532581Y-128710568D01*
X114597137Y-128753703D01*
X114597138Y-128753703D01*
X114597139Y-128753704D01*
X114621909Y-128763964D01*
X114751918Y-128817816D01*
X114916228Y-128850499D01*
X114916232Y-128850500D01*
X114916233Y-128850500D01*
X115083768Y-128850500D01*
X115083769Y-128850499D01*
X115248082Y-128817816D01*
X115402863Y-128753703D01*
X115410799Y-128748399D01*
X115477475Y-128727520D01*
X115479693Y-128727500D01*
X115545253Y-128727500D01*
X115763695Y-128727500D01*
X115830734Y-128747185D01*
X115876489Y-128799989D01*
X115886168Y-128832102D01*
X115913355Y-129003756D01*
X115913555Y-129005014D01*
X115988972Y-129237123D01*
X116097946Y-129450998D01*
X116099772Y-129454580D01*
X116243215Y-129652014D01*
X116243219Y-129652019D01*
X116415794Y-129824594D01*
X116415799Y-129824598D01*
X116613235Y-129968043D01*
X116652432Y-129988015D01*
X116703229Y-130035989D01*
X116720024Y-130103810D01*
X116697487Y-130169945D01*
X116642772Y-130213397D01*
X116596138Y-130222500D01*
X114397983Y-130222500D01*
X114330944Y-130202815D01*
X114285189Y-130150011D01*
X114278907Y-130133095D01*
X114253884Y-130046967D01*
X114251744Y-130039602D01*
X114168081Y-129898135D01*
X114168079Y-129898133D01*
X114168076Y-129898129D01*
X114051870Y-129781923D01*
X114051862Y-129781917D01*
X113910396Y-129698255D01*
X113910393Y-129698254D01*
X113752573Y-129652402D01*
X113752567Y-129652401D01*
X113715701Y-129649500D01*
X113715694Y-129649500D01*
X112409306Y-129649500D01*
X112409298Y-129649500D01*
X112372432Y-129652401D01*
X112372426Y-129652402D01*
X112214606Y-129698254D01*
X112214603Y-129698255D01*
X112073137Y-129781917D01*
X112073129Y-129781923D01*
X111956923Y-129898129D01*
X111956917Y-129898137D01*
X111873255Y-130039603D01*
X111873254Y-130039606D01*
X111827402Y-130197426D01*
X111827401Y-130197432D01*
X111824500Y-130234298D01*
X111824500Y-130665701D01*
X111827401Y-130702567D01*
X111827402Y-130702573D01*
X111873254Y-130860393D01*
X111873255Y-130860396D01*
X111873256Y-130860398D01*
X111902041Y-130909071D01*
X111956917Y-131001862D01*
X111956923Y-131001870D01*
X112073129Y-131118076D01*
X112073133Y-131118079D01*
X112073135Y-131118081D01*
X112214602Y-131201744D01*
X112215676Y-131202056D01*
X112372426Y-131247597D01*
X112372429Y-131247597D01*
X112372431Y-131247598D01*
X112409306Y-131250500D01*
X113575500Y-131250500D01*
X113584185Y-131253050D01*
X113593147Y-131251762D01*
X113617187Y-131262740D01*
X113642539Y-131270185D01*
X113648466Y-131277025D01*
X113656703Y-131280787D01*
X113670992Y-131303021D01*
X113688294Y-131322989D01*
X113690581Y-131333503D01*
X113694477Y-131339565D01*
X113699500Y-131374500D01*
X113699500Y-131425500D01*
X113679815Y-131492539D01*
X113627011Y-131538294D01*
X113575500Y-131549500D01*
X112409298Y-131549500D01*
X112372432Y-131552401D01*
X112372426Y-131552402D01*
X112214606Y-131598254D01*
X112214603Y-131598255D01*
X112073137Y-131681917D01*
X112073129Y-131681923D01*
X111956923Y-131798129D01*
X111956917Y-131798137D01*
X111873255Y-131939603D01*
X111873254Y-131939606D01*
X111827402Y-132097426D01*
X111827401Y-132097432D01*
X111824500Y-132134298D01*
X111824500Y-132565701D01*
X111827401Y-132602567D01*
X111827402Y-132602573D01*
X111873254Y-132760393D01*
X111873255Y-132760396D01*
X111956917Y-132901862D01*
X111956923Y-132901870D01*
X112073129Y-133018076D01*
X112073133Y-133018079D01*
X112073135Y-133018081D01*
X112214602Y-133101744D01*
X112262705Y-133115719D01*
X112321589Y-133153324D01*
X112350796Y-133216796D01*
X112341050Y-133285983D01*
X112315790Y-133322476D01*
X110357812Y-135280453D01*
X110296489Y-135313938D01*
X110226797Y-135308954D01*
X110213836Y-135303257D01*
X110021063Y-135205035D01*
X110021062Y-135205034D01*
X110021061Y-135205034D01*
X109788952Y-135129617D01*
X109788950Y-135129616D01*
X109788948Y-135129616D01*
X109620645Y-135102959D01*
X109547903Y-135091438D01*
X109303849Y-135091438D01*
X109247969Y-135100288D01*
X109062803Y-135129616D01*
X108830688Y-135205035D01*
X108613233Y-135315834D01*
X108415799Y-135459277D01*
X108415794Y-135459281D01*
X108243219Y-135631856D01*
X108243215Y-135631861D01*
X108099772Y-135829295D01*
X107988973Y-136046750D01*
X107913554Y-136278865D01*
X107875376Y-136519911D01*
X107875376Y-136763964D01*
X107912760Y-137000000D01*
X107913555Y-137005014D01*
X107988972Y-137237123D01*
X108090667Y-137436712D01*
X108099772Y-137454580D01*
X108243215Y-137652014D01*
X108243219Y-137652019D01*
X108415794Y-137824594D01*
X108415799Y-137824598D01*
X108541918Y-137916228D01*
X108613237Y-137968044D01*
X108830691Y-138078842D01*
X109062800Y-138154259D01*
X109303849Y-138192438D01*
X109303850Y-138192438D01*
X109547902Y-138192438D01*
X109547903Y-138192438D01*
X109788952Y-138154259D01*
X110021061Y-138078842D01*
X110238515Y-137968044D01*
X110435959Y-137824593D01*
X110608531Y-137652021D01*
X110751982Y-137454577D01*
X110862780Y-137237123D01*
X110938197Y-137005014D01*
X110976376Y-136763965D01*
X110976376Y-136519911D01*
X112955376Y-136519911D01*
X112955376Y-136763964D01*
X112992760Y-137000000D01*
X112993555Y-137005014D01*
X113068972Y-137237123D01*
X113170667Y-137436712D01*
X113179772Y-137454580D01*
X113323215Y-137652014D01*
X113323219Y-137652019D01*
X113495794Y-137824594D01*
X113495799Y-137824598D01*
X113621918Y-137916228D01*
X113693237Y-137968044D01*
X113910691Y-138078842D01*
X114142800Y-138154259D01*
X114383849Y-138192438D01*
X114383850Y-138192438D01*
X114627902Y-138192438D01*
X114627903Y-138192438D01*
X114868952Y-138154259D01*
X115101061Y-138078842D01*
X115318515Y-137968044D01*
X115515959Y-137824593D01*
X115688531Y-137652021D01*
X115831982Y-137454577D01*
X115942780Y-137237123D01*
X116018197Y-137005014D01*
X116056376Y-136763965D01*
X116056376Y-136519911D01*
X116018197Y-136278862D01*
X115942780Y-136046753D01*
X115831982Y-135829299D01*
X115779360Y-135756871D01*
X115688536Y-135631861D01*
X115688532Y-135631856D01*
X115515957Y-135459281D01*
X115515952Y-135459277D01*
X115318518Y-135315834D01*
X115318517Y-135315833D01*
X115318515Y-135315832D01*
X115101061Y-135205034D01*
X114868952Y-135129617D01*
X114868950Y-135129616D01*
X114868948Y-135129616D01*
X114700645Y-135102959D01*
X114627903Y-135091438D01*
X114383849Y-135091438D01*
X114327969Y-135100288D01*
X114142803Y-135129616D01*
X113910688Y-135205035D01*
X113693233Y-135315834D01*
X113495799Y-135459277D01*
X113495794Y-135459281D01*
X113323219Y-135631856D01*
X113323215Y-135631861D01*
X113179772Y-135829295D01*
X113068973Y-136046750D01*
X112993554Y-136278865D01*
X112955376Y-136519911D01*
X110976376Y-136519911D01*
X110938197Y-136278862D01*
X110862780Y-136046753D01*
X110751982Y-135829299D01*
X110688178Y-135741480D01*
X110664699Y-135675675D01*
X110680524Y-135607621D01*
X110700812Y-135580919D01*
X113094914Y-133186819D01*
X113156237Y-133153334D01*
X113182595Y-133150500D01*
X113715686Y-133150500D01*
X113715694Y-133150500D01*
X113752569Y-133147598D01*
X113752571Y-133147597D01*
X113752573Y-133147597D01*
X113794191Y-133135505D01*
X113910398Y-133101744D01*
X114051865Y-133018081D01*
X114168081Y-132901865D01*
X114251744Y-132760398D01*
X114297598Y-132602569D01*
X114300500Y-132565694D01*
X114300500Y-132324500D01*
X114320185Y-132257461D01*
X114372989Y-132211706D01*
X114424500Y-132200500D01*
X115364905Y-132200500D01*
X115431944Y-132220185D01*
X115452586Y-132236819D01*
X126351179Y-143135412D01*
X126384664Y-143196735D01*
X126387054Y-143231866D01*
X126387096Y-143231868D01*
X126387080Y-143232250D01*
X126387118Y-143232794D01*
X126387001Y-143234281D01*
X126387000Y-143234313D01*
X126387000Y-143665701D01*
X126389901Y-143702567D01*
X126389902Y-143702573D01*
X126435754Y-143860393D01*
X126435755Y-143860396D01*
X126519417Y-144001862D01*
X126519423Y-144001870D01*
X126578372Y-144060819D01*
X126611857Y-144122142D01*
X126606873Y-144191834D01*
X126565001Y-144247767D01*
X126499537Y-144272184D01*
X126490691Y-144272500D01*
X124106221Y-144272500D01*
X124039182Y-144252815D01*
X123993427Y-144200011D01*
X123988290Y-144186818D01*
X123987471Y-144184298D01*
X123942780Y-144046753D01*
X123831982Y-143829299D01*
X123813655Y-143804074D01*
X123688536Y-143631861D01*
X123688532Y-143631856D01*
X123515957Y-143459281D01*
X123515952Y-143459277D01*
X123318518Y-143315834D01*
X123318517Y-143315833D01*
X123318515Y-143315832D01*
X123101061Y-143205034D01*
X122868952Y-143129617D01*
X122868950Y-143129616D01*
X122868948Y-143129616D01*
X122700645Y-143102959D01*
X122627903Y-143091438D01*
X122383849Y-143091438D01*
X122327969Y-143100288D01*
X122142803Y-143129616D01*
X121910688Y-143205035D01*
X121693233Y-143315834D01*
X121495799Y-143459277D01*
X121495794Y-143459281D01*
X121323219Y-143631856D01*
X121323215Y-143631861D01*
X121179772Y-143829295D01*
X121068973Y-144046750D01*
X120993554Y-144278865D01*
X120955376Y-144519911D01*
X120955376Y-144763964D01*
X120989886Y-144981854D01*
X120993555Y-145005014D01*
X121068972Y-145237123D01*
X121121071Y-145339374D01*
X121179772Y-145454580D01*
X121323215Y-145652014D01*
X121323219Y-145652019D01*
X121495794Y-145824594D01*
X121495799Y-145824598D01*
X121621918Y-145916228D01*
X121693237Y-145968044D01*
X121910691Y-146078842D01*
X122142800Y-146154259D01*
X122383849Y-146192438D01*
X122383850Y-146192438D01*
X122627902Y-146192438D01*
X122627903Y-146192438D01*
X122868952Y-146154259D01*
X123101061Y-146078842D01*
X123318515Y-145968044D01*
X123515959Y-145824593D01*
X123688531Y-145652021D01*
X123831982Y-145454577D01*
X123942780Y-145237123D01*
X124018197Y-145005014D01*
X124045584Y-144832102D01*
X124075513Y-144768967D01*
X124134825Y-144732036D01*
X124168057Y-144727500D01*
X128193570Y-144727500D01*
X128260609Y-144747185D01*
X128306364Y-144799989D01*
X128307582Y-144803268D01*
X128307657Y-144803236D01*
X128310756Y-144810399D01*
X128394417Y-144951862D01*
X128394423Y-144951870D01*
X128510629Y-145068076D01*
X128510633Y-145068079D01*
X128510635Y-145068081D01*
X128652102Y-145151744D01*
X128693724Y-145163836D01*
X128809926Y-145197597D01*
X128809929Y-145197597D01*
X128809931Y-145197598D01*
X128846806Y-145200500D01*
X128846814Y-145200500D01*
X130153186Y-145200500D01*
X130153194Y-145200500D01*
X130190069Y-145197598D01*
X130190071Y-145197597D01*
X130190073Y-145197597D01*
X130243131Y-145182182D01*
X130347898Y-145151744D01*
X130489365Y-145068081D01*
X130605581Y-144951865D01*
X130689244Y-144810398D01*
X130735098Y-144652569D01*
X130738000Y-144615694D01*
X130738000Y-144184306D01*
X130735098Y-144147431D01*
X130689244Y-143989602D01*
X130605581Y-143848135D01*
X130605579Y-143848133D01*
X130605576Y-143848129D01*
X130489370Y-143731923D01*
X130489362Y-143731917D01*
X130395198Y-143676229D01*
X130347898Y-143648256D01*
X130347897Y-143648255D01*
X130347896Y-143648255D01*
X130347893Y-143648254D01*
X130190073Y-143602402D01*
X130190067Y-143602401D01*
X130153201Y-143599500D01*
X130153194Y-143599500D01*
X128987000Y-143599500D01*
X128978314Y-143596949D01*
X128969353Y-143598238D01*
X128945312Y-143587259D01*
X128919961Y-143579815D01*
X128914033Y-143572974D01*
X128905797Y-143569213D01*
X128891507Y-143546978D01*
X128874206Y-143527011D01*
X128871918Y-143516496D01*
X128868023Y-143510435D01*
X128863000Y-143475500D01*
X128863000Y-143424500D01*
X128882685Y-143357461D01*
X128935489Y-143311706D01*
X128987000Y-143300500D01*
X130153186Y-143300500D01*
X130153194Y-143300500D01*
X130190069Y-143297598D01*
X130190071Y-143297597D01*
X130190073Y-143297597D01*
X130231691Y-143285505D01*
X130347898Y-143251744D01*
X130489365Y-143168081D01*
X130605581Y-143051865D01*
X130689244Y-142910398D01*
X130735098Y-142752569D01*
X130738000Y-142715694D01*
X130738000Y-142284306D01*
X130735098Y-142247431D01*
X130709696Y-142159999D01*
X130689245Y-142089606D01*
X130689244Y-142089603D01*
X130689244Y-142089602D01*
X130605581Y-141948135D01*
X130605579Y-141948133D01*
X130605576Y-141948129D01*
X130489370Y-141831923D01*
X130489362Y-141831917D01*
X130380233Y-141767379D01*
X130347898Y-141748256D01*
X130347897Y-141748255D01*
X130347896Y-141748255D01*
X130347893Y-141748254D01*
X130190073Y-141702402D01*
X130190067Y-141702401D01*
X130153201Y-141699500D01*
X130153194Y-141699500D01*
X129072596Y-141699500D01*
X129005557Y-141679815D01*
X128984915Y-141663181D01*
X125723819Y-138402085D01*
X125709115Y-138375157D01*
X125692523Y-138349339D01*
X125691631Y-138343138D01*
X125690334Y-138340762D01*
X125687500Y-138314404D01*
X125687500Y-138276233D01*
X125707185Y-138209194D01*
X125759989Y-138163439D01*
X125784390Y-138156086D01*
X125784224Y-138155394D01*
X125788952Y-138154259D01*
X125788958Y-138154257D01*
X126021061Y-138078842D01*
X126238515Y-137968044D01*
X126435959Y-137824593D01*
X126608531Y-137652021D01*
X126751982Y-137454577D01*
X126862780Y-137237123D01*
X126938197Y-137005014D01*
X126976376Y-136763965D01*
X126976376Y-136519911D01*
X128955376Y-136519911D01*
X128955376Y-136763964D01*
X128992760Y-137000000D01*
X128993555Y-137005014D01*
X129068972Y-137237123D01*
X129170667Y-137436712D01*
X129179772Y-137454580D01*
X129323215Y-137652014D01*
X129323219Y-137652019D01*
X129495794Y-137824594D01*
X129495799Y-137824598D01*
X129621918Y-137916228D01*
X129693237Y-137968044D01*
X129910691Y-138078842D01*
X130142800Y-138154259D01*
X130383849Y-138192438D01*
X130383850Y-138192438D01*
X130627902Y-138192438D01*
X130627903Y-138192438D01*
X130868952Y-138154259D01*
X131101061Y-138078842D01*
X131318515Y-137968044D01*
X131515959Y-137824593D01*
X131688531Y-137652021D01*
X131831982Y-137454577D01*
X131942780Y-137237123D01*
X132018197Y-137005014D01*
X132056376Y-136763965D01*
X132056376Y-136519911D01*
X132018197Y-136278862D01*
X131942780Y-136046753D01*
X131831982Y-135829299D01*
X131779360Y-135756871D01*
X131688536Y-135631861D01*
X131688532Y-135631856D01*
X131515957Y-135459281D01*
X131515952Y-135459277D01*
X131318518Y-135315834D01*
X131318517Y-135315833D01*
X131318515Y-135315832D01*
X131101061Y-135205034D01*
X130868952Y-135129617D01*
X130868950Y-135129616D01*
X130868948Y-135129616D01*
X130700645Y-135102959D01*
X130627903Y-135091438D01*
X130383849Y-135091438D01*
X130327969Y-135100288D01*
X130142803Y-135129616D01*
X129910688Y-135205035D01*
X129693233Y-135315834D01*
X129495799Y-135459277D01*
X129495794Y-135459281D01*
X129323219Y-135631856D01*
X129323215Y-135631861D01*
X129179772Y-135829295D01*
X129068973Y-136046750D01*
X128993554Y-136278865D01*
X128955376Y-136519911D01*
X126976376Y-136519911D01*
X126938197Y-136278862D01*
X126862780Y-136046753D01*
X126751982Y-135829299D01*
X126699360Y-135756871D01*
X126608536Y-135631861D01*
X126608532Y-135631856D01*
X126435957Y-135459281D01*
X126435952Y-135459277D01*
X126238518Y-135315834D01*
X126238517Y-135315833D01*
X126238515Y-135315832D01*
X126021061Y-135205034D01*
X125788952Y-135129617D01*
X125788950Y-135129616D01*
X125788948Y-135129616D01*
X125620645Y-135102959D01*
X125547903Y-135091438D01*
X125303849Y-135091438D01*
X125247969Y-135100288D01*
X125062803Y-135129616D01*
X124830688Y-135205035D01*
X124613233Y-135315834D01*
X124415799Y-135459277D01*
X124415794Y-135459281D01*
X124330181Y-135544895D01*
X124268858Y-135578380D01*
X124199166Y-135573396D01*
X124143233Y-135531524D01*
X124118816Y-135466060D01*
X124118500Y-135457214D01*
X124118500Y-119692848D01*
X124118500Y-119692847D01*
X124083865Y-119609232D01*
X124019868Y-119545235D01*
X123263819Y-118789186D01*
X123230334Y-118727863D01*
X123227500Y-118701505D01*
X123227500Y-113729651D01*
X123247185Y-113662612D01*
X123299989Y-113616857D01*
X123369147Y-113606913D01*
X123432703Y-113635938D01*
X123439181Y-113641970D01*
X123457837Y-113660626D01*
X123550494Y-113722537D01*
X123597137Y-113753703D01*
X123751918Y-113817816D01*
X123896958Y-113846666D01*
X123916228Y-113850499D01*
X123916232Y-113850500D01*
X123916233Y-113850500D01*
X124083768Y-113850500D01*
X124083768Y-113850499D01*
X124155433Y-113836244D01*
X124202309Y-113826921D01*
X124271900Y-113833148D01*
X124327078Y-113876011D01*
X124350322Y-113941901D01*
X124350500Y-113948538D01*
X124350500Y-115812747D01*
X124350500Y-115903253D01*
X124385135Y-115986868D01*
X124385136Y-115986869D01*
X126743606Y-118345340D01*
X126777091Y-118406663D01*
X126772107Y-118476355D01*
X126766410Y-118489316D01*
X126668444Y-118681585D01*
X126602753Y-118883760D01*
X126579003Y-119033713D01*
X126569500Y-119093713D01*
X126569500Y-119306287D01*
X126602754Y-119516243D01*
X126662235Y-119699307D01*
X126668444Y-119718414D01*
X126764951Y-119907820D01*
X126889890Y-120079786D01*
X127040213Y-120230109D01*
X127212179Y-120355048D01*
X127212181Y-120355049D01*
X127212184Y-120355051D01*
X127401588Y-120451557D01*
X127603757Y-120517246D01*
X127813713Y-120550500D01*
X127813714Y-120550500D01*
X128026286Y-120550500D01*
X128026287Y-120550500D01*
X128236243Y-120517246D01*
X128438412Y-120451557D01*
X128627816Y-120355051D01*
X128714478Y-120292088D01*
X128799786Y-120230109D01*
X128799788Y-120230106D01*
X128799792Y-120230104D01*
X128950104Y-120079792D01*
X128950106Y-120079788D01*
X128950109Y-120079786D01*
X129075048Y-119907820D01*
X129075047Y-119907820D01*
X129075051Y-119907816D01*
X129079514Y-119899054D01*
X129127488Y-119848259D01*
X129195308Y-119831463D01*
X129261444Y-119853999D01*
X129300486Y-119899056D01*
X129304951Y-119907820D01*
X129429890Y-120079786D01*
X129580213Y-120230109D01*
X129752179Y-120355048D01*
X129752181Y-120355049D01*
X129752184Y-120355051D01*
X129941588Y-120451557D01*
X130143757Y-120517246D01*
X130353713Y-120550500D01*
X130353714Y-120550500D01*
X130566286Y-120550500D01*
X130566287Y-120550500D01*
X130776243Y-120517246D01*
X130978412Y-120451557D01*
X131167816Y-120355051D01*
X131254478Y-120292088D01*
X131339784Y-120230110D01*
X131339784Y-120230109D01*
X131339792Y-120230104D01*
X131453717Y-120116178D01*
X131515036Y-120082696D01*
X131584728Y-120087680D01*
X131640662Y-120129551D01*
X131657577Y-120160528D01*
X131706646Y-120292088D01*
X131706649Y-120292093D01*
X131792809Y-120407187D01*
X131792812Y-120407190D01*
X131907906Y-120493350D01*
X131907913Y-120493354D01*
X132042620Y-120543596D01*
X132042627Y-120543598D01*
X132102155Y-120549999D01*
X132102172Y-120550000D01*
X132750000Y-120550000D01*
X132750000Y-119633012D01*
X132807007Y-119665925D01*
X132934174Y-119700000D01*
X133065826Y-119700000D01*
X133192993Y-119665925D01*
X133250000Y-119633012D01*
X133250000Y-120550000D01*
X133897828Y-120550000D01*
X133897844Y-120549999D01*
X133957372Y-120543598D01*
X133957379Y-120543596D01*
X134092086Y-120493354D01*
X134092093Y-120493350D01*
X134207187Y-120407190D01*
X134207190Y-120407187D01*
X134293350Y-120292093D01*
X134293354Y-120292086D01*
X134343596Y-120157379D01*
X134343598Y-120157372D01*
X134349999Y-120097844D01*
X134350000Y-120097827D01*
X134350000Y-119450000D01*
X133433012Y-119450000D01*
X133465925Y-119392993D01*
X133500000Y-119265826D01*
X133500000Y-119134174D01*
X133465925Y-119007007D01*
X133433012Y-118950000D01*
X134350000Y-118950000D01*
X134350000Y-118302172D01*
X134349999Y-118302155D01*
X134343598Y-118242627D01*
X134343596Y-118242620D01*
X134293354Y-118107913D01*
X134293350Y-118107906D01*
X134207190Y-117992812D01*
X134207187Y-117992809D01*
X134092093Y-117906649D01*
X134092086Y-117906645D01*
X133957379Y-117856403D01*
X133957372Y-117856401D01*
X133897844Y-117850000D01*
X133250000Y-117850000D01*
X133250000Y-118766988D01*
X133192993Y-118734075D01*
X133065826Y-118700000D01*
X132934174Y-118700000D01*
X132807007Y-118734075D01*
X132750000Y-118766988D01*
X132750000Y-117850000D01*
X132102155Y-117850000D01*
X132042627Y-117856401D01*
X132042620Y-117856403D01*
X131907913Y-117906645D01*
X131907906Y-117906649D01*
X131792812Y-117992809D01*
X131792809Y-117992812D01*
X131706649Y-118107906D01*
X131706646Y-118107912D01*
X131657577Y-118239471D01*
X131615705Y-118295404D01*
X131550241Y-118319821D01*
X131481968Y-118304969D01*
X131453714Y-118283818D01*
X131339786Y-118169890D01*
X131167820Y-118044951D01*
X130978416Y-117948444D01*
X130773181Y-117881759D01*
X130715506Y-117842321D01*
X130688308Y-117777962D01*
X130687500Y-117763828D01*
X130687500Y-117474500D01*
X130707185Y-117407461D01*
X130759989Y-117361706D01*
X130811500Y-117350500D01*
X131515686Y-117350500D01*
X131515694Y-117350500D01*
X131552569Y-117347598D01*
X131552571Y-117347597D01*
X131552573Y-117347597D01*
X131605641Y-117332179D01*
X131710398Y-117301744D01*
X131851865Y-117218081D01*
X131968081Y-117101865D01*
X132051744Y-116960398D01*
X132097598Y-116802569D01*
X132100500Y-116765694D01*
X132100500Y-116524500D01*
X132120185Y-116457461D01*
X132172989Y-116411706D01*
X132224500Y-116400500D01*
X133390686Y-116400500D01*
X133390694Y-116400500D01*
X133427569Y-116397598D01*
X133427571Y-116397597D01*
X133427573Y-116397597D01*
X133488857Y-116379792D01*
X133585398Y-116351744D01*
X133726865Y-116268081D01*
X133843081Y-116151865D01*
X133926744Y-116010398D01*
X133972598Y-115852569D01*
X133975500Y-115815694D01*
X133975500Y-115384306D01*
X133972598Y-115347431D01*
X133964954Y-115321122D01*
X133926745Y-115189606D01*
X133926744Y-115189603D01*
X133926744Y-115189602D01*
X133843081Y-115048135D01*
X133843079Y-115048133D01*
X133843076Y-115048129D01*
X133726870Y-114931923D01*
X133726862Y-114931917D01*
X133585396Y-114848255D01*
X133585393Y-114848254D01*
X133427573Y-114802402D01*
X133427567Y-114802401D01*
X133390701Y-114799500D01*
X133390694Y-114799500D01*
X132224500Y-114799500D01*
X132157461Y-114779815D01*
X132111706Y-114727011D01*
X132100500Y-114675500D01*
X132100500Y-114434313D01*
X132100499Y-114434298D01*
X132097598Y-114397432D01*
X132097597Y-114397426D01*
X132056045Y-114254405D01*
X132051744Y-114239602D01*
X131968081Y-114098135D01*
X131968079Y-114098133D01*
X131968076Y-114098129D01*
X131851870Y-113981923D01*
X131851862Y-113981917D01*
X131710396Y-113898255D01*
X131710393Y-113898254D01*
X131552573Y-113852402D01*
X131552567Y-113852401D01*
X131515701Y-113849500D01*
X131515694Y-113849500D01*
X130811500Y-113849500D01*
X130744461Y-113829815D01*
X130698706Y-113777011D01*
X130687500Y-113725500D01*
X130687500Y-113436172D01*
X130707185Y-113369133D01*
X130759989Y-113323378D01*
X130773181Y-113318241D01*
X130829354Y-113299989D01*
X130978412Y-113251557D01*
X131167816Y-113155051D01*
X131254478Y-113092088D01*
X131339784Y-113030110D01*
X131339784Y-113030109D01*
X131339792Y-113030104D01*
X131453717Y-112916178D01*
X131515036Y-112882696D01*
X131584728Y-112887680D01*
X131640662Y-112929551D01*
X131657577Y-112960528D01*
X131706646Y-113092088D01*
X131706649Y-113092093D01*
X131792809Y-113207187D01*
X131792812Y-113207190D01*
X131907906Y-113293350D01*
X131907913Y-113293354D01*
X132042620Y-113343596D01*
X132042627Y-113343598D01*
X132102155Y-113349999D01*
X132102172Y-113350000D01*
X132750000Y-113350000D01*
X132750000Y-112433012D01*
X132807007Y-112465925D01*
X132934174Y-112500000D01*
X133065826Y-112500000D01*
X133192993Y-112465925D01*
X133250000Y-112433012D01*
X133250000Y-113350000D01*
X133897828Y-113350000D01*
X133897844Y-113349999D01*
X133957372Y-113343598D01*
X133957379Y-113343596D01*
X134092086Y-113293354D01*
X134092093Y-113293350D01*
X134207187Y-113207190D01*
X134207190Y-113207187D01*
X134293350Y-113092093D01*
X134293354Y-113092086D01*
X134343596Y-112957379D01*
X134343598Y-112957372D01*
X134349999Y-112897844D01*
X134350000Y-112897827D01*
X134350000Y-112250000D01*
X133433012Y-112250000D01*
X133465925Y-112192993D01*
X133500000Y-112065826D01*
X133500000Y-111934174D01*
X133465925Y-111807007D01*
X133433012Y-111750000D01*
X134350000Y-111750000D01*
X134350000Y-111102172D01*
X134349999Y-111102155D01*
X134343598Y-111042627D01*
X134343596Y-111042620D01*
X134293354Y-110907913D01*
X134293350Y-110907906D01*
X134207190Y-110792812D01*
X134207187Y-110792809D01*
X134092093Y-110706649D01*
X134092086Y-110706645D01*
X133957379Y-110656403D01*
X133957372Y-110656401D01*
X133897844Y-110650000D01*
X133250000Y-110650000D01*
X133250000Y-111566988D01*
X133192993Y-111534075D01*
X133065826Y-111500000D01*
X132934174Y-111500000D01*
X132807007Y-111534075D01*
X132750000Y-111566988D01*
X132750000Y-110650000D01*
X132102155Y-110650000D01*
X132042627Y-110656401D01*
X132042620Y-110656403D01*
X131907913Y-110706645D01*
X131907906Y-110706649D01*
X131792812Y-110792809D01*
X131792809Y-110792812D01*
X131706649Y-110907906D01*
X131706646Y-110907912D01*
X131657577Y-111039471D01*
X131615705Y-111095404D01*
X131550241Y-111119821D01*
X131481968Y-111104969D01*
X131453714Y-111083818D01*
X131339786Y-110969890D01*
X131167820Y-110844951D01*
X130978414Y-110748444D01*
X130978413Y-110748443D01*
X130978412Y-110748443D01*
X130776243Y-110682754D01*
X130776241Y-110682753D01*
X130776240Y-110682753D01*
X130614957Y-110657208D01*
X130566287Y-110649500D01*
X130353713Y-110649500D01*
X130305042Y-110657208D01*
X130143760Y-110682753D01*
X129941585Y-110748444D01*
X129752179Y-110844951D01*
X129580213Y-110969890D01*
X129429890Y-111120213D01*
X129304949Y-111292182D01*
X129300484Y-111300946D01*
X129252509Y-111351742D01*
X129184688Y-111368536D01*
X129118553Y-111345998D01*
X129079516Y-111300946D01*
X129075050Y-111292182D01*
X128950109Y-111120213D01*
X128913495Y-111083599D01*
X128880010Y-111022276D01*
X128884994Y-110952584D01*
X128913495Y-110908237D01*
X130399894Y-109421839D01*
X133520186Y-106301547D01*
X135055915Y-104765819D01*
X135117238Y-104732334D01*
X135143596Y-104729500D01*
X138457811Y-104729500D01*
X138524850Y-104749185D01*
X138570605Y-104801989D01*
X138580549Y-104871147D01*
X138568296Y-104909794D01*
X138558886Y-104928262D01*
X138523097Y-104998502D01*
X138447678Y-105230617D01*
X138409500Y-105471663D01*
X138409500Y-105715716D01*
X138445844Y-105945185D01*
X138447679Y-105956766D01*
X138523096Y-106188875D01*
X138633607Y-106405766D01*
X138633896Y-106406332D01*
X138777339Y-106603766D01*
X138777343Y-106603771D01*
X138949918Y-106776346D01*
X138949923Y-106776350D01*
X139081217Y-106871740D01*
X139147361Y-106919796D01*
X139364815Y-107030594D01*
X139596924Y-107106011D01*
X139837973Y-107144190D01*
X139837974Y-107144190D01*
X140082026Y-107144190D01*
X140082027Y-107144190D01*
X140323076Y-107106011D01*
X140555185Y-107030594D01*
X140555187Y-107030592D01*
X140555190Y-107030592D01*
X140614081Y-107000584D01*
X140726962Y-106943069D01*
X140795629Y-106930173D01*
X140860369Y-106956449D01*
X140870936Y-106965873D01*
X143354929Y-109449866D01*
X143354934Y-109449868D01*
X143396142Y-109466937D01*
X143396143Y-109466937D01*
X143438541Y-109484499D01*
X143438542Y-109484499D01*
X143438544Y-109484500D01*
X143438545Y-109484500D01*
X164288252Y-109484500D01*
X164288253Y-109484500D01*
X164371868Y-109449865D01*
X164371869Y-109449863D01*
X164383150Y-109445191D01*
X164384233Y-109447807D01*
X164433427Y-109432402D01*
X164500808Y-109450883D01*
X164547501Y-109502860D01*
X164549559Y-109507475D01*
X164549765Y-109507860D01*
X164642843Y-109647162D01*
X164761307Y-109765626D01*
X164853964Y-109827537D01*
X164900607Y-109858703D01*
X165055388Y-109922816D01*
X165219698Y-109955499D01*
X165219702Y-109955500D01*
X165219703Y-109955500D01*
X165387238Y-109955500D01*
X165387239Y-109955499D01*
X165551552Y-109922816D01*
X165706333Y-109858703D01*
X165845632Y-109765626D01*
X165845635Y-109765623D01*
X165847440Y-109763819D01*
X165848618Y-109763175D01*
X165850342Y-109761761D01*
X165850610Y-109762087D01*
X165908763Y-109730334D01*
X165935121Y-109727500D01*
X167038392Y-109727500D01*
X167062583Y-109729883D01*
X167084372Y-109734217D01*
X167166230Y-109750499D01*
X167166232Y-109750500D01*
X167166233Y-109750500D01*
X167333768Y-109750500D01*
X167333768Y-109750499D01*
X167425097Y-109732333D01*
X167437417Y-109729883D01*
X167461608Y-109727500D01*
X167571043Y-109727500D01*
X167638082Y-109747185D01*
X167674145Y-109782609D01*
X167739373Y-109880229D01*
X167739376Y-109880233D01*
X167857837Y-109998694D01*
X167950494Y-110060605D01*
X167997137Y-110091771D01*
X168151918Y-110155884D01*
X168307435Y-110186818D01*
X168316228Y-110188567D01*
X168316232Y-110188568D01*
X168316233Y-110188568D01*
X168483768Y-110188568D01*
X168483769Y-110188567D01*
X168648082Y-110155884D01*
X168802863Y-110091771D01*
X168942162Y-109998694D01*
X169060626Y-109880230D01*
X169153703Y-109740931D01*
X169217816Y-109586150D01*
X169250500Y-109421835D01*
X169250500Y-109254301D01*
X169217816Y-109089986D01*
X169153703Y-108935205D01*
X169107370Y-108865863D01*
X169060626Y-108795905D01*
X168942162Y-108677441D01*
X168802860Y-108584363D01*
X168768331Y-108570061D01*
X168713928Y-108526220D01*
X168691863Y-108459925D01*
X168709142Y-108392226D01*
X168760280Y-108344616D01*
X168815784Y-108331500D01*
X169458405Y-108331500D01*
X169525444Y-108351185D01*
X169546086Y-108367819D01*
X170573681Y-109395414D01*
X170607166Y-109456737D01*
X170610000Y-109483095D01*
X170610000Y-110864725D01*
X170590315Y-110931764D01*
X170537511Y-110977519D01*
X170468353Y-110987463D01*
X170413115Y-110965044D01*
X170247815Y-110844948D01*
X170058414Y-110748444D01*
X170058413Y-110748443D01*
X170058412Y-110748443D01*
X169856243Y-110682754D01*
X169856241Y-110682753D01*
X169856240Y-110682753D01*
X169694957Y-110657208D01*
X169646287Y-110649500D01*
X169433713Y-110649500D01*
X169385042Y-110657208D01*
X169223760Y-110682753D01*
X169021585Y-110748444D01*
X168832179Y-110844951D01*
X168660215Y-110969889D01*
X168546285Y-111083819D01*
X168484962Y-111117303D01*
X168415270Y-111112319D01*
X168359337Y-111070447D01*
X168342422Y-111039470D01*
X168293354Y-110907913D01*
X168293350Y-110907906D01*
X168207190Y-110792812D01*
X168207187Y-110792809D01*
X168092093Y-110706649D01*
X168092086Y-110706645D01*
X167957379Y-110656403D01*
X167957372Y-110656401D01*
X167897844Y-110650000D01*
X167250000Y-110650000D01*
X167250000Y-111566988D01*
X167192993Y-111534075D01*
X167065826Y-111500000D01*
X166934174Y-111500000D01*
X166807007Y-111534075D01*
X166750000Y-111566988D01*
X166750000Y-110650000D01*
X166102155Y-110650000D01*
X166042627Y-110656401D01*
X166042620Y-110656403D01*
X165907913Y-110706645D01*
X165907906Y-110706649D01*
X165792812Y-110792809D01*
X165792809Y-110792812D01*
X165706649Y-110907906D01*
X165706645Y-110907913D01*
X165656403Y-111042620D01*
X165656401Y-111042627D01*
X165650000Y-111102155D01*
X165650000Y-111750000D01*
X166566988Y-111750000D01*
X166534075Y-111807007D01*
X166500000Y-111934174D01*
X166500000Y-112065826D01*
X166534075Y-112192993D01*
X166566988Y-112250000D01*
X165650000Y-112250000D01*
X165650000Y-112897844D01*
X165656401Y-112957372D01*
X165656403Y-112957379D01*
X165706645Y-113092086D01*
X165706649Y-113092093D01*
X165792809Y-113207187D01*
X165792812Y-113207190D01*
X165907906Y-113293350D01*
X165907913Y-113293354D01*
X166042620Y-113343596D01*
X166042627Y-113343598D01*
X166102155Y-113349999D01*
X166102172Y-113350000D01*
X166750000Y-113350000D01*
X166750000Y-112433012D01*
X166807007Y-112465925D01*
X166934174Y-112500000D01*
X167065826Y-112500000D01*
X167192993Y-112465925D01*
X167250000Y-112433012D01*
X167250000Y-113350000D01*
X167897828Y-113350000D01*
X167897844Y-113349999D01*
X167957372Y-113343598D01*
X167957379Y-113343596D01*
X168092086Y-113293354D01*
X168092093Y-113293350D01*
X168207187Y-113207190D01*
X168207190Y-113207187D01*
X168293350Y-113092093D01*
X168293354Y-113092086D01*
X168342422Y-112960529D01*
X168384293Y-112904595D01*
X168449757Y-112880178D01*
X168518030Y-112895030D01*
X168546285Y-112916181D01*
X168660213Y-113030109D01*
X168832179Y-113155048D01*
X168832181Y-113155049D01*
X168832184Y-113155051D01*
X168917861Y-113198705D01*
X169021583Y-113251555D01*
X169021585Y-113251555D01*
X169021588Y-113251557D01*
X169170646Y-113299989D01*
X169226819Y-113318241D01*
X169247221Y-113332191D01*
X169269703Y-113342459D01*
X169275556Y-113351567D01*
X169284494Y-113357679D01*
X169294114Y-113380444D01*
X169307477Y-113401237D01*
X169309836Y-113417647D01*
X169311692Y-113422038D01*
X169312500Y-113436172D01*
X169312500Y-113626905D01*
X169292815Y-113693944D01*
X169276181Y-113714586D01*
X169177586Y-113813181D01*
X169116263Y-113846666D01*
X169089905Y-113849500D01*
X168009298Y-113849500D01*
X167972432Y-113852401D01*
X167972426Y-113852402D01*
X167814606Y-113898254D01*
X167814603Y-113898255D01*
X167673137Y-113981917D01*
X167673129Y-113981923D01*
X167556923Y-114098129D01*
X167556917Y-114098137D01*
X167473255Y-114239603D01*
X167473254Y-114239606D01*
X167427402Y-114397426D01*
X167427401Y-114397432D01*
X167424500Y-114434298D01*
X167424500Y-114865701D01*
X167427401Y-114902567D01*
X167427402Y-114902573D01*
X167473254Y-115060393D01*
X167473255Y-115060396D01*
X167556917Y-115201862D01*
X167556923Y-115201870D01*
X167673129Y-115318076D01*
X167673133Y-115318079D01*
X167673135Y-115318081D01*
X167814602Y-115401744D01*
X167856224Y-115413836D01*
X167972426Y-115447597D01*
X167972429Y-115447597D01*
X167972431Y-115447598D01*
X168009306Y-115450500D01*
X169175500Y-115450500D01*
X169184185Y-115453050D01*
X169193147Y-115451762D01*
X169217187Y-115462740D01*
X169242539Y-115470185D01*
X169248466Y-115477025D01*
X169256703Y-115480787D01*
X169270992Y-115503021D01*
X169288294Y-115522989D01*
X169290581Y-115533503D01*
X169294477Y-115539565D01*
X169299500Y-115574500D01*
X169299500Y-115625500D01*
X169279815Y-115692539D01*
X169227011Y-115738294D01*
X169175500Y-115749500D01*
X168009298Y-115749500D01*
X167972432Y-115752401D01*
X167972426Y-115752402D01*
X167814606Y-115798254D01*
X167814603Y-115798255D01*
X167673137Y-115881917D01*
X167673129Y-115881923D01*
X167556923Y-115998129D01*
X167556917Y-115998137D01*
X167473255Y-116139603D01*
X167473254Y-116139606D01*
X167427402Y-116297426D01*
X167427401Y-116297432D01*
X167424500Y-116334298D01*
X167424500Y-116765701D01*
X167427401Y-116802567D01*
X167427402Y-116802573D01*
X167473254Y-116960393D01*
X167473255Y-116960396D01*
X167556917Y-117101862D01*
X167556923Y-117101870D01*
X167673129Y-117218076D01*
X167673133Y-117218079D01*
X167673135Y-117218081D01*
X167814602Y-117301744D01*
X167856224Y-117313836D01*
X167972426Y-117347597D01*
X167972429Y-117347597D01*
X167972431Y-117347598D01*
X168009306Y-117350500D01*
X169089905Y-117350500D01*
X169119345Y-117359144D01*
X169149332Y-117365668D01*
X169154347Y-117369422D01*
X169156944Y-117370185D01*
X169177586Y-117386819D01*
X169276181Y-117485414D01*
X169309666Y-117546737D01*
X169312500Y-117573095D01*
X169312500Y-117763828D01*
X169292815Y-117830867D01*
X169240011Y-117876622D01*
X169226819Y-117881759D01*
X169021583Y-117948444D01*
X168832179Y-118044951D01*
X168660215Y-118169889D01*
X168546285Y-118283819D01*
X168484962Y-118317303D01*
X168415270Y-118312319D01*
X168359337Y-118270447D01*
X168342422Y-118239470D01*
X168293354Y-118107913D01*
X168293350Y-118107906D01*
X168207190Y-117992812D01*
X168207187Y-117992809D01*
X168092093Y-117906649D01*
X168092086Y-117906645D01*
X167957379Y-117856403D01*
X167957372Y-117856401D01*
X167897844Y-117850000D01*
X167250000Y-117850000D01*
X167250000Y-118766988D01*
X167192993Y-118734075D01*
X167065826Y-118700000D01*
X166934174Y-118700000D01*
X166807007Y-118734075D01*
X166750000Y-118766988D01*
X166750000Y-117850000D01*
X166102155Y-117850000D01*
X166042627Y-117856401D01*
X166042620Y-117856403D01*
X165907913Y-117906645D01*
X165907906Y-117906649D01*
X165792812Y-117992809D01*
X165792809Y-117992812D01*
X165706649Y-118107906D01*
X165706645Y-118107913D01*
X165656403Y-118242620D01*
X165656401Y-118242627D01*
X165650000Y-118302155D01*
X165650000Y-118950000D01*
X166566988Y-118950000D01*
X166534075Y-119007007D01*
X166500000Y-119134174D01*
X166500000Y-119265826D01*
X166534075Y-119392993D01*
X166566988Y-119450000D01*
X165650000Y-119450000D01*
X165650000Y-120097844D01*
X165656401Y-120157372D01*
X165656403Y-120157379D01*
X165706645Y-120292086D01*
X165706649Y-120292093D01*
X165792809Y-120407187D01*
X165792812Y-120407190D01*
X165907906Y-120493350D01*
X165907913Y-120493354D01*
X166042620Y-120543596D01*
X166042627Y-120543598D01*
X166102155Y-120549999D01*
X166102172Y-120550000D01*
X166750000Y-120550000D01*
X166750000Y-119633012D01*
X166807007Y-119665925D01*
X166934174Y-119700000D01*
X167065826Y-119700000D01*
X167192993Y-119665925D01*
X167250000Y-119633012D01*
X167250000Y-120550000D01*
X167897828Y-120550000D01*
X167897844Y-120549999D01*
X167957372Y-120543598D01*
X167957379Y-120543596D01*
X168092086Y-120493354D01*
X168092093Y-120493350D01*
X168207187Y-120407190D01*
X168207190Y-120407187D01*
X168293350Y-120292093D01*
X168293354Y-120292086D01*
X168342422Y-120160529D01*
X168384293Y-120104595D01*
X168449757Y-120080178D01*
X168518030Y-120095030D01*
X168546285Y-120116181D01*
X168660213Y-120230109D01*
X168832179Y-120355048D01*
X168832181Y-120355049D01*
X168832184Y-120355051D01*
X169021588Y-120451557D01*
X169223757Y-120517246D01*
X169269226Y-120524447D01*
X169279197Y-120526027D01*
X169342332Y-120555956D01*
X169379263Y-120615268D01*
X169378265Y-120685130D01*
X169339655Y-120743363D01*
X169275692Y-120771477D01*
X169259799Y-120772500D01*
X168454746Y-120772500D01*
X168371130Y-120807136D01*
X167962780Y-121215485D01*
X167901457Y-121248970D01*
X167831765Y-121243986D01*
X167802216Y-121228124D01*
X167801357Y-121227500D01*
X167786433Y-121216657D01*
X167758454Y-121202401D01*
X167575996Y-121109433D01*
X167351368Y-121036446D01*
X167118097Y-120999500D01*
X167118092Y-120999500D01*
X166881908Y-120999500D01*
X166881903Y-120999500D01*
X166648631Y-121036446D01*
X166424003Y-121109433D01*
X166213566Y-121216657D01*
X166146064Y-121265701D01*
X166022490Y-121355483D01*
X166022488Y-121355485D01*
X166022487Y-121355485D01*
X165855485Y-121522487D01*
X165855485Y-121522488D01*
X165855483Y-121522490D01*
X165820643Y-121570443D01*
X165716657Y-121713566D01*
X165609433Y-121924003D01*
X165536446Y-122148631D01*
X165499500Y-122381902D01*
X165499500Y-122618097D01*
X165536446Y-122851368D01*
X165609433Y-123075996D01*
X165673925Y-123202567D01*
X165716657Y-123286433D01*
X165855483Y-123477510D01*
X166022490Y-123644517D01*
X166213567Y-123783343D01*
X166277262Y-123815797D01*
X166358035Y-123856953D01*
X166408831Y-123904928D01*
X166425626Y-123972749D01*
X166403089Y-124038883D01*
X166348374Y-124082335D01*
X166301740Y-124091438D01*
X165324500Y-124091438D01*
X165257461Y-124071753D01*
X165211706Y-124018949D01*
X165200500Y-123967438D01*
X165200500Y-110460119D01*
X165200499Y-110460116D01*
X165169976Y-110386426D01*
X165113574Y-110330024D01*
X165058315Y-110307135D01*
X165039883Y-110299500D01*
X165039882Y-110299500D01*
X135039882Y-110299500D01*
X134960118Y-110299500D01*
X134960116Y-110299500D01*
X134886425Y-110330024D01*
X134830024Y-110386425D01*
X134799500Y-110460116D01*
X134799500Y-140175500D01*
X134779815Y-140242539D01*
X134727011Y-140288294D01*
X134675500Y-140299500D01*
X132310116Y-140299500D01*
X132236425Y-140330024D01*
X132180024Y-140386425D01*
X132149500Y-140460116D01*
X132149500Y-146516246D01*
X132129815Y-146583285D01*
X132077011Y-146629040D01*
X132025046Y-146640245D01*
X107574046Y-146550684D01*
X107507079Y-146530754D01*
X107461518Y-146477783D01*
X107450500Y-146426685D01*
X107450500Y-144519911D01*
X115875376Y-144519911D01*
X115875376Y-144763964D01*
X115909886Y-144981854D01*
X115913555Y-145005014D01*
X115988972Y-145237123D01*
X116041071Y-145339374D01*
X116099772Y-145454580D01*
X116243215Y-145652014D01*
X116243219Y-145652019D01*
X116415794Y-145824594D01*
X116415799Y-145824598D01*
X116541918Y-145916228D01*
X116613237Y-145968044D01*
X116830691Y-146078842D01*
X117062800Y-146154259D01*
X117303849Y-146192438D01*
X117303850Y-146192438D01*
X117547902Y-146192438D01*
X117547903Y-146192438D01*
X117788952Y-146154259D01*
X118021061Y-146078842D01*
X118238515Y-145968044D01*
X118435959Y-145824593D01*
X118608531Y-145652021D01*
X118751982Y-145454577D01*
X118862780Y-145237123D01*
X118938197Y-145005014D01*
X118976376Y-144763965D01*
X118976376Y-144519911D01*
X118938197Y-144278862D01*
X118862780Y-144046753D01*
X118751982Y-143829299D01*
X118733655Y-143804074D01*
X118608536Y-143631861D01*
X118608532Y-143631856D01*
X118435957Y-143459281D01*
X118435952Y-143459277D01*
X118238518Y-143315834D01*
X118238517Y-143315833D01*
X118238515Y-143315832D01*
X118021061Y-143205034D01*
X117788952Y-143129617D01*
X117788950Y-143129616D01*
X117788948Y-143129616D01*
X117620645Y-143102959D01*
X117547903Y-143091438D01*
X117303849Y-143091438D01*
X117247969Y-143100288D01*
X117062803Y-143129616D01*
X116830688Y-143205035D01*
X116613233Y-143315834D01*
X116415799Y-143459277D01*
X116415794Y-143459281D01*
X116243219Y-143631856D01*
X116243215Y-143631861D01*
X116099772Y-143829295D01*
X115988973Y-144046750D01*
X115913554Y-144278865D01*
X115875376Y-144519911D01*
X107450500Y-144519911D01*
X107450500Y-129323722D01*
X107470185Y-129256683D01*
X107522989Y-129210928D01*
X107574201Y-129199722D01*
X110609135Y-129192438D01*
X110648651Y-129192438D01*
X110648881Y-129192342D01*
X110649132Y-129192342D01*
X110685527Y-129177163D01*
X110685837Y-129177129D01*
X110685804Y-129177049D01*
X110705786Y-129168771D01*
X110722343Y-129161914D01*
X110722348Y-129161907D01*
X110722743Y-129161644D01*
X110722751Y-129161641D01*
X110750780Y-129133476D01*
X115485852Y-124398405D01*
X115516376Y-124324713D01*
X115516376Y-124244948D01*
X115516376Y-122566438D01*
X115536061Y-122499399D01*
X115588865Y-122453644D01*
X115640376Y-122442438D01*
X117867850Y-122442438D01*
X117868443Y-122442377D01*
X117884856Y-122442379D01*
X118020186Y-122415468D01*
X118147665Y-122362672D01*
X118262395Y-122286022D01*
X118359967Y-122188461D01*
X118436632Y-122073741D01*
X118489443Y-121946268D01*
X118516371Y-121810942D01*
X118516373Y-121781825D01*
X118516376Y-121781819D01*
X118516376Y-121741922D01*
X118516379Y-121702070D01*
X118516378Y-121702068D01*
X118516379Y-121690948D01*
X118516376Y-121690902D01*
X118516376Y-112853713D01*
X119149500Y-112853713D01*
X119149500Y-113066287D01*
X119157494Y-113116758D01*
X119181115Y-113265898D01*
X119182754Y-113276243D01*
X119234718Y-113436172D01*
X119248444Y-113478414D01*
X119344951Y-113667820D01*
X119469890Y-113839786D01*
X119620213Y-113990109D01*
X119792182Y-114115050D01*
X119800946Y-114119516D01*
X119851742Y-114167491D01*
X119868536Y-114235312D01*
X119845998Y-114301447D01*
X119800946Y-114340484D01*
X119792182Y-114344949D01*
X119620213Y-114469890D01*
X119469890Y-114620213D01*
X119344951Y-114792179D01*
X119248444Y-114981585D01*
X119182753Y-115183760D01*
X119149500Y-115393713D01*
X119149500Y-115606286D01*
X119182665Y-115815686D01*
X119182754Y-115816243D01*
X119247211Y-116014621D01*
X119248444Y-116018414D01*
X119344951Y-116207820D01*
X119469890Y-116379786D01*
X119620213Y-116530109D01*
X119792182Y-116655050D01*
X119800946Y-116659516D01*
X119851742Y-116707491D01*
X119868536Y-116775312D01*
X119845998Y-116841447D01*
X119800946Y-116880484D01*
X119792182Y-116884949D01*
X119620213Y-117009890D01*
X119469890Y-117160213D01*
X119344951Y-117332179D01*
X119248444Y-117521585D01*
X119182753Y-117723760D01*
X119149500Y-117933713D01*
X119149500Y-118146286D01*
X119179207Y-118333853D01*
X119182754Y-118356243D01*
X119244409Y-118545998D01*
X119248444Y-118558414D01*
X119344951Y-118747820D01*
X119469890Y-118919786D01*
X119583818Y-119033714D01*
X119617303Y-119095037D01*
X119612319Y-119164729D01*
X119570447Y-119220662D01*
X119539471Y-119237577D01*
X119407912Y-119286646D01*
X119407906Y-119286649D01*
X119292812Y-119372809D01*
X119292809Y-119372812D01*
X119206649Y-119487906D01*
X119206645Y-119487913D01*
X119156403Y-119622620D01*
X119156401Y-119622627D01*
X119150000Y-119682155D01*
X119150000Y-120330000D01*
X120066988Y-120330000D01*
X120034075Y-120387007D01*
X120000000Y-120514174D01*
X120000000Y-120645826D01*
X120034075Y-120772993D01*
X120066988Y-120830000D01*
X119150000Y-120830000D01*
X119150000Y-121477844D01*
X119156401Y-121537372D01*
X119156403Y-121537379D01*
X119206645Y-121672086D01*
X119206649Y-121672093D01*
X119292809Y-121787187D01*
X119292812Y-121787190D01*
X119407906Y-121873350D01*
X119407913Y-121873354D01*
X119542620Y-121923596D01*
X119542627Y-121923598D01*
X119602155Y-121929999D01*
X119602172Y-121930000D01*
X120250000Y-121930000D01*
X120250000Y-121013012D01*
X120307007Y-121045925D01*
X120434174Y-121080000D01*
X120565826Y-121080000D01*
X120692993Y-121045925D01*
X120750000Y-121013012D01*
X120750000Y-121930000D01*
X121397828Y-121930000D01*
X121397844Y-121929999D01*
X121457372Y-121923598D01*
X121457379Y-121923596D01*
X121592086Y-121873354D01*
X121592093Y-121873350D01*
X121707187Y-121787190D01*
X121707190Y-121787187D01*
X121793350Y-121672093D01*
X121793354Y-121672086D01*
X121843596Y-121537379D01*
X121843598Y-121537372D01*
X121849999Y-121477844D01*
X121850000Y-121477827D01*
X121850000Y-120830000D01*
X120933012Y-120830000D01*
X120965925Y-120772993D01*
X121000000Y-120645826D01*
X121000000Y-120514174D01*
X120965925Y-120387007D01*
X120933012Y-120330000D01*
X121850000Y-120330000D01*
X121850000Y-119682172D01*
X121849999Y-119682155D01*
X121843598Y-119622627D01*
X121843596Y-119622620D01*
X121793354Y-119487913D01*
X121793350Y-119487906D01*
X121707190Y-119372812D01*
X121707187Y-119372809D01*
X121592093Y-119286649D01*
X121592088Y-119286646D01*
X121460528Y-119237577D01*
X121404595Y-119195705D01*
X121380178Y-119130241D01*
X121395030Y-119061968D01*
X121416175Y-119033720D01*
X121530104Y-118919792D01*
X121549575Y-118892993D01*
X121655048Y-118747820D01*
X121655047Y-118747820D01*
X121655051Y-118747816D01*
X121751557Y-118558412D01*
X121817246Y-118356243D01*
X121850500Y-118146287D01*
X121850500Y-117933713D01*
X121817246Y-117723757D01*
X121751557Y-117521588D01*
X121655051Y-117332184D01*
X121655049Y-117332181D01*
X121655048Y-117332179D01*
X121530109Y-117160213D01*
X121379786Y-117009890D01*
X121207820Y-116884951D01*
X121207115Y-116884591D01*
X121199054Y-116880485D01*
X121148259Y-116832512D01*
X121131463Y-116764692D01*
X121153999Y-116698556D01*
X121199054Y-116659515D01*
X121207816Y-116655051D01*
X121287526Y-116597139D01*
X121379786Y-116530109D01*
X121379788Y-116530106D01*
X121379792Y-116530104D01*
X121530104Y-116379792D01*
X121530106Y-116379788D01*
X121530109Y-116379786D01*
X121655048Y-116207820D01*
X121655047Y-116207820D01*
X121655051Y-116207816D01*
X121751557Y-116018412D01*
X121817246Y-115816243D01*
X121850500Y-115606287D01*
X121850500Y-115393713D01*
X121817246Y-115183757D01*
X121751557Y-114981588D01*
X121655051Y-114792184D01*
X121655049Y-114792181D01*
X121655048Y-114792179D01*
X121530109Y-114620213D01*
X121379786Y-114469890D01*
X121207820Y-114344951D01*
X121202197Y-114342086D01*
X121199054Y-114340485D01*
X121148259Y-114292512D01*
X121131463Y-114224692D01*
X121153999Y-114158556D01*
X121199054Y-114119515D01*
X121207816Y-114115051D01*
X121270066Y-114069824D01*
X121379786Y-113990109D01*
X121379788Y-113990106D01*
X121379792Y-113990104D01*
X121530104Y-113839792D01*
X121530106Y-113839788D01*
X121530109Y-113839786D01*
X121655048Y-113667820D01*
X121655047Y-113667820D01*
X121655051Y-113667816D01*
X121751557Y-113478412D01*
X121817246Y-113276243D01*
X121850500Y-113066287D01*
X121850500Y-112853713D01*
X121817246Y-112643757D01*
X121751557Y-112441588D01*
X121655051Y-112252184D01*
X121655049Y-112252181D01*
X121655048Y-112252179D01*
X121530109Y-112080213D01*
X121379786Y-111929890D01*
X121207820Y-111804951D01*
X121018414Y-111708444D01*
X121018413Y-111708443D01*
X121018412Y-111708443D01*
X120816243Y-111642754D01*
X120816241Y-111642753D01*
X120816240Y-111642753D01*
X120654957Y-111617208D01*
X120606287Y-111609500D01*
X120393713Y-111609500D01*
X120345042Y-111617208D01*
X120183760Y-111642753D01*
X119981585Y-111708444D01*
X119792179Y-111804951D01*
X119620213Y-111929890D01*
X119469890Y-112080213D01*
X119344951Y-112252179D01*
X119248444Y-112441585D01*
X119182753Y-112643760D01*
X119165481Y-112752815D01*
X119149500Y-112853713D01*
X118516376Y-112853713D01*
X118516376Y-111689078D01*
X118516365Y-111688977D01*
X118516367Y-111672962D01*
X118516367Y-111672960D01*
X118489454Y-111537619D01*
X118436654Y-111410131D01*
X118397642Y-111351742D01*
X118359994Y-111295393D01*
X118262421Y-111197817D01*
X118147687Y-111121156D01*
X118020207Y-111068353D01*
X118020194Y-111068349D01*
X117911623Y-111046757D01*
X117884860Y-111041435D01*
X117884859Y-111041435D01*
X117815865Y-111041438D01*
X115640376Y-111041438D01*
X115573337Y-111021753D01*
X115527582Y-110968949D01*
X115516376Y-110917438D01*
X115516376Y-106303019D01*
X115519550Y-106274396D01*
X115516376Y-106263451D01*
X115516376Y-106252056D01*
X115507973Y-106231770D01*
X115503447Y-106218872D01*
X114784470Y-103739719D01*
X114780727Y-103688240D01*
X114785684Y-103652304D01*
X115008468Y-102037031D01*
X115037127Y-101973311D01*
X115095688Y-101935199D01*
X115165556Y-101934798D01*
X115218986Y-101966293D01*
G37*
%TD.AperFunction*%
%TA.AperFunction,Conductor*%
G36*
X123600475Y-129852790D02*
G01*
X123649170Y-129902895D01*
X123663500Y-129960762D01*
X123663500Y-139504905D01*
X123643815Y-139571944D01*
X123591011Y-139617699D01*
X123521853Y-139627643D01*
X123458297Y-139598618D01*
X123451819Y-139592586D01*
X116014770Y-132155537D01*
X115981285Y-132094214D01*
X115986269Y-132024522D01*
X116014767Y-131980177D01*
X116043081Y-131951865D01*
X116126744Y-131810398D01*
X116172598Y-131652569D01*
X116175500Y-131615694D01*
X116175500Y-131184306D01*
X116172598Y-131147431D01*
X116171355Y-131143154D01*
X116126745Y-130989606D01*
X116126744Y-130989603D01*
X116126744Y-130989602D01*
X116052831Y-130864621D01*
X116035648Y-130796897D01*
X116057808Y-130730634D01*
X116112274Y-130686871D01*
X116159563Y-130677500D01*
X120635252Y-130677500D01*
X120635253Y-130677500D01*
X120718868Y-130642865D01*
X121444855Y-129916876D01*
X121506176Y-129883393D01*
X121575867Y-129888377D01*
X121605416Y-129904239D01*
X121693237Y-129968044D01*
X121910691Y-130078842D01*
X122142800Y-130154259D01*
X122383849Y-130192438D01*
X122383850Y-130192438D01*
X122627902Y-130192438D01*
X122627903Y-130192438D01*
X122868952Y-130154259D01*
X123101061Y-130078842D01*
X123318515Y-129968044D01*
X123428168Y-129888377D01*
X123466615Y-129860444D01*
X123532421Y-129836964D01*
X123600475Y-129852790D01*
G37*
%TD.AperFunction*%
%TA.AperFunction,Conductor*%
G36*
X197919132Y-107710440D02*
G01*
X197975065Y-107752312D01*
X197999482Y-107817776D01*
X197999798Y-107826622D01*
X197999798Y-107931594D01*
X197999850Y-107931923D01*
X198032912Y-108140669D01*
X198037977Y-108172643D01*
X198113394Y-108404752D01*
X198214640Y-108603460D01*
X198224194Y-108622209D01*
X198367637Y-108819643D01*
X198367641Y-108819648D01*
X198540216Y-108992223D01*
X198540221Y-108992227D01*
X198687086Y-109098930D01*
X198737659Y-109135673D01*
X198955113Y-109246471D01*
X199187222Y-109321888D01*
X199428271Y-109360067D01*
X199428272Y-109360067D01*
X199672324Y-109360067D01*
X199672325Y-109360067D01*
X199913374Y-109321888D01*
X200145483Y-109246471D01*
X200362937Y-109135673D01*
X200438878Y-109080498D01*
X200504684Y-109057019D01*
X200572738Y-109072844D01*
X200621433Y-109122950D01*
X200635763Y-109180817D01*
X200635763Y-119318010D01*
X200635763Y-119408516D01*
X200652946Y-119450000D01*
X200670399Y-119492133D01*
X202346181Y-121167914D01*
X202379666Y-121229237D01*
X202382500Y-121255595D01*
X202382500Y-128917371D01*
X202362815Y-128984410D01*
X202310011Y-129030165D01*
X202258501Y-129041371D01*
X202059999Y-129041371D01*
X202059980Y-129041372D01*
X201957203Y-129051871D01*
X201957200Y-129051872D01*
X201790668Y-129107056D01*
X201790663Y-129107058D01*
X201641342Y-129199160D01*
X201517289Y-129323213D01*
X201457039Y-129420895D01*
X201405091Y-129467619D01*
X201336128Y-129478842D01*
X201272046Y-129450998D01*
X201233190Y-129392929D01*
X201227500Y-129355798D01*
X201227500Y-126507843D01*
X201227500Y-126507842D01*
X201192865Y-126424227D01*
X201128868Y-126360230D01*
X200894433Y-126125795D01*
X200860948Y-126064472D01*
X200865932Y-125994780D01*
X200881794Y-125965232D01*
X200900230Y-125939858D01*
X201011028Y-125722404D01*
X201086445Y-125490295D01*
X201124624Y-125249246D01*
X201124624Y-125005192D01*
X201086445Y-124764143D01*
X201011028Y-124532034D01*
X200900230Y-124314580D01*
X200876296Y-124281638D01*
X200756784Y-124117142D01*
X200756780Y-124117137D01*
X200584205Y-123944562D01*
X200584200Y-123944558D01*
X200386766Y-123801115D01*
X200386765Y-123801114D01*
X200386763Y-123801113D01*
X200169309Y-123690315D01*
X199937200Y-123614898D01*
X199937198Y-123614897D01*
X199937196Y-123614897D01*
X199753801Y-123585850D01*
X199696151Y-123576719D01*
X199452097Y-123576719D01*
X199396217Y-123585569D01*
X199211051Y-123614897D01*
X199211048Y-123614898D01*
X199039542Y-123670624D01*
X198978936Y-123690316D01*
X198761485Y-123801112D01*
X198613385Y-123908713D01*
X198547578Y-123932192D01*
X198479525Y-123916366D01*
X198430830Y-123866260D01*
X198416500Y-123808394D01*
X198416500Y-115643748D01*
X198416500Y-115643747D01*
X198381865Y-115560132D01*
X198317868Y-115496135D01*
X195815753Y-112994020D01*
X193260915Y-110439181D01*
X193227430Y-110377858D01*
X193232414Y-110308166D01*
X193274286Y-110252233D01*
X193339750Y-110227816D01*
X193348596Y-110227500D01*
X195250577Y-110227500D01*
X195250578Y-110227500D01*
X195334193Y-110192865D01*
X197788117Y-107738941D01*
X197849440Y-107705456D01*
X197919132Y-107710440D01*
G37*
%TD.AperFunction*%
%TA.AperFunction,Conductor*%
G36*
X201295966Y-117618145D02*
G01*
X201302444Y-117624177D01*
X205590585Y-121912318D01*
X205624070Y-121973641D01*
X205619086Y-122043333D01*
X205590585Y-122087680D01*
X204046662Y-123631605D01*
X203532132Y-124146135D01*
X203468135Y-124210132D01*
X203460411Y-124228780D01*
X203433500Y-124293746D01*
X203433500Y-128936717D01*
X203413815Y-129003756D01*
X203361011Y-129049511D01*
X203291853Y-129059455D01*
X203270500Y-129054424D01*
X203262800Y-129051873D01*
X203262795Y-129051871D01*
X203160016Y-129041371D01*
X203160009Y-129041371D01*
X202961500Y-129041371D01*
X202894461Y-129021686D01*
X202848706Y-128968882D01*
X202837500Y-128917371D01*
X202837500Y-121064748D01*
X202837500Y-121064747D01*
X202802865Y-120981132D01*
X202738868Y-120917135D01*
X201127082Y-119305349D01*
X201093597Y-119244026D01*
X201090763Y-119217668D01*
X201090763Y-117711858D01*
X201110448Y-117644819D01*
X201163252Y-117599064D01*
X201232410Y-117589120D01*
X201295966Y-117618145D01*
G37*
%TD.AperFunction*%
%TA.AperFunction,Conductor*%
G36*
X173635703Y-111952706D02*
G01*
X173642181Y-111958738D01*
X182744262Y-121060819D01*
X182777747Y-121122142D01*
X182772763Y-121191834D01*
X182730891Y-121247767D01*
X182665427Y-121272184D01*
X182656581Y-121272500D01*
X180145596Y-121272500D01*
X180078557Y-121252815D01*
X180057915Y-121236181D01*
X179628869Y-120807136D01*
X179628868Y-120807135D01*
X179545253Y-120772500D01*
X178151651Y-120772500D01*
X178084612Y-120752815D01*
X178038857Y-120700011D01*
X178028913Y-120630853D01*
X178057938Y-120567297D01*
X178063970Y-120560819D01*
X178082623Y-120542165D01*
X178082626Y-120542162D01*
X178108323Y-120503704D01*
X178175703Y-120402863D01*
X178239816Y-120248082D01*
X178272500Y-120083767D01*
X178272500Y-119916233D01*
X178239816Y-119751918D01*
X178175703Y-119597137D01*
X178141023Y-119545235D01*
X178082626Y-119457837D01*
X177964162Y-119339373D01*
X177824860Y-119246295D01*
X177670082Y-119182184D01*
X177670074Y-119182182D01*
X177505771Y-119149500D01*
X177505767Y-119149500D01*
X177338233Y-119149500D01*
X177338228Y-119149500D01*
X177173925Y-119182181D01*
X177173917Y-119182184D01*
X177147929Y-119192948D01*
X177078459Y-119200414D01*
X177015981Y-119169136D01*
X177012800Y-119166066D01*
X173253870Y-115407136D01*
X173243554Y-115402863D01*
X173170253Y-115372500D01*
X171872983Y-115372500D01*
X171805944Y-115352815D01*
X171760189Y-115300011D01*
X171753907Y-115283095D01*
X171726745Y-115189606D01*
X171726744Y-115189603D01*
X171726744Y-115189602D01*
X171643081Y-115048135D01*
X171643079Y-115048133D01*
X171643076Y-115048129D01*
X171526870Y-114931923D01*
X171526862Y-114931917D01*
X171385396Y-114848255D01*
X171385393Y-114848254D01*
X171227573Y-114802402D01*
X171227567Y-114802401D01*
X171190701Y-114799500D01*
X171190694Y-114799500D01*
X171189000Y-114799500D01*
X171188739Y-114799423D01*
X171188266Y-114799405D01*
X171188269Y-114799309D01*
X171188267Y-114799309D01*
X171188268Y-114799285D01*
X171121961Y-114779815D01*
X171076206Y-114727011D01*
X171065000Y-114675500D01*
X171065000Y-113175233D01*
X171084685Y-113108194D01*
X171137489Y-113062439D01*
X171206647Y-113052495D01*
X171261885Y-113074915D01*
X171307690Y-113108194D01*
X171372184Y-113155051D01*
X171561588Y-113251557D01*
X171763757Y-113317246D01*
X171973713Y-113350500D01*
X171973714Y-113350500D01*
X172186286Y-113350500D01*
X172186287Y-113350500D01*
X172396243Y-113317246D01*
X172598412Y-113251557D01*
X172787816Y-113155051D01*
X172852310Y-113108194D01*
X172959786Y-113030109D01*
X172959788Y-113030106D01*
X172959792Y-113030104D01*
X173110104Y-112879792D01*
X173110106Y-112879788D01*
X173110109Y-112879786D01*
X173235048Y-112707820D01*
X173235047Y-112707820D01*
X173235051Y-112707816D01*
X173331557Y-112518412D01*
X173397246Y-112316243D01*
X173430500Y-112106287D01*
X173430500Y-112046419D01*
X173450185Y-111979380D01*
X173502989Y-111933625D01*
X173572147Y-111923681D01*
X173635703Y-111952706D01*
G37*
%TD.AperFunction*%
%TA.AperFunction,Conductor*%
G36*
X168531627Y-95322048D02*
G01*
X168577382Y-95374852D01*
X168588386Y-95419286D01*
X168606995Y-95744828D01*
X168705982Y-97006077D01*
X168831691Y-98264900D01*
X168984073Y-99520780D01*
X169163062Y-100773192D01*
X169368569Y-102021493D01*
X169465688Y-102542238D01*
X169477228Y-102604110D01*
X169477228Y-102604111D01*
X169484539Y-102643317D01*
X169500439Y-102728584D01*
X169500441Y-102728599D01*
X169524888Y-102859787D01*
X169524892Y-102859808D01*
X169641943Y-103284373D01*
X169641949Y-103284391D01*
X169794474Y-103697547D01*
X169794482Y-103697566D01*
X169981376Y-104096323D01*
X169981381Y-104096334D01*
X169981385Y-104096342D01*
X169981388Y-104096347D01*
X170191522Y-104460876D01*
X170201345Y-104477916D01*
X170264199Y-104568314D01*
X170452767Y-104839520D01*
X170650990Y-105078618D01*
X170733860Y-105178577D01*
X171042611Y-105492660D01*
X171042615Y-105492663D01*
X171203916Y-105631114D01*
X171376806Y-105779513D01*
X171734056Y-106037090D01*
X172111802Y-106263545D01*
X172111810Y-106263549D01*
X172111817Y-106263553D01*
X172507332Y-106457252D01*
X172507339Y-106457255D01*
X172917835Y-106616834D01*
X173340353Y-106741140D01*
X173628563Y-106800011D01*
X173771846Y-106829279D01*
X173771852Y-106829280D01*
X173771867Y-106829283D01*
X174209287Y-106880632D01*
X174649483Y-106894818D01*
X175089302Y-106871741D01*
X175299998Y-106842651D01*
X175299998Y-106842654D01*
X175300011Y-106842649D01*
X175307444Y-106841625D01*
X175346952Y-106836176D01*
X175346952Y-106836175D01*
X176197566Y-106718855D01*
X176197732Y-106718880D01*
X176349190Y-106697989D01*
X176461841Y-106682451D01*
X176881688Y-106588682D01*
X177292358Y-106460562D01*
X177691045Y-106298967D01*
X178075025Y-106105000D01*
X178441676Y-105879987D01*
X178788494Y-105625464D01*
X179113108Y-105343171D01*
X179413303Y-105035036D01*
X179687026Y-104703163D01*
X179932408Y-104349819D01*
X180147773Y-103977419D01*
X180331651Y-103588506D01*
X180482783Y-103185737D01*
X180600139Y-102771863D01*
X180667756Y-102427025D01*
X180699971Y-102365030D01*
X180760593Y-102330291D01*
X180830372Y-102333840D01*
X180877119Y-102363208D01*
X180880363Y-102366452D01*
X181016873Y-102465633D01*
X181090613Y-102503205D01*
X181167218Y-102542238D01*
X181167221Y-102542239D01*
X181265542Y-102574185D01*
X181323217Y-102613622D01*
X181350416Y-102677981D01*
X181351224Y-102692116D01*
X181351224Y-106033471D01*
X181351224Y-106123977D01*
X181384801Y-106205039D01*
X181385860Y-106207594D01*
X185522134Y-110343868D01*
X185586801Y-110370652D01*
X185605747Y-110378500D01*
X185696253Y-110378500D01*
X187138000Y-110378500D01*
X187205039Y-110398185D01*
X187250794Y-110450989D01*
X187262000Y-110502500D01*
X187262000Y-110715701D01*
X187264901Y-110752567D01*
X187264902Y-110752573D01*
X187310754Y-110910393D01*
X187310755Y-110910396D01*
X187310756Y-110910398D01*
X187316665Y-110920390D01*
X187394417Y-111051862D01*
X187394423Y-111051870D01*
X187510629Y-111168076D01*
X187510633Y-111168079D01*
X187510635Y-111168081D01*
X187652102Y-111251744D01*
X187693724Y-111263836D01*
X187809926Y-111297597D01*
X187809929Y-111297597D01*
X187809931Y-111297598D01*
X187846806Y-111300500D01*
X188148500Y-111300500D01*
X188215539Y-111320185D01*
X188261294Y-111372989D01*
X188272500Y-111424500D01*
X188272500Y-114005253D01*
X188307136Y-114088870D01*
X189807707Y-115589440D01*
X189841192Y-115650763D01*
X189836208Y-115720455D01*
X189820345Y-115750005D01*
X189762736Y-115829298D01*
X189762735Y-115829300D01*
X189651939Y-116046750D01*
X189576520Y-116278865D01*
X189538342Y-116519911D01*
X189538342Y-116763964D01*
X189569453Y-116960393D01*
X189576521Y-117005014D01*
X189651938Y-117237123D01*
X189759703Y-117448625D01*
X189762738Y-117454580D01*
X189850674Y-117575615D01*
X189874154Y-117641421D01*
X189858328Y-117709475D01*
X189808222Y-117758170D01*
X189750356Y-117772500D01*
X187347328Y-117772500D01*
X187280289Y-117752815D01*
X187234534Y-117700011D01*
X187224590Y-117630853D01*
X187247010Y-117575615D01*
X187305828Y-117494657D01*
X187334948Y-117454577D01*
X187445746Y-117237123D01*
X187521163Y-117005014D01*
X187559342Y-116763965D01*
X187559342Y-116519911D01*
X187521163Y-116278862D01*
X187445746Y-116046753D01*
X187334948Y-115829299D01*
X187280025Y-115753704D01*
X187191502Y-115631861D01*
X187191498Y-115631856D01*
X187018923Y-115459281D01*
X187018918Y-115459277D01*
X186821484Y-115315834D01*
X186821483Y-115315833D01*
X186821481Y-115315832D01*
X186604027Y-115205034D01*
X186371918Y-115129617D01*
X186371916Y-115129616D01*
X186371914Y-115129616D01*
X186203611Y-115102959D01*
X186130869Y-115091438D01*
X185886815Y-115091438D01*
X185830935Y-115100288D01*
X185645769Y-115129616D01*
X185413654Y-115205035D01*
X185196199Y-115315834D01*
X184998765Y-115459277D01*
X184998760Y-115459281D01*
X184826185Y-115631856D01*
X184826181Y-115631861D01*
X184682738Y-115829295D01*
X184571939Y-116046750D01*
X184496520Y-116278865D01*
X184458342Y-116519911D01*
X184458342Y-116763964D01*
X184489453Y-116960393D01*
X184496521Y-117005014D01*
X184571938Y-117237123D01*
X184679703Y-117448625D01*
X184682738Y-117454580D01*
X184770674Y-117575615D01*
X184794154Y-117641421D01*
X184778328Y-117709475D01*
X184728222Y-117758170D01*
X184670356Y-117772500D01*
X182779796Y-117772500D01*
X182712757Y-117752815D01*
X182692115Y-117736181D01*
X170060070Y-105104136D01*
X169976453Y-105069500D01*
X163759696Y-105069500D01*
X163692657Y-105049815D01*
X163672015Y-105033181D01*
X161914819Y-103275985D01*
X161881334Y-103214662D01*
X161878500Y-103188304D01*
X161878500Y-99338780D01*
X161878500Y-99338779D01*
X161843865Y-99255164D01*
X161779868Y-99191167D01*
X160664201Y-98075500D01*
X159395838Y-96807136D01*
X159385406Y-96802815D01*
X159312221Y-96772500D01*
X154156021Y-96772500D01*
X154088982Y-96752815D01*
X154043227Y-96700011D01*
X154038090Y-96686818D01*
X154022749Y-96639603D01*
X153976904Y-96498506D01*
X153866106Y-96281052D01*
X153843182Y-96249500D01*
X153722660Y-96083614D01*
X153722656Y-96083609D01*
X153550081Y-95911034D01*
X153550076Y-95911030D01*
X153352642Y-95767587D01*
X153352641Y-95767586D01*
X153352639Y-95767585D01*
X153135185Y-95656787D01*
X152903076Y-95581370D01*
X152903074Y-95581369D01*
X152903072Y-95581369D01*
X152738691Y-95555333D01*
X152697666Y-95548835D01*
X152634532Y-95518907D01*
X152597601Y-95459595D01*
X152598599Y-95389733D01*
X152637209Y-95331500D01*
X152701173Y-95303386D01*
X152717065Y-95302363D01*
X168464588Y-95302363D01*
X168531627Y-95322048D01*
G37*
%TD.AperFunction*%
%TA.AperFunction,Conductor*%
G36*
X189933585Y-110154047D02*
G01*
X189947665Y-110166160D01*
X190219323Y-110437819D01*
X190474370Y-110692866D01*
X190474372Y-110692868D01*
X190529463Y-110715686D01*
X190557985Y-110727500D01*
X192209843Y-110727500D01*
X192276882Y-110747185D01*
X192322637Y-110799989D01*
X192332581Y-110869147D01*
X192312945Y-110920390D01*
X192246298Y-111020134D01*
X192246296Y-111020138D01*
X192182184Y-111174917D01*
X192182182Y-111174925D01*
X192149500Y-111339228D01*
X192149500Y-111506771D01*
X192182182Y-111671074D01*
X192182184Y-111671082D01*
X192246295Y-111825860D01*
X192339373Y-111965162D01*
X192457837Y-112083626D01*
X192533063Y-112133890D01*
X192597137Y-112176703D01*
X192751918Y-112240816D01*
X192916228Y-112273499D01*
X192916232Y-112273500D01*
X192916233Y-112273500D01*
X193083768Y-112273500D01*
X193083769Y-112273499D01*
X193248082Y-112240816D01*
X193292449Y-112222437D01*
X193361917Y-112214968D01*
X193424397Y-112246241D01*
X193427584Y-112249317D01*
X194236181Y-113057914D01*
X194269666Y-113119237D01*
X194272500Y-113145595D01*
X194272500Y-116090804D01*
X194252815Y-116157843D01*
X194200011Y-116203598D01*
X194195954Y-116205365D01*
X194097137Y-116246296D01*
X193957837Y-116339373D01*
X193839373Y-116457837D01*
X193746295Y-116597139D01*
X193682184Y-116751917D01*
X193682182Y-116751925D01*
X193649500Y-116916228D01*
X193649500Y-117083771D01*
X193682182Y-117248074D01*
X193682184Y-117248082D01*
X193746295Y-117402860D01*
X193839373Y-117542162D01*
X193858030Y-117560819D01*
X193891515Y-117622142D01*
X193886531Y-117691834D01*
X193844659Y-117747767D01*
X193779195Y-117772184D01*
X193770349Y-117772500D01*
X192427328Y-117772500D01*
X192360289Y-117752815D01*
X192314534Y-117700011D01*
X192304590Y-117630853D01*
X192327010Y-117575615D01*
X192385828Y-117494657D01*
X192414948Y-117454577D01*
X192525746Y-117237123D01*
X192601163Y-117005014D01*
X192639342Y-116763965D01*
X192639342Y-116519911D01*
X192601163Y-116278862D01*
X192525746Y-116046753D01*
X192414948Y-115829299D01*
X192360025Y-115753704D01*
X192271502Y-115631861D01*
X192271498Y-115631856D01*
X192098923Y-115459281D01*
X192098918Y-115459277D01*
X191901484Y-115315834D01*
X191901483Y-115315833D01*
X191901481Y-115315832D01*
X191684027Y-115205034D01*
X191451918Y-115129617D01*
X191451916Y-115129616D01*
X191451914Y-115129616D01*
X191283611Y-115102959D01*
X191210869Y-115091438D01*
X190966815Y-115091438D01*
X190910935Y-115100288D01*
X190725769Y-115129616D01*
X190493654Y-115205035D01*
X190409186Y-115248074D01*
X190317391Y-115294846D01*
X190291131Y-115308226D01*
X190222462Y-115321122D01*
X190157721Y-115294846D01*
X190147155Y-115285422D01*
X188763819Y-113902086D01*
X188730334Y-113840763D01*
X188727500Y-113814405D01*
X188727500Y-111424500D01*
X188747185Y-111357461D01*
X188799989Y-111311706D01*
X188851500Y-111300500D01*
X189153186Y-111300500D01*
X189153194Y-111300500D01*
X189190069Y-111297598D01*
X189190071Y-111297597D01*
X189190073Y-111297597D01*
X189244377Y-111281820D01*
X189347898Y-111251744D01*
X189489365Y-111168081D01*
X189605581Y-111051865D01*
X189689244Y-110910398D01*
X189735098Y-110752569D01*
X189738000Y-110715694D01*
X189738000Y-110284306D01*
X189736368Y-110263571D01*
X189750732Y-110195195D01*
X189799783Y-110145438D01*
X189867948Y-110130099D01*
X189933585Y-110154047D01*
G37*
%TD.AperFunction*%
%TA.AperFunction,Conductor*%
G36*
X218563607Y-110734463D02*
G01*
X218588163Y-110737281D01*
X218596544Y-110744135D01*
X218606932Y-110747185D01*
X218623116Y-110765862D01*
X218642252Y-110781510D01*
X218649567Y-110796388D01*
X218652687Y-110799989D01*
X218657824Y-110813182D01*
X218697689Y-110935878D01*
X218697691Y-110935881D01*
X218778833Y-111095132D01*
X218883889Y-111239728D01*
X219010272Y-111366111D01*
X219154868Y-111471167D01*
X219314119Y-111552309D01*
X219314121Y-111552310D01*
X219472670Y-111603825D01*
X219484103Y-111607540D01*
X219610295Y-111627527D01*
X219673430Y-111657456D01*
X219710361Y-111716768D01*
X219709363Y-111786630D01*
X219670753Y-111844863D01*
X219610295Y-111872473D01*
X219484101Y-111892460D01*
X219484098Y-111892460D01*
X219314121Y-111947689D01*
X219314118Y-111947691D01*
X219154867Y-112028833D01*
X219010270Y-112133890D01*
X218883890Y-112260270D01*
X218778833Y-112404867D01*
X218697691Y-112564118D01*
X218697689Y-112564121D01*
X218657824Y-112686818D01*
X218618387Y-112744493D01*
X218554029Y-112771692D01*
X218539893Y-112772500D01*
X208598596Y-112772500D01*
X208531557Y-112752815D01*
X208485802Y-112700011D01*
X208475858Y-112630853D01*
X208504883Y-112567297D01*
X208510915Y-112560819D01*
X210307915Y-110763819D01*
X210369238Y-110730334D01*
X210395596Y-110727500D01*
X218539893Y-110727500D01*
X218563607Y-110734463D01*
G37*
%TD.AperFunction*%
%TA.AperFunction,Conductor*%
G36*
X184928909Y-101998875D02*
G01*
X184981388Y-102045003D01*
X184999437Y-102094360D01*
X185085181Y-102716038D01*
X185085177Y-102716059D01*
X185121557Y-102979820D01*
X185121561Y-102979845D01*
X185215323Y-103399660D01*
X185215327Y-103399676D01*
X185343447Y-103810347D01*
X185343449Y-103810352D01*
X185343450Y-103810355D01*
X185374935Y-103888034D01*
X185505048Y-104209049D01*
X185505048Y-104209050D01*
X185699016Y-104593029D01*
X185905979Y-104930266D01*
X185924031Y-104959681D01*
X186178556Y-105306500D01*
X186340449Y-105492663D01*
X186455210Y-105624629D01*
X186460852Y-105631116D01*
X186768992Y-105931311D01*
X186984483Y-106109042D01*
X187100875Y-106205039D01*
X187445531Y-106444385D01*
X187454216Y-106450416D01*
X187454230Y-106450424D01*
X187826613Y-106665778D01*
X187826629Y-106665786D01*
X188215531Y-106849653D01*
X188215543Y-106849658D01*
X188618297Y-107000781D01*
X188618301Y-107000782D01*
X188618311Y-107000786D01*
X189032189Y-107118139D01*
X189454345Y-107200913D01*
X189881894Y-107248543D01*
X190120795Y-107255298D01*
X190311904Y-107260703D01*
X190311908Y-107260702D01*
X190311916Y-107260703D01*
X190741473Y-107237309D01*
X190915043Y-107213366D01*
X190915044Y-107213367D01*
X193974360Y-106791353D01*
X194043459Y-106801692D01*
X194096000Y-106847748D01*
X194115301Y-106914899D01*
X194095233Y-106981825D01*
X194042168Y-107027277D01*
X194029622Y-107032121D01*
X193922760Y-107066842D01*
X193705307Y-107177641D01*
X193507873Y-107321084D01*
X193507868Y-107321088D01*
X193335293Y-107493663D01*
X193335289Y-107493668D01*
X193191846Y-107691102D01*
X193081047Y-107908557D01*
X193005628Y-108140671D01*
X192985478Y-108267898D01*
X192955549Y-108331032D01*
X192896238Y-108367964D01*
X192863005Y-108372500D01*
X189835483Y-108372500D01*
X189768444Y-108352815D01*
X189722689Y-108300011D01*
X189716407Y-108283095D01*
X189689245Y-108189606D01*
X189689244Y-108189603D01*
X189689244Y-108189602D01*
X189605581Y-108048135D01*
X189605579Y-108048133D01*
X189605576Y-108048129D01*
X189489370Y-107931923D01*
X189489362Y-107931917D01*
X189347896Y-107848255D01*
X189347893Y-107848254D01*
X189190073Y-107802402D01*
X189190067Y-107802401D01*
X189153201Y-107799500D01*
X189153194Y-107799500D01*
X187846806Y-107799500D01*
X187846798Y-107799500D01*
X187809932Y-107802401D01*
X187809926Y-107802402D01*
X187652106Y-107848254D01*
X187652103Y-107848255D01*
X187510637Y-107931917D01*
X187510629Y-107931923D01*
X187394423Y-108048129D01*
X187394417Y-108048137D01*
X187310755Y-108189603D01*
X187310754Y-108189606D01*
X187264902Y-108347426D01*
X187264901Y-108347432D01*
X187262000Y-108384298D01*
X187262000Y-108625500D01*
X187242315Y-108692539D01*
X187189511Y-108738294D01*
X187138000Y-108749500D01*
X185971798Y-108749500D01*
X185934932Y-108752401D01*
X185934926Y-108752402D01*
X185777106Y-108798254D01*
X185777103Y-108798255D01*
X185635637Y-108881917D01*
X185635629Y-108881923D01*
X185519423Y-108998129D01*
X185519417Y-108998137D01*
X185435755Y-109139603D01*
X185435754Y-109139606D01*
X185388134Y-109303515D01*
X185385983Y-109302890D01*
X185359153Y-109356191D01*
X185298984Y-109391709D01*
X185229165Y-109389058D01*
X185180907Y-109359173D01*
X181842543Y-106020809D01*
X181809058Y-105959486D01*
X181806224Y-105933128D01*
X181806224Y-102692116D01*
X181825909Y-102625077D01*
X181878713Y-102579322D01*
X181891906Y-102574185D01*
X181990226Y-102542239D01*
X181990229Y-102542238D01*
X182040136Y-102516809D01*
X182140575Y-102465633D01*
X182275333Y-102367724D01*
X182341138Y-102344244D01*
X182404514Y-102357558D01*
X182425494Y-102368248D01*
X182585903Y-102420368D01*
X182752486Y-102446753D01*
X182921142Y-102446753D01*
X183087724Y-102420368D01*
X183248131Y-102368249D01*
X183398406Y-102291679D01*
X183532466Y-102194278D01*
X183598272Y-102170797D01*
X183661647Y-102184110D01*
X183683399Y-102195193D01*
X183683401Y-102195194D01*
X183736717Y-102212517D01*
X183843877Y-102247335D01*
X183921063Y-102259560D01*
X184010531Y-102273731D01*
X184010536Y-102273731D01*
X184179277Y-102273731D01*
X184260069Y-102260934D01*
X184345931Y-102247335D01*
X184506409Y-102195193D01*
X184656755Y-102118588D01*
X184793265Y-102019407D01*
X184793275Y-102019396D01*
X184796063Y-102017016D01*
X184859823Y-101988442D01*
X184928909Y-101998875D01*
G37*
%TD.AperFunction*%
%TA.AperFunction,Conductor*%
G36*
X116473945Y-102168592D02*
G01*
X116480500Y-102168087D01*
X116499540Y-102178347D01*
X116527701Y-102189080D01*
X116661765Y-102286484D01*
X116812036Y-102363052D01*
X116972443Y-102415171D01*
X117139026Y-102441556D01*
X117307682Y-102441556D01*
X117474264Y-102415171D01*
X117634664Y-102363054D01*
X117655649Y-102352361D01*
X117724318Y-102339463D01*
X117784833Y-102362526D01*
X117799666Y-102373303D01*
X117919588Y-102460433D01*
X117919590Y-102460434D01*
X117919593Y-102460436D01*
X117929791Y-102465632D01*
X118069938Y-102537041D01*
X118069941Y-102537042D01*
X118150178Y-102563112D01*
X118230417Y-102589183D01*
X118307603Y-102601408D01*
X118397071Y-102615579D01*
X118397076Y-102615579D01*
X118565817Y-102615579D01*
X118646609Y-102602782D01*
X118732471Y-102589183D01*
X118892949Y-102537041D01*
X119043295Y-102460436D01*
X119179805Y-102361255D01*
X119181109Y-102359950D01*
X119181725Y-102359614D01*
X119183509Y-102358091D01*
X119183828Y-102358465D01*
X119242426Y-102326461D01*
X119312118Y-102331438D01*
X119368056Y-102373303D01*
X119389150Y-102417773D01*
X119490918Y-102828083D01*
X119490924Y-102828102D01*
X119633554Y-103247013D01*
X119633558Y-103247022D01*
X119811254Y-103652304D01*
X120022738Y-104041033D01*
X120226502Y-104349819D01*
X120266474Y-104410392D01*
X120520665Y-104732334D01*
X120540708Y-104757719D01*
X120843436Y-105080481D01*
X120843444Y-105080488D01*
X121172507Y-105376381D01*
X121433128Y-105573409D01*
X121509460Y-105631116D01*
X121525515Y-105643253D01*
X121899914Y-105879176D01*
X121989495Y-105925499D01*
X122255140Y-106062867D01*
X122293001Y-106082445D01*
X122439626Y-106143093D01*
X122701924Y-106251587D01*
X122701940Y-106251593D01*
X123123742Y-106385386D01*
X123123740Y-106385386D01*
X123123752Y-106385388D01*
X123123753Y-106385389D01*
X123555414Y-106482874D01*
X123555421Y-106482875D01*
X123555420Y-106482875D01*
X123721175Y-106505749D01*
X123721174Y-106505749D01*
X123726950Y-106506546D01*
X123735088Y-106507669D01*
X123735097Y-106507675D01*
X123809233Y-106517899D01*
X123809242Y-106517903D01*
X123809243Y-106517901D01*
X123869940Y-106526280D01*
X123869989Y-106526279D01*
X124431848Y-106603773D01*
X124590558Y-106625663D01*
X124654279Y-106654323D01*
X124692391Y-106712883D01*
X124692792Y-106782751D01*
X124655355Y-106841745D01*
X124591967Y-106871135D01*
X124573616Y-106872500D01*
X120245596Y-106872500D01*
X120178557Y-106852815D01*
X120157915Y-106836181D01*
X116263819Y-102942085D01*
X116230334Y-102880762D01*
X116227500Y-102854404D01*
X116227500Y-102328587D01*
X116233644Y-102307660D01*
X116235080Y-102285899D01*
X116243294Y-102274797D01*
X116247185Y-102261548D01*
X116263666Y-102247266D01*
X116276640Y-102229734D01*
X116294906Y-102220197D01*
X116299989Y-102215793D01*
X116307522Y-102212648D01*
X116310325Y-102211584D01*
X116376769Y-102189996D01*
X116404528Y-102175852D01*
X116410837Y-102173459D01*
X116439215Y-102171270D01*
X116467188Y-102166017D01*
X116473945Y-102168592D01*
G37*
%TD.AperFunction*%
%TA.AperFunction,Conductor*%
G36*
X145702694Y-98247185D02*
G01*
X145723335Y-98263818D01*
X146652382Y-99192866D01*
X146707495Y-99215694D01*
X146735997Y-99227500D01*
X146735998Y-99227500D01*
X146826503Y-99227500D01*
X155727017Y-99227500D01*
X155794056Y-99247185D01*
X155839811Y-99299989D01*
X155846093Y-99316905D01*
X155873254Y-99410393D01*
X155873255Y-99410396D01*
X155956917Y-99551862D01*
X155956923Y-99551870D01*
X156073129Y-99668076D01*
X156073133Y-99668079D01*
X156073135Y-99668081D01*
X156214602Y-99751744D01*
X156256224Y-99763836D01*
X156372426Y-99797597D01*
X156372429Y-99797597D01*
X156372431Y-99797598D01*
X156409306Y-99800500D01*
X157575500Y-99800500D01*
X157642539Y-99820185D01*
X157688294Y-99872989D01*
X157699500Y-99924500D01*
X157699500Y-100165701D01*
X157702401Y-100202567D01*
X157702402Y-100202573D01*
X157748254Y-100360393D01*
X157748255Y-100360396D01*
X157748256Y-100360398D01*
X157785681Y-100423681D01*
X157831917Y-100501862D01*
X157831923Y-100501870D01*
X157948129Y-100618076D01*
X157948133Y-100618079D01*
X157948135Y-100618081D01*
X158089602Y-100701744D01*
X158131224Y-100713836D01*
X158247426Y-100747597D01*
X158247429Y-100747597D01*
X158247431Y-100747598D01*
X158284306Y-100750500D01*
X159364905Y-100750500D01*
X159431944Y-100770185D01*
X159452586Y-100786819D01*
X159776181Y-101110414D01*
X159809666Y-101171737D01*
X159812500Y-101198095D01*
X159812500Y-103953989D01*
X159792815Y-104021028D01*
X159740011Y-104066783D01*
X159707901Y-104076462D01*
X159684092Y-104080233D01*
X159676924Y-104081369D01*
X159451090Y-104154747D01*
X159444812Y-104156787D01*
X159227357Y-104267586D01*
X159029923Y-104411029D01*
X159029918Y-104411033D01*
X158857343Y-104583608D01*
X158857339Y-104583613D01*
X158713896Y-104781047D01*
X158603097Y-104998502D01*
X158527678Y-105230617D01*
X158489500Y-105471663D01*
X158489500Y-105715716D01*
X158525844Y-105945185D01*
X158527679Y-105956766D01*
X158603096Y-106188875D01*
X158713607Y-106405766D01*
X158713896Y-106406332D01*
X158836886Y-106575615D01*
X158860366Y-106641421D01*
X158844540Y-106709475D01*
X158794434Y-106758170D01*
X158736568Y-106772500D01*
X156263432Y-106772500D01*
X156196393Y-106752815D01*
X156150638Y-106700011D01*
X156140694Y-106630853D01*
X156163114Y-106575615D01*
X156246702Y-106460564D01*
X156286106Y-106406329D01*
X156396904Y-106188875D01*
X156472321Y-105956766D01*
X156510500Y-105715717D01*
X156510500Y-105471663D01*
X156472321Y-105230614D01*
X156396904Y-104998505D01*
X156286106Y-104781051D01*
X156229517Y-104703163D01*
X156142660Y-104583613D01*
X156142656Y-104583608D01*
X155970081Y-104411033D01*
X155970076Y-104411029D01*
X155772642Y-104267586D01*
X155772641Y-104267585D01*
X155772639Y-104267584D01*
X155555185Y-104156786D01*
X155323076Y-104081369D01*
X155323074Y-104081368D01*
X155323072Y-104081368D01*
X155154769Y-104054711D01*
X155082027Y-104043190D01*
X154837973Y-104043190D01*
X154782093Y-104052040D01*
X154596927Y-104081368D01*
X154596924Y-104081369D01*
X154371094Y-104154746D01*
X154364812Y-104156787D01*
X154147357Y-104267586D01*
X153949923Y-104411029D01*
X153949918Y-104411033D01*
X153777343Y-104583608D01*
X153777339Y-104583613D01*
X153633896Y-104781047D01*
X153523097Y-104998502D01*
X153447678Y-105230617D01*
X153409500Y-105471663D01*
X153409500Y-105715716D01*
X153445844Y-105945185D01*
X153447679Y-105956766D01*
X153523096Y-106188875D01*
X153633607Y-106405766D01*
X153633896Y-106406332D01*
X153756886Y-106575615D01*
X153780366Y-106641421D01*
X153764540Y-106709475D01*
X153714434Y-106758170D01*
X153656568Y-106772500D01*
X146343432Y-106772500D01*
X146276393Y-106752815D01*
X146230638Y-106700011D01*
X146220694Y-106630853D01*
X146243114Y-106575615D01*
X146326702Y-106460564D01*
X146366106Y-106406329D01*
X146476904Y-106188875D01*
X146552321Y-105956766D01*
X146590500Y-105715717D01*
X146590500Y-105471663D01*
X146552321Y-105230614D01*
X146476904Y-104998505D01*
X146366106Y-104781051D01*
X146309517Y-104703163D01*
X146222660Y-104583613D01*
X146222656Y-104583608D01*
X146050081Y-104411033D01*
X146050076Y-104411029D01*
X145852642Y-104267586D01*
X145852641Y-104267585D01*
X145852639Y-104267584D01*
X145635185Y-104156786D01*
X145403076Y-104081369D01*
X145391433Y-104079524D01*
X145372099Y-104076462D01*
X145308965Y-104046530D01*
X145272035Y-103987218D01*
X145267500Y-103953989D01*
X145267500Y-101594748D01*
X145267500Y-101594747D01*
X145232865Y-101511132D01*
X145168868Y-101447135D01*
X143846267Y-100124534D01*
X142478870Y-98757136D01*
X142468438Y-98752815D01*
X142395253Y-98722500D01*
X136272983Y-98722500D01*
X136205944Y-98702815D01*
X136160189Y-98650011D01*
X136153907Y-98633095D01*
X136126745Y-98539606D01*
X136126744Y-98539603D01*
X136126744Y-98539602D01*
X136052831Y-98414621D01*
X136035648Y-98346897D01*
X136057808Y-98280634D01*
X136112274Y-98236871D01*
X136159563Y-98227500D01*
X145635655Y-98227500D01*
X145702694Y-98247185D01*
G37*
%TD.AperFunction*%
%TA.AperFunction,Conductor*%
G36*
X160331244Y-100164210D02*
G01*
X160367737Y-100189470D01*
X160986181Y-100807914D01*
X161019666Y-100869237D01*
X161022500Y-100895595D01*
X161022500Y-103545253D01*
X161057136Y-103628870D01*
X163255135Y-105826868D01*
X163319132Y-105890865D01*
X163402747Y-105925500D01*
X163550805Y-105925500D01*
X163617844Y-105945185D01*
X163663599Y-105997989D01*
X163673543Y-106067147D01*
X163644518Y-106130703D01*
X163638486Y-106137181D01*
X163039486Y-106736181D01*
X162978163Y-106769666D01*
X162951805Y-106772500D01*
X161343432Y-106772500D01*
X161276393Y-106752815D01*
X161230638Y-106700011D01*
X161220694Y-106630853D01*
X161243114Y-106575615D01*
X161326702Y-106460564D01*
X161366106Y-106406329D01*
X161476904Y-106188875D01*
X161552321Y-105956766D01*
X161590500Y-105715717D01*
X161590500Y-105471663D01*
X161552321Y-105230614D01*
X161476904Y-104998505D01*
X161366106Y-104781051D01*
X161309517Y-104703163D01*
X161222660Y-104583613D01*
X161222656Y-104583608D01*
X161050081Y-104411033D01*
X161050076Y-104411029D01*
X160852642Y-104267586D01*
X160852641Y-104267585D01*
X160852639Y-104267584D01*
X160635185Y-104156786D01*
X160403076Y-104081369D01*
X160391433Y-104079524D01*
X160372099Y-104076462D01*
X160308965Y-104046530D01*
X160272035Y-103987218D01*
X160267500Y-103953989D01*
X160267500Y-101007248D01*
X160267500Y-101007247D01*
X160232865Y-100923632D01*
X160168868Y-100859635D01*
X160014770Y-100705537D01*
X159981285Y-100644214D01*
X159986269Y-100574522D01*
X160014767Y-100530177D01*
X160043081Y-100501865D01*
X160126744Y-100360398D01*
X160160981Y-100242553D01*
X160198585Y-100183671D01*
X160262058Y-100154464D01*
X160331244Y-100164210D01*
G37*
%TD.AperFunction*%
%TA.AperFunction,Conductor*%
G36*
X147349974Y-95322048D02*
G01*
X147395729Y-95374852D01*
X147405673Y-95444010D01*
X147376648Y-95507566D01*
X147317870Y-95545340D01*
X147302334Y-95548835D01*
X147271851Y-95553663D01*
X147096927Y-95581369D01*
X146864812Y-95656788D01*
X146647357Y-95767587D01*
X146449923Y-95911030D01*
X146449918Y-95911034D01*
X146277343Y-96083609D01*
X146277339Y-96083614D01*
X146133896Y-96281048D01*
X146023097Y-96498501D01*
X145946173Y-96735249D01*
X145944308Y-96734643D01*
X145913644Y-96788043D01*
X145851616Y-96820204D01*
X145827865Y-96822500D01*
X136272983Y-96822500D01*
X136205944Y-96802815D01*
X136160189Y-96750011D01*
X136153907Y-96733095D01*
X136126745Y-96639606D01*
X136126744Y-96639603D01*
X136126744Y-96639602D01*
X136043081Y-96498135D01*
X136043079Y-96498133D01*
X136043076Y-96498129D01*
X135926870Y-96381923D01*
X135926862Y-96381917D01*
X135785396Y-96298255D01*
X135785393Y-96298254D01*
X135627573Y-96252402D01*
X135627567Y-96252401D01*
X135590701Y-96249500D01*
X135590694Y-96249500D01*
X134284306Y-96249500D01*
X134284298Y-96249500D01*
X134247432Y-96252401D01*
X134247426Y-96252402D01*
X134089606Y-96298254D01*
X134089603Y-96298255D01*
X133948137Y-96381917D01*
X133948129Y-96381923D01*
X133831923Y-96498129D01*
X133831917Y-96498137D01*
X133748255Y-96639603D01*
X133748254Y-96639606D01*
X133702402Y-96797426D01*
X133702401Y-96797432D01*
X133699500Y-96834298D01*
X133699500Y-97075500D01*
X133679815Y-97142539D01*
X133627011Y-97188294D01*
X133575500Y-97199500D01*
X132409298Y-97199500D01*
X132372432Y-97202401D01*
X132372426Y-97202402D01*
X132214606Y-97248254D01*
X132214603Y-97248255D01*
X132073137Y-97331917D01*
X132073129Y-97331923D01*
X131956923Y-97448129D01*
X131956917Y-97448137D01*
X131873255Y-97589603D01*
X131873254Y-97589606D01*
X131827402Y-97747426D01*
X131827401Y-97747432D01*
X131824501Y-97784290D01*
X131824500Y-97784313D01*
X131824500Y-98215701D01*
X131827401Y-98252567D01*
X131827402Y-98252573D01*
X131873254Y-98410393D01*
X131873255Y-98410396D01*
X131873256Y-98410398D01*
X131878813Y-98419794D01*
X131956917Y-98551862D01*
X131956923Y-98551870D01*
X132073129Y-98668076D01*
X132073133Y-98668079D01*
X132073135Y-98668081D01*
X132214602Y-98751744D01*
X132256224Y-98763836D01*
X132372426Y-98797597D01*
X132372429Y-98797597D01*
X132372431Y-98797598D01*
X132409306Y-98800500D01*
X133575500Y-98800500D01*
X133642539Y-98820185D01*
X133688294Y-98872989D01*
X133699500Y-98924500D01*
X133699500Y-99165701D01*
X133702401Y-99202567D01*
X133702402Y-99202573D01*
X133748254Y-99360393D01*
X133748255Y-99360396D01*
X133831917Y-99501862D01*
X133831923Y-99501870D01*
X133948129Y-99618076D01*
X133948133Y-99618079D01*
X133948135Y-99618081D01*
X134089602Y-99701744D01*
X134131224Y-99713836D01*
X134247426Y-99747597D01*
X134247429Y-99747597D01*
X134247431Y-99747598D01*
X134284306Y-99750500D01*
X134284314Y-99750500D01*
X135590686Y-99750500D01*
X135590694Y-99750500D01*
X135627569Y-99747598D01*
X135627571Y-99747597D01*
X135627573Y-99747597D01*
X135669191Y-99735505D01*
X135785398Y-99701744D01*
X135926865Y-99618081D01*
X136043081Y-99501865D01*
X136126744Y-99360398D01*
X136144295Y-99299989D01*
X136153907Y-99266905D01*
X136191513Y-99208019D01*
X136254986Y-99178813D01*
X136272983Y-99177500D01*
X142204405Y-99177500D01*
X142271444Y-99197185D01*
X142292086Y-99213819D01*
X144776181Y-101697914D01*
X144809666Y-101759237D01*
X144812500Y-101785595D01*
X144812500Y-103953989D01*
X144792815Y-104021028D01*
X144740011Y-104066783D01*
X144707901Y-104076462D01*
X144684092Y-104080233D01*
X144676924Y-104081369D01*
X144451090Y-104154747D01*
X144444812Y-104156787D01*
X144227357Y-104267586D01*
X144029923Y-104411029D01*
X144029918Y-104411033D01*
X143939181Y-104501771D01*
X143877858Y-104535256D01*
X143808166Y-104530272D01*
X143752233Y-104488400D01*
X143727816Y-104422936D01*
X143727500Y-104414090D01*
X143727500Y-104154748D01*
X143727500Y-104154747D01*
X143692865Y-104071132D01*
X143628868Y-104007135D01*
X142587240Y-102965507D01*
X141524870Y-101903136D01*
X141524865Y-101903134D01*
X141441253Y-101868500D01*
X132758747Y-101868500D01*
X132749839Y-101872190D01*
X132675132Y-101903134D01*
X132675131Y-101903134D01*
X132675129Y-101903136D01*
X129752890Y-104825376D01*
X129691567Y-104858861D01*
X129621875Y-104853877D01*
X129565942Y-104812005D01*
X129541525Y-104746541D01*
X129556377Y-104678268D01*
X129569550Y-104658794D01*
X129591610Y-104632053D01*
X129842678Y-104268905D01*
X130062069Y-103885788D01*
X130248206Y-103485458D01*
X130399750Y-103070794D01*
X130515610Y-102644780D01*
X130551645Y-102447499D01*
X130555275Y-102427629D01*
X130562442Y-102388397D01*
X130562438Y-102388383D01*
X130563702Y-102381462D01*
X130665665Y-101823356D01*
X130861517Y-100610520D01*
X130880297Y-100476776D01*
X131032349Y-99393903D01*
X131178083Y-98174047D01*
X131298663Y-96951441D01*
X131307784Y-96834306D01*
X131394038Y-95726580D01*
X131411606Y-95419283D01*
X131435085Y-95353479D01*
X131490414Y-95310812D01*
X131535404Y-95302363D01*
X147282935Y-95302363D01*
X147349974Y-95322048D01*
G37*
%TD.AperFunction*%
%TD*%
M02*
