%TF.GenerationSoftware,KiCad,Pcbnew,9.0.7*%
%TF.CreationDate,2026-01-18T17:52:59+01:00*%
%TF.ProjectId,pcb_phone_controller,7063625f-7068-46f6-9e65-5f636f6e7472,rev?*%
%TF.SameCoordinates,Original*%
%TF.FileFunction,Plated,1,2,PTH,Drill*%
%TF.FilePolarity,Positive*%
%FSLAX46Y46*%
G04 Gerber Fmt 4.6, Leading zero omitted, Abs format (unit mm)*
G04 Created by KiCad (PCBNEW 9.0.7) date 2026-01-18 17:52:59*
%MOMM*%
%LPD*%
G01*
G04 APERTURE LIST*
%TA.AperFunction,ViaDrill*%
%ADD10C,0.300000*%
%TD*%
%TA.AperFunction,ComponentDrill*%
%ADD11C,0.600000*%
%TD*%
%TA.AperFunction,ComponentDrill*%
%ADD12C,0.762000*%
%TD*%
%TA.AperFunction,ComponentDrill*%
%ADD13C,1.000000*%
%TD*%
%TA.AperFunction,ComponentDrill*%
%ADD14C,1.100000*%
%TD*%
%TA.AperFunction,ComponentDrill*%
%ADD15C,2.700000*%
%TD*%
G04 APERTURE END LIST*
D10*
X115000000Y-128000000D03*
X119400000Y-109300000D03*
X122475000Y-130875000D03*
X123000000Y-111500000D03*
X123659921Y-112518529D03*
X125500000Y-113750000D03*
X126400000Y-120500000D03*
X126750000Y-111250000D03*
X126845000Y-115893069D03*
X128000000Y-119250000D03*
X128327000Y-111250000D03*
X130862500Y-114650000D03*
X130862500Y-116550000D03*
X132850000Y-111225000D03*
X135750000Y-101000000D03*
X136912500Y-107162500D03*
X138000000Y-103921000D03*
X143900000Y-103100000D03*
X148500000Y-106000000D03*
X150250000Y-98000000D03*
X151900000Y-104300000D03*
X157500000Y-105750000D03*
X162500000Y-106000000D03*
X166000000Y-111000000D03*
X166198249Y-109235749D03*
X168000000Y-122250000D03*
X169550000Y-120500000D03*
X170000000Y-111750000D03*
X170423000Y-110825000D03*
X171500000Y-119500000D03*
X172000000Y-117500000D03*
X173500000Y-113750000D03*
X173812500Y-118300000D03*
X177436070Y-120000000D03*
X180000000Y-120000000D03*
X180000000Y-122500000D03*
X181000000Y-103750000D03*
X181750000Y-106500000D03*
X183150000Y-122018000D03*
X184753873Y-122595000D03*
X185800000Y-106600000D03*
X188047500Y-119767000D03*
X189400000Y-122000000D03*
X190328862Y-110549000D03*
X190425000Y-113900000D03*
X192790189Y-122267000D03*
X192800000Y-118200000D03*
X193700000Y-128700000D03*
X194100000Y-123500000D03*
X195041999Y-126858001D03*
X195245924Y-129061928D03*
X197564124Y-122628814D03*
X199275000Y-110075000D03*
X199300000Y-131800000D03*
X199750000Y-118250000D03*
X199800000Y-133800000D03*
X200723000Y-131200000D03*
X201247728Y-125427587D03*
X201300000Y-131900000D03*
X201338500Y-126323000D03*
X201600000Y-121000000D03*
X202610000Y-130041871D03*
X202610000Y-131311871D03*
X202610000Y-132581871D03*
X202610000Y-135121871D03*
X202610000Y-136391871D03*
X203200000Y-124800000D03*
X203208001Y-118391999D03*
X203800000Y-122000000D03*
X204105327Y-118461330D03*
X205950000Y-115650000D03*
X207000000Y-118750000D03*
X207500000Y-124600000D03*
X214000000Y-112000000D03*
X217514064Y-134785936D03*
X218700000Y-128600000D03*
X220390000Y-137661871D03*
D11*
%TO.C,TriggerL1*%
X116403286Y-101358475D03*
X116804672Y-103937504D03*
X117889218Y-101563423D03*
%TO.C,TriggerR1*%
X182110783Y-101563423D03*
X183195329Y-103937504D03*
X183596715Y-101358475D03*
D12*
%TO.C,SW17*%
X219750000Y-108000000D03*
X219750000Y-110500000D03*
X219750000Y-113000000D03*
D13*
%TO.C,StickL1*%
X120500000Y-112960000D03*
X120500000Y-115500000D03*
X120500000Y-118040000D03*
X120500000Y-120580000D03*
%TO.C,+-1*%
X167750000Y-114500000D03*
X167750000Y-117300000D03*
%TO.C,StickR1*%
X197000000Y-133190000D03*
X197000000Y-135730000D03*
X197000000Y-138270000D03*
X197000000Y-140810000D03*
%TO.C,U1*%
X203880000Y-140201871D03*
X203880000Y-142741871D03*
X203880000Y-145281871D03*
D14*
%TO.C,LEFT1*%
X111965876Y-134101938D03*
X111965876Y-139181938D03*
%TO.C,UP1*%
X117425876Y-128641938D03*
%TO.C,DOWN1*%
X117425876Y-144641938D03*
%TO.C,UP1*%
X122505876Y-128641938D03*
%TO.C,DOWN1*%
X122505876Y-144641938D03*
%TO.C,RIGHT1*%
X125425876Y-136641938D03*
X130505876Y-136641938D03*
%TO.C,Select1*%
X139960000Y-105593690D03*
X145040000Y-105593690D03*
%TO.C,Home1*%
X147460000Y-97093691D03*
X152540000Y-97093691D03*
%TO.C,Start1*%
X154960000Y-105593690D03*
X160040000Y-105593690D03*
%TO.C,X1*%
X186008842Y-116641938D03*
X191088842Y-116641938D03*
%TO.C,B1*%
X194494124Y-125127219D03*
%TO.C,Y1*%
X194517950Y-108503745D03*
X199550298Y-107809567D03*
%TO.C,B1*%
X199574124Y-125127219D03*
%TO.C,A1*%
X202979405Y-116641938D03*
X208059405Y-116641938D03*
D15*
%TO.C,H5*%
X113100000Y-143700000D03*
%TO.C,H4*%
X127500000Y-127250000D03*
%TO.C,H1*%
X164750000Y-98250000D03*
%TO.C,H2*%
X182400000Y-112000000D03*
%TO.C,H3*%
X206750000Y-105500000D03*
M02*
