%TF.GenerationSoftware,KiCad,Pcbnew,9.0.6*%
%TF.CreationDate,2026-01-02T17:59:06+01:00*%
%TF.ProjectId,pcb_phone_controller,7063625f-7068-46f6-9e65-5f636f6e7472,rev?*%
%TF.SameCoordinates,Original*%
%TF.FileFunction,Legend,Bot*%
%TF.FilePolarity,Positive*%
%FSLAX46Y46*%
G04 Gerber Fmt 4.6, Leading zero omitted, Abs format (unit mm)*
G04 Created by KiCad (PCBNEW 9.0.6) date 2026-01-02 17:59:06*
%MOMM*%
%LPD*%
G01*
G04 APERTURE LIST*
%ADD10C,0.200000*%
%ADD11C,0.150000*%
%ADD12C,0.000000*%
G04 APERTURE END LIST*
D10*
X208225000Y-131050000D02*
X214750000Y-131050000D01*
X214750000Y-147575000D01*
X208225000Y-147575000D01*
X208225000Y-131050000D01*
D11*
X205740827Y-122906074D02*
X205693208Y-122858455D01*
X205693208Y-122858455D02*
X205550351Y-122763217D01*
X205550351Y-122763217D02*
X205455113Y-122715598D01*
X205455113Y-122715598D02*
X205312256Y-122667979D01*
X205312256Y-122667979D02*
X205074160Y-122620360D01*
X205074160Y-122620360D02*
X204883684Y-122620360D01*
X204883684Y-122620360D02*
X204645589Y-122667979D01*
X204645589Y-122667979D02*
X204502732Y-122715598D01*
X204502732Y-122715598D02*
X204407494Y-122763217D01*
X204407494Y-122763217D02*
X204264636Y-122858455D01*
X204264636Y-122858455D02*
X204217017Y-122906074D01*
X205264636Y-123858455D02*
X205312256Y-123810836D01*
X205312256Y-123810836D02*
X205359875Y-123667979D01*
X205359875Y-123667979D02*
X205359875Y-123572741D01*
X205359875Y-123572741D02*
X205312256Y-123429884D01*
X205312256Y-123429884D02*
X205217017Y-123334646D01*
X205217017Y-123334646D02*
X205121779Y-123287027D01*
X205121779Y-123287027D02*
X204931303Y-123239408D01*
X204931303Y-123239408D02*
X204788446Y-123239408D01*
X204788446Y-123239408D02*
X204597970Y-123287027D01*
X204597970Y-123287027D02*
X204502732Y-123334646D01*
X204502732Y-123334646D02*
X204407494Y-123429884D01*
X204407494Y-123429884D02*
X204359875Y-123572741D01*
X204359875Y-123572741D02*
X204359875Y-123667979D01*
X204359875Y-123667979D02*
X204407494Y-123810836D01*
X204407494Y-123810836D02*
X204455113Y-123858455D01*
X205740827Y-124191789D02*
X205693208Y-124239408D01*
X205693208Y-124239408D02*
X205550351Y-124334646D01*
X205550351Y-124334646D02*
X205455113Y-124382265D01*
X205455113Y-124382265D02*
X205312256Y-124429884D01*
X205312256Y-124429884D02*
X205074160Y-124477503D01*
X205074160Y-124477503D02*
X204883684Y-124477503D01*
X204883684Y-124477503D02*
X204645589Y-124429884D01*
X204645589Y-124429884D02*
X204502732Y-124382265D01*
X204502732Y-124382265D02*
X204407494Y-124334646D01*
X204407494Y-124334646D02*
X204264636Y-124239408D01*
X204264636Y-124239408D02*
X204217017Y-124191789D01*
X204455113Y-125667980D02*
X204407494Y-125715599D01*
X204407494Y-125715599D02*
X204359875Y-125810837D01*
X204359875Y-125810837D02*
X204359875Y-126048932D01*
X204359875Y-126048932D02*
X204407494Y-126144170D01*
X204407494Y-126144170D02*
X204455113Y-126191789D01*
X204455113Y-126191789D02*
X204550351Y-126239408D01*
X204550351Y-126239408D02*
X204645589Y-126239408D01*
X204645589Y-126239408D02*
X204788446Y-126191789D01*
X204788446Y-126191789D02*
X205359875Y-125620361D01*
X205359875Y-125620361D02*
X205359875Y-126239408D01*
X204359875Y-126858456D02*
X204359875Y-126953694D01*
X204359875Y-126953694D02*
X204407494Y-127048932D01*
X204407494Y-127048932D02*
X204455113Y-127096551D01*
X204455113Y-127096551D02*
X204550351Y-127144170D01*
X204550351Y-127144170D02*
X204740827Y-127191789D01*
X204740827Y-127191789D02*
X204978922Y-127191789D01*
X204978922Y-127191789D02*
X205169398Y-127144170D01*
X205169398Y-127144170D02*
X205264636Y-127096551D01*
X205264636Y-127096551D02*
X205312256Y-127048932D01*
X205312256Y-127048932D02*
X205359875Y-126953694D01*
X205359875Y-126953694D02*
X205359875Y-126858456D01*
X205359875Y-126858456D02*
X205312256Y-126763218D01*
X205312256Y-126763218D02*
X205264636Y-126715599D01*
X205264636Y-126715599D02*
X205169398Y-126667980D01*
X205169398Y-126667980D02*
X204978922Y-126620361D01*
X204978922Y-126620361D02*
X204740827Y-126620361D01*
X204740827Y-126620361D02*
X204550351Y-126667980D01*
X204550351Y-126667980D02*
X204455113Y-126715599D01*
X204455113Y-126715599D02*
X204407494Y-126763218D01*
X204407494Y-126763218D02*
X204359875Y-126858456D01*
X204455113Y-127572742D02*
X204407494Y-127620361D01*
X204407494Y-127620361D02*
X204359875Y-127715599D01*
X204359875Y-127715599D02*
X204359875Y-127953694D01*
X204359875Y-127953694D02*
X204407494Y-128048932D01*
X204407494Y-128048932D02*
X204455113Y-128096551D01*
X204455113Y-128096551D02*
X204550351Y-128144170D01*
X204550351Y-128144170D02*
X204645589Y-128144170D01*
X204645589Y-128144170D02*
X204788446Y-128096551D01*
X204788446Y-128096551D02*
X205359875Y-127525123D01*
X205359875Y-127525123D02*
X205359875Y-128144170D01*
X204359875Y-129001313D02*
X204359875Y-128810837D01*
X204359875Y-128810837D02*
X204407494Y-128715599D01*
X204407494Y-128715599D02*
X204455113Y-128667980D01*
X204455113Y-128667980D02*
X204597970Y-128572742D01*
X204597970Y-128572742D02*
X204788446Y-128525123D01*
X204788446Y-128525123D02*
X205169398Y-128525123D01*
X205169398Y-128525123D02*
X205264636Y-128572742D01*
X205264636Y-128572742D02*
X205312256Y-128620361D01*
X205312256Y-128620361D02*
X205359875Y-128715599D01*
X205359875Y-128715599D02*
X205359875Y-128906075D01*
X205359875Y-128906075D02*
X205312256Y-129001313D01*
X205312256Y-129001313D02*
X205264636Y-129048932D01*
X205264636Y-129048932D02*
X205169398Y-129096551D01*
X205169398Y-129096551D02*
X204931303Y-129096551D01*
X204931303Y-129096551D02*
X204836065Y-129048932D01*
X204836065Y-129048932D02*
X204788446Y-129001313D01*
X204788446Y-129001313D02*
X204740827Y-128906075D01*
X204740827Y-128906075D02*
X204740827Y-128715599D01*
X204740827Y-128715599D02*
X204788446Y-128620361D01*
X204788446Y-128620361D02*
X204836065Y-128572742D01*
X204836065Y-128572742D02*
X204931303Y-128525123D01*
X205359875Y-130763218D02*
X205359875Y-130287028D01*
X205359875Y-130287028D02*
X204359875Y-130287028D01*
X205074160Y-131048933D02*
X205074160Y-131525123D01*
X205359875Y-130953695D02*
X204359875Y-131287028D01*
X204359875Y-131287028D02*
X205359875Y-131620361D01*
X205359875Y-131953695D02*
X204359875Y-131953695D01*
X204359875Y-131953695D02*
X204359875Y-132334647D01*
X204359875Y-132334647D02*
X204407494Y-132429885D01*
X204407494Y-132429885D02*
X204455113Y-132477504D01*
X204455113Y-132477504D02*
X204550351Y-132525123D01*
X204550351Y-132525123D02*
X204693208Y-132525123D01*
X204693208Y-132525123D02*
X204788446Y-132477504D01*
X204788446Y-132477504D02*
X204836065Y-132429885D01*
X204836065Y-132429885D02*
X204883684Y-132334647D01*
X204883684Y-132334647D02*
X204883684Y-131953695D01*
X205264636Y-133525123D02*
X205312256Y-133477504D01*
X205312256Y-133477504D02*
X205359875Y-133334647D01*
X205359875Y-133334647D02*
X205359875Y-133239409D01*
X205359875Y-133239409D02*
X205312256Y-133096552D01*
X205312256Y-133096552D02*
X205217017Y-133001314D01*
X205217017Y-133001314D02*
X205121779Y-132953695D01*
X205121779Y-132953695D02*
X204931303Y-132906076D01*
X204931303Y-132906076D02*
X204788446Y-132906076D01*
X204788446Y-132906076D02*
X204597970Y-132953695D01*
X204597970Y-132953695D02*
X204502732Y-133001314D01*
X204502732Y-133001314D02*
X204407494Y-133096552D01*
X204407494Y-133096552D02*
X204359875Y-133239409D01*
X204359875Y-133239409D02*
X204359875Y-133334647D01*
X204359875Y-133334647D02*
X204407494Y-133477504D01*
X204407494Y-133477504D02*
X204455113Y-133525123D01*
X205359875Y-134096552D02*
X205312256Y-134001314D01*
X205312256Y-134001314D02*
X205264636Y-133953695D01*
X205264636Y-133953695D02*
X205169398Y-133906076D01*
X205169398Y-133906076D02*
X204883684Y-133906076D01*
X204883684Y-133906076D02*
X204788446Y-133953695D01*
X204788446Y-133953695D02*
X204740827Y-134001314D01*
X204740827Y-134001314D02*
X204693208Y-134096552D01*
X204693208Y-134096552D02*
X204693208Y-134239409D01*
X204693208Y-134239409D02*
X204740827Y-134334647D01*
X204740827Y-134334647D02*
X204788446Y-134382266D01*
X204788446Y-134382266D02*
X204883684Y-134429885D01*
X204883684Y-134429885D02*
X205169398Y-134429885D01*
X205169398Y-134429885D02*
X205264636Y-134382266D01*
X205264636Y-134382266D02*
X205312256Y-134334647D01*
X205312256Y-134334647D02*
X205359875Y-134239409D01*
X205359875Y-134239409D02*
X205359875Y-134096552D01*
X205359875Y-135287028D02*
X204359875Y-135287028D01*
X205312256Y-135287028D02*
X205359875Y-135191790D01*
X205359875Y-135191790D02*
X205359875Y-135001314D01*
X205359875Y-135001314D02*
X205312256Y-134906076D01*
X205312256Y-134906076D02*
X205264636Y-134858457D01*
X205264636Y-134858457D02*
X205169398Y-134810838D01*
X205169398Y-134810838D02*
X204883684Y-134810838D01*
X204883684Y-134810838D02*
X204788446Y-134858457D01*
X204788446Y-134858457D02*
X204740827Y-134906076D01*
X204740827Y-134906076D02*
X204693208Y-135001314D01*
X204693208Y-135001314D02*
X204693208Y-135191790D01*
X204693208Y-135191790D02*
X204740827Y-135287028D01*
X205312256Y-136144171D02*
X205359875Y-136048933D01*
X205359875Y-136048933D02*
X205359875Y-135858457D01*
X205359875Y-135858457D02*
X205312256Y-135763219D01*
X205312256Y-135763219D02*
X205217017Y-135715600D01*
X205217017Y-135715600D02*
X204836065Y-135715600D01*
X204836065Y-135715600D02*
X204740827Y-135763219D01*
X204740827Y-135763219D02*
X204693208Y-135858457D01*
X204693208Y-135858457D02*
X204693208Y-136048933D01*
X204693208Y-136048933D02*
X204740827Y-136144171D01*
X204740827Y-136144171D02*
X204836065Y-136191790D01*
X204836065Y-136191790D02*
X204931303Y-136191790D01*
X204931303Y-136191790D02*
X205026541Y-135715600D01*
X205359875Y-136620362D02*
X204693208Y-136620362D01*
X204883684Y-136620362D02*
X204788446Y-136667981D01*
X204788446Y-136667981D02*
X204740827Y-136715600D01*
X204740827Y-136715600D02*
X204693208Y-136810838D01*
X204693208Y-136810838D02*
X204693208Y-136906076D01*
X205359875Y-138810839D02*
X205359875Y-138763220D01*
X205359875Y-138763220D02*
X205312256Y-138667981D01*
X205312256Y-138667981D02*
X205169398Y-138525124D01*
X205169398Y-138525124D02*
X204883684Y-138287029D01*
X204883684Y-138287029D02*
X204740827Y-138191791D01*
X204740827Y-138191791D02*
X204597970Y-138144172D01*
X204597970Y-138144172D02*
X204502732Y-138144172D01*
X204502732Y-138144172D02*
X204407494Y-138191791D01*
X204407494Y-138191791D02*
X204359875Y-138287029D01*
X204359875Y-138287029D02*
X204359875Y-138334648D01*
X204359875Y-138334648D02*
X204407494Y-138429886D01*
X204407494Y-138429886D02*
X204502732Y-138477505D01*
X204502732Y-138477505D02*
X204550351Y-138477505D01*
X204550351Y-138477505D02*
X204645589Y-138429886D01*
X204645589Y-138429886D02*
X204693208Y-138382267D01*
X204693208Y-138382267D02*
X204883684Y-138096553D01*
X204883684Y-138096553D02*
X204931303Y-138048934D01*
X204931303Y-138048934D02*
X205026541Y-138001315D01*
X205026541Y-138001315D02*
X205169398Y-138001315D01*
X205169398Y-138001315D02*
X205264636Y-138048934D01*
X205264636Y-138048934D02*
X205312256Y-138096553D01*
X205312256Y-138096553D02*
X205359875Y-138191791D01*
X205359875Y-138191791D02*
X205359875Y-138334648D01*
X205359875Y-138334648D02*
X205312256Y-138429886D01*
X205312256Y-138429886D02*
X205264636Y-138477505D01*
X205264636Y-138477505D02*
X205074160Y-138620362D01*
X205074160Y-138620362D02*
X204931303Y-138667981D01*
X204931303Y-138667981D02*
X204836065Y-138667981D01*
X205359875Y-140572743D02*
X204883684Y-140239410D01*
X205359875Y-140001315D02*
X204359875Y-140001315D01*
X204359875Y-140001315D02*
X204359875Y-140382267D01*
X204359875Y-140382267D02*
X204407494Y-140477505D01*
X204407494Y-140477505D02*
X204455113Y-140525124D01*
X204455113Y-140525124D02*
X204550351Y-140572743D01*
X204550351Y-140572743D02*
X204693208Y-140572743D01*
X204693208Y-140572743D02*
X204788446Y-140525124D01*
X204788446Y-140525124D02*
X204836065Y-140477505D01*
X204836065Y-140477505D02*
X204883684Y-140382267D01*
X204883684Y-140382267D02*
X204883684Y-140001315D01*
X205359875Y-141001315D02*
X204693208Y-141001315D01*
X204359875Y-141001315D02*
X204407494Y-140953696D01*
X204407494Y-140953696D02*
X204455113Y-141001315D01*
X204455113Y-141001315D02*
X204407494Y-141048934D01*
X204407494Y-141048934D02*
X204359875Y-141001315D01*
X204359875Y-141001315D02*
X204455113Y-141001315D01*
X204693208Y-141334648D02*
X204693208Y-141715600D01*
X204359875Y-141477505D02*
X205217017Y-141477505D01*
X205217017Y-141477505D02*
X205312256Y-141525124D01*
X205312256Y-141525124D02*
X205359875Y-141620362D01*
X205359875Y-141620362D02*
X205359875Y-141715600D01*
X205359875Y-142048934D02*
X204693208Y-142048934D01*
X204883684Y-142048934D02*
X204788446Y-142096553D01*
X204788446Y-142096553D02*
X204740827Y-142144172D01*
X204740827Y-142144172D02*
X204693208Y-142239410D01*
X204693208Y-142239410D02*
X204693208Y-142334648D01*
X205359875Y-142810839D02*
X205312256Y-142715601D01*
X205312256Y-142715601D02*
X205264636Y-142667982D01*
X205264636Y-142667982D02*
X205169398Y-142620363D01*
X205169398Y-142620363D02*
X204883684Y-142620363D01*
X204883684Y-142620363D02*
X204788446Y-142667982D01*
X204788446Y-142667982D02*
X204740827Y-142715601D01*
X204740827Y-142715601D02*
X204693208Y-142810839D01*
X204693208Y-142810839D02*
X204693208Y-142953696D01*
X204693208Y-142953696D02*
X204740827Y-143048934D01*
X204740827Y-143048934D02*
X204788446Y-143096553D01*
X204788446Y-143096553D02*
X204883684Y-143144172D01*
X204883684Y-143144172D02*
X205169398Y-143144172D01*
X205169398Y-143144172D02*
X205264636Y-143096553D01*
X205264636Y-143096553D02*
X205312256Y-143048934D01*
X205312256Y-143048934D02*
X205359875Y-142953696D01*
X205359875Y-142953696D02*
X205359875Y-142810839D01*
X205359875Y-143477506D02*
X204693208Y-144001315D01*
X204693208Y-143477506D02*
X205359875Y-144001315D01*
X204359875Y-144572744D02*
X204359875Y-144667982D01*
X204359875Y-144667982D02*
X204407494Y-144763220D01*
X204407494Y-144763220D02*
X204455113Y-144810839D01*
X204455113Y-144810839D02*
X204550351Y-144858458D01*
X204550351Y-144858458D02*
X204740827Y-144906077D01*
X204740827Y-144906077D02*
X204978922Y-144906077D01*
X204978922Y-144906077D02*
X205169398Y-144858458D01*
X205169398Y-144858458D02*
X205264636Y-144810839D01*
X205264636Y-144810839D02*
X205312256Y-144763220D01*
X205312256Y-144763220D02*
X205359875Y-144667982D01*
X205359875Y-144667982D02*
X205359875Y-144572744D01*
X205359875Y-144572744D02*
X205312256Y-144477506D01*
X205312256Y-144477506D02*
X205264636Y-144429887D01*
X205264636Y-144429887D02*
X205169398Y-144382268D01*
X205169398Y-144382268D02*
X204978922Y-144334649D01*
X204978922Y-144334649D02*
X204740827Y-144334649D01*
X204740827Y-144334649D02*
X204550351Y-144382268D01*
X204550351Y-144382268D02*
X204455113Y-144429887D01*
X204455113Y-144429887D02*
X204407494Y-144477506D01*
X204407494Y-144477506D02*
X204359875Y-144572744D01*
X204359875Y-145525125D02*
X204359875Y-145620363D01*
X204359875Y-145620363D02*
X204407494Y-145715601D01*
X204407494Y-145715601D02*
X204455113Y-145763220D01*
X204455113Y-145763220D02*
X204550351Y-145810839D01*
X204550351Y-145810839D02*
X204740827Y-145858458D01*
X204740827Y-145858458D02*
X204978922Y-145858458D01*
X204978922Y-145858458D02*
X205169398Y-145810839D01*
X205169398Y-145810839D02*
X205264636Y-145763220D01*
X205264636Y-145763220D02*
X205312256Y-145715601D01*
X205312256Y-145715601D02*
X205359875Y-145620363D01*
X205359875Y-145620363D02*
X205359875Y-145525125D01*
X205359875Y-145525125D02*
X205312256Y-145429887D01*
X205312256Y-145429887D02*
X205264636Y-145382268D01*
X205264636Y-145382268D02*
X205169398Y-145334649D01*
X205169398Y-145334649D02*
X204978922Y-145287030D01*
X204978922Y-145287030D02*
X204740827Y-145287030D01*
X204740827Y-145287030D02*
X204550351Y-145334649D01*
X204550351Y-145334649D02*
X204455113Y-145382268D01*
X204455113Y-145382268D02*
X204407494Y-145429887D01*
X204407494Y-145429887D02*
X204359875Y-145525125D01*
X204788446Y-146429887D02*
X204740827Y-146334649D01*
X204740827Y-146334649D02*
X204693208Y-146287030D01*
X204693208Y-146287030D02*
X204597970Y-146239411D01*
X204597970Y-146239411D02*
X204550351Y-146239411D01*
X204550351Y-146239411D02*
X204455113Y-146287030D01*
X204455113Y-146287030D02*
X204407494Y-146334649D01*
X204407494Y-146334649D02*
X204359875Y-146429887D01*
X204359875Y-146429887D02*
X204359875Y-146620363D01*
X204359875Y-146620363D02*
X204407494Y-146715601D01*
X204407494Y-146715601D02*
X204455113Y-146763220D01*
X204455113Y-146763220D02*
X204550351Y-146810839D01*
X204550351Y-146810839D02*
X204597970Y-146810839D01*
X204597970Y-146810839D02*
X204693208Y-146763220D01*
X204693208Y-146763220D02*
X204740827Y-146715601D01*
X204740827Y-146715601D02*
X204788446Y-146620363D01*
X204788446Y-146620363D02*
X204788446Y-146429887D01*
X204788446Y-146429887D02*
X204836065Y-146334649D01*
X204836065Y-146334649D02*
X204883684Y-146287030D01*
X204883684Y-146287030D02*
X204978922Y-146239411D01*
X204978922Y-146239411D02*
X205169398Y-146239411D01*
X205169398Y-146239411D02*
X205264636Y-146287030D01*
X205264636Y-146287030D02*
X205312256Y-146334649D01*
X205312256Y-146334649D02*
X205359875Y-146429887D01*
X205359875Y-146429887D02*
X205359875Y-146620363D01*
X205359875Y-146620363D02*
X205312256Y-146715601D01*
X205312256Y-146715601D02*
X205264636Y-146763220D01*
X205264636Y-146763220D02*
X205169398Y-146810839D01*
X205169398Y-146810839D02*
X204978922Y-146810839D01*
X204978922Y-146810839D02*
X204883684Y-146763220D01*
X204883684Y-146763220D02*
X204836065Y-146715601D01*
X204836065Y-146715601D02*
X204788446Y-146620363D01*
X205969819Y-125810837D02*
X206779342Y-125810837D01*
X206779342Y-125810837D02*
X206874580Y-125858456D01*
X206874580Y-125858456D02*
X206922200Y-125906075D01*
X206922200Y-125906075D02*
X206969819Y-126001313D01*
X206969819Y-126001313D02*
X206969819Y-126191789D01*
X206969819Y-126191789D02*
X206922200Y-126287027D01*
X206922200Y-126287027D02*
X206874580Y-126334646D01*
X206874580Y-126334646D02*
X206779342Y-126382265D01*
X206779342Y-126382265D02*
X205969819Y-126382265D01*
X206303152Y-126858456D02*
X206969819Y-126858456D01*
X206398390Y-126858456D02*
X206350771Y-126906075D01*
X206350771Y-126906075D02*
X206303152Y-127001313D01*
X206303152Y-127001313D02*
X206303152Y-127144170D01*
X206303152Y-127144170D02*
X206350771Y-127239408D01*
X206350771Y-127239408D02*
X206446009Y-127287027D01*
X206446009Y-127287027D02*
X206969819Y-127287027D01*
X206969819Y-128191789D02*
X205969819Y-128191789D01*
X206922200Y-128191789D02*
X206969819Y-128096551D01*
X206969819Y-128096551D02*
X206969819Y-127906075D01*
X206969819Y-127906075D02*
X206922200Y-127810837D01*
X206922200Y-127810837D02*
X206874580Y-127763218D01*
X206874580Y-127763218D02*
X206779342Y-127715599D01*
X206779342Y-127715599D02*
X206493628Y-127715599D01*
X206493628Y-127715599D02*
X206398390Y-127763218D01*
X206398390Y-127763218D02*
X206350771Y-127810837D01*
X206350771Y-127810837D02*
X206303152Y-127906075D01*
X206303152Y-127906075D02*
X206303152Y-128096551D01*
X206303152Y-128096551D02*
X206350771Y-128191789D01*
X206922200Y-129048932D02*
X206969819Y-128953694D01*
X206969819Y-128953694D02*
X206969819Y-128763218D01*
X206969819Y-128763218D02*
X206922200Y-128667980D01*
X206922200Y-128667980D02*
X206826961Y-128620361D01*
X206826961Y-128620361D02*
X206446009Y-128620361D01*
X206446009Y-128620361D02*
X206350771Y-128667980D01*
X206350771Y-128667980D02*
X206303152Y-128763218D01*
X206303152Y-128763218D02*
X206303152Y-128953694D01*
X206303152Y-128953694D02*
X206350771Y-129048932D01*
X206350771Y-129048932D02*
X206446009Y-129096551D01*
X206446009Y-129096551D02*
X206541247Y-129096551D01*
X206541247Y-129096551D02*
X206636485Y-128620361D01*
X206969819Y-129525123D02*
X206303152Y-129525123D01*
X206493628Y-129525123D02*
X206398390Y-129572742D01*
X206398390Y-129572742D02*
X206350771Y-129620361D01*
X206350771Y-129620361D02*
X206303152Y-129715599D01*
X206303152Y-129715599D02*
X206303152Y-129810837D01*
X206303152Y-130763219D02*
X206303152Y-131144171D01*
X205969819Y-130906076D02*
X206826961Y-130906076D01*
X206826961Y-130906076D02*
X206922200Y-130953695D01*
X206922200Y-130953695D02*
X206969819Y-131048933D01*
X206969819Y-131048933D02*
X206969819Y-131144171D01*
X206969819Y-131477505D02*
X205969819Y-131477505D01*
X206969819Y-131906076D02*
X206446009Y-131906076D01*
X206446009Y-131906076D02*
X206350771Y-131858457D01*
X206350771Y-131858457D02*
X206303152Y-131763219D01*
X206303152Y-131763219D02*
X206303152Y-131620362D01*
X206303152Y-131620362D02*
X206350771Y-131525124D01*
X206350771Y-131525124D02*
X206398390Y-131477505D01*
X206922200Y-132763219D02*
X206969819Y-132667981D01*
X206969819Y-132667981D02*
X206969819Y-132477505D01*
X206969819Y-132477505D02*
X206922200Y-132382267D01*
X206922200Y-132382267D02*
X206826961Y-132334648D01*
X206826961Y-132334648D02*
X206446009Y-132334648D01*
X206446009Y-132334648D02*
X206350771Y-132382267D01*
X206350771Y-132382267D02*
X206303152Y-132477505D01*
X206303152Y-132477505D02*
X206303152Y-132667981D01*
X206303152Y-132667981D02*
X206350771Y-132763219D01*
X206350771Y-132763219D02*
X206446009Y-132810838D01*
X206446009Y-132810838D02*
X206541247Y-132810838D01*
X206541247Y-132810838D02*
X206636485Y-132334648D01*
X206017438Y-134525124D02*
X205969819Y-134429886D01*
X205969819Y-134429886D02*
X205969819Y-134287029D01*
X205969819Y-134287029D02*
X206017438Y-134144172D01*
X206017438Y-134144172D02*
X206112676Y-134048934D01*
X206112676Y-134048934D02*
X206207914Y-134001315D01*
X206207914Y-134001315D02*
X206398390Y-133953696D01*
X206398390Y-133953696D02*
X206541247Y-133953696D01*
X206541247Y-133953696D02*
X206731723Y-134001315D01*
X206731723Y-134001315D02*
X206826961Y-134048934D01*
X206826961Y-134048934D02*
X206922200Y-134144172D01*
X206922200Y-134144172D02*
X206969819Y-134287029D01*
X206969819Y-134287029D02*
X206969819Y-134382267D01*
X206969819Y-134382267D02*
X206922200Y-134525124D01*
X206922200Y-134525124D02*
X206874580Y-134572743D01*
X206874580Y-134572743D02*
X206541247Y-134572743D01*
X206541247Y-134572743D02*
X206541247Y-134382267D01*
X206969819Y-135001315D02*
X205969819Y-135001315D01*
X205969819Y-135001315D02*
X205969819Y-135382267D01*
X205969819Y-135382267D02*
X206017438Y-135477505D01*
X206017438Y-135477505D02*
X206065057Y-135525124D01*
X206065057Y-135525124D02*
X206160295Y-135572743D01*
X206160295Y-135572743D02*
X206303152Y-135572743D01*
X206303152Y-135572743D02*
X206398390Y-135525124D01*
X206398390Y-135525124D02*
X206446009Y-135477505D01*
X206446009Y-135477505D02*
X206493628Y-135382267D01*
X206493628Y-135382267D02*
X206493628Y-135001315D01*
X206969819Y-136477505D02*
X206969819Y-136001315D01*
X206969819Y-136001315D02*
X205969819Y-136001315D01*
X206588866Y-136810839D02*
X206588866Y-137572744D01*
X206303152Y-137953696D02*
X206969819Y-138191791D01*
X206969819Y-138191791D02*
X206303152Y-138429886D01*
X205969819Y-138715601D02*
X205969819Y-139334648D01*
X205969819Y-139334648D02*
X206350771Y-139001315D01*
X206350771Y-139001315D02*
X206350771Y-139144172D01*
X206350771Y-139144172D02*
X206398390Y-139239410D01*
X206398390Y-139239410D02*
X206446009Y-139287029D01*
X206446009Y-139287029D02*
X206541247Y-139334648D01*
X206541247Y-139334648D02*
X206779342Y-139334648D01*
X206779342Y-139334648D02*
X206874580Y-139287029D01*
X206874580Y-139287029D02*
X206922200Y-139239410D01*
X206922200Y-139239410D02*
X206969819Y-139144172D01*
X206969819Y-139144172D02*
X206969819Y-138858458D01*
X206969819Y-138858458D02*
X206922200Y-138763220D01*
X206922200Y-138763220D02*
X206874580Y-138715601D01*
X206874580Y-139763220D02*
X206922200Y-139810839D01*
X206922200Y-139810839D02*
X206969819Y-139763220D01*
X206969819Y-139763220D02*
X206922200Y-139715601D01*
X206922200Y-139715601D02*
X206874580Y-139763220D01*
X206874580Y-139763220D02*
X206969819Y-139763220D01*
X205969819Y-140429886D02*
X205969819Y-140525124D01*
X205969819Y-140525124D02*
X206017438Y-140620362D01*
X206017438Y-140620362D02*
X206065057Y-140667981D01*
X206065057Y-140667981D02*
X206160295Y-140715600D01*
X206160295Y-140715600D02*
X206350771Y-140763219D01*
X206350771Y-140763219D02*
X206588866Y-140763219D01*
X206588866Y-140763219D02*
X206779342Y-140715600D01*
X206779342Y-140715600D02*
X206874580Y-140667981D01*
X206874580Y-140667981D02*
X206922200Y-140620362D01*
X206922200Y-140620362D02*
X206969819Y-140525124D01*
X206969819Y-140525124D02*
X206969819Y-140429886D01*
X206969819Y-140429886D02*
X206922200Y-140334648D01*
X206922200Y-140334648D02*
X206874580Y-140287029D01*
X206874580Y-140287029D02*
X206779342Y-140239410D01*
X206779342Y-140239410D02*
X206588866Y-140191791D01*
X206588866Y-140191791D02*
X206350771Y-140191791D01*
X206350771Y-140191791D02*
X206160295Y-140239410D01*
X206160295Y-140239410D02*
X206065057Y-140287029D01*
X206065057Y-140287029D02*
X206017438Y-140334648D01*
X206017438Y-140334648D02*
X205969819Y-140429886D01*
X206969819Y-142096553D02*
X206922200Y-142001315D01*
X206922200Y-142001315D02*
X206826961Y-141953696D01*
X206826961Y-141953696D02*
X205969819Y-141953696D01*
X206969819Y-142477506D02*
X206303152Y-142477506D01*
X205969819Y-142477506D02*
X206017438Y-142429887D01*
X206017438Y-142429887D02*
X206065057Y-142477506D01*
X206065057Y-142477506D02*
X206017438Y-142525125D01*
X206017438Y-142525125D02*
X205969819Y-142477506D01*
X205969819Y-142477506D02*
X206065057Y-142477506D01*
X206922200Y-143382267D02*
X206969819Y-143287029D01*
X206969819Y-143287029D02*
X206969819Y-143096553D01*
X206969819Y-143096553D02*
X206922200Y-143001315D01*
X206922200Y-143001315D02*
X206874580Y-142953696D01*
X206874580Y-142953696D02*
X206779342Y-142906077D01*
X206779342Y-142906077D02*
X206493628Y-142906077D01*
X206493628Y-142906077D02*
X206398390Y-142953696D01*
X206398390Y-142953696D02*
X206350771Y-143001315D01*
X206350771Y-143001315D02*
X206303152Y-143096553D01*
X206303152Y-143096553D02*
X206303152Y-143287029D01*
X206303152Y-143287029D02*
X206350771Y-143382267D01*
X206922200Y-144191791D02*
X206969819Y-144096553D01*
X206969819Y-144096553D02*
X206969819Y-143906077D01*
X206969819Y-143906077D02*
X206922200Y-143810839D01*
X206922200Y-143810839D02*
X206826961Y-143763220D01*
X206826961Y-143763220D02*
X206446009Y-143763220D01*
X206446009Y-143763220D02*
X206350771Y-143810839D01*
X206350771Y-143810839D02*
X206303152Y-143906077D01*
X206303152Y-143906077D02*
X206303152Y-144096553D01*
X206303152Y-144096553D02*
X206350771Y-144191791D01*
X206350771Y-144191791D02*
X206446009Y-144239410D01*
X206446009Y-144239410D02*
X206541247Y-144239410D01*
X206541247Y-144239410D02*
X206636485Y-143763220D01*
X206303152Y-144667982D02*
X206969819Y-144667982D01*
X206398390Y-144667982D02*
X206350771Y-144715601D01*
X206350771Y-144715601D02*
X206303152Y-144810839D01*
X206303152Y-144810839D02*
X206303152Y-144953696D01*
X206303152Y-144953696D02*
X206350771Y-145048934D01*
X206350771Y-145048934D02*
X206446009Y-145096553D01*
X206446009Y-145096553D02*
X206969819Y-145096553D01*
X206922200Y-145525125D02*
X206969819Y-145620363D01*
X206969819Y-145620363D02*
X206969819Y-145810839D01*
X206969819Y-145810839D02*
X206922200Y-145906077D01*
X206922200Y-145906077D02*
X206826961Y-145953696D01*
X206826961Y-145953696D02*
X206779342Y-145953696D01*
X206779342Y-145953696D02*
X206684104Y-145906077D01*
X206684104Y-145906077D02*
X206636485Y-145810839D01*
X206636485Y-145810839D02*
X206636485Y-145667982D01*
X206636485Y-145667982D02*
X206588866Y-145572744D01*
X206588866Y-145572744D02*
X206493628Y-145525125D01*
X206493628Y-145525125D02*
X206446009Y-145525125D01*
X206446009Y-145525125D02*
X206350771Y-145572744D01*
X206350771Y-145572744D02*
X206303152Y-145667982D01*
X206303152Y-145667982D02*
X206303152Y-145810839D01*
X206303152Y-145810839D02*
X206350771Y-145906077D01*
X206922200Y-146763220D02*
X206969819Y-146667982D01*
X206969819Y-146667982D02*
X206969819Y-146477506D01*
X206969819Y-146477506D02*
X206922200Y-146382268D01*
X206922200Y-146382268D02*
X206826961Y-146334649D01*
X206826961Y-146334649D02*
X206446009Y-146334649D01*
X206446009Y-146334649D02*
X206350771Y-146382268D01*
X206350771Y-146382268D02*
X206303152Y-146477506D01*
X206303152Y-146477506D02*
X206303152Y-146667982D01*
X206303152Y-146667982D02*
X206350771Y-146763220D01*
X206350771Y-146763220D02*
X206446009Y-146810839D01*
X206446009Y-146810839D02*
X206541247Y-146810839D01*
X206541247Y-146810839D02*
X206636485Y-146334649D01*
D12*
%TO.C,G\u002A\u002A\u002A*%
G36*
X214786076Y-122106259D02*
G01*
X214786076Y-122249156D01*
X214643179Y-122249156D01*
X214500281Y-122249156D01*
X214500281Y-122106259D01*
X214500281Y-121963361D01*
X214643179Y-121963361D01*
X214786076Y-121963361D01*
X214786076Y-122106259D01*
G37*
G36*
X209927567Y-124249719D02*
G01*
X209927567Y-124535513D01*
X209784669Y-124535513D01*
X209641772Y-124535513D01*
X209641772Y-124249719D01*
X209641772Y-123963924D01*
X209784669Y-123963924D01*
X209927567Y-123963924D01*
X209927567Y-124249719D01*
G37*
G36*
X210213361Y-124678411D02*
G01*
X210213361Y-124821308D01*
X210070464Y-124821308D01*
X209927567Y-124821308D01*
X209927567Y-124678411D01*
X209927567Y-124535513D01*
X210070464Y-124535513D01*
X210213361Y-124535513D01*
X210213361Y-124678411D01*
G37*
G36*
X214214487Y-124678411D02*
G01*
X214214487Y-124821308D01*
X214071589Y-124821308D01*
X213928692Y-124821308D01*
X213928692Y-124678411D01*
X213928692Y-124535513D01*
X214071589Y-124535513D01*
X214214487Y-124535513D01*
X214214487Y-124678411D01*
G37*
G36*
X210784951Y-124964205D02*
G01*
X210784951Y-125107103D01*
X210642053Y-125107103D01*
X210499156Y-125107103D01*
X210499156Y-124964205D01*
X210499156Y-124821308D01*
X210642053Y-124821308D01*
X210784951Y-124821308D01*
X210784951Y-124964205D01*
G37*
G36*
X217358228Y-125821589D02*
G01*
X217358228Y-125964487D01*
X217215330Y-125964487D01*
X217072433Y-125964487D01*
X217072433Y-125821589D01*
X217072433Y-125678692D01*
X217215330Y-125678692D01*
X217358228Y-125678692D01*
X217358228Y-125821589D01*
G37*
G36*
X209927567Y-126536076D02*
G01*
X209927567Y-126821871D01*
X209784669Y-126821871D01*
X209641772Y-126821871D01*
X209641772Y-126536076D01*
X209641772Y-126250281D01*
X209784669Y-126250281D01*
X209927567Y-126250281D01*
X209927567Y-126536076D01*
G37*
G36*
X216215049Y-126964768D02*
G01*
X216215049Y-127107665D01*
X216072152Y-127107665D01*
X215929255Y-127107665D01*
X215929255Y-126964768D01*
X215929255Y-126821871D01*
X216072152Y-126821871D01*
X216215049Y-126821871D01*
X216215049Y-126964768D01*
G37*
G36*
X216786639Y-126964768D02*
G01*
X216786639Y-127107665D01*
X216643741Y-127107665D01*
X216500844Y-127107665D01*
X216500844Y-126964768D01*
X216500844Y-126821871D01*
X216643741Y-126821871D01*
X216786639Y-126821871D01*
X216786639Y-126964768D01*
G37*
G36*
X212213924Y-127250563D02*
G01*
X212213924Y-127393460D01*
X211928129Y-127393460D01*
X211642335Y-127393460D01*
X211642335Y-127250563D01*
X211642335Y-127107665D01*
X211928129Y-127107665D01*
X212213924Y-127107665D01*
X212213924Y-127250563D01*
G37*
G36*
X217072433Y-127250563D02*
G01*
X217072433Y-127393460D01*
X216929536Y-127393460D01*
X216786639Y-127393460D01*
X216786639Y-127250563D01*
X216786639Y-127107665D01*
X216929536Y-127107665D01*
X217072433Y-127107665D01*
X217072433Y-127250563D01*
G37*
G36*
X215643460Y-127536357D02*
G01*
X215643460Y-127679255D01*
X215500563Y-127679255D01*
X215357665Y-127679255D01*
X215357665Y-127536357D01*
X215357665Y-127393460D01*
X215500563Y-127393460D01*
X215643460Y-127393460D01*
X215643460Y-127536357D01*
G37*
G36*
X215357665Y-128107947D02*
G01*
X215357665Y-128250844D01*
X215214768Y-128250844D01*
X215071871Y-128250844D01*
X215071871Y-128107947D01*
X215071871Y-127965049D01*
X215214768Y-127965049D01*
X215357665Y-127965049D01*
X215357665Y-128107947D01*
G37*
G36*
X215643460Y-128393741D02*
G01*
X215643460Y-128536639D01*
X215500563Y-128536639D01*
X215357665Y-128536639D01*
X215357665Y-128393741D01*
X215357665Y-128250844D01*
X215500563Y-128250844D01*
X215643460Y-128250844D01*
X215643460Y-128393741D01*
G37*
G36*
X211642335Y-128679536D02*
G01*
X211642335Y-128822433D01*
X211499437Y-128822433D01*
X211356540Y-128822433D01*
X211356540Y-128679536D01*
X211356540Y-128536639D01*
X211499437Y-128536639D01*
X211642335Y-128536639D01*
X211642335Y-128679536D01*
G37*
G36*
X213928692Y-128679536D02*
G01*
X213928692Y-128822433D01*
X213785795Y-128822433D01*
X213642897Y-128822433D01*
X213642897Y-128679536D01*
X213642897Y-128536639D01*
X213785795Y-128536639D01*
X213928692Y-128536639D01*
X213928692Y-128679536D01*
G37*
G36*
X211928129Y-128965330D02*
G01*
X211928129Y-129108228D01*
X211785232Y-129108228D01*
X211642335Y-129108228D01*
X211642335Y-128965330D01*
X211642335Y-128822433D01*
X211785232Y-128822433D01*
X211928129Y-128822433D01*
X211928129Y-128965330D01*
G37*
G36*
X213071308Y-128965330D02*
G01*
X213071308Y-129108228D01*
X212928411Y-129108228D01*
X212785513Y-129108228D01*
X212785513Y-128965330D01*
X212785513Y-128822433D01*
X212928411Y-128822433D01*
X213071308Y-128822433D01*
X213071308Y-128965330D01*
G37*
G36*
X214214487Y-128965330D02*
G01*
X214214487Y-129108228D01*
X214071589Y-129108228D01*
X213928692Y-129108228D01*
X213928692Y-128965330D01*
X213928692Y-128822433D01*
X214071589Y-128822433D01*
X214214487Y-128822433D01*
X214214487Y-128965330D01*
G37*
G36*
X214214487Y-123106540D02*
G01*
X214214487Y-123392335D01*
X213928692Y-123392335D01*
X213642897Y-123392335D01*
X213642897Y-123249437D01*
X213642897Y-123106540D01*
X213785795Y-123106540D01*
X213928692Y-123106540D01*
X213928692Y-122963643D01*
X213928692Y-122820745D01*
X214071589Y-122820745D01*
X214214487Y-122820745D01*
X214214487Y-123106540D01*
G37*
G36*
X217929817Y-128393741D02*
G01*
X217929817Y-128536639D01*
X217786920Y-128536639D01*
X217644022Y-128536639D01*
X217644022Y-128679536D01*
X217644022Y-128822433D01*
X217501125Y-128822433D01*
X217358228Y-128822433D01*
X217358228Y-128679536D01*
X217358228Y-128536639D01*
X217501125Y-128536639D01*
X217644022Y-128536639D01*
X217644022Y-128393741D01*
X217644022Y-128250844D01*
X217786920Y-128250844D01*
X217929817Y-128250844D01*
X217929817Y-128393741D01*
G37*
G36*
X215071871Y-129108228D02*
G01*
X215071871Y-129679817D01*
X214928973Y-129679817D01*
X214786076Y-129679817D01*
X214786076Y-129536920D01*
X214786076Y-129394022D01*
X214643179Y-129394022D01*
X214500281Y-129394022D01*
X214500281Y-129251125D01*
X214500281Y-129108228D01*
X214643179Y-129108228D01*
X214786076Y-129108228D01*
X214786076Y-128822433D01*
X214786076Y-128536639D01*
X214928973Y-128536639D01*
X215071871Y-128536639D01*
X215071871Y-129108228D01*
G37*
G36*
X209784669Y-120820183D02*
G01*
X210499156Y-120820183D01*
X210499156Y-121534669D01*
X210499156Y-122249156D01*
X209784669Y-122249156D01*
X209070183Y-122249156D01*
X209070183Y-121534669D01*
X209070183Y-121105977D01*
X209355977Y-121105977D01*
X209355977Y-121534669D01*
X209355977Y-121963361D01*
X209784669Y-121963361D01*
X210213361Y-121963361D01*
X210213361Y-121534669D01*
X210213361Y-121105977D01*
X209784669Y-121105977D01*
X209355977Y-121105977D01*
X209070183Y-121105977D01*
X209070183Y-120820183D01*
X209784669Y-120820183D01*
G37*
G36*
X217215330Y-120820183D02*
G01*
X217929817Y-120820183D01*
X217929817Y-121534669D01*
X217929817Y-122249156D01*
X217215330Y-122249156D01*
X216500844Y-122249156D01*
X216500844Y-121534669D01*
X216500844Y-121105977D01*
X216786639Y-121105977D01*
X216786639Y-121534669D01*
X216786639Y-121963361D01*
X217215330Y-121963361D01*
X217644022Y-121963361D01*
X217644022Y-121534669D01*
X217644022Y-121105977D01*
X217215330Y-121105977D01*
X216786639Y-121105977D01*
X216500844Y-121105977D01*
X216500844Y-120820183D01*
X217215330Y-120820183D01*
G37*
G36*
X216357947Y-127679255D02*
G01*
X216786639Y-127679255D01*
X216786639Y-128107947D01*
X216786639Y-128536639D01*
X216357947Y-128536639D01*
X215929255Y-128536639D01*
X215929255Y-128107947D01*
X215929255Y-127965049D01*
X216215049Y-127965049D01*
X216215049Y-128107947D01*
X216215049Y-128250844D01*
X216357947Y-128250844D01*
X216500844Y-128250844D01*
X216500844Y-128107947D01*
X216500844Y-127965049D01*
X216357947Y-127965049D01*
X216215049Y-127965049D01*
X215929255Y-127965049D01*
X215929255Y-127679255D01*
X216357947Y-127679255D01*
G37*
G36*
X209784669Y-128250844D02*
G01*
X210499156Y-128250844D01*
X210499156Y-128965330D01*
X210499156Y-129679817D01*
X209784669Y-129679817D01*
X209070183Y-129679817D01*
X209070183Y-128965330D01*
X209070183Y-128536639D01*
X209355977Y-128536639D01*
X209355977Y-128965330D01*
X209355977Y-129394022D01*
X209784669Y-129394022D01*
X210213361Y-129394022D01*
X210213361Y-128965330D01*
X210213361Y-128536639D01*
X209784669Y-128536639D01*
X209355977Y-128536639D01*
X209070183Y-128536639D01*
X209070183Y-128250844D01*
X209784669Y-128250844D01*
G37*
G36*
X217929817Y-127393460D02*
G01*
X217929817Y-127679255D01*
X217786920Y-127679255D01*
X217644022Y-127679255D01*
X217644022Y-127822152D01*
X217644022Y-127965049D01*
X217501125Y-127965049D01*
X217358228Y-127965049D01*
X217358228Y-128250844D01*
X217358228Y-128536639D01*
X217215330Y-128536639D01*
X217072433Y-128536639D01*
X217072433Y-128250844D01*
X217072433Y-127965049D01*
X217215330Y-127965049D01*
X217358228Y-127965049D01*
X217358228Y-127536357D01*
X217358228Y-127107665D01*
X217644022Y-127107665D01*
X217929817Y-127107665D01*
X217929817Y-127393460D01*
G37*
G36*
X216500844Y-128965330D02*
G01*
X216500844Y-129108228D01*
X216215049Y-129108228D01*
X215929255Y-129108228D01*
X215929255Y-129251125D01*
X215929255Y-129394022D01*
X215786357Y-129394022D01*
X215643460Y-129394022D01*
X215643460Y-129536920D01*
X215643460Y-129679817D01*
X215500563Y-129679817D01*
X215357665Y-129679817D01*
X215357665Y-129536920D01*
X215357665Y-129394022D01*
X215500563Y-129394022D01*
X215643460Y-129394022D01*
X215643460Y-129108228D01*
X215643460Y-128822433D01*
X216072152Y-128822433D01*
X216500844Y-128822433D01*
X216500844Y-128965330D01*
G37*
G36*
X216786639Y-123821027D02*
G01*
X216786639Y-123963924D01*
X216929536Y-123963924D01*
X217072433Y-123963924D01*
X217072433Y-124249719D01*
X217072433Y-124535513D01*
X217215330Y-124535513D01*
X217358228Y-124535513D01*
X217358228Y-124678411D01*
X217358228Y-124821308D01*
X216929536Y-124821308D01*
X216500844Y-124821308D01*
X216500844Y-124678411D01*
X216500844Y-124535513D01*
X216357947Y-124535513D01*
X216215049Y-124535513D01*
X216215049Y-124964205D01*
X216215049Y-125392897D01*
X216500844Y-125392897D01*
X216786639Y-125392897D01*
X216786639Y-125250000D01*
X216786639Y-125107103D01*
X216929536Y-125107103D01*
X217072433Y-125107103D01*
X217072433Y-125392897D01*
X217072433Y-125678692D01*
X216929536Y-125678692D01*
X216786639Y-125678692D01*
X216786639Y-125964487D01*
X216786639Y-126250281D01*
X216500844Y-126250281D01*
X216215049Y-126250281D01*
X216215049Y-126393179D01*
X216215049Y-126536076D01*
X216072152Y-126536076D01*
X215929255Y-126536076D01*
X215929255Y-126678973D01*
X215929255Y-126821871D01*
X215786357Y-126821871D01*
X215643460Y-126821871D01*
X215643460Y-126536076D01*
X215643460Y-126250281D01*
X215929255Y-126250281D01*
X216215049Y-126250281D01*
X216215049Y-126107384D01*
X216215049Y-125964487D01*
X216357947Y-125964487D01*
X216500844Y-125964487D01*
X216500844Y-125821589D01*
X216500844Y-125678692D01*
X216215049Y-125678692D01*
X215929255Y-125678692D01*
X215929255Y-125821589D01*
X215929255Y-125964487D01*
X215786357Y-125964487D01*
X215643460Y-125964487D01*
X215643460Y-125821589D01*
X215643460Y-125678692D01*
X215786357Y-125678692D01*
X215929255Y-125678692D01*
X215929255Y-125535795D01*
X215929255Y-125392897D01*
X215786357Y-125392897D01*
X215643460Y-125392897D01*
X215643460Y-125535795D01*
X215643460Y-125678692D01*
X215500563Y-125678692D01*
X215357665Y-125678692D01*
X215357665Y-125964487D01*
X215357665Y-126250281D01*
X215214768Y-126250281D01*
X215071871Y-126250281D01*
X215071871Y-125964487D01*
X215071871Y-125678692D01*
X214928973Y-125678692D01*
X214786076Y-125678692D01*
X214786076Y-125821589D01*
X214786076Y-125964487D01*
X214643179Y-125964487D01*
X214500281Y-125964487D01*
X214500281Y-125678692D01*
X214500281Y-125392897D01*
X214643179Y-125392897D01*
X214786076Y-125392897D01*
X214786076Y-125250000D01*
X214786076Y-125107103D01*
X214928973Y-125107103D01*
X215071871Y-125107103D01*
X215071871Y-125250000D01*
X215071871Y-125392897D01*
X215214768Y-125392897D01*
X215357665Y-125392897D01*
X215357665Y-125250000D01*
X215357665Y-125107103D01*
X215643460Y-125107103D01*
X215929255Y-125107103D01*
X215929255Y-124964205D01*
X215929255Y-124821308D01*
X215786357Y-124821308D01*
X215643460Y-124821308D01*
X215643460Y-124678411D01*
X215643460Y-124535513D01*
X215929255Y-124535513D01*
X216215049Y-124535513D01*
X216215049Y-124392616D01*
X216215049Y-124249719D01*
X216357947Y-124249719D01*
X216500844Y-124249719D01*
X216500844Y-123963924D01*
X216500844Y-123678129D01*
X216643741Y-123678129D01*
X216786639Y-123678129D01*
X216786639Y-123821027D01*
G37*
G36*
X215929255Y-123535232D02*
G01*
X215929255Y-123678129D01*
X215786357Y-123678129D01*
X215643460Y-123678129D01*
X215643460Y-123821027D01*
X215643460Y-123963924D01*
X215500563Y-123963924D01*
X215357665Y-123963924D01*
X215357665Y-124106821D01*
X215357665Y-124249719D01*
X215214768Y-124249719D01*
X215071871Y-124249719D01*
X215071871Y-124392616D01*
X215071871Y-124535513D01*
X215214768Y-124535513D01*
X215357665Y-124535513D01*
X215357665Y-124678411D01*
X215357665Y-124821308D01*
X215071871Y-124821308D01*
X214786076Y-124821308D01*
X214786076Y-124964205D01*
X214786076Y-125107103D01*
X214643179Y-125107103D01*
X214500281Y-125107103D01*
X214500281Y-124964205D01*
X214500281Y-124821308D01*
X214643179Y-124821308D01*
X214786076Y-124821308D01*
X214786076Y-124535513D01*
X214786076Y-124249719D01*
X214643179Y-124249719D01*
X214500281Y-124249719D01*
X214500281Y-124106821D01*
X214500281Y-123963924D01*
X214643179Y-123963924D01*
X214786076Y-123963924D01*
X214786076Y-124106821D01*
X214786076Y-124249719D01*
X214928973Y-124249719D01*
X215071871Y-124249719D01*
X215071871Y-124106821D01*
X215071871Y-123963924D01*
X215214768Y-123963924D01*
X215357665Y-123963924D01*
X215357665Y-123821027D01*
X215357665Y-123678129D01*
X215500563Y-123678129D01*
X215643460Y-123678129D01*
X215643460Y-123535232D01*
X215643460Y-123392335D01*
X215786357Y-123392335D01*
X215929255Y-123392335D01*
X215929255Y-123535232D01*
G37*
G36*
X216072152Y-123678129D02*
G01*
X216215049Y-123678129D01*
X216215049Y-123821027D01*
X216215049Y-123963924D01*
X216072152Y-123963924D01*
X215929255Y-123963924D01*
X215929255Y-124106821D01*
X215929255Y-124249719D01*
X215786357Y-124249719D01*
X215643460Y-124249719D01*
X215643460Y-124106821D01*
X215643460Y-123963924D01*
X215786357Y-123963924D01*
X215929255Y-123963924D01*
X215929255Y-123821027D01*
X215929255Y-123678129D01*
X216072152Y-123678129D01*
G37*
G36*
X213785795Y-125678692D02*
G01*
X214214487Y-125678692D01*
X214214487Y-125964487D01*
X214214487Y-126250281D01*
X213928692Y-126250281D01*
X213642897Y-126250281D01*
X213642897Y-126393179D01*
X213642897Y-126536076D01*
X213928692Y-126536076D01*
X214214487Y-126536076D01*
X214214487Y-126678973D01*
X214214487Y-126821871D01*
X214357384Y-126821871D01*
X214500281Y-126821871D01*
X214500281Y-126536076D01*
X214500281Y-126250281D01*
X214643179Y-126250281D01*
X214786076Y-126250281D01*
X214786076Y-126536076D01*
X214786076Y-126821871D01*
X214643179Y-126821871D01*
X214500281Y-126821871D01*
X214500281Y-126964768D01*
X214500281Y-127107665D01*
X214643179Y-127107665D01*
X214786076Y-127107665D01*
X214786076Y-127250563D01*
X214786076Y-127393460D01*
X214928973Y-127393460D01*
X215071871Y-127393460D01*
X215071871Y-126964768D01*
X215071871Y-126536076D01*
X215214768Y-126536076D01*
X215357665Y-126536076D01*
X215357665Y-126964768D01*
X215357665Y-127393460D01*
X215214768Y-127393460D01*
X215071871Y-127393460D01*
X215071871Y-127679255D01*
X215071871Y-127965049D01*
X214928973Y-127965049D01*
X214786076Y-127965049D01*
X214786076Y-128107947D01*
X214786076Y-128250844D01*
X214500281Y-128250844D01*
X214214487Y-128250844D01*
X214214487Y-128107947D01*
X214214487Y-127965049D01*
X213928692Y-127965049D01*
X213642897Y-127965049D01*
X213642897Y-128107947D01*
X213642897Y-128250844D01*
X213500000Y-128250844D01*
X213357103Y-128250844D01*
X213357103Y-128107947D01*
X213357103Y-127965049D01*
X213500000Y-127965049D01*
X213642897Y-127965049D01*
X213642897Y-127679255D01*
X213642897Y-127393460D01*
X213500000Y-127393460D01*
X213357103Y-127393460D01*
X213357103Y-127536357D01*
X213357103Y-127679255D01*
X213071308Y-127679255D01*
X212785513Y-127679255D01*
X212785513Y-127822152D01*
X212785513Y-127965049D01*
X212642616Y-127965049D01*
X212499719Y-127965049D01*
X212499719Y-127822152D01*
X212499719Y-127679255D01*
X212642616Y-127679255D01*
X212785513Y-127679255D01*
X212785513Y-127393460D01*
X212785513Y-127107665D01*
X212642616Y-127107665D01*
X212499719Y-127107665D01*
X212499719Y-126964768D01*
X212499719Y-126821871D01*
X212356821Y-126821871D01*
X212213924Y-126821871D01*
X212213924Y-126678973D01*
X212213924Y-126536076D01*
X212071027Y-126536076D01*
X211928129Y-126536076D01*
X211928129Y-126393179D01*
X211928129Y-126250281D01*
X211785232Y-126250281D01*
X211642335Y-126250281D01*
X211642335Y-126107384D01*
X211642335Y-125964487D01*
X211928129Y-125964487D01*
X212213924Y-125964487D01*
X212213924Y-126107384D01*
X212213924Y-126250281D01*
X212356821Y-126250281D01*
X212499719Y-126250281D01*
X212499719Y-126393179D01*
X212499719Y-126536076D01*
X212642616Y-126536076D01*
X212785513Y-126536076D01*
X212785513Y-126250281D01*
X212785513Y-125964487D01*
X213071308Y-125964487D01*
X213357103Y-125964487D01*
X213357103Y-126107384D01*
X213357103Y-126250281D01*
X213214205Y-126250281D01*
X213071308Y-126250281D01*
X213071308Y-126536076D01*
X213071308Y-126821871D01*
X212928411Y-126821871D01*
X212785513Y-126821871D01*
X212785513Y-126964768D01*
X212785513Y-127107665D01*
X212928411Y-127107665D01*
X213071308Y-127107665D01*
X213071308Y-126964768D01*
X213071308Y-126821871D01*
X213214205Y-126821871D01*
X213357103Y-126821871D01*
X213357103Y-126964768D01*
X213357103Y-127107665D01*
X213500000Y-127107665D01*
X213642897Y-127107665D01*
X213642897Y-127250563D01*
X213642897Y-127393460D01*
X213785795Y-127393460D01*
X213928692Y-127393460D01*
X213928692Y-127536357D01*
X213928692Y-127679255D01*
X214071589Y-127679255D01*
X214214487Y-127679255D01*
X214214487Y-127536357D01*
X214214487Y-127393460D01*
X214500281Y-127393460D01*
X214500281Y-127679255D01*
X214500281Y-127965049D01*
X214643179Y-127965049D01*
X214786076Y-127965049D01*
X214786076Y-127679255D01*
X214786076Y-127393460D01*
X214643179Y-127393460D01*
X214500281Y-127393460D01*
X214214487Y-127393460D01*
X214071589Y-127393460D01*
X213928692Y-127393460D01*
X213928692Y-127250563D01*
X213928692Y-127107665D01*
X214071589Y-127107665D01*
X214214487Y-127107665D01*
X214214487Y-126964768D01*
X214214487Y-126821871D01*
X214071589Y-126821871D01*
X213928692Y-126821871D01*
X213928692Y-126964768D01*
X213928692Y-127107665D01*
X213785795Y-127107665D01*
X213642897Y-127107665D01*
X213642897Y-126964768D01*
X213642897Y-126821871D01*
X213500000Y-126821871D01*
X213357103Y-126821871D01*
X213357103Y-126536076D01*
X213357103Y-126250281D01*
X213500000Y-126250281D01*
X213642897Y-126250281D01*
X213642897Y-126107384D01*
X213642897Y-125964487D01*
X213500000Y-125964487D01*
X213357103Y-125964487D01*
X213357103Y-125821589D01*
X213357103Y-125678692D01*
X213785795Y-125678692D01*
G37*
G36*
X213357103Y-125535795D02*
G01*
X213357103Y-125678692D01*
X213214205Y-125678692D01*
X213071308Y-125678692D01*
X213071308Y-125535795D01*
X213071308Y-125392897D01*
X213214205Y-125392897D01*
X213357103Y-125392897D01*
X213357103Y-125535795D01*
G37*
G36*
X212499719Y-121248875D02*
G01*
X212499719Y-121391772D01*
X212642616Y-121391772D01*
X212785513Y-121391772D01*
X212785513Y-121534669D01*
X212785513Y-121677567D01*
X212928411Y-121677567D01*
X213071308Y-121677567D01*
X213071308Y-121963361D01*
X213071308Y-122249156D01*
X212928411Y-122249156D01*
X212785513Y-122249156D01*
X212785513Y-122392053D01*
X212785513Y-122534951D01*
X212928411Y-122534951D01*
X213071308Y-122534951D01*
X213071308Y-122677848D01*
X213071308Y-122820745D01*
X213214205Y-122820745D01*
X213357103Y-122820745D01*
X213357103Y-122677848D01*
X213357103Y-122534951D01*
X213500000Y-122534951D01*
X213642897Y-122534951D01*
X213642897Y-122392053D01*
X213642897Y-122249156D01*
X213500000Y-122249156D01*
X213357103Y-122249156D01*
X213357103Y-122392053D01*
X213357103Y-122534951D01*
X213214205Y-122534951D01*
X213071308Y-122534951D01*
X213071308Y-122392053D01*
X213071308Y-122249156D01*
X213214205Y-122249156D01*
X213357103Y-122249156D01*
X213357103Y-122106259D01*
X213357103Y-121963361D01*
X213500000Y-121963361D01*
X213642897Y-121963361D01*
X213642897Y-122106259D01*
X213642897Y-122249156D01*
X213785795Y-122249156D01*
X213928692Y-122249156D01*
X213928692Y-122106259D01*
X213928692Y-121963361D01*
X214071589Y-121963361D01*
X214214487Y-121963361D01*
X214214487Y-122106259D01*
X214214487Y-122249156D01*
X214071589Y-122249156D01*
X213928692Y-122249156D01*
X213928692Y-122392053D01*
X213928692Y-122534951D01*
X213785795Y-122534951D01*
X213642897Y-122534951D01*
X213642897Y-122820745D01*
X213642897Y-123106540D01*
X213500000Y-123106540D01*
X213357103Y-123106540D01*
X213357103Y-123249437D01*
X213357103Y-123392335D01*
X213214205Y-123392335D01*
X213071308Y-123392335D01*
X213071308Y-123535232D01*
X213071308Y-123678129D01*
X213214205Y-123678129D01*
X213357103Y-123678129D01*
X213357103Y-123821027D01*
X213357103Y-123963924D01*
X213500000Y-123963924D01*
X213642897Y-123963924D01*
X213642897Y-123821027D01*
X213642897Y-123678129D01*
X213785795Y-123678129D01*
X213928692Y-123678129D01*
X213928692Y-123821027D01*
X213928692Y-123963924D01*
X214071589Y-123963924D01*
X214214487Y-123963924D01*
X214214487Y-123821027D01*
X214214487Y-123678129D01*
X214357384Y-123678129D01*
X214500281Y-123678129D01*
X214500281Y-123821027D01*
X214500281Y-123963924D01*
X214357384Y-123963924D01*
X214214487Y-123963924D01*
X214214487Y-124106821D01*
X214214487Y-124249719D01*
X214071589Y-124249719D01*
X213928692Y-124249719D01*
X213928692Y-124392616D01*
X213928692Y-124535513D01*
X213785795Y-124535513D01*
X213642897Y-124535513D01*
X213642897Y-124821308D01*
X213642897Y-125107103D01*
X213357103Y-125107103D01*
X213071308Y-125107103D01*
X213071308Y-125250000D01*
X213071308Y-125392897D01*
X212928411Y-125392897D01*
X212785513Y-125392897D01*
X212785513Y-125535795D01*
X212785513Y-125678692D01*
X212356821Y-125678692D01*
X211928129Y-125678692D01*
X211928129Y-125535795D01*
X211928129Y-125392897D01*
X211785232Y-125392897D01*
X211642335Y-125392897D01*
X211642335Y-125250000D01*
X211642335Y-125107103D01*
X212071027Y-125107103D01*
X212499719Y-125107103D01*
X212499719Y-125250000D01*
X212499719Y-125392897D01*
X212642616Y-125392897D01*
X212785513Y-125392897D01*
X212785513Y-124964205D01*
X212785513Y-124535513D01*
X212928411Y-124535513D01*
X213071308Y-124535513D01*
X213071308Y-124392616D01*
X213071308Y-124249719D01*
X212928411Y-124249719D01*
X212785513Y-124249719D01*
X212785513Y-124392616D01*
X212785513Y-124535513D01*
X212642616Y-124535513D01*
X212499719Y-124535513D01*
X212499719Y-124678411D01*
X212499719Y-124821308D01*
X212356821Y-124821308D01*
X212213924Y-124821308D01*
X212213924Y-124678411D01*
X212213924Y-124535513D01*
X212071027Y-124535513D01*
X211928129Y-124535513D01*
X211928129Y-124678411D01*
X211928129Y-124821308D01*
X211785232Y-124821308D01*
X211642335Y-124821308D01*
X211642335Y-124964205D01*
X211642335Y-125107103D01*
X211499437Y-125107103D01*
X211356540Y-125107103D01*
X211356540Y-124678411D01*
X211356540Y-124249719D01*
X211499437Y-124249719D01*
X211642335Y-124249719D01*
X211642335Y-124106821D01*
X211642335Y-123963924D01*
X212213924Y-123963924D01*
X212213924Y-124249719D01*
X212499719Y-124249719D01*
X212785513Y-124249719D01*
X212785513Y-123963924D01*
X212785513Y-123678129D01*
X212499719Y-123678129D01*
X212213924Y-123678129D01*
X212213924Y-123963924D01*
X211642335Y-123963924D01*
X211499437Y-123963924D01*
X211356540Y-123963924D01*
X211356540Y-124106821D01*
X211356540Y-124249719D01*
X211213643Y-124249719D01*
X211070745Y-124249719D01*
X211070745Y-124392616D01*
X211070745Y-124535513D01*
X210784951Y-124535513D01*
X210499156Y-124535513D01*
X210499156Y-124392616D01*
X210499156Y-124249719D01*
X210784951Y-124249719D01*
X211070745Y-124249719D01*
X211070745Y-124106821D01*
X211070745Y-123963924D01*
X210642053Y-123963924D01*
X210213361Y-123963924D01*
X210213361Y-123821027D01*
X210213361Y-123678129D01*
X209784669Y-123678129D01*
X209355977Y-123678129D01*
X209355977Y-123535232D01*
X209355977Y-123392335D01*
X209498875Y-123392335D01*
X209641772Y-123392335D01*
X209641772Y-123249437D01*
X209641772Y-123106540D01*
X209784669Y-123106540D01*
X209927567Y-123106540D01*
X209927567Y-123249437D01*
X209927567Y-123392335D01*
X210070464Y-123392335D01*
X210213361Y-123392335D01*
X210499156Y-123392335D01*
X210499156Y-123535232D01*
X210499156Y-123678129D01*
X210642053Y-123678129D01*
X210784951Y-123678129D01*
X210784951Y-123535232D01*
X210784951Y-123392335D01*
X210642053Y-123392335D01*
X210499156Y-123392335D01*
X210213361Y-123392335D01*
X210213361Y-123249437D01*
X210213361Y-123106540D01*
X210642053Y-123106540D01*
X211070745Y-123106540D01*
X211070745Y-123535232D01*
X211070745Y-123963924D01*
X211213643Y-123963924D01*
X211356540Y-123963924D01*
X211356540Y-123821027D01*
X211356540Y-123678129D01*
X211785232Y-123678129D01*
X212213924Y-123678129D01*
X212213924Y-123535232D01*
X212213924Y-123392335D01*
X211928129Y-123392335D01*
X211642335Y-123392335D01*
X211642335Y-123249437D01*
X211642335Y-123106540D01*
X211928129Y-123106540D01*
X212213924Y-123106540D01*
X212213924Y-123249437D01*
X212213924Y-123392335D01*
X212642616Y-123392335D01*
X213071308Y-123392335D01*
X213071308Y-123106540D01*
X213071308Y-122820745D01*
X212928411Y-122820745D01*
X212785513Y-122820745D01*
X212785513Y-122963643D01*
X212785513Y-123106540D01*
X212642616Y-123106540D01*
X212499719Y-123106540D01*
X212499719Y-122963643D01*
X212499719Y-122820745D01*
X212642616Y-122820745D01*
X212785513Y-122820745D01*
X212785513Y-122677848D01*
X212785513Y-122534951D01*
X212642616Y-122534951D01*
X212499719Y-122534951D01*
X212499719Y-122106259D01*
X212499719Y-121677567D01*
X212356821Y-121677567D01*
X212213924Y-121677567D01*
X212213924Y-121820464D01*
X212213924Y-121963361D01*
X212071027Y-121963361D01*
X211928129Y-121963361D01*
X211928129Y-122106259D01*
X211928129Y-122249156D01*
X211785232Y-122249156D01*
X211642335Y-122249156D01*
X211642335Y-122106259D01*
X211642335Y-121963361D01*
X211499437Y-121963361D01*
X211356540Y-121963361D01*
X211356540Y-121677567D01*
X211356540Y-121391772D01*
X211642335Y-121391772D01*
X211928129Y-121391772D01*
X211928129Y-121534669D01*
X211928129Y-121677567D01*
X212071027Y-121677567D01*
X212213924Y-121677567D01*
X212213924Y-121391772D01*
X212213924Y-121105977D01*
X212356821Y-121105977D01*
X212499719Y-121105977D01*
X212499719Y-121248875D01*
G37*
G36*
X209784669Y-120248594D02*
G01*
X211213643Y-120248594D01*
X211642335Y-120248594D01*
X212928411Y-120248594D01*
X213357103Y-120248594D01*
X213500000Y-120248594D01*
X213928692Y-120248594D01*
X215357665Y-120248594D01*
X217215330Y-120248594D01*
X218501406Y-120248594D01*
X218501406Y-125250000D01*
X218501406Y-130251406D01*
X213500000Y-130251406D01*
X208498594Y-130251406D01*
X208498594Y-127965049D01*
X208784388Y-127965049D01*
X208784388Y-128965330D01*
X208784388Y-129965612D01*
X209784669Y-129965612D01*
X210784951Y-129965612D01*
X210784951Y-128965330D01*
X210784951Y-127965049D01*
X209784669Y-127965049D01*
X208784388Y-127965049D01*
X208498594Y-127965049D01*
X208498594Y-127107665D01*
X208784388Y-127107665D01*
X208784388Y-127250563D01*
X208784388Y-127393460D01*
X208927285Y-127393460D01*
X209070183Y-127393460D01*
X209641772Y-127393460D01*
X209641772Y-127536357D01*
X209641772Y-127679255D01*
X209784669Y-127679255D01*
X209927567Y-127679255D01*
X209927567Y-127536357D01*
X209927567Y-127393460D01*
X210499156Y-127393460D01*
X210499156Y-127536357D01*
X210499156Y-127679255D01*
X210642053Y-127679255D01*
X210784951Y-127679255D01*
X210784951Y-127536357D01*
X210784951Y-127393460D01*
X210642053Y-127393460D01*
X210499156Y-127393460D01*
X209927567Y-127393460D01*
X209784669Y-127393460D01*
X209641772Y-127393460D01*
X209070183Y-127393460D01*
X209070183Y-127250563D01*
X209070183Y-127107665D01*
X208927285Y-127107665D01*
X208784388Y-127107665D01*
X208498594Y-127107665D01*
X208498594Y-125678692D01*
X208784388Y-125678692D01*
X208784388Y-126250281D01*
X208784388Y-126821871D01*
X208927285Y-126821871D01*
X209070183Y-126821871D01*
X209070183Y-126250281D01*
X209070183Y-125964487D01*
X209355977Y-125964487D01*
X209355977Y-126536076D01*
X209355977Y-127107665D01*
X209641772Y-127107665D01*
X209784669Y-127107665D01*
X209927567Y-127107665D01*
X209927567Y-126964768D01*
X209927567Y-126821871D01*
X210070464Y-126821871D01*
X210213361Y-126821871D01*
X210213361Y-126393179D01*
X210213361Y-125964487D01*
X209784669Y-125964487D01*
X209355977Y-125964487D01*
X209070183Y-125964487D01*
X209070183Y-125678692D01*
X208927285Y-125678692D01*
X208784388Y-125678692D01*
X208498594Y-125678692D01*
X208498594Y-125250000D01*
X208498594Y-123963924D01*
X208784388Y-123963924D01*
X208784388Y-124249719D01*
X208784388Y-124535513D01*
X208927285Y-124535513D01*
X209070183Y-124535513D01*
X209070183Y-124821308D01*
X209070183Y-125107103D01*
X208927285Y-125107103D01*
X208784388Y-125107103D01*
X208784388Y-125250000D01*
X208784388Y-125392897D01*
X208927285Y-125392897D01*
X209070183Y-125392897D01*
X209070183Y-125250000D01*
X209070183Y-125107103D01*
X209213080Y-125107103D01*
X209355977Y-125107103D01*
X209355977Y-124821308D01*
X209355977Y-124535513D01*
X209498875Y-124535513D01*
X209641772Y-124535513D01*
X209641772Y-125107103D01*
X209641772Y-125678692D01*
X209784669Y-125678692D01*
X209927567Y-125678692D01*
X210499156Y-125678692D01*
X210499156Y-125821589D01*
X210499156Y-125964487D01*
X210642053Y-125964487D01*
X210784951Y-125964487D01*
X210784951Y-125821589D01*
X210784951Y-125678692D01*
X210642053Y-125678692D01*
X210499156Y-125678692D01*
X209927567Y-125678692D01*
X209927567Y-125392897D01*
X209927567Y-125107103D01*
X210070464Y-125107103D01*
X210213361Y-125107103D01*
X210213361Y-125250000D01*
X210213361Y-125392897D01*
X210499156Y-125392897D01*
X210642053Y-125392897D01*
X210784951Y-125392897D01*
X210784951Y-125250000D01*
X210784951Y-125107103D01*
X210927848Y-125107103D01*
X211070745Y-125107103D01*
X211070745Y-125392897D01*
X211070745Y-125678692D01*
X211213643Y-125678692D01*
X211356540Y-125678692D01*
X211356540Y-125535795D01*
X211356540Y-125392897D01*
X211499437Y-125392897D01*
X211642335Y-125392897D01*
X211642335Y-125678692D01*
X211642335Y-125964487D01*
X211356540Y-125964487D01*
X211070745Y-125964487D01*
X211070745Y-126107384D01*
X211070745Y-126250281D01*
X210784951Y-126250281D01*
X210499156Y-126250281D01*
X210499156Y-126393179D01*
X210499156Y-126536076D01*
X210642053Y-126536076D01*
X210784951Y-126536076D01*
X210784951Y-126678973D01*
X210784951Y-126821871D01*
X210642053Y-126821871D01*
X210499156Y-126821871D01*
X210499156Y-126964768D01*
X210499156Y-127107665D01*
X210642053Y-127107665D01*
X210784951Y-127107665D01*
X210784951Y-126964768D01*
X210784951Y-126821871D01*
X210927848Y-126821871D01*
X211070745Y-126821871D01*
X211070745Y-126536076D01*
X211070745Y-126250281D01*
X211213643Y-126250281D01*
X211356540Y-126250281D01*
X211356540Y-126393179D01*
X211356540Y-126536076D01*
X211642335Y-126536076D01*
X211928129Y-126536076D01*
X211928129Y-126678973D01*
X211928129Y-126821871D01*
X211785232Y-126821871D01*
X211642335Y-126821871D01*
X211642335Y-126964768D01*
X211642335Y-127107665D01*
X211356540Y-127107665D01*
X211070745Y-127107665D01*
X211070745Y-127250563D01*
X211070745Y-127393460D01*
X211356540Y-127393460D01*
X211642335Y-127393460D01*
X211642335Y-127536357D01*
X211642335Y-127679255D01*
X211928129Y-127679255D01*
X212213924Y-127679255D01*
X212213924Y-127822152D01*
X212213924Y-127965049D01*
X212356821Y-127965049D01*
X212499719Y-127965049D01*
X212499719Y-128107947D01*
X212499719Y-128250844D01*
X212928411Y-128250844D01*
X213357103Y-128250844D01*
X213357103Y-128393741D01*
X213357103Y-128536639D01*
X213071308Y-128536639D01*
X212785513Y-128536639D01*
X212785513Y-128679536D01*
X212785513Y-128822433D01*
X212499719Y-128822433D01*
X212213924Y-128822433D01*
X212213924Y-128679536D01*
X212213924Y-128536639D01*
X211928129Y-128536639D01*
X211642335Y-128536639D01*
X211642335Y-128250844D01*
X211642335Y-127965049D01*
X211356540Y-127965049D01*
X211070745Y-127965049D01*
X211070745Y-128679536D01*
X211070745Y-129394022D01*
X211213643Y-129394022D01*
X211356540Y-129394022D01*
X211356540Y-129679817D01*
X211356540Y-129965612D01*
X211499437Y-129965612D01*
X211642335Y-129965612D01*
X211642335Y-129822714D01*
X211642335Y-129679817D01*
X211785232Y-129679817D01*
X211928129Y-129679817D01*
X211928129Y-129822714D01*
X211928129Y-129965612D01*
X212071027Y-129965612D01*
X212213924Y-129965612D01*
X212213924Y-129536920D01*
X212213924Y-129108228D01*
X212356821Y-129108228D01*
X212499719Y-129108228D01*
X212499719Y-129536920D01*
X212499719Y-129965612D01*
X212642616Y-129965612D01*
X212785513Y-129965612D01*
X212785513Y-129822714D01*
X212785513Y-129679817D01*
X212928411Y-129679817D01*
X213071308Y-129679817D01*
X213071308Y-129536920D01*
X213071308Y-129394022D01*
X213214205Y-129394022D01*
X213357103Y-129394022D01*
X213357103Y-129108228D01*
X213357103Y-128822433D01*
X213500000Y-128822433D01*
X213642897Y-128822433D01*
X213642897Y-129108228D01*
X213642897Y-129394022D01*
X213785795Y-129394022D01*
X213928692Y-129394022D01*
X213928692Y-129536920D01*
X213928692Y-129679817D01*
X213642897Y-129679817D01*
X213357103Y-129679817D01*
X213357103Y-129822714D01*
X213357103Y-129965612D01*
X213642897Y-129965612D01*
X213928692Y-129965612D01*
X213928692Y-129822714D01*
X213928692Y-129679817D01*
X214357384Y-129679817D01*
X214786076Y-129679817D01*
X214786076Y-129822714D01*
X214786076Y-129965612D01*
X214928973Y-129965612D01*
X215071871Y-129965612D01*
X215071871Y-129822714D01*
X215071871Y-129679817D01*
X215214768Y-129679817D01*
X215357665Y-129679817D01*
X215357665Y-129822714D01*
X215357665Y-129965612D01*
X215500563Y-129965612D01*
X215643460Y-129965612D01*
X215643460Y-129822714D01*
X215643460Y-129679817D01*
X215786357Y-129679817D01*
X215929255Y-129679817D01*
X215929255Y-129822714D01*
X215929255Y-129965612D01*
X216072152Y-129965612D01*
X216215049Y-129965612D01*
X216215049Y-129822714D01*
X216215049Y-129679817D01*
X216357947Y-129679817D01*
X216500844Y-129679817D01*
X216500844Y-129536920D01*
X216500844Y-129394022D01*
X216643741Y-129394022D01*
X216786639Y-129394022D01*
X216786639Y-129536920D01*
X216786639Y-129679817D01*
X216929536Y-129679817D01*
X217072433Y-129679817D01*
X217072433Y-129822714D01*
X217072433Y-129965612D01*
X217215330Y-129965612D01*
X217358228Y-129965612D01*
X217358228Y-129679817D01*
X217358228Y-129394022D01*
X217072433Y-129394022D01*
X216786639Y-129394022D01*
X216786639Y-129251125D01*
X216786639Y-129108228D01*
X217072433Y-129108228D01*
X217215330Y-129108228D01*
X217644022Y-129108228D01*
X217644022Y-129251125D01*
X217644022Y-129394022D01*
X217786920Y-129394022D01*
X217929817Y-129394022D01*
X217929817Y-129536920D01*
X217929817Y-129679817D01*
X218072714Y-129679817D01*
X218215612Y-129679817D01*
X218215612Y-129536920D01*
X218215612Y-129394022D01*
X218072714Y-129394022D01*
X217929817Y-129394022D01*
X217929817Y-128965330D01*
X217929817Y-128536639D01*
X218072714Y-128536639D01*
X218215612Y-128536639D01*
X218215612Y-127679255D01*
X218215612Y-126821871D01*
X218072714Y-126821871D01*
X217929817Y-126821871D01*
X217929817Y-126678973D01*
X217929817Y-126536076D01*
X217786920Y-126536076D01*
X217644022Y-126536076D01*
X217644022Y-126678973D01*
X217644022Y-126821871D01*
X217215330Y-126821871D01*
X216786639Y-126821871D01*
X216786639Y-126536076D01*
X216786639Y-126250281D01*
X216929536Y-126250281D01*
X217072433Y-126250281D01*
X217072433Y-126393179D01*
X217072433Y-126536076D01*
X217215330Y-126536076D01*
X217358228Y-126536076D01*
X217358228Y-126250281D01*
X217358228Y-125964487D01*
X217501125Y-125964487D01*
X217644022Y-125964487D01*
X217644022Y-126107384D01*
X217644022Y-126250281D01*
X217786920Y-126250281D01*
X217929817Y-126250281D01*
X217929817Y-126107384D01*
X217929817Y-125964487D01*
X217786920Y-125964487D01*
X217644022Y-125964487D01*
X217644022Y-125821589D01*
X217644022Y-125678692D01*
X217501125Y-125678692D01*
X217358228Y-125678692D01*
X217358228Y-125250000D01*
X217358228Y-125107103D01*
X217644022Y-125107103D01*
X217644022Y-125250000D01*
X217644022Y-125392897D01*
X217786920Y-125392897D01*
X217929817Y-125392897D01*
X217929817Y-125535795D01*
X217929817Y-125678692D01*
X218072714Y-125678692D01*
X218215612Y-125678692D01*
X218215612Y-125535795D01*
X218215612Y-125392897D01*
X218072714Y-125392897D01*
X217929817Y-125392897D01*
X217929817Y-125250000D01*
X217929817Y-125107103D01*
X217786920Y-125107103D01*
X217644022Y-125107103D01*
X217358228Y-125107103D01*
X217358228Y-124821308D01*
X217644022Y-124821308D01*
X217786920Y-124821308D01*
X217929817Y-124821308D01*
X217929817Y-124535513D01*
X217929817Y-124249719D01*
X217786920Y-124249719D01*
X217644022Y-124249719D01*
X217644022Y-123963924D01*
X217644022Y-123678129D01*
X217929817Y-123678129D01*
X218072714Y-123678129D01*
X218215612Y-123678129D01*
X218215612Y-123535232D01*
X218215612Y-123392335D01*
X218072714Y-123392335D01*
X217929817Y-123392335D01*
X217929817Y-123249437D01*
X217929817Y-123106540D01*
X218072714Y-123106540D01*
X218215612Y-123106540D01*
X218215612Y-122963643D01*
X218215612Y-122820745D01*
X218072714Y-122820745D01*
X217929817Y-122820745D01*
X217929817Y-122963643D01*
X217929817Y-123106540D01*
X217786920Y-123106540D01*
X217644022Y-123106540D01*
X217644022Y-122963643D01*
X217644022Y-122820745D01*
X217072433Y-122820745D01*
X216500844Y-122820745D01*
X216500844Y-122963643D01*
X216500844Y-123106540D01*
X216786639Y-123106540D01*
X217072433Y-123106540D01*
X217072433Y-123249437D01*
X217072433Y-123392335D01*
X217358228Y-123392335D01*
X217644022Y-123392335D01*
X217644022Y-123535232D01*
X217644022Y-123678129D01*
X217501125Y-123678129D01*
X217358228Y-123678129D01*
X217358228Y-123821027D01*
X217358228Y-123963924D01*
X217215330Y-123963924D01*
X217072433Y-123963924D01*
X217072433Y-123821027D01*
X217072433Y-123678129D01*
X216929536Y-123678129D01*
X216786639Y-123678129D01*
X216786639Y-123535232D01*
X216786639Y-123392335D01*
X216643741Y-123392335D01*
X216500844Y-123392335D01*
X216500844Y-123535232D01*
X216500844Y-123678129D01*
X216357947Y-123678129D01*
X216215049Y-123678129D01*
X216215049Y-123249437D01*
X216215049Y-122820745D01*
X216072152Y-122820745D01*
X215929255Y-122820745D01*
X215929255Y-122963643D01*
X215929255Y-123106540D01*
X215643460Y-123106540D01*
X215357665Y-123106540D01*
X215357665Y-123249437D01*
X215357665Y-123392335D01*
X215214768Y-123392335D01*
X215071871Y-123392335D01*
X215071871Y-123678129D01*
X215071871Y-123963924D01*
X214928973Y-123963924D01*
X214786076Y-123963924D01*
X214786076Y-123678129D01*
X214786076Y-123392335D01*
X214643179Y-123392335D01*
X214500281Y-123392335D01*
X214500281Y-123249437D01*
X214500281Y-123106540D01*
X214786076Y-123106540D01*
X215071871Y-123106540D01*
X215071871Y-122963643D01*
X215071871Y-122820745D01*
X214643179Y-122820745D01*
X214214487Y-122820745D01*
X214214487Y-122534951D01*
X214214487Y-122249156D01*
X214357384Y-122249156D01*
X214500281Y-122249156D01*
X214500281Y-122392053D01*
X214500281Y-122534951D01*
X214643179Y-122534951D01*
X214786076Y-122534951D01*
X214786076Y-122392053D01*
X214786076Y-122249156D01*
X214928973Y-122249156D01*
X215071871Y-122249156D01*
X215071871Y-122392053D01*
X215071871Y-122534951D01*
X215214768Y-122534951D01*
X215357665Y-122534951D01*
X215357665Y-122392053D01*
X215357665Y-122249156D01*
X215643460Y-122249156D01*
X215643460Y-122392053D01*
X215643460Y-122534951D01*
X215786357Y-122534951D01*
X215929255Y-122534951D01*
X215929255Y-122392053D01*
X215929255Y-122249156D01*
X215786357Y-122249156D01*
X215643460Y-122249156D01*
X215357665Y-122249156D01*
X215214768Y-122249156D01*
X215071871Y-122249156D01*
X215071871Y-122106259D01*
X215071871Y-121963361D01*
X214928973Y-121963361D01*
X214786076Y-121963361D01*
X214786076Y-121820464D01*
X214786076Y-121677567D01*
X214357384Y-121677567D01*
X213928692Y-121677567D01*
X213928692Y-121820464D01*
X213928692Y-121963361D01*
X213785795Y-121963361D01*
X213642897Y-121963361D01*
X213642897Y-121820464D01*
X213642897Y-121677567D01*
X213500000Y-121677567D01*
X213357103Y-121677567D01*
X213357103Y-121534669D01*
X213357103Y-121391772D01*
X213071308Y-121391772D01*
X212785513Y-121391772D01*
X212785513Y-121248875D01*
X212785513Y-121105977D01*
X212642616Y-121105977D01*
X212499719Y-121105977D01*
X212499719Y-120963080D01*
X212499719Y-120820183D01*
X212213924Y-120820183D01*
X211928129Y-120820183D01*
X211928129Y-120963080D01*
X211928129Y-121105977D01*
X211499437Y-121105977D01*
X211070745Y-121105977D01*
X211070745Y-121820464D01*
X211070745Y-122534951D01*
X211213643Y-122534951D01*
X211356540Y-122534951D01*
X211356540Y-122392053D01*
X211356540Y-122249156D01*
X211499437Y-122249156D01*
X211642335Y-122249156D01*
X211642335Y-122392053D01*
X211642335Y-122534951D01*
X211785232Y-122534951D01*
X211928129Y-122534951D01*
X211928129Y-122392053D01*
X211928129Y-122249156D01*
X212071027Y-122249156D01*
X212213924Y-122249156D01*
X212213924Y-122534951D01*
X212213924Y-122820745D01*
X211785232Y-122820745D01*
X211356540Y-122820745D01*
X211356540Y-122963643D01*
X211356540Y-123106540D01*
X211213643Y-123106540D01*
X211070745Y-123106540D01*
X211070745Y-122963643D01*
X211070745Y-122820745D01*
X210213361Y-122820745D01*
X209355977Y-122820745D01*
X209355977Y-122963643D01*
X209355977Y-123106540D01*
X209213080Y-123106540D01*
X209070183Y-123106540D01*
X209070183Y-123392335D01*
X209070183Y-123678129D01*
X209213080Y-123678129D01*
X209355977Y-123678129D01*
X209355977Y-123821027D01*
X209355977Y-123963924D01*
X209070183Y-123963924D01*
X208784388Y-123963924D01*
X208498594Y-123963924D01*
X208498594Y-120534388D01*
X208784388Y-120534388D01*
X208784388Y-121534669D01*
X208784388Y-122534951D01*
X209784669Y-122534951D01*
X210784951Y-122534951D01*
X210784951Y-121534669D01*
X210784951Y-120534388D01*
X211070745Y-120534388D01*
X211070745Y-120677285D01*
X211070745Y-120820183D01*
X211213643Y-120820183D01*
X211356540Y-120820183D01*
X211356540Y-120677285D01*
X211642335Y-120677285D01*
X211642335Y-120820183D01*
X211785232Y-120820183D01*
X211928129Y-120820183D01*
X211928129Y-120677285D01*
X211928129Y-120534388D01*
X212785513Y-120534388D01*
X212785513Y-120677285D01*
X212785513Y-120820183D01*
X212928411Y-120820183D01*
X213071308Y-120820183D01*
X213071308Y-120963080D01*
X213071308Y-121105977D01*
X213357103Y-121105977D01*
X213642897Y-121105977D01*
X213642897Y-121248875D01*
X213642897Y-121391772D01*
X213785795Y-121391772D01*
X213928692Y-121391772D01*
X213928692Y-121248875D01*
X213928692Y-121105977D01*
X214071589Y-121105977D01*
X214214487Y-121105977D01*
X214500281Y-121105977D01*
X214500281Y-121248875D01*
X214500281Y-121391772D01*
X214786076Y-121391772D01*
X215071871Y-121391772D01*
X215071871Y-121534669D01*
X215071871Y-121677567D01*
X215214768Y-121677567D01*
X215357665Y-121677567D01*
X215643460Y-121677567D01*
X215643460Y-121534669D01*
X215643460Y-121391772D01*
X215786357Y-121391772D01*
X215929255Y-121391772D01*
X215929255Y-121248875D01*
X215929255Y-121105977D01*
X215786357Y-121105977D01*
X215643460Y-121105977D01*
X215643460Y-121248875D01*
X215643460Y-121391772D01*
X215500563Y-121391772D01*
X215357665Y-121391772D01*
X215357665Y-121248875D01*
X215357665Y-121105977D01*
X214928973Y-121105977D01*
X214500281Y-121105977D01*
X214214487Y-121105977D01*
X214214487Y-120963080D01*
X214214487Y-120820183D01*
X214357384Y-120820183D01*
X214500281Y-120820183D01*
X214500281Y-120677285D01*
X214500281Y-120534388D01*
X214786076Y-120534388D01*
X214786076Y-120677285D01*
X214786076Y-120820183D01*
X214928973Y-120820183D01*
X215357665Y-120820183D01*
X215929255Y-120820183D01*
X215929255Y-120677285D01*
X215929255Y-120534388D01*
X216215049Y-120534388D01*
X216215049Y-121534669D01*
X216215049Y-122534951D01*
X217215330Y-122534951D01*
X218215612Y-122534951D01*
X218215612Y-121534669D01*
X218215612Y-120534388D01*
X217215330Y-120534388D01*
X216215049Y-120534388D01*
X215929255Y-120534388D01*
X215357665Y-120534388D01*
X214786076Y-120534388D01*
X214500281Y-120534388D01*
X214214487Y-120534388D01*
X213928692Y-120534388D01*
X213928692Y-120820183D01*
X213928692Y-121105977D01*
X213785795Y-121105977D01*
X213642897Y-121105977D01*
X213642897Y-120820183D01*
X213642897Y-120534388D01*
X213500000Y-120534388D01*
X213357103Y-120534388D01*
X213357103Y-120677285D01*
X213357103Y-120820183D01*
X213214205Y-120820183D01*
X213071308Y-120820183D01*
X213071308Y-120677285D01*
X213071308Y-120534388D01*
X212928411Y-120534388D01*
X212785513Y-120534388D01*
X211928129Y-120534388D01*
X211785232Y-120534388D01*
X211642335Y-120534388D01*
X211642335Y-120677285D01*
X211356540Y-120677285D01*
X211356540Y-120534388D01*
X211213643Y-120534388D01*
X211070745Y-120534388D01*
X210784951Y-120534388D01*
X209784669Y-120534388D01*
X208784388Y-120534388D01*
X208498594Y-120534388D01*
X208498594Y-120248594D01*
X209784669Y-120248594D01*
G37*
%TD*%
M02*
