%TF.GenerationSoftware,KiCad,Pcbnew,9.0.7*%
%TF.CreationDate,2026-01-05T21:06:01+01:00*%
%TF.ProjectId,pcb_phone_controller,7063625f-7068-46f6-9e65-5f636f6e7472,rev?*%
%TF.SameCoordinates,Original*%
%TF.FileFunction,Profile,NP*%
%FSLAX46Y46*%
G04 Gerber Fmt 4.6, Leading zero omitted, Abs format (unit mm)*
G04 Created by KiCad (PCBNEW 9.0.7) date 2026-01-05 21:06:01*
%MOMM*%
%LPD*%
G01*
G04 APERTURE LIST*
%TA.AperFunction,Profile*%
%ADD10C,0.200000*%
%TD*%
G04 APERTURE END LIST*
D10*
X176221362Y-106513175D02*
X175280050Y-106643005D01*
X124756295Y-106446124D02*
X123801999Y-106314504D01*
X165000000Y-124291938D02*
X190384124Y-124291938D01*
X118315876Y-121741937D02*
G75*
G02*
X117815876Y-122241876I-499976J37D01*
G01*
X115315876Y-122241938D02*
X117815875Y-122241938D01*
X119508681Y-100876911D02*
X115050881Y-100262071D01*
X107250000Y-146750000D02*
X107250000Y-146500000D01*
X222528629Y-102750000D02*
X222528629Y-102407617D01*
X115315876Y-106291938D02*
X114572673Y-103729248D01*
X131228928Y-95101863D02*
G75*
G02*
X130358034Y-102391595I-59344928J3392963D01*
G01*
X132350000Y-140500000D02*
X132350000Y-146841938D01*
X132350000Y-146841938D02*
X107250000Y-146750000D01*
X107250000Y-129000000D02*
X107250000Y-146500000D01*
X114572673Y-103729248D02*
X115050881Y-100262071D01*
X184949119Y-100262071D02*
X180491319Y-100876910D01*
X110608769Y-128991938D02*
X107250000Y-129000000D01*
X196504659Y-103715614D02*
X196846321Y-106192787D01*
X130358039Y-102391596D02*
G75*
G02*
X124756289Y-106446165I-4918639J898596D01*
G01*
X117815875Y-111241938D02*
G75*
G02*
X118315862Y-111741939I25J-499962D01*
G01*
X222528629Y-148341938D02*
X222528629Y-102750000D01*
X205988095Y-102407617D02*
X222250000Y-102407617D01*
X194684123Y-131241938D02*
G75*
G02*
X195184062Y-131741939I-23J-499962D01*
G01*
X135000000Y-140500000D02*
X135000000Y-110500000D01*
X169681641Y-102606559D02*
G75*
G02*
X168771067Y-95101863I58434359J10897659D01*
G01*
X192384124Y-131241938D02*
X192384124Y-126291937D01*
X222250000Y-102407617D02*
X222528629Y-102407617D01*
X115315876Y-124284831D02*
X110608769Y-128991938D01*
X175280050Y-106643005D02*
G75*
G02*
X169681650Y-102606557I-683150J4953105D01*
G01*
X115315876Y-124284831D02*
X115315876Y-122241938D01*
X115315876Y-111241938D02*
X115315876Y-106291938D01*
X194684123Y-131241938D02*
X192384124Y-131241938D01*
X135000000Y-140500000D02*
X132350000Y-140500000D01*
X118315876Y-111741938D02*
X118315876Y-121741937D01*
X196504659Y-103715614D02*
X205988095Y-102407617D01*
X165000000Y-124291938D02*
X165000000Y-110500000D01*
X123801999Y-106314504D02*
G75*
G02*
X119508619Y-100876904I683201J4953204D01*
G01*
X195184124Y-148341938D02*
X222528629Y-148341938D01*
X190927154Y-107009298D02*
G75*
G02*
X185290789Y-102739358I-683254J4953098D01*
G01*
X196846321Y-106192787D02*
X190927154Y-107009298D01*
X168771072Y-95101863D02*
X131228928Y-95101863D01*
X135000000Y-110500000D02*
X165000000Y-110500000D01*
X190384124Y-124291938D02*
G75*
G02*
X192384062Y-126291937I-24J-1999962D01*
G01*
X117815875Y-111241938D02*
X115315876Y-111241938D01*
X195184124Y-131741939D02*
X195184124Y-148341938D01*
X185290797Y-102739357D02*
X184949119Y-100262071D01*
X180491319Y-100876910D02*
G75*
G02*
X176221368Y-106513222I-4953119J-683190D01*
G01*
%TO.C,U1*%
X208481355Y-146313130D02*
X208481355Y-132313130D01*
X209481355Y-131313130D02*
X213481355Y-131313130D01*
X213481355Y-147313130D02*
X209481355Y-147313130D01*
X214481355Y-132313130D02*
X214481355Y-146313131D01*
X208481355Y-132313130D02*
G75*
G02*
X209481355Y-131313130I1000000J0D01*
G01*
X209481355Y-147313130D02*
G75*
G02*
X208481355Y-146313130I0J1000000D01*
G01*
X213481355Y-131313130D02*
G75*
G02*
X214481355Y-132313130I1J-999999D01*
G01*
X214481355Y-146313130D02*
G75*
G02*
X213481355Y-147313130I-999999J-1D01*
G01*
%TD*%
M02*
