M48
; DRILL file {KiCad 9.0.7} date 2026-01-16T16:20:34+0100
; FORMAT={-:-/ absolute / metric / decimal}
; #@! TF.CreationDate,2026-01-16T16:20:34+01:00
; #@! TF.GenerationSoftware,Kicad,Pcbnew,9.0.7
; #@! TF.FileFunction,Plated,1,2,PTH
FMAT,2
METRIC
; #@! TA.AperFunction,Plated,PTH,ViaDrill
T1C0.300
; #@! TA.AperFunction,Plated,PTH,ComponentDrill
T2C0.600
; #@! TA.AperFunction,Plated,PTH,ComponentDrill
T3C0.762
; #@! TA.AperFunction,Plated,PTH,ComponentDrill
T4C1.000
; #@! TA.AperFunction,Plated,PTH,ComponentDrill
T5C1.100
; #@! TA.AperFunction,Plated,PTH,ComponentDrill
T6C2.700
%
G90
G05
T1
X115.0Y-128.0
X119.4Y-109.3
X122.475Y-130.875
X123.0Y-111.5
X123.66Y-112.519
X125.5Y-113.75
X126.4Y-120.5
X126.75Y-111.25
X126.845Y-115.893
X128.0Y-119.25
X128.327Y-111.25
X130.862Y-114.65
X130.862Y-116.55
X132.85Y-111.225
X135.75Y-101.0
X136.912Y-107.162
X138.0Y-103.921
X143.9Y-103.1
X148.5Y-106.0
X150.25Y-98.0
X151.9Y-104.3
X157.5Y-105.75
X162.5Y-106.0
X166.0Y-111.0
X166.198Y-109.236
X168.0Y-122.25
X169.55Y-120.5
X170.0Y-111.75
X170.423Y-110.825
X171.5Y-119.5
X172.0Y-117.5
X173.5Y-113.75
X173.812Y-118.3
X177.436Y-120.0
X180.0Y-120.0
X180.0Y-122.5
X181.0Y-103.75
X181.75Y-106.5
X183.15Y-122.018
X184.754Y-122.595
X185.8Y-106.6
X188.047Y-119.767
X189.4Y-122.0
X190.329Y-110.549
X190.425Y-113.9
X192.79Y-122.267
X192.8Y-118.2
X193.4Y-130.0
X195.0Y-123.5
X195.042Y-126.858
X195.246Y-129.062
X197.564Y-122.111
X199.275Y-110.075
X199.3Y-131.8
X199.75Y-118.25
X199.8Y-133.8
X200.6Y-137.6
X200.723Y-131.2
X201.248Y-125.428
X201.3Y-131.9
X201.338Y-126.323
X201.6Y-121.0
X202.61Y-130.042
X202.61Y-131.312
X202.61Y-132.582
X202.61Y-135.122
X202.61Y-136.392
X203.2Y-124.8
X203.8Y-118.5
X203.8Y-123.2
X204.4Y-119.2
X206.0Y-115.65
X207.0Y-118.75
X207.5Y-124.6
X214.0Y-112.0
X217.514Y-134.786
X218.7Y-128.6
X220.39Y-137.662
T2
X116.403Y-101.358
X116.805Y-103.938
X117.889Y-101.563
X182.111Y-101.563
X183.195Y-103.938
X183.597Y-101.358
T3
X219.75Y-108.0
X219.75Y-110.5
X219.75Y-113.0
T4
X120.5Y-112.96
X120.5Y-115.5
X120.5Y-118.04
X120.5Y-120.58
X167.75Y-114.5
X167.75Y-117.3
X197.0Y-133.19
X197.0Y-135.73
X197.0Y-138.27
X197.0Y-140.81
X203.88Y-140.202
X203.88Y-142.742
X203.88Y-145.282
T5
X111.966Y-134.102
X111.966Y-139.182
X117.426Y-128.642
X117.426Y-144.642
X122.506Y-128.642
X122.506Y-144.642
X125.426Y-136.642
X130.506Y-136.642
X139.96Y-105.594
X145.04Y-105.594
X147.46Y-97.094
X152.54Y-97.094
X154.96Y-105.594
X160.04Y-105.594
X186.009Y-116.642
X191.089Y-116.642
X194.494Y-125.127
X194.518Y-108.504
X199.55Y-107.81
X199.574Y-125.127
X202.979Y-116.642
X208.059Y-116.642
T6
X113.1Y-143.7
X127.5Y-127.25
X164.75Y-98.25
X182.4Y-112.0
X206.75Y-105.5
M30
