%TF.GenerationSoftware,KiCad,Pcbnew,9.0.2*%
%TF.CreationDate,2025-07-08T14:50:53+02:00*%
%TF.ProjectId,FMControllerSeed,464d436f-6e74-4726-9f6c-6c6572536565,rev?*%
%TF.SameCoordinates,Original*%
%TF.FileFunction,Copper,L2,Inr*%
%TF.FilePolarity,Positive*%
%FSLAX46Y46*%
G04 Gerber Fmt 4.6, Leading zero omitted, Abs format (unit mm)*
G04 Created by KiCad (PCBNEW 9.0.2) date 2025-07-08 14:50:53*
%MOMM*%
%LPD*%
G01*
G04 APERTURE LIST*
%TA.AperFunction,ComponentPad*%
%ADD10C,2.100000*%
%TD*%
%TA.AperFunction,ComponentPad*%
%ADD11R,1.270000X1.270000*%
%TD*%
%TA.AperFunction,ComponentPad*%
%ADD12C,1.270000*%
%TD*%
%TA.AperFunction,ComponentPad*%
%ADD13C,2.000000*%
%TD*%
%TA.AperFunction,HeatsinkPad*%
%ADD14O,1.000000X2.100000*%
%TD*%
%TA.AperFunction,HeatsinkPad*%
%ADD15O,1.000000X1.800000*%
%TD*%
%TA.AperFunction,ViaPad*%
%ADD16C,0.600000*%
%TD*%
%TA.AperFunction,ViaPad*%
%ADD17C,1.000000*%
%TD*%
%TA.AperFunction,ViaPad*%
%ADD18C,0.800000*%
%TD*%
%TA.AperFunction,Conductor*%
%ADD19C,0.200000*%
%TD*%
%TA.AperFunction,Conductor*%
%ADD20C,0.500000*%
%TD*%
G04 APERTURE END LIST*
D10*
%TO.N,Column 1*%
%TO.C,StickL2*%
X144568248Y-74540000D03*
%TO.N,Net-(D1-Pad1)*%
X144568248Y-69460000D03*
%TD*%
%TO.N,Column 0*%
%TO.C,BumperL1*%
X139292937Y-83872751D03*
%TO.N,Net-(BumperL1-Pad2)*%
X139292937Y-78792751D03*
%TD*%
D11*
%TO.N,unconnected-(SW17-Pad1)*%
%TO.C,SW17*%
X205760000Y-118380000D03*
D12*
%TO.N,+BAT*%
X203260000Y-118380000D03*
%TO.N,Net-(U2-BAT+)*%
X200760000Y-118380000D03*
%TD*%
D13*
%TO.N,-BATT*%
%TO.C,U3*%
X75830000Y-116980000D03*
%TO.N,+BAT*%
X75830000Y-114180000D03*
%TD*%
%TO.N,-BATT*%
%TO.C,U2*%
X169480000Y-99630000D03*
%TO.N,Net-(U2-BAT+)*%
X172280000Y-99630000D03*
%TD*%
D10*
%TO.N,Column 2*%
%TO.C,BumperR1*%
X156775311Y-83872751D03*
%TO.N,Net-(BumperR1-Pad2)*%
X156775311Y-78792751D03*
%TD*%
%TO.N,Column 1*%
%TO.C,B1*%
X201012488Y-93182858D03*
%TO.N,Net-(B1-Pad2)*%
X206092488Y-93182858D03*
%TD*%
%TO.N,Column 1*%
%TO.C,Home1*%
X145494224Y-81486626D03*
%TO.N,Net-(D3-Pad2)*%
X150574224Y-81486626D03*
%TD*%
%TO.N,Column 3*%
%TO.C,StickR2*%
X151500000Y-74540000D03*
%TO.N,Net-(D2-Pad2)*%
X151500000Y-69460000D03*
%TD*%
%TO.N,Column 2*%
%TO.C,Start1*%
X155493736Y-90382830D03*
%TO.N,Net-(D4-Pad2)*%
X160573736Y-90382830D03*
%TD*%
%TO.N,Column 3*%
%TO.C,LEFT1*%
X107459565Y-113182532D03*
%TO.N,Net-(D8-Pad2)*%
X112539565Y-113182532D03*
%TD*%
%TO.N,Column 0*%
%TO.C,A1*%
X192527472Y-101667529D03*
%TO.N,Net-(A1-Pad2)*%
X197607472Y-101667529D03*
%TD*%
%TO.N,Column 1*%
%TO.C,RIGHT1*%
X123459348Y-113182532D03*
%TO.N,Net-(D7-Pad2)*%
X128539348Y-113182532D03*
%TD*%
%TO.N,Column 3*%
%TO.C,Y1*%
X192527797Y-84697516D03*
%TO.N,Net-(D6-Pad1)*%
X197607797Y-84697516D03*
%TD*%
D14*
%TO.N,GND*%
%TO.C,J1*%
X152353509Y-57113509D03*
D15*
X152353509Y-52933509D03*
D14*
X143713509Y-57113509D03*
D15*
X143713509Y-52933509D03*
%TD*%
D10*
%TO.N,Column 0*%
%TO.C,DOWN1*%
X115459348Y-121182532D03*
%TO.N,Net-(D7-Pad1)*%
X120539348Y-121182532D03*
%TD*%
%TO.N,Column 0*%
%TO.C,Select1*%
X135494224Y-90382341D03*
%TO.N,Net-(D3-Pad1)*%
X140574224Y-90382341D03*
%TD*%
%TO.N,Column 2*%
%TO.C,UP1*%
X115459022Y-105182858D03*
%TO.N,Net-(D8-Pad1)*%
X120539022Y-105182858D03*
%TD*%
%TO.N,Column 2*%
%TO.C,X1*%
X184041823Y-93182858D03*
%TO.N,Net-(D6-Pad2)*%
X189121823Y-93182858D03*
%TD*%
D13*
%TO.N,+3.3V*%
%TO.C,TriggerL1*%
X81500000Y-99000000D03*
%TO.N,GND*%
X79000000Y-99000000D03*
%TO.N,Net-(TriggerL1-OUT)*%
X76500000Y-99000000D03*
%TD*%
%TO.N,+3.3V*%
%TO.C,TriggerR1*%
X206017934Y-81930715D03*
%TO.N,GND*%
X203517934Y-81930715D03*
%TO.N,Net-(TriggerR1-OUT)*%
X201017934Y-81930715D03*
%TD*%
D16*
%TO.N,GND*%
X130000000Y-97500000D03*
X207500000Y-111000000D03*
D17*
X95680000Y-122700000D03*
D16*
%TO.N,Column 0*%
X131935735Y-100525735D03*
X117205735Y-116315735D03*
X137920000Y-87192000D03*
%TO.N,Column 1*%
X137700000Y-91133341D03*
X84920000Y-124750000D03*
X146160000Y-79500000D03*
X144520000Y-76470000D03*
%TO.N,+3.3V*%
X207500000Y-110000000D03*
D17*
X92480000Y-122700000D03*
D16*
X130065847Y-94750000D03*
%TO.N,Row 0*%
X137980000Y-84840000D03*
X129810000Y-90440000D03*
%TO.N,Row 1*%
X90000000Y-106970000D03*
X130115235Y-86746235D03*
%TO.N,Row 2*%
X82380000Y-124750000D03*
X148880000Y-92734341D03*
D18*
%TO.N,D-*%
X93240000Y-111270000D03*
D16*
X147630000Y-58696564D03*
D18*
%TO.N,VBUS*%
X148460000Y-60160000D03*
X107451340Y-115908660D03*
X98790000Y-122700000D03*
D16*
%TO.N,Net-(J1-CC1)*%
X149283509Y-59005830D03*
X150440000Y-61050000D03*
%TO.N,D+*%
X148283509Y-56799157D03*
D18*
X102187100Y-116090000D03*
D16*
%TO.N,Net-(J1-CC2)*%
X146565331Y-58924669D03*
X145480000Y-61050000D03*
%TO.N,Column 3*%
X133830000Y-90980000D03*
X81110000Y-124750000D03*
X143690000Y-82460000D03*
%TO.N,Net-(StickR1-Y)*%
X86190000Y-124750000D03*
X201440000Y-110060000D03*
%TO.N,Net-(TriggerR1-OUT)*%
X134096095Y-93196099D03*
X191500000Y-89840000D03*
%TO.N,Net-(BumperR1-Pad2)*%
X149830000Y-73910000D03*
%TO.N,Net-(D3-Pad2)*%
X149230000Y-88260000D03*
%TO.N,Net-(D6-Pad1)*%
X196557500Y-91417500D03*
%TD*%
D19*
%TO.N,D-*%
X147630000Y-58696564D02*
X147630000Y-58731370D01*
X144317100Y-85490000D02*
X132220000Y-85490000D01*
X147288000Y-82519100D02*
X144317100Y-85490000D01*
X106440000Y-111270000D02*
X93240000Y-111270000D01*
X147630000Y-58731370D02*
X147288000Y-59073370D01*
X132220000Y-85490000D02*
X106440000Y-111270000D01*
X147288000Y-59073370D02*
X147288000Y-82519100D01*
D20*
%TO.N,VBUS*%
X148240000Y-82913432D02*
X148240000Y-60380000D01*
X128140000Y-99704615D02*
X128140000Y-90916332D01*
X114040565Y-113804050D02*
X128140000Y-99704615D01*
X111936172Y-115908660D02*
X114040565Y-113804267D01*
X148240000Y-60380000D02*
X148460000Y-60160000D01*
X132614332Y-86442000D02*
X144711432Y-86442000D01*
X128140000Y-90916332D02*
X132614332Y-86442000D01*
X114040565Y-113804267D02*
X114040565Y-113804050D01*
X144711432Y-86442000D02*
X148240000Y-82913432D01*
X107451340Y-115908660D02*
X111936172Y-115908660D01*
D19*
%TO.N,Net-(J1-CC1)*%
X149283509Y-59005830D02*
X150440000Y-60162321D01*
X150440000Y-60162321D02*
X150440000Y-61050000D01*
%TO.N,D+*%
X148230000Y-56830000D02*
X148230000Y-58446621D01*
X148231000Y-58447621D02*
X148231000Y-58945507D01*
X148230000Y-58946507D02*
X148230000Y-59000000D01*
X148230000Y-58446621D02*
X148231000Y-58447621D01*
X148230000Y-59000000D02*
X147689000Y-59541000D01*
X147689000Y-82685200D02*
X144483200Y-85891000D01*
X148231000Y-58945507D02*
X148230000Y-58946507D01*
X147689000Y-59541000D02*
X147689000Y-82685200D01*
X132386100Y-85891000D02*
X102187100Y-116090000D01*
X144483200Y-85891000D02*
X132386100Y-85891000D01*
%TO.N,Net-(J1-CC2)*%
X146565331Y-58924669D02*
X145480000Y-60010000D01*
X145480000Y-60010000D02*
X145480000Y-61050000D01*
D20*
%TO.N,+BAT*%
X77620000Y-115990000D02*
X75830000Y-114200000D01*
X87692439Y-122569000D02*
X82410364Y-122569000D01*
X203260000Y-118380000D02*
X203260000Y-109442792D01*
X82410364Y-122569000D02*
X77620000Y-117778636D01*
X173600000Y-97880000D02*
X167660000Y-91940000D01*
X120271000Y-124049000D02*
X89172439Y-124049000D01*
X191697208Y-97880000D02*
X173600000Y-97880000D01*
X134130000Y-91940000D02*
X133140000Y-92930000D01*
X77620000Y-117778636D02*
X77620000Y-115990000D01*
X133140000Y-111180000D02*
X120271000Y-124049000D01*
X89172439Y-124049000D02*
X87692439Y-122569000D01*
X203260000Y-109442792D02*
X191697208Y-97880000D01*
X133140000Y-92930000D02*
X133140000Y-111180000D01*
X75830000Y-114200000D02*
X75830000Y-114180000D01*
X167660000Y-91940000D02*
X134130000Y-91940000D01*
%TO.N,Net-(U2-BAT+)*%
X200239000Y-108668586D02*
X200239000Y-117859000D01*
X187650000Y-99630000D02*
X192580000Y-104560000D01*
X196130414Y-104560000D02*
X200239000Y-108668586D01*
X192580000Y-104560000D02*
X196130414Y-104560000D01*
X172280000Y-99630000D02*
X187650000Y-99630000D01*
X200239000Y-117859000D02*
X200760000Y-118380000D01*
%TO.N,-BATT*%
X134856171Y-93640000D02*
X133841000Y-94655171D01*
X88882075Y-124750000D02*
X87402075Y-123270000D01*
X133841000Y-94655171D02*
X133841000Y-111470364D01*
X120561364Y-124750000D02*
X88882075Y-124750000D01*
X169480000Y-99630000D02*
X169480000Y-95441999D01*
X169480000Y-95441999D02*
X167678001Y-93640000D01*
X133841000Y-111470364D02*
X120561364Y-124750000D01*
X87402075Y-123270000D02*
X82120000Y-123270000D01*
X82120000Y-123270000D02*
X75830000Y-116980000D01*
X167678001Y-93640000D02*
X134856171Y-93640000D01*
%TD*%
%TA.AperFunction,Conductor*%
%TO.N,+3.3V*%
G36*
X149195703Y-74407851D02*
G01*
X149203758Y-74416126D01*
X149203903Y-74415982D01*
X149319707Y-74531786D01*
X149319711Y-74531789D01*
X149450814Y-74619390D01*
X149450827Y-74619397D01*
X149596498Y-74679735D01*
X149596503Y-74679737D01*
X149751153Y-74710499D01*
X149751156Y-74710500D01*
X149851272Y-74710500D01*
X149918311Y-74730185D01*
X149964066Y-74782989D01*
X149973745Y-74815102D01*
X149987678Y-74903072D01*
X150063097Y-75135187D01*
X150173896Y-75352642D01*
X150317339Y-75550076D01*
X150317343Y-75550081D01*
X150489918Y-75722656D01*
X150489923Y-75722660D01*
X150649827Y-75838836D01*
X150687361Y-75866106D01*
X150904815Y-75976904D01*
X151136924Y-76052321D01*
X151377973Y-76090500D01*
X151377974Y-76090500D01*
X151622026Y-76090500D01*
X151622027Y-76090500D01*
X151863076Y-76052321D01*
X152095185Y-75976904D01*
X152312639Y-75866106D01*
X152510083Y-75722655D01*
X152656067Y-75576671D01*
X152675503Y-75566058D01*
X152692237Y-75551558D01*
X152705568Y-75549641D01*
X152717390Y-75543186D01*
X152739476Y-75544765D01*
X152761395Y-75541614D01*
X152773646Y-75547209D01*
X152787082Y-75548170D01*
X152804808Y-75561440D01*
X152824951Y-75570639D01*
X152832233Y-75581970D01*
X152843015Y-75590042D01*
X152850752Y-75610787D01*
X152862725Y-75629417D01*
X152865876Y-75651335D01*
X152867432Y-75655506D01*
X152867748Y-75664352D01*
X152867748Y-75838836D01*
X152867064Y-75851843D01*
X152866522Y-75856978D01*
X152867707Y-75902941D01*
X152867748Y-75906136D01*
X152867748Y-75952099D01*
X152868423Y-75957230D01*
X152868424Y-75957233D01*
X152868429Y-75957272D01*
X152869239Y-75962397D01*
X152873530Y-75976904D01*
X152882732Y-76008016D01*
X152895041Y-76053954D01*
X152897661Y-76058492D01*
X152899149Y-76063523D01*
X152923151Y-76102725D01*
X152923985Y-76104087D01*
X152947768Y-76145280D01*
X152951476Y-76148988D01*
X152954213Y-76153458D01*
X152987509Y-76185080D01*
X152987531Y-76185101D01*
X152989804Y-76187316D01*
X153022335Y-76219847D01*
X153022341Y-76219850D01*
X153026425Y-76222984D01*
X153026459Y-76223010D01*
X153026497Y-76223039D01*
X153026509Y-76223047D01*
X153030677Y-76226078D01*
X153071034Y-76248011D01*
X153073823Y-76249574D01*
X153113657Y-76272572D01*
X153113658Y-76272572D01*
X153113661Y-76272574D01*
X153113663Y-76272574D01*
X153118430Y-76274549D01*
X153130193Y-76280162D01*
X155372462Y-77498787D01*
X155413661Y-77522574D01*
X155418723Y-77523930D01*
X155423326Y-77526432D01*
X155423329Y-77526433D01*
X155423331Y-77526434D01*
X155438479Y-77530077D01*
X155468046Y-77537188D01*
X155468047Y-77537188D01*
X155469583Y-77537557D01*
X155515521Y-77549867D01*
X155520763Y-77549867D01*
X155525861Y-77551093D01*
X155525862Y-77551092D01*
X155525863Y-77551093D01*
X155533940Y-77551945D01*
X155533827Y-77553009D01*
X155533951Y-77553039D01*
X155533915Y-77553186D01*
X155538091Y-77555586D01*
X155589120Y-77569147D01*
X155636225Y-77620751D01*
X155647953Y-77689629D01*
X155620581Y-77753914D01*
X155612483Y-77762840D01*
X155592655Y-77782668D01*
X155592650Y-77782674D01*
X155449207Y-77980108D01*
X155338408Y-78197563D01*
X155262989Y-78429678D01*
X155224811Y-78670724D01*
X155224811Y-78914777D01*
X155257445Y-79120821D01*
X155262990Y-79155827D01*
X155338407Y-79387936D01*
X155435680Y-79578846D01*
X155449207Y-79605393D01*
X155592650Y-79802827D01*
X155592654Y-79802832D01*
X155765229Y-79975407D01*
X155765234Y-79975411D01*
X155867517Y-80049723D01*
X155962672Y-80118857D01*
X156180126Y-80229655D01*
X156412235Y-80305072D01*
X156653284Y-80343251D01*
X156653285Y-80343251D01*
X156897337Y-80343251D01*
X156897338Y-80343251D01*
X157138387Y-80305072D01*
X157370496Y-80229655D01*
X157587950Y-80118857D01*
X157785394Y-79975406D01*
X157957966Y-79802834D01*
X157957966Y-79802833D01*
X157961411Y-79799389D01*
X157962537Y-79800515D01*
X158015188Y-79766145D01*
X158085056Y-79765647D01*
X158144102Y-79803001D01*
X158173580Y-79866348D01*
X158174401Y-79872993D01*
X158456497Y-82804617D01*
X158502954Y-83287416D01*
X158515522Y-83418021D01*
X158502349Y-83486638D01*
X158454170Y-83537240D01*
X158386282Y-83553762D01*
X158320239Y-83530958D01*
X158277008Y-83476068D01*
X158274161Y-83468216D01*
X158271329Y-83459500D01*
X158212215Y-83277566D01*
X158101417Y-83060112D01*
X158048555Y-82987353D01*
X157957971Y-82862674D01*
X157957967Y-82862669D01*
X157785392Y-82690094D01*
X157785387Y-82690090D01*
X157587953Y-82546647D01*
X157587952Y-82546646D01*
X157587950Y-82546645D01*
X157370496Y-82435847D01*
X157138387Y-82360430D01*
X157138385Y-82360429D01*
X157138383Y-82360429D01*
X156951402Y-82330814D01*
X156897338Y-82322251D01*
X156653284Y-82322251D01*
X156599220Y-82330814D01*
X156412238Y-82360429D01*
X156180123Y-82435848D01*
X155962668Y-82546647D01*
X155765234Y-82690090D01*
X155765229Y-82690094D01*
X155592654Y-82862669D01*
X155592650Y-82862674D01*
X155449207Y-83060108D01*
X155338408Y-83277563D01*
X155338407Y-83277565D01*
X155338407Y-83277566D01*
X155303109Y-83386201D01*
X155262989Y-83509678D01*
X155224811Y-83750724D01*
X155224811Y-83994777D01*
X155262989Y-84235823D01*
X155262989Y-84235825D01*
X155262990Y-84235827D01*
X155338407Y-84467936D01*
X155433387Y-84654346D01*
X155449207Y-84685393D01*
X155592650Y-84882827D01*
X155592654Y-84882832D01*
X155765229Y-85055407D01*
X155765234Y-85055411D01*
X155862727Y-85126243D01*
X155962672Y-85198857D01*
X156180126Y-85309655D01*
X156412235Y-85385072D01*
X156653284Y-85423251D01*
X156653285Y-85423251D01*
X156897337Y-85423251D01*
X156897338Y-85423251D01*
X157138387Y-85385072D01*
X157370496Y-85309655D01*
X157587950Y-85198857D01*
X157785394Y-85055406D01*
X157957966Y-84882834D01*
X158101417Y-84685390D01*
X158212215Y-84467936D01*
X158287632Y-84235827D01*
X158325811Y-83994778D01*
X158325811Y-83994771D01*
X158325829Y-83994658D01*
X158355758Y-83931524D01*
X158415069Y-83894592D01*
X158484932Y-83895590D01*
X158543165Y-83934200D01*
X158571279Y-83998163D01*
X158571732Y-84002179D01*
X158657115Y-84889500D01*
X158667748Y-84999999D01*
X158667748Y-85033504D01*
X158672776Y-85052271D01*
X158673763Y-85062529D01*
X158673764Y-85062530D01*
X158674639Y-85071620D01*
X158674640Y-85071626D01*
X158684283Y-85097421D01*
X158687907Y-85108742D01*
X158692596Y-85126239D01*
X158695041Y-85135364D01*
X158704759Y-85152196D01*
X158711564Y-85170400D01*
X158731015Y-85197673D01*
X158733993Y-85202831D01*
X158733993Y-85202833D01*
X158747277Y-85225840D01*
X158747768Y-85226690D01*
X158747770Y-85226692D01*
X158754219Y-85233141D01*
X158767492Y-85248821D01*
X158772789Y-85256248D01*
X158772796Y-85256256D01*
X158798645Y-85277567D01*
X158822335Y-85301257D01*
X158839165Y-85310973D01*
X158854162Y-85323338D01*
X158884648Y-85337233D01*
X158913661Y-85353984D01*
X158932433Y-85359014D01*
X158950119Y-85367075D01*
X158977298Y-85371624D01*
X158977300Y-85371625D01*
X158983165Y-85372606D01*
X159015521Y-85381277D01*
X159034955Y-85381277D01*
X159054124Y-85384486D01*
X159081549Y-85381847D01*
X159093425Y-85381277D01*
X167843748Y-85381277D01*
X167910787Y-85400962D01*
X167956542Y-85453766D01*
X167967748Y-85505277D01*
X167967748Y-88439055D01*
X167966386Y-88485958D01*
X167967748Y-88491703D01*
X167967748Y-88497605D01*
X167979418Y-88541162D01*
X167980299Y-88544649D01*
X167990711Y-88588571D01*
X167992795Y-88594047D01*
X167995038Y-88599459D01*
X168017595Y-88638530D01*
X168019348Y-88641671D01*
X168040766Y-88681387D01*
X168044188Y-88686125D01*
X168047769Y-88690792D01*
X168079669Y-88722692D01*
X168082177Y-88725274D01*
X169303603Y-90019757D01*
X169394814Y-90116423D01*
X169397767Y-90121538D01*
X169430952Y-90154723D01*
X169463136Y-90188832D01*
X169463138Y-90188833D01*
X169463140Y-90188835D01*
X169467681Y-90192534D01*
X169472331Y-90196102D01*
X169472334Y-90196105D01*
X169496857Y-90210263D01*
X169511410Y-90218665D01*
X169514473Y-90220492D01*
X169552892Y-90244187D01*
X169552898Y-90244189D01*
X169558258Y-90246593D01*
X169563654Y-90248829D01*
X169563660Y-90248832D01*
X169607272Y-90260517D01*
X169610687Y-90261485D01*
X169653917Y-90274426D01*
X169653926Y-90274426D01*
X169659719Y-90275360D01*
X169665518Y-90276124D01*
X169665520Y-90276125D01*
X169710616Y-90276125D01*
X169714213Y-90276176D01*
X169759327Y-90277487D01*
X169759327Y-90277486D01*
X169759330Y-90277487D01*
X169766366Y-90276768D01*
X169778976Y-90276125D01*
X177416028Y-90276125D01*
X177416521Y-90276125D01*
X177467509Y-90276567D01*
X177469198Y-90276128D01*
X177470962Y-90276129D01*
X177470973Y-90276125D01*
X177470974Y-90276126D01*
X177520270Y-90262917D01*
X177569601Y-90250155D01*
X177571126Y-90249291D01*
X177572829Y-90248835D01*
X177572831Y-90248833D01*
X177572834Y-90248833D01*
X177616711Y-90223499D01*
X177617483Y-90223058D01*
X178433745Y-89761153D01*
X190699500Y-89761153D01*
X190699500Y-89918846D01*
X190730261Y-90073489D01*
X190730264Y-90073501D01*
X190790602Y-90219172D01*
X190790609Y-90219185D01*
X190878210Y-90350288D01*
X190878213Y-90350292D01*
X190989707Y-90461786D01*
X190989711Y-90461789D01*
X191120814Y-90549390D01*
X191120827Y-90549397D01*
X191244992Y-90600827D01*
X191266503Y-90609737D01*
X191421153Y-90640499D01*
X191421156Y-90640500D01*
X191421158Y-90640500D01*
X191578844Y-90640500D01*
X191578845Y-90640499D01*
X191733497Y-90609737D01*
X191879179Y-90549394D01*
X192010289Y-90461789D01*
X192121789Y-90350289D01*
X192209394Y-90219179D01*
X192218952Y-90196105D01*
X192236093Y-90154722D01*
X192269737Y-90073497D01*
X192300500Y-89918842D01*
X192300500Y-89761158D01*
X192300500Y-89761155D01*
X192300499Y-89761153D01*
X192269737Y-89606503D01*
X192215319Y-89475125D01*
X192209397Y-89460827D01*
X192209390Y-89460814D01*
X192121789Y-89329711D01*
X192121786Y-89329707D01*
X192010292Y-89218213D01*
X192010288Y-89218210D01*
X191879185Y-89130609D01*
X191879172Y-89130602D01*
X191733501Y-89070264D01*
X191733489Y-89070261D01*
X191578845Y-89039500D01*
X191578842Y-89039500D01*
X191421158Y-89039500D01*
X191421155Y-89039500D01*
X191266510Y-89070261D01*
X191266498Y-89070264D01*
X191120827Y-89130602D01*
X191120814Y-89130609D01*
X190989711Y-89218210D01*
X190989707Y-89218213D01*
X190878213Y-89329707D01*
X190878210Y-89329711D01*
X190790609Y-89460814D01*
X190790602Y-89460827D01*
X190730264Y-89606498D01*
X190730261Y-89606510D01*
X190699500Y-89761153D01*
X178433745Y-89761153D01*
X186258808Y-85333120D01*
X186298845Y-85312448D01*
X186304602Y-85307206D01*
X186311379Y-85303372D01*
X186311378Y-85303372D01*
X186311381Y-85303371D01*
X186341846Y-85273426D01*
X186345246Y-85270210D01*
X187108485Y-84575489D01*
X190977297Y-84575489D01*
X190977297Y-84819542D01*
X191014654Y-85055407D01*
X191015476Y-85060592D01*
X191090893Y-85292701D01*
X191172959Y-85453766D01*
X191201693Y-85510158D01*
X191345136Y-85707592D01*
X191345140Y-85707597D01*
X191517715Y-85880172D01*
X191517720Y-85880176D01*
X191689933Y-86005295D01*
X191715158Y-86023622D01*
X191932612Y-86134420D01*
X192164721Y-86209837D01*
X192405770Y-86248016D01*
X192405771Y-86248016D01*
X192649823Y-86248016D01*
X192649824Y-86248016D01*
X192890873Y-86209837D01*
X193122982Y-86134420D01*
X193340436Y-86023622D01*
X193537880Y-85880171D01*
X193710452Y-85707599D01*
X193853903Y-85510155D01*
X193964701Y-85292701D01*
X194040118Y-85060592D01*
X194078297Y-84819543D01*
X194078297Y-84575489D01*
X196057297Y-84575489D01*
X196057297Y-84819542D01*
X196094654Y-85055407D01*
X196095476Y-85060592D01*
X196170893Y-85292701D01*
X196252959Y-85453766D01*
X196281693Y-85510158D01*
X196425136Y-85707592D01*
X196425140Y-85707597D01*
X196597715Y-85880172D01*
X196597720Y-85880176D01*
X196769933Y-86005295D01*
X196795158Y-86023622D01*
X197012612Y-86134420D01*
X197244721Y-86209837D01*
X197485770Y-86248016D01*
X197485771Y-86248016D01*
X197729823Y-86248016D01*
X197729824Y-86248016D01*
X197970873Y-86209837D01*
X198202982Y-86134420D01*
X198420436Y-86023622D01*
X198617880Y-85880171D01*
X198790452Y-85707599D01*
X198933903Y-85510155D01*
X199044701Y-85292701D01*
X199120118Y-85060592D01*
X199158297Y-84819543D01*
X199158297Y-84575489D01*
X199120118Y-84334440D01*
X199044701Y-84102331D01*
X198933903Y-83884877D01*
X198857626Y-83779890D01*
X198790457Y-83687439D01*
X198790453Y-83687434D01*
X198617878Y-83514859D01*
X198617873Y-83514855D01*
X198420439Y-83371412D01*
X198420438Y-83371411D01*
X198420436Y-83371410D01*
X198202982Y-83260612D01*
X197970873Y-83185195D01*
X197970871Y-83185194D01*
X197970869Y-83185194D01*
X197802566Y-83158537D01*
X197729824Y-83147016D01*
X197485770Y-83147016D01*
X197445634Y-83153373D01*
X197244724Y-83185194D01*
X197012609Y-83260613D01*
X196795154Y-83371412D01*
X196597720Y-83514855D01*
X196597715Y-83514859D01*
X196425140Y-83687434D01*
X196425136Y-83687439D01*
X196281693Y-83884873D01*
X196170894Y-84102328D01*
X196095475Y-84334443D01*
X196057297Y-84575489D01*
X194078297Y-84575489D01*
X194040118Y-84334440D01*
X193964701Y-84102331D01*
X193853903Y-83884877D01*
X193777626Y-83779890D01*
X193710457Y-83687439D01*
X193710453Y-83687434D01*
X193537878Y-83514859D01*
X193537873Y-83514855D01*
X193340439Y-83371412D01*
X193340438Y-83371411D01*
X193340436Y-83371410D01*
X193122982Y-83260612D01*
X192890873Y-83185195D01*
X192890871Y-83185194D01*
X192890869Y-83185194D01*
X192722566Y-83158537D01*
X192649824Y-83147016D01*
X192405770Y-83147016D01*
X192365634Y-83153373D01*
X192164724Y-83185194D01*
X191932609Y-83260613D01*
X191715154Y-83371412D01*
X191517720Y-83514855D01*
X191517715Y-83514859D01*
X191345140Y-83687434D01*
X191345136Y-83687439D01*
X191201693Y-83884873D01*
X191090894Y-84102328D01*
X191015475Y-84334443D01*
X190977297Y-84575489D01*
X187108485Y-84575489D01*
X190143850Y-81812617D01*
X199517434Y-81812617D01*
X199517434Y-82048812D01*
X199554380Y-82282083D01*
X199627367Y-82506711D01*
X199710202Y-82669282D01*
X199734591Y-82717148D01*
X199873417Y-82908225D01*
X200040424Y-83075232D01*
X200231501Y-83214058D01*
X200299657Y-83248785D01*
X200441937Y-83321281D01*
X200441939Y-83321281D01*
X200441942Y-83321283D01*
X200509365Y-83343190D01*
X200666565Y-83394268D01*
X200899837Y-83431215D01*
X200899842Y-83431215D01*
X201136031Y-83431215D01*
X201369302Y-83394268D01*
X201376762Y-83391844D01*
X201593926Y-83321283D01*
X201600042Y-83318167D01*
X201651958Y-83291714D01*
X201804367Y-83214058D01*
X201995444Y-83075232D01*
X202162451Y-82908225D01*
X202167616Y-82901116D01*
X202222946Y-82858450D01*
X202292559Y-82852471D01*
X202354354Y-82885077D01*
X202368252Y-82901116D01*
X202373417Y-82908225D01*
X202540424Y-83075232D01*
X202731501Y-83214058D01*
X202799657Y-83248785D01*
X202941937Y-83321281D01*
X202941939Y-83321281D01*
X202941942Y-83321283D01*
X203009365Y-83343190D01*
X203166565Y-83394268D01*
X203399837Y-83431215D01*
X203399842Y-83431215D01*
X203636031Y-83431215D01*
X203869302Y-83394268D01*
X203876762Y-83391844D01*
X204093926Y-83321283D01*
X204100042Y-83318167D01*
X204151958Y-83291714D01*
X204304367Y-83214058D01*
X204495444Y-83075232D01*
X204662451Y-82908225D01*
X204703319Y-82851974D01*
X204758645Y-82809311D01*
X204790477Y-82804617D01*
X205534971Y-82060123D01*
X205552009Y-82123708D01*
X205617835Y-82237722D01*
X205710927Y-82330814D01*
X205824941Y-82396640D01*
X205888524Y-82413677D01*
X205148827Y-83153373D01*
X205231762Y-83213629D01*
X205442131Y-83320817D01*
X205643361Y-83386201D01*
X205701036Y-83425638D01*
X205728235Y-83489997D01*
X205716320Y-83558843D01*
X205669076Y-83610319D01*
X205661339Y-83614616D01*
X205582182Y-83654949D01*
X205410213Y-83779890D01*
X205259890Y-83930213D01*
X205134951Y-84102179D01*
X205038444Y-84291585D01*
X204972753Y-84493760D01*
X204939500Y-84703713D01*
X204939500Y-84916286D01*
X204969072Y-85103000D01*
X204972754Y-85126243D01*
X205036794Y-85323338D01*
X205038444Y-85328414D01*
X205134951Y-85517820D01*
X205259890Y-85689786D01*
X205410213Y-85840109D01*
X205582179Y-85965048D01*
X205582181Y-85965049D01*
X205582184Y-85965051D01*
X205771588Y-86061557D01*
X205973757Y-86127246D01*
X206183713Y-86160500D01*
X206183714Y-86160500D01*
X206396286Y-86160500D01*
X206396287Y-86160500D01*
X206606243Y-86127246D01*
X206808412Y-86061557D01*
X206997816Y-85965051D01*
X207024402Y-85945735D01*
X207169786Y-85840109D01*
X207169788Y-85840106D01*
X207169792Y-85840104D01*
X207320104Y-85689792D01*
X207320106Y-85689788D01*
X207320109Y-85689786D01*
X207445048Y-85517820D01*
X207445047Y-85517820D01*
X207445051Y-85517816D01*
X207541557Y-85328412D01*
X207607246Y-85126243D01*
X207640500Y-84916287D01*
X207640500Y-84703713D01*
X207607246Y-84493757D01*
X207541557Y-84291588D01*
X207445051Y-84102184D01*
X207445049Y-84102181D01*
X207445048Y-84102179D01*
X207320109Y-83930213D01*
X207169786Y-83779890D01*
X206997820Y-83654951D01*
X206808414Y-83558444D01*
X206808413Y-83558443D01*
X206808412Y-83558443D01*
X206677266Y-83515831D01*
X206619592Y-83476395D01*
X206592394Y-83412036D01*
X206604309Y-83343190D01*
X206651553Y-83291714D01*
X206659291Y-83287416D01*
X206804097Y-83213633D01*
X206804103Y-83213629D01*
X206887038Y-83153373D01*
X206887039Y-83153373D01*
X206147342Y-82413677D01*
X206210927Y-82396640D01*
X206324941Y-82330814D01*
X206418033Y-82237722D01*
X206483859Y-82123708D01*
X206500896Y-82060124D01*
X207240592Y-82799820D01*
X207240592Y-82799819D01*
X207300848Y-82716884D01*
X207300852Y-82716878D01*
X207408036Y-82506517D01*
X207480999Y-82281962D01*
X207517934Y-82048767D01*
X207517934Y-81812662D01*
X207480999Y-81579467D01*
X207408036Y-81354912D01*
X207300848Y-81144543D01*
X207240592Y-81061609D01*
X207240592Y-81061608D01*
X206500896Y-81801305D01*
X206483859Y-81737722D01*
X206418033Y-81623708D01*
X206324941Y-81530616D01*
X206210927Y-81464790D01*
X206147343Y-81447752D01*
X206887039Y-80708055D01*
X206887038Y-80708053D01*
X206804108Y-80647802D01*
X206593736Y-80540612D01*
X206369181Y-80467649D01*
X206369182Y-80467649D01*
X206135986Y-80430715D01*
X205899882Y-80430715D01*
X205666686Y-80467649D01*
X205442131Y-80540612D01*
X205231764Y-80647799D01*
X205148828Y-80708055D01*
X205888525Y-81447752D01*
X205824941Y-81464790D01*
X205710927Y-81530616D01*
X205617835Y-81623708D01*
X205552009Y-81737722D01*
X205534971Y-81801305D01*
X204789744Y-81056078D01*
X204775796Y-81052292D01*
X204744986Y-81045820D01*
X204741295Y-81042929D01*
X204738758Y-81042241D01*
X204729607Y-81033775D01*
X204711614Y-81019683D01*
X204707198Y-81014794D01*
X204662451Y-80953205D01*
X204495444Y-80786198D01*
X204304367Y-80647372D01*
X204093930Y-80540148D01*
X203869302Y-80467161D01*
X203636031Y-80430215D01*
X203636026Y-80430215D01*
X203399842Y-80430215D01*
X203399837Y-80430215D01*
X203166565Y-80467161D01*
X202941937Y-80540148D01*
X202731500Y-80647372D01*
X202647981Y-80708053D01*
X202540424Y-80786198D01*
X202540422Y-80786200D01*
X202540421Y-80786200D01*
X202373416Y-80953205D01*
X202368249Y-80960318D01*
X202312917Y-81002981D01*
X202243304Y-81008957D01*
X202181510Y-80976349D01*
X202167619Y-80960318D01*
X202162451Y-80953205D01*
X201995446Y-80786200D01*
X201995444Y-80786198D01*
X201804367Y-80647372D01*
X201593930Y-80540148D01*
X201369302Y-80467161D01*
X201136031Y-80430215D01*
X201136026Y-80430215D01*
X200899842Y-80430215D01*
X200899837Y-80430215D01*
X200666565Y-80467161D01*
X200441937Y-80540148D01*
X200231500Y-80647372D01*
X200147981Y-80708053D01*
X200040424Y-80786198D01*
X200040422Y-80786200D01*
X200040421Y-80786200D01*
X199873419Y-80953202D01*
X199873419Y-80953203D01*
X199873417Y-80953205D01*
X199856602Y-80976349D01*
X199734591Y-81144281D01*
X199627367Y-81354718D01*
X199554380Y-81579346D01*
X199517434Y-81812617D01*
X190143850Y-81812617D01*
X191992180Y-80130216D01*
X192055007Y-80099648D01*
X192075648Y-80097918D01*
X208029029Y-80097918D01*
X208096068Y-80117603D01*
X208141823Y-80170407D01*
X208153029Y-80221918D01*
X208153029Y-110241598D01*
X208133344Y-110308637D01*
X208080540Y-110354392D01*
X208011382Y-110364336D01*
X207960139Y-110344700D01*
X207879190Y-110290612D01*
X207879172Y-110290602D01*
X207733501Y-110230264D01*
X207733489Y-110230261D01*
X207578845Y-110199500D01*
X207578842Y-110199500D01*
X207421158Y-110199500D01*
X207421155Y-110199500D01*
X207266510Y-110230261D01*
X207266498Y-110230264D01*
X207120827Y-110290602D01*
X207120814Y-110290609D01*
X206989711Y-110378210D01*
X206989707Y-110378213D01*
X206878213Y-110489707D01*
X206878210Y-110489711D01*
X206790609Y-110620814D01*
X206790602Y-110620827D01*
X206730264Y-110766498D01*
X206730261Y-110766510D01*
X206699500Y-110921153D01*
X206699500Y-111078846D01*
X206730261Y-111233489D01*
X206730264Y-111233501D01*
X206790602Y-111379172D01*
X206790609Y-111379185D01*
X206878210Y-111510288D01*
X206878213Y-111510292D01*
X206989707Y-111621786D01*
X206989711Y-111621789D01*
X207120814Y-111709390D01*
X207120827Y-111709397D01*
X207239135Y-111758401D01*
X207266503Y-111769737D01*
X207421153Y-111800499D01*
X207421156Y-111800500D01*
X207421158Y-111800500D01*
X207578844Y-111800500D01*
X207578845Y-111800499D01*
X207733497Y-111769737D01*
X207879179Y-111709394D01*
X207909286Y-111689277D01*
X207960138Y-111655299D01*
X208026815Y-111634421D01*
X208094195Y-111652905D01*
X208140886Y-111704884D01*
X208153029Y-111758401D01*
X208153029Y-121458200D01*
X208133344Y-121525239D01*
X208080540Y-121570994D01*
X208029029Y-121582200D01*
X198156961Y-121582200D01*
X198089922Y-121562515D01*
X198044167Y-121509711D01*
X198032961Y-121458200D01*
X198032961Y-107823277D01*
X198052646Y-107756238D01*
X198105450Y-107710483D01*
X198174608Y-107700539D01*
X198238164Y-107729564D01*
X198244642Y-107735596D01*
X199452181Y-108943135D01*
X199485666Y-109004458D01*
X199488500Y-109030816D01*
X199488500Y-117932918D01*
X199488500Y-117932920D01*
X199488499Y-117932920D01*
X199517340Y-118077907D01*
X199517343Y-118077917D01*
X199573913Y-118214490D01*
X199573914Y-118214492D01*
X199602339Y-118257033D01*
X199603589Y-118258903D01*
X199624480Y-118325577D01*
X199624500Y-118327813D01*
X199624500Y-118469366D01*
X199632473Y-118519704D01*
X199652460Y-118645898D01*
X199652460Y-118645901D01*
X199707689Y-118815878D01*
X199707691Y-118815881D01*
X199788833Y-118975132D01*
X199893889Y-119119728D01*
X200020272Y-119246111D01*
X200164868Y-119351167D01*
X200324119Y-119432309D01*
X200324121Y-119432310D01*
X200482670Y-119483825D01*
X200494103Y-119487540D01*
X200670634Y-119515500D01*
X200670635Y-119515500D01*
X200849365Y-119515500D01*
X200849366Y-119515500D01*
X201025897Y-119487540D01*
X201025900Y-119487539D01*
X201025901Y-119487539D01*
X201195878Y-119432310D01*
X201195878Y-119432309D01*
X201195881Y-119432309D01*
X201355132Y-119351167D01*
X201499728Y-119246111D01*
X201626111Y-119119728D01*
X201731167Y-118975132D01*
X201812309Y-118815881D01*
X201812310Y-118815878D01*
X201867539Y-118645901D01*
X201867539Y-118645900D01*
X201867540Y-118645897D01*
X201887527Y-118519703D01*
X201917456Y-118456569D01*
X201976768Y-118419638D01*
X202046630Y-118420636D01*
X202104863Y-118459246D01*
X202132472Y-118519703D01*
X202142527Y-118583185D01*
X202152460Y-118645898D01*
X202152460Y-118645901D01*
X202207689Y-118815878D01*
X202207691Y-118815881D01*
X202288833Y-118975132D01*
X202393889Y-119119728D01*
X202520272Y-119246111D01*
X202664868Y-119351167D01*
X202824119Y-119432309D01*
X202824121Y-119432310D01*
X202982670Y-119483825D01*
X202994103Y-119487540D01*
X203170634Y-119515500D01*
X203170635Y-119515500D01*
X203349365Y-119515500D01*
X203349366Y-119515500D01*
X203525897Y-119487540D01*
X203525900Y-119487539D01*
X203525901Y-119487539D01*
X203695878Y-119432310D01*
X203695878Y-119432309D01*
X203695881Y-119432309D01*
X203855132Y-119351167D01*
X203999728Y-119246111D01*
X204126111Y-119119728D01*
X204231167Y-118975132D01*
X204312309Y-118815881D01*
X204367540Y-118645897D01*
X204378028Y-118579677D01*
X204407955Y-118516547D01*
X204467266Y-118479615D01*
X204537129Y-118480612D01*
X204595362Y-118519222D01*
X204623477Y-118583185D01*
X204624500Y-118599079D01*
X204624500Y-119062870D01*
X204624501Y-119062876D01*
X204630908Y-119122483D01*
X204681202Y-119257328D01*
X204681206Y-119257335D01*
X204767452Y-119372544D01*
X204767455Y-119372547D01*
X204882664Y-119458793D01*
X204882671Y-119458797D01*
X205017517Y-119509091D01*
X205017516Y-119509091D01*
X205024444Y-119509835D01*
X205077127Y-119515500D01*
X206442872Y-119515499D01*
X206502483Y-119509091D01*
X206637331Y-119458796D01*
X206752546Y-119372546D01*
X206838796Y-119257331D01*
X206889091Y-119122483D01*
X206895500Y-119062873D01*
X206895499Y-117697128D01*
X206889091Y-117637517D01*
X206846998Y-117524661D01*
X206838797Y-117502671D01*
X206838793Y-117502664D01*
X206752547Y-117387455D01*
X206752544Y-117387452D01*
X206637335Y-117301206D01*
X206637328Y-117301202D01*
X206502482Y-117250908D01*
X206502483Y-117250908D01*
X206442883Y-117244501D01*
X206442881Y-117244500D01*
X206442873Y-117244500D01*
X206442864Y-117244500D01*
X205077129Y-117244500D01*
X205077123Y-117244501D01*
X205017516Y-117250908D01*
X204882671Y-117301202D01*
X204882664Y-117301206D01*
X204767455Y-117387452D01*
X204767452Y-117387455D01*
X204681206Y-117502664D01*
X204681202Y-117502671D01*
X204630908Y-117637517D01*
X204624501Y-117697116D01*
X204624501Y-117697123D01*
X204624500Y-117697135D01*
X204624500Y-118160918D01*
X204604815Y-118227957D01*
X204552011Y-118273712D01*
X204482853Y-118283656D01*
X204419297Y-118254631D01*
X204381523Y-118195853D01*
X204378027Y-118180315D01*
X204367540Y-118114103D01*
X204367539Y-118114098D01*
X204312310Y-117944121D01*
X204312308Y-117944118D01*
X204306603Y-117932920D01*
X204231167Y-117784868D01*
X204126111Y-117640272D01*
X204046819Y-117560980D01*
X204013334Y-117499657D01*
X204010500Y-117473299D01*
X204010500Y-109368871D01*
X203981659Y-109223884D01*
X203981658Y-109223883D01*
X203981658Y-109223879D01*
X203981656Y-109223874D01*
X203925087Y-109087303D01*
X203925080Y-109087290D01*
X203842952Y-108964377D01*
X203821710Y-108943135D01*
X203738416Y-108859841D01*
X198177831Y-103299256D01*
X198144346Y-103237933D01*
X198149330Y-103168241D01*
X198191202Y-103112308D01*
X198209212Y-103101092D01*
X198420111Y-102993635D01*
X198617555Y-102850184D01*
X198790127Y-102677612D01*
X198933578Y-102480168D01*
X199044376Y-102262714D01*
X199119793Y-102030605D01*
X199157972Y-101789556D01*
X199157972Y-101545502D01*
X199119793Y-101304453D01*
X199044376Y-101072344D01*
X198933578Y-100854890D01*
X198864073Y-100759224D01*
X198790132Y-100657452D01*
X198790128Y-100657447D01*
X198617553Y-100484872D01*
X198617548Y-100484868D01*
X198420114Y-100341425D01*
X198420113Y-100341424D01*
X198420111Y-100341423D01*
X198202657Y-100230625D01*
X197970548Y-100155208D01*
X197970546Y-100155207D01*
X197970544Y-100155207D01*
X197802241Y-100128550D01*
X197729499Y-100117029D01*
X197485445Y-100117029D01*
X197429565Y-100125879D01*
X197244399Y-100155207D01*
X197012284Y-100230626D01*
X196794829Y-100341425D01*
X196597395Y-100484868D01*
X196597390Y-100484872D01*
X196424815Y-100657447D01*
X196424811Y-100657452D01*
X196281368Y-100854886D01*
X196173910Y-101065783D01*
X196125935Y-101116579D01*
X196058114Y-101133374D01*
X195991979Y-101110836D01*
X195975744Y-101097169D01*
X192175623Y-97297047D01*
X192175621Y-97297045D01*
X192129691Y-97266357D01*
X192099069Y-97245897D01*
X192052703Y-97214916D01*
X192052702Y-97214915D01*
X192052700Y-97214914D01*
X192052698Y-97214913D01*
X191916125Y-97158343D01*
X191916115Y-97158340D01*
X191771128Y-97129500D01*
X191771126Y-97129500D01*
X173962229Y-97129500D01*
X173895190Y-97109815D01*
X173874548Y-97093181D01*
X170757890Y-93976522D01*
X170675081Y-93893713D01*
X172649500Y-93893713D01*
X172649500Y-94106287D01*
X172682754Y-94316243D01*
X172745372Y-94508961D01*
X172748444Y-94518414D01*
X172844951Y-94707820D01*
X172969890Y-94879786D01*
X173120213Y-95030109D01*
X173292179Y-95155048D01*
X173292181Y-95155049D01*
X173292184Y-95155051D01*
X173481588Y-95251557D01*
X173683757Y-95317246D01*
X173893713Y-95350500D01*
X173893714Y-95350500D01*
X174106286Y-95350500D01*
X174106287Y-95350500D01*
X174316243Y-95317246D01*
X174518412Y-95251557D01*
X174707816Y-95155051D01*
X174742906Y-95129557D01*
X174879786Y-95030109D01*
X174879788Y-95030106D01*
X174879792Y-95030104D01*
X175030104Y-94879792D01*
X175030106Y-94879788D01*
X175030109Y-94879786D01*
X175155048Y-94707820D01*
X175155047Y-94707820D01*
X175155051Y-94707816D01*
X175251557Y-94518412D01*
X175317246Y-94316243D01*
X175350500Y-94106287D01*
X175350500Y-93893713D01*
X175317246Y-93683757D01*
X175251557Y-93481588D01*
X175155051Y-93292184D01*
X175114769Y-93236740D01*
X175036379Y-93128844D01*
X175036377Y-93128842D01*
X175030105Y-93120209D01*
X174970727Y-93060831D01*
X182491323Y-93060831D01*
X182491323Y-93304885D01*
X182497067Y-93341148D01*
X182523997Y-93511182D01*
X182529502Y-93545934D01*
X182535769Y-93565223D01*
X182604920Y-93778045D01*
X182715719Y-93995500D01*
X182859162Y-94192934D01*
X182859166Y-94192939D01*
X183031741Y-94365514D01*
X183031746Y-94365518D01*
X183203959Y-94490637D01*
X183229184Y-94508964D01*
X183446638Y-94619762D01*
X183678747Y-94695179D01*
X183919796Y-94733358D01*
X183919797Y-94733358D01*
X184163849Y-94733358D01*
X184163850Y-94733358D01*
X184404899Y-94695179D01*
X184637008Y-94619762D01*
X184854462Y-94508964D01*
X185051906Y-94365513D01*
X185224478Y-94192941D01*
X185367929Y-93995497D01*
X185478727Y-93778043D01*
X185554144Y-93545934D01*
X185592323Y-93304885D01*
X185592323Y-93128657D01*
X186172466Y-93128657D01*
X186172466Y-93236743D01*
X186200441Y-93341147D01*
X186200442Y-93341148D01*
X186200444Y-93341153D01*
X186254479Y-93434746D01*
X186254483Y-93434751D01*
X186254484Y-93434753D01*
X186330913Y-93511182D01*
X186330915Y-93511183D01*
X186330919Y-93511186D01*
X186424512Y-93565221D01*
X186424519Y-93565225D01*
X186528923Y-93593200D01*
X186528925Y-93593200D01*
X186637006Y-93593200D01*
X186637009Y-93593200D01*
X186741413Y-93565225D01*
X186835019Y-93511182D01*
X186911448Y-93434753D01*
X186965491Y-93341147D01*
X186993466Y-93236743D01*
X186993466Y-93128657D01*
X186975292Y-93060831D01*
X187571323Y-93060831D01*
X187571323Y-93304885D01*
X187577067Y-93341148D01*
X187603997Y-93511182D01*
X187609502Y-93545934D01*
X187615769Y-93565223D01*
X187684920Y-93778045D01*
X187795719Y-93995500D01*
X187939162Y-94192934D01*
X187939166Y-94192939D01*
X188111741Y-94365514D01*
X188111746Y-94365518D01*
X188283959Y-94490637D01*
X188309184Y-94508964D01*
X188526638Y-94619762D01*
X188758747Y-94695179D01*
X188999796Y-94733358D01*
X188999797Y-94733358D01*
X189243849Y-94733358D01*
X189243850Y-94733358D01*
X189484899Y-94695179D01*
X189717008Y-94619762D01*
X189934462Y-94508964D01*
X190131906Y-94365513D01*
X190304478Y-94192941D01*
X190447929Y-93995497D01*
X190558727Y-93778043D01*
X190634144Y-93545934D01*
X190672323Y-93304885D01*
X190672323Y-93060831D01*
X199461988Y-93060831D01*
X199461988Y-93304885D01*
X199467732Y-93341148D01*
X199494662Y-93511182D01*
X199500167Y-93545934D01*
X199506434Y-93565223D01*
X199575585Y-93778045D01*
X199686384Y-93995500D01*
X199829827Y-94192934D01*
X199829831Y-94192939D01*
X200002406Y-94365514D01*
X200002411Y-94365518D01*
X200174624Y-94490637D01*
X200199849Y-94508964D01*
X200417303Y-94619762D01*
X200649412Y-94695179D01*
X200890461Y-94733358D01*
X200890462Y-94733358D01*
X201134514Y-94733358D01*
X201134515Y-94733358D01*
X201375564Y-94695179D01*
X201607673Y-94619762D01*
X201825127Y-94508964D01*
X202022571Y-94365513D01*
X202195143Y-94192941D01*
X202338594Y-93995497D01*
X202449392Y-93778043D01*
X202524809Y-93545934D01*
X202562988Y-93304885D01*
X202562988Y-93060831D01*
X204541988Y-93060831D01*
X204541988Y-93304885D01*
X204547732Y-93341148D01*
X204574662Y-93511182D01*
X204580167Y-93545934D01*
X204586434Y-93565223D01*
X204655585Y-93778045D01*
X204766384Y-93995500D01*
X204909827Y-94192934D01*
X204909831Y-94192939D01*
X205082406Y-94365514D01*
X205082411Y-94365518D01*
X205254624Y-94490637D01*
X205279849Y-94508964D01*
X205497303Y-94619762D01*
X205729412Y-94695179D01*
X205970461Y-94733358D01*
X205970462Y-94733358D01*
X206214514Y-94733358D01*
X206214515Y-94733358D01*
X206455564Y-94695179D01*
X206687673Y-94619762D01*
X206905127Y-94508964D01*
X207102571Y-94365513D01*
X207275143Y-94192941D01*
X207418594Y-93995497D01*
X207529392Y-93778043D01*
X207604809Y-93545934D01*
X207642988Y-93304885D01*
X207642988Y-93060831D01*
X207604809Y-92819782D01*
X207529392Y-92587673D01*
X207418594Y-92370219D01*
X207308001Y-92218000D01*
X207275148Y-92172781D01*
X207275144Y-92172776D01*
X207102569Y-92000201D01*
X207102564Y-92000197D01*
X206905130Y-91856754D01*
X206905129Y-91856753D01*
X206905127Y-91856752D01*
X206687673Y-91745954D01*
X206455564Y-91670537D01*
X206455562Y-91670536D01*
X206455560Y-91670536D01*
X206241859Y-91636689D01*
X206214515Y-91632358D01*
X205970461Y-91632358D01*
X205943117Y-91636689D01*
X205729415Y-91670536D01*
X205497300Y-91745955D01*
X205279845Y-91856754D01*
X205082411Y-92000197D01*
X205082406Y-92000201D01*
X204909831Y-92172776D01*
X204909827Y-92172781D01*
X204766384Y-92370215D01*
X204655585Y-92587670D01*
X204580166Y-92819785D01*
X204562607Y-92930647D01*
X204541988Y-93060831D01*
X202562988Y-93060831D01*
X202524809Y-92819782D01*
X202449392Y-92587673D01*
X202338594Y-92370219D01*
X202228001Y-92218000D01*
X202195148Y-92172781D01*
X202195144Y-92172776D01*
X202022569Y-92000201D01*
X202022564Y-92000197D01*
X201825130Y-91856754D01*
X201825129Y-91856753D01*
X201825127Y-91856752D01*
X201607673Y-91745954D01*
X201375564Y-91670537D01*
X201375562Y-91670536D01*
X201375560Y-91670536D01*
X201161859Y-91636689D01*
X201134515Y-91632358D01*
X200890461Y-91632358D01*
X200863117Y-91636689D01*
X200649415Y-91670536D01*
X200417300Y-91745955D01*
X200199845Y-91856754D01*
X200002411Y-92000197D01*
X200002406Y-92000201D01*
X199829831Y-92172776D01*
X199829827Y-92172781D01*
X199686384Y-92370215D01*
X199575585Y-92587670D01*
X199500166Y-92819785D01*
X199482607Y-92930647D01*
X199461988Y-93060831D01*
X190672323Y-93060831D01*
X190634144Y-92819782D01*
X190558727Y-92587673D01*
X190447929Y-92370219D01*
X190337336Y-92218000D01*
X190304483Y-92172781D01*
X190304479Y-92172776D01*
X190131904Y-92000201D01*
X190131899Y-92000197D01*
X189934465Y-91856754D01*
X189934464Y-91856753D01*
X189934462Y-91856752D01*
X189717008Y-91745954D01*
X189484899Y-91670537D01*
X189484897Y-91670536D01*
X189484895Y-91670536D01*
X189271194Y-91636689D01*
X189243850Y-91632358D01*
X188999796Y-91632358D01*
X188972452Y-91636689D01*
X188758750Y-91670536D01*
X188526635Y-91745955D01*
X188309180Y-91856754D01*
X188111746Y-92000197D01*
X188111741Y-92000201D01*
X187939166Y-92172776D01*
X187939162Y-92172781D01*
X187795719Y-92370215D01*
X187684920Y-92587670D01*
X187609501Y-92819785D01*
X187591942Y-92930647D01*
X187571323Y-93060831D01*
X186975292Y-93060831D01*
X186965491Y-93024253D01*
X186965487Y-93024246D01*
X186911452Y-92930653D01*
X186911446Y-92930645D01*
X186835020Y-92854219D01*
X186835012Y-92854213D01*
X186741419Y-92800178D01*
X186741416Y-92800176D01*
X186741413Y-92800175D01*
X186637009Y-92772200D01*
X186528923Y-92772200D01*
X186424519Y-92800175D01*
X186424517Y-92800175D01*
X186424517Y-92800176D01*
X186424512Y-92800178D01*
X186330919Y-92854213D01*
X186330911Y-92854219D01*
X186254485Y-92930645D01*
X186254479Y-92930653D01*
X186200444Y-93024246D01*
X186200441Y-93024251D01*
X186200441Y-93024253D01*
X186172466Y-93128657D01*
X185592323Y-93128657D01*
X185592323Y-93060831D01*
X185554144Y-92819782D01*
X185478727Y-92587673D01*
X185367929Y-92370219D01*
X185257336Y-92218000D01*
X185224483Y-92172781D01*
X185224479Y-92172776D01*
X185051904Y-92000201D01*
X185051899Y-92000197D01*
X184854465Y-91856754D01*
X184854464Y-91856753D01*
X184854462Y-91856752D01*
X184637008Y-91745954D01*
X184404899Y-91670537D01*
X184404897Y-91670536D01*
X184404895Y-91670536D01*
X184191194Y-91636689D01*
X184163850Y-91632358D01*
X183919796Y-91632358D01*
X183892452Y-91636689D01*
X183678750Y-91670536D01*
X183446635Y-91745955D01*
X183229180Y-91856754D01*
X183031746Y-92000197D01*
X183031741Y-92000201D01*
X182859166Y-92172776D01*
X182859162Y-92172781D01*
X182715719Y-92370215D01*
X182604920Y-92587670D01*
X182529501Y-92819785D01*
X182511942Y-92930647D01*
X182491323Y-93060831D01*
X174970727Y-93060831D01*
X174879786Y-92969890D01*
X174707820Y-92844951D01*
X174518414Y-92748444D01*
X174518413Y-92748443D01*
X174518412Y-92748443D01*
X174316243Y-92682754D01*
X174316241Y-92682753D01*
X174316240Y-92682753D01*
X174154957Y-92657208D01*
X174106287Y-92649500D01*
X173893713Y-92649500D01*
X173845042Y-92657208D01*
X173683760Y-92682753D01*
X173481585Y-92748444D01*
X173292179Y-92844951D01*
X173120213Y-92969890D01*
X172969890Y-93120213D01*
X172844951Y-93292179D01*
X172748444Y-93481585D01*
X172682753Y-93683760D01*
X172667820Y-93778043D01*
X172649500Y-93893713D01*
X170675081Y-93893713D01*
X168201616Y-91420247D01*
X168138421Y-91357052D01*
X168138414Y-91357046D01*
X168110887Y-91338653D01*
X195757000Y-91338653D01*
X195757000Y-91496346D01*
X195787761Y-91650989D01*
X195787764Y-91651001D01*
X195848102Y-91796672D01*
X195848109Y-91796685D01*
X195935710Y-91927788D01*
X195935713Y-91927792D01*
X196047207Y-92039286D01*
X196047211Y-92039289D01*
X196178314Y-92126890D01*
X196178327Y-92126897D01*
X196323998Y-92187235D01*
X196324003Y-92187237D01*
X196478653Y-92217999D01*
X196478656Y-92218000D01*
X196478658Y-92218000D01*
X196636344Y-92218000D01*
X196636345Y-92217999D01*
X196790997Y-92187237D01*
X196936679Y-92126894D01*
X197067789Y-92039289D01*
X197179289Y-91927789D01*
X197266894Y-91796679D01*
X197327237Y-91650997D01*
X197358000Y-91496342D01*
X197358000Y-91338658D01*
X197358000Y-91338655D01*
X197357999Y-91338653D01*
X197327237Y-91184003D01*
X197283278Y-91077875D01*
X197266897Y-91038327D01*
X197266890Y-91038314D01*
X197179289Y-90907211D01*
X197179286Y-90907207D01*
X197067792Y-90795713D01*
X197067788Y-90795710D01*
X196936685Y-90708109D01*
X196936672Y-90708102D01*
X196791001Y-90647764D01*
X196790989Y-90647761D01*
X196636345Y-90617000D01*
X196636342Y-90617000D01*
X196478658Y-90617000D01*
X196478655Y-90617000D01*
X196324010Y-90647761D01*
X196323998Y-90647764D01*
X196178327Y-90708102D01*
X196178314Y-90708109D01*
X196047211Y-90795710D01*
X196047207Y-90795713D01*
X195935713Y-90907207D01*
X195935710Y-90907211D01*
X195848109Y-91038314D01*
X195848102Y-91038327D01*
X195787764Y-91183998D01*
X195787761Y-91184010D01*
X195757000Y-91338653D01*
X168110887Y-91338653D01*
X168064729Y-91307812D01*
X168064729Y-91307813D01*
X168015491Y-91274913D01*
X167878917Y-91218343D01*
X167878907Y-91218340D01*
X167733920Y-91189500D01*
X167733918Y-91189500D01*
X162105233Y-91189500D01*
X162038194Y-91169815D01*
X161992439Y-91117011D01*
X161982495Y-91047853D01*
X161994748Y-91009205D01*
X162002452Y-90994084D01*
X162010640Y-90978015D01*
X162086057Y-90745906D01*
X162124236Y-90504857D01*
X162124236Y-90260803D01*
X162086057Y-90019754D01*
X162010640Y-89787645D01*
X161899842Y-89570191D01*
X161820385Y-89460827D01*
X161756396Y-89372753D01*
X161756392Y-89372748D01*
X161583817Y-89200173D01*
X161583812Y-89200169D01*
X161386378Y-89056726D01*
X161386377Y-89056725D01*
X161386375Y-89056724D01*
X161168921Y-88945926D01*
X160936812Y-88870509D01*
X160936810Y-88870508D01*
X160936808Y-88870508D01*
X160768505Y-88843851D01*
X160695763Y-88832330D01*
X160451709Y-88832330D01*
X160395829Y-88841180D01*
X160210663Y-88870508D01*
X159978548Y-88945927D01*
X159761093Y-89056726D01*
X159563659Y-89200169D01*
X159563654Y-89200173D01*
X159391079Y-89372748D01*
X159391075Y-89372753D01*
X159247632Y-89570187D01*
X159136833Y-89787642D01*
X159061414Y-90019757D01*
X159023313Y-90260314D01*
X159023236Y-90260803D01*
X159023236Y-90504857D01*
X159030290Y-90549394D01*
X159061337Y-90745417D01*
X159061415Y-90745906D01*
X159127824Y-90950292D01*
X159136833Y-90978017D01*
X159152724Y-91009205D01*
X159165620Y-91077874D01*
X159139344Y-91142615D01*
X159082237Y-91182872D01*
X159042239Y-91189500D01*
X157025233Y-91189500D01*
X156958194Y-91169815D01*
X156912439Y-91117011D01*
X156902495Y-91047853D01*
X156914748Y-91009205D01*
X156922452Y-90994084D01*
X156930640Y-90978015D01*
X157006057Y-90745906D01*
X157044236Y-90504857D01*
X157044236Y-90260803D01*
X157006057Y-90019754D01*
X156930640Y-89787645D01*
X156819842Y-89570191D01*
X156740385Y-89460827D01*
X156676396Y-89372753D01*
X156676392Y-89372748D01*
X156503817Y-89200173D01*
X156503812Y-89200169D01*
X156306378Y-89056726D01*
X156306377Y-89056725D01*
X156306375Y-89056724D01*
X156088921Y-88945926D01*
X155856812Y-88870509D01*
X155856810Y-88870508D01*
X155856808Y-88870508D01*
X155688505Y-88843851D01*
X155615763Y-88832330D01*
X155371709Y-88832330D01*
X155315829Y-88841180D01*
X155130663Y-88870508D01*
X154898548Y-88945927D01*
X154681093Y-89056726D01*
X154483659Y-89200169D01*
X154483654Y-89200173D01*
X154311079Y-89372748D01*
X154311075Y-89372753D01*
X154167632Y-89570187D01*
X154056833Y-89787642D01*
X153981414Y-90019757D01*
X153943313Y-90260314D01*
X153943236Y-90260803D01*
X153943236Y-90504857D01*
X153950290Y-90549394D01*
X153981337Y-90745417D01*
X153981415Y-90745906D01*
X154047824Y-90950292D01*
X154056833Y-90978017D01*
X154072724Y-91009205D01*
X154085620Y-91077874D01*
X154059344Y-91142615D01*
X154002237Y-91182872D01*
X153962239Y-91189500D01*
X142105472Y-91189500D01*
X142038433Y-91169815D01*
X141992678Y-91117011D01*
X141982734Y-91047853D01*
X141994987Y-91009205D01*
X142002691Y-90994084D01*
X142011128Y-90977526D01*
X142086545Y-90745417D01*
X142124724Y-90504368D01*
X142124724Y-90260314D01*
X142086545Y-90019265D01*
X142011128Y-89787156D01*
X141900330Y-89569702D01*
X141882003Y-89544477D01*
X141756884Y-89372264D01*
X141756880Y-89372259D01*
X141584305Y-89199684D01*
X141584300Y-89199680D01*
X141386866Y-89056237D01*
X141386865Y-89056236D01*
X141386863Y-89056235D01*
X141169409Y-88945437D01*
X140937300Y-88870020D01*
X140937298Y-88870019D01*
X140937296Y-88870019D01*
X140768993Y-88843362D01*
X140696251Y-88831841D01*
X140452197Y-88831841D01*
X140396317Y-88840691D01*
X140211151Y-88870019D01*
X139979036Y-88945438D01*
X139761581Y-89056237D01*
X139564147Y-89199680D01*
X139564142Y-89199684D01*
X139391567Y-89372259D01*
X139391563Y-89372264D01*
X139248120Y-89569698D01*
X139137321Y-89787153D01*
X139061902Y-90019268D01*
X139037242Y-90174964D01*
X139023724Y-90260314D01*
X139023724Y-90504368D01*
X139026017Y-90518844D01*
X139050510Y-90673489D01*
X139061903Y-90745417D01*
X139114473Y-90907211D01*
X139137321Y-90977528D01*
X139153461Y-91009205D01*
X139166357Y-91077875D01*
X139140080Y-91142615D01*
X139082974Y-91182872D01*
X139042976Y-91189500D01*
X138624500Y-91189500D01*
X138557461Y-91169815D01*
X138511706Y-91117011D01*
X138500500Y-91065500D01*
X138500500Y-91054496D01*
X138500499Y-91054494D01*
X138489474Y-90999068D01*
X138469737Y-90899844D01*
X138469735Y-90899839D01*
X138409397Y-90754168D01*
X138409390Y-90754155D01*
X138321789Y-90623052D01*
X138321786Y-90623048D01*
X138210292Y-90511554D01*
X138210288Y-90511551D01*
X138079185Y-90423950D01*
X138079172Y-90423943D01*
X137933501Y-90363605D01*
X137933489Y-90363602D01*
X137778845Y-90332841D01*
X137778842Y-90332841D01*
X137621158Y-90332841D01*
X137621155Y-90332841D01*
X137466510Y-90363602D01*
X137466498Y-90363605D01*
X137320827Y-90423943D01*
X137320814Y-90423950D01*
X137237615Y-90479543D01*
X137170937Y-90500421D01*
X137103557Y-90481937D01*
X137056867Y-90429958D01*
X137044724Y-90376441D01*
X137044724Y-90260314D01*
X137038860Y-90223290D01*
X137006545Y-90019265D01*
X136931128Y-89787156D01*
X136820330Y-89569702D01*
X136802003Y-89544477D01*
X136676884Y-89372264D01*
X136676880Y-89372259D01*
X136504305Y-89199684D01*
X136504300Y-89199680D01*
X136306866Y-89056237D01*
X136306865Y-89056236D01*
X136306863Y-89056235D01*
X136089409Y-88945437D01*
X135857300Y-88870020D01*
X135857298Y-88870019D01*
X135857296Y-88870019D01*
X135688993Y-88843362D01*
X135616251Y-88831841D01*
X135372197Y-88831841D01*
X135316317Y-88840691D01*
X135131151Y-88870019D01*
X134899036Y-88945438D01*
X134681581Y-89056237D01*
X134484147Y-89199680D01*
X134484142Y-89199684D01*
X134311567Y-89372259D01*
X134311563Y-89372264D01*
X134168120Y-89569698D01*
X134057321Y-89787153D01*
X133981902Y-90019267D01*
X133973091Y-90074899D01*
X133943161Y-90138033D01*
X133883849Y-90174964D01*
X133850618Y-90179500D01*
X133751155Y-90179500D01*
X133596510Y-90210261D01*
X133596498Y-90210264D01*
X133450827Y-90270602D01*
X133450814Y-90270609D01*
X133319711Y-90358210D01*
X133319707Y-90358213D01*
X133208213Y-90469707D01*
X133208210Y-90469711D01*
X133120609Y-90600814D01*
X133120602Y-90600827D01*
X133060264Y-90746498D01*
X133060261Y-90746510D01*
X133029500Y-90901153D01*
X133029500Y-91058846D01*
X133060261Y-91213489D01*
X133060264Y-91213501D01*
X133120602Y-91359172D01*
X133120609Y-91359185D01*
X133208210Y-91490288D01*
X133208213Y-91490292D01*
X133275595Y-91557674D01*
X133309080Y-91618997D01*
X133304096Y-91688689D01*
X133275595Y-91733036D01*
X132557052Y-92451578D01*
X132557046Y-92451585D01*
X132509362Y-92522950D01*
X132509363Y-92522951D01*
X132474914Y-92574508D01*
X132418343Y-92711082D01*
X132418340Y-92711092D01*
X132389500Y-92856079D01*
X132389500Y-99661656D01*
X132369815Y-99728695D01*
X132317011Y-99774450D01*
X132247853Y-99784394D01*
X132218049Y-99776218D01*
X132191127Y-99765067D01*
X132169232Y-99755998D01*
X132169228Y-99755997D01*
X132169224Y-99755996D01*
X132014580Y-99725235D01*
X132014577Y-99725235D01*
X131856893Y-99725235D01*
X131856890Y-99725235D01*
X131702245Y-99755996D01*
X131702233Y-99755999D01*
X131556562Y-99816337D01*
X131556549Y-99816344D01*
X131425446Y-99903945D01*
X131425442Y-99903948D01*
X131313948Y-100015442D01*
X131313945Y-100015446D01*
X131226344Y-100146549D01*
X131226337Y-100146562D01*
X131165999Y-100292233D01*
X131165996Y-100292245D01*
X131135235Y-100446888D01*
X131135235Y-100604581D01*
X131165996Y-100759224D01*
X131165999Y-100759236D01*
X131226337Y-100904907D01*
X131226344Y-100904920D01*
X131313945Y-101036023D01*
X131313948Y-101036027D01*
X131425442Y-101147521D01*
X131425446Y-101147524D01*
X131556549Y-101235125D01*
X131556562Y-101235132D01*
X131653422Y-101275252D01*
X131702238Y-101295472D01*
X131856888Y-101326234D01*
X131856891Y-101326235D01*
X131856893Y-101326235D01*
X132014579Y-101326235D01*
X132014580Y-101326234D01*
X132169232Y-101295472D01*
X132218048Y-101275251D01*
X132287517Y-101267783D01*
X132349996Y-101299058D01*
X132385648Y-101359147D01*
X132389500Y-101389813D01*
X132389500Y-106235818D01*
X132369815Y-106302857D01*
X132317011Y-106348612D01*
X132247853Y-106358556D01*
X132184297Y-106329531D01*
X132158084Y-106296036D01*
X132157596Y-106296336D01*
X132155051Y-106292184D01*
X132030109Y-106120213D01*
X131879786Y-105969890D01*
X131707820Y-105844951D01*
X131518414Y-105748444D01*
X131518413Y-105748443D01*
X131518412Y-105748443D01*
X131316243Y-105682754D01*
X131316241Y-105682753D01*
X131316240Y-105682753D01*
X131154957Y-105657208D01*
X131106287Y-105649500D01*
X130893713Y-105649500D01*
X130845042Y-105657208D01*
X130683760Y-105682753D01*
X130481585Y-105748444D01*
X130292179Y-105844951D01*
X130120213Y-105969890D01*
X129969890Y-106120213D01*
X129844951Y-106292179D01*
X129748444Y-106481585D01*
X129682753Y-106683760D01*
X129649500Y-106893713D01*
X129649500Y-107106286D01*
X129671365Y-107244340D01*
X129682754Y-107316243D01*
X129693453Y-107349172D01*
X129748444Y-107518414D01*
X129844951Y-107707820D01*
X129969890Y-107879786D01*
X130120213Y-108030109D01*
X130292179Y-108155048D01*
X130292181Y-108155049D01*
X130292184Y-108155051D01*
X130481588Y-108251557D01*
X130683757Y-108317246D01*
X130893713Y-108350500D01*
X130893714Y-108350500D01*
X131106286Y-108350500D01*
X131106287Y-108350500D01*
X131316243Y-108317246D01*
X131518412Y-108251557D01*
X131707816Y-108155051D01*
X131729789Y-108139086D01*
X131879786Y-108030109D01*
X131879788Y-108030106D01*
X131879792Y-108030104D01*
X132030104Y-107879792D01*
X132030106Y-107879788D01*
X132030109Y-107879786D01*
X132088661Y-107799193D01*
X132155051Y-107707816D01*
X132155054Y-107707810D01*
X132157596Y-107703664D01*
X132158487Y-107704210D01*
X132202986Y-107657092D01*
X132270806Y-107640295D01*
X132336942Y-107662830D01*
X132380395Y-107717544D01*
X132389500Y-107764181D01*
X132389500Y-110817770D01*
X132369815Y-110884809D01*
X132353181Y-110905451D01*
X130276736Y-112981895D01*
X130215413Y-113015380D01*
X130145721Y-113010396D01*
X130089788Y-112968524D01*
X130066582Y-112913612D01*
X130051669Y-112819456D01*
X129976252Y-112587347D01*
X129865454Y-112369893D01*
X129847127Y-112344668D01*
X129722008Y-112172455D01*
X129722004Y-112172450D01*
X129549429Y-111999875D01*
X129549424Y-111999871D01*
X129351990Y-111856428D01*
X129351989Y-111856427D01*
X129351987Y-111856426D01*
X129134533Y-111745628D01*
X128902424Y-111670211D01*
X128902422Y-111670210D01*
X128902420Y-111670210D01*
X128676458Y-111634421D01*
X128661375Y-111632032D01*
X128417321Y-111632032D01*
X128402238Y-111634421D01*
X128176275Y-111670210D01*
X127944160Y-111745629D01*
X127726705Y-111856428D01*
X127529271Y-111999871D01*
X127529266Y-111999875D01*
X127356691Y-112172450D01*
X127356687Y-112172455D01*
X127213244Y-112369889D01*
X127102445Y-112587344D01*
X127027026Y-112819459D01*
X126988848Y-113060505D01*
X126988848Y-113304558D01*
X127027026Y-113545604D01*
X127027026Y-113545606D01*
X127027027Y-113545608D01*
X127102444Y-113777717D01*
X127128386Y-113828632D01*
X127213244Y-113995174D01*
X127356687Y-114192608D01*
X127356691Y-114192613D01*
X127529266Y-114365188D01*
X127529271Y-114365192D01*
X127701484Y-114490311D01*
X127726709Y-114508638D01*
X127944163Y-114619436D01*
X128176272Y-114694853D01*
X128270429Y-114709766D01*
X128333563Y-114739695D01*
X128370495Y-114799006D01*
X128369497Y-114868869D01*
X128338712Y-114919920D01*
X122276736Y-120981895D01*
X122215413Y-121015380D01*
X122145721Y-121010396D01*
X122089788Y-120968524D01*
X122066582Y-120913612D01*
X122051669Y-120819459D01*
X122051669Y-120819456D01*
X121976252Y-120587347D01*
X121865454Y-120369893D01*
X121847127Y-120344668D01*
X121722008Y-120172455D01*
X121722004Y-120172450D01*
X121549429Y-119999875D01*
X121549424Y-119999871D01*
X121351990Y-119856428D01*
X121351989Y-119856427D01*
X121351987Y-119856426D01*
X121134533Y-119745628D01*
X120902424Y-119670211D01*
X120902422Y-119670210D01*
X120902420Y-119670210D01*
X120734117Y-119643553D01*
X120661375Y-119632032D01*
X120417321Y-119632032D01*
X120361441Y-119640882D01*
X120176275Y-119670210D01*
X119944160Y-119745629D01*
X119726705Y-119856428D01*
X119529271Y-119999871D01*
X119529266Y-119999875D01*
X119356691Y-120172450D01*
X119356687Y-120172455D01*
X119213244Y-120369889D01*
X119102445Y-120587344D01*
X119027026Y-120819459D01*
X118988848Y-121060505D01*
X118988848Y-121304558D01*
X119023800Y-121525239D01*
X119027027Y-121545608D01*
X119102444Y-121777717D01*
X119208595Y-121986051D01*
X119213244Y-121995174D01*
X119356687Y-122192608D01*
X119356691Y-122192613D01*
X119529266Y-122365188D01*
X119529271Y-122365192D01*
X119701484Y-122490311D01*
X119726709Y-122508638D01*
X119944163Y-122619436D01*
X120176272Y-122694853D01*
X120270428Y-122709766D01*
X120333563Y-122739695D01*
X120370494Y-122799007D01*
X120369496Y-122868869D01*
X120338711Y-122919920D01*
X119996451Y-123262181D01*
X119935128Y-123295666D01*
X119908770Y-123298500D01*
X99702367Y-123298500D01*
X99635328Y-123278815D01*
X99589573Y-123226011D01*
X99579629Y-123156853D01*
X99587806Y-123127048D01*
X99643814Y-122991829D01*
X99655894Y-122962666D01*
X99690500Y-122788691D01*
X99690500Y-122611309D01*
X99690500Y-122611306D01*
X99690499Y-122611304D01*
X99655896Y-122437341D01*
X99655893Y-122437332D01*
X99588016Y-122273459D01*
X99588009Y-122273446D01*
X99489464Y-122125965D01*
X99489461Y-122125961D01*
X99364038Y-122000538D01*
X99364034Y-122000535D01*
X99216553Y-121901990D01*
X99216540Y-121901983D01*
X99052667Y-121834106D01*
X99052658Y-121834103D01*
X98878694Y-121799500D01*
X98878691Y-121799500D01*
X98701309Y-121799500D01*
X98701306Y-121799500D01*
X98527341Y-121834103D01*
X98527332Y-121834106D01*
X98363459Y-121901983D01*
X98363446Y-121901990D01*
X98215965Y-122000535D01*
X98215961Y-122000538D01*
X98090538Y-122125961D01*
X98090535Y-122125965D01*
X97991990Y-122273446D01*
X97991983Y-122273459D01*
X97924106Y-122437332D01*
X97924103Y-122437341D01*
X97889500Y-122611304D01*
X97889500Y-122788695D01*
X97924103Y-122962658D01*
X97924106Y-122962667D01*
X97992194Y-123127048D01*
X97999663Y-123196517D01*
X97968387Y-123258996D01*
X97908298Y-123294648D01*
X97877633Y-123298500D01*
X96700606Y-123298500D01*
X96633567Y-123278815D01*
X96587812Y-123226011D01*
X96577868Y-123156853D01*
X96586045Y-123127048D01*
X96642049Y-122991839D01*
X96642051Y-122991835D01*
X96666511Y-122868869D01*
X96680500Y-122798543D01*
X96680500Y-122601456D01*
X96642052Y-122408170D01*
X96642051Y-122408169D01*
X96642051Y-122408165D01*
X96624251Y-122365192D01*
X96566635Y-122226092D01*
X96566628Y-122226079D01*
X96457139Y-122062218D01*
X96457136Y-122062214D01*
X96317785Y-121922863D01*
X96317781Y-121922860D01*
X96153920Y-121813371D01*
X96153907Y-121813364D01*
X95971839Y-121737950D01*
X95971829Y-121737947D01*
X95778543Y-121699500D01*
X95778541Y-121699500D01*
X95581459Y-121699500D01*
X95581457Y-121699500D01*
X95388170Y-121737947D01*
X95388160Y-121737950D01*
X95206092Y-121813364D01*
X95206079Y-121813371D01*
X95042218Y-121922860D01*
X95042214Y-121922863D01*
X94902863Y-122062214D01*
X94902860Y-122062218D01*
X94793371Y-122226079D01*
X94793364Y-122226092D01*
X94717950Y-122408160D01*
X94717947Y-122408170D01*
X94679500Y-122601456D01*
X94679500Y-122601459D01*
X94679500Y-122798541D01*
X94679500Y-122798543D01*
X94679499Y-122798543D01*
X94717947Y-122991829D01*
X94717950Y-122991839D01*
X94773955Y-123127048D01*
X94781424Y-123196517D01*
X94750148Y-123258996D01*
X94690059Y-123294648D01*
X94659394Y-123298500D01*
X89534669Y-123298500D01*
X89467630Y-123278815D01*
X89446988Y-123262181D01*
X88170860Y-121986052D01*
X88170859Y-121986051D01*
X88076287Y-121922861D01*
X88076286Y-121922860D01*
X88047934Y-121903916D01*
X88047932Y-121903915D01*
X88047929Y-121903913D01*
X87911356Y-121847343D01*
X87911346Y-121847340D01*
X87766359Y-121818500D01*
X87766357Y-121818500D01*
X82772594Y-121818500D01*
X82705555Y-121798815D01*
X82684913Y-121782181D01*
X81963237Y-121060505D01*
X113908848Y-121060505D01*
X113908848Y-121304558D01*
X113943800Y-121525239D01*
X113947027Y-121545608D01*
X114022444Y-121777717D01*
X114128595Y-121986051D01*
X114133244Y-121995174D01*
X114276687Y-122192608D01*
X114276691Y-122192613D01*
X114449266Y-122365188D01*
X114449271Y-122365192D01*
X114621484Y-122490311D01*
X114646709Y-122508638D01*
X114864163Y-122619436D01*
X115096272Y-122694853D01*
X115337321Y-122733032D01*
X115337322Y-122733032D01*
X115581374Y-122733032D01*
X115581375Y-122733032D01*
X115822424Y-122694853D01*
X116054533Y-122619436D01*
X116271987Y-122508638D01*
X116469431Y-122365187D01*
X116642003Y-122192615D01*
X116785454Y-121995171D01*
X116896252Y-121777717D01*
X116971669Y-121545608D01*
X117009848Y-121304559D01*
X117009848Y-121060505D01*
X116971669Y-120819456D01*
X116896252Y-120587347D01*
X116785454Y-120369893D01*
X116767127Y-120344668D01*
X116642008Y-120172455D01*
X116642004Y-120172450D01*
X116469429Y-119999875D01*
X116469424Y-119999871D01*
X116271990Y-119856428D01*
X116271989Y-119856427D01*
X116271987Y-119856426D01*
X116054533Y-119745628D01*
X115822424Y-119670211D01*
X115822422Y-119670210D01*
X115822420Y-119670210D01*
X115654117Y-119643553D01*
X115581375Y-119632032D01*
X115337321Y-119632032D01*
X115281441Y-119640882D01*
X115096275Y-119670210D01*
X114864160Y-119745629D01*
X114646705Y-119856428D01*
X114449271Y-119999871D01*
X114449266Y-119999875D01*
X114276691Y-120172450D01*
X114276687Y-120172455D01*
X114133244Y-120369889D01*
X114022445Y-120587344D01*
X113947026Y-120819459D01*
X113908848Y-121060505D01*
X81963237Y-121060505D01*
X78406819Y-117504087D01*
X78373334Y-117442764D01*
X78370500Y-117416406D01*
X78370500Y-115916079D01*
X78341659Y-115771092D01*
X78341658Y-115771091D01*
X78341658Y-115771087D01*
X78310828Y-115696657D01*
X78285087Y-115634511D01*
X78285080Y-115634498D01*
X78202952Y-115511585D01*
X78154710Y-115463343D01*
X78098416Y-115407049D01*
X77328545Y-114637178D01*
X77295060Y-114575855D01*
X77293753Y-114530104D01*
X77317422Y-114380660D01*
X77330500Y-114298096D01*
X77330500Y-114061902D01*
X77293553Y-113828631D01*
X77220566Y-113604003D01*
X77113342Y-113393566D01*
X77094624Y-113367803D01*
X76974517Y-113202490D01*
X76807510Y-113035483D01*
X76616433Y-112896657D01*
X76477601Y-112825918D01*
X81980759Y-112825918D01*
X81980759Y-118825918D01*
X81980759Y-118931372D01*
X82008052Y-119033232D01*
X82060779Y-119124558D01*
X82135346Y-119199125D01*
X82226672Y-119251852D01*
X82328532Y-119279145D01*
X82328534Y-119279145D01*
X98433984Y-119279145D01*
X98433986Y-119279145D01*
X98535846Y-119251852D01*
X98627172Y-119199125D01*
X98701739Y-119124558D01*
X98754466Y-119033232D01*
X98781759Y-118931372D01*
X98781759Y-112825918D01*
X98754466Y-112724058D01*
X98701739Y-112632732D01*
X98627172Y-112558165D01*
X98535846Y-112505438D01*
X98433986Y-112478145D01*
X82433986Y-112478145D01*
X82328532Y-112478145D01*
X82226672Y-112505438D01*
X82226669Y-112505439D01*
X82135344Y-112558166D01*
X82060780Y-112632730D01*
X82008053Y-112724055D01*
X82008052Y-112724058D01*
X81980759Y-112825918D01*
X76477601Y-112825918D01*
X76405996Y-112789433D01*
X76181368Y-112716446D01*
X75948097Y-112679500D01*
X75948092Y-112679500D01*
X75711908Y-112679500D01*
X75711903Y-112679500D01*
X75478631Y-112716446D01*
X75254003Y-112789433D01*
X75043566Y-112896657D01*
X74945438Y-112967952D01*
X74852490Y-113035483D01*
X74852488Y-113035485D01*
X74852487Y-113035485D01*
X74685485Y-113202487D01*
X74685485Y-113202488D01*
X74685483Y-113202490D01*
X74674745Y-113217270D01*
X74546657Y-113393566D01*
X74439433Y-113604003D01*
X74366446Y-113828631D01*
X74329500Y-114061902D01*
X74329500Y-114298097D01*
X74366446Y-114531368D01*
X74439433Y-114755996D01*
X74522957Y-114919920D01*
X74546657Y-114966433D01*
X74685483Y-115157510D01*
X74852490Y-115324517D01*
X75043567Y-115463343D01*
X75043569Y-115463344D01*
X75055681Y-115469516D01*
X75106477Y-115517491D01*
X75123271Y-115585312D01*
X75100733Y-115651447D01*
X75055681Y-115690484D01*
X75043569Y-115696655D01*
X74948028Y-115766070D01*
X74852490Y-115835483D01*
X74852488Y-115835485D01*
X74852487Y-115835485D01*
X74685485Y-116002487D01*
X74685485Y-116002488D01*
X74685483Y-116002490D01*
X74627546Y-116082233D01*
X74546657Y-116193566D01*
X74439433Y-116404003D01*
X74366446Y-116628631D01*
X74329500Y-116861902D01*
X74329500Y-117098097D01*
X74366446Y-117331368D01*
X74439433Y-117555996D01*
X74511344Y-117697127D01*
X74546657Y-117766433D01*
X74685483Y-117957510D01*
X74852490Y-118124517D01*
X75043567Y-118263343D01*
X75122242Y-118303430D01*
X75254003Y-118370566D01*
X75254005Y-118370566D01*
X75254008Y-118370568D01*
X75374412Y-118409689D01*
X75478631Y-118443553D01*
X75711903Y-118480500D01*
X75711908Y-118480500D01*
X75948096Y-118480500D01*
X76043592Y-118465374D01*
X76162834Y-118446488D01*
X76232126Y-118455442D01*
X76269912Y-118481280D01*
X81628892Y-123840260D01*
X81662377Y-123901583D01*
X81657393Y-123971275D01*
X81615521Y-124027208D01*
X81550057Y-124051625D01*
X81493759Y-124042502D01*
X81343501Y-123980264D01*
X81343489Y-123980261D01*
X81188845Y-123949500D01*
X81188842Y-123949500D01*
X81031158Y-123949500D01*
X81031155Y-123949500D01*
X80876510Y-123980261D01*
X80876498Y-123980264D01*
X80730827Y-124040602D01*
X80730814Y-124040609D01*
X80599711Y-124128210D01*
X80599707Y-124128213D01*
X80488213Y-124239707D01*
X80488210Y-124239711D01*
X80400609Y-124370814D01*
X80400602Y-124370827D01*
X80340264Y-124516498D01*
X80340261Y-124516510D01*
X80309500Y-124671153D01*
X80309500Y-124828846D01*
X80340261Y-124983489D01*
X80340264Y-124983501D01*
X80400602Y-125129172D01*
X80400609Y-125129185D01*
X80488210Y-125260288D01*
X80488213Y-125260292D01*
X80599707Y-125371786D01*
X80599711Y-125371789D01*
X80730814Y-125459390D01*
X80730827Y-125459397D01*
X80830060Y-125500500D01*
X80876503Y-125519737D01*
X81031153Y-125550499D01*
X81031156Y-125550500D01*
X81031158Y-125550500D01*
X81188844Y-125550500D01*
X81188845Y-125550499D01*
X81343497Y-125519737D01*
X81489179Y-125459394D01*
X81620289Y-125371789D01*
X81620292Y-125371786D01*
X81657319Y-125334760D01*
X81718642Y-125301275D01*
X81788334Y-125306259D01*
X81832681Y-125334760D01*
X81869707Y-125371786D01*
X81869711Y-125371789D01*
X82000814Y-125459390D01*
X82000827Y-125459397D01*
X82100060Y-125500500D01*
X82146503Y-125519737D01*
X82301153Y-125550499D01*
X82301156Y-125550500D01*
X82301158Y-125550500D01*
X82458844Y-125550500D01*
X82458845Y-125550499D01*
X82613497Y-125519737D01*
X82759179Y-125459394D01*
X82890289Y-125371789D01*
X83001789Y-125260289D01*
X83089394Y-125129179D01*
X83149737Y-124983497D01*
X83180500Y-124828842D01*
X83180500Y-124671158D01*
X83180500Y-124671155D01*
X83180499Y-124671153D01*
X83149738Y-124516510D01*
X83149737Y-124516503D01*
X83144636Y-124504188D01*
X83089397Y-124370827D01*
X83089390Y-124370814D01*
X83001789Y-124239711D01*
X83001786Y-124239707D01*
X82994260Y-124232181D01*
X82960775Y-124170858D01*
X82965759Y-124101166D01*
X83007631Y-124045233D01*
X83073095Y-124020816D01*
X83081941Y-124020500D01*
X84218059Y-124020500D01*
X84285098Y-124040185D01*
X84330853Y-124092989D01*
X84340797Y-124162147D01*
X84311772Y-124225703D01*
X84305740Y-124232181D01*
X84298213Y-124239707D01*
X84298210Y-124239711D01*
X84210609Y-124370814D01*
X84210602Y-124370827D01*
X84150264Y-124516498D01*
X84150261Y-124516510D01*
X84119500Y-124671153D01*
X84119500Y-124828846D01*
X84150261Y-124983489D01*
X84150264Y-124983501D01*
X84210602Y-125129172D01*
X84210609Y-125129185D01*
X84298210Y-125260288D01*
X84298213Y-125260292D01*
X84409707Y-125371786D01*
X84409711Y-125371789D01*
X84540814Y-125459390D01*
X84540827Y-125459397D01*
X84640060Y-125500500D01*
X84686503Y-125519737D01*
X84841153Y-125550499D01*
X84841156Y-125550500D01*
X84841158Y-125550500D01*
X84998844Y-125550500D01*
X84998845Y-125550499D01*
X85153497Y-125519737D01*
X85299179Y-125459394D01*
X85430289Y-125371789D01*
X85430292Y-125371786D01*
X85467319Y-125334760D01*
X85528642Y-125301275D01*
X85598334Y-125306259D01*
X85642681Y-125334760D01*
X85679707Y-125371786D01*
X85679711Y-125371789D01*
X85810814Y-125459390D01*
X85810827Y-125459397D01*
X85910060Y-125500500D01*
X85956503Y-125519737D01*
X86111153Y-125550499D01*
X86111156Y-125550500D01*
X86111158Y-125550500D01*
X86268844Y-125550500D01*
X86268845Y-125550499D01*
X86423497Y-125519737D01*
X86569179Y-125459394D01*
X86700289Y-125371789D01*
X86811789Y-125260289D01*
X86899394Y-125129179D01*
X86959737Y-124983497D01*
X86990500Y-124828842D01*
X86990500Y-124671158D01*
X86990500Y-124671155D01*
X86990499Y-124671153D01*
X86959738Y-124516510D01*
X86959737Y-124516503D01*
X86954636Y-124504188D01*
X86899397Y-124370827D01*
X86899390Y-124370814D01*
X86811789Y-124239711D01*
X86811786Y-124239707D01*
X86804260Y-124232181D01*
X86793647Y-124212744D01*
X86779147Y-124196011D01*
X86777230Y-124182679D01*
X86770775Y-124170858D01*
X86772354Y-124148771D01*
X86769203Y-124126853D01*
X86774798Y-124114601D01*
X86775759Y-124101166D01*
X86789029Y-124083439D01*
X86798228Y-124063297D01*
X86809559Y-124056014D01*
X86817631Y-124045233D01*
X86838376Y-124037495D01*
X86857006Y-124025523D01*
X86878924Y-124022371D01*
X86883095Y-124020816D01*
X86891941Y-124020500D01*
X87039845Y-124020500D01*
X87106884Y-124040185D01*
X87127526Y-124056819D01*
X88403653Y-125332947D01*
X88403660Y-125332953D01*
X88461779Y-125371786D01*
X88461781Y-125371787D01*
X88461784Y-125371789D01*
X88526580Y-125415084D01*
X88526581Y-125415084D01*
X88526582Y-125415085D01*
X88633544Y-125459390D01*
X88663162Y-125471658D01*
X88663166Y-125471658D01*
X88663167Y-125471659D01*
X88808154Y-125500500D01*
X88808157Y-125500500D01*
X120635284Y-125500500D01*
X120732826Y-125481096D01*
X120780277Y-125471658D01*
X120916859Y-125415084D01*
X120981655Y-125371789D01*
X120981658Y-125371786D01*
X120981660Y-125371786D01*
X121037074Y-125334760D01*
X121039780Y-125332952D01*
X127726835Y-118645897D01*
X134421943Y-111950789D01*
X134483266Y-111917304D01*
X134552958Y-111922288D01*
X134608891Y-111964160D01*
X134633308Y-112029624D01*
X134633624Y-112038470D01*
X134633624Y-115005730D01*
X134613939Y-115072769D01*
X134597261Y-115093455D01*
X123733938Y-125945925D01*
X123672599Y-125979379D01*
X123646301Y-125982200D01*
X76603480Y-125982234D01*
X76596528Y-125982039D01*
X76315899Y-125966281D01*
X76302081Y-125964724D01*
X76028425Y-125918229D01*
X76014867Y-125915135D01*
X75748120Y-125838286D01*
X75734996Y-125833693D01*
X75478547Y-125727470D01*
X75466025Y-125721440D01*
X75223072Y-125587167D01*
X75211298Y-125579769D01*
X74984901Y-125419134D01*
X74974041Y-125410473D01*
X74767052Y-125225499D01*
X74757225Y-125215672D01*
X74572251Y-125008690D01*
X74563581Y-124997818D01*
X74402948Y-124771429D01*
X74395551Y-124759657D01*
X74261280Y-124516716D01*
X74255246Y-124504188D01*
X74149012Y-124247723D01*
X74144420Y-124234598D01*
X74141857Y-124225703D01*
X74067574Y-123967870D01*
X74064480Y-123954316D01*
X74017979Y-123680649D01*
X74016422Y-123666831D01*
X74000695Y-123386842D01*
X74000500Y-123379888D01*
X74000500Y-106891153D01*
X89199500Y-106891153D01*
X89199500Y-107048846D01*
X89230261Y-107203489D01*
X89230264Y-107203501D01*
X89290602Y-107349172D01*
X89290609Y-107349185D01*
X89378210Y-107480288D01*
X89378213Y-107480292D01*
X89489707Y-107591786D01*
X89489711Y-107591789D01*
X89620814Y-107679390D01*
X89620827Y-107679397D01*
X89766498Y-107739735D01*
X89766503Y-107739737D01*
X89921153Y-107770499D01*
X89921156Y-107770500D01*
X89921158Y-107770500D01*
X90078844Y-107770500D01*
X90078845Y-107770499D01*
X90233497Y-107739737D01*
X90379179Y-107679394D01*
X90510289Y-107591789D01*
X90621789Y-107480289D01*
X90709394Y-107349179D01*
X90769737Y-107203497D01*
X90800500Y-107048842D01*
X90800500Y-106891158D01*
X90800500Y-106891155D01*
X90800499Y-106891153D01*
X90769737Y-106736503D01*
X90752620Y-106695179D01*
X90709397Y-106590827D01*
X90709390Y-106590814D01*
X90621789Y-106459711D01*
X90621786Y-106459707D01*
X90510292Y-106348213D01*
X90510288Y-106348210D01*
X90379185Y-106260609D01*
X90379172Y-106260602D01*
X90233501Y-106200264D01*
X90233489Y-106200261D01*
X90078845Y-106169500D01*
X90078842Y-106169500D01*
X89921158Y-106169500D01*
X89921155Y-106169500D01*
X89766510Y-106200261D01*
X89766498Y-106200264D01*
X89620827Y-106260602D01*
X89620814Y-106260609D01*
X89489711Y-106348210D01*
X89489707Y-106348213D01*
X89378213Y-106459707D01*
X89378210Y-106459711D01*
X89290609Y-106590814D01*
X89290602Y-106590827D01*
X89230264Y-106736498D01*
X89230261Y-106736510D01*
X89199500Y-106891153D01*
X74000500Y-106891153D01*
X74000500Y-104353713D01*
X75809500Y-104353713D01*
X75809500Y-104566287D01*
X75814761Y-104599504D01*
X75842753Y-104776239D01*
X75908444Y-104978414D01*
X76004951Y-105167820D01*
X76129890Y-105339786D01*
X76280213Y-105490109D01*
X76452179Y-105615048D01*
X76452181Y-105615049D01*
X76452184Y-105615051D01*
X76641588Y-105711557D01*
X76843757Y-105777246D01*
X77053713Y-105810500D01*
X77053714Y-105810500D01*
X77266286Y-105810500D01*
X77266287Y-105810500D01*
X77476243Y-105777246D01*
X77678412Y-105711557D01*
X77867816Y-105615051D01*
X77962954Y-105545930D01*
X78039786Y-105490109D01*
X78039788Y-105490106D01*
X78039792Y-105490104D01*
X78190104Y-105339792D01*
X78190106Y-105339788D01*
X78190109Y-105339786D01*
X78315048Y-105167820D01*
X78315047Y-105167820D01*
X78315051Y-105167816D01*
X78411557Y-104978412D01*
X78477246Y-104776243D01*
X78510500Y-104566287D01*
X78510500Y-104353713D01*
X78477246Y-104143757D01*
X78411557Y-103941588D01*
X78315051Y-103752184D01*
X78315049Y-103752181D01*
X78315048Y-103752179D01*
X78190109Y-103580213D01*
X78039786Y-103429890D01*
X77867820Y-103304951D01*
X77678414Y-103208444D01*
X77678413Y-103208443D01*
X77678412Y-103208443D01*
X77476243Y-103142754D01*
X77476241Y-103142753D01*
X77476240Y-103142753D01*
X77314957Y-103117208D01*
X77266287Y-103109500D01*
X77053713Y-103109500D01*
X77005042Y-103117208D01*
X76843760Y-103142753D01*
X76641585Y-103208444D01*
X76452179Y-103304951D01*
X76280213Y-103429890D01*
X76129890Y-103580213D01*
X76004951Y-103752179D01*
X75908444Y-103941585D01*
X75842753Y-104143760D01*
X75838157Y-104172781D01*
X75809500Y-104353713D01*
X74000500Y-104353713D01*
X74000500Y-97524498D01*
X74020185Y-97457459D01*
X74072989Y-97411704D01*
X74124496Y-97400498D01*
X75817570Y-97400496D01*
X75884608Y-97420180D01*
X75930363Y-97472984D01*
X75940307Y-97542143D01*
X75911282Y-97605699D01*
X75873864Y-97634981D01*
X75713566Y-97716657D01*
X75630047Y-97777338D01*
X75522490Y-97855483D01*
X75522488Y-97855485D01*
X75522487Y-97855485D01*
X75355485Y-98022487D01*
X75355485Y-98022488D01*
X75355483Y-98022490D01*
X75340618Y-98042950D01*
X75216657Y-98213566D01*
X75109433Y-98424003D01*
X75036446Y-98648631D01*
X74999500Y-98881902D01*
X74999500Y-99118097D01*
X75036446Y-99351368D01*
X75109433Y-99575996D01*
X75201150Y-99755999D01*
X75216657Y-99786433D01*
X75355483Y-99977510D01*
X75522490Y-100144517D01*
X75713567Y-100283343D01*
X75812991Y-100334002D01*
X75924003Y-100390566D01*
X75924005Y-100390566D01*
X75924008Y-100390568D01*
X76003606Y-100416431D01*
X76148631Y-100463553D01*
X76381903Y-100500500D01*
X76381908Y-100500500D01*
X76618097Y-100500500D01*
X76851368Y-100463553D01*
X76902657Y-100446888D01*
X77075992Y-100390568D01*
X77079170Y-100388949D01*
X77083719Y-100386630D01*
X77286433Y-100283343D01*
X77477510Y-100144517D01*
X77644517Y-99977510D01*
X77649682Y-99970401D01*
X77705012Y-99927735D01*
X77774625Y-99921756D01*
X77836420Y-99954362D01*
X77850318Y-99970401D01*
X77855483Y-99977510D01*
X78022490Y-100144517D01*
X78213567Y-100283343D01*
X78312991Y-100334002D01*
X78424003Y-100390566D01*
X78424005Y-100390566D01*
X78424008Y-100390568D01*
X78503606Y-100416431D01*
X78648631Y-100463553D01*
X78881903Y-100500500D01*
X78881908Y-100500500D01*
X79118097Y-100500500D01*
X79351368Y-100463553D01*
X79402657Y-100446888D01*
X79575992Y-100390568D01*
X79579170Y-100388949D01*
X79583719Y-100386630D01*
X79786433Y-100283343D01*
X79977510Y-100144517D01*
X80144517Y-99977510D01*
X80189267Y-99915915D01*
X80193680Y-99911031D01*
X80218059Y-99896063D01*
X80240711Y-99878596D01*
X80248343Y-99877470D01*
X80253223Y-99874475D01*
X80266770Y-99874753D01*
X80272543Y-99873902D01*
X81017037Y-99129408D01*
X81034075Y-99192993D01*
X81099901Y-99307007D01*
X81192993Y-99400099D01*
X81307007Y-99465925D01*
X81370590Y-99482962D01*
X80630893Y-100222658D01*
X80713828Y-100282914D01*
X80924197Y-100390102D01*
X81148752Y-100463065D01*
X81148751Y-100463065D01*
X81381948Y-100500000D01*
X81618052Y-100500000D01*
X81851247Y-100463065D01*
X82075802Y-100390102D01*
X82286163Y-100282918D01*
X82286169Y-100282914D01*
X82369104Y-100222658D01*
X82369105Y-100222658D01*
X81629408Y-99482962D01*
X81692993Y-99465925D01*
X81807007Y-99400099D01*
X81900099Y-99307007D01*
X81965925Y-99192993D01*
X81982962Y-99129409D01*
X82722658Y-99869105D01*
X82722658Y-99869104D01*
X82782914Y-99786169D01*
X82782918Y-99786163D01*
X82890102Y-99575802D01*
X82963065Y-99351247D01*
X83000000Y-99118052D01*
X83000000Y-98881947D01*
X82963065Y-98648752D01*
X82890102Y-98424197D01*
X82782914Y-98213828D01*
X82722658Y-98130894D01*
X82722658Y-98130893D01*
X81982962Y-98870590D01*
X81965925Y-98807007D01*
X81900099Y-98692993D01*
X81807007Y-98599901D01*
X81692993Y-98534075D01*
X81629409Y-98517037D01*
X82369105Y-97777340D01*
X82369104Y-97777338D01*
X82286174Y-97717087D01*
X82125015Y-97634972D01*
X82074219Y-97586997D01*
X82057424Y-97519176D01*
X82079961Y-97453042D01*
X82134676Y-97409590D01*
X82181307Y-97400487D01*
X84568673Y-97400484D01*
X84635712Y-97420168D01*
X84681467Y-97472972D01*
X84692673Y-97524484D01*
X84692694Y-105052730D01*
X84692694Y-105052731D01*
X84692695Y-105052733D01*
X84719570Y-105153031D01*
X84719988Y-105154592D01*
X84719989Y-105154595D01*
X84727624Y-105167820D01*
X84750430Y-105207320D01*
X84772714Y-105245917D01*
X84772716Y-105245919D01*
X84847283Y-105320486D01*
X84880723Y-105339792D01*
X84938608Y-105373212D01*
X85040468Y-105400505D01*
X85040468Y-105400504D01*
X85040469Y-105400505D01*
X85040471Y-105400505D01*
X85056239Y-105404730D01*
X85059893Y-105405709D01*
X85072244Y-105400935D01*
X85082560Y-105400505D01*
X85197279Y-105400505D01*
X85197282Y-105400503D01*
X109939880Y-105400500D01*
X109993866Y-105400521D01*
X109993944Y-105400500D01*
X109994022Y-105400500D01*
X110035542Y-105389374D01*
X110044379Y-105387007D01*
X110044380Y-105387012D01*
X110044415Y-105386996D01*
X110095737Y-105373267D01*
X110095742Y-105373263D01*
X110095749Y-105373262D01*
X110095872Y-105373211D01*
X110095876Y-105373208D01*
X110095882Y-105373207D01*
X110141254Y-105347010D01*
X110141304Y-105346998D01*
X110141297Y-105346986D01*
X110154204Y-105339540D01*
X110187083Y-105320576D01*
X110187085Y-105320573D01*
X110187095Y-105320568D01*
X110187198Y-105320489D01*
X110187205Y-105320481D01*
X110187208Y-105320480D01*
X110224301Y-105283386D01*
X117389929Y-98123340D01*
X117390203Y-98123102D01*
X117395910Y-98117394D01*
X117395913Y-98117393D01*
X117434448Y-98078857D01*
X117470384Y-98042950D01*
X117470386Y-98042945D01*
X117470395Y-98042937D01*
X117470472Y-98042837D01*
X117470476Y-98042829D01*
X117470480Y-98042826D01*
X117496828Y-97997189D01*
X117523147Y-97951646D01*
X117523148Y-97951639D01*
X117523204Y-97951504D01*
X117523207Y-97951500D01*
X117528832Y-97930501D01*
X117536519Y-97901817D01*
X117536530Y-97901820D01*
X117536531Y-97901766D01*
X117550480Y-97849796D01*
X117550480Y-97849714D01*
X117550500Y-97849640D01*
X117550500Y-97798355D01*
X117550521Y-97744342D01*
X117550520Y-97744338D01*
X117550523Y-97736497D01*
X117550500Y-97736129D01*
X117550500Y-90400125D01*
X117570185Y-90333086D01*
X117622989Y-90287331D01*
X117674500Y-90276125D01*
X126285277Y-90276125D01*
X126352316Y-90295810D01*
X126398071Y-90348614D01*
X126408015Y-90417772D01*
X126378990Y-90481328D01*
X126372958Y-90487806D01*
X106227584Y-110633181D01*
X106166261Y-110666666D01*
X106139903Y-110669500D01*
X93964361Y-110669500D01*
X93897322Y-110649815D01*
X93876684Y-110633185D01*
X93814035Y-110570536D01*
X93814034Y-110570535D01*
X93814033Y-110570534D01*
X93666553Y-110471990D01*
X93666540Y-110471983D01*
X93502667Y-110404106D01*
X93502658Y-110404103D01*
X93328694Y-110369500D01*
X93328691Y-110369500D01*
X93151309Y-110369500D01*
X93151306Y-110369500D01*
X92977341Y-110404103D01*
X92977332Y-110404106D01*
X92813459Y-110471983D01*
X92813446Y-110471990D01*
X92665965Y-110570535D01*
X92665961Y-110570538D01*
X92540538Y-110695961D01*
X92540535Y-110695965D01*
X92441990Y-110843446D01*
X92441983Y-110843459D01*
X92374106Y-111007332D01*
X92374103Y-111007341D01*
X92339500Y-111181304D01*
X92339500Y-111358695D01*
X92374103Y-111532658D01*
X92374106Y-111532667D01*
X92441983Y-111696540D01*
X92441990Y-111696553D01*
X92540535Y-111844034D01*
X92540538Y-111844038D01*
X92665961Y-111969461D01*
X92665965Y-111969464D01*
X92813446Y-112068009D01*
X92813459Y-112068016D01*
X92936363Y-112118923D01*
X92977334Y-112135894D01*
X92977336Y-112135894D01*
X92977341Y-112135896D01*
X93151304Y-112170499D01*
X93151307Y-112170500D01*
X93151309Y-112170500D01*
X93328693Y-112170500D01*
X93328694Y-112170499D01*
X93386682Y-112158964D01*
X93502658Y-112135896D01*
X93502661Y-112135894D01*
X93502666Y-112135894D01*
X93642535Y-112077958D01*
X93666540Y-112068016D01*
X93666540Y-112068015D01*
X93666547Y-112068013D01*
X93814035Y-111969464D01*
X93876681Y-111906817D01*
X93938002Y-111873334D01*
X93964361Y-111870500D01*
X105258003Y-111870500D01*
X105325042Y-111890185D01*
X105370797Y-111942989D01*
X105380741Y-112012147D01*
X105351716Y-112075703D01*
X105345684Y-112082181D01*
X102274684Y-115153181D01*
X102213361Y-115186666D01*
X102187003Y-115189500D01*
X102098406Y-115189500D01*
X101924441Y-115224103D01*
X101924432Y-115224106D01*
X101760559Y-115291983D01*
X101760546Y-115291990D01*
X101613065Y-115390535D01*
X101613061Y-115390538D01*
X101487638Y-115515961D01*
X101487635Y-115515965D01*
X101389090Y-115663446D01*
X101389083Y-115663459D01*
X101321206Y-115827332D01*
X101321203Y-115827341D01*
X101286600Y-116001304D01*
X101286600Y-116178695D01*
X101321203Y-116352658D01*
X101321206Y-116352667D01*
X101389083Y-116516540D01*
X101389090Y-116516553D01*
X101487635Y-116664034D01*
X101487638Y-116664038D01*
X101613061Y-116789461D01*
X101613065Y-116789464D01*
X101760546Y-116888009D01*
X101760559Y-116888016D01*
X101880077Y-116937521D01*
X101924434Y-116955894D01*
X101924436Y-116955894D01*
X101924441Y-116955896D01*
X102098404Y-116990499D01*
X102098407Y-116990500D01*
X102098409Y-116990500D01*
X102275793Y-116990500D01*
X102275794Y-116990499D01*
X102333782Y-116978964D01*
X102449758Y-116955896D01*
X102449761Y-116955894D01*
X102449766Y-116955894D01*
X102613647Y-116888013D01*
X102761135Y-116789464D01*
X102886564Y-116664035D01*
X102985113Y-116516547D01*
X103052994Y-116352666D01*
X103056469Y-116335200D01*
X103087599Y-116178695D01*
X103087600Y-116178693D01*
X103087600Y-116090097D01*
X103107285Y-116023058D01*
X103123919Y-116002416D01*
X104416569Y-114709766D01*
X105725048Y-113401286D01*
X105786369Y-113367803D01*
X105856061Y-113372787D01*
X105911994Y-113414659D01*
X105935200Y-113469570D01*
X105947243Y-113545605D01*
X105947244Y-113545608D01*
X106022661Y-113777717D01*
X106048603Y-113828632D01*
X106133461Y-113995174D01*
X106276904Y-114192608D01*
X106276908Y-114192613D01*
X106449483Y-114365188D01*
X106449488Y-114365192D01*
X106621701Y-114490311D01*
X106646926Y-114508638D01*
X106864380Y-114619436D01*
X107096489Y-114694853D01*
X107337538Y-114733032D01*
X107337539Y-114733032D01*
X107581591Y-114733032D01*
X107581592Y-114733032D01*
X107822641Y-114694853D01*
X108054750Y-114619436D01*
X108272204Y-114508638D01*
X108469648Y-114365187D01*
X108642220Y-114192615D01*
X108785671Y-113995171D01*
X108896469Y-113777717D01*
X108971886Y-113545608D01*
X109010065Y-113304559D01*
X109010065Y-113060505D01*
X108971886Y-112819456D01*
X108896469Y-112587347D01*
X108785671Y-112369893D01*
X108767344Y-112344668D01*
X108642225Y-112172455D01*
X108642221Y-112172450D01*
X108469646Y-111999875D01*
X108469641Y-111999871D01*
X108272207Y-111856428D01*
X108272206Y-111856427D01*
X108272204Y-111856426D01*
X108054750Y-111745628D01*
X107822641Y-111670211D01*
X107822639Y-111670210D01*
X107746603Y-111658167D01*
X107683469Y-111628237D01*
X107646538Y-111568925D01*
X107647536Y-111499063D01*
X107678319Y-111448015D01*
X113724535Y-105401799D01*
X113785856Y-105368316D01*
X113855548Y-105373300D01*
X113911481Y-105415172D01*
X113934687Y-105470084D01*
X113946701Y-105545934D01*
X114012500Y-105748443D01*
X114022119Y-105778045D01*
X114132918Y-105995500D01*
X114276361Y-106192934D01*
X114276365Y-106192939D01*
X114448940Y-106365514D01*
X114448945Y-106365518D01*
X114540233Y-106431842D01*
X114646383Y-106508964D01*
X114863837Y-106619762D01*
X115095946Y-106695179D01*
X115336995Y-106733358D01*
X115336996Y-106733358D01*
X115581048Y-106733358D01*
X115581049Y-106733358D01*
X115822098Y-106695179D01*
X116054207Y-106619762D01*
X116271661Y-106508964D01*
X116469105Y-106365513D01*
X116641677Y-106192941D01*
X116785128Y-105995497D01*
X116895926Y-105778043D01*
X116971343Y-105545934D01*
X117009522Y-105304885D01*
X117009522Y-105060831D01*
X116971343Y-104819782D01*
X116895926Y-104587673D01*
X116785128Y-104370219D01*
X116766801Y-104344994D01*
X116641682Y-104172781D01*
X116641678Y-104172776D01*
X116469103Y-104000201D01*
X116469098Y-104000197D01*
X116271664Y-103856754D01*
X116271663Y-103856753D01*
X116271661Y-103856752D01*
X116054207Y-103745954D01*
X115822098Y-103670537D01*
X115822096Y-103670536D01*
X115822094Y-103670536D01*
X115746248Y-103658523D01*
X115683113Y-103628593D01*
X115646182Y-103569282D01*
X115647180Y-103499419D01*
X115677963Y-103448371D01*
X127177819Y-91948516D01*
X127239142Y-91915031D01*
X127308834Y-91920015D01*
X127364767Y-91961887D01*
X127389184Y-92027351D01*
X127389500Y-92036197D01*
X127389500Y-99342385D01*
X127369815Y-99409424D01*
X127353181Y-99430066D01*
X122170749Y-104612497D01*
X122109426Y-104645982D01*
X122039734Y-104640998D01*
X121983801Y-104599126D01*
X121972583Y-104581111D01*
X121936047Y-104509406D01*
X121865128Y-104370219D01*
X121846801Y-104344994D01*
X121721682Y-104172781D01*
X121721678Y-104172776D01*
X121549103Y-104000201D01*
X121549098Y-104000197D01*
X121351664Y-103856754D01*
X121351663Y-103856753D01*
X121351661Y-103856752D01*
X121134207Y-103745954D01*
X120902098Y-103670537D01*
X120902096Y-103670536D01*
X120902094Y-103670536D01*
X120733791Y-103643879D01*
X120661049Y-103632358D01*
X120416995Y-103632358D01*
X120361115Y-103641208D01*
X120175949Y-103670536D01*
X119943834Y-103745955D01*
X119726379Y-103856754D01*
X119528945Y-104000197D01*
X119528940Y-104000201D01*
X119356365Y-104172776D01*
X119356361Y-104172781D01*
X119212918Y-104370215D01*
X119102119Y-104587670D01*
X119026700Y-104819785D01*
X118991111Y-105044487D01*
X118988522Y-105060831D01*
X118988522Y-105304885D01*
X119026701Y-105545934D01*
X119092500Y-105748443D01*
X119102119Y-105778045D01*
X119212918Y-105995500D01*
X119356361Y-106192934D01*
X119356365Y-106192939D01*
X119528940Y-106365514D01*
X119528945Y-106365518D01*
X119620233Y-106431842D01*
X119726383Y-106508964D01*
X119865570Y-106579883D01*
X119937275Y-106616419D01*
X119988071Y-106664394D01*
X120004866Y-106732215D01*
X119982329Y-106798350D01*
X119968661Y-106814585D01*
X114171218Y-112612027D01*
X114109895Y-112645512D01*
X114040203Y-112640528D01*
X113984270Y-112598656D01*
X113973052Y-112580641D01*
X113865671Y-112369893D01*
X113847344Y-112344668D01*
X113722225Y-112172455D01*
X113722221Y-112172450D01*
X113549646Y-111999875D01*
X113549641Y-111999871D01*
X113352207Y-111856428D01*
X113352206Y-111856427D01*
X113352204Y-111856426D01*
X113134750Y-111745628D01*
X112902641Y-111670211D01*
X112902639Y-111670210D01*
X112902637Y-111670210D01*
X112676675Y-111634421D01*
X112661592Y-111632032D01*
X112417538Y-111632032D01*
X112402455Y-111634421D01*
X112176492Y-111670210D01*
X111944377Y-111745629D01*
X111726922Y-111856428D01*
X111529488Y-111999871D01*
X111529483Y-111999875D01*
X111356908Y-112172450D01*
X111356904Y-112172455D01*
X111213461Y-112369889D01*
X111102662Y-112587344D01*
X111027243Y-112819459D01*
X110989065Y-113060505D01*
X110989065Y-113304558D01*
X111027243Y-113545604D01*
X111027243Y-113545606D01*
X111027244Y-113545608D01*
X111102661Y-113777717D01*
X111128603Y-113828632D01*
X111213461Y-113995174D01*
X111356904Y-114192608D01*
X111356908Y-114192613D01*
X111529483Y-114365188D01*
X111529488Y-114365192D01*
X111701701Y-114490311D01*
X111726926Y-114508638D01*
X111858847Y-114575855D01*
X111937818Y-114616093D01*
X111988614Y-114664068D01*
X112005409Y-114731889D01*
X111982872Y-114798024D01*
X111969204Y-114814259D01*
X111661623Y-115121841D01*
X111600300Y-115155326D01*
X111573942Y-115158160D01*
X107986610Y-115158160D01*
X107919571Y-115138475D01*
X107917718Y-115137261D01*
X107877892Y-115110649D01*
X107877887Y-115110647D01*
X107714007Y-115042766D01*
X107713998Y-115042763D01*
X107540034Y-115008160D01*
X107540031Y-115008160D01*
X107362649Y-115008160D01*
X107362646Y-115008160D01*
X107188681Y-115042763D01*
X107188672Y-115042766D01*
X107024799Y-115110643D01*
X107024786Y-115110650D01*
X106877305Y-115209195D01*
X106877301Y-115209198D01*
X106751878Y-115334621D01*
X106751875Y-115334625D01*
X106653330Y-115482106D01*
X106653323Y-115482119D01*
X106585446Y-115645992D01*
X106585443Y-115646001D01*
X106550840Y-115819964D01*
X106550840Y-115997355D01*
X106585443Y-116171318D01*
X106585446Y-116171327D01*
X106653323Y-116335200D01*
X106653330Y-116335213D01*
X106751875Y-116482694D01*
X106751878Y-116482698D01*
X106877301Y-116608121D01*
X106877305Y-116608124D01*
X107024786Y-116706669D01*
X107024799Y-116706676D01*
X107147703Y-116757583D01*
X107188674Y-116774554D01*
X107188676Y-116774554D01*
X107188681Y-116774556D01*
X107362644Y-116809159D01*
X107362647Y-116809160D01*
X107362649Y-116809160D01*
X107540033Y-116809160D01*
X107540034Y-116809159D01*
X107598022Y-116797624D01*
X107713998Y-116774556D01*
X107714001Y-116774554D01*
X107714006Y-116774554D01*
X107877887Y-116706673D01*
X107877890Y-116706670D01*
X107877892Y-116706670D01*
X107917718Y-116680059D01*
X107984395Y-116659180D01*
X107986610Y-116659160D01*
X112010092Y-116659160D01*
X112107634Y-116639756D01*
X112155085Y-116630318D01*
X112291667Y-116573744D01*
X112347344Y-116536542D01*
X112347344Y-116536541D01*
X112347346Y-116536541D01*
X112380966Y-116514077D01*
X112414588Y-116491612D01*
X112571000Y-116335200D01*
X112669313Y-116236888D01*
X116405235Y-116236888D01*
X116405235Y-116394581D01*
X116435996Y-116549224D01*
X116435999Y-116549236D01*
X116496337Y-116694907D01*
X116496344Y-116694920D01*
X116583945Y-116826023D01*
X116583948Y-116826027D01*
X116695442Y-116937521D01*
X116695446Y-116937524D01*
X116826549Y-117025125D01*
X116826562Y-117025132D01*
X116972233Y-117085470D01*
X116972238Y-117085472D01*
X117126888Y-117116234D01*
X117126891Y-117116235D01*
X117126893Y-117116235D01*
X117284579Y-117116235D01*
X117284580Y-117116234D01*
X117439232Y-117085472D01*
X117584914Y-117025129D01*
X117716024Y-116937524D01*
X117827524Y-116826024D01*
X117915129Y-116694914D01*
X117975472Y-116549232D01*
X118006235Y-116394577D01*
X118006235Y-116236893D01*
X118006235Y-116236890D01*
X118006234Y-116236888D01*
X117997617Y-116193566D01*
X117975472Y-116082238D01*
X117942439Y-116002488D01*
X117915132Y-115936562D01*
X117915125Y-115936549D01*
X117827524Y-115805446D01*
X117827521Y-115805442D01*
X117716027Y-115693948D01*
X117716023Y-115693945D01*
X117584920Y-115606344D01*
X117584907Y-115606337D01*
X117439236Y-115545999D01*
X117439224Y-115545996D01*
X117284580Y-115515235D01*
X117284577Y-115515235D01*
X117126893Y-115515235D01*
X117126890Y-115515235D01*
X116972245Y-115545996D01*
X116972233Y-115545999D01*
X116826562Y-115606337D01*
X116826549Y-115606344D01*
X116695446Y-115693945D01*
X116695442Y-115693948D01*
X116583948Y-115805442D01*
X116583945Y-115805446D01*
X116496344Y-115936549D01*
X116496337Y-115936562D01*
X116435999Y-116082233D01*
X116435996Y-116082245D01*
X116405235Y-116236888D01*
X112669313Y-116236888D01*
X112763081Y-116143120D01*
X114626739Y-114279460D01*
X114628828Y-114277153D01*
X115845476Y-113060505D01*
X121908848Y-113060505D01*
X121908848Y-113304558D01*
X121947026Y-113545604D01*
X121947026Y-113545606D01*
X121947027Y-113545608D01*
X122022444Y-113777717D01*
X122048386Y-113828632D01*
X122133244Y-113995174D01*
X122276687Y-114192608D01*
X122276691Y-114192613D01*
X122449266Y-114365188D01*
X122449271Y-114365192D01*
X122621484Y-114490311D01*
X122646709Y-114508638D01*
X122864163Y-114619436D01*
X123096272Y-114694853D01*
X123337321Y-114733032D01*
X123337322Y-114733032D01*
X123581374Y-114733032D01*
X123581375Y-114733032D01*
X123822424Y-114694853D01*
X124054533Y-114619436D01*
X124271987Y-114508638D01*
X124469431Y-114365187D01*
X124642003Y-114192615D01*
X124785454Y-113995171D01*
X124896252Y-113777717D01*
X124971669Y-113545608D01*
X125009848Y-113304559D01*
X125009848Y-113060505D01*
X124971669Y-112819456D01*
X124896252Y-112587347D01*
X124785454Y-112369893D01*
X124767127Y-112344668D01*
X124642008Y-112172455D01*
X124642004Y-112172450D01*
X124469429Y-111999875D01*
X124469424Y-111999871D01*
X124271990Y-111856428D01*
X124271989Y-111856427D01*
X124271987Y-111856426D01*
X124054533Y-111745628D01*
X123822424Y-111670211D01*
X123822422Y-111670210D01*
X123822420Y-111670210D01*
X123596458Y-111634421D01*
X123581375Y-111632032D01*
X123337321Y-111632032D01*
X123322238Y-111634421D01*
X123096275Y-111670210D01*
X122864160Y-111745629D01*
X122646705Y-111856428D01*
X122449271Y-111999871D01*
X122449266Y-111999875D01*
X122276691Y-112172450D01*
X122276687Y-112172455D01*
X122133244Y-112369889D01*
X122022445Y-112587344D01*
X121947026Y-112819459D01*
X121908848Y-113060505D01*
X115845476Y-113060505D01*
X128722951Y-100183031D01*
X128805084Y-100060110D01*
X128861658Y-99923528D01*
X128882979Y-99816344D01*
X128890500Y-99778535D01*
X128890500Y-97421153D01*
X129199500Y-97421153D01*
X129199500Y-97578846D01*
X129230261Y-97733489D01*
X129230264Y-97733501D01*
X129290602Y-97879172D01*
X129290609Y-97879185D01*
X129378210Y-98010288D01*
X129378213Y-98010292D01*
X129489707Y-98121786D01*
X129489711Y-98121789D01*
X129620814Y-98209390D01*
X129620827Y-98209397D01*
X129736641Y-98257368D01*
X129766503Y-98269737D01*
X129921153Y-98300499D01*
X129921156Y-98300500D01*
X129921158Y-98300500D01*
X130078844Y-98300500D01*
X130078845Y-98300499D01*
X130233497Y-98269737D01*
X130368474Y-98213828D01*
X130379172Y-98209397D01*
X130379172Y-98209396D01*
X130379179Y-98209394D01*
X130510289Y-98121789D01*
X130621789Y-98010289D01*
X130709394Y-97879179D01*
X130769737Y-97733497D01*
X130800500Y-97578842D01*
X130800500Y-97421158D01*
X130800500Y-97421155D01*
X130800499Y-97421153D01*
X130775813Y-97297048D01*
X130769737Y-97266503D01*
X130748369Y-97214916D01*
X130709397Y-97120827D01*
X130709390Y-97120814D01*
X130621789Y-96989711D01*
X130621786Y-96989707D01*
X130510292Y-96878213D01*
X130510288Y-96878210D01*
X130379185Y-96790609D01*
X130379172Y-96790602D01*
X130233501Y-96730264D01*
X130233489Y-96730261D01*
X130078845Y-96699500D01*
X130078842Y-96699500D01*
X129921158Y-96699500D01*
X129921155Y-96699500D01*
X129766510Y-96730261D01*
X129766498Y-96730264D01*
X129620827Y-96790602D01*
X129620814Y-96790609D01*
X129489711Y-96878210D01*
X129489707Y-96878213D01*
X129378213Y-96989707D01*
X129378210Y-96989711D01*
X129290609Y-97120814D01*
X129290602Y-97120827D01*
X129230264Y-97266498D01*
X129230261Y-97266510D01*
X129199500Y-97421153D01*
X128890500Y-97421153D01*
X128890500Y-91278561D01*
X128910185Y-91211522D01*
X128926810Y-91190889D01*
X129090133Y-91027566D01*
X129151452Y-90994084D01*
X129221143Y-90999068D01*
X129265492Y-91027570D01*
X129299707Y-91061786D01*
X129299711Y-91061789D01*
X129430814Y-91149390D01*
X129430827Y-91149397D01*
X129576498Y-91209735D01*
X129576503Y-91209737D01*
X129731153Y-91240499D01*
X129731156Y-91240500D01*
X129731158Y-91240500D01*
X129888844Y-91240500D01*
X129888845Y-91240499D01*
X130043497Y-91209737D01*
X130189179Y-91149394D01*
X130320289Y-91061789D01*
X130431789Y-90950289D01*
X130519394Y-90819179D01*
X130579737Y-90673497D01*
X130610500Y-90518842D01*
X130610500Y-90361158D01*
X130610500Y-90361155D01*
X130610499Y-90361153D01*
X130595815Y-90287331D01*
X130579737Y-90206503D01*
X130579735Y-90206498D01*
X130519397Y-90060827D01*
X130519390Y-90060814D01*
X130431789Y-89929711D01*
X130431786Y-89929707D01*
X130397570Y-89895492D01*
X130364084Y-89834170D01*
X130369068Y-89764478D01*
X130397567Y-89720131D01*
X131936546Y-88181153D01*
X148429500Y-88181153D01*
X148429500Y-88338846D01*
X148460261Y-88493489D01*
X148460264Y-88493501D01*
X148520602Y-88639172D01*
X148520609Y-88639185D01*
X148608210Y-88770288D01*
X148608213Y-88770292D01*
X148719707Y-88881786D01*
X148719711Y-88881789D01*
X148850814Y-88969390D01*
X148850827Y-88969397D01*
X148996498Y-89029735D01*
X148996503Y-89029737D01*
X149129717Y-89056235D01*
X149151153Y-89060499D01*
X149151156Y-89060500D01*
X149151158Y-89060500D01*
X149308844Y-89060500D01*
X149308845Y-89060499D01*
X149463497Y-89029737D01*
X149609179Y-88969394D01*
X149740289Y-88881789D01*
X149851789Y-88770289D01*
X149939394Y-88639179D01*
X149999737Y-88493497D01*
X150030500Y-88338842D01*
X150030500Y-88181158D01*
X150030500Y-88181155D01*
X150030499Y-88181153D01*
X149999738Y-88026510D01*
X149999737Y-88026503D01*
X149972911Y-87961738D01*
X149939397Y-87880827D01*
X149939390Y-87880814D01*
X149851789Y-87749711D01*
X149851786Y-87749707D01*
X149740292Y-87638213D01*
X149740288Y-87638210D01*
X149609185Y-87550609D01*
X149609172Y-87550602D01*
X149463501Y-87490264D01*
X149463489Y-87490261D01*
X149308845Y-87459500D01*
X149308842Y-87459500D01*
X149151158Y-87459500D01*
X149151155Y-87459500D01*
X148996510Y-87490261D01*
X148996498Y-87490264D01*
X148850827Y-87550602D01*
X148850814Y-87550609D01*
X148719711Y-87638210D01*
X148719707Y-87638213D01*
X148608213Y-87749707D01*
X148608210Y-87749711D01*
X148520609Y-87880814D01*
X148520602Y-87880827D01*
X148460264Y-88026498D01*
X148460261Y-88026510D01*
X148429500Y-88181153D01*
X131936546Y-88181153D01*
X132888881Y-87228819D01*
X132950204Y-87195334D01*
X132976562Y-87192500D01*
X137002152Y-87192500D01*
X137069191Y-87212185D01*
X137114946Y-87264989D01*
X137123769Y-87292308D01*
X137150261Y-87425491D01*
X137150264Y-87425501D01*
X137210602Y-87571172D01*
X137210609Y-87571185D01*
X137298210Y-87702288D01*
X137298213Y-87702292D01*
X137409707Y-87813786D01*
X137409711Y-87813789D01*
X137540814Y-87901390D01*
X137540827Y-87901397D01*
X137686498Y-87961735D01*
X137686503Y-87961737D01*
X137841153Y-87992499D01*
X137841156Y-87992500D01*
X137841158Y-87992500D01*
X137998844Y-87992500D01*
X137998845Y-87992499D01*
X138153497Y-87961737D01*
X138299179Y-87901394D01*
X138430289Y-87813789D01*
X138541789Y-87702289D01*
X138629394Y-87571179D01*
X138689737Y-87425497D01*
X138700302Y-87372384D01*
X138716231Y-87292308D01*
X138748616Y-87230397D01*
X138809332Y-87195823D01*
X138837848Y-87192500D01*
X144785352Y-87192500D01*
X144882894Y-87173096D01*
X144930345Y-87163658D01*
X145066927Y-87107084D01*
X145116161Y-87074186D01*
X145189848Y-87024952D01*
X148822952Y-83391848D01*
X148872186Y-83318161D01*
X148905084Y-83268927D01*
X148947834Y-83165720D01*
X148961659Y-83132344D01*
X148990500Y-82987349D01*
X148990500Y-82839514D01*
X148990500Y-82310158D01*
X149010185Y-82243119D01*
X149062989Y-82197364D01*
X149132147Y-82187420D01*
X149195703Y-82216445D01*
X149224985Y-82253864D01*
X149248118Y-82299266D01*
X149391563Y-82496702D01*
X149391567Y-82496707D01*
X149564142Y-82669282D01*
X149564147Y-82669286D01*
X149736360Y-82794405D01*
X149761585Y-82812732D01*
X149979039Y-82923530D01*
X150211148Y-82998947D01*
X150452197Y-83037126D01*
X150452198Y-83037126D01*
X150696250Y-83037126D01*
X150696251Y-83037126D01*
X150937300Y-82998947D01*
X151169409Y-82923530D01*
X151386863Y-82812732D01*
X151584307Y-82669281D01*
X151756879Y-82496709D01*
X151900330Y-82299265D01*
X152011128Y-82081811D01*
X152086545Y-81849702D01*
X152124724Y-81608653D01*
X152124724Y-81364599D01*
X152086545Y-81123550D01*
X152011128Y-80891441D01*
X151900330Y-80673987D01*
X151767500Y-80491161D01*
X151756884Y-80476549D01*
X151756880Y-80476544D01*
X151584305Y-80303969D01*
X151584300Y-80303965D01*
X151386866Y-80160522D01*
X151386865Y-80160521D01*
X151386863Y-80160520D01*
X151169409Y-80049722D01*
X150937300Y-79974305D01*
X150937298Y-79974304D01*
X150937296Y-79974304D01*
X150755890Y-79945572D01*
X150696251Y-79936126D01*
X150452197Y-79936126D01*
X150407231Y-79943248D01*
X150211151Y-79974304D01*
X149979036Y-80049723D01*
X149761581Y-80160522D01*
X149564147Y-80303965D01*
X149564142Y-80303969D01*
X149391567Y-80476544D01*
X149391563Y-80476549D01*
X149248120Y-80673983D01*
X149224985Y-80719388D01*
X149177010Y-80770184D01*
X149109189Y-80786979D01*
X149043054Y-80764441D01*
X148999603Y-80709726D01*
X148990500Y-80663093D01*
X148990500Y-74501564D01*
X149010185Y-74434525D01*
X149062989Y-74388770D01*
X149132147Y-74378826D01*
X149195703Y-74407851D01*
G37*
%TD.AperFunction*%
%TA.AperFunction,Conductor*%
G36*
X80885724Y-97420173D02*
G01*
X80931479Y-97472977D01*
X80941423Y-97542136D01*
X80912398Y-97605692D01*
X80874980Y-97634974D01*
X80713830Y-97717084D01*
X80630894Y-97777340D01*
X81370591Y-98517037D01*
X81307007Y-98534075D01*
X81192993Y-98599901D01*
X81099901Y-98692993D01*
X81034075Y-98807007D01*
X81017037Y-98870590D01*
X80270727Y-98124280D01*
X80227052Y-98115105D01*
X80185384Y-98078739D01*
X80144517Y-98022490D01*
X79977510Y-97855483D01*
X79786433Y-97716657D01*
X79626125Y-97634976D01*
X79575329Y-97587001D01*
X79558534Y-97519180D01*
X79581071Y-97453045D01*
X79635787Y-97409594D01*
X79682419Y-97400491D01*
X80818686Y-97400489D01*
X80885724Y-97420173D01*
G37*
%TD.AperFunction*%
%TD*%
M02*
