%TF.GenerationSoftware,KiCad,Pcbnew,9.0.2*%
%TF.CreationDate,2025-07-08T14:50:53+02:00*%
%TF.ProjectId,FMControllerSeed,464d436f-6e74-4726-9f6c-6c6572536565,rev?*%
%TF.SameCoordinates,Original*%
%TF.FileFunction,Soldermask,Bot*%
%TF.FilePolarity,Negative*%
%FSLAX46Y46*%
G04 Gerber Fmt 4.6, Leading zero omitted, Abs format (unit mm)*
G04 Created by KiCad (PCBNEW 9.0.2) date 2025-07-08 14:50:53*
%MOMM*%
%LPD*%
G01*
G04 APERTURE LIST*
G04 Aperture macros list*
%AMRoundRect*
0 Rectangle with rounded corners*
0 $1 Rounding radius*
0 $2 $3 $4 $5 $6 $7 $8 $9 X,Y pos of 4 corners*
0 Add a 4 corners polygon primitive as box body*
4,1,4,$2,$3,$4,$5,$6,$7,$8,$9,$2,$3,0*
0 Add four circle primitives for the rounded corners*
1,1,$1+$1,$2,$3*
1,1,$1+$1,$4,$5*
1,1,$1+$1,$6,$7*
1,1,$1+$1,$8,$9*
0 Add four rect primitives between the rounded corners*
20,1,$1+$1,$2,$3,$4,$5,0*
20,1,$1+$1,$4,$5,$6,$7,0*
20,1,$1+$1,$6,$7,$8,$9,0*
20,1,$1+$1,$8,$9,$2,$3,0*%
G04 Aperture macros list end*
%ADD10C,2.100000*%
%ADD11R,1.270000X1.270000*%
%ADD12C,1.270000*%
%ADD13C,2.076200*%
%ADD14C,2.200000*%
%ADD15O,1.000000X2.100000*%
%ADD16O,1.000000X1.800000*%
%ADD17C,2.000000*%
%ADD18RoundRect,0.218750X0.481250X0.781250X-0.481250X0.781250X-0.481250X-0.781250X0.481250X-0.781250X0*%
G04 APERTURE END LIST*
D10*
%TO.C,StickL2*%
X144568248Y-74540000D03*
X144568248Y-69460000D03*
%TD*%
%TO.C,BumperL1*%
X139292937Y-83872751D03*
X139292937Y-78792751D03*
%TD*%
D11*
%TO.C,SW17*%
X205760000Y-118380000D03*
D12*
X203260000Y-118380000D03*
X200760000Y-118380000D03*
%TD*%
D13*
%TO.C,U3*%
X75830000Y-116980000D03*
X75830000Y-114180000D03*
%TD*%
%TO.C,U2*%
X169480000Y-99630000D03*
X172280000Y-99630000D03*
%TD*%
D10*
%TO.C,BumperR1*%
X156775311Y-83872751D03*
X156775311Y-78792751D03*
%TD*%
%TO.C,B1*%
X201012488Y-93182858D03*
X206092488Y-93182858D03*
%TD*%
D14*
%TO.C,REF\u002A\u002A*%
X77160000Y-104460000D03*
%TD*%
D10*
%TO.C,Home1*%
X145494224Y-81486626D03*
X150574224Y-81486626D03*
%TD*%
%TO.C,StickR2*%
X151500000Y-74540000D03*
X151500000Y-69460000D03*
%TD*%
%TO.C,Start1*%
X155493736Y-90382830D03*
X160573736Y-90382830D03*
%TD*%
%TO.C,LEFT1*%
X107459565Y-113182532D03*
X112539565Y-113182532D03*
%TD*%
%TO.C,A1*%
X192527472Y-101667529D03*
X197607472Y-101667529D03*
%TD*%
%TO.C,RIGHT1*%
X123459348Y-113182532D03*
X128539348Y-113182532D03*
%TD*%
%TO.C,Y1*%
X192527797Y-84697516D03*
X197607797Y-84697516D03*
%TD*%
D15*
%TO.C,J1*%
X152353509Y-57113509D03*
D16*
X152353509Y-52933509D03*
D15*
X143713509Y-57113509D03*
D16*
X143713509Y-52933509D03*
%TD*%
D10*
%TO.C,DOWN1*%
X115459348Y-121182532D03*
X120539348Y-121182532D03*
%TD*%
D14*
%TO.C,REF\u002A\u002A*%
X206290000Y-84810000D03*
%TD*%
%TO.C,REF\u002A\u002A*%
X174000000Y-94000000D03*
%TD*%
%TO.C,REF\u002A\u002A*%
X131000000Y-107000000D03*
%TD*%
D10*
%TO.C,Select1*%
X135494224Y-90382341D03*
X140574224Y-90382341D03*
%TD*%
D14*
%TO.C,REF\u002A\u002A*%
X151000000Y-65000000D03*
%TD*%
D10*
%TO.C,UP1*%
X115459022Y-105182858D03*
X120539022Y-105182858D03*
%TD*%
%TO.C,X1*%
X184041823Y-93182858D03*
X189121823Y-93182858D03*
%TD*%
D17*
%TO.C,TriggerL1*%
X81500000Y-99000000D03*
X79000000Y-99000000D03*
X76500000Y-99000000D03*
%TD*%
D18*
%TO.C,J2*%
X89668129Y-120500000D03*
%TD*%
%TO.C,J2*%
X89668129Y-111270000D03*
%TD*%
D17*
%TO.C,TriggerR1*%
X206017934Y-81930715D03*
X203517934Y-81930715D03*
X201017934Y-81930715D03*
%TD*%
M02*
