%TF.GenerationSoftware,KiCad,Pcbnew,9.0.2*%
%TF.CreationDate,2025-07-08T14:50:53+02:00*%
%TF.ProjectId,FMControllerSeed,464d436f-6e74-4726-9f6c-6c6572536565,rev?*%
%TF.SameCoordinates,Original*%
%TF.FileFunction,Paste,Top*%
%TF.FilePolarity,Positive*%
%FSLAX46Y46*%
G04 Gerber Fmt 4.6, Leading zero omitted, Abs format (unit mm)*
G04 Created by KiCad (PCBNEW 9.0.2) date 2025-07-08 14:50:53*
%MOMM*%
%LPD*%
G01*
G04 APERTURE LIST*
G04 Aperture macros list*
%AMRoundRect*
0 Rectangle with rounded corners*
0 $1 Rounding radius*
0 $2 $3 $4 $5 $6 $7 $8 $9 X,Y pos of 4 corners*
0 Add a 4 corners polygon primitive as box body*
4,1,4,$2,$3,$4,$5,$6,$7,$8,$9,$2,$3,0*
0 Add four circle primitives for the rounded corners*
1,1,$1+$1,$2,$3*
1,1,$1+$1,$4,$5*
1,1,$1+$1,$6,$7*
1,1,$1+$1,$8,$9*
0 Add four rect primitives between the rounded corners*
20,1,$1+$1,$2,$3,$4,$5,0*
20,1,$1+$1,$4,$5,$6,$7,0*
20,1,$1+$1,$6,$7,$8,$9,0*
20,1,$1+$1,$8,$9,$2,$3,0*%
%AMFreePoly0*
4,1,7,1.050000,-0.975000,-0.250000,-0.975000,-0.250000,-0.625000,-1.050000,-0.625000,-1.050000,0.975000,1.050000,0.975000,1.050000,-0.975000,1.050000,-0.975000,$1*%
%AMFreePoly1*
4,1,7,1.050000,-0.625000,0.250000,-0.625000,0.250000,-0.975000,-1.050000,-0.975000,-1.050000,0.975000,1.050000,0.975000,1.050000,-0.625000,1.050000,-0.625000,$1*%
G04 Aperture macros list end*
%ADD10RoundRect,0.150000X0.587500X0.150000X-0.587500X0.150000X-0.587500X-0.150000X0.587500X-0.150000X0*%
%ADD11RoundRect,0.150000X0.150000X-0.587500X0.150000X0.587500X-0.150000X0.587500X-0.150000X-0.587500X0*%
%ADD12RoundRect,0.075000X-0.475000X0.075000X-0.475000X-0.075000X0.475000X-0.075000X0.475000X0.075000X0*%
%ADD13FreePoly0,270.000000*%
%ADD14FreePoly1,270.000000*%
%ADD15RoundRect,0.250000X0.350000X0.450000X-0.350000X0.450000X-0.350000X-0.450000X0.350000X-0.450000X0*%
%ADD16RoundRect,0.250000X0.250000X0.500000X-0.250000X0.500000X-0.250000X-0.500000X0.250000X-0.500000X0*%
%ADD17RoundRect,0.250000X-0.250000X-0.500000X0.250000X-0.500000X0.250000X0.500000X-0.250000X0.500000X0*%
%ADD18RoundRect,0.250000X0.337500X0.475000X-0.337500X0.475000X-0.337500X-0.475000X0.337500X-0.475000X0*%
%ADD19RoundRect,0.250000X-0.350000X-0.450000X0.350000X-0.450000X0.350000X0.450000X-0.350000X0.450000X0*%
%ADD20RoundRect,0.150000X-0.150000X0.587500X-0.150000X-0.587500X0.150000X-0.587500X0.150000X0.587500X0*%
%ADD21RoundRect,0.150000X0.150000X0.425000X-0.150000X0.425000X-0.150000X-0.425000X0.150000X-0.425000X0*%
%ADD22RoundRect,0.075000X0.075000X0.500000X-0.075000X0.500000X-0.075000X-0.500000X0.075000X-0.500000X0*%
%ADD23O,1.000000X2.100000*%
%ADD24O,1.000000X1.800000*%
%ADD25RoundRect,0.250000X-0.450000X0.350000X-0.450000X-0.350000X0.450000X-0.350000X0.450000X0.350000X0*%
G04 APERTURE END LIST*
D10*
%TO.C,D7*%
X126227500Y-120152500D03*
X126227500Y-118252500D03*
X124352500Y-119202500D03*
%TD*%
D11*
%TO.C,D3*%
X147330000Y-88260000D03*
X149230000Y-88260000D03*
X148280000Y-86385000D03*
%TD*%
D12*
%TO.C,StickR1*%
X206230000Y-109810000D03*
X206230000Y-110310000D03*
X206230000Y-110810000D03*
X206230000Y-111310000D03*
D13*
X205105000Y-107560000D03*
D14*
X205105000Y-113560000D03*
%TD*%
D15*
%TO.C,R4*%
X152440000Y-61050000D03*
X150440000Y-61050000D03*
%TD*%
D16*
%TO.C,U1*%
X96350000Y-106970000D03*
X93810000Y-106970000D03*
X91270000Y-106970000D03*
D17*
X91270000Y-124750000D03*
D16*
X88730000Y-106970000D03*
X86190000Y-106970000D03*
D17*
X96350000Y-124750000D03*
D16*
X83650000Y-106970000D03*
D17*
X83650000Y-124750000D03*
X86190000Y-124750000D03*
X88730000Y-124750000D03*
D16*
X82380000Y-106970000D03*
D17*
X82380000Y-124750000D03*
X84920000Y-124750000D03*
X87460000Y-124750000D03*
D16*
X95080000Y-106970000D03*
X92540000Y-106970000D03*
X90000000Y-106970000D03*
X87460000Y-106970000D03*
X84920000Y-106970000D03*
X81110000Y-106970000D03*
D17*
X81110000Y-124750000D03*
X93810000Y-124750000D03*
%TD*%
D11*
%TO.C,D4*%
X151170000Y-88330000D03*
X153070000Y-88330000D03*
X152120000Y-86455000D03*
%TD*%
D12*
%TO.C,StickL1*%
X129125000Y-94250000D03*
X129125000Y-94750000D03*
X129125000Y-95250000D03*
X129125000Y-95750000D03*
D13*
X128000000Y-92000000D03*
D14*
X128000000Y-98000000D03*
%TD*%
D11*
%TO.C,D5*%
X201322500Y-99815000D03*
X203222500Y-99815000D03*
X202272500Y-97940000D03*
%TD*%
D10*
%TO.C,D2*%
X148837500Y-73200000D03*
X148837500Y-71300000D03*
X146962500Y-72250000D03*
%TD*%
D18*
%TO.C,C1*%
X77157500Y-123190000D03*
X75082500Y-123190000D03*
%TD*%
D19*
%TO.C,R3*%
X143480000Y-61050000D03*
X145480000Y-61050000D03*
%TD*%
D20*
%TO.C,D8*%
X110550000Y-117972500D03*
X108650000Y-117972500D03*
X109600000Y-119847500D03*
%TD*%
D21*
%TO.C,J1*%
X151233509Y-57688509D03*
X150433509Y-57688509D03*
D22*
X149283509Y-57688509D03*
X148283509Y-57688509D03*
X147783509Y-57688509D03*
X146783509Y-57688509D03*
D21*
X145633509Y-57688509D03*
X144833509Y-57688509D03*
X144833509Y-57688509D03*
X145633509Y-57688509D03*
D22*
X146283509Y-57688509D03*
X147283509Y-57688509D03*
X148783509Y-57688509D03*
X149783509Y-57688509D03*
D21*
X150433509Y-57688509D03*
X151233509Y-57688509D03*
D23*
X152353509Y-57113509D03*
D24*
X152353509Y-52933509D03*
D23*
X143713509Y-57113509D03*
D24*
X143713509Y-52933509D03*
%TD*%
D20*
%TO.C,D1*%
X143220000Y-78642500D03*
X141320000Y-78642500D03*
X142270000Y-80517500D03*
%TD*%
D25*
%TO.C,R2*%
X75830000Y-119350000D03*
X75830000Y-121350000D03*
%TD*%
%TO.C,R1*%
X76010000Y-109050000D03*
X76010000Y-111050000D03*
%TD*%
D20*
%TO.C,D6*%
X195875000Y-92012500D03*
X193975000Y-92012500D03*
X194925000Y-93887500D03*
%TD*%
M02*
