%TF.GenerationSoftware,KiCad,Pcbnew,9.0.2*%
%TF.CreationDate,2025-07-08T14:50:53+02:00*%
%TF.ProjectId,FMControllerSeed,464d436f-6e74-4726-9f6c-6c6572536565,rev?*%
%TF.SameCoordinates,Original*%
%TF.FileFunction,Copper,L1,Top*%
%TF.FilePolarity,Positive*%
%FSLAX46Y46*%
G04 Gerber Fmt 4.6, Leading zero omitted, Abs format (unit mm)*
G04 Created by KiCad (PCBNEW 9.0.2) date 2025-07-08 14:50:53*
%MOMM*%
%LPD*%
G01*
G04 APERTURE LIST*
G04 Aperture macros list*
%AMRoundRect*
0 Rectangle with rounded corners*
0 $1 Rounding radius*
0 $2 $3 $4 $5 $6 $7 $8 $9 X,Y pos of 4 corners*
0 Add a 4 corners polygon primitive as box body*
4,1,4,$2,$3,$4,$5,$6,$7,$8,$9,$2,$3,0*
0 Add four circle primitives for the rounded corners*
1,1,$1+$1,$2,$3*
1,1,$1+$1,$4,$5*
1,1,$1+$1,$6,$7*
1,1,$1+$1,$8,$9*
0 Add four rect primitives between the rounded corners*
20,1,$1+$1,$2,$3,$4,$5,0*
20,1,$1+$1,$4,$5,$6,$7,0*
20,1,$1+$1,$6,$7,$8,$9,0*
20,1,$1+$1,$8,$9,$2,$3,0*%
%AMFreePoly0*
4,1,7,1.050000,-0.975000,-0.250000,-0.975000,-0.250000,-0.625000,-1.050000,-0.625000,-1.050000,0.975000,1.050000,0.975000,1.050000,-0.975000,1.050000,-0.975000,$1*%
%AMFreePoly1*
4,1,7,1.050000,-0.625000,0.250000,-0.625000,0.250000,-0.975000,-1.050000,-0.975000,-1.050000,0.975000,1.050000,0.975000,1.050000,-0.625000,1.050000,-0.625000,$1*%
G04 Aperture macros list end*
%TA.AperFunction,ComponentPad*%
%ADD10C,2.100000*%
%TD*%
%TA.AperFunction,SMDPad,CuDef*%
%ADD11RoundRect,0.150000X0.587500X0.150000X-0.587500X0.150000X-0.587500X-0.150000X0.587500X-0.150000X0*%
%TD*%
%TA.AperFunction,SMDPad,CuDef*%
%ADD12RoundRect,0.150000X0.150000X-0.587500X0.150000X0.587500X-0.150000X0.587500X-0.150000X-0.587500X0*%
%TD*%
%TA.AperFunction,ComponentPad*%
%ADD13R,1.270000X1.270000*%
%TD*%
%TA.AperFunction,ComponentPad*%
%ADD14C,1.270000*%
%TD*%
%TA.AperFunction,ComponentPad*%
%ADD15C,2.000000*%
%TD*%
%TA.AperFunction,SMDPad,CuDef*%
%ADD16RoundRect,0.075000X-0.475000X0.075000X-0.475000X-0.075000X0.475000X-0.075000X0.475000X0.075000X0*%
%TD*%
%TA.AperFunction,SMDPad,CuDef*%
%ADD17FreePoly0,270.000000*%
%TD*%
%TA.AperFunction,SMDPad,CuDef*%
%ADD18FreePoly1,270.000000*%
%TD*%
%TA.AperFunction,SMDPad,CuDef*%
%ADD19RoundRect,0.250000X0.350000X0.450000X-0.350000X0.450000X-0.350000X-0.450000X0.350000X-0.450000X0*%
%TD*%
%TA.AperFunction,SMDPad,CuDef*%
%ADD20RoundRect,0.250000X0.250000X0.500000X-0.250000X0.500000X-0.250000X-0.500000X0.250000X-0.500000X0*%
%TD*%
%TA.AperFunction,SMDPad,CuDef*%
%ADD21RoundRect,0.250000X-0.250000X-0.500000X0.250000X-0.500000X0.250000X0.500000X-0.250000X0.500000X0*%
%TD*%
%TA.AperFunction,SMDPad,CuDef*%
%ADD22RoundRect,0.250000X0.337500X0.475000X-0.337500X0.475000X-0.337500X-0.475000X0.337500X-0.475000X0*%
%TD*%
%TA.AperFunction,SMDPad,CuDef*%
%ADD23RoundRect,0.250000X-0.350000X-0.450000X0.350000X-0.450000X0.350000X0.450000X-0.350000X0.450000X0*%
%TD*%
%TA.AperFunction,SMDPad,CuDef*%
%ADD24RoundRect,0.150000X-0.150000X0.587500X-0.150000X-0.587500X0.150000X-0.587500X0.150000X0.587500X0*%
%TD*%
%TA.AperFunction,SMDPad,CuDef*%
%ADD25RoundRect,0.150000X0.150000X0.425000X-0.150000X0.425000X-0.150000X-0.425000X0.150000X-0.425000X0*%
%TD*%
%TA.AperFunction,SMDPad,CuDef*%
%ADD26RoundRect,0.075000X0.075000X0.500000X-0.075000X0.500000X-0.075000X-0.500000X0.075000X-0.500000X0*%
%TD*%
%TA.AperFunction,HeatsinkPad*%
%ADD27O,1.000000X2.100000*%
%TD*%
%TA.AperFunction,HeatsinkPad*%
%ADD28O,1.000000X1.800000*%
%TD*%
%TA.AperFunction,SMDPad,CuDef*%
%ADD29RoundRect,0.250000X-0.450000X0.350000X-0.450000X-0.350000X0.450000X-0.350000X0.450000X0.350000X0*%
%TD*%
%TA.AperFunction,ViaPad*%
%ADD30C,0.600000*%
%TD*%
%TA.AperFunction,ViaPad*%
%ADD31C,1.000000*%
%TD*%
%TA.AperFunction,ViaPad*%
%ADD32C,0.800000*%
%TD*%
%TA.AperFunction,Conductor*%
%ADD33C,0.200000*%
%TD*%
%TA.AperFunction,Conductor*%
%ADD34C,1.000000*%
%TD*%
%TA.AperFunction,Conductor*%
%ADD35C,0.500000*%
%TD*%
G04 APERTURE END LIST*
D10*
%TO.P,StickL2,1,1*%
%TO.N,Column 1*%
X144568248Y-74540000D03*
%TO.P,StickL2,2,2*%
%TO.N,Net-(D1-Pad1)*%
X144568248Y-69460000D03*
%TD*%
D11*
%TO.P,D7,1*%
%TO.N,Net-(D7-Pad1)*%
X126227500Y-120152500D03*
%TO.P,D7,2*%
%TO.N,Net-(D7-Pad2)*%
X126227500Y-118252500D03*
%TO.P,D7,3*%
%TO.N,Row 3*%
X124352500Y-119202500D03*
%TD*%
D12*
%TO.P,D3,1*%
%TO.N,Net-(D3-Pad1)*%
X147330000Y-88260000D03*
%TO.P,D3,2*%
%TO.N,Net-(D3-Pad2)*%
X149230000Y-88260000D03*
%TO.P,D3,3*%
%TO.N,Row 1*%
X148280000Y-86385000D03*
%TD*%
D10*
%TO.P,BumperL1,1,1*%
%TO.N,Column 0*%
X139292937Y-83872751D03*
%TO.P,BumperL1,2,2*%
%TO.N,Net-(BumperL1-Pad2)*%
X139292937Y-78792751D03*
%TD*%
D13*
%TO.P,SW17,1,1*%
%TO.N,unconnected-(SW17-Pad1)*%
X205760000Y-118380000D03*
D14*
%TO.P,SW17,2,2*%
%TO.N,+BAT*%
X203260000Y-118380000D03*
%TO.P,SW17,3,3*%
%TO.N,Net-(U2-BAT+)*%
X200760000Y-118380000D03*
%TD*%
D15*
%TO.P,U3,1,BAT-*%
%TO.N,-BATT*%
X75830000Y-116980000D03*
%TO.P,U3,2,BAT+*%
%TO.N,+BAT*%
X75830000Y-114180000D03*
%TD*%
%TO.P,U2,1,BAT-*%
%TO.N,-BATT*%
X169480000Y-99630000D03*
%TO.P,U2,2,BAT+*%
%TO.N,Net-(U2-BAT+)*%
X172280000Y-99630000D03*
%TD*%
D16*
%TO.P,StickR1,1,X*%
%TO.N,Net-(StickR1-X)*%
X206230000Y-109810000D03*
%TO.P,StickR1,2,GND*%
%TO.N,+3.3V*%
X206230000Y-110310000D03*
%TO.P,StickR1,3,Y*%
%TO.N,Net-(StickR1-Y)*%
X206230000Y-110810000D03*
%TO.P,StickR1,4,3V3*%
%TO.N,GND*%
X206230000Y-111310000D03*
D17*
%TO.P,StickR1,MP*%
%TO.N,N/C*%
X205105000Y-107560000D03*
D18*
X205105000Y-113560000D03*
%TD*%
D10*
%TO.P,BumperR1,1,1*%
%TO.N,Column 2*%
X156775311Y-83872751D03*
%TO.P,BumperR1,2,2*%
%TO.N,Net-(BumperR1-Pad2)*%
X156775311Y-78792751D03*
%TD*%
D19*
%TO.P,R4,1*%
%TO.N,GND*%
X152440000Y-61050000D03*
%TO.P,R4,2*%
%TO.N,Net-(J1-CC1)*%
X150440000Y-61050000D03*
%TD*%
D10*
%TO.P,B1,1,1*%
%TO.N,Column 1*%
X201012488Y-93182858D03*
%TO.P,B1,2,2*%
%TO.N,Net-(B1-Pad2)*%
X206092488Y-93182858D03*
%TD*%
D20*
%TO.P,U1,1,GPIO*%
%TO.N,Net-(StickL1-Y)*%
X96350000Y-106970000D03*
%TO.P,U1,2,GPIO*%
%TO.N,Net-(StickL1-X)*%
X93810000Y-106970000D03*
%TO.P,U1,3,GPIO*%
%TO.N,unconnected-(U1-GPIO-Pad3)*%
X91270000Y-106970000D03*
D21*
%TO.P,U1,3V3,3V3*%
%TO.N,+3.3V*%
X91270000Y-124750000D03*
D20*
%TO.P,U1,4,GPIO*%
%TO.N,Column 2*%
X88730000Y-106970000D03*
%TO.P,U1,5,GPIO*%
%TO.N,unconnected-(U1-GPIO-Pad5)*%
X86190000Y-106970000D03*
D21*
%TO.P,U1,5V,5V*%
%TO.N,VBUS*%
X96350000Y-124750000D03*
D20*
%TO.P,U1,6,GPIO*%
%TO.N,Net-(TriggerL1-OUT)*%
X83650000Y-106970000D03*
D21*
%TO.P,U1,7,GPIO*%
%TO.N,Net-(StickR1-X)*%
X83650000Y-124750000D03*
%TO.P,U1,8,GPIO*%
%TO.N,Net-(StickR1-Y)*%
X86190000Y-124750000D03*
%TO.P,U1,9,GPIO*%
%TO.N,Net-(TriggerR1-OUT)*%
X88730000Y-124750000D03*
D20*
%TO.P,U1,10,GPIO*%
%TO.N,Net-(C1-Pad1)*%
X82380000Y-106970000D03*
D21*
%TO.P,U1,11,GPIO*%
%TO.N,Row 2*%
X82380000Y-124750000D03*
%TO.P,U1,12,GPIO*%
%TO.N,Column 1*%
X84920000Y-124750000D03*
%TO.P,U1,13,GPIO*%
%TO.N,Column 0*%
X87460000Y-124750000D03*
D20*
%TO.P,U1,38,GPIO*%
%TO.N,unconnected-(U1-GPIO-Pad38)*%
X95080000Y-106970000D03*
%TO.P,U1,39,GPIO*%
%TO.N,Row 0*%
X92540000Y-106970000D03*
%TO.P,U1,40,GPIO*%
%TO.N,Row 1*%
X90000000Y-106970000D03*
%TO.P,U1,41,GPIO*%
%TO.N,Row 3*%
X87460000Y-106970000D03*
%TO.P,U1,42,GPIO*%
%TO.N,unconnected-(U1-GPIO-Pad42)*%
X84920000Y-106970000D03*
%TO.P,U1,43,GPIO*%
%TO.N,unconnected-(U1-GPIO-Pad43)*%
X81110000Y-106970000D03*
D21*
%TO.P,U1,44,GPIO*%
%TO.N,Column 3*%
X81110000Y-124750000D03*
%TO.P,U1,GND,GND*%
%TO.N,GND*%
X93810000Y-124750000D03*
%TD*%
D12*
%TO.P,D4,1*%
%TO.N,unconnected-(D4-Pad1)*%
X151170000Y-88330000D03*
%TO.P,D4,2*%
%TO.N,Net-(D4-Pad2)*%
X153070000Y-88330000D03*
%TO.P,D4,3*%
%TO.N,Row 1*%
X152120000Y-86455000D03*
%TD*%
D10*
%TO.P,Home1,1,1*%
%TO.N,Column 1*%
X145494224Y-81486626D03*
%TO.P,Home1,2,2*%
%TO.N,Net-(D3-Pad2)*%
X150574224Y-81486626D03*
%TD*%
%TO.P,StickR2,1,1*%
%TO.N,Column 3*%
X151500000Y-74540000D03*
%TO.P,StickR2,2,2*%
%TO.N,Net-(D2-Pad2)*%
X151500000Y-69460000D03*
%TD*%
%TO.P,Start1,1,1*%
%TO.N,Column 2*%
X155493736Y-90382830D03*
%TO.P,Start1,2,2*%
%TO.N,Net-(D4-Pad2)*%
X160573736Y-90382830D03*
%TD*%
D16*
%TO.P,StickL1,1,X*%
%TO.N,Net-(StickL1-X)*%
X129125000Y-94250000D03*
%TO.P,StickL1,2,GND*%
%TO.N,+3.3V*%
X129125000Y-94750000D03*
%TO.P,StickL1,3,Y*%
%TO.N,Net-(StickL1-Y)*%
X129125000Y-95250000D03*
%TO.P,StickL1,4,3V3*%
%TO.N,GND*%
X129125000Y-95750000D03*
D17*
%TO.P,StickL1,MP*%
%TO.N,N/C*%
X128000000Y-92000000D03*
D18*
X128000000Y-98000000D03*
%TD*%
D10*
%TO.P,LEFT1,1,1*%
%TO.N,Column 3*%
X107459565Y-113182532D03*
%TO.P,LEFT1,2,2*%
%TO.N,Net-(D8-Pad2)*%
X112539565Y-113182532D03*
%TD*%
D12*
%TO.P,D5,1*%
%TO.N,Net-(A1-Pad2)*%
X201322500Y-99815000D03*
%TO.P,D5,2*%
%TO.N,Net-(B1-Pad2)*%
X203222500Y-99815000D03*
%TO.P,D5,3*%
%TO.N,Row 2*%
X202272500Y-97940000D03*
%TD*%
D10*
%TO.P,A1,1,1*%
%TO.N,Column 0*%
X192527472Y-101667529D03*
%TO.P,A1,2,2*%
%TO.N,Net-(A1-Pad2)*%
X197607472Y-101667529D03*
%TD*%
D11*
%TO.P,D2,1*%
%TO.N,Net-(BumperR1-Pad2)*%
X148837500Y-73200000D03*
%TO.P,D2,2*%
%TO.N,Net-(D2-Pad2)*%
X148837500Y-71300000D03*
%TO.P,D2,3*%
%TO.N,Row 0*%
X146962500Y-72250000D03*
%TD*%
D22*
%TO.P,C1,1*%
%TO.N,Net-(C1-Pad1)*%
X77157500Y-123190000D03*
%TO.P,C1,2*%
%TO.N,Net-(C1-Pad2)*%
X75082500Y-123190000D03*
%TD*%
D10*
%TO.P,RIGHT1,1,1*%
%TO.N,Column 1*%
X123459348Y-113182532D03*
%TO.P,RIGHT1,2,2*%
%TO.N,Net-(D7-Pad2)*%
X128539348Y-113182532D03*
%TD*%
%TO.P,Y1,1,1*%
%TO.N,Column 3*%
X192527797Y-84697516D03*
%TO.P,Y1,2,2*%
%TO.N,Net-(D6-Pad1)*%
X197607797Y-84697516D03*
%TD*%
D23*
%TO.P,R3,1*%
%TO.N,GND*%
X143480000Y-61050000D03*
%TO.P,R3,2*%
%TO.N,Net-(J1-CC2)*%
X145480000Y-61050000D03*
%TD*%
D24*
%TO.P,D8,1*%
%TO.N,Net-(D8-Pad1)*%
X110550000Y-117972500D03*
%TO.P,D8,2*%
%TO.N,Net-(D8-Pad2)*%
X108650000Y-117972500D03*
%TO.P,D8,3*%
%TO.N,Row 3*%
X109600000Y-119847500D03*
%TD*%
D25*
%TO.P,J1,A1,GND*%
%TO.N,GND*%
X151233509Y-57688509D03*
%TO.P,J1,A4,VBUS*%
%TO.N,VBUS*%
X150433509Y-57688509D03*
D26*
%TO.P,J1,A5,CC1*%
%TO.N,Net-(J1-CC1)*%
X149283509Y-57688509D03*
%TO.P,J1,A6,D+*%
%TO.N,D+*%
X148283509Y-57688509D03*
%TO.P,J1,A7,D-*%
%TO.N,D-*%
X147783509Y-57688509D03*
%TO.P,J1,A8,SBU1*%
%TO.N,unconnected-(J1-SBU1-PadA8)*%
X146783509Y-57688509D03*
D25*
%TO.P,J1,A9,VBUS*%
%TO.N,VBUS*%
X145633509Y-57688509D03*
%TO.P,J1,A12,GND*%
%TO.N,GND*%
X144833509Y-57688509D03*
%TO.P,J1,B1,GND*%
X144833509Y-57688509D03*
%TO.P,J1,B4,VBUS*%
%TO.N,VBUS*%
X145633509Y-57688509D03*
D26*
%TO.P,J1,B5,CC2*%
%TO.N,Net-(J1-CC2)*%
X146283509Y-57688509D03*
%TO.P,J1,B6,D+*%
%TO.N,D+*%
X147283509Y-57688509D03*
%TO.P,J1,B7,D-*%
%TO.N,D-*%
X148783509Y-57688509D03*
%TO.P,J1,B8,SBU2*%
%TO.N,unconnected-(J1-SBU2-PadB8)*%
X149783509Y-57688509D03*
D25*
%TO.P,J1,B9,VBUS*%
%TO.N,VBUS*%
X150433509Y-57688509D03*
%TO.P,J1,B12,GND*%
%TO.N,GND*%
X151233509Y-57688509D03*
D27*
%TO.P,J1,S1,SHIELD*%
X152353509Y-57113509D03*
D28*
X152353509Y-52933509D03*
D27*
X143713509Y-57113509D03*
D28*
X143713509Y-52933509D03*
%TD*%
D10*
%TO.P,DOWN1,1,1*%
%TO.N,Column 0*%
X115459348Y-121182532D03*
%TO.P,DOWN1,2,2*%
%TO.N,Net-(D7-Pad1)*%
X120539348Y-121182532D03*
%TD*%
D24*
%TO.P,D1,1*%
%TO.N,Net-(D1-Pad1)*%
X143220000Y-78642500D03*
%TO.P,D1,2*%
%TO.N,Net-(BumperL1-Pad2)*%
X141320000Y-78642500D03*
%TO.P,D1,3*%
%TO.N,Row 0*%
X142270000Y-80517500D03*
%TD*%
D29*
%TO.P,R2,1*%
%TO.N,-BATT*%
X75830000Y-119350000D03*
%TO.P,R2,2*%
%TO.N,Net-(C1-Pad2)*%
X75830000Y-121350000D03*
%TD*%
%TO.P,R1,1*%
%TO.N,Net-(C1-Pad1)*%
X76010000Y-109050000D03*
%TO.P,R1,2*%
%TO.N,+BAT*%
X76010000Y-111050000D03*
%TD*%
D10*
%TO.P,Select1,1,1*%
%TO.N,Column 0*%
X135494224Y-90382341D03*
%TO.P,Select1,2,2*%
%TO.N,Net-(D3-Pad1)*%
X140574224Y-90382341D03*
%TD*%
D24*
%TO.P,D6,1*%
%TO.N,Net-(D6-Pad1)*%
X195875000Y-92012500D03*
%TO.P,D6,2*%
%TO.N,Net-(D6-Pad2)*%
X193975000Y-92012500D03*
%TO.P,D6,3*%
%TO.N,Row 2*%
X194925000Y-93887500D03*
%TD*%
D10*
%TO.P,UP1,1,1*%
%TO.N,Column 2*%
X115459022Y-105182858D03*
%TO.P,UP1,2,2*%
%TO.N,Net-(D8-Pad1)*%
X120539022Y-105182858D03*
%TD*%
%TO.P,X1,1,1*%
%TO.N,Column 2*%
X184041823Y-93182858D03*
%TO.P,X1,2,2*%
%TO.N,Net-(D6-Pad2)*%
X189121823Y-93182858D03*
%TD*%
D15*
%TO.P,TriggerL1,1,VDD*%
%TO.N,+3.3V*%
X81500000Y-99000000D03*
%TO.P,TriggerL1,2,GND*%
%TO.N,GND*%
X79000000Y-99000000D03*
%TO.P,TriggerL1,3,OUT*%
%TO.N,Net-(TriggerL1-OUT)*%
X76500000Y-99000000D03*
%TD*%
%TO.P,TriggerR1,1,VDD*%
%TO.N,+3.3V*%
X206017934Y-81930715D03*
%TO.P,TriggerR1,2,GND*%
%TO.N,GND*%
X203517934Y-81930715D03*
%TO.P,TriggerR1,3,OUT*%
%TO.N,Net-(TriggerR1-OUT)*%
X201017934Y-81930715D03*
%TD*%
D30*
%TO.N,GND*%
X130000000Y-97500000D03*
X207500000Y-111000000D03*
D31*
X95680000Y-122700000D03*
D30*
%TO.N,Column 0*%
X131935735Y-100525735D03*
X117205735Y-116315735D03*
X137920000Y-87192000D03*
%TO.N,Column 1*%
X137700000Y-91133341D03*
X84920000Y-124750000D03*
X146160000Y-79500000D03*
X144520000Y-76470000D03*
%TO.N,+3.3V*%
X207500000Y-110000000D03*
D31*
X92480000Y-122700000D03*
D30*
X130065847Y-94750000D03*
%TO.N,Row 0*%
X137980000Y-84840000D03*
X129810000Y-90440000D03*
%TO.N,Row 1*%
X90000000Y-106970000D03*
X130115235Y-86746235D03*
%TO.N,Row 2*%
X82380000Y-124750000D03*
X148880000Y-92734341D03*
D32*
%TO.N,D-*%
X93240000Y-111270000D03*
D30*
X147630000Y-58696564D03*
D32*
%TO.N,VBUS*%
X148460000Y-60160000D03*
X107451340Y-115908660D03*
X98790000Y-122700000D03*
D30*
%TO.N,Net-(J1-CC1)*%
X149283509Y-59005830D03*
X150440000Y-61050000D03*
%TO.N,D+*%
X148283509Y-56799157D03*
D32*
X102187100Y-116090000D03*
D30*
%TO.N,Net-(J1-CC2)*%
X146565331Y-58924669D03*
X145480000Y-61050000D03*
%TO.N,Column 3*%
X133830000Y-90980000D03*
X81110000Y-124750000D03*
X143690000Y-82460000D03*
%TO.N,Net-(StickR1-Y)*%
X86190000Y-124750000D03*
X201440000Y-110060000D03*
%TO.N,Net-(TriggerR1-OUT)*%
X134096095Y-93196099D03*
X191500000Y-89840000D03*
%TO.N,Net-(BumperR1-Pad2)*%
X149830000Y-73910000D03*
%TO.N,Net-(D3-Pad2)*%
X149230000Y-88260000D03*
%TO.N,Net-(D6-Pad1)*%
X196557500Y-91417500D03*
%TD*%
D33*
%TO.N,GND*%
X143480000Y-61050000D02*
X143480000Y-59042018D01*
X129125000Y-95750000D02*
X130000000Y-96625000D01*
X143480000Y-59042018D02*
X144833509Y-57688509D01*
D34*
X93810000Y-124750000D02*
X93810000Y-124570000D01*
D33*
X207190000Y-111310000D02*
X207500000Y-111000000D01*
X130000000Y-96625000D02*
X130000000Y-97500000D01*
X152440000Y-61050000D02*
X152440000Y-58895000D01*
D35*
X151778509Y-57688509D02*
X152353509Y-57113509D01*
X151233509Y-57688509D02*
X151778509Y-57688509D01*
D34*
X93810000Y-124570000D02*
X95680000Y-122700000D01*
D33*
X152440000Y-58895000D02*
X151233509Y-57688509D01*
D35*
X144833509Y-57688509D02*
X144288509Y-57688509D01*
D33*
X206230000Y-111310000D02*
X207190000Y-111310000D01*
D35*
X144288509Y-57688509D02*
X143713509Y-57113509D01*
D33*
%TO.N,Column 0*%
X91594900Y-121318000D02*
X89892900Y-123020000D01*
X141295341Y-93335341D02*
X138342341Y-90382341D01*
X187239943Y-96380000D02*
X171170000Y-96380000D01*
X135494224Y-90382341D02*
X137920000Y-87956565D01*
X131935735Y-100525735D02*
X131930000Y-100520000D01*
X91594900Y-121318000D02*
X115323880Y-121318000D01*
X192527472Y-101667529D02*
X187239943Y-96380000D01*
X117310000Y-116420000D02*
X117310000Y-119331880D01*
X117205735Y-116315735D02*
X117310000Y-116420000D01*
X115323880Y-121318000D02*
X115459348Y-121182532D01*
X131930000Y-100520000D02*
X131930000Y-93946565D01*
X137920000Y-87192000D02*
X137900000Y-87212000D01*
X168125341Y-93335341D02*
X141295341Y-93335341D01*
X88631871Y-123020000D02*
X87460000Y-124191871D01*
X171170000Y-96380000D02*
X168125341Y-93335341D01*
X137920000Y-87956565D02*
X137920000Y-87192000D01*
X131930000Y-93946565D02*
X135494224Y-90382341D01*
X115459348Y-121182532D02*
X117310000Y-119331880D01*
X89892900Y-123020000D02*
X88631871Y-123020000D01*
X138342341Y-90382341D02*
X135494224Y-90382341D01*
X87460000Y-124191871D02*
X87460000Y-124750000D01*
%TO.N,Column 1*%
X158035601Y-85223751D02*
X163589476Y-90777626D01*
X137700000Y-91133341D02*
X137700000Y-91140000D01*
X123459348Y-109850652D02*
X123459348Y-113182532D01*
X198607256Y-90777626D02*
X201012488Y-93182858D01*
X134710324Y-91733341D02*
X132970000Y-93473665D01*
X145494224Y-81486626D02*
X149231349Y-85223751D01*
X132970000Y-93473665D02*
X132970000Y-100340000D01*
X137106659Y-91733341D02*
X134710324Y-91733341D01*
X144568248Y-74540000D02*
X144568248Y-76421752D01*
X149231349Y-85223751D02*
X158035601Y-85223751D01*
X163589476Y-90777626D02*
X198607256Y-90777626D01*
X146160000Y-80820850D02*
X146160000Y-79500000D01*
X145494224Y-82292944D02*
X145494224Y-81486626D01*
X145494224Y-81486626D02*
X146160000Y-80820850D01*
X144568248Y-76421752D02*
X144520000Y-76470000D01*
X132970000Y-100340000D02*
X123459348Y-109850652D01*
X84990000Y-124680000D02*
X84920000Y-124750000D01*
X137700000Y-91140000D02*
X137106659Y-91733341D01*
%TO.N,+3.3V*%
X206230000Y-110310000D02*
X207190000Y-110310000D01*
D34*
X91270000Y-124750000D02*
X91270000Y-123910000D01*
D33*
X207190000Y-110310000D02*
X207500000Y-110000000D01*
X130065847Y-94750000D02*
X129125000Y-94750000D01*
D34*
X91270000Y-123910000D02*
X92480000Y-122700000D01*
D33*
%TO.N,Column 2*%
X89711871Y-108270000D02*
X88730000Y-107288129D01*
X112371880Y-108270000D02*
X89711871Y-108270000D01*
X88730000Y-107288129D02*
X88730000Y-106970000D01*
X115459022Y-105182858D02*
X112371880Y-108270000D01*
%TO.N,Row 0*%
X146962500Y-76324600D02*
X146962500Y-72250000D01*
X137930000Y-84790000D02*
X137930000Y-83030000D01*
X142270000Y-80517500D02*
X142769600Y-80517500D01*
X110296152Y-105353664D02*
X110148816Y-105501000D01*
X137980000Y-84840000D02*
X137930000Y-84790000D01*
X142769600Y-80517500D02*
X146962500Y-76324600D01*
X140442500Y-80517500D02*
X142270000Y-80517500D01*
X110148816Y-105501000D02*
X110148701Y-105501000D01*
X109941099Y-105501000D02*
X93450868Y-105501003D01*
X137930000Y-83030000D02*
X140442500Y-80517500D01*
X129810000Y-90440000D02*
X125215549Y-90440000D01*
X93450868Y-105501003D02*
X92540000Y-106411871D01*
X110148620Y-105501081D02*
X109941099Y-105501000D01*
X110475549Y-105180000D02*
X110469951Y-105180000D01*
X92540000Y-106411871D02*
X92540000Y-106970000D01*
X110148701Y-105501000D02*
X110148620Y-105501081D01*
X110469951Y-105180000D02*
X110296152Y-105353664D01*
X125215549Y-90440000D02*
X110475549Y-105180000D01*
%TO.N,Row 1*%
X130468970Y-86392500D02*
X148267500Y-86392500D01*
X148327500Y-86452500D02*
X148267500Y-86392500D01*
X90000000Y-106970000D02*
X89991871Y-106970000D01*
X148267500Y-86392500D02*
X152107500Y-86392500D01*
X152107500Y-86392500D02*
X152167500Y-86452500D01*
X130115235Y-86746235D02*
X130468970Y-86392500D01*
%TO.N,Row 2*%
X199060000Y-97935000D02*
X202360000Y-97935000D01*
X170808100Y-95451000D02*
X193449000Y-95451000D01*
X148880000Y-92734341D02*
X149025659Y-92880000D01*
X168237100Y-92880000D02*
X170808100Y-95451000D01*
X193449000Y-95451000D02*
X195012500Y-93887500D01*
X195012500Y-93887500D02*
X199060000Y-97935000D01*
X149025659Y-92880000D02*
X168237100Y-92880000D01*
%TO.N,Row 3*%
X100905000Y-114693865D02*
X100905000Y-119305000D01*
X120864735Y-115714735D02*
X114187233Y-115714735D01*
X110054468Y-119847500D02*
X109600000Y-119847500D01*
X124352500Y-119202500D02*
X120864735Y-115714735D01*
X88141000Y-108671000D02*
X94882135Y-108671000D01*
X114187233Y-115714735D02*
X110054468Y-119847500D01*
X87460000Y-107990000D02*
X88141000Y-108671000D01*
X100905000Y-119305000D02*
X101447500Y-119847500D01*
X87460000Y-106970000D02*
X87460000Y-107990000D01*
X101447500Y-119847500D02*
X109600000Y-119847500D01*
X124027500Y-119202500D02*
X124352500Y-119202500D01*
X94882135Y-108671000D02*
X100905000Y-114693865D01*
%TO.N,D-*%
X147783509Y-57688509D02*
X147783509Y-58551157D01*
X147796861Y-58564509D02*
X147664806Y-58696564D01*
X148783509Y-58297333D02*
X148783509Y-57688509D01*
X148516333Y-58564509D02*
X148783509Y-58297333D01*
X148050685Y-58564509D02*
X148516333Y-58564509D01*
X148516333Y-58564509D02*
X147796861Y-58564509D01*
X147783509Y-58551157D02*
X147796861Y-58564509D01*
X147664806Y-58696564D02*
X147630000Y-58696564D01*
D35*
%TO.N,VBUS*%
X146740000Y-60160000D02*
X148460000Y-60160000D01*
X96750000Y-124750000D02*
X96350000Y-124750000D01*
X98790000Y-122710000D02*
X96750000Y-124750000D01*
X150433509Y-58917905D02*
X149191414Y-60160000D01*
X98790000Y-122700000D02*
X98790000Y-122710000D01*
X145633509Y-59053509D02*
X146740000Y-60160000D01*
X150433509Y-57688509D02*
X150433509Y-58917905D01*
X149191414Y-60160000D02*
X148460000Y-60160000D01*
X145633509Y-57688509D02*
X145633509Y-59053509D01*
D33*
%TO.N,Net-(J1-CC1)*%
X149283509Y-57688509D02*
X149283509Y-59005830D01*
%TO.N,D+*%
X147283509Y-57079685D02*
X147550685Y-56812509D01*
X147550685Y-56812509D02*
X148016333Y-56812509D01*
X148016333Y-56812509D02*
X148283509Y-57079685D01*
X147283509Y-57688509D02*
X147283509Y-57079685D01*
X148283509Y-57079685D02*
X148283509Y-57688509D01*
%TO.N,Net-(J1-CC2)*%
X146565331Y-58924669D02*
X146283509Y-58642847D01*
X146283509Y-58642847D02*
X146283509Y-57688509D01*
%TO.N,Column 3*%
X151500000Y-74540000D02*
X151500000Y-76686837D01*
X131529000Y-93780465D02*
X131529000Y-98751000D01*
X149640000Y-74540000D02*
X151500000Y-74540000D01*
X133830000Y-91479465D02*
X131529000Y-93780465D01*
X158126311Y-84747361D02*
X163755576Y-90376626D01*
X133830000Y-90980000D02*
X133830000Y-91479465D01*
X158126311Y-83313148D02*
X158126311Y-84747361D01*
X151500000Y-76686837D02*
X158126311Y-83313148D01*
X128470000Y-101810000D02*
X121500000Y-101810000D01*
X121500000Y-101810000D02*
X110127468Y-113182532D01*
X143690000Y-80490000D02*
X149640000Y-74540000D01*
X163755576Y-90376626D02*
X186848687Y-90376626D01*
X186848687Y-90376626D02*
X192527797Y-84697516D01*
X143690000Y-82460000D02*
X143690000Y-80490000D01*
X131529000Y-98751000D02*
X128470000Y-101810000D01*
X110127468Y-113182532D02*
X107459565Y-113182532D01*
%TO.N,Net-(StickL1-X)*%
X110314720Y-105902081D02*
X110314628Y-105902081D01*
X109982520Y-105902081D02*
X109982455Y-105902016D01*
X110314628Y-105902081D02*
X110314563Y-105902146D01*
X110641649Y-105581000D02*
X110635960Y-105581000D01*
X129125000Y-94250000D02*
X121972650Y-94250000D01*
X109941107Y-105902000D02*
X94119868Y-105902003D01*
X110314916Y-105902000D02*
X110314801Y-105902000D01*
X94119868Y-105902003D02*
X93810000Y-106211871D01*
X110635960Y-105581000D02*
X110579388Y-105637528D01*
X121972650Y-94250000D02*
X110641649Y-105581000D01*
X110579388Y-105637528D02*
X110314916Y-105902000D01*
X110314563Y-105902146D02*
X110148298Y-105902081D01*
X109982455Y-105902016D02*
X109941107Y-105902000D01*
X93810000Y-106211871D02*
X93810000Y-106970000D01*
X110314801Y-105902000D02*
X110314720Y-105902081D01*
X110148298Y-105902081D02*
X109982520Y-105902081D01*
%TO.N,Net-(StickL1-Y)*%
X109819749Y-106970000D02*
X96341871Y-106970000D01*
X129125000Y-95250000D02*
X121539748Y-95250000D01*
X121539748Y-95250000D02*
X109819749Y-106970000D01*
%TO.N,Net-(StickR1-X)*%
X123339000Y-125801000D02*
X83942871Y-125801000D01*
X185551000Y-96781000D02*
X170606880Y-96781000D01*
X167707580Y-93881700D02*
X134826603Y-93881700D01*
X134171000Y-114969000D02*
X123339000Y-125801000D01*
X192330000Y-103560000D02*
X185551000Y-96781000D01*
X134171000Y-94537303D02*
X134171000Y-114969000D01*
X83650000Y-125508129D02*
X83650000Y-124750000D01*
X83942871Y-125801000D02*
X83650000Y-125508129D01*
X206230000Y-109810000D02*
X204130000Y-109810000D01*
X170606880Y-96781000D02*
X167707580Y-93881700D01*
X204130000Y-109810000D02*
X197880000Y-103560000D01*
X197880000Y-103560000D02*
X192330000Y-103560000D01*
X134826603Y-93881700D02*
X134171000Y-94537303D01*
%TO.N,Net-(StickR1-Y)*%
X86220000Y-124720000D02*
X86190000Y-124750000D01*
X202190000Y-110810000D02*
X201440000Y-110060000D01*
X206230000Y-110810000D02*
X202190000Y-110810000D01*
%TO.N,+BAT*%
X76010000Y-114000000D02*
X75830000Y-114180000D01*
X76010000Y-111050000D02*
X76010000Y-114000000D01*
%TO.N,Net-(TriggerL1-OUT)*%
X76500000Y-99000000D02*
X83961871Y-106461871D01*
X83961871Y-106461871D02*
X83961871Y-106850000D01*
%TO.N,Net-(TriggerR1-OUT)*%
X201017934Y-81930715D02*
X201017934Y-83344928D01*
X201017934Y-83344928D02*
X194522862Y-89840000D01*
X98969000Y-121719000D02*
X91761000Y-121719000D01*
X133371000Y-114689000D02*
X125526468Y-122533532D01*
X133371000Y-93921194D02*
X133371000Y-114689000D01*
X99783532Y-122533532D02*
X98969000Y-121719000D01*
X125526468Y-122533532D02*
X99783532Y-122533532D01*
X134096095Y-93196099D02*
X133371000Y-93921194D01*
X91761000Y-121719000D02*
X88730000Y-124750000D01*
X194522862Y-89840000D02*
X191500000Y-89840000D01*
%TO.N,-BATT*%
X75830000Y-119350000D02*
X75830000Y-116980000D01*
%TO.N,Net-(A1-Pad2)*%
X199552471Y-101667529D02*
X201410000Y-99810000D01*
X197607472Y-101667529D02*
X199552471Y-101667529D01*
%TO.N,Net-(B1-Pad2)*%
X206092488Y-97027512D02*
X203310000Y-99810000D01*
X206092488Y-93182858D02*
X206092488Y-97027512D01*
%TO.N,Net-(BumperL1-Pad2)*%
X139292937Y-78792751D02*
X141169749Y-78792751D01*
X141169749Y-78792751D02*
X141320000Y-78642500D01*
%TO.N,Net-(BumperR1-Pad2)*%
X149547500Y-73910000D02*
X149830000Y-73910000D01*
X148837500Y-73200000D02*
X149547500Y-73910000D01*
%TO.N,Net-(D1-Pad1)*%
X143220000Y-78642500D02*
X144077500Y-78642500D01*
X144077500Y-78642500D02*
X145924000Y-76796000D01*
X145924000Y-70815752D02*
X144568248Y-69460000D01*
X145924000Y-76796000D02*
X145924000Y-70815752D01*
%TO.N,Net-(D2-Pad2)*%
X148837500Y-71300000D02*
X149660000Y-71300000D01*
X149660000Y-71300000D02*
X151500000Y-69460000D01*
%TO.N,Net-(D3-Pad1)*%
X142689065Y-88267500D02*
X147317500Y-88267500D01*
X140574224Y-90382341D02*
X142689065Y-88267500D01*
%TO.N,Net-(D3-Pad2)*%
X149230000Y-88260000D02*
X149225000Y-88260000D01*
X149225000Y-88260000D02*
X149217500Y-88267500D01*
%TO.N,Net-(D4-Pad2)*%
X160573736Y-90382830D02*
X158518406Y-88327500D01*
X158518406Y-88327500D02*
X153117500Y-88327500D01*
%TO.N,Net-(D6-Pad1)*%
X195962500Y-92012500D02*
X196557500Y-91417500D01*
X196557500Y-91417500D02*
X196685000Y-91290000D01*
%TO.N,Net-(D6-Pad2)*%
X189121823Y-93182858D02*
X192892142Y-93182858D01*
X192892142Y-93182858D02*
X194062500Y-92012500D01*
%TO.N,Net-(D7-Pad2)*%
X128539348Y-115940652D02*
X128539348Y-113182532D01*
X126227500Y-118252500D02*
X128539348Y-115940652D01*
%TO.N,Net-(D7-Pad1)*%
X125197468Y-121182532D02*
X126227500Y-120152500D01*
X120539348Y-121182532D02*
X125197468Y-121182532D01*
%TO.N,Net-(D8-Pad1)*%
X110550000Y-117972500D02*
X120539022Y-107983478D01*
X120539022Y-107983478D02*
X120539022Y-105182858D01*
%TO.N,Net-(D8-Pad2)*%
X108650000Y-117072097D02*
X112539565Y-113182532D01*
X108650000Y-117972500D02*
X108650000Y-117072097D01*
%TO.N,Net-(C1-Pad1)*%
X79892500Y-110207500D02*
X82380000Y-107720000D01*
X77167500Y-110207500D02*
X77167500Y-123180000D01*
X82380000Y-107720000D02*
X82380000Y-106970000D01*
X77167500Y-123180000D02*
X77157500Y-123190000D01*
X76010000Y-109050000D02*
X77167500Y-110207500D01*
X77167500Y-110207500D02*
X79892500Y-110207500D01*
%TO.N,Net-(C1-Pad2)*%
X75092500Y-123450000D02*
X75082500Y-123440000D01*
X75082500Y-123440000D02*
X75082500Y-122097500D01*
X75082500Y-122097500D02*
X75830000Y-121350000D01*
%TD*%
M02*
