%TF.GenerationSoftware,KiCad,Pcbnew,9.0.2*%
%TF.CreationDate,2025-07-08T14:50:53+02:00*%
%TF.ProjectId,FMControllerSeed,464d436f-6e74-4726-9f6c-6c6572536565,rev?*%
%TF.SameCoordinates,Original*%
%TF.FileFunction,Copper,L3,Inr*%
%TF.FilePolarity,Positive*%
%FSLAX46Y46*%
G04 Gerber Fmt 4.6, Leading zero omitted, Abs format (unit mm)*
G04 Created by KiCad (PCBNEW 9.0.2) date 2025-07-08 14:50:53*
%MOMM*%
%LPD*%
G01*
G04 APERTURE LIST*
%TA.AperFunction,ComponentPad*%
%ADD10C,2.100000*%
%TD*%
%TA.AperFunction,ComponentPad*%
%ADD11R,1.270000X1.270000*%
%TD*%
%TA.AperFunction,ComponentPad*%
%ADD12C,1.270000*%
%TD*%
%TA.AperFunction,ComponentPad*%
%ADD13C,2.000000*%
%TD*%
%TA.AperFunction,HeatsinkPad*%
%ADD14O,1.000000X2.100000*%
%TD*%
%TA.AperFunction,HeatsinkPad*%
%ADD15O,1.000000X1.800000*%
%TD*%
%TA.AperFunction,ViaPad*%
%ADD16C,0.600000*%
%TD*%
%TA.AperFunction,ViaPad*%
%ADD17C,1.000000*%
%TD*%
%TA.AperFunction,ViaPad*%
%ADD18C,0.800000*%
%TD*%
G04 APERTURE END LIST*
D10*
%TO.N,Column 1*%
%TO.C,StickL2*%
X144568248Y-74540000D03*
%TO.N,Net-(D1-Pad1)*%
X144568248Y-69460000D03*
%TD*%
%TO.N,Column 0*%
%TO.C,BumperL1*%
X139292937Y-83872751D03*
%TO.N,Net-(BumperL1-Pad2)*%
X139292937Y-78792751D03*
%TD*%
D11*
%TO.N,unconnected-(SW17-Pad1)*%
%TO.C,SW17*%
X205760000Y-118380000D03*
D12*
%TO.N,+BAT*%
X203260000Y-118380000D03*
%TO.N,Net-(U2-BAT+)*%
X200760000Y-118380000D03*
%TD*%
D13*
%TO.N,-BATT*%
%TO.C,U3*%
X75830000Y-116980000D03*
%TO.N,+BAT*%
X75830000Y-114180000D03*
%TD*%
%TO.N,-BATT*%
%TO.C,U2*%
X169480000Y-99630000D03*
%TO.N,Net-(U2-BAT+)*%
X172280000Y-99630000D03*
%TD*%
D10*
%TO.N,Column 2*%
%TO.C,BumperR1*%
X156775311Y-83872751D03*
%TO.N,Net-(BumperR1-Pad2)*%
X156775311Y-78792751D03*
%TD*%
%TO.N,Column 1*%
%TO.C,B1*%
X201012488Y-93182858D03*
%TO.N,Net-(B1-Pad2)*%
X206092488Y-93182858D03*
%TD*%
%TO.N,Column 1*%
%TO.C,Home1*%
X145494224Y-81486626D03*
%TO.N,Net-(D3-Pad2)*%
X150574224Y-81486626D03*
%TD*%
%TO.N,Column 3*%
%TO.C,StickR2*%
X151500000Y-74540000D03*
%TO.N,Net-(D2-Pad2)*%
X151500000Y-69460000D03*
%TD*%
%TO.N,Column 2*%
%TO.C,Start1*%
X155493736Y-90382830D03*
%TO.N,Net-(D4-Pad2)*%
X160573736Y-90382830D03*
%TD*%
%TO.N,Column 3*%
%TO.C,LEFT1*%
X107459565Y-113182532D03*
%TO.N,Net-(D8-Pad2)*%
X112539565Y-113182532D03*
%TD*%
%TO.N,Column 0*%
%TO.C,A1*%
X192527472Y-101667529D03*
%TO.N,Net-(A1-Pad2)*%
X197607472Y-101667529D03*
%TD*%
%TO.N,Column 1*%
%TO.C,RIGHT1*%
X123459348Y-113182532D03*
%TO.N,Net-(D7-Pad2)*%
X128539348Y-113182532D03*
%TD*%
%TO.N,Column 3*%
%TO.C,Y1*%
X192527797Y-84697516D03*
%TO.N,Net-(D6-Pad1)*%
X197607797Y-84697516D03*
%TD*%
D14*
%TO.N,GND*%
%TO.C,J1*%
X152353509Y-57113509D03*
D15*
X152353509Y-52933509D03*
D14*
X143713509Y-57113509D03*
D15*
X143713509Y-52933509D03*
%TD*%
D10*
%TO.N,Column 0*%
%TO.C,DOWN1*%
X115459348Y-121182532D03*
%TO.N,Net-(D7-Pad1)*%
X120539348Y-121182532D03*
%TD*%
%TO.N,Column 0*%
%TO.C,Select1*%
X135494224Y-90382341D03*
%TO.N,Net-(D3-Pad1)*%
X140574224Y-90382341D03*
%TD*%
%TO.N,Column 2*%
%TO.C,UP1*%
X115459022Y-105182858D03*
%TO.N,Net-(D8-Pad1)*%
X120539022Y-105182858D03*
%TD*%
%TO.N,Column 2*%
%TO.C,X1*%
X184041823Y-93182858D03*
%TO.N,Net-(D6-Pad2)*%
X189121823Y-93182858D03*
%TD*%
D13*
%TO.N,+3.3V*%
%TO.C,TriggerL1*%
X81500000Y-99000000D03*
%TO.N,GND*%
X79000000Y-99000000D03*
%TO.N,Net-(TriggerL1-OUT)*%
X76500000Y-99000000D03*
%TD*%
%TO.N,+3.3V*%
%TO.C,TriggerR1*%
X206017934Y-81930715D03*
%TO.N,GND*%
X203517934Y-81930715D03*
%TO.N,Net-(TriggerR1-OUT)*%
X201017934Y-81930715D03*
%TD*%
D16*
%TO.N,GND*%
X130000000Y-97500000D03*
X207500000Y-111000000D03*
D17*
X95680000Y-122700000D03*
D16*
%TO.N,Column 0*%
X131935735Y-100525735D03*
X117205735Y-116315735D03*
X137920000Y-87192000D03*
%TO.N,Column 1*%
X137700000Y-91133341D03*
X84920000Y-124750000D03*
X146160000Y-79500000D03*
X144520000Y-76470000D03*
%TO.N,+3.3V*%
X207500000Y-110000000D03*
D17*
X92480000Y-122700000D03*
D16*
X130065847Y-94750000D03*
%TO.N,Row 0*%
X137980000Y-84840000D03*
X129810000Y-90440000D03*
%TO.N,Row 1*%
X90000000Y-106970000D03*
X130115235Y-86746235D03*
%TO.N,Row 2*%
X82380000Y-124750000D03*
X148880000Y-92734341D03*
D18*
%TO.N,D-*%
X93240000Y-111270000D03*
D16*
X147630000Y-58696564D03*
D18*
%TO.N,VBUS*%
X148460000Y-60160000D03*
X107451340Y-115908660D03*
X98790000Y-122700000D03*
D16*
%TO.N,Net-(J1-CC1)*%
X149283509Y-59005830D03*
X150440000Y-61050000D03*
%TO.N,D+*%
X148283509Y-56799157D03*
D18*
X102187100Y-116090000D03*
D16*
%TO.N,Net-(J1-CC2)*%
X146565331Y-58924669D03*
X145480000Y-61050000D03*
%TO.N,Column 3*%
X133830000Y-90980000D03*
X81110000Y-124750000D03*
X143690000Y-82460000D03*
%TO.N,Net-(StickR1-Y)*%
X86190000Y-124750000D03*
X201440000Y-110060000D03*
%TO.N,Net-(TriggerR1-OUT)*%
X134096095Y-93196099D03*
X191500000Y-89840000D03*
%TO.N,Net-(BumperR1-Pad2)*%
X149830000Y-73910000D03*
%TO.N,Net-(D3-Pad2)*%
X149230000Y-88260000D03*
%TO.N,Net-(D6-Pad1)*%
X196557500Y-91417500D03*
%TD*%
%TA.AperFunction,Conductor*%
%TO.N,GND*%
G36*
X142879750Y-51754186D02*
G01*
X142925505Y-51806990D01*
X142935449Y-51876148D01*
X142915813Y-51927392D01*
X142827323Y-52059824D01*
X142827316Y-52059837D01*
X142751939Y-52241815D01*
X142751936Y-52241827D01*
X142713509Y-52435013D01*
X142713509Y-52683509D01*
X143413509Y-52683509D01*
X143413509Y-53183509D01*
X142713509Y-53183509D01*
X142713509Y-53432004D01*
X142751936Y-53625190D01*
X142751939Y-53625202D01*
X142827316Y-53807180D01*
X142827323Y-53807193D01*
X142936757Y-53970971D01*
X142936760Y-53970975D01*
X143076042Y-54110257D01*
X143076046Y-54110260D01*
X143239824Y-54219694D01*
X143239837Y-54219701D01*
X143421817Y-54295078D01*
X143463509Y-54303371D01*
X143463509Y-53500497D01*
X143473449Y-53517714D01*
X143529304Y-53573569D01*
X143597713Y-53613065D01*
X143674013Y-53633509D01*
X143753005Y-53633509D01*
X143829305Y-53613065D01*
X143897714Y-53573569D01*
X143953569Y-53517714D01*
X143963509Y-53500497D01*
X143963509Y-54303371D01*
X144005199Y-54295078D01*
X144005201Y-54295078D01*
X144187180Y-54219701D01*
X144187193Y-54219694D01*
X144350971Y-54110260D01*
X144350975Y-54110257D01*
X144490257Y-53970975D01*
X144490260Y-53970971D01*
X144599694Y-53807193D01*
X144599701Y-53807180D01*
X144675078Y-53625202D01*
X144675081Y-53625190D01*
X144713508Y-53432004D01*
X144713509Y-53432001D01*
X144713509Y-53183509D01*
X144013509Y-53183509D01*
X144013509Y-52683509D01*
X144713509Y-52683509D01*
X144713509Y-52435017D01*
X144713508Y-52435013D01*
X144675081Y-52241827D01*
X144675078Y-52241815D01*
X144599701Y-52059837D01*
X144599694Y-52059824D01*
X144511205Y-51927392D01*
X144490327Y-51860715D01*
X144508811Y-51793335D01*
X144560790Y-51746644D01*
X144614307Y-51734501D01*
X151452711Y-51734501D01*
X151519750Y-51754186D01*
X151565505Y-51806990D01*
X151575449Y-51876148D01*
X151555813Y-51927392D01*
X151467323Y-52059824D01*
X151467316Y-52059837D01*
X151391939Y-52241815D01*
X151391936Y-52241827D01*
X151353509Y-52435013D01*
X151353509Y-52683509D01*
X152053509Y-52683509D01*
X152053509Y-53183509D01*
X151353509Y-53183509D01*
X151353509Y-53432004D01*
X151391936Y-53625190D01*
X151391939Y-53625202D01*
X151467316Y-53807180D01*
X151467323Y-53807193D01*
X151576757Y-53970971D01*
X151576760Y-53970975D01*
X151716042Y-54110257D01*
X151716046Y-54110260D01*
X151879824Y-54219694D01*
X151879837Y-54219701D01*
X152061817Y-54295078D01*
X152103509Y-54303371D01*
X152103509Y-53500497D01*
X152113449Y-53517714D01*
X152169304Y-53573569D01*
X152237713Y-53613065D01*
X152314013Y-53633509D01*
X152393005Y-53633509D01*
X152469305Y-53613065D01*
X152537714Y-53573569D01*
X152593569Y-53517714D01*
X152603509Y-53500497D01*
X152603509Y-54303371D01*
X152645199Y-54295078D01*
X152645201Y-54295078D01*
X152827180Y-54219701D01*
X152827193Y-54219694D01*
X152990971Y-54110260D01*
X152990975Y-54110257D01*
X153130257Y-53970975D01*
X153130260Y-53970971D01*
X153239694Y-53807193D01*
X153239701Y-53807180D01*
X153315078Y-53625202D01*
X153315081Y-53625190D01*
X153353508Y-53432004D01*
X153353509Y-53432001D01*
X153353509Y-53183509D01*
X152653509Y-53183509D01*
X152653509Y-52683509D01*
X153353509Y-52683509D01*
X153353509Y-52435017D01*
X153353508Y-52435013D01*
X153315081Y-52241827D01*
X153315078Y-52241815D01*
X153239701Y-52059837D01*
X153239694Y-52059824D01*
X153151205Y-51927392D01*
X153130327Y-51860715D01*
X153148811Y-51793335D01*
X153200790Y-51746644D01*
X153254307Y-51734501D01*
X158043748Y-51734501D01*
X158110787Y-51754186D01*
X158156542Y-51806990D01*
X158167748Y-51858501D01*
X158167748Y-66424867D01*
X158148063Y-66491906D01*
X158095259Y-66537661D01*
X158043748Y-66548867D01*
X155573412Y-66548867D01*
X155525861Y-66547641D01*
X155520763Y-66548867D01*
X155515521Y-66548867D01*
X155490797Y-66555491D01*
X155471125Y-66560762D01*
X155468034Y-66561547D01*
X155423331Y-66572299D01*
X155418508Y-66574151D01*
X155418509Y-66574152D01*
X155418465Y-66574168D01*
X155418465Y-66574169D01*
X155413658Y-66576160D01*
X155373840Y-66599149D01*
X155371054Y-66600710D01*
X153130192Y-67818571D01*
X153118727Y-67824802D01*
X153113661Y-67826160D01*
X153072462Y-67849945D01*
X153071041Y-67850718D01*
X153071039Y-67850718D01*
X153030676Y-67872655D01*
X153026492Y-67875698D01*
X153026467Y-67875714D01*
X153026457Y-67875721D01*
X153026457Y-67875722D01*
X153022339Y-67878882D01*
X152989797Y-67911423D01*
X152987513Y-67913649D01*
X152954207Y-67945281D01*
X152950948Y-67949309D01*
X152950947Y-67949308D01*
X152950935Y-67949323D01*
X152950929Y-67949333D01*
X152947766Y-67953455D01*
X152924781Y-67993263D01*
X152924782Y-67993264D01*
X152923969Y-67994670D01*
X152899149Y-68035212D01*
X152897660Y-68040241D01*
X152895040Y-68044781D01*
X152883138Y-68089194D01*
X152883139Y-68089195D01*
X152882723Y-68090744D01*
X152869240Y-68136335D01*
X152869104Y-68141576D01*
X152867748Y-68146640D01*
X152867748Y-68146641D01*
X152867748Y-68192596D01*
X152867707Y-68195791D01*
X152866522Y-68241756D01*
X152867063Y-68246879D01*
X152867748Y-68259893D01*
X152867748Y-68335648D01*
X152848063Y-68402687D01*
X152795259Y-68448442D01*
X152726101Y-68458386D01*
X152662545Y-68429361D01*
X152656067Y-68423329D01*
X152510081Y-68277343D01*
X152510076Y-68277339D01*
X152312642Y-68133896D01*
X152312641Y-68133895D01*
X152312639Y-68133894D01*
X152095185Y-68023096D01*
X151863076Y-67947679D01*
X151863074Y-67947678D01*
X151863072Y-67947678D01*
X151648222Y-67913649D01*
X151622027Y-67909500D01*
X151377973Y-67909500D01*
X151351778Y-67913649D01*
X151136927Y-67947678D01*
X150904812Y-68023097D01*
X150687357Y-68133896D01*
X150489923Y-68277339D01*
X150489918Y-68277343D01*
X150317343Y-68449918D01*
X150317339Y-68449923D01*
X150173896Y-68647357D01*
X150063097Y-68864812D01*
X149987678Y-69096927D01*
X149949500Y-69337973D01*
X149949500Y-69582026D01*
X149987678Y-69823072D01*
X150063097Y-70055187D01*
X150173896Y-70272642D01*
X150317339Y-70470076D01*
X150317343Y-70470081D01*
X150489918Y-70642656D01*
X150489923Y-70642660D01*
X150662136Y-70767779D01*
X150687361Y-70786106D01*
X150904815Y-70896904D01*
X151136924Y-70972321D01*
X151377973Y-71010500D01*
X151377974Y-71010500D01*
X151622026Y-71010500D01*
X151622027Y-71010500D01*
X151863076Y-70972321D01*
X152095185Y-70896904D01*
X152312639Y-70786106D01*
X152510083Y-70642655D01*
X152656067Y-70496671D01*
X152717390Y-70463186D01*
X152787082Y-70468170D01*
X152843015Y-70510042D01*
X152867432Y-70575506D01*
X152867748Y-70584352D01*
X152867748Y-73415648D01*
X152848063Y-73482687D01*
X152795259Y-73528442D01*
X152726101Y-73538386D01*
X152662545Y-73509361D01*
X152656067Y-73503329D01*
X152510081Y-73357343D01*
X152510076Y-73357339D01*
X152312642Y-73213896D01*
X152312641Y-73213895D01*
X152312639Y-73213894D01*
X152095185Y-73103096D01*
X151863076Y-73027679D01*
X151863074Y-73027678D01*
X151863072Y-73027678D01*
X151694769Y-73001021D01*
X151622027Y-72989500D01*
X151377973Y-72989500D01*
X151322093Y-72998350D01*
X151136927Y-73027678D01*
X150904812Y-73103097D01*
X150687356Y-73213896D01*
X150528974Y-73328967D01*
X150463167Y-73352447D01*
X150395114Y-73336621D01*
X150368410Y-73316332D01*
X150340289Y-73288211D01*
X150340288Y-73288210D01*
X150340287Y-73288209D01*
X150209185Y-73200609D01*
X150209172Y-73200602D01*
X150063501Y-73140264D01*
X150063489Y-73140261D01*
X149908845Y-73109500D01*
X149908842Y-73109500D01*
X149751158Y-73109500D01*
X149751155Y-73109500D01*
X149596510Y-73140261D01*
X149596498Y-73140264D01*
X149450827Y-73200602D01*
X149450814Y-73200609D01*
X149319711Y-73288210D01*
X149319707Y-73288213D01*
X149208213Y-73399707D01*
X149208210Y-73399711D01*
X149120609Y-73530814D01*
X149120602Y-73530827D01*
X149060264Y-73676498D01*
X149060261Y-73676510D01*
X149029500Y-73831153D01*
X149029500Y-73988846D01*
X149060261Y-74143489D01*
X149060264Y-74143501D01*
X149120602Y-74289172D01*
X149120609Y-74289185D01*
X149208210Y-74420288D01*
X149208213Y-74420292D01*
X149319707Y-74531786D01*
X149319711Y-74531789D01*
X149450814Y-74619390D01*
X149450827Y-74619397D01*
X149596498Y-74679735D01*
X149596503Y-74679737D01*
X149751153Y-74710499D01*
X149751156Y-74710500D01*
X149851272Y-74710500D01*
X149918311Y-74730185D01*
X149964066Y-74782989D01*
X149973745Y-74815102D01*
X149987678Y-74903072D01*
X150063097Y-75135187D01*
X150173896Y-75352642D01*
X150317339Y-75550076D01*
X150317343Y-75550081D01*
X150489918Y-75722656D01*
X150489923Y-75722660D01*
X150649827Y-75838836D01*
X150687361Y-75866106D01*
X150904815Y-75976904D01*
X151136924Y-76052321D01*
X151377973Y-76090500D01*
X151377974Y-76090500D01*
X151622026Y-76090500D01*
X151622027Y-76090500D01*
X151863076Y-76052321D01*
X152095185Y-75976904D01*
X152312639Y-75866106D01*
X152510083Y-75722655D01*
X152656067Y-75576671D01*
X152675503Y-75566058D01*
X152692237Y-75551558D01*
X152705568Y-75549641D01*
X152717390Y-75543186D01*
X152739476Y-75544765D01*
X152761395Y-75541614D01*
X152773646Y-75547209D01*
X152787082Y-75548170D01*
X152804808Y-75561440D01*
X152824951Y-75570639D01*
X152832233Y-75581970D01*
X152843015Y-75590042D01*
X152850752Y-75610787D01*
X152862725Y-75629417D01*
X152865876Y-75651335D01*
X152867432Y-75655506D01*
X152867748Y-75664352D01*
X152867748Y-75838836D01*
X152867064Y-75851843D01*
X152866522Y-75856978D01*
X152867707Y-75902941D01*
X152867748Y-75906136D01*
X152867748Y-75952099D01*
X152868423Y-75957230D01*
X152868424Y-75957233D01*
X152868429Y-75957272D01*
X152869239Y-75962397D01*
X152873530Y-75976904D01*
X152882732Y-76008016D01*
X152895041Y-76053954D01*
X152897661Y-76058492D01*
X152899149Y-76063523D01*
X152923151Y-76102725D01*
X152923985Y-76104087D01*
X152947768Y-76145280D01*
X152951476Y-76148988D01*
X152954213Y-76153458D01*
X152987509Y-76185080D01*
X152987531Y-76185101D01*
X152989804Y-76187316D01*
X153022335Y-76219847D01*
X153022341Y-76219850D01*
X153026425Y-76222984D01*
X153026459Y-76223010D01*
X153026497Y-76223039D01*
X153026509Y-76223047D01*
X153030677Y-76226078D01*
X153071034Y-76248011D01*
X153073823Y-76249574D01*
X153113657Y-76272572D01*
X153113658Y-76272572D01*
X153113661Y-76272574D01*
X153113663Y-76272574D01*
X153118430Y-76274549D01*
X153130193Y-76280162D01*
X155372462Y-77498787D01*
X155413661Y-77522574D01*
X155418723Y-77523930D01*
X155423326Y-77526432D01*
X155423329Y-77526433D01*
X155423331Y-77526434D01*
X155438479Y-77530077D01*
X155468046Y-77537188D01*
X155468047Y-77537188D01*
X155469583Y-77537557D01*
X155515521Y-77549867D01*
X155520763Y-77549867D01*
X155525861Y-77551093D01*
X155525862Y-77551092D01*
X155525863Y-77551093D01*
X155533940Y-77551945D01*
X155533827Y-77553009D01*
X155533951Y-77553039D01*
X155533915Y-77553186D01*
X155538091Y-77555586D01*
X155589120Y-77569147D01*
X155636225Y-77620751D01*
X155647953Y-77689629D01*
X155620581Y-77753914D01*
X155612483Y-77762840D01*
X155592655Y-77782668D01*
X155592650Y-77782674D01*
X155449207Y-77980108D01*
X155338408Y-78197563D01*
X155262989Y-78429678D01*
X155224811Y-78670724D01*
X155224811Y-78914777D01*
X155257445Y-79120821D01*
X155262990Y-79155827D01*
X155338407Y-79387936D01*
X155435680Y-79578846D01*
X155449207Y-79605393D01*
X155592650Y-79802827D01*
X155592654Y-79802832D01*
X155765229Y-79975407D01*
X155765234Y-79975411D01*
X155867517Y-80049723D01*
X155962672Y-80118857D01*
X156180126Y-80229655D01*
X156412235Y-80305072D01*
X156653284Y-80343251D01*
X156653285Y-80343251D01*
X156897337Y-80343251D01*
X156897338Y-80343251D01*
X157138387Y-80305072D01*
X157370496Y-80229655D01*
X157587950Y-80118857D01*
X157785394Y-79975406D01*
X157957966Y-79802834D01*
X157957966Y-79802833D01*
X157961411Y-79799389D01*
X157962537Y-79800515D01*
X158015188Y-79766145D01*
X158085056Y-79765647D01*
X158144102Y-79803001D01*
X158173580Y-79866348D01*
X158174401Y-79872993D01*
X158407870Y-82299268D01*
X158500364Y-83260500D01*
X158515522Y-83418021D01*
X158502349Y-83486638D01*
X158454170Y-83537240D01*
X158386282Y-83553762D01*
X158320239Y-83530958D01*
X158277008Y-83476068D01*
X158274161Y-83468216D01*
X158271329Y-83459500D01*
X158212215Y-83277566D01*
X158101417Y-83060112D01*
X158002185Y-82923530D01*
X157957971Y-82862674D01*
X157957967Y-82862669D01*
X157785392Y-82690094D01*
X157785387Y-82690090D01*
X157587953Y-82546647D01*
X157587952Y-82546646D01*
X157587950Y-82546645D01*
X157370496Y-82435847D01*
X157138387Y-82360430D01*
X157138385Y-82360429D01*
X157138383Y-82360429D01*
X156951402Y-82330814D01*
X156897338Y-82322251D01*
X156653284Y-82322251D01*
X156599220Y-82330814D01*
X156412238Y-82360429D01*
X156180123Y-82435848D01*
X155962668Y-82546647D01*
X155765234Y-82690090D01*
X155765229Y-82690094D01*
X155592654Y-82862669D01*
X155592650Y-82862674D01*
X155449207Y-83060108D01*
X155338408Y-83277563D01*
X155338407Y-83277565D01*
X155338407Y-83277566D01*
X155303005Y-83386523D01*
X155262989Y-83509678D01*
X155224811Y-83750724D01*
X155224811Y-83994777D01*
X155262989Y-84235823D01*
X155262989Y-84235825D01*
X155262990Y-84235827D01*
X155338407Y-84467936D01*
X155433387Y-84654346D01*
X155449207Y-84685393D01*
X155592650Y-84882827D01*
X155592654Y-84882832D01*
X155765229Y-85055407D01*
X155765234Y-85055411D01*
X155862727Y-85126243D01*
X155962672Y-85198857D01*
X156180126Y-85309655D01*
X156412235Y-85385072D01*
X156653284Y-85423251D01*
X156653285Y-85423251D01*
X156897337Y-85423251D01*
X156897338Y-85423251D01*
X157138387Y-85385072D01*
X157370496Y-85309655D01*
X157587950Y-85198857D01*
X157785394Y-85055406D01*
X157957966Y-84882834D01*
X158101417Y-84685390D01*
X158212215Y-84467936D01*
X158287632Y-84235827D01*
X158325811Y-83994778D01*
X158325811Y-83994771D01*
X158325829Y-83994658D01*
X158355758Y-83931524D01*
X158415069Y-83894592D01*
X158484932Y-83895590D01*
X158543165Y-83934200D01*
X158571279Y-83998163D01*
X158571732Y-84002179D01*
X158650384Y-84819543D01*
X158667748Y-84999999D01*
X158667748Y-85033504D01*
X158672776Y-85052271D01*
X158673763Y-85062529D01*
X158673764Y-85062530D01*
X158674639Y-85071620D01*
X158674640Y-85071626D01*
X158684283Y-85097421D01*
X158687907Y-85108742D01*
X158692596Y-85126239D01*
X158695041Y-85135364D01*
X158704759Y-85152196D01*
X158711564Y-85170400D01*
X158731015Y-85197673D01*
X158733993Y-85202831D01*
X158733993Y-85202833D01*
X158747277Y-85225840D01*
X158747768Y-85226690D01*
X158747770Y-85226692D01*
X158754219Y-85233141D01*
X158767492Y-85248821D01*
X158772789Y-85256248D01*
X158772796Y-85256256D01*
X158798645Y-85277567D01*
X158822335Y-85301257D01*
X158839165Y-85310973D01*
X158854162Y-85323338D01*
X158884648Y-85337233D01*
X158913661Y-85353984D01*
X158932433Y-85359014D01*
X158950119Y-85367075D01*
X158977298Y-85371624D01*
X158977300Y-85371625D01*
X158983165Y-85372606D01*
X159015521Y-85381277D01*
X159034955Y-85381277D01*
X159054124Y-85384486D01*
X159081549Y-85381847D01*
X159093425Y-85381277D01*
X167843748Y-85381277D01*
X167910787Y-85400962D01*
X167956542Y-85453766D01*
X167967748Y-85505277D01*
X167967748Y-88439055D01*
X167966386Y-88485958D01*
X167967748Y-88491703D01*
X167967748Y-88497605D01*
X167979418Y-88541162D01*
X167980299Y-88544649D01*
X167990711Y-88588571D01*
X167992795Y-88594047D01*
X167995038Y-88599459D01*
X168017595Y-88638530D01*
X168019348Y-88641671D01*
X168040766Y-88681387D01*
X168044188Y-88686125D01*
X168047769Y-88690792D01*
X168079669Y-88722692D01*
X168082177Y-88725274D01*
X169303603Y-90019757D01*
X169394814Y-90116423D01*
X169397767Y-90121538D01*
X169430952Y-90154723D01*
X169463136Y-90188832D01*
X169463138Y-90188833D01*
X169463140Y-90188835D01*
X169467681Y-90192534D01*
X169472331Y-90196102D01*
X169472334Y-90196105D01*
X169496857Y-90210263D01*
X169511410Y-90218665D01*
X169514473Y-90220492D01*
X169552892Y-90244187D01*
X169552898Y-90244189D01*
X169558258Y-90246593D01*
X169563654Y-90248829D01*
X169563660Y-90248832D01*
X169607272Y-90260517D01*
X169610687Y-90261485D01*
X169653917Y-90274426D01*
X169653926Y-90274426D01*
X169659719Y-90275360D01*
X169665518Y-90276124D01*
X169665520Y-90276125D01*
X169710616Y-90276125D01*
X169714213Y-90276176D01*
X169759327Y-90277487D01*
X169759327Y-90277486D01*
X169759330Y-90277487D01*
X169766366Y-90276768D01*
X169778976Y-90276125D01*
X177416028Y-90276125D01*
X177416521Y-90276125D01*
X177467509Y-90276567D01*
X177469198Y-90276128D01*
X177470962Y-90276129D01*
X177470973Y-90276125D01*
X177470974Y-90276126D01*
X177520270Y-90262917D01*
X177569601Y-90250155D01*
X177571126Y-90249291D01*
X177572829Y-90248835D01*
X177572831Y-90248833D01*
X177572834Y-90248833D01*
X177616711Y-90223499D01*
X177617483Y-90223058D01*
X178433745Y-89761153D01*
X190699500Y-89761153D01*
X190699500Y-89918846D01*
X190730261Y-90073489D01*
X190730264Y-90073501D01*
X190790602Y-90219172D01*
X190790609Y-90219185D01*
X190878210Y-90350288D01*
X190878213Y-90350292D01*
X190989707Y-90461786D01*
X190989711Y-90461789D01*
X191120814Y-90549390D01*
X191120827Y-90549397D01*
X191244992Y-90600827D01*
X191266503Y-90609737D01*
X191421153Y-90640499D01*
X191421156Y-90640500D01*
X191421158Y-90640500D01*
X191578844Y-90640500D01*
X191578845Y-90640499D01*
X191733497Y-90609737D01*
X191879179Y-90549394D01*
X192010289Y-90461789D01*
X192121789Y-90350289D01*
X192209394Y-90219179D01*
X192218952Y-90196105D01*
X192236621Y-90153447D01*
X192269737Y-90073497D01*
X192300500Y-89918842D01*
X192300500Y-89761158D01*
X192300500Y-89761155D01*
X192300499Y-89761153D01*
X192294422Y-89730602D01*
X192269737Y-89606503D01*
X192215319Y-89475125D01*
X192209397Y-89460827D01*
X192209390Y-89460814D01*
X192121789Y-89329711D01*
X192121786Y-89329707D01*
X192010292Y-89218213D01*
X192010288Y-89218210D01*
X191879185Y-89130609D01*
X191879172Y-89130602D01*
X191733501Y-89070264D01*
X191733489Y-89070261D01*
X191578845Y-89039500D01*
X191578842Y-89039500D01*
X191421158Y-89039500D01*
X191421155Y-89039500D01*
X191266510Y-89070261D01*
X191266498Y-89070264D01*
X191120827Y-89130602D01*
X191120814Y-89130609D01*
X190989711Y-89218210D01*
X190989707Y-89218213D01*
X190878213Y-89329707D01*
X190878210Y-89329711D01*
X190790609Y-89460814D01*
X190790602Y-89460827D01*
X190730264Y-89606498D01*
X190730261Y-89606510D01*
X190699500Y-89761153D01*
X178433745Y-89761153D01*
X186258808Y-85333120D01*
X186298845Y-85312448D01*
X186304602Y-85307206D01*
X186311379Y-85303372D01*
X186311378Y-85303372D01*
X186311381Y-85303371D01*
X186341846Y-85273426D01*
X186345246Y-85270210D01*
X187108485Y-84575489D01*
X190977297Y-84575489D01*
X190977297Y-84819542D01*
X191014654Y-85055407D01*
X191015476Y-85060592D01*
X191090893Y-85292701D01*
X191177047Y-85461789D01*
X191201693Y-85510158D01*
X191345136Y-85707592D01*
X191345140Y-85707597D01*
X191517715Y-85880172D01*
X191517720Y-85880176D01*
X191689933Y-86005295D01*
X191715158Y-86023622D01*
X191932612Y-86134420D01*
X192164721Y-86209837D01*
X192405770Y-86248016D01*
X192405771Y-86248016D01*
X192649823Y-86248016D01*
X192649824Y-86248016D01*
X192890873Y-86209837D01*
X193122982Y-86134420D01*
X193340436Y-86023622D01*
X193537880Y-85880171D01*
X193710452Y-85707599D01*
X193853903Y-85510155D01*
X193964701Y-85292701D01*
X194040118Y-85060592D01*
X194078297Y-84819543D01*
X194078297Y-84575489D01*
X196057297Y-84575489D01*
X196057297Y-84819542D01*
X196094654Y-85055407D01*
X196095476Y-85060592D01*
X196170893Y-85292701D01*
X196257047Y-85461789D01*
X196281693Y-85510158D01*
X196425136Y-85707592D01*
X196425140Y-85707597D01*
X196597715Y-85880172D01*
X196597720Y-85880176D01*
X196769933Y-86005295D01*
X196795158Y-86023622D01*
X197012612Y-86134420D01*
X197244721Y-86209837D01*
X197485770Y-86248016D01*
X197485771Y-86248016D01*
X197729823Y-86248016D01*
X197729824Y-86248016D01*
X197970873Y-86209837D01*
X198202982Y-86134420D01*
X198420436Y-86023622D01*
X198617880Y-85880171D01*
X198790452Y-85707599D01*
X198933903Y-85510155D01*
X199044701Y-85292701D01*
X199120118Y-85060592D01*
X199158297Y-84819543D01*
X199158297Y-84575489D01*
X199120118Y-84334440D01*
X199044701Y-84102331D01*
X198933903Y-83884877D01*
X198857626Y-83779890D01*
X198790457Y-83687439D01*
X198790453Y-83687434D01*
X198617878Y-83514859D01*
X198617873Y-83514855D01*
X198420439Y-83371412D01*
X198420438Y-83371411D01*
X198420436Y-83371410D01*
X198202982Y-83260612D01*
X197970873Y-83185195D01*
X197970871Y-83185194D01*
X197970869Y-83185194D01*
X197802566Y-83158537D01*
X197729824Y-83147016D01*
X197485770Y-83147016D01*
X197445634Y-83153373D01*
X197244724Y-83185194D01*
X197012609Y-83260613D01*
X196795154Y-83371412D01*
X196597720Y-83514855D01*
X196597715Y-83514859D01*
X196425140Y-83687434D01*
X196425136Y-83687439D01*
X196281693Y-83884873D01*
X196170894Y-84102328D01*
X196095475Y-84334443D01*
X196057297Y-84575489D01*
X194078297Y-84575489D01*
X194040118Y-84334440D01*
X193964701Y-84102331D01*
X193853903Y-83884877D01*
X193777626Y-83779890D01*
X193710457Y-83687439D01*
X193710453Y-83687434D01*
X193537878Y-83514859D01*
X193537873Y-83514855D01*
X193340439Y-83371412D01*
X193340438Y-83371411D01*
X193340436Y-83371410D01*
X193122982Y-83260612D01*
X192890873Y-83185195D01*
X192890871Y-83185194D01*
X192890869Y-83185194D01*
X192722566Y-83158537D01*
X192649824Y-83147016D01*
X192405770Y-83147016D01*
X192365634Y-83153373D01*
X192164724Y-83185194D01*
X191932609Y-83260613D01*
X191715154Y-83371412D01*
X191517720Y-83514855D01*
X191517715Y-83514859D01*
X191345140Y-83687434D01*
X191345136Y-83687439D01*
X191201693Y-83884873D01*
X191090894Y-84102328D01*
X191015475Y-84334443D01*
X190977297Y-84575489D01*
X187108485Y-84575489D01*
X190143850Y-81812617D01*
X199517434Y-81812617D01*
X199517434Y-82048812D01*
X199554380Y-82282083D01*
X199627367Y-82506711D01*
X199710202Y-82669282D01*
X199734591Y-82717148D01*
X199873417Y-82908225D01*
X200040424Y-83075232D01*
X200231501Y-83214058D01*
X200262273Y-83229737D01*
X200441937Y-83321281D01*
X200441939Y-83321281D01*
X200441942Y-83321283D01*
X200562346Y-83360404D01*
X200666565Y-83394268D01*
X200899837Y-83431215D01*
X200899842Y-83431215D01*
X201136031Y-83431215D01*
X201369302Y-83394268D01*
X201370804Y-83393780D01*
X201593926Y-83321283D01*
X201804367Y-83214058D01*
X201995444Y-83075232D01*
X202162451Y-82908225D01*
X202207201Y-82846630D01*
X202211614Y-82841746D01*
X202235993Y-82826778D01*
X202258645Y-82809311D01*
X202266277Y-82808185D01*
X202271157Y-82805190D01*
X202284704Y-82805468D01*
X202290477Y-82804617D01*
X203034971Y-82060123D01*
X203052009Y-82123708D01*
X203117835Y-82237722D01*
X203210927Y-82330814D01*
X203324941Y-82396640D01*
X203388524Y-82413677D01*
X202648827Y-83153373D01*
X202731762Y-83213629D01*
X202942131Y-83320817D01*
X203166686Y-83393780D01*
X203166685Y-83393780D01*
X203399882Y-83430715D01*
X203635986Y-83430715D01*
X203869181Y-83393780D01*
X204093736Y-83320817D01*
X204304097Y-83213633D01*
X204304103Y-83213629D01*
X204387038Y-83153373D01*
X204387039Y-83153373D01*
X203647342Y-82413677D01*
X203710927Y-82396640D01*
X203824941Y-82330814D01*
X203918033Y-82237722D01*
X203983859Y-82123708D01*
X204000896Y-82060124D01*
X204747204Y-82806432D01*
X204790877Y-82815606D01*
X204832548Y-82851974D01*
X204873417Y-82908225D01*
X205040424Y-83075232D01*
X205231501Y-83214058D01*
X205441942Y-83321283D01*
X205596217Y-83371410D01*
X205642729Y-83386523D01*
X205700405Y-83425961D01*
X205727603Y-83490319D01*
X205715688Y-83559166D01*
X205668444Y-83610641D01*
X205660707Y-83614938D01*
X205582182Y-83654949D01*
X205410213Y-83779890D01*
X205259890Y-83930213D01*
X205134951Y-84102179D01*
X205038444Y-84291585D01*
X204972753Y-84493760D01*
X204939500Y-84703713D01*
X204939500Y-84916286D01*
X204969072Y-85103000D01*
X204972754Y-85126243D01*
X205036794Y-85323338D01*
X205038444Y-85328414D01*
X205134951Y-85517820D01*
X205259890Y-85689786D01*
X205410213Y-85840109D01*
X205582179Y-85965048D01*
X205582181Y-85965049D01*
X205582184Y-85965051D01*
X205771588Y-86061557D01*
X205973757Y-86127246D01*
X206183713Y-86160500D01*
X206183714Y-86160500D01*
X206396286Y-86160500D01*
X206396287Y-86160500D01*
X206606243Y-86127246D01*
X206808412Y-86061557D01*
X206997816Y-85965051D01*
X207024402Y-85945735D01*
X207169786Y-85840109D01*
X207169788Y-85840106D01*
X207169792Y-85840104D01*
X207320104Y-85689792D01*
X207320106Y-85689788D01*
X207320109Y-85689786D01*
X207445048Y-85517820D01*
X207445047Y-85517820D01*
X207445051Y-85517816D01*
X207541557Y-85328412D01*
X207607246Y-85126243D01*
X207640500Y-84916287D01*
X207640500Y-84703713D01*
X207607246Y-84493757D01*
X207541557Y-84291588D01*
X207445051Y-84102184D01*
X207445049Y-84102181D01*
X207445048Y-84102179D01*
X207320109Y-83930213D01*
X207169786Y-83779890D01*
X206997820Y-83654951D01*
X206808416Y-83558444D01*
X206677940Y-83516050D01*
X206620265Y-83476612D01*
X206593067Y-83412253D01*
X206604982Y-83343407D01*
X206652226Y-83291931D01*
X206659954Y-83287639D01*
X206804367Y-83214058D01*
X206995444Y-83075232D01*
X207162451Y-82908225D01*
X207301277Y-82717148D01*
X207408502Y-82506707D01*
X207481487Y-82282083D01*
X207506571Y-82123708D01*
X207518434Y-82048812D01*
X207518434Y-81812617D01*
X207481487Y-81579346D01*
X207408500Y-81354718D01*
X207301276Y-81144281D01*
X207237725Y-81056811D01*
X207162451Y-80953205D01*
X206995444Y-80786198D01*
X206804367Y-80647372D01*
X206593930Y-80540148D01*
X206369302Y-80467161D01*
X206136031Y-80430215D01*
X206136026Y-80430215D01*
X205899842Y-80430215D01*
X205899837Y-80430215D01*
X205666565Y-80467161D01*
X205441937Y-80540148D01*
X205231500Y-80647372D01*
X205147981Y-80708053D01*
X205040424Y-80786198D01*
X205040422Y-80786200D01*
X205040421Y-80786200D01*
X204873416Y-80953205D01*
X204832549Y-81009454D01*
X204777219Y-81052119D01*
X204745389Y-81056811D01*
X204000896Y-81801305D01*
X203983859Y-81737722D01*
X203918033Y-81623708D01*
X203824941Y-81530616D01*
X203710927Y-81464790D01*
X203647343Y-81447752D01*
X204387039Y-80708055D01*
X204387038Y-80708053D01*
X204304108Y-80647802D01*
X204093736Y-80540612D01*
X203869181Y-80467649D01*
X203869182Y-80467649D01*
X203635986Y-80430715D01*
X203399882Y-80430715D01*
X203166686Y-80467649D01*
X202942131Y-80540612D01*
X202731764Y-80647799D01*
X202648828Y-80708055D01*
X203388525Y-81447752D01*
X203324941Y-81464790D01*
X203210927Y-81530616D01*
X203117835Y-81623708D01*
X203052009Y-81737722D01*
X203034971Y-81801305D01*
X202289744Y-81056078D01*
X202275796Y-81052292D01*
X202244986Y-81045820D01*
X202241295Y-81042929D01*
X202238758Y-81042241D01*
X202229607Y-81033775D01*
X202211614Y-81019683D01*
X202207198Y-81014794D01*
X202162451Y-80953205D01*
X201995444Y-80786198D01*
X201804367Y-80647372D01*
X201593930Y-80540148D01*
X201369302Y-80467161D01*
X201136031Y-80430215D01*
X201136026Y-80430215D01*
X200899842Y-80430215D01*
X200899837Y-80430215D01*
X200666565Y-80467161D01*
X200441937Y-80540148D01*
X200231500Y-80647372D01*
X200147981Y-80708053D01*
X200040424Y-80786198D01*
X200040422Y-80786200D01*
X200040421Y-80786200D01*
X199873419Y-80953202D01*
X199873419Y-80953203D01*
X199873417Y-80953205D01*
X199832550Y-81009454D01*
X199734591Y-81144281D01*
X199627367Y-81354718D01*
X199554380Y-81579346D01*
X199517434Y-81812617D01*
X190143850Y-81812617D01*
X191992180Y-80130216D01*
X192055007Y-80099648D01*
X192075648Y-80097918D01*
X208029029Y-80097918D01*
X208096068Y-80117603D01*
X208141823Y-80170407D01*
X208153029Y-80221918D01*
X208153029Y-109241598D01*
X208133344Y-109308637D01*
X208080540Y-109354392D01*
X208011382Y-109364336D01*
X207960139Y-109344700D01*
X207879190Y-109290612D01*
X207879172Y-109290602D01*
X207733501Y-109230264D01*
X207733489Y-109230261D01*
X207578845Y-109199500D01*
X207578842Y-109199500D01*
X207421158Y-109199500D01*
X207421155Y-109199500D01*
X207266510Y-109230261D01*
X207266498Y-109230264D01*
X207120827Y-109290602D01*
X207120814Y-109290609D01*
X206989711Y-109378210D01*
X206989707Y-109378213D01*
X206878213Y-109489707D01*
X206878210Y-109489711D01*
X206790609Y-109620814D01*
X206790602Y-109620827D01*
X206730264Y-109766498D01*
X206730261Y-109766510D01*
X206699500Y-109921153D01*
X206699500Y-110078846D01*
X206730261Y-110233489D01*
X206730264Y-110233501D01*
X206790602Y-110379172D01*
X206790609Y-110379185D01*
X206878210Y-110510288D01*
X206878213Y-110510292D01*
X206989707Y-110621786D01*
X206989711Y-110621789D01*
X207120814Y-110709390D01*
X207120827Y-110709397D01*
X207239135Y-110758401D01*
X207266503Y-110769737D01*
X207421153Y-110800499D01*
X207421156Y-110800500D01*
X207421158Y-110800500D01*
X207578844Y-110800500D01*
X207578845Y-110800499D01*
X207733497Y-110769737D01*
X207879179Y-110709394D01*
X207960138Y-110655299D01*
X208026815Y-110634421D01*
X208094195Y-110652905D01*
X208140886Y-110704884D01*
X208153029Y-110758401D01*
X208153029Y-121458200D01*
X208133344Y-121525239D01*
X208080540Y-121570994D01*
X208029029Y-121582200D01*
X198156961Y-121582200D01*
X198089922Y-121562515D01*
X198044167Y-121509711D01*
X198032961Y-121458200D01*
X198032961Y-118290634D01*
X199624500Y-118290634D01*
X199624500Y-118469366D01*
X199632473Y-118519704D01*
X199652460Y-118645898D01*
X199652460Y-118645901D01*
X199707689Y-118815878D01*
X199707691Y-118815881D01*
X199788833Y-118975132D01*
X199893889Y-119119728D01*
X200020272Y-119246111D01*
X200164868Y-119351167D01*
X200324119Y-119432309D01*
X200324121Y-119432310D01*
X200482670Y-119483825D01*
X200494103Y-119487540D01*
X200670634Y-119515500D01*
X200670635Y-119515500D01*
X200849365Y-119515500D01*
X200849366Y-119515500D01*
X201025897Y-119487540D01*
X201025900Y-119487539D01*
X201025901Y-119487539D01*
X201195878Y-119432310D01*
X201195878Y-119432309D01*
X201195881Y-119432309D01*
X201355132Y-119351167D01*
X201499728Y-119246111D01*
X201626111Y-119119728D01*
X201731167Y-118975132D01*
X201812309Y-118815881D01*
X201812310Y-118815878D01*
X201867539Y-118645901D01*
X201867539Y-118645900D01*
X201867540Y-118645897D01*
X201887527Y-118519703D01*
X201917456Y-118456569D01*
X201976768Y-118419638D01*
X202046630Y-118420636D01*
X202104863Y-118459246D01*
X202132472Y-118519703D01*
X202142527Y-118583185D01*
X202152460Y-118645898D01*
X202152460Y-118645901D01*
X202207689Y-118815878D01*
X202207691Y-118815881D01*
X202288833Y-118975132D01*
X202393889Y-119119728D01*
X202520272Y-119246111D01*
X202664868Y-119351167D01*
X202824119Y-119432309D01*
X202824121Y-119432310D01*
X202982670Y-119483825D01*
X202994103Y-119487540D01*
X203170634Y-119515500D01*
X203170635Y-119515500D01*
X203349365Y-119515500D01*
X203349366Y-119515500D01*
X203525897Y-119487540D01*
X203525900Y-119487539D01*
X203525901Y-119487539D01*
X203695878Y-119432310D01*
X203695878Y-119432309D01*
X203695881Y-119432309D01*
X203855132Y-119351167D01*
X203999728Y-119246111D01*
X204126111Y-119119728D01*
X204231167Y-118975132D01*
X204312309Y-118815881D01*
X204367540Y-118645897D01*
X204378028Y-118579677D01*
X204407955Y-118516547D01*
X204467266Y-118479615D01*
X204537129Y-118480612D01*
X204595362Y-118519222D01*
X204623477Y-118583185D01*
X204624500Y-118599079D01*
X204624500Y-119062870D01*
X204624501Y-119062876D01*
X204630908Y-119122483D01*
X204681202Y-119257328D01*
X204681206Y-119257335D01*
X204767452Y-119372544D01*
X204767455Y-119372547D01*
X204882664Y-119458793D01*
X204882671Y-119458797D01*
X205017517Y-119509091D01*
X205017516Y-119509091D01*
X205024444Y-119509835D01*
X205077127Y-119515500D01*
X206442872Y-119515499D01*
X206502483Y-119509091D01*
X206637331Y-119458796D01*
X206752546Y-119372546D01*
X206838796Y-119257331D01*
X206889091Y-119122483D01*
X206895500Y-119062873D01*
X206895499Y-117697128D01*
X206889091Y-117637517D01*
X206838796Y-117502669D01*
X206838795Y-117502668D01*
X206838793Y-117502664D01*
X206752547Y-117387455D01*
X206752544Y-117387452D01*
X206637335Y-117301206D01*
X206637328Y-117301202D01*
X206502482Y-117250908D01*
X206502483Y-117250908D01*
X206442883Y-117244501D01*
X206442881Y-117244500D01*
X206442873Y-117244500D01*
X206442864Y-117244500D01*
X205077129Y-117244500D01*
X205077123Y-117244501D01*
X205017516Y-117250908D01*
X204882671Y-117301202D01*
X204882664Y-117301206D01*
X204767455Y-117387452D01*
X204767452Y-117387455D01*
X204681206Y-117502664D01*
X204681202Y-117502671D01*
X204630908Y-117637517D01*
X204624501Y-117697116D01*
X204624501Y-117697123D01*
X204624500Y-117697135D01*
X204624500Y-118160918D01*
X204604815Y-118227957D01*
X204552011Y-118273712D01*
X204482853Y-118283656D01*
X204419297Y-118254631D01*
X204381523Y-118195853D01*
X204378027Y-118180315D01*
X204367540Y-118114103D01*
X204367539Y-118114098D01*
X204312310Y-117944121D01*
X204312308Y-117944118D01*
X204231166Y-117784867D01*
X204217773Y-117766433D01*
X204126111Y-117640272D01*
X203999728Y-117513889D01*
X203855132Y-117408833D01*
X203695881Y-117327691D01*
X203695878Y-117327689D01*
X203525899Y-117272460D01*
X203389824Y-117250908D01*
X203349366Y-117244500D01*
X203170634Y-117244500D01*
X203130176Y-117250908D01*
X202994101Y-117272460D01*
X202994098Y-117272460D01*
X202824121Y-117327689D01*
X202824118Y-117327691D01*
X202664867Y-117408833D01*
X202520270Y-117513890D01*
X202393890Y-117640270D01*
X202288833Y-117784867D01*
X202207691Y-117944118D01*
X202207689Y-117944121D01*
X202152460Y-118114098D01*
X202152460Y-118114101D01*
X202132473Y-118240295D01*
X202102544Y-118303430D01*
X202043232Y-118340361D01*
X201973370Y-118339363D01*
X201915137Y-118300753D01*
X201887527Y-118240295D01*
X201878027Y-118180315D01*
X201867540Y-118114103D01*
X201867539Y-118114099D01*
X201867539Y-118114098D01*
X201812310Y-117944121D01*
X201812308Y-117944118D01*
X201731166Y-117784867D01*
X201717773Y-117766433D01*
X201626111Y-117640272D01*
X201499728Y-117513889D01*
X201355132Y-117408833D01*
X201195881Y-117327691D01*
X201195878Y-117327689D01*
X201025899Y-117272460D01*
X200889824Y-117250908D01*
X200849366Y-117244500D01*
X200670634Y-117244500D01*
X200630176Y-117250908D01*
X200494101Y-117272460D01*
X200494098Y-117272460D01*
X200324121Y-117327689D01*
X200324118Y-117327691D01*
X200164867Y-117408833D01*
X200020270Y-117513890D01*
X199893890Y-117640270D01*
X199788833Y-117784867D01*
X199707691Y-117944118D01*
X199707689Y-117944121D01*
X199652460Y-118114098D01*
X199652460Y-118114101D01*
X199627180Y-118273712D01*
X199624500Y-118290634D01*
X198032961Y-118290634D01*
X198032961Y-109981153D01*
X200639500Y-109981153D01*
X200639500Y-110138846D01*
X200670261Y-110293489D01*
X200670264Y-110293501D01*
X200730602Y-110439172D01*
X200730609Y-110439185D01*
X200818210Y-110570288D01*
X200818213Y-110570292D01*
X200929707Y-110681786D01*
X200929711Y-110681789D01*
X201060814Y-110769390D01*
X201060827Y-110769397D01*
X201206498Y-110829735D01*
X201206503Y-110829737D01*
X201361153Y-110860499D01*
X201361156Y-110860500D01*
X201361158Y-110860500D01*
X201518844Y-110860500D01*
X201518845Y-110860499D01*
X201673497Y-110829737D01*
X201819179Y-110769394D01*
X201950289Y-110681789D01*
X202061789Y-110570289D01*
X202149394Y-110439179D01*
X202209737Y-110293497D01*
X202240500Y-110138842D01*
X202240500Y-109981158D01*
X202240500Y-109981155D01*
X202240499Y-109981153D01*
X202209738Y-109826510D01*
X202209737Y-109826503D01*
X202209735Y-109826498D01*
X202149397Y-109680827D01*
X202149390Y-109680814D01*
X202061789Y-109549711D01*
X202061786Y-109549707D01*
X201950292Y-109438213D01*
X201950288Y-109438210D01*
X201819185Y-109350609D01*
X201819172Y-109350602D01*
X201673501Y-109290264D01*
X201673489Y-109290261D01*
X201518845Y-109259500D01*
X201518842Y-109259500D01*
X201361158Y-109259500D01*
X201361155Y-109259500D01*
X201206510Y-109290261D01*
X201206498Y-109290264D01*
X201060827Y-109350602D01*
X201060814Y-109350609D01*
X200929711Y-109438210D01*
X200929707Y-109438213D01*
X200818213Y-109549707D01*
X200818210Y-109549711D01*
X200730609Y-109680814D01*
X200730602Y-109680827D01*
X200670264Y-109826498D01*
X200670261Y-109826510D01*
X200639500Y-109981153D01*
X198032961Y-109981153D01*
X198032961Y-106929975D01*
X198032961Y-106929973D01*
X198005668Y-106828113D01*
X197952941Y-106736787D01*
X197878374Y-106662220D01*
X197811520Y-106623622D01*
X197787050Y-106609494D01*
X197787049Y-106609493D01*
X197787048Y-106609493D01*
X197685188Y-106582200D01*
X197685187Y-106582200D01*
X192898011Y-106582200D01*
X192830972Y-106562515D01*
X192798069Y-106531600D01*
X189699824Y-102313016D01*
X189699822Y-102313014D01*
X189688101Y-102297053D01*
X189684545Y-102292212D01*
X189684514Y-102292124D01*
X189647928Y-102242280D01*
X189567677Y-102132949D01*
X189371343Y-101916901D01*
X189362211Y-101908745D01*
X189228765Y-101789555D01*
X189153614Y-101722433D01*
X189153611Y-101722431D01*
X189153609Y-101722429D01*
X189040991Y-101641198D01*
X189009025Y-101618141D01*
X188916848Y-101551653D01*
X188916847Y-101551652D01*
X188916840Y-101551648D01*
X188906124Y-101545502D01*
X190976972Y-101545502D01*
X190976972Y-101789555D01*
X191004525Y-101963520D01*
X191015151Y-102030605D01*
X191090568Y-102262714D01*
X191151822Y-102382933D01*
X191201368Y-102480171D01*
X191344811Y-102677605D01*
X191344815Y-102677610D01*
X191517390Y-102850185D01*
X191517395Y-102850189D01*
X191689608Y-102975308D01*
X191714833Y-102993635D01*
X191932287Y-103104433D01*
X192164396Y-103179850D01*
X192405445Y-103218029D01*
X192405446Y-103218029D01*
X192649498Y-103218029D01*
X192649499Y-103218029D01*
X192890548Y-103179850D01*
X193122657Y-103104433D01*
X193340111Y-102993635D01*
X193537555Y-102850184D01*
X193710127Y-102677612D01*
X193853578Y-102480168D01*
X193964376Y-102262714D01*
X194039793Y-102030605D01*
X194077972Y-101789556D01*
X194077972Y-101545502D01*
X196056972Y-101545502D01*
X196056972Y-101789555D01*
X196084525Y-101963520D01*
X196095151Y-102030605D01*
X196170568Y-102262714D01*
X196231822Y-102382933D01*
X196281368Y-102480171D01*
X196424811Y-102677605D01*
X196424815Y-102677610D01*
X196597390Y-102850185D01*
X196597395Y-102850189D01*
X196769608Y-102975308D01*
X196794833Y-102993635D01*
X197012287Y-103104433D01*
X197244396Y-103179850D01*
X197485445Y-103218029D01*
X197485446Y-103218029D01*
X197729498Y-103218029D01*
X197729499Y-103218029D01*
X197970548Y-103179850D01*
X198202657Y-103104433D01*
X198420111Y-102993635D01*
X198617555Y-102850184D01*
X198790127Y-102677612D01*
X198933578Y-102480168D01*
X199044376Y-102262714D01*
X199119793Y-102030605D01*
X199157972Y-101789556D01*
X199157972Y-101545502D01*
X199119793Y-101304453D01*
X199044376Y-101072344D01*
X198933578Y-100854890D01*
X198864073Y-100759224D01*
X198790132Y-100657452D01*
X198790128Y-100657447D01*
X198617553Y-100484872D01*
X198617548Y-100484868D01*
X198420114Y-100341425D01*
X198420113Y-100341424D01*
X198420111Y-100341423D01*
X198202657Y-100230625D01*
X197970548Y-100155208D01*
X197970546Y-100155207D01*
X197970544Y-100155207D01*
X197802241Y-100128550D01*
X197729499Y-100117029D01*
X197485445Y-100117029D01*
X197429565Y-100125879D01*
X197244399Y-100155207D01*
X197012284Y-100230626D01*
X196794829Y-100341425D01*
X196597395Y-100484868D01*
X196597390Y-100484872D01*
X196424815Y-100657447D01*
X196424811Y-100657452D01*
X196281368Y-100854886D01*
X196170569Y-101072341D01*
X196095150Y-101304456D01*
X196056972Y-101545502D01*
X194077972Y-101545502D01*
X194039793Y-101304453D01*
X193964376Y-101072344D01*
X193853578Y-100854890D01*
X193784073Y-100759224D01*
X193710132Y-100657452D01*
X193710128Y-100657447D01*
X193537553Y-100484872D01*
X193537548Y-100484868D01*
X193340114Y-100341425D01*
X193340113Y-100341424D01*
X193340111Y-100341423D01*
X193122657Y-100230625D01*
X192890548Y-100155208D01*
X192890546Y-100155207D01*
X192890544Y-100155207D01*
X192722241Y-100128550D01*
X192649499Y-100117029D01*
X192405445Y-100117029D01*
X192349565Y-100125879D01*
X192164399Y-100155207D01*
X191932284Y-100230626D01*
X191714829Y-100341425D01*
X191517395Y-100484868D01*
X191517390Y-100484872D01*
X191344815Y-100657447D01*
X191344811Y-100657452D01*
X191201368Y-100854886D01*
X191090569Y-101072341D01*
X191015150Y-101304456D01*
X190976972Y-101545502D01*
X188906124Y-101545502D01*
X188663618Y-101406416D01*
X188663616Y-101406415D01*
X188396655Y-101288288D01*
X188396650Y-101288286D01*
X188396647Y-101288285D01*
X188118849Y-101198550D01*
X188076349Y-101189567D01*
X187833239Y-101138183D01*
X187833228Y-101138181D01*
X187542879Y-101107830D01*
X187397399Y-101107870D01*
X187397092Y-101107870D01*
X173223180Y-101076532D01*
X173156184Y-101056699D01*
X173110546Y-101003794D01*
X173100755Y-100934614D01*
X173129921Y-100871122D01*
X173150566Y-100852216D01*
X173257510Y-100774517D01*
X173424517Y-100607510D01*
X173563343Y-100416433D01*
X173670568Y-100205992D01*
X173743553Y-99981368D01*
X173755815Y-99903948D01*
X173780500Y-99748097D01*
X173780500Y-99511902D01*
X173743553Y-99278631D01*
X173670566Y-99054003D01*
X173595397Y-98906477D01*
X173563343Y-98843567D01*
X173424517Y-98652490D01*
X173257510Y-98485483D01*
X173066433Y-98346657D01*
X172855996Y-98239433D01*
X172631368Y-98166446D01*
X172398097Y-98129500D01*
X172398092Y-98129500D01*
X172161908Y-98129500D01*
X172161903Y-98129500D01*
X171928631Y-98166446D01*
X171704003Y-98239433D01*
X171493566Y-98346657D01*
X171387110Y-98424003D01*
X171302490Y-98485483D01*
X171302488Y-98485485D01*
X171302487Y-98485485D01*
X171135485Y-98652487D01*
X171135485Y-98652488D01*
X171135483Y-98652490D01*
X171106056Y-98692993D01*
X170996655Y-98843569D01*
X170990484Y-98855681D01*
X170942509Y-98906477D01*
X170874688Y-98923271D01*
X170808553Y-98900733D01*
X170769516Y-98855681D01*
X170763344Y-98843569D01*
X170763342Y-98843566D01*
X170624517Y-98652490D01*
X170457510Y-98485483D01*
X170266433Y-98346657D01*
X170055996Y-98239433D01*
X169831368Y-98166446D01*
X169598097Y-98129500D01*
X169598092Y-98129500D01*
X169361908Y-98129500D01*
X169361903Y-98129500D01*
X169128631Y-98166446D01*
X168904003Y-98239433D01*
X168693566Y-98346657D01*
X168587110Y-98424003D01*
X168502490Y-98485483D01*
X168502488Y-98485485D01*
X168502487Y-98485485D01*
X168335485Y-98652487D01*
X168335485Y-98652488D01*
X168335483Y-98652490D01*
X168306056Y-98692993D01*
X168196653Y-98843571D01*
X168134967Y-98964637D01*
X168086993Y-99015433D01*
X168019172Y-99032228D01*
X167953037Y-99009690D01*
X167909586Y-98954975D01*
X167900483Y-98908342D01*
X167900553Y-94435429D01*
X167900554Y-94435427D01*
X167900554Y-94365513D01*
X167900555Y-94329979D01*
X167900554Y-94329975D01*
X167900554Y-94329973D01*
X167876369Y-94239711D01*
X167873263Y-94228119D01*
X167873262Y-94228117D01*
X167873261Y-94228113D01*
X167843311Y-94176239D01*
X167843310Y-94176237D01*
X167843310Y-94176236D01*
X167843308Y-94176234D01*
X167822386Y-94139993D01*
X167820902Y-94137235D01*
X167820669Y-94136922D01*
X167783247Y-94099500D01*
X167745972Y-94062224D01*
X167745969Y-94062222D01*
X167745967Y-94062220D01*
X167706525Y-94039448D01*
X167654647Y-94009495D01*
X167654648Y-94009495D01*
X167654644Y-94009493D01*
X167653682Y-94009109D01*
X167650351Y-94008343D01*
X167614686Y-93998785D01*
X167614686Y-93998786D01*
X167556380Y-93983163D01*
X167553628Y-93982336D01*
X167552786Y-93982200D01*
X167552784Y-93982200D01*
X167552781Y-93982200D01*
X167500060Y-93982200D01*
X167447333Y-93982199D01*
X167447329Y-93982200D01*
X135086851Y-93982200D01*
X134981397Y-93982200D01*
X134879537Y-94009493D01*
X134879534Y-94009494D01*
X134788209Y-94062221D01*
X134713645Y-94136785D01*
X134660918Y-94228110D01*
X134660917Y-94228113D01*
X134633624Y-94329973D01*
X134633624Y-115005730D01*
X134613939Y-115072769D01*
X134597261Y-115093455D01*
X123733938Y-125945925D01*
X123672599Y-125979379D01*
X123646301Y-125982200D01*
X76603480Y-125982234D01*
X76596528Y-125982039D01*
X76315899Y-125966281D01*
X76302081Y-125964724D01*
X76028425Y-125918229D01*
X76014867Y-125915135D01*
X75748120Y-125838286D01*
X75734996Y-125833693D01*
X75478547Y-125727470D01*
X75466025Y-125721440D01*
X75223072Y-125587167D01*
X75211298Y-125579769D01*
X74984901Y-125419134D01*
X74974041Y-125410473D01*
X74767052Y-125225499D01*
X74757225Y-125215672D01*
X74572251Y-125008690D01*
X74563581Y-124997818D01*
X74402948Y-124771429D01*
X74395551Y-124759657D01*
X74376423Y-124725048D01*
X74346636Y-124671153D01*
X80309500Y-124671153D01*
X80309500Y-124828846D01*
X80340261Y-124983489D01*
X80340264Y-124983501D01*
X80400602Y-125129172D01*
X80400609Y-125129185D01*
X80488210Y-125260288D01*
X80488213Y-125260292D01*
X80599707Y-125371786D01*
X80599711Y-125371789D01*
X80730814Y-125459390D01*
X80730827Y-125459397D01*
X80876498Y-125519735D01*
X80876503Y-125519737D01*
X81031153Y-125550499D01*
X81031156Y-125550500D01*
X81031158Y-125550500D01*
X81188844Y-125550500D01*
X81188845Y-125550499D01*
X81343497Y-125519737D01*
X81489179Y-125459394D01*
X81620289Y-125371789D01*
X81620292Y-125371786D01*
X81657319Y-125334760D01*
X81718642Y-125301275D01*
X81788334Y-125306259D01*
X81832681Y-125334760D01*
X81869707Y-125371786D01*
X81869711Y-125371789D01*
X82000814Y-125459390D01*
X82000827Y-125459397D01*
X82146498Y-125519735D01*
X82146503Y-125519737D01*
X82301153Y-125550499D01*
X82301156Y-125550500D01*
X82301158Y-125550500D01*
X82458844Y-125550500D01*
X82458845Y-125550499D01*
X82613497Y-125519737D01*
X82759179Y-125459394D01*
X82890289Y-125371789D01*
X83001789Y-125260289D01*
X83089394Y-125129179D01*
X83149737Y-124983497D01*
X83180500Y-124828842D01*
X83180500Y-124671158D01*
X83180500Y-124671155D01*
X83180499Y-124671153D01*
X84119500Y-124671153D01*
X84119500Y-124828846D01*
X84150261Y-124983489D01*
X84150264Y-124983501D01*
X84210602Y-125129172D01*
X84210609Y-125129185D01*
X84298210Y-125260288D01*
X84298213Y-125260292D01*
X84409707Y-125371786D01*
X84409711Y-125371789D01*
X84540814Y-125459390D01*
X84540827Y-125459397D01*
X84686498Y-125519735D01*
X84686503Y-125519737D01*
X84841153Y-125550499D01*
X84841156Y-125550500D01*
X84841158Y-125550500D01*
X84998844Y-125550500D01*
X84998845Y-125550499D01*
X85153497Y-125519737D01*
X85299179Y-125459394D01*
X85430289Y-125371789D01*
X85430292Y-125371786D01*
X85467319Y-125334760D01*
X85528642Y-125301275D01*
X85598334Y-125306259D01*
X85642681Y-125334760D01*
X85679707Y-125371786D01*
X85679711Y-125371789D01*
X85810814Y-125459390D01*
X85810827Y-125459397D01*
X85956498Y-125519735D01*
X85956503Y-125519737D01*
X86111153Y-125550499D01*
X86111156Y-125550500D01*
X86111158Y-125550500D01*
X86268844Y-125550500D01*
X86268845Y-125550499D01*
X86423497Y-125519737D01*
X86569179Y-125459394D01*
X86700289Y-125371789D01*
X86811789Y-125260289D01*
X86899394Y-125129179D01*
X86959737Y-124983497D01*
X86990500Y-124828842D01*
X86990500Y-124671158D01*
X86990500Y-124671155D01*
X86990499Y-124671153D01*
X86959738Y-124516510D01*
X86959737Y-124516503D01*
X86954636Y-124504188D01*
X86899397Y-124370827D01*
X86899390Y-124370814D01*
X86811789Y-124239711D01*
X86811786Y-124239707D01*
X86700292Y-124128213D01*
X86700288Y-124128210D01*
X86569185Y-124040609D01*
X86569172Y-124040602D01*
X86423501Y-123980264D01*
X86423489Y-123980261D01*
X86268845Y-123949500D01*
X86268842Y-123949500D01*
X86111158Y-123949500D01*
X86111155Y-123949500D01*
X85956510Y-123980261D01*
X85956498Y-123980264D01*
X85810827Y-124040602D01*
X85810814Y-124040609D01*
X85679711Y-124128210D01*
X85679707Y-124128213D01*
X85642681Y-124165240D01*
X85581358Y-124198725D01*
X85511666Y-124193741D01*
X85467319Y-124165240D01*
X85430292Y-124128213D01*
X85430288Y-124128210D01*
X85299185Y-124040609D01*
X85299172Y-124040602D01*
X85153501Y-123980264D01*
X85153489Y-123980261D01*
X84998845Y-123949500D01*
X84998842Y-123949500D01*
X84841158Y-123949500D01*
X84841155Y-123949500D01*
X84686510Y-123980261D01*
X84686498Y-123980264D01*
X84540827Y-124040602D01*
X84540814Y-124040609D01*
X84409711Y-124128210D01*
X84409707Y-124128213D01*
X84298213Y-124239707D01*
X84298210Y-124239711D01*
X84210609Y-124370814D01*
X84210602Y-124370827D01*
X84150264Y-124516498D01*
X84150261Y-124516510D01*
X84119500Y-124671153D01*
X83180499Y-124671153D01*
X83149738Y-124516510D01*
X83149737Y-124516503D01*
X83144636Y-124504188D01*
X83089397Y-124370827D01*
X83089390Y-124370814D01*
X83001789Y-124239711D01*
X83001786Y-124239707D01*
X82890292Y-124128213D01*
X82890288Y-124128210D01*
X82759185Y-124040609D01*
X82759172Y-124040602D01*
X82613501Y-123980264D01*
X82613489Y-123980261D01*
X82458845Y-123949500D01*
X82458842Y-123949500D01*
X82301158Y-123949500D01*
X82301155Y-123949500D01*
X82146510Y-123980261D01*
X82146498Y-123980264D01*
X82000827Y-124040602D01*
X82000814Y-124040609D01*
X81869711Y-124128210D01*
X81869707Y-124128213D01*
X81832681Y-124165240D01*
X81771358Y-124198725D01*
X81701666Y-124193741D01*
X81657319Y-124165240D01*
X81620292Y-124128213D01*
X81620288Y-124128210D01*
X81489185Y-124040609D01*
X81489172Y-124040602D01*
X81343501Y-123980264D01*
X81343489Y-123980261D01*
X81188845Y-123949500D01*
X81188842Y-123949500D01*
X81031158Y-123949500D01*
X81031155Y-123949500D01*
X80876510Y-123980261D01*
X80876498Y-123980264D01*
X80730827Y-124040602D01*
X80730814Y-124040609D01*
X80599711Y-124128210D01*
X80599707Y-124128213D01*
X80488213Y-124239707D01*
X80488210Y-124239711D01*
X80400609Y-124370814D01*
X80400602Y-124370827D01*
X80340264Y-124516498D01*
X80340261Y-124516510D01*
X80309500Y-124671153D01*
X74346636Y-124671153D01*
X74261280Y-124516716D01*
X74255246Y-124504188D01*
X74149012Y-124247723D01*
X74144420Y-124234598D01*
X74113769Y-124128211D01*
X74067574Y-123967870D01*
X74064480Y-123954316D01*
X74017979Y-123680649D01*
X74016422Y-123666831D01*
X74016153Y-123662049D01*
X74000695Y-123386842D01*
X74000500Y-123379888D01*
X74000500Y-122798543D01*
X91479499Y-122798543D01*
X91517947Y-122991829D01*
X91517950Y-122991839D01*
X91593364Y-123173907D01*
X91593371Y-123173920D01*
X91702860Y-123337781D01*
X91702863Y-123337785D01*
X91842214Y-123477136D01*
X91842218Y-123477139D01*
X92006079Y-123586628D01*
X92006092Y-123586635D01*
X92188160Y-123662049D01*
X92188165Y-123662051D01*
X92188169Y-123662051D01*
X92188170Y-123662052D01*
X92381456Y-123700500D01*
X92381459Y-123700500D01*
X92578543Y-123700500D01*
X92712845Y-123673785D01*
X92771835Y-123662051D01*
X92953914Y-123586632D01*
X93117782Y-123477139D01*
X93257139Y-123337782D01*
X93366632Y-123173914D01*
X93442051Y-122991835D01*
X93480500Y-122798541D01*
X93480500Y-122611304D01*
X97889500Y-122611304D01*
X97889500Y-122788695D01*
X97924103Y-122962658D01*
X97924106Y-122962667D01*
X97991983Y-123126540D01*
X97991990Y-123126553D01*
X98090535Y-123274034D01*
X98090538Y-123274038D01*
X98215961Y-123399461D01*
X98215965Y-123399464D01*
X98363446Y-123498009D01*
X98363459Y-123498016D01*
X98486363Y-123548923D01*
X98527334Y-123565894D01*
X98527336Y-123565894D01*
X98527341Y-123565896D01*
X98701304Y-123600499D01*
X98701307Y-123600500D01*
X98701309Y-123600500D01*
X98878693Y-123600500D01*
X98878694Y-123600499D01*
X98948430Y-123586628D01*
X99052658Y-123565896D01*
X99052661Y-123565894D01*
X99052666Y-123565894D01*
X99216547Y-123498013D01*
X99364035Y-123399464D01*
X99489464Y-123274035D01*
X99588013Y-123126547D01*
X99655894Y-122962666D01*
X99690500Y-122788691D01*
X99690500Y-122611309D01*
X99690500Y-122611306D01*
X99690499Y-122611304D01*
X99655896Y-122437341D01*
X99655893Y-122437332D01*
X99588016Y-122273459D01*
X99588009Y-122273446D01*
X99489464Y-122125965D01*
X99489461Y-122125961D01*
X99364038Y-122000538D01*
X99364034Y-122000535D01*
X99216553Y-121901990D01*
X99216540Y-121901983D01*
X99052667Y-121834106D01*
X99052658Y-121834103D01*
X98878694Y-121799500D01*
X98878691Y-121799500D01*
X98701309Y-121799500D01*
X98701306Y-121799500D01*
X98527341Y-121834103D01*
X98527332Y-121834106D01*
X98363459Y-121901983D01*
X98363446Y-121901990D01*
X98215965Y-122000535D01*
X98215961Y-122000538D01*
X98090538Y-122125961D01*
X98090535Y-122125965D01*
X97991990Y-122273446D01*
X97991983Y-122273459D01*
X97924106Y-122437332D01*
X97924103Y-122437341D01*
X97889500Y-122611304D01*
X93480500Y-122611304D01*
X93480500Y-122601459D01*
X93480500Y-122601456D01*
X93442052Y-122408170D01*
X93442051Y-122408169D01*
X93442051Y-122408165D01*
X93424251Y-122365192D01*
X93366635Y-122226092D01*
X93366628Y-122226079D01*
X93257139Y-122062218D01*
X93257136Y-122062214D01*
X93117785Y-121922863D01*
X93117781Y-121922860D01*
X92953920Y-121813371D01*
X92953907Y-121813364D01*
X92771839Y-121737950D01*
X92771829Y-121737947D01*
X92578543Y-121699500D01*
X92578541Y-121699500D01*
X92381459Y-121699500D01*
X92381457Y-121699500D01*
X92188170Y-121737947D01*
X92188160Y-121737950D01*
X92006092Y-121813364D01*
X92006079Y-121813371D01*
X91842218Y-121922860D01*
X91842214Y-121922863D01*
X91702863Y-122062214D01*
X91702860Y-122062218D01*
X91593371Y-122226079D01*
X91593364Y-122226092D01*
X91517950Y-122408160D01*
X91517947Y-122408170D01*
X91479500Y-122601456D01*
X91479500Y-122601459D01*
X91479500Y-122798541D01*
X91479500Y-122798543D01*
X91479499Y-122798543D01*
X74000500Y-122798543D01*
X74000500Y-121060505D01*
X113908848Y-121060505D01*
X113908848Y-121304558D01*
X113943800Y-121525239D01*
X113947027Y-121545608D01*
X114022444Y-121777717D01*
X114096399Y-121922863D01*
X114133244Y-121995174D01*
X114276687Y-122192608D01*
X114276691Y-122192613D01*
X114449266Y-122365188D01*
X114449271Y-122365192D01*
X114621484Y-122490311D01*
X114646709Y-122508638D01*
X114864163Y-122619436D01*
X115096272Y-122694853D01*
X115337321Y-122733032D01*
X115337322Y-122733032D01*
X115581374Y-122733032D01*
X115581375Y-122733032D01*
X115822424Y-122694853D01*
X116054533Y-122619436D01*
X116271987Y-122508638D01*
X116469431Y-122365187D01*
X116642003Y-122192615D01*
X116785454Y-121995171D01*
X116896252Y-121777717D01*
X116971669Y-121545608D01*
X117009848Y-121304559D01*
X117009848Y-121060505D01*
X118988848Y-121060505D01*
X118988848Y-121304558D01*
X119023800Y-121525239D01*
X119027027Y-121545608D01*
X119102444Y-121777717D01*
X119176399Y-121922863D01*
X119213244Y-121995174D01*
X119356687Y-122192608D01*
X119356691Y-122192613D01*
X119529266Y-122365188D01*
X119529271Y-122365192D01*
X119701484Y-122490311D01*
X119726709Y-122508638D01*
X119944163Y-122619436D01*
X120176272Y-122694853D01*
X120417321Y-122733032D01*
X120417322Y-122733032D01*
X120661374Y-122733032D01*
X120661375Y-122733032D01*
X120902424Y-122694853D01*
X121134533Y-122619436D01*
X121351987Y-122508638D01*
X121549431Y-122365187D01*
X121722003Y-122192615D01*
X121865454Y-121995171D01*
X121976252Y-121777717D01*
X122051669Y-121545608D01*
X122089848Y-121304559D01*
X122089848Y-121060505D01*
X122051669Y-120819456D01*
X121976252Y-120587347D01*
X121865454Y-120369893D01*
X121847127Y-120344668D01*
X121722008Y-120172455D01*
X121722004Y-120172450D01*
X121549429Y-119999875D01*
X121549424Y-119999871D01*
X121351990Y-119856428D01*
X121351989Y-119856427D01*
X121351987Y-119856426D01*
X121134533Y-119745628D01*
X120902424Y-119670211D01*
X120902422Y-119670210D01*
X120902420Y-119670210D01*
X120734117Y-119643553D01*
X120661375Y-119632032D01*
X120417321Y-119632032D01*
X120361441Y-119640882D01*
X120176275Y-119670210D01*
X119944160Y-119745629D01*
X119726705Y-119856428D01*
X119529271Y-119999871D01*
X119529266Y-119999875D01*
X119356691Y-120172450D01*
X119356687Y-120172455D01*
X119213244Y-120369889D01*
X119102445Y-120587344D01*
X119027026Y-120819459D01*
X118988848Y-121060505D01*
X117009848Y-121060505D01*
X116971669Y-120819456D01*
X116896252Y-120587347D01*
X116785454Y-120369893D01*
X116767127Y-120344668D01*
X116642008Y-120172455D01*
X116642004Y-120172450D01*
X116469429Y-119999875D01*
X116469424Y-119999871D01*
X116271990Y-119856428D01*
X116271989Y-119856427D01*
X116271987Y-119856426D01*
X116054533Y-119745628D01*
X115822424Y-119670211D01*
X115822422Y-119670210D01*
X115822420Y-119670210D01*
X115654117Y-119643553D01*
X115581375Y-119632032D01*
X115337321Y-119632032D01*
X115281441Y-119640882D01*
X115096275Y-119670210D01*
X114864160Y-119745629D01*
X114646705Y-119856428D01*
X114449271Y-119999871D01*
X114449266Y-119999875D01*
X114276691Y-120172450D01*
X114276687Y-120172455D01*
X114133244Y-120369889D01*
X114022445Y-120587344D01*
X113947026Y-120819459D01*
X113908848Y-121060505D01*
X74000500Y-121060505D01*
X74000500Y-114061902D01*
X74329500Y-114061902D01*
X74329500Y-114298097D01*
X74366446Y-114531368D01*
X74439433Y-114755996D01*
X74546657Y-114966433D01*
X74685483Y-115157510D01*
X74852490Y-115324517D01*
X75043567Y-115463343D01*
X75043569Y-115463344D01*
X75055681Y-115469516D01*
X75106477Y-115517491D01*
X75123271Y-115585312D01*
X75100733Y-115651447D01*
X75055681Y-115690484D01*
X75043569Y-115696655D01*
X74948028Y-115766070D01*
X74852490Y-115835483D01*
X74852488Y-115835485D01*
X74852487Y-115835485D01*
X74685485Y-116002487D01*
X74685485Y-116002488D01*
X74685483Y-116002490D01*
X74627546Y-116082233D01*
X74546657Y-116193566D01*
X74439433Y-116404003D01*
X74366446Y-116628631D01*
X74329500Y-116861902D01*
X74329500Y-117098097D01*
X74366446Y-117331368D01*
X74439433Y-117555996D01*
X74511344Y-117697127D01*
X74546657Y-117766433D01*
X74685483Y-117957510D01*
X74852490Y-118124517D01*
X75043567Y-118263343D01*
X75122242Y-118303430D01*
X75254003Y-118370566D01*
X75254005Y-118370566D01*
X75254008Y-118370568D01*
X75374412Y-118409689D01*
X75478631Y-118443553D01*
X75711903Y-118480500D01*
X75711908Y-118480500D01*
X75948097Y-118480500D01*
X76181368Y-118443553D01*
X76405992Y-118370568D01*
X76616433Y-118263343D01*
X76807510Y-118124517D01*
X76974517Y-117957510D01*
X77113343Y-117766433D01*
X77220568Y-117555992D01*
X77293553Y-117331368D01*
X77298330Y-117301206D01*
X77330500Y-117098097D01*
X77330500Y-116861902D01*
X77293553Y-116628631D01*
X77220566Y-116404003D01*
X77164002Y-116292991D01*
X77113343Y-116193567D01*
X76974517Y-116002490D01*
X76807510Y-115835483D01*
X76711971Y-115766070D01*
X76616431Y-115696655D01*
X76604320Y-115690485D01*
X76553524Y-115642512D01*
X76536728Y-115574691D01*
X76559265Y-115508556D01*
X76604320Y-115469515D01*
X76616431Y-115463344D01*
X76616430Y-115463344D01*
X76616433Y-115463343D01*
X76807510Y-115324517D01*
X76974517Y-115157510D01*
X77113343Y-114966433D01*
X77220568Y-114755992D01*
X77293553Y-114531368D01*
X77297154Y-114508635D01*
X77330500Y-114298097D01*
X77330500Y-114061902D01*
X77293553Y-113828631D01*
X77220566Y-113604003D01*
X77113342Y-113393566D01*
X76974517Y-113202490D01*
X76807510Y-113035483D01*
X76616433Y-112896657D01*
X76477601Y-112825918D01*
X81980759Y-112825918D01*
X81980759Y-118825918D01*
X81980759Y-118931372D01*
X82008052Y-119033232D01*
X82060779Y-119124558D01*
X82135346Y-119199125D01*
X82226672Y-119251852D01*
X82328532Y-119279145D01*
X82328534Y-119279145D01*
X98433984Y-119279145D01*
X98433986Y-119279145D01*
X98535846Y-119251852D01*
X98627172Y-119199125D01*
X98701739Y-119124558D01*
X98754466Y-119033232D01*
X98781759Y-118931372D01*
X98781759Y-116001304D01*
X101286600Y-116001304D01*
X101286600Y-116178695D01*
X101321203Y-116352658D01*
X101321206Y-116352667D01*
X101389083Y-116516540D01*
X101389090Y-116516553D01*
X101487635Y-116664034D01*
X101487638Y-116664038D01*
X101613061Y-116789461D01*
X101613065Y-116789464D01*
X101760546Y-116888009D01*
X101760559Y-116888016D01*
X101880077Y-116937521D01*
X101924434Y-116955894D01*
X101924436Y-116955894D01*
X101924441Y-116955896D01*
X102098404Y-116990499D01*
X102098407Y-116990500D01*
X102098409Y-116990500D01*
X102275793Y-116990500D01*
X102275794Y-116990499D01*
X102333782Y-116978964D01*
X102449758Y-116955896D01*
X102449761Y-116955894D01*
X102449766Y-116955894D01*
X102613647Y-116888013D01*
X102761135Y-116789464D01*
X102886564Y-116664035D01*
X102985113Y-116516547D01*
X103052994Y-116352666D01*
X103056469Y-116335200D01*
X103087599Y-116178695D01*
X103087600Y-116178693D01*
X103087600Y-116001306D01*
X103087599Y-116001304D01*
X103055131Y-115838075D01*
X103055130Y-115838071D01*
X103052995Y-115827341D01*
X103052994Y-115827334D01*
X103049941Y-115819964D01*
X106550840Y-115819964D01*
X106550840Y-115997355D01*
X106585443Y-116171318D01*
X106585446Y-116171327D01*
X106653323Y-116335200D01*
X106653330Y-116335213D01*
X106751875Y-116482694D01*
X106751878Y-116482698D01*
X106877301Y-116608121D01*
X106877305Y-116608124D01*
X107024786Y-116706669D01*
X107024799Y-116706676D01*
X107147703Y-116757583D01*
X107188674Y-116774554D01*
X107188676Y-116774554D01*
X107188681Y-116774556D01*
X107362644Y-116809159D01*
X107362647Y-116809160D01*
X107362649Y-116809160D01*
X107540033Y-116809160D01*
X107540034Y-116809159D01*
X107598022Y-116797624D01*
X107713998Y-116774556D01*
X107714001Y-116774554D01*
X107714006Y-116774554D01*
X107877887Y-116706673D01*
X108025375Y-116608124D01*
X108150804Y-116482695D01*
X108249353Y-116335207D01*
X108290078Y-116236888D01*
X116405235Y-116236888D01*
X116405235Y-116394581D01*
X116435996Y-116549224D01*
X116435999Y-116549236D01*
X116496337Y-116694907D01*
X116496344Y-116694920D01*
X116583945Y-116826023D01*
X116583948Y-116826027D01*
X116695442Y-116937521D01*
X116695446Y-116937524D01*
X116826549Y-117025125D01*
X116826562Y-117025132D01*
X116972233Y-117085470D01*
X116972238Y-117085472D01*
X117126888Y-117116234D01*
X117126891Y-117116235D01*
X117126893Y-117116235D01*
X117284579Y-117116235D01*
X117284580Y-117116234D01*
X117439232Y-117085472D01*
X117584914Y-117025129D01*
X117716024Y-116937524D01*
X117827524Y-116826024D01*
X117915129Y-116694914D01*
X117975472Y-116549232D01*
X118006235Y-116394577D01*
X118006235Y-116236893D01*
X118006235Y-116236890D01*
X118006234Y-116236888D01*
X117995585Y-116183354D01*
X117975472Y-116082238D01*
X117942439Y-116002488D01*
X117915132Y-115936562D01*
X117915125Y-115936549D01*
X117827524Y-115805446D01*
X117827521Y-115805442D01*
X117716027Y-115693948D01*
X117716023Y-115693945D01*
X117584920Y-115606344D01*
X117584907Y-115606337D01*
X117439236Y-115545999D01*
X117439224Y-115545996D01*
X117284580Y-115515235D01*
X117284577Y-115515235D01*
X117126893Y-115515235D01*
X117126890Y-115515235D01*
X116972245Y-115545996D01*
X116972233Y-115545999D01*
X116826562Y-115606337D01*
X116826549Y-115606344D01*
X116695446Y-115693945D01*
X116695442Y-115693948D01*
X116583948Y-115805442D01*
X116583945Y-115805446D01*
X116496344Y-115936549D01*
X116496337Y-115936562D01*
X116435999Y-116082233D01*
X116435996Y-116082245D01*
X116405235Y-116236888D01*
X108290078Y-116236888D01*
X108317234Y-116171326D01*
X108334954Y-116082245D01*
X108351839Y-115997355D01*
X108351840Y-115997353D01*
X108351840Y-115819966D01*
X108351839Y-115819964D01*
X108317236Y-115646001D01*
X108317233Y-115645992D01*
X108249356Y-115482119D01*
X108249349Y-115482106D01*
X108150804Y-115334625D01*
X108150801Y-115334621D01*
X108025378Y-115209198D01*
X108025374Y-115209195D01*
X107877893Y-115110650D01*
X107877880Y-115110643D01*
X107714007Y-115042766D01*
X107713998Y-115042763D01*
X107540034Y-115008160D01*
X107540031Y-115008160D01*
X107362649Y-115008160D01*
X107362646Y-115008160D01*
X107188681Y-115042763D01*
X107188672Y-115042766D01*
X107024799Y-115110643D01*
X107024786Y-115110650D01*
X106877305Y-115209195D01*
X106877301Y-115209198D01*
X106751878Y-115334621D01*
X106751875Y-115334625D01*
X106653330Y-115482106D01*
X106653323Y-115482119D01*
X106585446Y-115645992D01*
X106585443Y-115646001D01*
X106550840Y-115819964D01*
X103049941Y-115819964D01*
X103036023Y-115786363D01*
X102985116Y-115663459D01*
X102985109Y-115663446D01*
X102886564Y-115515965D01*
X102886561Y-115515961D01*
X102761138Y-115390538D01*
X102761134Y-115390535D01*
X102613653Y-115291990D01*
X102613640Y-115291983D01*
X102449767Y-115224106D01*
X102449758Y-115224103D01*
X102275794Y-115189500D01*
X102275791Y-115189500D01*
X102098409Y-115189500D01*
X102098406Y-115189500D01*
X101924441Y-115224103D01*
X101924432Y-115224106D01*
X101760559Y-115291983D01*
X101760546Y-115291990D01*
X101613065Y-115390535D01*
X101613061Y-115390538D01*
X101487638Y-115515961D01*
X101487635Y-115515965D01*
X101389090Y-115663446D01*
X101389083Y-115663459D01*
X101321206Y-115827332D01*
X101321203Y-115827341D01*
X101286600Y-116001304D01*
X98781759Y-116001304D01*
X98781759Y-113060505D01*
X105909065Y-113060505D01*
X105909065Y-113304559D01*
X105947244Y-113545608D01*
X106022661Y-113777717D01*
X106048603Y-113828632D01*
X106133461Y-113995174D01*
X106276904Y-114192608D01*
X106276908Y-114192613D01*
X106449483Y-114365188D01*
X106449488Y-114365192D01*
X106621701Y-114490311D01*
X106646926Y-114508638D01*
X106864380Y-114619436D01*
X107096489Y-114694853D01*
X107337538Y-114733032D01*
X107337539Y-114733032D01*
X107581591Y-114733032D01*
X107581592Y-114733032D01*
X107822641Y-114694853D01*
X108054750Y-114619436D01*
X108272204Y-114508638D01*
X108469648Y-114365187D01*
X108642220Y-114192615D01*
X108785671Y-113995171D01*
X108896469Y-113777717D01*
X108971886Y-113545608D01*
X109010065Y-113304559D01*
X109010065Y-113060505D01*
X110989065Y-113060505D01*
X110989065Y-113304559D01*
X111027244Y-113545608D01*
X111102661Y-113777717D01*
X111128603Y-113828632D01*
X111213461Y-113995174D01*
X111356904Y-114192608D01*
X111356908Y-114192613D01*
X111529483Y-114365188D01*
X111529488Y-114365192D01*
X111701701Y-114490311D01*
X111726926Y-114508638D01*
X111944380Y-114619436D01*
X112176489Y-114694853D01*
X112417538Y-114733032D01*
X112417539Y-114733032D01*
X112661591Y-114733032D01*
X112661592Y-114733032D01*
X112902641Y-114694853D01*
X113134750Y-114619436D01*
X113352204Y-114508638D01*
X113549648Y-114365187D01*
X113722220Y-114192615D01*
X113865671Y-113995171D01*
X113976469Y-113777717D01*
X114051886Y-113545608D01*
X114090065Y-113304559D01*
X114090065Y-113060505D01*
X121908848Y-113060505D01*
X121908848Y-113304559D01*
X121947027Y-113545608D01*
X122022444Y-113777717D01*
X122048386Y-113828632D01*
X122133244Y-113995174D01*
X122276687Y-114192608D01*
X122276691Y-114192613D01*
X122449266Y-114365188D01*
X122449271Y-114365192D01*
X122621484Y-114490311D01*
X122646709Y-114508638D01*
X122864163Y-114619436D01*
X123096272Y-114694853D01*
X123337321Y-114733032D01*
X123337322Y-114733032D01*
X123581374Y-114733032D01*
X123581375Y-114733032D01*
X123822424Y-114694853D01*
X124054533Y-114619436D01*
X124271987Y-114508638D01*
X124469431Y-114365187D01*
X124642003Y-114192615D01*
X124785454Y-113995171D01*
X124896252Y-113777717D01*
X124971669Y-113545608D01*
X125009848Y-113304559D01*
X125009848Y-113060505D01*
X126988848Y-113060505D01*
X126988848Y-113304559D01*
X127027027Y-113545608D01*
X127102444Y-113777717D01*
X127128386Y-113828632D01*
X127213244Y-113995174D01*
X127356687Y-114192608D01*
X127356691Y-114192613D01*
X127529266Y-114365188D01*
X127529271Y-114365192D01*
X127701484Y-114490311D01*
X127726709Y-114508638D01*
X127944163Y-114619436D01*
X128176272Y-114694853D01*
X128417321Y-114733032D01*
X128417322Y-114733032D01*
X128661374Y-114733032D01*
X128661375Y-114733032D01*
X128902424Y-114694853D01*
X129134533Y-114619436D01*
X129351987Y-114508638D01*
X129549431Y-114365187D01*
X129722003Y-114192615D01*
X129865454Y-113995171D01*
X129976252Y-113777717D01*
X130051669Y-113545608D01*
X130089848Y-113304559D01*
X130089848Y-113060505D01*
X130051669Y-112819456D01*
X129976252Y-112587347D01*
X129865454Y-112369893D01*
X129847127Y-112344668D01*
X129722008Y-112172455D01*
X129722004Y-112172450D01*
X129549429Y-111999875D01*
X129549424Y-111999871D01*
X129351990Y-111856428D01*
X129351989Y-111856427D01*
X129351987Y-111856426D01*
X129134533Y-111745628D01*
X128902424Y-111670211D01*
X128902422Y-111670210D01*
X128902420Y-111670210D01*
X128734117Y-111643553D01*
X128661375Y-111632032D01*
X128417321Y-111632032D01*
X128361441Y-111640882D01*
X128176275Y-111670210D01*
X127944160Y-111745629D01*
X127726705Y-111856428D01*
X127529271Y-111999871D01*
X127529266Y-111999875D01*
X127356691Y-112172450D01*
X127356687Y-112172455D01*
X127213244Y-112369889D01*
X127102445Y-112587344D01*
X127027026Y-112819459D01*
X126992811Y-113035483D01*
X126988848Y-113060505D01*
X125009848Y-113060505D01*
X124971669Y-112819456D01*
X124896252Y-112587347D01*
X124785454Y-112369893D01*
X124767127Y-112344668D01*
X124642008Y-112172455D01*
X124642004Y-112172450D01*
X124469429Y-111999875D01*
X124469424Y-111999871D01*
X124271990Y-111856428D01*
X124271989Y-111856427D01*
X124271987Y-111856426D01*
X124054533Y-111745628D01*
X123822424Y-111670211D01*
X123822422Y-111670210D01*
X123822420Y-111670210D01*
X123654117Y-111643553D01*
X123581375Y-111632032D01*
X123337321Y-111632032D01*
X123281441Y-111640882D01*
X123096275Y-111670210D01*
X122864160Y-111745629D01*
X122646705Y-111856428D01*
X122449271Y-111999871D01*
X122449266Y-111999875D01*
X122276691Y-112172450D01*
X122276687Y-112172455D01*
X122133244Y-112369889D01*
X122022445Y-112587344D01*
X121947026Y-112819459D01*
X121912811Y-113035483D01*
X121908848Y-113060505D01*
X114090065Y-113060505D01*
X114051886Y-112819456D01*
X113976469Y-112587347D01*
X113865671Y-112369893D01*
X113847344Y-112344668D01*
X113722225Y-112172455D01*
X113722221Y-112172450D01*
X113549646Y-111999875D01*
X113549641Y-111999871D01*
X113352207Y-111856428D01*
X113352206Y-111856427D01*
X113352204Y-111856426D01*
X113134750Y-111745628D01*
X112902641Y-111670211D01*
X112902639Y-111670210D01*
X112902637Y-111670210D01*
X112734334Y-111643553D01*
X112661592Y-111632032D01*
X112417538Y-111632032D01*
X112361658Y-111640882D01*
X112176492Y-111670210D01*
X111944377Y-111745629D01*
X111726922Y-111856428D01*
X111529488Y-111999871D01*
X111529483Y-111999875D01*
X111356908Y-112172450D01*
X111356904Y-112172455D01*
X111213461Y-112369889D01*
X111102662Y-112587344D01*
X111027243Y-112819459D01*
X110993028Y-113035483D01*
X110989065Y-113060505D01*
X109010065Y-113060505D01*
X108971886Y-112819456D01*
X108896469Y-112587347D01*
X108785671Y-112369893D01*
X108767344Y-112344668D01*
X108642225Y-112172455D01*
X108642221Y-112172450D01*
X108469646Y-111999875D01*
X108469641Y-111999871D01*
X108272207Y-111856428D01*
X108272206Y-111856427D01*
X108272204Y-111856426D01*
X108054750Y-111745628D01*
X107822641Y-111670211D01*
X107822639Y-111670210D01*
X107822637Y-111670210D01*
X107654334Y-111643553D01*
X107581592Y-111632032D01*
X107337538Y-111632032D01*
X107281658Y-111640882D01*
X107096492Y-111670210D01*
X106864377Y-111745629D01*
X106646922Y-111856428D01*
X106449488Y-111999871D01*
X106449483Y-111999875D01*
X106276908Y-112172450D01*
X106276904Y-112172455D01*
X106133461Y-112369889D01*
X106022662Y-112587344D01*
X105947243Y-112819459D01*
X105913028Y-113035483D01*
X105909065Y-113060505D01*
X98781759Y-113060505D01*
X98781759Y-112825918D01*
X98754466Y-112724058D01*
X98701739Y-112632732D01*
X98627172Y-112558165D01*
X98535846Y-112505438D01*
X98433986Y-112478145D01*
X82433986Y-112478145D01*
X82328532Y-112478145D01*
X82226672Y-112505438D01*
X82226669Y-112505439D01*
X82135344Y-112558166D01*
X82060780Y-112632730D01*
X82008053Y-112724055D01*
X82008052Y-112724058D01*
X81980759Y-112825918D01*
X76477601Y-112825918D01*
X76405996Y-112789433D01*
X76181368Y-112716446D01*
X75948097Y-112679500D01*
X75948092Y-112679500D01*
X75711908Y-112679500D01*
X75711903Y-112679500D01*
X75478631Y-112716446D01*
X75254003Y-112789433D01*
X75043566Y-112896657D01*
X74934550Y-112975862D01*
X74852490Y-113035483D01*
X74852488Y-113035485D01*
X74852487Y-113035485D01*
X74685485Y-113202487D01*
X74685485Y-113202488D01*
X74685483Y-113202490D01*
X74629790Y-113279145D01*
X74546657Y-113393566D01*
X74439433Y-113604003D01*
X74366446Y-113828631D01*
X74329500Y-114061902D01*
X74000500Y-114061902D01*
X74000500Y-111181304D01*
X92339500Y-111181304D01*
X92339500Y-111358695D01*
X92374103Y-111532658D01*
X92374106Y-111532667D01*
X92441983Y-111696540D01*
X92441990Y-111696553D01*
X92540535Y-111844034D01*
X92540538Y-111844038D01*
X92665961Y-111969461D01*
X92665965Y-111969464D01*
X92813446Y-112068009D01*
X92813459Y-112068016D01*
X92936363Y-112118923D01*
X92977334Y-112135894D01*
X92977336Y-112135894D01*
X92977341Y-112135896D01*
X93151304Y-112170499D01*
X93151307Y-112170500D01*
X93151309Y-112170500D01*
X93328693Y-112170500D01*
X93328694Y-112170499D01*
X93386682Y-112158964D01*
X93502658Y-112135896D01*
X93502661Y-112135894D01*
X93502666Y-112135894D01*
X93666547Y-112068013D01*
X93814035Y-111969464D01*
X93939464Y-111844035D01*
X94038013Y-111696547D01*
X94105894Y-111532666D01*
X94140500Y-111358691D01*
X94140500Y-111181309D01*
X94140500Y-111181306D01*
X94140499Y-111181304D01*
X94105896Y-111007341D01*
X94105893Y-111007332D01*
X94038016Y-110843459D01*
X94038009Y-110843446D01*
X93939464Y-110695965D01*
X93939461Y-110695961D01*
X93814038Y-110570538D01*
X93814034Y-110570535D01*
X93666553Y-110471990D01*
X93666540Y-110471983D01*
X93502667Y-110404106D01*
X93502658Y-110404103D01*
X93328694Y-110369500D01*
X93328691Y-110369500D01*
X93151309Y-110369500D01*
X93151306Y-110369500D01*
X92977341Y-110404103D01*
X92977332Y-110404106D01*
X92813459Y-110471983D01*
X92813446Y-110471990D01*
X92665965Y-110570535D01*
X92665961Y-110570538D01*
X92540538Y-110695961D01*
X92540535Y-110695965D01*
X92441990Y-110843446D01*
X92441983Y-110843459D01*
X92374106Y-111007332D01*
X92374103Y-111007341D01*
X92339500Y-111181304D01*
X74000500Y-111181304D01*
X74000500Y-106891153D01*
X89199500Y-106891153D01*
X89199500Y-107048846D01*
X89230261Y-107203489D01*
X89230264Y-107203501D01*
X89290602Y-107349172D01*
X89290609Y-107349185D01*
X89378210Y-107480288D01*
X89378213Y-107480292D01*
X89489707Y-107591786D01*
X89489711Y-107591789D01*
X89620814Y-107679390D01*
X89620827Y-107679397D01*
X89766498Y-107739735D01*
X89766503Y-107739737D01*
X89921153Y-107770499D01*
X89921156Y-107770500D01*
X89921158Y-107770500D01*
X90078844Y-107770500D01*
X90078845Y-107770499D01*
X90233497Y-107739737D01*
X90379179Y-107679394D01*
X90510289Y-107591789D01*
X90621789Y-107480289D01*
X90709394Y-107349179D01*
X90769737Y-107203497D01*
X90800500Y-107048842D01*
X90800500Y-106893713D01*
X129649500Y-106893713D01*
X129649500Y-107106286D01*
X129671365Y-107244340D01*
X129682754Y-107316243D01*
X129693453Y-107349172D01*
X129748444Y-107518414D01*
X129844951Y-107707820D01*
X129969890Y-107879786D01*
X130120213Y-108030109D01*
X130292179Y-108155048D01*
X130292181Y-108155049D01*
X130292184Y-108155051D01*
X130481588Y-108251557D01*
X130683757Y-108317246D01*
X130893713Y-108350500D01*
X130893714Y-108350500D01*
X131106286Y-108350500D01*
X131106287Y-108350500D01*
X131316243Y-108317246D01*
X131518412Y-108251557D01*
X131707816Y-108155051D01*
X131729789Y-108139086D01*
X131879786Y-108030109D01*
X131879788Y-108030106D01*
X131879792Y-108030104D01*
X132030104Y-107879792D01*
X132030106Y-107879788D01*
X132030109Y-107879786D01*
X132155048Y-107707820D01*
X132155047Y-107707820D01*
X132155051Y-107707816D01*
X132251557Y-107518412D01*
X132317246Y-107316243D01*
X132350500Y-107106287D01*
X132350500Y-106893713D01*
X132317246Y-106683757D01*
X132251557Y-106481588D01*
X132155051Y-106292184D01*
X132155049Y-106292181D01*
X132155048Y-106292179D01*
X132030109Y-106120213D01*
X131879786Y-105969890D01*
X131707820Y-105844951D01*
X131518414Y-105748444D01*
X131518413Y-105748443D01*
X131518412Y-105748443D01*
X131316243Y-105682754D01*
X131316241Y-105682753D01*
X131316240Y-105682753D01*
X131154957Y-105657208D01*
X131106287Y-105649500D01*
X130893713Y-105649500D01*
X130845042Y-105657208D01*
X130683760Y-105682753D01*
X130481585Y-105748444D01*
X130292179Y-105844951D01*
X130120213Y-105969890D01*
X129969890Y-106120213D01*
X129844951Y-106292179D01*
X129748444Y-106481585D01*
X129682753Y-106683760D01*
X129649500Y-106893713D01*
X90800500Y-106893713D01*
X90800500Y-106891158D01*
X90800500Y-106891155D01*
X90800499Y-106891153D01*
X90769738Y-106736510D01*
X90769737Y-106736503D01*
X90752620Y-106695179D01*
X90709397Y-106590827D01*
X90709390Y-106590814D01*
X90621789Y-106459711D01*
X90621786Y-106459707D01*
X90510292Y-106348213D01*
X90510288Y-106348210D01*
X90379185Y-106260609D01*
X90379172Y-106260602D01*
X90233501Y-106200264D01*
X90233489Y-106200261D01*
X90078845Y-106169500D01*
X90078842Y-106169500D01*
X89921158Y-106169500D01*
X89921155Y-106169500D01*
X89766510Y-106200261D01*
X89766498Y-106200264D01*
X89620827Y-106260602D01*
X89620814Y-106260609D01*
X89489711Y-106348210D01*
X89489707Y-106348213D01*
X89378213Y-106459707D01*
X89378210Y-106459711D01*
X89290609Y-106590814D01*
X89290602Y-106590827D01*
X89230264Y-106736498D01*
X89230261Y-106736510D01*
X89199500Y-106891153D01*
X74000500Y-106891153D01*
X74000500Y-104353713D01*
X75809500Y-104353713D01*
X75809500Y-104566287D01*
X75842754Y-104776243D01*
X75905139Y-104968244D01*
X75908444Y-104978414D01*
X76004951Y-105167820D01*
X76129890Y-105339786D01*
X76280213Y-105490109D01*
X76452179Y-105615048D01*
X76452181Y-105615049D01*
X76452184Y-105615051D01*
X76641588Y-105711557D01*
X76843757Y-105777246D01*
X77053713Y-105810500D01*
X77053714Y-105810500D01*
X77266286Y-105810500D01*
X77266287Y-105810500D01*
X77476243Y-105777246D01*
X77678412Y-105711557D01*
X77867816Y-105615051D01*
X77962954Y-105545930D01*
X78039786Y-105490109D01*
X78039788Y-105490106D01*
X78039792Y-105490104D01*
X78190104Y-105339792D01*
X78190106Y-105339788D01*
X78190109Y-105339786D01*
X78315048Y-105167820D01*
X78315047Y-105167820D01*
X78315051Y-105167816D01*
X78411557Y-104978412D01*
X78477246Y-104776243D01*
X78510500Y-104566287D01*
X78510500Y-104353713D01*
X78477246Y-104143757D01*
X78411557Y-103941588D01*
X78315051Y-103752184D01*
X78315049Y-103752181D01*
X78315048Y-103752179D01*
X78190109Y-103580213D01*
X78039786Y-103429890D01*
X77867820Y-103304951D01*
X77678414Y-103208444D01*
X77678413Y-103208443D01*
X77678412Y-103208443D01*
X77476243Y-103142754D01*
X77476241Y-103142753D01*
X77476240Y-103142753D01*
X77314957Y-103117208D01*
X77266287Y-103109500D01*
X77053713Y-103109500D01*
X77005042Y-103117208D01*
X76843760Y-103142753D01*
X76641585Y-103208444D01*
X76452179Y-103304951D01*
X76280213Y-103429890D01*
X76129890Y-103580213D01*
X76004951Y-103752179D01*
X75908444Y-103941585D01*
X75842753Y-104143760D01*
X75838157Y-104172781D01*
X75809500Y-104353713D01*
X74000500Y-104353713D01*
X74000500Y-97524498D01*
X74020185Y-97457459D01*
X74072989Y-97411704D01*
X74124496Y-97400498D01*
X75817570Y-97400496D01*
X75884608Y-97420180D01*
X75930363Y-97472984D01*
X75940307Y-97542143D01*
X75911282Y-97605699D01*
X75873864Y-97634981D01*
X75713566Y-97716657D01*
X75630047Y-97777338D01*
X75522490Y-97855483D01*
X75522488Y-97855485D01*
X75522487Y-97855485D01*
X75355485Y-98022487D01*
X75355485Y-98022488D01*
X75355483Y-98022490D01*
X75340618Y-98042950D01*
X75216657Y-98213566D01*
X75109433Y-98424003D01*
X75036446Y-98648631D01*
X74999500Y-98881902D01*
X74999500Y-99118097D01*
X75036446Y-99351368D01*
X75109433Y-99575996D01*
X75201150Y-99755999D01*
X75216657Y-99786433D01*
X75355483Y-99977510D01*
X75522490Y-100144517D01*
X75713567Y-100283343D01*
X75812991Y-100334002D01*
X75924003Y-100390566D01*
X75924005Y-100390566D01*
X75924008Y-100390568D01*
X76003606Y-100416431D01*
X76148631Y-100463553D01*
X76381903Y-100500500D01*
X76381908Y-100500500D01*
X76618097Y-100500500D01*
X76851368Y-100463553D01*
X76902657Y-100446888D01*
X77075992Y-100390568D01*
X77286433Y-100283343D01*
X77477510Y-100144517D01*
X77644517Y-99977510D01*
X77689267Y-99915915D01*
X77693680Y-99911031D01*
X77718059Y-99896063D01*
X77740711Y-99878596D01*
X77748343Y-99877470D01*
X77753223Y-99874475D01*
X77766770Y-99874753D01*
X77772543Y-99873902D01*
X78517037Y-99129408D01*
X78534075Y-99192993D01*
X78599901Y-99307007D01*
X78692993Y-99400099D01*
X78807007Y-99465925D01*
X78870590Y-99482962D01*
X78130893Y-100222658D01*
X78213828Y-100282914D01*
X78424197Y-100390102D01*
X78648752Y-100463065D01*
X78648751Y-100463065D01*
X78881948Y-100500000D01*
X79118052Y-100500000D01*
X79351247Y-100463065D01*
X79575802Y-100390102D01*
X79786163Y-100282918D01*
X79786169Y-100282914D01*
X79869104Y-100222658D01*
X79869105Y-100222658D01*
X79129408Y-99482962D01*
X79192993Y-99465925D01*
X79307007Y-99400099D01*
X79400099Y-99307007D01*
X79465925Y-99192993D01*
X79482962Y-99129409D01*
X80229270Y-99875717D01*
X80272943Y-99884891D01*
X80314614Y-99921259D01*
X80355483Y-99977510D01*
X80522490Y-100144517D01*
X80713567Y-100283343D01*
X80812991Y-100334002D01*
X80924003Y-100390566D01*
X80924005Y-100390566D01*
X80924008Y-100390568D01*
X81003606Y-100416431D01*
X81148631Y-100463553D01*
X81381903Y-100500500D01*
X81381908Y-100500500D01*
X81618097Y-100500500D01*
X81851368Y-100463553D01*
X81902657Y-100446888D01*
X82075992Y-100390568D01*
X82286433Y-100283343D01*
X82477510Y-100144517D01*
X82644517Y-99977510D01*
X82783343Y-99786433D01*
X82890568Y-99575992D01*
X82963553Y-99351368D01*
X82975073Y-99278632D01*
X83000500Y-99118097D01*
X83000500Y-98881902D01*
X82963553Y-98648631D01*
X82910543Y-98485485D01*
X82890568Y-98424008D01*
X82890566Y-98424005D01*
X82890566Y-98424003D01*
X82783342Y-98213566D01*
X82749107Y-98166446D01*
X82644517Y-98022490D01*
X82477510Y-97855483D01*
X82286433Y-97716657D01*
X82126118Y-97634972D01*
X82075322Y-97586997D01*
X82058527Y-97519176D01*
X82081065Y-97453041D01*
X82135780Y-97409590D01*
X82182410Y-97400487D01*
X84568673Y-97400484D01*
X84635712Y-97420168D01*
X84681467Y-97472972D01*
X84692673Y-97524484D01*
X84692694Y-105052730D01*
X84692695Y-105052732D01*
X84719988Y-105154592D01*
X84719989Y-105154595D01*
X84727624Y-105167820D01*
X84750430Y-105207320D01*
X84772714Y-105245917D01*
X84772716Y-105245919D01*
X84847283Y-105320486D01*
X84880723Y-105339792D01*
X84938608Y-105373212D01*
X85040468Y-105400505D01*
X85040468Y-105400504D01*
X85040469Y-105400505D01*
X85040471Y-105400505D01*
X85056239Y-105404730D01*
X85059893Y-105405709D01*
X85072244Y-105400935D01*
X85082560Y-105400505D01*
X85197279Y-105400505D01*
X85197282Y-105400503D01*
X109939880Y-105400500D01*
X109993866Y-105400521D01*
X109993944Y-105400500D01*
X109994022Y-105400500D01*
X110035542Y-105389374D01*
X110044379Y-105387007D01*
X110044380Y-105387012D01*
X110044415Y-105386996D01*
X110095737Y-105373267D01*
X110095742Y-105373263D01*
X110095749Y-105373262D01*
X110095872Y-105373211D01*
X110095876Y-105373208D01*
X110095882Y-105373207D01*
X110141254Y-105347010D01*
X110141304Y-105346998D01*
X110141297Y-105346986D01*
X110154204Y-105339540D01*
X110187083Y-105320576D01*
X110187085Y-105320573D01*
X110187095Y-105320568D01*
X110187198Y-105320489D01*
X110187205Y-105320481D01*
X110187208Y-105320480D01*
X110224301Y-105283386D01*
X110339961Y-105167816D01*
X110447030Y-105060831D01*
X113908522Y-105060831D01*
X113908522Y-105304885D01*
X113946701Y-105545934D01*
X114012500Y-105748443D01*
X114022119Y-105778045D01*
X114132918Y-105995500D01*
X114276361Y-106192934D01*
X114276365Y-106192939D01*
X114448940Y-106365514D01*
X114448945Y-106365518D01*
X114578586Y-106459707D01*
X114646383Y-106508964D01*
X114863837Y-106619762D01*
X115095946Y-106695179D01*
X115336995Y-106733358D01*
X115336996Y-106733358D01*
X115581048Y-106733358D01*
X115581049Y-106733358D01*
X115822098Y-106695179D01*
X116054207Y-106619762D01*
X116271661Y-106508964D01*
X116469105Y-106365513D01*
X116641677Y-106192941D01*
X116785128Y-105995497D01*
X116895926Y-105778043D01*
X116971343Y-105545934D01*
X117009522Y-105304885D01*
X117009522Y-105060831D01*
X118988522Y-105060831D01*
X118988522Y-105304885D01*
X119026701Y-105545934D01*
X119092500Y-105748443D01*
X119102119Y-105778045D01*
X119212918Y-105995500D01*
X119356361Y-106192934D01*
X119356365Y-106192939D01*
X119528940Y-106365514D01*
X119528945Y-106365518D01*
X119658586Y-106459707D01*
X119726383Y-106508964D01*
X119943837Y-106619762D01*
X120175946Y-106695179D01*
X120416995Y-106733358D01*
X120416996Y-106733358D01*
X120661048Y-106733358D01*
X120661049Y-106733358D01*
X120902098Y-106695179D01*
X121134207Y-106619762D01*
X121351661Y-106508964D01*
X121549105Y-106365513D01*
X121721677Y-106192941D01*
X121865128Y-105995497D01*
X121975926Y-105778043D01*
X122051343Y-105545934D01*
X122089522Y-105304885D01*
X122089522Y-105060831D01*
X122051343Y-104819782D01*
X121975926Y-104587673D01*
X121865128Y-104370219D01*
X121846801Y-104344994D01*
X121721682Y-104172781D01*
X121721678Y-104172776D01*
X121549103Y-104000201D01*
X121549098Y-104000197D01*
X121351664Y-103856754D01*
X121351663Y-103856753D01*
X121351661Y-103856752D01*
X121134207Y-103745954D01*
X120902098Y-103670537D01*
X120902096Y-103670536D01*
X120902094Y-103670536D01*
X120733791Y-103643879D01*
X120661049Y-103632358D01*
X120416995Y-103632358D01*
X120361115Y-103641208D01*
X120175949Y-103670536D01*
X119943834Y-103745955D01*
X119726379Y-103856754D01*
X119528945Y-104000197D01*
X119528940Y-104000201D01*
X119356365Y-104172776D01*
X119356361Y-104172781D01*
X119212918Y-104370215D01*
X119102119Y-104587670D01*
X119026700Y-104819785D01*
X119001576Y-104978412D01*
X118988522Y-105060831D01*
X117009522Y-105060831D01*
X116971343Y-104819782D01*
X116895926Y-104587673D01*
X116785128Y-104370219D01*
X116766801Y-104344994D01*
X116641682Y-104172781D01*
X116641678Y-104172776D01*
X116469103Y-104000201D01*
X116469098Y-104000197D01*
X116271664Y-103856754D01*
X116271663Y-103856753D01*
X116271661Y-103856752D01*
X116054207Y-103745954D01*
X115822098Y-103670537D01*
X115822096Y-103670536D01*
X115822094Y-103670536D01*
X115653791Y-103643879D01*
X115581049Y-103632358D01*
X115336995Y-103632358D01*
X115281115Y-103641208D01*
X115095949Y-103670536D01*
X114863834Y-103745955D01*
X114646379Y-103856754D01*
X114448945Y-104000197D01*
X114448940Y-104000201D01*
X114276365Y-104172776D01*
X114276361Y-104172781D01*
X114132918Y-104370215D01*
X114022119Y-104587670D01*
X113946700Y-104819785D01*
X113921576Y-104978412D01*
X113908522Y-105060831D01*
X110447030Y-105060831D01*
X110539689Y-104968244D01*
X112204281Y-103304949D01*
X115064571Y-100446888D01*
X131135235Y-100446888D01*
X131135235Y-100604581D01*
X131165996Y-100759224D01*
X131165999Y-100759236D01*
X131226337Y-100904907D01*
X131226344Y-100904920D01*
X131313945Y-101036023D01*
X131313948Y-101036027D01*
X131425442Y-101147521D01*
X131425446Y-101147524D01*
X131556549Y-101235125D01*
X131556562Y-101235132D01*
X131684887Y-101288285D01*
X131702238Y-101295472D01*
X131856888Y-101326234D01*
X131856891Y-101326235D01*
X131856893Y-101326235D01*
X132014579Y-101326235D01*
X132014580Y-101326234D01*
X132169232Y-101295472D01*
X132314914Y-101235129D01*
X132446024Y-101147524D01*
X132557524Y-101036024D01*
X132645129Y-100904914D01*
X132705472Y-100759232D01*
X132736235Y-100604577D01*
X132736235Y-100446893D01*
X132736235Y-100446890D01*
X132736234Y-100446888D01*
X132724938Y-100390102D01*
X132705472Y-100292238D01*
X132679952Y-100230626D01*
X132645132Y-100146562D01*
X132645125Y-100146549D01*
X132557524Y-100015446D01*
X132557521Y-100015442D01*
X132446027Y-99903948D01*
X132446023Y-99903945D01*
X132314920Y-99816344D01*
X132314907Y-99816337D01*
X132169236Y-99755999D01*
X132169224Y-99755996D01*
X132014580Y-99725235D01*
X132014577Y-99725235D01*
X131856893Y-99725235D01*
X131856890Y-99725235D01*
X131702245Y-99755996D01*
X131702233Y-99755999D01*
X131556562Y-99816337D01*
X131556549Y-99816344D01*
X131425446Y-99903945D01*
X131425442Y-99903948D01*
X131313948Y-100015442D01*
X131313945Y-100015446D01*
X131226344Y-100146549D01*
X131226337Y-100146562D01*
X131165999Y-100292233D01*
X131165996Y-100292245D01*
X131135235Y-100446888D01*
X115064571Y-100446888D01*
X117395841Y-98117434D01*
X117395913Y-98117393D01*
X117434448Y-98078857D01*
X117470384Y-98042950D01*
X117470386Y-98042945D01*
X117470395Y-98042937D01*
X117470472Y-98042837D01*
X117470476Y-98042829D01*
X117470480Y-98042826D01*
X117496828Y-97997189D01*
X117523147Y-97951646D01*
X117523148Y-97951639D01*
X117523204Y-97951504D01*
X117523207Y-97951500D01*
X117528832Y-97930501D01*
X117536519Y-97901817D01*
X117536530Y-97901820D01*
X117536531Y-97901766D01*
X117550480Y-97849796D01*
X117550480Y-97849714D01*
X117550500Y-97849640D01*
X117550500Y-97798355D01*
X117550521Y-97744342D01*
X117550520Y-97744338D01*
X117550523Y-97736497D01*
X117550500Y-97736129D01*
X117550500Y-94671153D01*
X129265347Y-94671153D01*
X129265347Y-94828846D01*
X129296108Y-94983489D01*
X129296111Y-94983501D01*
X129356449Y-95129172D01*
X129356456Y-95129185D01*
X129444057Y-95260288D01*
X129444060Y-95260292D01*
X129555554Y-95371786D01*
X129555558Y-95371789D01*
X129686661Y-95459390D01*
X129686674Y-95459397D01*
X129832345Y-95519735D01*
X129832350Y-95519737D01*
X129987000Y-95550499D01*
X129987003Y-95550500D01*
X129987005Y-95550500D01*
X130144691Y-95550500D01*
X130144692Y-95550499D01*
X130299344Y-95519737D01*
X130445026Y-95459394D01*
X130576136Y-95371789D01*
X130687636Y-95260289D01*
X130775241Y-95129179D01*
X130835584Y-94983497D01*
X130866347Y-94828842D01*
X130866347Y-94671158D01*
X130866347Y-94671155D01*
X130866346Y-94671153D01*
X130835584Y-94516503D01*
X130807983Y-94449867D01*
X130775244Y-94370827D01*
X130775237Y-94370814D01*
X130687636Y-94239710D01*
X130576139Y-94128213D01*
X130576135Y-94128210D01*
X130445032Y-94040609D01*
X130445019Y-94040602D01*
X130299348Y-93980264D01*
X130299336Y-93980261D01*
X130144692Y-93949500D01*
X130144689Y-93949500D01*
X129987005Y-93949500D01*
X129987002Y-93949500D01*
X129832357Y-93980261D01*
X129832345Y-93980264D01*
X129686674Y-94040602D01*
X129686661Y-94040609D01*
X129555558Y-94128210D01*
X129555554Y-94128213D01*
X129444060Y-94239707D01*
X129444058Y-94239710D01*
X129356456Y-94370814D01*
X129356449Y-94370827D01*
X129296111Y-94516498D01*
X129296108Y-94516510D01*
X129265347Y-94671153D01*
X117550500Y-94671153D01*
X117550500Y-93117252D01*
X133295595Y-93117252D01*
X133295595Y-93274945D01*
X133326356Y-93429588D01*
X133326359Y-93429600D01*
X133386697Y-93575271D01*
X133386704Y-93575284D01*
X133474305Y-93706387D01*
X133474308Y-93706391D01*
X133585802Y-93817885D01*
X133585806Y-93817888D01*
X133716909Y-93905489D01*
X133716922Y-93905496D01*
X133823159Y-93949500D01*
X133862598Y-93965836D01*
X134011713Y-93995497D01*
X134017248Y-93996598D01*
X134017251Y-93996599D01*
X134017253Y-93996599D01*
X134174939Y-93996599D01*
X134174940Y-93996598D01*
X134329592Y-93965836D01*
X134475274Y-93905493D01*
X134492904Y-93893713D01*
X172649500Y-93893713D01*
X172649500Y-94106287D01*
X172654331Y-94136787D01*
X172669441Y-94232192D01*
X172682754Y-94316243D01*
X172745372Y-94508961D01*
X172748444Y-94518414D01*
X172844951Y-94707820D01*
X172969890Y-94879786D01*
X173120213Y-95030109D01*
X173292179Y-95155048D01*
X173292181Y-95155049D01*
X173292184Y-95155051D01*
X173481588Y-95251557D01*
X173683757Y-95317246D01*
X173893713Y-95350500D01*
X173893714Y-95350500D01*
X174106286Y-95350500D01*
X174106287Y-95350500D01*
X174316243Y-95317246D01*
X174518412Y-95251557D01*
X174707816Y-95155051D01*
X174743436Y-95129172D01*
X174879786Y-95030109D01*
X174879788Y-95030106D01*
X174879792Y-95030104D01*
X175030104Y-94879792D01*
X175030106Y-94879788D01*
X175030109Y-94879786D01*
X175155048Y-94707820D01*
X175155047Y-94707820D01*
X175155051Y-94707816D01*
X175251557Y-94518412D01*
X175317246Y-94316243D01*
X175350500Y-94106287D01*
X175350500Y-93893713D01*
X175317246Y-93683757D01*
X175251557Y-93481588D01*
X175155051Y-93292184D01*
X175139507Y-93270790D01*
X175036379Y-93128844D01*
X175036377Y-93128842D01*
X175030105Y-93120209D01*
X174970727Y-93060831D01*
X182491323Y-93060831D01*
X182491323Y-93304885D01*
X182497067Y-93341148D01*
X182523997Y-93511182D01*
X182529502Y-93545934D01*
X182604919Y-93778043D01*
X182709011Y-93982336D01*
X182715719Y-93995500D01*
X182859162Y-94192934D01*
X182859166Y-94192939D01*
X183031743Y-94365516D01*
X183147845Y-94449868D01*
X183229184Y-94508964D01*
X183446638Y-94619762D01*
X183678747Y-94695179D01*
X183919796Y-94733358D01*
X183919797Y-94733358D01*
X184163849Y-94733358D01*
X184163850Y-94733358D01*
X184404899Y-94695179D01*
X184637008Y-94619762D01*
X184854462Y-94508964D01*
X184955677Y-94435427D01*
X185051903Y-94365516D01*
X185051906Y-94365513D01*
X185101180Y-94316239D01*
X185224478Y-94192941D01*
X185367929Y-93995497D01*
X185478727Y-93778043D01*
X185554144Y-93545934D01*
X185592323Y-93304885D01*
X185592323Y-93128657D01*
X186172466Y-93128657D01*
X186172466Y-93236743D01*
X186200441Y-93341147D01*
X186200442Y-93341148D01*
X186200444Y-93341153D01*
X186254479Y-93434746D01*
X186254483Y-93434751D01*
X186254484Y-93434753D01*
X186330913Y-93511182D01*
X186330915Y-93511183D01*
X186330919Y-93511186D01*
X186424512Y-93565221D01*
X186424519Y-93565225D01*
X186528923Y-93593200D01*
X186528925Y-93593200D01*
X186637006Y-93593200D01*
X186637009Y-93593200D01*
X186741413Y-93565225D01*
X186835019Y-93511182D01*
X186911448Y-93434753D01*
X186965491Y-93341147D01*
X186993466Y-93236743D01*
X186993466Y-93128657D01*
X186975292Y-93060831D01*
X187571323Y-93060831D01*
X187571323Y-93304885D01*
X187577067Y-93341148D01*
X187603997Y-93511182D01*
X187609502Y-93545934D01*
X187684919Y-93778043D01*
X187789011Y-93982336D01*
X187795719Y-93995500D01*
X187939162Y-94192934D01*
X187939166Y-94192939D01*
X188111743Y-94365516D01*
X188227845Y-94449868D01*
X188309184Y-94508964D01*
X188526638Y-94619762D01*
X188758747Y-94695179D01*
X188999796Y-94733358D01*
X188999797Y-94733358D01*
X189243849Y-94733358D01*
X189243850Y-94733358D01*
X189484899Y-94695179D01*
X189717008Y-94619762D01*
X189934462Y-94508964D01*
X190035677Y-94435427D01*
X190131903Y-94365516D01*
X190131906Y-94365513D01*
X190181180Y-94316239D01*
X190304478Y-94192941D01*
X190447929Y-93995497D01*
X190558727Y-93778043D01*
X190634144Y-93545934D01*
X190672323Y-93304885D01*
X190672323Y-93060831D01*
X199461988Y-93060831D01*
X199461988Y-93304885D01*
X199467732Y-93341148D01*
X199494662Y-93511182D01*
X199500167Y-93545934D01*
X199575584Y-93778043D01*
X199679676Y-93982336D01*
X199686384Y-93995500D01*
X199829827Y-94192934D01*
X199829831Y-94192939D01*
X200002408Y-94365516D01*
X200118510Y-94449868D01*
X200199849Y-94508964D01*
X200417303Y-94619762D01*
X200649412Y-94695179D01*
X200890461Y-94733358D01*
X200890462Y-94733358D01*
X201134514Y-94733358D01*
X201134515Y-94733358D01*
X201375564Y-94695179D01*
X201607673Y-94619762D01*
X201825127Y-94508964D01*
X201926342Y-94435427D01*
X202022568Y-94365516D01*
X202022571Y-94365513D01*
X202071845Y-94316239D01*
X202195143Y-94192941D01*
X202338594Y-93995497D01*
X202449392Y-93778043D01*
X202524809Y-93545934D01*
X202562988Y-93304885D01*
X202562988Y-93060831D01*
X204541988Y-93060831D01*
X204541988Y-93304885D01*
X204547732Y-93341148D01*
X204574662Y-93511182D01*
X204580167Y-93545934D01*
X204655584Y-93778043D01*
X204759676Y-93982336D01*
X204766384Y-93995500D01*
X204909827Y-94192934D01*
X204909831Y-94192939D01*
X205082408Y-94365516D01*
X205198510Y-94449868D01*
X205279849Y-94508964D01*
X205497303Y-94619762D01*
X205729412Y-94695179D01*
X205970461Y-94733358D01*
X205970462Y-94733358D01*
X206214514Y-94733358D01*
X206214515Y-94733358D01*
X206455564Y-94695179D01*
X206687673Y-94619762D01*
X206905127Y-94508964D01*
X207006342Y-94435427D01*
X207102568Y-94365516D01*
X207102571Y-94365513D01*
X207151845Y-94316239D01*
X207275143Y-94192941D01*
X207418594Y-93995497D01*
X207529392Y-93778043D01*
X207604809Y-93545934D01*
X207642988Y-93304885D01*
X207642988Y-93060831D01*
X207604809Y-92819782D01*
X207529392Y-92587673D01*
X207418594Y-92370219D01*
X207308001Y-92218000D01*
X207275148Y-92172781D01*
X207275144Y-92172776D01*
X207102569Y-92000201D01*
X207102564Y-92000197D01*
X206905130Y-91856754D01*
X206905129Y-91856753D01*
X206905127Y-91856752D01*
X206687673Y-91745954D01*
X206455564Y-91670537D01*
X206455562Y-91670536D01*
X206455560Y-91670536D01*
X206285701Y-91643633D01*
X206214515Y-91632358D01*
X205970461Y-91632358D01*
X205914581Y-91641208D01*
X205729415Y-91670536D01*
X205497300Y-91745955D01*
X205279845Y-91856754D01*
X205082411Y-92000197D01*
X205082406Y-92000201D01*
X204909831Y-92172776D01*
X204909827Y-92172781D01*
X204766384Y-92370215D01*
X204655585Y-92587670D01*
X204580166Y-92819785D01*
X204562607Y-92930647D01*
X204541988Y-93060831D01*
X202562988Y-93060831D01*
X202524809Y-92819782D01*
X202449392Y-92587673D01*
X202338594Y-92370219D01*
X202228001Y-92218000D01*
X202195148Y-92172781D01*
X202195144Y-92172776D01*
X202022569Y-92000201D01*
X202022564Y-92000197D01*
X201825130Y-91856754D01*
X201825129Y-91856753D01*
X201825127Y-91856752D01*
X201607673Y-91745954D01*
X201375564Y-91670537D01*
X201375562Y-91670536D01*
X201375560Y-91670536D01*
X201205701Y-91643633D01*
X201134515Y-91632358D01*
X200890461Y-91632358D01*
X200834581Y-91641208D01*
X200649415Y-91670536D01*
X200417300Y-91745955D01*
X200199845Y-91856754D01*
X200002411Y-92000197D01*
X200002406Y-92000201D01*
X199829831Y-92172776D01*
X199829827Y-92172781D01*
X199686384Y-92370215D01*
X199575585Y-92587670D01*
X199500166Y-92819785D01*
X199482607Y-92930647D01*
X199461988Y-93060831D01*
X190672323Y-93060831D01*
X190634144Y-92819782D01*
X190558727Y-92587673D01*
X190447929Y-92370219D01*
X190337336Y-92218000D01*
X190304483Y-92172781D01*
X190304479Y-92172776D01*
X190131904Y-92000201D01*
X190131899Y-92000197D01*
X189934465Y-91856754D01*
X189934464Y-91856753D01*
X189934462Y-91856752D01*
X189717008Y-91745954D01*
X189484899Y-91670537D01*
X189484897Y-91670536D01*
X189484895Y-91670536D01*
X189315036Y-91643633D01*
X189243850Y-91632358D01*
X188999796Y-91632358D01*
X188943916Y-91641208D01*
X188758750Y-91670536D01*
X188526635Y-91745955D01*
X188309180Y-91856754D01*
X188111746Y-92000197D01*
X188111741Y-92000201D01*
X187939166Y-92172776D01*
X187939162Y-92172781D01*
X187795719Y-92370215D01*
X187684920Y-92587670D01*
X187609501Y-92819785D01*
X187591942Y-92930647D01*
X187571323Y-93060831D01*
X186975292Y-93060831D01*
X186965491Y-93024253D01*
X186965487Y-93024246D01*
X186911452Y-92930653D01*
X186911446Y-92930645D01*
X186835020Y-92854219D01*
X186835012Y-92854213D01*
X186741419Y-92800178D01*
X186741416Y-92800176D01*
X186741413Y-92800175D01*
X186637009Y-92772200D01*
X186528923Y-92772200D01*
X186424519Y-92800175D01*
X186424517Y-92800175D01*
X186424517Y-92800176D01*
X186424512Y-92800178D01*
X186330919Y-92854213D01*
X186330911Y-92854219D01*
X186254485Y-92930645D01*
X186254479Y-92930653D01*
X186200444Y-93024246D01*
X186200441Y-93024251D01*
X186200441Y-93024253D01*
X186172466Y-93128657D01*
X185592323Y-93128657D01*
X185592323Y-93060831D01*
X185554144Y-92819782D01*
X185478727Y-92587673D01*
X185367929Y-92370219D01*
X185257336Y-92218000D01*
X185224483Y-92172781D01*
X185224479Y-92172776D01*
X185051904Y-92000201D01*
X185051899Y-92000197D01*
X184854465Y-91856754D01*
X184854464Y-91856753D01*
X184854462Y-91856752D01*
X184637008Y-91745954D01*
X184404899Y-91670537D01*
X184404897Y-91670536D01*
X184404895Y-91670536D01*
X184235036Y-91643633D01*
X184163850Y-91632358D01*
X183919796Y-91632358D01*
X183863916Y-91641208D01*
X183678750Y-91670536D01*
X183446635Y-91745955D01*
X183229180Y-91856754D01*
X183031746Y-92000197D01*
X183031741Y-92000201D01*
X182859166Y-92172776D01*
X182859162Y-92172781D01*
X182715719Y-92370215D01*
X182604920Y-92587670D01*
X182529501Y-92819785D01*
X182511942Y-92930647D01*
X182491323Y-93060831D01*
X174970727Y-93060831D01*
X174879786Y-92969890D01*
X174707820Y-92844951D01*
X174518414Y-92748444D01*
X174518413Y-92748443D01*
X174518412Y-92748443D01*
X174316243Y-92682754D01*
X174316241Y-92682753D01*
X174316240Y-92682753D01*
X174144131Y-92655494D01*
X174106287Y-92649500D01*
X173893713Y-92649500D01*
X173855869Y-92655494D01*
X173683760Y-92682753D01*
X173481585Y-92748444D01*
X173292179Y-92844951D01*
X173120213Y-92969890D01*
X172969890Y-93120213D01*
X172844951Y-93292179D01*
X172748444Y-93481585D01*
X172682753Y-93683760D01*
X172649500Y-93893713D01*
X134492904Y-93893713D01*
X134606384Y-93817888D01*
X134717884Y-93706388D01*
X134805489Y-93575278D01*
X134865832Y-93429596D01*
X134896595Y-93274941D01*
X134896595Y-93117257D01*
X134896595Y-93117254D01*
X134896594Y-93117252D01*
X134867283Y-92969896D01*
X134865832Y-92962602D01*
X134865830Y-92962597D01*
X134805492Y-92816926D01*
X134805485Y-92816913D01*
X134739592Y-92718298D01*
X134739591Y-92718296D01*
X134717887Y-92685814D01*
X134717881Y-92685806D01*
X134687569Y-92655494D01*
X148079500Y-92655494D01*
X148079500Y-92813187D01*
X148110261Y-92967830D01*
X148110264Y-92967842D01*
X148170602Y-93113513D01*
X148170609Y-93113526D01*
X148258210Y-93244629D01*
X148258213Y-93244633D01*
X148369707Y-93356127D01*
X148369711Y-93356130D01*
X148500814Y-93443731D01*
X148500827Y-93443738D01*
X148646498Y-93504076D01*
X148646503Y-93504078D01*
X148801153Y-93534840D01*
X148801156Y-93534841D01*
X148801158Y-93534841D01*
X148958844Y-93534841D01*
X148958845Y-93534840D01*
X149113497Y-93504078D01*
X149259179Y-93443735D01*
X149390289Y-93356130D01*
X149501789Y-93244630D01*
X149589394Y-93113520D01*
X149649737Y-92967838D01*
X149680500Y-92813183D01*
X149680500Y-92655499D01*
X149680500Y-92655496D01*
X149680499Y-92655494D01*
X149649738Y-92500851D01*
X149649737Y-92500844D01*
X149643882Y-92486708D01*
X149589397Y-92355168D01*
X149589390Y-92355155D01*
X149501789Y-92224052D01*
X149501786Y-92224048D01*
X149390292Y-92112554D01*
X149390288Y-92112551D01*
X149259185Y-92024950D01*
X149259172Y-92024943D01*
X149113501Y-91964605D01*
X149113489Y-91964602D01*
X148958845Y-91933841D01*
X148958842Y-91933841D01*
X148801158Y-91933841D01*
X148801155Y-91933841D01*
X148646510Y-91964602D01*
X148646498Y-91964605D01*
X148500827Y-92024943D01*
X148500814Y-92024950D01*
X148369711Y-92112551D01*
X148369707Y-92112554D01*
X148258213Y-92224048D01*
X148258210Y-92224052D01*
X148170609Y-92355155D01*
X148170602Y-92355168D01*
X148110264Y-92500839D01*
X148110261Y-92500851D01*
X148079500Y-92655494D01*
X134687569Y-92655494D01*
X134606387Y-92574312D01*
X134606383Y-92574309D01*
X134475280Y-92486708D01*
X134475267Y-92486701D01*
X134329596Y-92426363D01*
X134329584Y-92426360D01*
X134174940Y-92395599D01*
X134174937Y-92395599D01*
X134017253Y-92395599D01*
X134017250Y-92395599D01*
X133862605Y-92426360D01*
X133862593Y-92426363D01*
X133716922Y-92486701D01*
X133716909Y-92486708D01*
X133585806Y-92574309D01*
X133585802Y-92574312D01*
X133474308Y-92685806D01*
X133474305Y-92685810D01*
X133386704Y-92816913D01*
X133386697Y-92816926D01*
X133326359Y-92962597D01*
X133326356Y-92962609D01*
X133295595Y-93117252D01*
X117550500Y-93117252D01*
X117550500Y-90400125D01*
X117561944Y-90361153D01*
X129009500Y-90361153D01*
X129009500Y-90518846D01*
X129040261Y-90673489D01*
X129040264Y-90673501D01*
X129100602Y-90819172D01*
X129100609Y-90819185D01*
X129188210Y-90950288D01*
X129188213Y-90950292D01*
X129299707Y-91061786D01*
X129299711Y-91061789D01*
X129430814Y-91149390D01*
X129430827Y-91149397D01*
X129542064Y-91195472D01*
X129576503Y-91209737D01*
X129731153Y-91240499D01*
X129731156Y-91240500D01*
X129731158Y-91240500D01*
X129888844Y-91240500D01*
X129888845Y-91240499D01*
X130043497Y-91209737D01*
X130189179Y-91149394D01*
X130320289Y-91061789D01*
X130431789Y-90950289D01*
X130464620Y-90901153D01*
X133029500Y-90901153D01*
X133029500Y-91058846D01*
X133060261Y-91213489D01*
X133060264Y-91213501D01*
X133120602Y-91359172D01*
X133120609Y-91359185D01*
X133208210Y-91490288D01*
X133208213Y-91490292D01*
X133319707Y-91601786D01*
X133319711Y-91601789D01*
X133450814Y-91689390D01*
X133450827Y-91689397D01*
X133587370Y-91745954D01*
X133596503Y-91749737D01*
X133751153Y-91780499D01*
X133751156Y-91780500D01*
X133751158Y-91780500D01*
X133908844Y-91780500D01*
X133908845Y-91780499D01*
X134063497Y-91749737D01*
X134209179Y-91689394D01*
X134340289Y-91601789D01*
X134347244Y-91594833D01*
X134408564Y-91561347D01*
X134478255Y-91566328D01*
X134507812Y-91582194D01*
X134681585Y-91708447D01*
X134899039Y-91819245D01*
X135131148Y-91894662D01*
X135372197Y-91932841D01*
X135372198Y-91932841D01*
X135616250Y-91932841D01*
X135616251Y-91932841D01*
X135857300Y-91894662D01*
X136089409Y-91819245D01*
X136306863Y-91708447D01*
X136504307Y-91564996D01*
X136676879Y-91392424D01*
X136714861Y-91340145D01*
X136770191Y-91297479D01*
X136839804Y-91291499D01*
X136901599Y-91324105D01*
X136929741Y-91365578D01*
X136990602Y-91512513D01*
X136990609Y-91512526D01*
X137078210Y-91643629D01*
X137078213Y-91643633D01*
X137189707Y-91755127D01*
X137189711Y-91755130D01*
X137320814Y-91842731D01*
X137320827Y-91842738D01*
X137446185Y-91894662D01*
X137466503Y-91903078D01*
X137590728Y-91927788D01*
X137621153Y-91933840D01*
X137621156Y-91933841D01*
X137621158Y-91933841D01*
X137778844Y-91933841D01*
X137778845Y-91933840D01*
X137933497Y-91903078D01*
X138079179Y-91842735D01*
X138210289Y-91755130D01*
X138321789Y-91643630D01*
X138409394Y-91512520D01*
X138469737Y-91366838D01*
X138500500Y-91212183D01*
X138500500Y-91054499D01*
X138500500Y-91054496D01*
X138500499Y-91054494D01*
X138495638Y-91030058D01*
X138469737Y-90899844D01*
X138439223Y-90826175D01*
X138409397Y-90754168D01*
X138409390Y-90754155D01*
X138321789Y-90623052D01*
X138321786Y-90623048D01*
X138210292Y-90511554D01*
X138210288Y-90511551D01*
X138079185Y-90423950D01*
X138079172Y-90423943D01*
X137948946Y-90370003D01*
X137933497Y-90363604D01*
X137933489Y-90363602D01*
X137778845Y-90332841D01*
X137778842Y-90332841D01*
X137621158Y-90332841D01*
X137621155Y-90332841D01*
X137466510Y-90363602D01*
X137466498Y-90363605D01*
X137320827Y-90423943D01*
X137320814Y-90423950D01*
X137237615Y-90479543D01*
X137170937Y-90500421D01*
X137103557Y-90481937D01*
X137056867Y-90429958D01*
X137044724Y-90376441D01*
X137044724Y-90260314D01*
X139023724Y-90260314D01*
X139023724Y-90504368D01*
X139026017Y-90518844D01*
X139050510Y-90673489D01*
X139061903Y-90745417D01*
X139137320Y-90977526D01*
X139242522Y-91183998D01*
X139248120Y-91194983D01*
X139391563Y-91392417D01*
X139391567Y-91392422D01*
X139564142Y-91564997D01*
X139564147Y-91565001D01*
X139682517Y-91651001D01*
X139761585Y-91708447D01*
X139979039Y-91819245D01*
X140211148Y-91894662D01*
X140452197Y-91932841D01*
X140452198Y-91932841D01*
X140696250Y-91932841D01*
X140696251Y-91932841D01*
X140937300Y-91894662D01*
X141169409Y-91819245D01*
X141386863Y-91708447D01*
X141584307Y-91564996D01*
X141756879Y-91392424D01*
X141900330Y-91194980D01*
X142011128Y-90977526D01*
X142086545Y-90745417D01*
X142124724Y-90504368D01*
X142124724Y-90260803D01*
X153943236Y-90260803D01*
X153943236Y-90504857D01*
X153950290Y-90549394D01*
X153981337Y-90745417D01*
X153981415Y-90745906D01*
X154056832Y-90978015D01*
X154167382Y-91194983D01*
X154167632Y-91195472D01*
X154311075Y-91392906D01*
X154311079Y-91392911D01*
X154483654Y-91565486D01*
X154483659Y-91565490D01*
X154601356Y-91651001D01*
X154681097Y-91708936D01*
X154898551Y-91819734D01*
X155130660Y-91895151D01*
X155371709Y-91933330D01*
X155371710Y-91933330D01*
X155615762Y-91933330D01*
X155615763Y-91933330D01*
X155856812Y-91895151D01*
X156088921Y-91819734D01*
X156306375Y-91708936D01*
X156503819Y-91565485D01*
X156676391Y-91392913D01*
X156819842Y-91195469D01*
X156930640Y-90978015D01*
X157006057Y-90745906D01*
X157044236Y-90504857D01*
X157044236Y-90260803D01*
X159023236Y-90260803D01*
X159023236Y-90504857D01*
X159030290Y-90549394D01*
X159061337Y-90745417D01*
X159061415Y-90745906D01*
X159136832Y-90978015D01*
X159247382Y-91194983D01*
X159247632Y-91195472D01*
X159391075Y-91392906D01*
X159391079Y-91392911D01*
X159563654Y-91565486D01*
X159563659Y-91565490D01*
X159681356Y-91651001D01*
X159761097Y-91708936D01*
X159978551Y-91819734D01*
X160210660Y-91895151D01*
X160451709Y-91933330D01*
X160451710Y-91933330D01*
X160695762Y-91933330D01*
X160695763Y-91933330D01*
X160936812Y-91895151D01*
X161168921Y-91819734D01*
X161386375Y-91708936D01*
X161583819Y-91565485D01*
X161756391Y-91392913D01*
X161780905Y-91359172D01*
X161795813Y-91338653D01*
X195757000Y-91338653D01*
X195757000Y-91496346D01*
X195787761Y-91650989D01*
X195787764Y-91651001D01*
X195848102Y-91796672D01*
X195848109Y-91796685D01*
X195935710Y-91927788D01*
X195935713Y-91927792D01*
X196047207Y-92039286D01*
X196047211Y-92039289D01*
X196178314Y-92126890D01*
X196178327Y-92126897D01*
X196323998Y-92187235D01*
X196324003Y-92187237D01*
X196478653Y-92217999D01*
X196478656Y-92218000D01*
X196478658Y-92218000D01*
X196636344Y-92218000D01*
X196636345Y-92217999D01*
X196790997Y-92187237D01*
X196936679Y-92126894D01*
X197067789Y-92039289D01*
X197179289Y-91927789D01*
X197266894Y-91796679D01*
X197327237Y-91650997D01*
X197358000Y-91496342D01*
X197358000Y-91338658D01*
X197358000Y-91338655D01*
X197357999Y-91338653D01*
X197338475Y-91240499D01*
X197327237Y-91184003D01*
X197276615Y-91061789D01*
X197266897Y-91038327D01*
X197266890Y-91038314D01*
X197179289Y-90907211D01*
X197179286Y-90907207D01*
X197067792Y-90795713D01*
X197067788Y-90795710D01*
X196936685Y-90708109D01*
X196936672Y-90708102D01*
X196791001Y-90647764D01*
X196790989Y-90647761D01*
X196636345Y-90617000D01*
X196636342Y-90617000D01*
X196478658Y-90617000D01*
X196478655Y-90617000D01*
X196324010Y-90647761D01*
X196323998Y-90647764D01*
X196178327Y-90708102D01*
X196178314Y-90708109D01*
X196047211Y-90795710D01*
X196047207Y-90795713D01*
X195935713Y-90907207D01*
X195935710Y-90907211D01*
X195848109Y-91038314D01*
X195848102Y-91038327D01*
X195787764Y-91183998D01*
X195787761Y-91184010D01*
X195757000Y-91338653D01*
X161795813Y-91338653D01*
X161853190Y-91259681D01*
X161886744Y-91213497D01*
X161899842Y-91195469D01*
X162010640Y-90978015D01*
X162086057Y-90745906D01*
X162124236Y-90504857D01*
X162124236Y-90260803D01*
X162086057Y-90019754D01*
X162010640Y-89787645D01*
X161899842Y-89570191D01*
X161820385Y-89460827D01*
X161756396Y-89372753D01*
X161756392Y-89372748D01*
X161583817Y-89200173D01*
X161583812Y-89200169D01*
X161386378Y-89056726D01*
X161386377Y-89056725D01*
X161386375Y-89056724D01*
X161168921Y-88945926D01*
X160936812Y-88870509D01*
X160936810Y-88870508D01*
X160936808Y-88870508D01*
X160768505Y-88843851D01*
X160695763Y-88832330D01*
X160451709Y-88832330D01*
X160395829Y-88841180D01*
X160210663Y-88870508D01*
X159978548Y-88945927D01*
X159761093Y-89056726D01*
X159563659Y-89200169D01*
X159563654Y-89200173D01*
X159391079Y-89372748D01*
X159391075Y-89372753D01*
X159247632Y-89570187D01*
X159136833Y-89787642D01*
X159061414Y-90019757D01*
X159023313Y-90260314D01*
X159023236Y-90260803D01*
X157044236Y-90260803D01*
X157006057Y-90019754D01*
X156930640Y-89787645D01*
X156819842Y-89570191D01*
X156740385Y-89460827D01*
X156676396Y-89372753D01*
X156676392Y-89372748D01*
X156503817Y-89200173D01*
X156503812Y-89200169D01*
X156306378Y-89056726D01*
X156306377Y-89056725D01*
X156306375Y-89056724D01*
X156088921Y-88945926D01*
X155856812Y-88870509D01*
X155856810Y-88870508D01*
X155856808Y-88870508D01*
X155688505Y-88843851D01*
X155615763Y-88832330D01*
X155371709Y-88832330D01*
X155315829Y-88841180D01*
X155130663Y-88870508D01*
X154898548Y-88945927D01*
X154681093Y-89056726D01*
X154483659Y-89200169D01*
X154483654Y-89200173D01*
X154311079Y-89372748D01*
X154311075Y-89372753D01*
X154167632Y-89570187D01*
X154056833Y-89787642D01*
X153981414Y-90019757D01*
X153943313Y-90260314D01*
X153943236Y-90260803D01*
X142124724Y-90260803D01*
X142124724Y-90260314D01*
X142086545Y-90019265D01*
X142011128Y-89787156D01*
X141900330Y-89569702D01*
X141882003Y-89544477D01*
X141756884Y-89372264D01*
X141756880Y-89372259D01*
X141584305Y-89199684D01*
X141584300Y-89199680D01*
X141386866Y-89056237D01*
X141386865Y-89056236D01*
X141386863Y-89056235D01*
X141169409Y-88945437D01*
X140937300Y-88870020D01*
X140937298Y-88870019D01*
X140937296Y-88870019D01*
X140768993Y-88843362D01*
X140696251Y-88831841D01*
X140452197Y-88831841D01*
X140396317Y-88840691D01*
X140211151Y-88870019D01*
X139979036Y-88945438D01*
X139761581Y-89056237D01*
X139564147Y-89199680D01*
X139564142Y-89199684D01*
X139391567Y-89372259D01*
X139391563Y-89372264D01*
X139248120Y-89569698D01*
X139137321Y-89787153D01*
X139061902Y-90019268D01*
X139037242Y-90174964D01*
X139023724Y-90260314D01*
X137044724Y-90260314D01*
X137038860Y-90223290D01*
X137006545Y-90019265D01*
X136931128Y-89787156D01*
X136820330Y-89569702D01*
X136802003Y-89544477D01*
X136676884Y-89372264D01*
X136676880Y-89372259D01*
X136504305Y-89199684D01*
X136504300Y-89199680D01*
X136306866Y-89056237D01*
X136306865Y-89056236D01*
X136306863Y-89056235D01*
X136089409Y-88945437D01*
X135857300Y-88870020D01*
X135857298Y-88870019D01*
X135857296Y-88870019D01*
X135688993Y-88843362D01*
X135616251Y-88831841D01*
X135372197Y-88831841D01*
X135316317Y-88840691D01*
X135131151Y-88870019D01*
X134899036Y-88945438D01*
X134681581Y-89056237D01*
X134484147Y-89199680D01*
X134484142Y-89199684D01*
X134311567Y-89372259D01*
X134311563Y-89372264D01*
X134168120Y-89569698D01*
X134057321Y-89787153D01*
X133981902Y-90019267D01*
X133973091Y-90074899D01*
X133943161Y-90138033D01*
X133883849Y-90174964D01*
X133850618Y-90179500D01*
X133751155Y-90179500D01*
X133596510Y-90210261D01*
X133596498Y-90210264D01*
X133450827Y-90270602D01*
X133450814Y-90270609D01*
X133319711Y-90358210D01*
X133319707Y-90358213D01*
X133208213Y-90469707D01*
X133208210Y-90469711D01*
X133120609Y-90600814D01*
X133120602Y-90600827D01*
X133060264Y-90746498D01*
X133060261Y-90746510D01*
X133029500Y-90901153D01*
X130464620Y-90901153D01*
X130476076Y-90884007D01*
X130514720Y-90826175D01*
X130516911Y-90822893D01*
X130519394Y-90819179D01*
X130579737Y-90673497D01*
X130610500Y-90518842D01*
X130610500Y-90361158D01*
X130610500Y-90361155D01*
X130610499Y-90361153D01*
X130595815Y-90287331D01*
X130579737Y-90206503D01*
X130579735Y-90206498D01*
X130519397Y-90060827D01*
X130519390Y-90060814D01*
X130431789Y-89929711D01*
X130431786Y-89929707D01*
X130320292Y-89818213D01*
X130320288Y-89818210D01*
X130189185Y-89730609D01*
X130189172Y-89730602D01*
X130043501Y-89670264D01*
X130043489Y-89670261D01*
X129888845Y-89639500D01*
X129888842Y-89639500D01*
X129731158Y-89639500D01*
X129731155Y-89639500D01*
X129576510Y-89670261D01*
X129576498Y-89670264D01*
X129430827Y-89730602D01*
X129430814Y-89730609D01*
X129299711Y-89818210D01*
X129299707Y-89818213D01*
X129188213Y-89929707D01*
X129188210Y-89929711D01*
X129100609Y-90060814D01*
X129100602Y-90060827D01*
X129040264Y-90206498D01*
X129040261Y-90206510D01*
X129009500Y-90361153D01*
X117561944Y-90361153D01*
X117570185Y-90333086D01*
X117622989Y-90287331D01*
X117674500Y-90276125D01*
X126303175Y-90276125D01*
X126308920Y-90277487D01*
X126355822Y-90276125D01*
X126402727Y-90276125D01*
X126402728Y-90276124D01*
X126408530Y-90275360D01*
X126414317Y-90274426D01*
X126414329Y-90274426D01*
X126457577Y-90261480D01*
X126460917Y-90260532D01*
X126504587Y-90248832D01*
X126504593Y-90248828D01*
X126509993Y-90246591D01*
X126515343Y-90244190D01*
X126515355Y-90244187D01*
X126553764Y-90220497D01*
X126556761Y-90218708D01*
X126595913Y-90196105D01*
X126595925Y-90196092D01*
X126600559Y-90192537D01*
X126605100Y-90188838D01*
X126605111Y-90188832D01*
X126636092Y-90155996D01*
X126638533Y-90153483D01*
X126670480Y-90121538D01*
X126670484Y-90121530D01*
X126674777Y-90115935D01*
X126682965Y-90106318D01*
X127987307Y-88723963D01*
X128020480Y-88690791D01*
X128023431Y-88685678D01*
X128027483Y-88681385D01*
X128049755Y-88640084D01*
X128073207Y-88599465D01*
X128074734Y-88593765D01*
X128077537Y-88588568D01*
X128088361Y-88542906D01*
X128100500Y-88497605D01*
X128100500Y-88491703D01*
X128101862Y-88485958D01*
X128100552Y-88440845D01*
X128100500Y-88437246D01*
X128100500Y-88181153D01*
X148429500Y-88181153D01*
X148429500Y-88338846D01*
X148460261Y-88493489D01*
X148460264Y-88493501D01*
X148520602Y-88639172D01*
X148520609Y-88639185D01*
X148608210Y-88770288D01*
X148608213Y-88770292D01*
X148719707Y-88881786D01*
X148719711Y-88881789D01*
X148850814Y-88969390D01*
X148850827Y-88969397D01*
X148996498Y-89029735D01*
X148996503Y-89029737D01*
X149129717Y-89056235D01*
X149151153Y-89060499D01*
X149151156Y-89060500D01*
X149151158Y-89060500D01*
X149308844Y-89060500D01*
X149308845Y-89060499D01*
X149463497Y-89029737D01*
X149609179Y-88969394D01*
X149740289Y-88881789D01*
X149851789Y-88770289D01*
X149939394Y-88639179D01*
X149999737Y-88493497D01*
X150030500Y-88338842D01*
X150030500Y-88181158D01*
X150030500Y-88181155D01*
X150030499Y-88181153D01*
X149999738Y-88026510D01*
X149999737Y-88026503D01*
X149972911Y-87961738D01*
X149939397Y-87880827D01*
X149939390Y-87880814D01*
X149851789Y-87749711D01*
X149851786Y-87749707D01*
X149740292Y-87638213D01*
X149740288Y-87638210D01*
X149609185Y-87550609D01*
X149609172Y-87550602D01*
X149463501Y-87490264D01*
X149463489Y-87490261D01*
X149308845Y-87459500D01*
X149308842Y-87459500D01*
X149151158Y-87459500D01*
X149151155Y-87459500D01*
X148996510Y-87490261D01*
X148996498Y-87490264D01*
X148850827Y-87550602D01*
X148850814Y-87550609D01*
X148719711Y-87638210D01*
X148719707Y-87638213D01*
X148608213Y-87749707D01*
X148608210Y-87749711D01*
X148520609Y-87880814D01*
X148520602Y-87880827D01*
X148460264Y-88026498D01*
X148460261Y-88026510D01*
X148429500Y-88181153D01*
X128100500Y-88181153D01*
X128100500Y-86667388D01*
X129314735Y-86667388D01*
X129314735Y-86825081D01*
X129345496Y-86979724D01*
X129345499Y-86979736D01*
X129405837Y-87125407D01*
X129405844Y-87125420D01*
X129493445Y-87256523D01*
X129493448Y-87256527D01*
X129604942Y-87368021D01*
X129604946Y-87368024D01*
X129736049Y-87455625D01*
X129736062Y-87455632D01*
X129881733Y-87515970D01*
X129881738Y-87515972D01*
X130036388Y-87546734D01*
X130036391Y-87546735D01*
X130036393Y-87546735D01*
X130194079Y-87546735D01*
X130194080Y-87546734D01*
X130348732Y-87515972D01*
X130494414Y-87455629D01*
X130625524Y-87368024D01*
X130737024Y-87256524D01*
X130824629Y-87125414D01*
X130829708Y-87113153D01*
X137119500Y-87113153D01*
X137119500Y-87270846D01*
X137150261Y-87425489D01*
X137150264Y-87425501D01*
X137210602Y-87571172D01*
X137210609Y-87571185D01*
X137298210Y-87702288D01*
X137298213Y-87702292D01*
X137409707Y-87813786D01*
X137409711Y-87813789D01*
X137540814Y-87901390D01*
X137540827Y-87901397D01*
X137686498Y-87961735D01*
X137686503Y-87961737D01*
X137841153Y-87992499D01*
X137841156Y-87992500D01*
X137841158Y-87992500D01*
X137998844Y-87992500D01*
X137998845Y-87992499D01*
X138153497Y-87961737D01*
X138299179Y-87901394D01*
X138430289Y-87813789D01*
X138541789Y-87702289D01*
X138629394Y-87571179D01*
X138689737Y-87425497D01*
X138720500Y-87270842D01*
X138720500Y-87113158D01*
X138720500Y-87113155D01*
X138720499Y-87113153D01*
X138709849Y-87059612D01*
X138689737Y-86958503D01*
X138689735Y-86958498D01*
X138629397Y-86812827D01*
X138629390Y-86812814D01*
X138541789Y-86681711D01*
X138541786Y-86681707D01*
X138430292Y-86570213D01*
X138430288Y-86570210D01*
X138299185Y-86482609D01*
X138299172Y-86482602D01*
X138153501Y-86422264D01*
X138153489Y-86422261D01*
X137998845Y-86391500D01*
X137998842Y-86391500D01*
X137841158Y-86391500D01*
X137841155Y-86391500D01*
X137686510Y-86422261D01*
X137686498Y-86422264D01*
X137540827Y-86482602D01*
X137540814Y-86482609D01*
X137409711Y-86570210D01*
X137409707Y-86570213D01*
X137298213Y-86681707D01*
X137298210Y-86681711D01*
X137210609Y-86812814D01*
X137210602Y-86812827D01*
X137150264Y-86958498D01*
X137150261Y-86958510D01*
X137119500Y-87113153D01*
X130829708Y-87113153D01*
X130884972Y-86979732D01*
X130915735Y-86825077D01*
X130915735Y-86667393D01*
X130915735Y-86667390D01*
X130915734Y-86667388D01*
X130884972Y-86512738D01*
X130872491Y-86482606D01*
X130824632Y-86367062D01*
X130824625Y-86367049D01*
X130737024Y-86235946D01*
X130737021Y-86235942D01*
X130625527Y-86124448D01*
X130625523Y-86124445D01*
X130494420Y-86036844D01*
X130494407Y-86036837D01*
X130348736Y-85976499D01*
X130348724Y-85976496D01*
X130194080Y-85945735D01*
X130194077Y-85945735D01*
X130036393Y-85945735D01*
X130036390Y-85945735D01*
X129881745Y-85976496D01*
X129881733Y-85976499D01*
X129736062Y-86036837D01*
X129736049Y-86036844D01*
X129604946Y-86124445D01*
X129604942Y-86124448D01*
X129493448Y-86235942D01*
X129493445Y-86235946D01*
X129405844Y-86367049D01*
X129405837Y-86367062D01*
X129345499Y-86512733D01*
X129345496Y-86512745D01*
X129314735Y-86667388D01*
X128100500Y-86667388D01*
X128100500Y-85505277D01*
X128120185Y-85438238D01*
X128172989Y-85392483D01*
X128224500Y-85381277D01*
X136980776Y-85381277D01*
X137014124Y-85384486D01*
X137033293Y-85381277D01*
X137052727Y-85381277D01*
X137052728Y-85381277D01*
X137067343Y-85377360D01*
X137079333Y-85374147D01*
X137090953Y-85371623D01*
X137118130Y-85367075D01*
X137135816Y-85359013D01*
X137154587Y-85353984D01*
X137183598Y-85337234D01*
X137214086Y-85323338D01*
X137214088Y-85323335D01*
X137216291Y-85322332D01*
X137285457Y-85312438D01*
X137348992Y-85341508D01*
X137355403Y-85347482D01*
X137469707Y-85461786D01*
X137469711Y-85461789D01*
X137600814Y-85549390D01*
X137600827Y-85549397D01*
X137746498Y-85609735D01*
X137746503Y-85609737D01*
X137901153Y-85640499D01*
X137901156Y-85640500D01*
X137901158Y-85640500D01*
X138058844Y-85640500D01*
X138058845Y-85640499D01*
X138213497Y-85609737D01*
X138359179Y-85549394D01*
X138490289Y-85461789D01*
X138601789Y-85350289D01*
X138601791Y-85350285D01*
X138602259Y-85349818D01*
X138663582Y-85316332D01*
X138728257Y-85319566D01*
X138929861Y-85385072D01*
X139170910Y-85423251D01*
X139170911Y-85423251D01*
X139414963Y-85423251D01*
X139414964Y-85423251D01*
X139656013Y-85385072D01*
X139888122Y-85309655D01*
X140105576Y-85198857D01*
X140303020Y-85055406D01*
X140475592Y-84882834D01*
X140619043Y-84685390D01*
X140729841Y-84467936D01*
X140805258Y-84235827D01*
X140843437Y-83994778D01*
X140843437Y-83750724D01*
X140805258Y-83509675D01*
X140729841Y-83277566D01*
X140619043Y-83060112D01*
X140519811Y-82923530D01*
X140475597Y-82862674D01*
X140475593Y-82862669D01*
X140303018Y-82690094D01*
X140303013Y-82690090D01*
X140105579Y-82546647D01*
X140105578Y-82546646D01*
X140105576Y-82546645D01*
X139888122Y-82435847D01*
X139719792Y-82381153D01*
X142889500Y-82381153D01*
X142889500Y-82538846D01*
X142920261Y-82693489D01*
X142920264Y-82693501D01*
X142980602Y-82839172D01*
X142980609Y-82839185D01*
X143068210Y-82970288D01*
X143068213Y-82970292D01*
X143179707Y-83081786D01*
X143179711Y-83081789D01*
X143310814Y-83169390D01*
X143310827Y-83169397D01*
X143456498Y-83229735D01*
X143456503Y-83229737D01*
X143611153Y-83260499D01*
X143611156Y-83260500D01*
X143611158Y-83260500D01*
X143768844Y-83260500D01*
X143768845Y-83260499D01*
X143923497Y-83229737D01*
X144069179Y-83169394D01*
X144200289Y-83081789D01*
X144311789Y-82970289D01*
X144399394Y-82839179D01*
X144412899Y-82806574D01*
X144456739Y-82752172D01*
X144523032Y-82730106D01*
X144590732Y-82747384D01*
X144600345Y-82753709D01*
X144681580Y-82812729D01*
X144681582Y-82812730D01*
X144681585Y-82812732D01*
X144899039Y-82923530D01*
X145131148Y-82998947D01*
X145372197Y-83037126D01*
X145372198Y-83037126D01*
X145616250Y-83037126D01*
X145616251Y-83037126D01*
X145857300Y-82998947D01*
X146089409Y-82923530D01*
X146306863Y-82812732D01*
X146504307Y-82669281D01*
X146676879Y-82496709D01*
X146820330Y-82299265D01*
X146931128Y-82081811D01*
X147006545Y-81849702D01*
X147044724Y-81608653D01*
X147044724Y-81364599D01*
X149023724Y-81364599D01*
X149023724Y-81608653D01*
X149032618Y-81664809D01*
X149060082Y-81838210D01*
X149061903Y-81849702D01*
X149137320Y-82081811D01*
X149240477Y-82284269D01*
X149248120Y-82299268D01*
X149391563Y-82496702D01*
X149391567Y-82496707D01*
X149564142Y-82669282D01*
X149564147Y-82669286D01*
X149736360Y-82794405D01*
X149761585Y-82812732D01*
X149979039Y-82923530D01*
X150211148Y-82998947D01*
X150452197Y-83037126D01*
X150452198Y-83037126D01*
X150696250Y-83037126D01*
X150696251Y-83037126D01*
X150937300Y-82998947D01*
X151169409Y-82923530D01*
X151386863Y-82812732D01*
X151584307Y-82669281D01*
X151756879Y-82496709D01*
X151900330Y-82299265D01*
X152011128Y-82081811D01*
X152086545Y-81849702D01*
X152124724Y-81608653D01*
X152124724Y-81364599D01*
X152086545Y-81123550D01*
X152011128Y-80891441D01*
X151900330Y-80673987D01*
X151803090Y-80540147D01*
X151756884Y-80476549D01*
X151756880Y-80476544D01*
X151584305Y-80303969D01*
X151584300Y-80303965D01*
X151386866Y-80160522D01*
X151386865Y-80160521D01*
X151386863Y-80160520D01*
X151169409Y-80049722D01*
X150937300Y-79974305D01*
X150937298Y-79974304D01*
X150937296Y-79974304D01*
X150755890Y-79945572D01*
X150696251Y-79936126D01*
X150452197Y-79936126D01*
X150407231Y-79943248D01*
X150211151Y-79974304D01*
X149979036Y-80049723D01*
X149761581Y-80160522D01*
X149564147Y-80303965D01*
X149564142Y-80303969D01*
X149391567Y-80476544D01*
X149391563Y-80476549D01*
X149248120Y-80673983D01*
X149137321Y-80891438D01*
X149061902Y-81123553D01*
X149058619Y-81144281D01*
X149023724Y-81364599D01*
X147044724Y-81364599D01*
X147006545Y-81123550D01*
X146931128Y-80891441D01*
X146820330Y-80673987D01*
X146723090Y-80540147D01*
X146676884Y-80476549D01*
X146676880Y-80476544D01*
X146568419Y-80368083D01*
X146534934Y-80306760D01*
X146539918Y-80237068D01*
X146581790Y-80181135D01*
X146587185Y-80177317D01*
X146670289Y-80121789D01*
X146781789Y-80010289D01*
X146869394Y-79879179D01*
X146929737Y-79733497D01*
X146960500Y-79578842D01*
X146960500Y-79421158D01*
X146960500Y-79421155D01*
X146960499Y-79421153D01*
X146949478Y-79365747D01*
X146929737Y-79266503D01*
X146883894Y-79155827D01*
X146869397Y-79120827D01*
X146869390Y-79120814D01*
X146781789Y-78989711D01*
X146781786Y-78989707D01*
X146670292Y-78878213D01*
X146670288Y-78878210D01*
X146539185Y-78790609D01*
X146539172Y-78790602D01*
X146393501Y-78730264D01*
X146393489Y-78730261D01*
X146238845Y-78699500D01*
X146238842Y-78699500D01*
X146081158Y-78699500D01*
X146081155Y-78699500D01*
X145926510Y-78730261D01*
X145926498Y-78730264D01*
X145780827Y-78790602D01*
X145780814Y-78790609D01*
X145649711Y-78878210D01*
X145649707Y-78878213D01*
X145538213Y-78989707D01*
X145538210Y-78989711D01*
X145450609Y-79120814D01*
X145450602Y-79120827D01*
X145390264Y-79266498D01*
X145390261Y-79266510D01*
X145359500Y-79421153D01*
X145359500Y-79578846D01*
X145390261Y-79733489D01*
X145390263Y-79733496D01*
X145407722Y-79775648D01*
X145415189Y-79845118D01*
X145383914Y-79907596D01*
X145323824Y-79943248D01*
X145312558Y-79945572D01*
X145131151Y-79974304D01*
X144899036Y-80049723D01*
X144681581Y-80160522D01*
X144484147Y-80303965D01*
X144484142Y-80303969D01*
X144311567Y-80476544D01*
X144311563Y-80476549D01*
X144168120Y-80673983D01*
X144057321Y-80891438D01*
X143981902Y-81123553D01*
X143943724Y-81364599D01*
X143943724Y-81543191D01*
X143924039Y-81610230D01*
X143871235Y-81655985D01*
X143802077Y-81665929D01*
X143795534Y-81664809D01*
X143768842Y-81659500D01*
X143611158Y-81659500D01*
X143611155Y-81659500D01*
X143456510Y-81690261D01*
X143456498Y-81690264D01*
X143310827Y-81750602D01*
X143310814Y-81750609D01*
X143179711Y-81838210D01*
X143179707Y-81838213D01*
X143068213Y-81949707D01*
X143068210Y-81949711D01*
X142980609Y-82080814D01*
X142980602Y-82080827D01*
X142920264Y-82226498D01*
X142920261Y-82226510D01*
X142889500Y-82381153D01*
X139719792Y-82381153D01*
X139656013Y-82360430D01*
X139656011Y-82360429D01*
X139656009Y-82360429D01*
X139469028Y-82330814D01*
X139414964Y-82322251D01*
X139170910Y-82322251D01*
X139116846Y-82330814D01*
X138929864Y-82360429D01*
X138697749Y-82435848D01*
X138480294Y-82546647D01*
X138282860Y-82690090D01*
X138282855Y-82690094D01*
X138110280Y-82862669D01*
X138110276Y-82862674D01*
X137966833Y-83060108D01*
X137856035Y-83277561D01*
X137856034Y-83277563D01*
X137856033Y-83277566D01*
X137807687Y-83426359D01*
X137794086Y-83468219D01*
X137754648Y-83525894D01*
X137690290Y-83553092D01*
X137621443Y-83541177D01*
X137569968Y-83493933D01*
X137552206Y-83426359D01*
X137552723Y-83418039D01*
X137893846Y-79872989D01*
X137919860Y-79808146D01*
X137976804Y-79767659D01*
X138046597Y-79764386D01*
X138107080Y-79799365D01*
X138109546Y-79802098D01*
X138282855Y-79975407D01*
X138282860Y-79975411D01*
X138385143Y-80049723D01*
X138480298Y-80118857D01*
X138697752Y-80229655D01*
X138929861Y-80305072D01*
X139170910Y-80343251D01*
X139170911Y-80343251D01*
X139414963Y-80343251D01*
X139414964Y-80343251D01*
X139656013Y-80305072D01*
X139888122Y-80229655D01*
X140105576Y-80118857D01*
X140303020Y-79975406D01*
X140475592Y-79802834D01*
X140619043Y-79605390D01*
X140729841Y-79387936D01*
X140805258Y-79155827D01*
X140843437Y-78914778D01*
X140843437Y-78670724D01*
X140805258Y-78429675D01*
X140729841Y-78197566D01*
X140619043Y-77980112D01*
X140600716Y-77954887D01*
X140475597Y-77782674D01*
X140475593Y-77782669D01*
X140455766Y-77762842D01*
X140447344Y-77747418D01*
X140434865Y-77735044D01*
X140430946Y-77717389D01*
X140422281Y-77701519D01*
X140423534Y-77683990D01*
X140419727Y-77666834D01*
X140425974Y-77649865D01*
X140427265Y-77631827D01*
X140437797Y-77617757D01*
X140443869Y-77601268D01*
X140458300Y-77590370D01*
X140469137Y-77575894D01*
X140485705Y-77569674D01*
X140499626Y-77559162D01*
X140525277Y-77554820D01*
X140534082Y-77551515D01*
X140540346Y-77551040D01*
X140542387Y-77551093D01*
X140543644Y-77550790D01*
X140548497Y-77550423D01*
X140552721Y-77549867D01*
X140552727Y-77549867D01*
X140597153Y-77537962D01*
X140600201Y-77537187D01*
X140644917Y-77526434D01*
X140644922Y-77526430D01*
X140649720Y-77524587D01*
X140649811Y-77524551D01*
X140649826Y-77524545D01*
X140654577Y-77522576D01*
X140654587Y-77522574D01*
X140694424Y-77499573D01*
X140697191Y-77498022D01*
X142949520Y-76273931D01*
X142954587Y-76272574D01*
X142995801Y-76248778D01*
X143037571Y-76226078D01*
X143037578Y-76226070D01*
X143041716Y-76223063D01*
X143041741Y-76223046D01*
X143041853Y-76222961D01*
X143041854Y-76222960D01*
X143045903Y-76219852D01*
X143045913Y-76219847D01*
X143078482Y-76187276D01*
X143080692Y-76185123D01*
X143114035Y-76153458D01*
X143114038Y-76153451D01*
X143117259Y-76149472D01*
X143117336Y-76149376D01*
X143117350Y-76149357D01*
X143120473Y-76145286D01*
X143120480Y-76145280D01*
X143143486Y-76105430D01*
X143145042Y-76102812D01*
X143169099Y-76063522D01*
X143169101Y-76063513D01*
X143171179Y-76058841D01*
X143171236Y-76058711D01*
X143171241Y-76058699D01*
X143173204Y-76053959D01*
X143173207Y-76053954D01*
X143185115Y-76009505D01*
X143185950Y-76006543D01*
X143199008Y-75962399D01*
X143199008Y-75962392D01*
X143199812Y-75957306D01*
X143199825Y-75957218D01*
X143199828Y-75957188D01*
X143200498Y-75952100D01*
X143200500Y-75952094D01*
X143200500Y-75906136D01*
X143200541Y-75902941D01*
X143200546Y-75902711D01*
X143201726Y-75856980D01*
X143201724Y-75856974D01*
X143201184Y-75851843D01*
X143200500Y-75838836D01*
X143200500Y-75664352D01*
X143220185Y-75597313D01*
X143272989Y-75551558D01*
X143342147Y-75541614D01*
X143405703Y-75570639D01*
X143412181Y-75576671D01*
X143558166Y-75722656D01*
X143558171Y-75722660D01*
X143718075Y-75838836D01*
X143755609Y-75866106D01*
X143783271Y-75880200D01*
X143784318Y-75880734D01*
X143835114Y-75928709D01*
X143851909Y-75996530D01*
X143831126Y-76060108D01*
X143810611Y-76090811D01*
X143810602Y-76090827D01*
X143750264Y-76236498D01*
X143750261Y-76236510D01*
X143719500Y-76391153D01*
X143719500Y-76548846D01*
X143750261Y-76703489D01*
X143750264Y-76703501D01*
X143810602Y-76849172D01*
X143810609Y-76849185D01*
X143898210Y-76980288D01*
X143898213Y-76980292D01*
X144009707Y-77091786D01*
X144009711Y-77091789D01*
X144140814Y-77179390D01*
X144140827Y-77179397D01*
X144286498Y-77239735D01*
X144286503Y-77239737D01*
X144441153Y-77270499D01*
X144441156Y-77270500D01*
X144441158Y-77270500D01*
X144598844Y-77270500D01*
X144598845Y-77270499D01*
X144753497Y-77239737D01*
X144899179Y-77179394D01*
X145030289Y-77091789D01*
X145141789Y-76980289D01*
X145229394Y-76849179D01*
X145289737Y-76703497D01*
X145320500Y-76548842D01*
X145320500Y-76391158D01*
X145320500Y-76391155D01*
X145320499Y-76391153D01*
X145289737Y-76236503D01*
X145285419Y-76226078D01*
X145229394Y-76090820D01*
X145227031Y-76086399D01*
X145212789Y-76017996D01*
X145237789Y-75952753D01*
X145280092Y-75917463D01*
X145380887Y-75866106D01*
X145578331Y-75722655D01*
X145750903Y-75550083D01*
X145894354Y-75352639D01*
X146005152Y-75135185D01*
X146080569Y-74903076D01*
X146118748Y-74662027D01*
X146118748Y-74417973D01*
X146080569Y-74176924D01*
X146005152Y-73944815D01*
X145894354Y-73727361D01*
X145857400Y-73676498D01*
X145750908Y-73529923D01*
X145750904Y-73529918D01*
X145578329Y-73357343D01*
X145578324Y-73357339D01*
X145380890Y-73213896D01*
X145380889Y-73213895D01*
X145380887Y-73213894D01*
X145163433Y-73103096D01*
X144931324Y-73027679D01*
X144931322Y-73027678D01*
X144931320Y-73027678D01*
X144763017Y-73001021D01*
X144690275Y-72989500D01*
X144446221Y-72989500D01*
X144390341Y-72998350D01*
X144205175Y-73027678D01*
X143973060Y-73103097D01*
X143755605Y-73213896D01*
X143558171Y-73357339D01*
X143558166Y-73357343D01*
X143412181Y-73503329D01*
X143350858Y-73536814D01*
X143281166Y-73531830D01*
X143225233Y-73489958D01*
X143200816Y-73424494D01*
X143200500Y-73415648D01*
X143200500Y-70584352D01*
X143220185Y-70517313D01*
X143272989Y-70471558D01*
X143342147Y-70461614D01*
X143405703Y-70490639D01*
X143412181Y-70496671D01*
X143558166Y-70642656D01*
X143558171Y-70642660D01*
X143730384Y-70767779D01*
X143755609Y-70786106D01*
X143973063Y-70896904D01*
X144205172Y-70972321D01*
X144446221Y-71010500D01*
X144446222Y-71010500D01*
X144690274Y-71010500D01*
X144690275Y-71010500D01*
X144931324Y-70972321D01*
X145163433Y-70896904D01*
X145380887Y-70786106D01*
X145578331Y-70642655D01*
X145750903Y-70470083D01*
X145894354Y-70272639D01*
X146005152Y-70055185D01*
X146080569Y-69823076D01*
X146118748Y-69582027D01*
X146118748Y-69337973D01*
X146080569Y-69096924D01*
X146005152Y-68864815D01*
X145894354Y-68647361D01*
X145876027Y-68622136D01*
X145750908Y-68449923D01*
X145750904Y-68449918D01*
X145578329Y-68277343D01*
X145578324Y-68277339D01*
X145380890Y-68133896D01*
X145380889Y-68133895D01*
X145380887Y-68133894D01*
X145163433Y-68023096D01*
X144931324Y-67947679D01*
X144931322Y-67947678D01*
X144931320Y-67947678D01*
X144716470Y-67913649D01*
X144690275Y-67909500D01*
X144446221Y-67909500D01*
X144420026Y-67913649D01*
X144205175Y-67947678D01*
X143973060Y-68023097D01*
X143755605Y-68133896D01*
X143558171Y-68277339D01*
X143558166Y-68277343D01*
X143412181Y-68423329D01*
X143392744Y-68433941D01*
X143376011Y-68448442D01*
X143362679Y-68450358D01*
X143350858Y-68456814D01*
X143328771Y-68455234D01*
X143306853Y-68458386D01*
X143294601Y-68452790D01*
X143281166Y-68451830D01*
X143263439Y-68438559D01*
X143243297Y-68429361D01*
X143236014Y-68418029D01*
X143225233Y-68409958D01*
X143217495Y-68389212D01*
X143205523Y-68370583D01*
X143202371Y-68348664D01*
X143200816Y-68344494D01*
X143200500Y-68335648D01*
X143200500Y-68259893D01*
X143201185Y-68246879D01*
X143201724Y-68241759D01*
X143201726Y-68241754D01*
X143200541Y-68195791D01*
X143200500Y-68192596D01*
X143200500Y-68146645D01*
X143200500Y-68146640D01*
X143200498Y-68146635D01*
X143199827Y-68141535D01*
X143199827Y-68141534D01*
X143199815Y-68141447D01*
X143199812Y-68141429D01*
X143199008Y-68136342D01*
X143199008Y-68136335D01*
X143185515Y-68090717D01*
X143173207Y-68044780D01*
X143170586Y-68040241D01*
X143169099Y-68035212D01*
X143144262Y-67994646D01*
X143120480Y-67953454D01*
X143116771Y-67949745D01*
X143116503Y-67949308D01*
X143114035Y-67945276D01*
X143114033Y-67945273D01*
X143080716Y-67913632D01*
X143078425Y-67911399D01*
X143045914Y-67878887D01*
X143041811Y-67875739D01*
X143041802Y-67875732D01*
X143041767Y-67875705D01*
X143041736Y-67875685D01*
X143037573Y-67872657D01*
X143037571Y-67872656D01*
X143031773Y-67869505D01*
X142997193Y-67850711D01*
X142994407Y-67849149D01*
X142954591Y-67826161D01*
X142949810Y-67824181D01*
X142938056Y-67818571D01*
X140697208Y-66600719D01*
X140697208Y-66600718D01*
X140695746Y-66599923D01*
X140654587Y-66576160D01*
X140649522Y-66574802D01*
X140644917Y-66572300D01*
X140644912Y-66572298D01*
X140644911Y-66572298D01*
X140600233Y-66561553D01*
X140597135Y-66560766D01*
X140552721Y-66548865D01*
X140547615Y-66548193D01*
X140547615Y-66548194D01*
X140547536Y-66548183D01*
X140547524Y-66548183D01*
X140542388Y-66547641D01*
X140542387Y-66547641D01*
X140520939Y-66548194D01*
X140496426Y-66548826D01*
X140493231Y-66548867D01*
X138024500Y-66548867D01*
X137957461Y-66529182D01*
X137911706Y-66476378D01*
X137900500Y-66424867D01*
X137900500Y-64893713D01*
X149649500Y-64893713D01*
X149649500Y-65106286D01*
X149682753Y-65316239D01*
X149748444Y-65518414D01*
X149844951Y-65707820D01*
X149969890Y-65879786D01*
X150120213Y-66030109D01*
X150292179Y-66155048D01*
X150292181Y-66155049D01*
X150292184Y-66155051D01*
X150481588Y-66251557D01*
X150683757Y-66317246D01*
X150893713Y-66350500D01*
X150893714Y-66350500D01*
X151106286Y-66350500D01*
X151106287Y-66350500D01*
X151316243Y-66317246D01*
X151518412Y-66251557D01*
X151707816Y-66155051D01*
X151729789Y-66139086D01*
X151879786Y-66030109D01*
X151879788Y-66030106D01*
X151879792Y-66030104D01*
X152030104Y-65879792D01*
X152030106Y-65879788D01*
X152030109Y-65879786D01*
X152155048Y-65707820D01*
X152155047Y-65707820D01*
X152155051Y-65707816D01*
X152251557Y-65518412D01*
X152317246Y-65316243D01*
X152350500Y-65106287D01*
X152350500Y-64893713D01*
X152317246Y-64683757D01*
X152251557Y-64481588D01*
X152155051Y-64292184D01*
X152155049Y-64292181D01*
X152155048Y-64292179D01*
X152030109Y-64120213D01*
X151879786Y-63969890D01*
X151707820Y-63844951D01*
X151518414Y-63748444D01*
X151518413Y-63748443D01*
X151518412Y-63748443D01*
X151316243Y-63682754D01*
X151316241Y-63682753D01*
X151316240Y-63682753D01*
X151154957Y-63657208D01*
X151106287Y-63649500D01*
X150893713Y-63649500D01*
X150845042Y-63657208D01*
X150683760Y-63682753D01*
X150481585Y-63748444D01*
X150292179Y-63844951D01*
X150120213Y-63969890D01*
X149969890Y-64120213D01*
X149844951Y-64292179D01*
X149748444Y-64481585D01*
X149682753Y-64683760D01*
X149649500Y-64893713D01*
X137900500Y-64893713D01*
X137900500Y-60971153D01*
X144679500Y-60971153D01*
X144679500Y-61128846D01*
X144710261Y-61283489D01*
X144710264Y-61283501D01*
X144770602Y-61429172D01*
X144770609Y-61429185D01*
X144858210Y-61560288D01*
X144858213Y-61560292D01*
X144969707Y-61671786D01*
X144969711Y-61671789D01*
X145100814Y-61759390D01*
X145100827Y-61759397D01*
X145246498Y-61819735D01*
X145246503Y-61819737D01*
X145401153Y-61850499D01*
X145401156Y-61850500D01*
X145401158Y-61850500D01*
X145558844Y-61850500D01*
X145558845Y-61850499D01*
X145713497Y-61819737D01*
X145859179Y-61759394D01*
X145990289Y-61671789D01*
X146101789Y-61560289D01*
X146189394Y-61429179D01*
X146249737Y-61283497D01*
X146280500Y-61128842D01*
X146280500Y-60971158D01*
X146280500Y-60971155D01*
X146280499Y-60971153D01*
X146258780Y-60861964D01*
X146249737Y-60816503D01*
X146215578Y-60734035D01*
X146189397Y-60670827D01*
X146189390Y-60670814D01*
X146101789Y-60539711D01*
X146101786Y-60539707D01*
X145990292Y-60428213D01*
X145990288Y-60428210D01*
X145859185Y-60340609D01*
X145859172Y-60340602D01*
X145713501Y-60280264D01*
X145713489Y-60280261D01*
X145558845Y-60249500D01*
X145558842Y-60249500D01*
X145401158Y-60249500D01*
X145401155Y-60249500D01*
X145246510Y-60280261D01*
X145246498Y-60280264D01*
X145100827Y-60340602D01*
X145100814Y-60340609D01*
X144969711Y-60428210D01*
X144969707Y-60428213D01*
X144858213Y-60539707D01*
X144858210Y-60539711D01*
X144770609Y-60670814D01*
X144770602Y-60670827D01*
X144710264Y-60816498D01*
X144710261Y-60816510D01*
X144679500Y-60971153D01*
X137900500Y-60971153D01*
X137900500Y-58845822D01*
X145764831Y-58845822D01*
X145764831Y-59003515D01*
X145795592Y-59158158D01*
X145795595Y-59158170D01*
X145855933Y-59303841D01*
X145855940Y-59303854D01*
X145943541Y-59434957D01*
X145943544Y-59434961D01*
X146055038Y-59546455D01*
X146055042Y-59546458D01*
X146186145Y-59634059D01*
X146186158Y-59634066D01*
X146321088Y-59689955D01*
X146331834Y-59694406D01*
X146436508Y-59715227D01*
X146486484Y-59725168D01*
X146486487Y-59725169D01*
X146486489Y-59725169D01*
X146644175Y-59725169D01*
X146644176Y-59725168D01*
X146798828Y-59694406D01*
X146944510Y-59634063D01*
X147075620Y-59546458D01*
X147167698Y-59454379D01*
X147229019Y-59420896D01*
X147298711Y-59425880D01*
X147302830Y-59427501D01*
X147360089Y-59451218D01*
X147396503Y-59466301D01*
X147551153Y-59497063D01*
X147551156Y-59497064D01*
X147587949Y-59497064D01*
X147654988Y-59516749D01*
X147700743Y-59569553D01*
X147710687Y-59638711D01*
X147691051Y-59689955D01*
X147661990Y-59733446D01*
X147661983Y-59733459D01*
X147594106Y-59897332D01*
X147594103Y-59897341D01*
X147559500Y-60071304D01*
X147559500Y-60248695D01*
X147594103Y-60422658D01*
X147594106Y-60422667D01*
X147661983Y-60586540D01*
X147661990Y-60586553D01*
X147760535Y-60734034D01*
X147760538Y-60734038D01*
X147885961Y-60859461D01*
X147885965Y-60859464D01*
X148033446Y-60958009D01*
X148033459Y-60958016D01*
X148156363Y-61008923D01*
X148197334Y-61025894D01*
X148197336Y-61025894D01*
X148197341Y-61025896D01*
X148371304Y-61060499D01*
X148371307Y-61060500D01*
X148371309Y-61060500D01*
X148548693Y-61060500D01*
X148548694Y-61060499D01*
X148606682Y-61048964D01*
X148722658Y-61025896D01*
X148722661Y-61025894D01*
X148722666Y-61025894D01*
X148854824Y-60971153D01*
X149639500Y-60971153D01*
X149639500Y-61128846D01*
X149670261Y-61283489D01*
X149670264Y-61283501D01*
X149730602Y-61429172D01*
X149730609Y-61429185D01*
X149818210Y-61560288D01*
X149818213Y-61560292D01*
X149929707Y-61671786D01*
X149929711Y-61671789D01*
X150060814Y-61759390D01*
X150060827Y-61759397D01*
X150206498Y-61819735D01*
X150206503Y-61819737D01*
X150361153Y-61850499D01*
X150361156Y-61850500D01*
X150361158Y-61850500D01*
X150518844Y-61850500D01*
X150518845Y-61850499D01*
X150673497Y-61819737D01*
X150819179Y-61759394D01*
X150950289Y-61671789D01*
X151061789Y-61560289D01*
X151149394Y-61429179D01*
X151209737Y-61283497D01*
X151240500Y-61128842D01*
X151240500Y-60971158D01*
X151240500Y-60971155D01*
X151240499Y-60971153D01*
X151218780Y-60861964D01*
X151209737Y-60816503D01*
X151175578Y-60734035D01*
X151149397Y-60670827D01*
X151149390Y-60670814D01*
X151061789Y-60539711D01*
X151061786Y-60539707D01*
X150950292Y-60428213D01*
X150950288Y-60428210D01*
X150819185Y-60340609D01*
X150819172Y-60340602D01*
X150673501Y-60280264D01*
X150673489Y-60280261D01*
X150518845Y-60249500D01*
X150518842Y-60249500D01*
X150361158Y-60249500D01*
X150361155Y-60249500D01*
X150206510Y-60280261D01*
X150206498Y-60280264D01*
X150060827Y-60340602D01*
X150060814Y-60340609D01*
X149929711Y-60428210D01*
X149929707Y-60428213D01*
X149818213Y-60539707D01*
X149818210Y-60539711D01*
X149730609Y-60670814D01*
X149730602Y-60670827D01*
X149670264Y-60816498D01*
X149670261Y-60816510D01*
X149639500Y-60971153D01*
X148854824Y-60971153D01*
X148886547Y-60958013D01*
X149034035Y-60859464D01*
X149159464Y-60734035D01*
X149258013Y-60586547D01*
X149325894Y-60422666D01*
X149360500Y-60248691D01*
X149360500Y-60071309D01*
X149360500Y-60071306D01*
X149334060Y-59938387D01*
X149340287Y-59868795D01*
X149383150Y-59813618D01*
X149431485Y-59792578D01*
X149517006Y-59775567D01*
X149629675Y-59728897D01*
X149662681Y-59715227D01*
X149662681Y-59715226D01*
X149662688Y-59715224D01*
X149793798Y-59627619D01*
X149905298Y-59516119D01*
X149992903Y-59385009D01*
X150053246Y-59239327D01*
X150084009Y-59084672D01*
X150084009Y-58926988D01*
X150084009Y-58926985D01*
X150084008Y-58926983D01*
X150053247Y-58772340D01*
X150053246Y-58772333D01*
X150019631Y-58691179D01*
X149992906Y-58626657D01*
X149992899Y-58626644D01*
X149905298Y-58495541D01*
X149905295Y-58495537D01*
X149793801Y-58384043D01*
X149793797Y-58384040D01*
X149662694Y-58296439D01*
X149662681Y-58296432D01*
X149517010Y-58236094D01*
X149516998Y-58236091D01*
X149362354Y-58205330D01*
X149362351Y-58205330D01*
X149204667Y-58205330D01*
X149204664Y-58205330D01*
X149050019Y-58236091D01*
X149050007Y-58236094D01*
X148904336Y-58296432D01*
X148904323Y-58296439D01*
X148773220Y-58384040D01*
X148773216Y-58384043D01*
X148661722Y-58495537D01*
X148661717Y-58495543D01*
X148631129Y-58541321D01*
X148577516Y-58586126D01*
X148508191Y-58594832D01*
X148445164Y-58564676D01*
X148408446Y-58505233D01*
X148406414Y-58496638D01*
X148399737Y-58463067D01*
X148390289Y-58440257D01*
X148339397Y-58317391D01*
X148339390Y-58317378D01*
X148251789Y-58186275D01*
X148251786Y-58186271D01*
X148140292Y-58074777D01*
X148140288Y-58074774D01*
X148009185Y-57987173D01*
X148009172Y-57987166D01*
X147863501Y-57926828D01*
X147863489Y-57926825D01*
X147708845Y-57896064D01*
X147708842Y-57896064D01*
X147551158Y-57896064D01*
X147551155Y-57896064D01*
X147396510Y-57926825D01*
X147396498Y-57926828D01*
X147250827Y-57987166D01*
X147250814Y-57987173D01*
X147119711Y-58074774D01*
X147119707Y-58074777D01*
X147027633Y-58166852D01*
X146966310Y-58200337D01*
X146896618Y-58195353D01*
X146892523Y-58193741D01*
X146798828Y-58154932D01*
X146798820Y-58154930D01*
X146644176Y-58124169D01*
X146644173Y-58124169D01*
X146486489Y-58124169D01*
X146486486Y-58124169D01*
X146331841Y-58154930D01*
X146331829Y-58154933D01*
X146186158Y-58215271D01*
X146186145Y-58215278D01*
X146055042Y-58302879D01*
X146055038Y-58302882D01*
X145943544Y-58414376D01*
X145943541Y-58414380D01*
X145855940Y-58545483D01*
X145855933Y-58545496D01*
X145795595Y-58691167D01*
X145795592Y-58691179D01*
X145764831Y-58845822D01*
X137900500Y-58845822D01*
X137900500Y-56465013D01*
X142713509Y-56465013D01*
X142713509Y-56863509D01*
X143413509Y-56863509D01*
X143413509Y-57363509D01*
X142713509Y-57363509D01*
X142713509Y-57762004D01*
X142751936Y-57955190D01*
X142751939Y-57955202D01*
X142827316Y-58137180D01*
X142827323Y-58137193D01*
X142936757Y-58300971D01*
X142936760Y-58300975D01*
X143076042Y-58440257D01*
X143076046Y-58440260D01*
X143239824Y-58549694D01*
X143239837Y-58549701D01*
X143421817Y-58625078D01*
X143463509Y-58633371D01*
X143463509Y-57830497D01*
X143473449Y-57847714D01*
X143529304Y-57903569D01*
X143597713Y-57943065D01*
X143674013Y-57963509D01*
X143753005Y-57963509D01*
X143829305Y-57943065D01*
X143897714Y-57903569D01*
X143953569Y-57847714D01*
X143963509Y-57830497D01*
X143963509Y-58633371D01*
X144005199Y-58625078D01*
X144005201Y-58625078D01*
X144187180Y-58549701D01*
X144187193Y-58549694D01*
X144350971Y-58440260D01*
X144350975Y-58440257D01*
X144490257Y-58300975D01*
X144490260Y-58300971D01*
X144599694Y-58137193D01*
X144599701Y-58137180D01*
X144675078Y-57955202D01*
X144675081Y-57955190D01*
X144713508Y-57762004D01*
X144713509Y-57762001D01*
X144713509Y-57363509D01*
X144013509Y-57363509D01*
X144013509Y-56863509D01*
X144713509Y-56863509D01*
X144713509Y-56720310D01*
X147483009Y-56720310D01*
X147483009Y-56878003D01*
X147513770Y-57032646D01*
X147513773Y-57032658D01*
X147574111Y-57178329D01*
X147574118Y-57178342D01*
X147661719Y-57309445D01*
X147661722Y-57309449D01*
X147773216Y-57420943D01*
X147773220Y-57420946D01*
X147904323Y-57508547D01*
X147904336Y-57508554D01*
X148050007Y-57568892D01*
X148050012Y-57568894D01*
X148204662Y-57599656D01*
X148204665Y-57599657D01*
X148204667Y-57599657D01*
X148362353Y-57599657D01*
X148362354Y-57599656D01*
X148517006Y-57568894D01*
X148662688Y-57508551D01*
X148793798Y-57420946D01*
X148905298Y-57309446D01*
X148992903Y-57178336D01*
X149053246Y-57032654D01*
X149084009Y-56877999D01*
X149084009Y-56720315D01*
X149084009Y-56720312D01*
X149084008Y-56720310D01*
X149053247Y-56565667D01*
X149053246Y-56565660D01*
X149053244Y-56565655D01*
X149028691Y-56506378D01*
X149011557Y-56465013D01*
X151353509Y-56465013D01*
X151353509Y-56863509D01*
X152053509Y-56863509D01*
X152053509Y-57363509D01*
X151353509Y-57363509D01*
X151353509Y-57762004D01*
X151391936Y-57955190D01*
X151391939Y-57955202D01*
X151467316Y-58137180D01*
X151467323Y-58137193D01*
X151576757Y-58300971D01*
X151576760Y-58300975D01*
X151716042Y-58440257D01*
X151716046Y-58440260D01*
X151879824Y-58549694D01*
X151879837Y-58549701D01*
X152061817Y-58625078D01*
X152103509Y-58633371D01*
X152103509Y-57830497D01*
X152113449Y-57847714D01*
X152169304Y-57903569D01*
X152237713Y-57943065D01*
X152314013Y-57963509D01*
X152393005Y-57963509D01*
X152469305Y-57943065D01*
X152537714Y-57903569D01*
X152593569Y-57847714D01*
X152603509Y-57830497D01*
X152603509Y-58633371D01*
X152645199Y-58625078D01*
X152645201Y-58625078D01*
X152827180Y-58549701D01*
X152827193Y-58549694D01*
X152990971Y-58440260D01*
X152990975Y-58440257D01*
X153130257Y-58300975D01*
X153130260Y-58300971D01*
X153239694Y-58137193D01*
X153239701Y-58137180D01*
X153315078Y-57955202D01*
X153315081Y-57955190D01*
X153353508Y-57762004D01*
X153353509Y-57762001D01*
X153353509Y-57363509D01*
X152653509Y-57363509D01*
X152653509Y-56863509D01*
X153353509Y-56863509D01*
X153353509Y-56465017D01*
X153353508Y-56465013D01*
X153315081Y-56271827D01*
X153315078Y-56271815D01*
X153239701Y-56089837D01*
X153239694Y-56089824D01*
X153130260Y-55926046D01*
X153130257Y-55926042D01*
X152990975Y-55786760D01*
X152990971Y-55786757D01*
X152827193Y-55677323D01*
X152827180Y-55677316D01*
X152645200Y-55601938D01*
X152645192Y-55601936D01*
X152603509Y-55593644D01*
X152603509Y-56396520D01*
X152593569Y-56379304D01*
X152537714Y-56323449D01*
X152469305Y-56283953D01*
X152393005Y-56263509D01*
X152314013Y-56263509D01*
X152237713Y-56283953D01*
X152169304Y-56323449D01*
X152113449Y-56379304D01*
X152103509Y-56396520D01*
X152103509Y-55593645D01*
X152103508Y-55593644D01*
X152061825Y-55601936D01*
X152061817Y-55601938D01*
X151879837Y-55677316D01*
X151879824Y-55677323D01*
X151716046Y-55786757D01*
X151716042Y-55786760D01*
X151576760Y-55926042D01*
X151576757Y-55926046D01*
X151467323Y-56089824D01*
X151467316Y-56089837D01*
X151391939Y-56271815D01*
X151391936Y-56271827D01*
X151353509Y-56465013D01*
X149011557Y-56465013D01*
X148992906Y-56419984D01*
X148992899Y-56419971D01*
X148905298Y-56288868D01*
X148905295Y-56288864D01*
X148793801Y-56177370D01*
X148793797Y-56177367D01*
X148662694Y-56089766D01*
X148662681Y-56089759D01*
X148517010Y-56029421D01*
X148516998Y-56029418D01*
X148362354Y-55998657D01*
X148362351Y-55998657D01*
X148204667Y-55998657D01*
X148204664Y-55998657D01*
X148050019Y-56029418D01*
X148050007Y-56029421D01*
X147904336Y-56089759D01*
X147904323Y-56089766D01*
X147773220Y-56177367D01*
X147773216Y-56177370D01*
X147661722Y-56288864D01*
X147661719Y-56288868D01*
X147574118Y-56419971D01*
X147574111Y-56419984D01*
X147513773Y-56565655D01*
X147513770Y-56565667D01*
X147483009Y-56720310D01*
X144713509Y-56720310D01*
X144713509Y-56465017D01*
X144713508Y-56465013D01*
X144675081Y-56271827D01*
X144675078Y-56271815D01*
X144599701Y-56089837D01*
X144599694Y-56089824D01*
X144490260Y-55926046D01*
X144490257Y-55926042D01*
X144350975Y-55786760D01*
X144350971Y-55786757D01*
X144187193Y-55677323D01*
X144187180Y-55677316D01*
X144005200Y-55601938D01*
X144005192Y-55601936D01*
X143963509Y-55593644D01*
X143963509Y-56396520D01*
X143953569Y-56379304D01*
X143897714Y-56323449D01*
X143829305Y-56283953D01*
X143753005Y-56263509D01*
X143674013Y-56263509D01*
X143597713Y-56283953D01*
X143529304Y-56323449D01*
X143473449Y-56379304D01*
X143463509Y-56396520D01*
X143463509Y-55593645D01*
X143463508Y-55593644D01*
X143421825Y-55601936D01*
X143421817Y-55601938D01*
X143239837Y-55677316D01*
X143239824Y-55677323D01*
X143076046Y-55786757D01*
X143076042Y-55786760D01*
X142936760Y-55926042D01*
X142936757Y-55926046D01*
X142827323Y-56089824D01*
X142827316Y-56089837D01*
X142751939Y-56271815D01*
X142751936Y-56271827D01*
X142713509Y-56465013D01*
X137900500Y-56465013D01*
X137900500Y-51858501D01*
X137920185Y-51791462D01*
X137972989Y-51745707D01*
X138024500Y-51734501D01*
X142812711Y-51734501D01*
X142879750Y-51754186D01*
G37*
%TD.AperFunction*%
%TA.AperFunction,Conductor*%
G36*
X78385717Y-97420176D02*
G01*
X78431472Y-97472980D01*
X78441416Y-97542139D01*
X78412391Y-97605695D01*
X78374974Y-97634976D01*
X78213833Y-97717083D01*
X78130894Y-97777340D01*
X78870591Y-98517037D01*
X78807007Y-98534075D01*
X78692993Y-98599901D01*
X78599901Y-98692993D01*
X78534075Y-98807007D01*
X78517037Y-98870590D01*
X77770727Y-98124280D01*
X77727052Y-98115105D01*
X77685384Y-98078739D01*
X77644517Y-98022490D01*
X77477510Y-97855483D01*
X77286433Y-97716657D01*
X77126132Y-97634979D01*
X77075336Y-97587004D01*
X77058541Y-97519183D01*
X77081079Y-97453048D01*
X77135794Y-97409597D01*
X77182424Y-97400494D01*
X78318681Y-97400492D01*
X78385717Y-97420176D01*
G37*
%TD.AperFunction*%
%TA.AperFunction,Conductor*%
G36*
X80884621Y-97420173D02*
G01*
X80930376Y-97472977D01*
X80940320Y-97542136D01*
X80911295Y-97605692D01*
X80873877Y-97634974D01*
X80713566Y-97716657D01*
X80630047Y-97777338D01*
X80522490Y-97855483D01*
X80522488Y-97855485D01*
X80522487Y-97855485D01*
X80355482Y-98022490D01*
X80314615Y-98078739D01*
X80259285Y-98121404D01*
X80227455Y-98126096D01*
X79482962Y-98870590D01*
X79465925Y-98807007D01*
X79400099Y-98692993D01*
X79307007Y-98599901D01*
X79192993Y-98534075D01*
X79129409Y-98517037D01*
X79869105Y-97777340D01*
X79869104Y-97777338D01*
X79786175Y-97717087D01*
X79625022Y-97634976D01*
X79574226Y-97587002D01*
X79557431Y-97519181D01*
X79579968Y-97453046D01*
X79634683Y-97409594D01*
X79681316Y-97400491D01*
X80817583Y-97400489D01*
X80884621Y-97420173D01*
G37*
%TD.AperFunction*%
%TD*%
M02*
