%TF.GenerationSoftware,KiCad,Pcbnew,9.0.2*%
%TF.CreationDate,2025-07-08T14:50:53+02:00*%
%TF.ProjectId,FMControllerSeed,464d436f-6e74-4726-9f6c-6c6572536565,rev?*%
%TF.SameCoordinates,Original*%
%TF.FileFunction,Profile,NP*%
%FSLAX46Y46*%
G04 Gerber Fmt 4.6, Leading zero omitted, Abs format (unit mm)*
G04 Created by KiCad (PCBNEW 9.0.2) date 2025-07-08 14:50:53*
%MOMM*%
%LPD*%
G01*
G04 APERTURE LIST*
%TA.AperFunction,Profile*%
%ADD10C,0.200000*%
%TD*%
%TA.AperFunction,Profile*%
%ADD11C,0.010050*%
%TD*%
G04 APERTURE END LIST*
D10*
X155568248Y-66949367D02*
X158568248Y-66949367D01*
X208553529Y-87694622D02*
X208553529Y-121982700D01*
X187396911Y-101508372D02*
G75*
G02*
X189331256Y-102487696I-11J-2400028D01*
G01*
X142800000Y-68199367D02*
X142800000Y-75899367D01*
X142800000Y-75899367D02*
X140500000Y-77149367D01*
X169718247Y-89875625D02*
X168368248Y-88444878D01*
X168368248Y-84980777D02*
X159068248Y-84980777D01*
X208553529Y-87694622D02*
X208553529Y-83197749D01*
X140500000Y-77149367D02*
X137500000Y-77149367D01*
X177418247Y-89875626D02*
X169718247Y-89875625D01*
X192632461Y-106982700D02*
X189331223Y-102487720D01*
X85093172Y-96999984D02*
X85093195Y-105000005D01*
X197632461Y-106982700D02*
X192632461Y-106982700D01*
X137500000Y-66949367D02*
X140500000Y-66949367D01*
X208553529Y-79697418D02*
X191872685Y-79697418D01*
X158568248Y-66949367D02*
X158568248Y-52334453D01*
X197632461Y-121982700D02*
X208553529Y-121982700D01*
X186068248Y-84980777D02*
X177418247Y-89875626D01*
X137500000Y-52334453D02*
X137500000Y-66949367D01*
X191872685Y-79697418D02*
X186068248Y-84980777D01*
X117150000Y-97796913D02*
X109941295Y-105000000D01*
X123863403Y-126382700D02*
X76600002Y-126382736D01*
X137500000Y-52334453D02*
X137500000Y-51334448D01*
X158568248Y-79784624D02*
X158568248Y-77149367D01*
X158568248Y-52334453D02*
X158568248Y-51334001D01*
X137500000Y-79784624D02*
X137000000Y-84980777D01*
X159068248Y-84980777D02*
X158568248Y-79784624D01*
X126350000Y-89875625D02*
X117150000Y-89875625D01*
X158568248Y-77149367D02*
X155568248Y-77149367D01*
X167499945Y-101464380D02*
X167500054Y-94382700D01*
D11*
X186587991Y-93182700D02*
G75*
G02*
X186577941Y-93182700I-5025J0D01*
G01*
X186577941Y-93182700D02*
G75*
G02*
X186587991Y-93182700I5025J0D01*
G01*
D10*
X153268248Y-75899367D02*
X153268248Y-68199367D01*
X117150000Y-89875625D02*
X117150000Y-97796913D01*
X153268248Y-68199367D02*
X155568248Y-66949367D01*
X127700000Y-84980777D02*
X127700000Y-88444878D01*
X109941295Y-105000000D02*
X85093195Y-105000005D01*
X73600000Y-97000000D02*
X73600000Y-123382736D01*
X208553529Y-79697418D02*
X208553529Y-83197749D01*
X123863403Y-126382700D02*
X135034124Y-115223140D01*
X187396911Y-101508372D02*
X167499945Y-101464380D01*
X158568248Y-51334001D02*
X137500000Y-51334001D01*
X135034124Y-94382700D02*
X167500054Y-94382700D01*
X137000000Y-84980777D02*
X127700000Y-84980777D01*
X155568248Y-77149367D02*
X153268248Y-75899367D01*
X135034124Y-115223140D02*
X135034124Y-94382700D01*
X85093172Y-96999984D02*
X73600000Y-97000000D01*
X127700000Y-88444878D02*
X126350000Y-89875625D01*
X137500000Y-77149367D02*
X137500000Y-79784624D01*
X76600002Y-126382736D02*
G75*
G02*
X73599964Y-123382736I-2J3000036D01*
G01*
X197632461Y-106982700D02*
X197632461Y-121982700D01*
X140500000Y-66949367D02*
X142800000Y-68199367D01*
X168368248Y-88444878D02*
X168368248Y-84980777D01*
%TO.C,U1*%
X82381259Y-112878645D02*
X98381259Y-112878645D01*
X82381259Y-118878645D02*
X82381259Y-112878645D01*
X98381259Y-112878645D02*
X98381259Y-118878645D01*
X98381259Y-118878645D02*
X82381259Y-118878645D01*
%TD*%
M02*
