M48
; DRILL file {KiCad 9.0.2} date 2025-07-08T14:50:56+0200
; FORMAT={-:-/ absolute / metric / decimal}
; #@! TF.CreationDate,2025-07-08T14:50:56+02:00
; #@! TF.GenerationSoftware,Kicad,Pcbnew,9.0.2
; #@! TF.FileFunction,Plated,1,4,PTH
FMAT,2
METRIC
; #@! TA.AperFunction,Plated,PTH,ViaDrill
T1C0.300
; #@! TA.AperFunction,Plated,PTH,ViaDrill
T2C0.400
; #@! TA.AperFunction,Plated,PTH,ViaDrill
T3C0.500
; #@! TA.AperFunction,Plated,PTH,ComponentDrill
T4C0.600
; #@! TA.AperFunction,Plated,PTH,ComponentDrill
T5C0.762
; #@! TA.AperFunction,Plated,PTH,ComponentDrill
T6C1.000
; #@! TA.AperFunction,Plated,PTH,ComponentDrill
T7C1.100
%
G90
G05
T1
X81.11Y-124.75
X82.38Y-124.75
X84.92Y-124.75
X86.19Y-124.75
X90.0Y-106.97
X117.206Y-116.316
X129.81Y-90.44
X130.0Y-97.5
X130.066Y-94.75
X130.115Y-86.746
X131.936Y-100.526
X133.83Y-90.98
X134.096Y-93.196
X137.7Y-91.133
X137.92Y-87.192
X137.98Y-84.84
X143.69Y-82.46
X144.52Y-76.47
X145.48Y-61.05
X146.16Y-79.5
X146.565Y-58.925
X147.63Y-58.697
X148.284Y-56.799
X148.88Y-92.734
X149.23Y-88.26
X149.284Y-59.006
X149.83Y-73.91
X150.44Y-61.05
X191.5Y-89.84
X196.558Y-91.417
X201.44Y-110.06
X207.5Y-110.0
X207.5Y-111.0
T2
X93.24Y-111.27
X98.79Y-122.7
X102.187Y-116.09
X107.451Y-115.909
X148.46Y-60.16
T3
X92.48Y-122.7
X95.68Y-122.7
T5
X200.76Y-118.38
X203.26Y-118.38
X205.76Y-118.38
T6
X75.83Y-114.18
X75.83Y-116.98
X76.5Y-99.0
X79.0Y-99.0
X81.5Y-99.0
X169.48Y-99.63
X172.28Y-99.63
X201.018Y-81.931
X203.518Y-81.931
X206.018Y-81.931
T7
X107.46Y-113.183
X112.54Y-113.183
X115.459Y-105.183
X115.459Y-121.183
X120.539Y-105.183
X120.539Y-121.183
X123.459Y-113.183
X128.539Y-113.183
X135.494Y-90.382
X139.293Y-78.793
X139.293Y-83.873
X140.574Y-90.382
X144.568Y-69.46
X144.568Y-74.54
X145.494Y-81.487
X150.574Y-81.487
X151.5Y-69.46
X151.5Y-74.54
X155.494Y-90.383
X156.775Y-78.793
X156.775Y-83.873
X160.574Y-90.383
X184.042Y-93.183
X189.122Y-93.183
X192.527Y-101.668
X192.528Y-84.698
X197.607Y-101.668
X197.608Y-84.698
X201.012Y-93.183
X206.092Y-93.183
T4
G00X143.714Y-53.334
M15
G01X143.714Y-52.534
M16
G05
G00X143.714Y-57.664
M15
G01X143.714Y-56.564
M16
G05
G00X152.354Y-53.334
M15
G01X152.354Y-52.534
M16
G05
G00X152.354Y-57.664
M15
G01X152.354Y-56.564
M16
G05
M30
