%TF.GenerationSoftware,KiCad,Pcbnew,9.0.6*%
%TF.CreationDate,2025-12-28T18:57:25+01:00*%
%TF.ProjectId,pcb_phone_controller,7063625f-7068-46f6-9e65-5f636f6e7472,rev?*%
%TF.SameCoordinates,Original*%
%TF.FileFunction,Legend,Top*%
%TF.FilePolarity,Positive*%
%FSLAX46Y46*%
G04 Gerber Fmt 4.6, Leading zero omitted, Abs format (unit mm)*
G04 Created by KiCad (PCBNEW 9.0.6) date 2025-12-28 18:57:25*
%MOMM*%
%LPD*%
G01*
G04 APERTURE LIST*
%ADD10C,0.150000*%
%ADD11C,0.100000*%
%ADD12C,0.101600*%
%ADD13C,0.120000*%
%ADD14C,0.152400*%
%ADD15C,0.508000*%
G04 APERTURE END LIST*
D10*
X177733333Y-121159580D02*
X177685714Y-121207200D01*
X177685714Y-121207200D02*
X177542857Y-121254819D01*
X177542857Y-121254819D02*
X177447619Y-121254819D01*
X177447619Y-121254819D02*
X177304762Y-121207200D01*
X177304762Y-121207200D02*
X177209524Y-121111961D01*
X177209524Y-121111961D02*
X177161905Y-121016723D01*
X177161905Y-121016723D02*
X177114286Y-120826247D01*
X177114286Y-120826247D02*
X177114286Y-120683390D01*
X177114286Y-120683390D02*
X177161905Y-120492914D01*
X177161905Y-120492914D02*
X177209524Y-120397676D01*
X177209524Y-120397676D02*
X177304762Y-120302438D01*
X177304762Y-120302438D02*
X177447619Y-120254819D01*
X177447619Y-120254819D02*
X177542857Y-120254819D01*
X177542857Y-120254819D02*
X177685714Y-120302438D01*
X177685714Y-120302438D02*
X177733333Y-120350057D01*
X178685714Y-121254819D02*
X178114286Y-121254819D01*
X178400000Y-121254819D02*
X178400000Y-120254819D01*
X178400000Y-120254819D02*
X178304762Y-120397676D01*
X178304762Y-120397676D02*
X178209524Y-120492914D01*
X178209524Y-120492914D02*
X178114286Y-120540533D01*
X139204048Y-108119250D02*
X139385477Y-108179726D01*
X139385477Y-108179726D02*
X139687858Y-108179726D01*
X139687858Y-108179726D02*
X139808810Y-108119250D01*
X139808810Y-108119250D02*
X139869286Y-108058773D01*
X139869286Y-108058773D02*
X139929763Y-107937821D01*
X139929763Y-107937821D02*
X139929763Y-107816869D01*
X139929763Y-107816869D02*
X139869286Y-107695916D01*
X139869286Y-107695916D02*
X139808810Y-107635440D01*
X139808810Y-107635440D02*
X139687858Y-107574964D01*
X139687858Y-107574964D02*
X139445953Y-107514488D01*
X139445953Y-107514488D02*
X139325001Y-107454011D01*
X139325001Y-107454011D02*
X139264524Y-107393535D01*
X139264524Y-107393535D02*
X139204048Y-107272583D01*
X139204048Y-107272583D02*
X139204048Y-107151630D01*
X139204048Y-107151630D02*
X139264524Y-107030678D01*
X139264524Y-107030678D02*
X139325001Y-106970202D01*
X139325001Y-106970202D02*
X139445953Y-106909726D01*
X139445953Y-106909726D02*
X139748334Y-106909726D01*
X139748334Y-106909726D02*
X139929763Y-106970202D01*
X140957858Y-108119250D02*
X140836906Y-108179726D01*
X140836906Y-108179726D02*
X140595001Y-108179726D01*
X140595001Y-108179726D02*
X140474048Y-108119250D01*
X140474048Y-108119250D02*
X140413572Y-107998297D01*
X140413572Y-107998297D02*
X140413572Y-107514488D01*
X140413572Y-107514488D02*
X140474048Y-107393535D01*
X140474048Y-107393535D02*
X140595001Y-107333059D01*
X140595001Y-107333059D02*
X140836906Y-107333059D01*
X140836906Y-107333059D02*
X140957858Y-107393535D01*
X140957858Y-107393535D02*
X141018334Y-107514488D01*
X141018334Y-107514488D02*
X141018334Y-107635440D01*
X141018334Y-107635440D02*
X140413572Y-107756392D01*
X141744048Y-108179726D02*
X141623096Y-108119250D01*
X141623096Y-108119250D02*
X141562619Y-107998297D01*
X141562619Y-107998297D02*
X141562619Y-106909726D01*
X142711667Y-108119250D02*
X142590715Y-108179726D01*
X142590715Y-108179726D02*
X142348810Y-108179726D01*
X142348810Y-108179726D02*
X142227857Y-108119250D01*
X142227857Y-108119250D02*
X142167381Y-107998297D01*
X142167381Y-107998297D02*
X142167381Y-107514488D01*
X142167381Y-107514488D02*
X142227857Y-107393535D01*
X142227857Y-107393535D02*
X142348810Y-107333059D01*
X142348810Y-107333059D02*
X142590715Y-107333059D01*
X142590715Y-107333059D02*
X142711667Y-107393535D01*
X142711667Y-107393535D02*
X142772143Y-107514488D01*
X142772143Y-107514488D02*
X142772143Y-107635440D01*
X142772143Y-107635440D02*
X142167381Y-107756392D01*
X143860714Y-108119250D02*
X143739762Y-108179726D01*
X143739762Y-108179726D02*
X143497857Y-108179726D01*
X143497857Y-108179726D02*
X143376905Y-108119250D01*
X143376905Y-108119250D02*
X143316428Y-108058773D01*
X143316428Y-108058773D02*
X143255952Y-107937821D01*
X143255952Y-107937821D02*
X143255952Y-107574964D01*
X143255952Y-107574964D02*
X143316428Y-107454011D01*
X143316428Y-107454011D02*
X143376905Y-107393535D01*
X143376905Y-107393535D02*
X143497857Y-107333059D01*
X143497857Y-107333059D02*
X143739762Y-107333059D01*
X143739762Y-107333059D02*
X143860714Y-107393535D01*
X144223571Y-107333059D02*
X144707380Y-107333059D01*
X144404999Y-106909726D02*
X144404999Y-107998297D01*
X144404999Y-107998297D02*
X144465476Y-108119250D01*
X144465476Y-108119250D02*
X144586428Y-108179726D01*
X144586428Y-108179726D02*
X144707380Y-108179726D01*
X145795952Y-108179726D02*
X145070237Y-108179726D01*
X145433094Y-108179726D02*
X145433094Y-106909726D01*
X145433094Y-106909726D02*
X145312142Y-107091154D01*
X145312142Y-107091154D02*
X145191190Y-107212107D01*
X145191190Y-107212107D02*
X145070237Y-107272583D01*
X179738095Y-109004819D02*
X179738095Y-108004819D01*
X179738095Y-108481009D02*
X180309523Y-108481009D01*
X180309523Y-109004819D02*
X180309523Y-108004819D01*
X180738095Y-108100057D02*
X180785714Y-108052438D01*
X180785714Y-108052438D02*
X180880952Y-108004819D01*
X180880952Y-108004819D02*
X181119047Y-108004819D01*
X181119047Y-108004819D02*
X181214285Y-108052438D01*
X181214285Y-108052438D02*
X181261904Y-108100057D01*
X181261904Y-108100057D02*
X181309523Y-108195295D01*
X181309523Y-108195295D02*
X181309523Y-108290533D01*
X181309523Y-108290533D02*
X181261904Y-108433390D01*
X181261904Y-108433390D02*
X180690476Y-109004819D01*
X180690476Y-109004819D02*
X181309523Y-109004819D01*
X164979580Y-123033333D02*
X165027200Y-123080952D01*
X165027200Y-123080952D02*
X165074819Y-123223809D01*
X165074819Y-123223809D02*
X165074819Y-123319047D01*
X165074819Y-123319047D02*
X165027200Y-123461904D01*
X165027200Y-123461904D02*
X164931961Y-123557142D01*
X164931961Y-123557142D02*
X164836723Y-123604761D01*
X164836723Y-123604761D02*
X164646247Y-123652380D01*
X164646247Y-123652380D02*
X164503390Y-123652380D01*
X164503390Y-123652380D02*
X164312914Y-123604761D01*
X164312914Y-123604761D02*
X164217676Y-123557142D01*
X164217676Y-123557142D02*
X164122438Y-123461904D01*
X164122438Y-123461904D02*
X164074819Y-123319047D01*
X164074819Y-123319047D02*
X164074819Y-123223809D01*
X164074819Y-123223809D02*
X164122438Y-123080952D01*
X164122438Y-123080952D02*
X164170057Y-123033333D01*
X165074819Y-122461904D02*
X165027200Y-122557142D01*
X165027200Y-122557142D02*
X164931961Y-122604761D01*
X164931961Y-122604761D02*
X164074819Y-122604761D01*
X165074819Y-122080951D02*
X164408152Y-122080951D01*
X164074819Y-122080951D02*
X164122438Y-122128570D01*
X164122438Y-122128570D02*
X164170057Y-122080951D01*
X164170057Y-122080951D02*
X164122438Y-122033332D01*
X164122438Y-122033332D02*
X164074819Y-122080951D01*
X164074819Y-122080951D02*
X164170057Y-122080951D01*
X165027200Y-121176190D02*
X165074819Y-121271428D01*
X165074819Y-121271428D02*
X165074819Y-121461904D01*
X165074819Y-121461904D02*
X165027200Y-121557142D01*
X165027200Y-121557142D02*
X164979580Y-121604761D01*
X164979580Y-121604761D02*
X164884342Y-121652380D01*
X164884342Y-121652380D02*
X164598628Y-121652380D01*
X164598628Y-121652380D02*
X164503390Y-121604761D01*
X164503390Y-121604761D02*
X164455771Y-121557142D01*
X164455771Y-121557142D02*
X164408152Y-121461904D01*
X164408152Y-121461904D02*
X164408152Y-121271428D01*
X164408152Y-121271428D02*
X164455771Y-121176190D01*
X165074819Y-120747618D02*
X164074819Y-120747618D01*
X164693866Y-120652380D02*
X165074819Y-120366666D01*
X164408152Y-120366666D02*
X164789104Y-120747618D01*
X165027200Y-119985713D02*
X165074819Y-119842856D01*
X165074819Y-119842856D02*
X165074819Y-119604761D01*
X165074819Y-119604761D02*
X165027200Y-119509523D01*
X165027200Y-119509523D02*
X164979580Y-119461904D01*
X164979580Y-119461904D02*
X164884342Y-119414285D01*
X164884342Y-119414285D02*
X164789104Y-119414285D01*
X164789104Y-119414285D02*
X164693866Y-119461904D01*
X164693866Y-119461904D02*
X164646247Y-119509523D01*
X164646247Y-119509523D02*
X164598628Y-119604761D01*
X164598628Y-119604761D02*
X164551009Y-119795237D01*
X164551009Y-119795237D02*
X164503390Y-119890475D01*
X164503390Y-119890475D02*
X164455771Y-119938094D01*
X164455771Y-119938094D02*
X164360533Y-119985713D01*
X164360533Y-119985713D02*
X164265295Y-119985713D01*
X164265295Y-119985713D02*
X164170057Y-119938094D01*
X164170057Y-119938094D02*
X164122438Y-119890475D01*
X164122438Y-119890475D02*
X164074819Y-119795237D01*
X164074819Y-119795237D02*
X164074819Y-119557142D01*
X164074819Y-119557142D02*
X164122438Y-119414285D01*
X164408152Y-119128570D02*
X164408152Y-118747618D01*
X164074819Y-118985713D02*
X164931961Y-118985713D01*
X164931961Y-118985713D02*
X165027200Y-118938094D01*
X165027200Y-118938094D02*
X165074819Y-118842856D01*
X165074819Y-118842856D02*
X165074819Y-118747618D01*
X165074819Y-118414284D02*
X164408152Y-118414284D01*
X164074819Y-118414284D02*
X164122438Y-118461903D01*
X164122438Y-118461903D02*
X164170057Y-118414284D01*
X164170057Y-118414284D02*
X164122438Y-118366665D01*
X164122438Y-118366665D02*
X164074819Y-118414284D01*
X164074819Y-118414284D02*
X164170057Y-118414284D01*
X165027200Y-117509523D02*
X165074819Y-117604761D01*
X165074819Y-117604761D02*
X165074819Y-117795237D01*
X165074819Y-117795237D02*
X165027200Y-117890475D01*
X165027200Y-117890475D02*
X164979580Y-117938094D01*
X164979580Y-117938094D02*
X164884342Y-117985713D01*
X164884342Y-117985713D02*
X164598628Y-117985713D01*
X164598628Y-117985713D02*
X164503390Y-117938094D01*
X164503390Y-117938094D02*
X164455771Y-117890475D01*
X164455771Y-117890475D02*
X164408152Y-117795237D01*
X164408152Y-117795237D02*
X164408152Y-117604761D01*
X164408152Y-117604761D02*
X164455771Y-117509523D01*
X165074819Y-117080951D02*
X164074819Y-117080951D01*
X164693866Y-116985713D02*
X165074819Y-116699999D01*
X164408152Y-116699999D02*
X164789104Y-117080951D01*
X165074819Y-115699999D02*
X164598628Y-116033332D01*
X165074819Y-116271427D02*
X164074819Y-116271427D01*
X164074819Y-116271427D02*
X164074819Y-115890475D01*
X164074819Y-115890475D02*
X164122438Y-115795237D01*
X164122438Y-115795237D02*
X164170057Y-115747618D01*
X164170057Y-115747618D02*
X164265295Y-115699999D01*
X164265295Y-115699999D02*
X164408152Y-115699999D01*
X164408152Y-115699999D02*
X164503390Y-115747618D01*
X164503390Y-115747618D02*
X164551009Y-115795237D01*
X164551009Y-115795237D02*
X164598628Y-115890475D01*
X164598628Y-115890475D02*
X164598628Y-116271427D01*
X165074819Y-114747618D02*
X165074819Y-115319046D01*
X165074819Y-115033332D02*
X164074819Y-115033332D01*
X164074819Y-115033332D02*
X164217676Y-115128570D01*
X164217676Y-115128570D02*
X164312914Y-115223808D01*
X164312914Y-115223808D02*
X164360533Y-115319046D01*
X180833333Y-121304819D02*
X180500000Y-120828628D01*
X180261905Y-121304819D02*
X180261905Y-120304819D01*
X180261905Y-120304819D02*
X180642857Y-120304819D01*
X180642857Y-120304819D02*
X180738095Y-120352438D01*
X180738095Y-120352438D02*
X180785714Y-120400057D01*
X180785714Y-120400057D02*
X180833333Y-120495295D01*
X180833333Y-120495295D02*
X180833333Y-120638152D01*
X180833333Y-120638152D02*
X180785714Y-120733390D01*
X180785714Y-120733390D02*
X180738095Y-120781009D01*
X180738095Y-120781009D02*
X180642857Y-120828628D01*
X180642857Y-120828628D02*
X180261905Y-120828628D01*
X181785714Y-121304819D02*
X181214286Y-121304819D01*
X181500000Y-121304819D02*
X181500000Y-120304819D01*
X181500000Y-120304819D02*
X181404762Y-120447676D01*
X181404762Y-120447676D02*
X181309524Y-120542914D01*
X181309524Y-120542914D02*
X181214286Y-120590533D01*
X135739580Y-122938095D02*
X135787200Y-122985714D01*
X135787200Y-122985714D02*
X135834819Y-123128571D01*
X135834819Y-123128571D02*
X135834819Y-123223809D01*
X135834819Y-123223809D02*
X135787200Y-123366666D01*
X135787200Y-123366666D02*
X135691961Y-123461904D01*
X135691961Y-123461904D02*
X135596723Y-123509523D01*
X135596723Y-123509523D02*
X135406247Y-123557142D01*
X135406247Y-123557142D02*
X135263390Y-123557142D01*
X135263390Y-123557142D02*
X135072914Y-123509523D01*
X135072914Y-123509523D02*
X134977676Y-123461904D01*
X134977676Y-123461904D02*
X134882438Y-123366666D01*
X134882438Y-123366666D02*
X134834819Y-123223809D01*
X134834819Y-123223809D02*
X134834819Y-123128571D01*
X134834819Y-123128571D02*
X134882438Y-122985714D01*
X134882438Y-122985714D02*
X134930057Y-122938095D01*
X135834819Y-122366666D02*
X135787200Y-122461904D01*
X135787200Y-122461904D02*
X135691961Y-122509523D01*
X135691961Y-122509523D02*
X134834819Y-122509523D01*
X135834819Y-121985713D02*
X135168152Y-121985713D01*
X134834819Y-121985713D02*
X134882438Y-122033332D01*
X134882438Y-122033332D02*
X134930057Y-121985713D01*
X134930057Y-121985713D02*
X134882438Y-121938094D01*
X134882438Y-121938094D02*
X134834819Y-121985713D01*
X134834819Y-121985713D02*
X134930057Y-121985713D01*
X135787200Y-121080952D02*
X135834819Y-121176190D01*
X135834819Y-121176190D02*
X135834819Y-121366666D01*
X135834819Y-121366666D02*
X135787200Y-121461904D01*
X135787200Y-121461904D02*
X135739580Y-121509523D01*
X135739580Y-121509523D02*
X135644342Y-121557142D01*
X135644342Y-121557142D02*
X135358628Y-121557142D01*
X135358628Y-121557142D02*
X135263390Y-121509523D01*
X135263390Y-121509523D02*
X135215771Y-121461904D01*
X135215771Y-121461904D02*
X135168152Y-121366666D01*
X135168152Y-121366666D02*
X135168152Y-121176190D01*
X135168152Y-121176190D02*
X135215771Y-121080952D01*
X135834819Y-120652380D02*
X134834819Y-120652380D01*
X135453866Y-120557142D02*
X135834819Y-120271428D01*
X135168152Y-120271428D02*
X135549104Y-120652380D01*
X135787200Y-119890475D02*
X135834819Y-119747618D01*
X135834819Y-119747618D02*
X135834819Y-119509523D01*
X135834819Y-119509523D02*
X135787200Y-119414285D01*
X135787200Y-119414285D02*
X135739580Y-119366666D01*
X135739580Y-119366666D02*
X135644342Y-119319047D01*
X135644342Y-119319047D02*
X135549104Y-119319047D01*
X135549104Y-119319047D02*
X135453866Y-119366666D01*
X135453866Y-119366666D02*
X135406247Y-119414285D01*
X135406247Y-119414285D02*
X135358628Y-119509523D01*
X135358628Y-119509523D02*
X135311009Y-119699999D01*
X135311009Y-119699999D02*
X135263390Y-119795237D01*
X135263390Y-119795237D02*
X135215771Y-119842856D01*
X135215771Y-119842856D02*
X135120533Y-119890475D01*
X135120533Y-119890475D02*
X135025295Y-119890475D01*
X135025295Y-119890475D02*
X134930057Y-119842856D01*
X134930057Y-119842856D02*
X134882438Y-119795237D01*
X134882438Y-119795237D02*
X134834819Y-119699999D01*
X134834819Y-119699999D02*
X134834819Y-119461904D01*
X134834819Y-119461904D02*
X134882438Y-119319047D01*
X135168152Y-119033332D02*
X135168152Y-118652380D01*
X134834819Y-118890475D02*
X135691961Y-118890475D01*
X135691961Y-118890475D02*
X135787200Y-118842856D01*
X135787200Y-118842856D02*
X135834819Y-118747618D01*
X135834819Y-118747618D02*
X135834819Y-118652380D01*
X135834819Y-118319046D02*
X135168152Y-118319046D01*
X134834819Y-118319046D02*
X134882438Y-118366665D01*
X134882438Y-118366665D02*
X134930057Y-118319046D01*
X134930057Y-118319046D02*
X134882438Y-118271427D01*
X134882438Y-118271427D02*
X134834819Y-118319046D01*
X134834819Y-118319046D02*
X134930057Y-118319046D01*
X135787200Y-117414285D02*
X135834819Y-117509523D01*
X135834819Y-117509523D02*
X135834819Y-117699999D01*
X135834819Y-117699999D02*
X135787200Y-117795237D01*
X135787200Y-117795237D02*
X135739580Y-117842856D01*
X135739580Y-117842856D02*
X135644342Y-117890475D01*
X135644342Y-117890475D02*
X135358628Y-117890475D01*
X135358628Y-117890475D02*
X135263390Y-117842856D01*
X135263390Y-117842856D02*
X135215771Y-117795237D01*
X135215771Y-117795237D02*
X135168152Y-117699999D01*
X135168152Y-117699999D02*
X135168152Y-117509523D01*
X135168152Y-117509523D02*
X135215771Y-117414285D01*
X135834819Y-116985713D02*
X134834819Y-116985713D01*
X135453866Y-116890475D02*
X135834819Y-116604761D01*
X135168152Y-116604761D02*
X135549104Y-116985713D01*
X135834819Y-115699999D02*
X135834819Y-116176189D01*
X135834819Y-116176189D02*
X134834819Y-116176189D01*
X135834819Y-114842856D02*
X135834819Y-115414284D01*
X135834819Y-115128570D02*
X134834819Y-115128570D01*
X134834819Y-115128570D02*
X134977676Y-115223808D01*
X134977676Y-115223808D02*
X135072914Y-115319046D01*
X135072914Y-115319046D02*
X135120533Y-115414284D01*
X154839047Y-108119250D02*
X155020476Y-108179726D01*
X155020476Y-108179726D02*
X155322857Y-108179726D01*
X155322857Y-108179726D02*
X155443809Y-108119250D01*
X155443809Y-108119250D02*
X155504285Y-108058773D01*
X155504285Y-108058773D02*
X155564762Y-107937821D01*
X155564762Y-107937821D02*
X155564762Y-107816869D01*
X155564762Y-107816869D02*
X155504285Y-107695916D01*
X155504285Y-107695916D02*
X155443809Y-107635440D01*
X155443809Y-107635440D02*
X155322857Y-107574964D01*
X155322857Y-107574964D02*
X155080952Y-107514488D01*
X155080952Y-107514488D02*
X154960000Y-107454011D01*
X154960000Y-107454011D02*
X154899523Y-107393535D01*
X154899523Y-107393535D02*
X154839047Y-107272583D01*
X154839047Y-107272583D02*
X154839047Y-107151630D01*
X154839047Y-107151630D02*
X154899523Y-107030678D01*
X154899523Y-107030678D02*
X154960000Y-106970202D01*
X154960000Y-106970202D02*
X155080952Y-106909726D01*
X155080952Y-106909726D02*
X155383333Y-106909726D01*
X155383333Y-106909726D02*
X155564762Y-106970202D01*
X155927619Y-107333059D02*
X156411428Y-107333059D01*
X156109047Y-106909726D02*
X156109047Y-107998297D01*
X156109047Y-107998297D02*
X156169524Y-108119250D01*
X156169524Y-108119250D02*
X156290476Y-108179726D01*
X156290476Y-108179726D02*
X156411428Y-108179726D01*
X157379047Y-108179726D02*
X157379047Y-107514488D01*
X157379047Y-107514488D02*
X157318571Y-107393535D01*
X157318571Y-107393535D02*
X157197619Y-107333059D01*
X157197619Y-107333059D02*
X156955714Y-107333059D01*
X156955714Y-107333059D02*
X156834761Y-107393535D01*
X157379047Y-108119250D02*
X157258095Y-108179726D01*
X157258095Y-108179726D02*
X156955714Y-108179726D01*
X156955714Y-108179726D02*
X156834761Y-108119250D01*
X156834761Y-108119250D02*
X156774285Y-107998297D01*
X156774285Y-107998297D02*
X156774285Y-107877345D01*
X156774285Y-107877345D02*
X156834761Y-107756392D01*
X156834761Y-107756392D02*
X156955714Y-107695916D01*
X156955714Y-107695916D02*
X157258095Y-107695916D01*
X157258095Y-107695916D02*
X157379047Y-107635440D01*
X157983809Y-108179726D02*
X157983809Y-107333059D01*
X157983809Y-107574964D02*
X158044286Y-107454011D01*
X158044286Y-107454011D02*
X158104762Y-107393535D01*
X158104762Y-107393535D02*
X158225714Y-107333059D01*
X158225714Y-107333059D02*
X158346667Y-107333059D01*
X158588571Y-107333059D02*
X159072380Y-107333059D01*
X158769999Y-106909726D02*
X158769999Y-107998297D01*
X158769999Y-107998297D02*
X158830476Y-108119250D01*
X158830476Y-108119250D02*
X158951428Y-108179726D01*
X158951428Y-108179726D02*
X159072380Y-108179726D01*
X160160952Y-108179726D02*
X159435237Y-108179726D01*
X159798094Y-108179726D02*
X159798094Y-106909726D01*
X159798094Y-106909726D02*
X159677142Y-107091154D01*
X159677142Y-107091154D02*
X159556190Y-107212107D01*
X159556190Y-107212107D02*
X159435237Y-107272583D01*
X217940476Y-117307200D02*
X218083333Y-117354819D01*
X218083333Y-117354819D02*
X218321428Y-117354819D01*
X218321428Y-117354819D02*
X218416666Y-117307200D01*
X218416666Y-117307200D02*
X218464285Y-117259580D01*
X218464285Y-117259580D02*
X218511904Y-117164342D01*
X218511904Y-117164342D02*
X218511904Y-117069104D01*
X218511904Y-117069104D02*
X218464285Y-116973866D01*
X218464285Y-116973866D02*
X218416666Y-116926247D01*
X218416666Y-116926247D02*
X218321428Y-116878628D01*
X218321428Y-116878628D02*
X218130952Y-116831009D01*
X218130952Y-116831009D02*
X218035714Y-116783390D01*
X218035714Y-116783390D02*
X217988095Y-116735771D01*
X217988095Y-116735771D02*
X217940476Y-116640533D01*
X217940476Y-116640533D02*
X217940476Y-116545295D01*
X217940476Y-116545295D02*
X217988095Y-116450057D01*
X217988095Y-116450057D02*
X218035714Y-116402438D01*
X218035714Y-116402438D02*
X218130952Y-116354819D01*
X218130952Y-116354819D02*
X218369047Y-116354819D01*
X218369047Y-116354819D02*
X218511904Y-116402438D01*
X218845238Y-116354819D02*
X219083333Y-117354819D01*
X219083333Y-117354819D02*
X219273809Y-116640533D01*
X219273809Y-116640533D02*
X219464285Y-117354819D01*
X219464285Y-117354819D02*
X219702381Y-116354819D01*
X220607142Y-117354819D02*
X220035714Y-117354819D01*
X220321428Y-117354819D02*
X220321428Y-116354819D01*
X220321428Y-116354819D02*
X220226190Y-116497676D01*
X220226190Y-116497676D02*
X220130952Y-116592914D01*
X220130952Y-116592914D02*
X220035714Y-116640533D01*
X220940476Y-116354819D02*
X221607142Y-116354819D01*
X221607142Y-116354819D02*
X221178571Y-117354819D01*
X133261905Y-101154819D02*
X133261905Y-100154819D01*
X133261905Y-100154819D02*
X133500000Y-100154819D01*
X133500000Y-100154819D02*
X133642857Y-100202438D01*
X133642857Y-100202438D02*
X133738095Y-100297676D01*
X133738095Y-100297676D02*
X133785714Y-100392914D01*
X133785714Y-100392914D02*
X133833333Y-100583390D01*
X133833333Y-100583390D02*
X133833333Y-100726247D01*
X133833333Y-100726247D02*
X133785714Y-100916723D01*
X133785714Y-100916723D02*
X133738095Y-101011961D01*
X133738095Y-101011961D02*
X133642857Y-101107200D01*
X133642857Y-101107200D02*
X133500000Y-101154819D01*
X133500000Y-101154819D02*
X133261905Y-101154819D01*
X134166667Y-100154819D02*
X134785714Y-100154819D01*
X134785714Y-100154819D02*
X134452381Y-100535771D01*
X134452381Y-100535771D02*
X134595238Y-100535771D01*
X134595238Y-100535771D02*
X134690476Y-100583390D01*
X134690476Y-100583390D02*
X134738095Y-100631009D01*
X134738095Y-100631009D02*
X134785714Y-100726247D01*
X134785714Y-100726247D02*
X134785714Y-100964342D01*
X134785714Y-100964342D02*
X134738095Y-101059580D01*
X134738095Y-101059580D02*
X134690476Y-101107200D01*
X134690476Y-101107200D02*
X134595238Y-101154819D01*
X134595238Y-101154819D02*
X134309524Y-101154819D01*
X134309524Y-101154819D02*
X134214286Y-101107200D01*
X134214286Y-101107200D02*
X134166667Y-101059580D01*
X127824405Y-146304819D02*
X127824405Y-145304819D01*
X127824405Y-145304819D02*
X128062500Y-145304819D01*
X128062500Y-145304819D02*
X128205357Y-145352438D01*
X128205357Y-145352438D02*
X128300595Y-145447676D01*
X128300595Y-145447676D02*
X128348214Y-145542914D01*
X128348214Y-145542914D02*
X128395833Y-145733390D01*
X128395833Y-145733390D02*
X128395833Y-145876247D01*
X128395833Y-145876247D02*
X128348214Y-146066723D01*
X128348214Y-146066723D02*
X128300595Y-146161961D01*
X128300595Y-146161961D02*
X128205357Y-146257200D01*
X128205357Y-146257200D02*
X128062500Y-146304819D01*
X128062500Y-146304819D02*
X127824405Y-146304819D01*
X128729167Y-145304819D02*
X129395833Y-145304819D01*
X129395833Y-145304819D02*
X128967262Y-146304819D01*
X109988095Y-141254819D02*
X109988095Y-140254819D01*
X109988095Y-140731009D02*
X110559523Y-140731009D01*
X110559523Y-141254819D02*
X110559523Y-140254819D01*
X111511904Y-140254819D02*
X111035714Y-140254819D01*
X111035714Y-140254819D02*
X110988095Y-140731009D01*
X110988095Y-140731009D02*
X111035714Y-140683390D01*
X111035714Y-140683390D02*
X111130952Y-140635771D01*
X111130952Y-140635771D02*
X111369047Y-140635771D01*
X111369047Y-140635771D02*
X111464285Y-140683390D01*
X111464285Y-140683390D02*
X111511904Y-140731009D01*
X111511904Y-140731009D02*
X111559523Y-140826247D01*
X111559523Y-140826247D02*
X111559523Y-141064342D01*
X111559523Y-141064342D02*
X111511904Y-141159580D01*
X111511904Y-141159580D02*
X111464285Y-141207200D01*
X111464285Y-141207200D02*
X111369047Y-141254819D01*
X111369047Y-141254819D02*
X111130952Y-141254819D01*
X111130952Y-141254819D02*
X111035714Y-141207200D01*
X111035714Y-141207200D02*
X110988095Y-141159580D01*
X212261905Y-120054819D02*
X212261905Y-119054819D01*
X212261905Y-119054819D02*
X212500000Y-119054819D01*
X212500000Y-119054819D02*
X212642857Y-119102438D01*
X212642857Y-119102438D02*
X212738095Y-119197676D01*
X212738095Y-119197676D02*
X212785714Y-119292914D01*
X212785714Y-119292914D02*
X212833333Y-119483390D01*
X212833333Y-119483390D02*
X212833333Y-119626247D01*
X212833333Y-119626247D02*
X212785714Y-119816723D01*
X212785714Y-119816723D02*
X212738095Y-119911961D01*
X212738095Y-119911961D02*
X212642857Y-120007200D01*
X212642857Y-120007200D02*
X212500000Y-120054819D01*
X212500000Y-120054819D02*
X212261905Y-120054819D01*
X213738095Y-119054819D02*
X213261905Y-119054819D01*
X213261905Y-119054819D02*
X213214286Y-119531009D01*
X213214286Y-119531009D02*
X213261905Y-119483390D01*
X213261905Y-119483390D02*
X213357143Y-119435771D01*
X213357143Y-119435771D02*
X213595238Y-119435771D01*
X213595238Y-119435771D02*
X213690476Y-119483390D01*
X213690476Y-119483390D02*
X213738095Y-119531009D01*
X213738095Y-119531009D02*
X213785714Y-119626247D01*
X213785714Y-119626247D02*
X213785714Y-119864342D01*
X213785714Y-119864342D02*
X213738095Y-119959580D01*
X213738095Y-119959580D02*
X213690476Y-120007200D01*
X213690476Y-120007200D02*
X213595238Y-120054819D01*
X213595238Y-120054819D02*
X213357143Y-120054819D01*
X213357143Y-120054819D02*
X213261905Y-120007200D01*
X213261905Y-120007200D02*
X213214286Y-119959580D01*
X131157200Y-129523809D02*
X131204819Y-129380952D01*
X131204819Y-129380952D02*
X131204819Y-129142857D01*
X131204819Y-129142857D02*
X131157200Y-129047619D01*
X131157200Y-129047619D02*
X131109580Y-129000000D01*
X131109580Y-129000000D02*
X131014342Y-128952381D01*
X131014342Y-128952381D02*
X130919104Y-128952381D01*
X130919104Y-128952381D02*
X130823866Y-129000000D01*
X130823866Y-129000000D02*
X130776247Y-129047619D01*
X130776247Y-129047619D02*
X130728628Y-129142857D01*
X130728628Y-129142857D02*
X130681009Y-129333333D01*
X130681009Y-129333333D02*
X130633390Y-129428571D01*
X130633390Y-129428571D02*
X130585771Y-129476190D01*
X130585771Y-129476190D02*
X130490533Y-129523809D01*
X130490533Y-129523809D02*
X130395295Y-129523809D01*
X130395295Y-129523809D02*
X130300057Y-129476190D01*
X130300057Y-129476190D02*
X130252438Y-129428571D01*
X130252438Y-129428571D02*
X130204819Y-129333333D01*
X130204819Y-129333333D02*
X130204819Y-129095238D01*
X130204819Y-129095238D02*
X130252438Y-128952381D01*
X130538152Y-128666666D02*
X130538152Y-128285714D01*
X130204819Y-128523809D02*
X131061961Y-128523809D01*
X131061961Y-128523809D02*
X131157200Y-128476190D01*
X131157200Y-128476190D02*
X131204819Y-128380952D01*
X131204819Y-128380952D02*
X131204819Y-128285714D01*
X131204819Y-127952380D02*
X130538152Y-127952380D01*
X130204819Y-127952380D02*
X130252438Y-127999999D01*
X130252438Y-127999999D02*
X130300057Y-127952380D01*
X130300057Y-127952380D02*
X130252438Y-127904761D01*
X130252438Y-127904761D02*
X130204819Y-127952380D01*
X130204819Y-127952380D02*
X130300057Y-127952380D01*
X131157200Y-127047619D02*
X131204819Y-127142857D01*
X131204819Y-127142857D02*
X131204819Y-127333333D01*
X131204819Y-127333333D02*
X131157200Y-127428571D01*
X131157200Y-127428571D02*
X131109580Y-127476190D01*
X131109580Y-127476190D02*
X131014342Y-127523809D01*
X131014342Y-127523809D02*
X130728628Y-127523809D01*
X130728628Y-127523809D02*
X130633390Y-127476190D01*
X130633390Y-127476190D02*
X130585771Y-127428571D01*
X130585771Y-127428571D02*
X130538152Y-127333333D01*
X130538152Y-127333333D02*
X130538152Y-127142857D01*
X130538152Y-127142857D02*
X130585771Y-127047619D01*
X131204819Y-126619047D02*
X130204819Y-126619047D01*
X130823866Y-126523809D02*
X131204819Y-126238095D01*
X130538152Y-126238095D02*
X130919104Y-126619047D01*
X131204819Y-125333333D02*
X131204819Y-125809523D01*
X131204819Y-125809523D02*
X130204819Y-125809523D01*
X131204819Y-124476190D02*
X131204819Y-125047618D01*
X131204819Y-124761904D02*
X130204819Y-124761904D01*
X130204819Y-124761904D02*
X130347676Y-124857142D01*
X130347676Y-124857142D02*
X130442914Y-124952380D01*
X130442914Y-124952380D02*
X130490533Y-125047618D01*
D11*
X114375234Y-97449059D02*
X114941304Y-97527134D01*
X114521637Y-98478718D02*
X114658269Y-97488097D01*
X115134879Y-98563300D02*
X115225967Y-97902886D01*
X115199942Y-98091575D02*
X115260127Y-98003737D01*
X115260127Y-98003737D02*
X115313806Y-97963071D01*
X115313806Y-97963071D02*
X115414657Y-97928911D01*
X115414657Y-97928911D02*
X115509002Y-97941923D01*
X115748122Y-98647882D02*
X115839210Y-97987467D01*
X115884754Y-97657260D02*
X115831075Y-97697926D01*
X115831075Y-97697926D02*
X115871741Y-97751605D01*
X115871741Y-97751605D02*
X115925420Y-97710939D01*
X115925420Y-97710939D02*
X115884754Y-97657260D01*
X115884754Y-97657260D02*
X115871741Y-97751605D01*
X116735486Y-98111087D02*
X116624879Y-98913019D01*
X116624879Y-98913019D02*
X116564694Y-99000857D01*
X116564694Y-99000857D02*
X116511016Y-99041524D01*
X116511016Y-99041524D02*
X116410164Y-99075683D01*
X116410164Y-99075683D02*
X116268647Y-99056165D01*
X116268647Y-99056165D02*
X116180808Y-98995980D01*
X116650905Y-98724329D02*
X116550053Y-98758489D01*
X116550053Y-98758489D02*
X116361364Y-98732464D01*
X116361364Y-98732464D02*
X116273525Y-98672279D01*
X116273525Y-98672279D02*
X116232859Y-98618600D01*
X116232859Y-98618600D02*
X116198699Y-98517749D01*
X116198699Y-98517749D02*
X116237736Y-98234714D01*
X116237736Y-98234714D02*
X116297922Y-98146875D01*
X116297922Y-98146875D02*
X116351600Y-98106209D01*
X116351600Y-98106209D02*
X116452452Y-98072049D01*
X116452452Y-98072049D02*
X116641141Y-98098074D01*
X116641141Y-98098074D02*
X116728980Y-98158259D01*
X117631763Y-98234706D02*
X117521157Y-99036638D01*
X117521157Y-99036638D02*
X117460971Y-99124477D01*
X117460971Y-99124477D02*
X117407293Y-99165143D01*
X117407293Y-99165143D02*
X117306442Y-99199303D01*
X117306442Y-99199303D02*
X117164924Y-99179784D01*
X117164924Y-99179784D02*
X117077085Y-99119599D01*
X117547182Y-98847948D02*
X117446330Y-98882108D01*
X117446330Y-98882108D02*
X117257641Y-98856083D01*
X117257641Y-98856083D02*
X117169802Y-98795898D01*
X117169802Y-98795898D02*
X117129136Y-98742219D01*
X117129136Y-98742219D02*
X117094976Y-98641368D01*
X117094976Y-98641368D02*
X117134014Y-98358333D01*
X117134014Y-98358333D02*
X117194199Y-98270494D01*
X117194199Y-98270494D02*
X117247877Y-98229828D01*
X117247877Y-98229828D02*
X117348729Y-98195668D01*
X117348729Y-98195668D02*
X117537418Y-98221694D01*
X117537418Y-98221694D02*
X117625257Y-98281879D01*
X118396286Y-98965061D02*
X118295435Y-98999221D01*
X118295435Y-98999221D02*
X118106745Y-98973196D01*
X118106745Y-98973196D02*
X118018906Y-98913011D01*
X118018906Y-98913011D02*
X117984747Y-98812160D01*
X117984747Y-98812160D02*
X118036797Y-98434780D01*
X118036797Y-98434780D02*
X118096982Y-98346941D01*
X118096982Y-98346941D02*
X118197833Y-98312782D01*
X118197833Y-98312782D02*
X118386523Y-98338807D01*
X118386523Y-98338807D02*
X118474362Y-98398992D01*
X118474362Y-98398992D02*
X118508522Y-98499843D01*
X118508522Y-98499843D02*
X118495509Y-98594188D01*
X118495509Y-98594188D02*
X118010772Y-98623470D01*
X118861505Y-99077297D02*
X118952593Y-98416882D01*
X118926568Y-98605572D02*
X118986753Y-98517733D01*
X118986753Y-98517733D02*
X119040431Y-98477067D01*
X119040431Y-98477067D02*
X119141283Y-98442907D01*
X119141283Y-98442907D02*
X119235628Y-98455920D01*
X119946472Y-99226941D02*
X119474747Y-99161878D01*
X119474747Y-99161878D02*
X119611379Y-98171257D01*
X120795577Y-99344054D02*
X120229507Y-99265979D01*
X120512542Y-99305017D02*
X120649174Y-98314395D01*
X120649174Y-98314395D02*
X120535310Y-98442900D01*
X120535310Y-98442900D02*
X120427952Y-98524232D01*
X120427952Y-98524232D02*
X120327101Y-98558392D01*
D10*
X164551009Y-115214285D02*
X164598628Y-115071428D01*
X164598628Y-115071428D02*
X164646247Y-115023809D01*
X164646247Y-115023809D02*
X164741485Y-114976190D01*
X164741485Y-114976190D02*
X164884342Y-114976190D01*
X164884342Y-114976190D02*
X164979580Y-115023809D01*
X164979580Y-115023809D02*
X165027200Y-115071428D01*
X165027200Y-115071428D02*
X165074819Y-115166666D01*
X165074819Y-115166666D02*
X165074819Y-115547618D01*
X165074819Y-115547618D02*
X164074819Y-115547618D01*
X164074819Y-115547618D02*
X164074819Y-115214285D01*
X164074819Y-115214285D02*
X164122438Y-115119047D01*
X164122438Y-115119047D02*
X164170057Y-115071428D01*
X164170057Y-115071428D02*
X164265295Y-115023809D01*
X164265295Y-115023809D02*
X164360533Y-115023809D01*
X164360533Y-115023809D02*
X164455771Y-115071428D01*
X164455771Y-115071428D02*
X164503390Y-115119047D01*
X164503390Y-115119047D02*
X164551009Y-115214285D01*
X164551009Y-115214285D02*
X164551009Y-115547618D01*
X164408152Y-114119047D02*
X165074819Y-114119047D01*
X164408152Y-114547618D02*
X164931961Y-114547618D01*
X164931961Y-114547618D02*
X165027200Y-114499999D01*
X165027200Y-114499999D02*
X165074819Y-114404761D01*
X165074819Y-114404761D02*
X165074819Y-114261904D01*
X165074819Y-114261904D02*
X165027200Y-114166666D01*
X165027200Y-114166666D02*
X164979580Y-114119047D01*
X165074819Y-113642856D02*
X164408152Y-113642856D01*
X164503390Y-113642856D02*
X164455771Y-113595237D01*
X164455771Y-113595237D02*
X164408152Y-113499999D01*
X164408152Y-113499999D02*
X164408152Y-113357142D01*
X164408152Y-113357142D02*
X164455771Y-113261904D01*
X164455771Y-113261904D02*
X164551009Y-113214285D01*
X164551009Y-113214285D02*
X165074819Y-113214285D01*
X164551009Y-113214285D02*
X164455771Y-113166666D01*
X164455771Y-113166666D02*
X164408152Y-113071428D01*
X164408152Y-113071428D02*
X164408152Y-112928571D01*
X164408152Y-112928571D02*
X164455771Y-112833332D01*
X164455771Y-112833332D02*
X164551009Y-112785713D01*
X164551009Y-112785713D02*
X165074819Y-112785713D01*
X164408152Y-112309523D02*
X165408152Y-112309523D01*
X164455771Y-112309523D02*
X164408152Y-112214285D01*
X164408152Y-112214285D02*
X164408152Y-112023809D01*
X164408152Y-112023809D02*
X164455771Y-111928571D01*
X164455771Y-111928571D02*
X164503390Y-111880952D01*
X164503390Y-111880952D02*
X164598628Y-111833333D01*
X164598628Y-111833333D02*
X164884342Y-111833333D01*
X164884342Y-111833333D02*
X164979580Y-111880952D01*
X164979580Y-111880952D02*
X165027200Y-111928571D01*
X165027200Y-111928571D02*
X165074819Y-112023809D01*
X165074819Y-112023809D02*
X165074819Y-112214285D01*
X165074819Y-112214285D02*
X165027200Y-112309523D01*
X165027200Y-111023809D02*
X165074819Y-111119047D01*
X165074819Y-111119047D02*
X165074819Y-111309523D01*
X165074819Y-111309523D02*
X165027200Y-111404761D01*
X165027200Y-111404761D02*
X164931961Y-111452380D01*
X164931961Y-111452380D02*
X164551009Y-111452380D01*
X164551009Y-111452380D02*
X164455771Y-111404761D01*
X164455771Y-111404761D02*
X164408152Y-111309523D01*
X164408152Y-111309523D02*
X164408152Y-111119047D01*
X164408152Y-111119047D02*
X164455771Y-111023809D01*
X164455771Y-111023809D02*
X164551009Y-110976190D01*
X164551009Y-110976190D02*
X164646247Y-110976190D01*
X164646247Y-110976190D02*
X164741485Y-111452380D01*
X165074819Y-110547618D02*
X164408152Y-110547618D01*
X164598628Y-110547618D02*
X164503390Y-110499999D01*
X164503390Y-110499999D02*
X164455771Y-110452380D01*
X164455771Y-110452380D02*
X164408152Y-110357142D01*
X164408152Y-110357142D02*
X164408152Y-110261904D01*
X165074819Y-109357142D02*
X164598628Y-109690475D01*
X165074819Y-109928570D02*
X164074819Y-109928570D01*
X164074819Y-109928570D02*
X164074819Y-109547618D01*
X164074819Y-109547618D02*
X164122438Y-109452380D01*
X164122438Y-109452380D02*
X164170057Y-109404761D01*
X164170057Y-109404761D02*
X164265295Y-109357142D01*
X164265295Y-109357142D02*
X164408152Y-109357142D01*
X164408152Y-109357142D02*
X164503390Y-109404761D01*
X164503390Y-109404761D02*
X164551009Y-109452380D01*
X164551009Y-109452380D02*
X164598628Y-109547618D01*
X164598628Y-109547618D02*
X164598628Y-109928570D01*
X165074819Y-108404761D02*
X165074819Y-108976189D01*
X165074819Y-108690475D02*
X164074819Y-108690475D01*
X164074819Y-108690475D02*
X164217676Y-108785713D01*
X164217676Y-108785713D02*
X164312914Y-108880951D01*
X164312914Y-108880951D02*
X164360533Y-108976189D01*
X196485952Y-127014488D02*
X196667380Y-127074964D01*
X196667380Y-127074964D02*
X196727857Y-127135440D01*
X196727857Y-127135440D02*
X196788333Y-127256392D01*
X196788333Y-127256392D02*
X196788333Y-127437821D01*
X196788333Y-127437821D02*
X196727857Y-127558773D01*
X196727857Y-127558773D02*
X196667380Y-127619250D01*
X196667380Y-127619250D02*
X196546428Y-127679726D01*
X196546428Y-127679726D02*
X196062618Y-127679726D01*
X196062618Y-127679726D02*
X196062618Y-126409726D01*
X196062618Y-126409726D02*
X196485952Y-126409726D01*
X196485952Y-126409726D02*
X196606904Y-126470202D01*
X196606904Y-126470202D02*
X196667380Y-126530678D01*
X196667380Y-126530678D02*
X196727857Y-126651630D01*
X196727857Y-126651630D02*
X196727857Y-126772583D01*
X196727857Y-126772583D02*
X196667380Y-126893535D01*
X196667380Y-126893535D02*
X196606904Y-126954011D01*
X196606904Y-126954011D02*
X196485952Y-127014488D01*
X196485952Y-127014488D02*
X196062618Y-127014488D01*
X197997857Y-127679726D02*
X197272142Y-127679726D01*
X197634999Y-127679726D02*
X197634999Y-126409726D01*
X197634999Y-126409726D02*
X197514047Y-126591154D01*
X197514047Y-126591154D02*
X197393095Y-126712107D01*
X197393095Y-126712107D02*
X197272142Y-126772583D01*
X147066904Y-99679726D02*
X147066904Y-98409726D01*
X147066904Y-99014488D02*
X147792619Y-99014488D01*
X147792619Y-99679726D02*
X147792619Y-98409726D01*
X148578809Y-99679726D02*
X148457857Y-99619250D01*
X148457857Y-99619250D02*
X148397380Y-99558773D01*
X148397380Y-99558773D02*
X148336904Y-99437821D01*
X148336904Y-99437821D02*
X148336904Y-99074964D01*
X148336904Y-99074964D02*
X148397380Y-98954011D01*
X148397380Y-98954011D02*
X148457857Y-98893535D01*
X148457857Y-98893535D02*
X148578809Y-98833059D01*
X148578809Y-98833059D02*
X148760238Y-98833059D01*
X148760238Y-98833059D02*
X148881190Y-98893535D01*
X148881190Y-98893535D02*
X148941666Y-98954011D01*
X148941666Y-98954011D02*
X149002142Y-99074964D01*
X149002142Y-99074964D02*
X149002142Y-99437821D01*
X149002142Y-99437821D02*
X148941666Y-99558773D01*
X148941666Y-99558773D02*
X148881190Y-99619250D01*
X148881190Y-99619250D02*
X148760238Y-99679726D01*
X148760238Y-99679726D02*
X148578809Y-99679726D01*
X149546428Y-99679726D02*
X149546428Y-98833059D01*
X149546428Y-98954011D02*
X149606905Y-98893535D01*
X149606905Y-98893535D02*
X149727857Y-98833059D01*
X149727857Y-98833059D02*
X149909286Y-98833059D01*
X149909286Y-98833059D02*
X150030238Y-98893535D01*
X150030238Y-98893535D02*
X150090714Y-99014488D01*
X150090714Y-99014488D02*
X150090714Y-99679726D01*
X150090714Y-99014488D02*
X150151190Y-98893535D01*
X150151190Y-98893535D02*
X150272143Y-98833059D01*
X150272143Y-98833059D02*
X150453571Y-98833059D01*
X150453571Y-98833059D02*
X150574524Y-98893535D01*
X150574524Y-98893535D02*
X150635000Y-99014488D01*
X150635000Y-99014488D02*
X150635000Y-99679726D01*
X151723571Y-99619250D02*
X151602619Y-99679726D01*
X151602619Y-99679726D02*
X151360714Y-99679726D01*
X151360714Y-99679726D02*
X151239761Y-99619250D01*
X151239761Y-99619250D02*
X151179285Y-99498297D01*
X151179285Y-99498297D02*
X151179285Y-99014488D01*
X151179285Y-99014488D02*
X151239761Y-98893535D01*
X151239761Y-98893535D02*
X151360714Y-98833059D01*
X151360714Y-98833059D02*
X151602619Y-98833059D01*
X151602619Y-98833059D02*
X151723571Y-98893535D01*
X151723571Y-98893535D02*
X151784047Y-99014488D01*
X151784047Y-99014488D02*
X151784047Y-99135440D01*
X151784047Y-99135440D02*
X151179285Y-99256392D01*
X152993571Y-99679726D02*
X152267856Y-99679726D01*
X152630713Y-99679726D02*
X152630713Y-98409726D01*
X152630713Y-98409726D02*
X152509761Y-98591154D01*
X152509761Y-98591154D02*
X152388809Y-98712107D01*
X152388809Y-98712107D02*
X152267856Y-98772583D01*
X163988095Y-95504819D02*
X163988095Y-94504819D01*
X163988095Y-94981009D02*
X164559523Y-94981009D01*
X164559523Y-95504819D02*
X164559523Y-94504819D01*
X165559523Y-95504819D02*
X164988095Y-95504819D01*
X165273809Y-95504819D02*
X165273809Y-94504819D01*
X165273809Y-94504819D02*
X165178571Y-94647676D01*
X165178571Y-94647676D02*
X165083333Y-94742914D01*
X165083333Y-94742914D02*
X164988095Y-94790533D01*
X117006428Y-147179726D02*
X117006428Y-145909726D01*
X117006428Y-145909726D02*
X117308809Y-145909726D01*
X117308809Y-145909726D02*
X117490238Y-145970202D01*
X117490238Y-145970202D02*
X117611190Y-146091154D01*
X117611190Y-146091154D02*
X117671667Y-146212107D01*
X117671667Y-146212107D02*
X117732143Y-146454011D01*
X117732143Y-146454011D02*
X117732143Y-146635440D01*
X117732143Y-146635440D02*
X117671667Y-146877345D01*
X117671667Y-146877345D02*
X117611190Y-146998297D01*
X117611190Y-146998297D02*
X117490238Y-147119250D01*
X117490238Y-147119250D02*
X117308809Y-147179726D01*
X117308809Y-147179726D02*
X117006428Y-147179726D01*
X118518333Y-145909726D02*
X118760238Y-145909726D01*
X118760238Y-145909726D02*
X118881190Y-145970202D01*
X118881190Y-145970202D02*
X119002143Y-146091154D01*
X119002143Y-146091154D02*
X119062619Y-146333059D01*
X119062619Y-146333059D02*
X119062619Y-146756392D01*
X119062619Y-146756392D02*
X119002143Y-146998297D01*
X119002143Y-146998297D02*
X118881190Y-147119250D01*
X118881190Y-147119250D02*
X118760238Y-147179726D01*
X118760238Y-147179726D02*
X118518333Y-147179726D01*
X118518333Y-147179726D02*
X118397381Y-147119250D01*
X118397381Y-147119250D02*
X118276428Y-146998297D01*
X118276428Y-146998297D02*
X118215952Y-146756392D01*
X118215952Y-146756392D02*
X118215952Y-146333059D01*
X118215952Y-146333059D02*
X118276428Y-146091154D01*
X118276428Y-146091154D02*
X118397381Y-145970202D01*
X118397381Y-145970202D02*
X118518333Y-145909726D01*
X119485952Y-145909726D02*
X119788333Y-147179726D01*
X119788333Y-147179726D02*
X120030238Y-146272583D01*
X120030238Y-146272583D02*
X120272143Y-147179726D01*
X120272143Y-147179726D02*
X120574524Y-145909726D01*
X121058333Y-147179726D02*
X121058333Y-145909726D01*
X121058333Y-145909726D02*
X121784048Y-147179726D01*
X121784048Y-147179726D02*
X121784048Y-145909726D01*
X123054048Y-147179726D02*
X122328333Y-147179726D01*
X122691190Y-147179726D02*
X122691190Y-145909726D01*
X122691190Y-145909726D02*
X122570238Y-146091154D01*
X122570238Y-146091154D02*
X122449286Y-146212107D01*
X122449286Y-146212107D02*
X122328333Y-146272583D01*
X186824405Y-112404819D02*
X186824405Y-111404819D01*
X186824405Y-111404819D02*
X187062500Y-111404819D01*
X187062500Y-111404819D02*
X187205357Y-111452438D01*
X187205357Y-111452438D02*
X187300595Y-111547676D01*
X187300595Y-111547676D02*
X187348214Y-111642914D01*
X187348214Y-111642914D02*
X187395833Y-111833390D01*
X187395833Y-111833390D02*
X187395833Y-111976247D01*
X187395833Y-111976247D02*
X187348214Y-112166723D01*
X187348214Y-112166723D02*
X187300595Y-112261961D01*
X187300595Y-112261961D02*
X187205357Y-112357200D01*
X187205357Y-112357200D02*
X187062500Y-112404819D01*
X187062500Y-112404819D02*
X186824405Y-112404819D01*
X188252976Y-111404819D02*
X188062500Y-111404819D01*
X188062500Y-111404819D02*
X187967262Y-111452438D01*
X187967262Y-111452438D02*
X187919643Y-111500057D01*
X187919643Y-111500057D02*
X187824405Y-111642914D01*
X187824405Y-111642914D02*
X187776786Y-111833390D01*
X187776786Y-111833390D02*
X187776786Y-112214342D01*
X187776786Y-112214342D02*
X187824405Y-112309580D01*
X187824405Y-112309580D02*
X187872024Y-112357200D01*
X187872024Y-112357200D02*
X187967262Y-112404819D01*
X187967262Y-112404819D02*
X188157738Y-112404819D01*
X188157738Y-112404819D02*
X188252976Y-112357200D01*
X188252976Y-112357200D02*
X188300595Y-112309580D01*
X188300595Y-112309580D02*
X188348214Y-112214342D01*
X188348214Y-112214342D02*
X188348214Y-111976247D01*
X188348214Y-111976247D02*
X188300595Y-111881009D01*
X188300595Y-111881009D02*
X188252976Y-111833390D01*
X188252976Y-111833390D02*
X188157738Y-111785771D01*
X188157738Y-111785771D02*
X187967262Y-111785771D01*
X187967262Y-111785771D02*
X187872024Y-111833390D01*
X187872024Y-111833390D02*
X187824405Y-111881009D01*
X187824405Y-111881009D02*
X187776786Y-111976247D01*
X118397380Y-129909726D02*
X118397380Y-130937821D01*
X118397380Y-130937821D02*
X118457857Y-131058773D01*
X118457857Y-131058773D02*
X118518333Y-131119250D01*
X118518333Y-131119250D02*
X118639285Y-131179726D01*
X118639285Y-131179726D02*
X118881190Y-131179726D01*
X118881190Y-131179726D02*
X119002142Y-131119250D01*
X119002142Y-131119250D02*
X119062619Y-131058773D01*
X119062619Y-131058773D02*
X119123095Y-130937821D01*
X119123095Y-130937821D02*
X119123095Y-129909726D01*
X119727856Y-131179726D02*
X119727856Y-129909726D01*
X119727856Y-129909726D02*
X120211666Y-129909726D01*
X120211666Y-129909726D02*
X120332618Y-129970202D01*
X120332618Y-129970202D02*
X120393095Y-130030678D01*
X120393095Y-130030678D02*
X120453571Y-130151630D01*
X120453571Y-130151630D02*
X120453571Y-130333059D01*
X120453571Y-130333059D02*
X120393095Y-130454011D01*
X120393095Y-130454011D02*
X120332618Y-130514488D01*
X120332618Y-130514488D02*
X120211666Y-130574964D01*
X120211666Y-130574964D02*
X119727856Y-130574964D01*
X121663095Y-131179726D02*
X120937380Y-131179726D01*
X121300237Y-131179726D02*
X121300237Y-129909726D01*
X121300237Y-129909726D02*
X121179285Y-130091154D01*
X121179285Y-130091154D02*
X121058333Y-130212107D01*
X121058333Y-130212107D02*
X120937380Y-130272583D01*
X187471904Y-117909726D02*
X188318571Y-119179726D01*
X188318571Y-117909726D02*
X187471904Y-119179726D01*
X189467619Y-119179726D02*
X188741904Y-119179726D01*
X189104761Y-119179726D02*
X189104761Y-117909726D01*
X189104761Y-117909726D02*
X188983809Y-118091154D01*
X188983809Y-118091154D02*
X188862857Y-118212107D01*
X188862857Y-118212107D02*
X188741904Y-118272583D01*
X196684453Y-110138140D02*
X196767093Y-110737229D01*
X196174187Y-109536990D02*
X196684453Y-110138140D01*
X196684453Y-110138140D02*
X197012911Y-109421294D01*
X198264815Y-110530628D02*
X197545909Y-110629796D01*
X197905362Y-110580212D02*
X197731817Y-109322126D01*
X197731817Y-109322126D02*
X197636792Y-109518380D01*
X197636792Y-109518380D02*
X197533502Y-109654726D01*
X197533502Y-109654726D02*
X197421948Y-109731163D01*
X170761905Y-114954819D02*
X170761905Y-113954819D01*
X170761905Y-113954819D02*
X171000000Y-113954819D01*
X171000000Y-113954819D02*
X171142857Y-114002438D01*
X171142857Y-114002438D02*
X171238095Y-114097676D01*
X171238095Y-114097676D02*
X171285714Y-114192914D01*
X171285714Y-114192914D02*
X171333333Y-114383390D01*
X171333333Y-114383390D02*
X171333333Y-114526247D01*
X171333333Y-114526247D02*
X171285714Y-114716723D01*
X171285714Y-114716723D02*
X171238095Y-114811961D01*
X171238095Y-114811961D02*
X171142857Y-114907200D01*
X171142857Y-114907200D02*
X171000000Y-114954819D01*
X171000000Y-114954819D02*
X170761905Y-114954819D01*
X171714286Y-114050057D02*
X171761905Y-114002438D01*
X171761905Y-114002438D02*
X171857143Y-113954819D01*
X171857143Y-113954819D02*
X172095238Y-113954819D01*
X172095238Y-113954819D02*
X172190476Y-114002438D01*
X172190476Y-114002438D02*
X172238095Y-114050057D01*
X172238095Y-114050057D02*
X172285714Y-114145295D01*
X172285714Y-114145295D02*
X172285714Y-114240533D01*
X172285714Y-114240533D02*
X172238095Y-114383390D01*
X172238095Y-114383390D02*
X171666667Y-114954819D01*
X171666667Y-114954819D02*
X172285714Y-114954819D01*
X135311009Y-115119047D02*
X135358628Y-114976190D01*
X135358628Y-114976190D02*
X135406247Y-114928571D01*
X135406247Y-114928571D02*
X135501485Y-114880952D01*
X135501485Y-114880952D02*
X135644342Y-114880952D01*
X135644342Y-114880952D02*
X135739580Y-114928571D01*
X135739580Y-114928571D02*
X135787200Y-114976190D01*
X135787200Y-114976190D02*
X135834819Y-115071428D01*
X135834819Y-115071428D02*
X135834819Y-115452380D01*
X135834819Y-115452380D02*
X134834819Y-115452380D01*
X134834819Y-115452380D02*
X134834819Y-115119047D01*
X134834819Y-115119047D02*
X134882438Y-115023809D01*
X134882438Y-115023809D02*
X134930057Y-114976190D01*
X134930057Y-114976190D02*
X135025295Y-114928571D01*
X135025295Y-114928571D02*
X135120533Y-114928571D01*
X135120533Y-114928571D02*
X135215771Y-114976190D01*
X135215771Y-114976190D02*
X135263390Y-115023809D01*
X135263390Y-115023809D02*
X135311009Y-115119047D01*
X135311009Y-115119047D02*
X135311009Y-115452380D01*
X135168152Y-114023809D02*
X135834819Y-114023809D01*
X135168152Y-114452380D02*
X135691961Y-114452380D01*
X135691961Y-114452380D02*
X135787200Y-114404761D01*
X135787200Y-114404761D02*
X135834819Y-114309523D01*
X135834819Y-114309523D02*
X135834819Y-114166666D01*
X135834819Y-114166666D02*
X135787200Y-114071428D01*
X135787200Y-114071428D02*
X135739580Y-114023809D01*
X135834819Y-113547618D02*
X135168152Y-113547618D01*
X135263390Y-113547618D02*
X135215771Y-113499999D01*
X135215771Y-113499999D02*
X135168152Y-113404761D01*
X135168152Y-113404761D02*
X135168152Y-113261904D01*
X135168152Y-113261904D02*
X135215771Y-113166666D01*
X135215771Y-113166666D02*
X135311009Y-113119047D01*
X135311009Y-113119047D02*
X135834819Y-113119047D01*
X135311009Y-113119047D02*
X135215771Y-113071428D01*
X135215771Y-113071428D02*
X135168152Y-112976190D01*
X135168152Y-112976190D02*
X135168152Y-112833333D01*
X135168152Y-112833333D02*
X135215771Y-112738094D01*
X135215771Y-112738094D02*
X135311009Y-112690475D01*
X135311009Y-112690475D02*
X135834819Y-112690475D01*
X135168152Y-112214285D02*
X136168152Y-112214285D01*
X135215771Y-112214285D02*
X135168152Y-112119047D01*
X135168152Y-112119047D02*
X135168152Y-111928571D01*
X135168152Y-111928571D02*
X135215771Y-111833333D01*
X135215771Y-111833333D02*
X135263390Y-111785714D01*
X135263390Y-111785714D02*
X135358628Y-111738095D01*
X135358628Y-111738095D02*
X135644342Y-111738095D01*
X135644342Y-111738095D02*
X135739580Y-111785714D01*
X135739580Y-111785714D02*
X135787200Y-111833333D01*
X135787200Y-111833333D02*
X135834819Y-111928571D01*
X135834819Y-111928571D02*
X135834819Y-112119047D01*
X135834819Y-112119047D02*
X135787200Y-112214285D01*
X135787200Y-110928571D02*
X135834819Y-111023809D01*
X135834819Y-111023809D02*
X135834819Y-111214285D01*
X135834819Y-111214285D02*
X135787200Y-111309523D01*
X135787200Y-111309523D02*
X135691961Y-111357142D01*
X135691961Y-111357142D02*
X135311009Y-111357142D01*
X135311009Y-111357142D02*
X135215771Y-111309523D01*
X135215771Y-111309523D02*
X135168152Y-111214285D01*
X135168152Y-111214285D02*
X135168152Y-111023809D01*
X135168152Y-111023809D02*
X135215771Y-110928571D01*
X135215771Y-110928571D02*
X135311009Y-110880952D01*
X135311009Y-110880952D02*
X135406247Y-110880952D01*
X135406247Y-110880952D02*
X135501485Y-111357142D01*
X135834819Y-110452380D02*
X135168152Y-110452380D01*
X135358628Y-110452380D02*
X135263390Y-110404761D01*
X135263390Y-110404761D02*
X135215771Y-110357142D01*
X135215771Y-110357142D02*
X135168152Y-110261904D01*
X135168152Y-110261904D02*
X135168152Y-110166666D01*
X135834819Y-109357142D02*
X135834819Y-109833332D01*
X135834819Y-109833332D02*
X134834819Y-109833332D01*
X135834819Y-108499999D02*
X135834819Y-109071427D01*
X135834819Y-108785713D02*
X134834819Y-108785713D01*
X134834819Y-108785713D02*
X134977676Y-108880951D01*
X134977676Y-108880951D02*
X135072914Y-108976189D01*
X135072914Y-108976189D02*
X135120533Y-109071427D01*
X110185714Y-139179726D02*
X109580952Y-139179726D01*
X109580952Y-139179726D02*
X109580952Y-137909726D01*
X110609047Y-138514488D02*
X111032381Y-138514488D01*
X111213809Y-139179726D02*
X110609047Y-139179726D01*
X110609047Y-139179726D02*
X110609047Y-137909726D01*
X110609047Y-137909726D02*
X111213809Y-137909726D01*
X112181429Y-138514488D02*
X111758095Y-138514488D01*
X111758095Y-139179726D02*
X111758095Y-137909726D01*
X111758095Y-137909726D02*
X112362857Y-137909726D01*
X112665238Y-137909726D02*
X113390952Y-137909726D01*
X113028095Y-139179726D02*
X113028095Y-137909726D01*
X114479524Y-139179726D02*
X113753809Y-139179726D01*
X114116666Y-139179726D02*
X114116666Y-137909726D01*
X114116666Y-137909726D02*
X113995714Y-138091154D01*
X113995714Y-138091154D02*
X113874762Y-138212107D01*
X113874762Y-138212107D02*
X113753809Y-138272583D01*
D11*
X178939270Y-98384655D02*
X179505339Y-98306579D01*
X179358936Y-99336239D02*
X179222304Y-98345617D01*
X179972179Y-99251657D02*
X179881091Y-98591242D01*
X179907116Y-98779932D02*
X179941276Y-98679081D01*
X179941276Y-98679081D02*
X179981942Y-98625402D01*
X179981942Y-98625402D02*
X180069781Y-98565217D01*
X180069781Y-98565217D02*
X180164126Y-98552205D01*
X180585421Y-99167075D02*
X180494333Y-98506661D01*
X180448789Y-98176453D02*
X180408123Y-98230132D01*
X180408123Y-98230132D02*
X180461802Y-98270798D01*
X180461802Y-98270798D02*
X180502468Y-98217120D01*
X180502468Y-98217120D02*
X180448789Y-98176453D01*
X180448789Y-98176453D02*
X180461802Y-98270798D01*
X181390610Y-98383041D02*
X181501217Y-99184973D01*
X181501217Y-99184973D02*
X181467057Y-99285825D01*
X181467057Y-99285825D02*
X181426390Y-99339503D01*
X181426390Y-99339503D02*
X181338552Y-99399688D01*
X181338552Y-99399688D02*
X181197034Y-99419207D01*
X181197034Y-99419207D02*
X181096183Y-99385047D01*
X181475191Y-98996283D02*
X181387353Y-99056468D01*
X181387353Y-99056468D02*
X181198663Y-99082494D01*
X181198663Y-99082494D02*
X181097812Y-99048334D01*
X181097812Y-99048334D02*
X181044133Y-99007668D01*
X181044133Y-99007668D02*
X180983948Y-98919829D01*
X180983948Y-98919829D02*
X180944910Y-98636794D01*
X180944910Y-98636794D02*
X180979070Y-98535943D01*
X180979070Y-98535943D02*
X181019736Y-98482264D01*
X181019736Y-98482264D02*
X181107575Y-98422079D01*
X181107575Y-98422079D02*
X181296265Y-98396054D01*
X181296265Y-98396054D02*
X181397116Y-98430214D01*
X182286887Y-98259422D02*
X182397494Y-99061354D01*
X182397494Y-99061354D02*
X182363334Y-99162205D01*
X182363334Y-99162205D02*
X182322667Y-99215884D01*
X182322667Y-99215884D02*
X182234829Y-99276069D01*
X182234829Y-99276069D02*
X182093311Y-99295588D01*
X182093311Y-99295588D02*
X181992460Y-99261428D01*
X182371468Y-98872664D02*
X182283630Y-98932849D01*
X182283630Y-98932849D02*
X182094940Y-98958874D01*
X182094940Y-98958874D02*
X181994089Y-98924714D01*
X181994089Y-98924714D02*
X181940410Y-98884048D01*
X181940410Y-98884048D02*
X181880225Y-98796209D01*
X181880225Y-98796209D02*
X181841187Y-98513175D01*
X181841187Y-98513175D02*
X181875347Y-98412323D01*
X181875347Y-98412323D02*
X181916013Y-98358645D01*
X181916013Y-98358645D02*
X182003852Y-98298460D01*
X182003852Y-98298460D02*
X182192542Y-98272434D01*
X182192542Y-98272434D02*
X182293393Y-98306594D01*
X183220573Y-98755551D02*
X183132734Y-98815736D01*
X183132734Y-98815736D02*
X182944044Y-98841761D01*
X182944044Y-98841761D02*
X182843193Y-98807601D01*
X182843193Y-98807601D02*
X182783008Y-98719763D01*
X182783008Y-98719763D02*
X182730958Y-98342383D01*
X182730958Y-98342383D02*
X182765118Y-98241532D01*
X182765118Y-98241532D02*
X182852956Y-98181346D01*
X182852956Y-98181346D02*
X183041646Y-98155321D01*
X183041646Y-98155321D02*
X183142498Y-98189481D01*
X183142498Y-98189481D02*
X183202683Y-98277320D01*
X183202683Y-98277320D02*
X183215695Y-98371665D01*
X183215695Y-98371665D02*
X182756983Y-98531073D01*
X183698804Y-98737660D02*
X183607716Y-98077246D01*
X183633741Y-98265936D02*
X183667901Y-98165085D01*
X183667901Y-98165085D02*
X183708567Y-98111406D01*
X183708567Y-98111406D02*
X183796406Y-98051221D01*
X183796406Y-98051221D02*
X183890751Y-98038208D01*
X184878116Y-98575003D02*
X184482846Y-98148823D01*
X184312047Y-98653079D02*
X184175415Y-97662457D01*
X184175415Y-97662457D02*
X184552794Y-97610407D01*
X184552794Y-97610407D02*
X184653646Y-97644566D01*
X184653646Y-97644566D02*
X184707324Y-97685233D01*
X184707324Y-97685233D02*
X184767509Y-97773071D01*
X184767509Y-97773071D02*
X184787028Y-97914589D01*
X184787028Y-97914589D02*
X184752868Y-98015440D01*
X184752868Y-98015440D02*
X184712202Y-98069119D01*
X184712202Y-98069119D02*
X184624363Y-98129304D01*
X184624363Y-98129304D02*
X184246984Y-98181354D01*
X185821566Y-98444878D02*
X185255496Y-98522953D01*
X185538531Y-98483915D02*
X185401899Y-97493293D01*
X185401899Y-97493293D02*
X185327073Y-97647823D01*
X185327073Y-97647823D02*
X185245740Y-97755181D01*
X185245740Y-97755181D02*
X185157902Y-97815366D01*
D10*
X205988095Y-102754819D02*
X205988095Y-101754819D01*
X205988095Y-102231009D02*
X206559523Y-102231009D01*
X206559523Y-102754819D02*
X206559523Y-101754819D01*
X206940476Y-101754819D02*
X207559523Y-101754819D01*
X207559523Y-101754819D02*
X207226190Y-102135771D01*
X207226190Y-102135771D02*
X207369047Y-102135771D01*
X207369047Y-102135771D02*
X207464285Y-102183390D01*
X207464285Y-102183390D02*
X207511904Y-102231009D01*
X207511904Y-102231009D02*
X207559523Y-102326247D01*
X207559523Y-102326247D02*
X207559523Y-102564342D01*
X207559523Y-102564342D02*
X207511904Y-102659580D01*
X207511904Y-102659580D02*
X207464285Y-102707200D01*
X207464285Y-102707200D02*
X207369047Y-102754819D01*
X207369047Y-102754819D02*
X207083333Y-102754819D01*
X207083333Y-102754819D02*
X206988095Y-102707200D01*
X206988095Y-102707200D02*
X206940476Y-102659580D01*
X197657200Y-138619047D02*
X197704819Y-138476190D01*
X197704819Y-138476190D02*
X197704819Y-138238095D01*
X197704819Y-138238095D02*
X197657200Y-138142857D01*
X197657200Y-138142857D02*
X197609580Y-138095238D01*
X197609580Y-138095238D02*
X197514342Y-138047619D01*
X197514342Y-138047619D02*
X197419104Y-138047619D01*
X197419104Y-138047619D02*
X197323866Y-138095238D01*
X197323866Y-138095238D02*
X197276247Y-138142857D01*
X197276247Y-138142857D02*
X197228628Y-138238095D01*
X197228628Y-138238095D02*
X197181009Y-138428571D01*
X197181009Y-138428571D02*
X197133390Y-138523809D01*
X197133390Y-138523809D02*
X197085771Y-138571428D01*
X197085771Y-138571428D02*
X196990533Y-138619047D01*
X196990533Y-138619047D02*
X196895295Y-138619047D01*
X196895295Y-138619047D02*
X196800057Y-138571428D01*
X196800057Y-138571428D02*
X196752438Y-138523809D01*
X196752438Y-138523809D02*
X196704819Y-138428571D01*
X196704819Y-138428571D02*
X196704819Y-138190476D01*
X196704819Y-138190476D02*
X196752438Y-138047619D01*
X197038152Y-137761904D02*
X197038152Y-137380952D01*
X196704819Y-137619047D02*
X197561961Y-137619047D01*
X197561961Y-137619047D02*
X197657200Y-137571428D01*
X197657200Y-137571428D02*
X197704819Y-137476190D01*
X197704819Y-137476190D02*
X197704819Y-137380952D01*
X197704819Y-137047618D02*
X197038152Y-137047618D01*
X196704819Y-137047618D02*
X196752438Y-137095237D01*
X196752438Y-137095237D02*
X196800057Y-137047618D01*
X196800057Y-137047618D02*
X196752438Y-136999999D01*
X196752438Y-136999999D02*
X196704819Y-137047618D01*
X196704819Y-137047618D02*
X196800057Y-137047618D01*
X197657200Y-136142857D02*
X197704819Y-136238095D01*
X197704819Y-136238095D02*
X197704819Y-136428571D01*
X197704819Y-136428571D02*
X197657200Y-136523809D01*
X197657200Y-136523809D02*
X197609580Y-136571428D01*
X197609580Y-136571428D02*
X197514342Y-136619047D01*
X197514342Y-136619047D02*
X197228628Y-136619047D01*
X197228628Y-136619047D02*
X197133390Y-136571428D01*
X197133390Y-136571428D02*
X197085771Y-136523809D01*
X197085771Y-136523809D02*
X197038152Y-136428571D01*
X197038152Y-136428571D02*
X197038152Y-136238095D01*
X197038152Y-136238095D02*
X197085771Y-136142857D01*
X197704819Y-135714285D02*
X196704819Y-135714285D01*
X197323866Y-135619047D02*
X197704819Y-135333333D01*
X197038152Y-135333333D02*
X197419104Y-135714285D01*
X197704819Y-134333333D02*
X197228628Y-134666666D01*
X197704819Y-134904761D02*
X196704819Y-134904761D01*
X196704819Y-134904761D02*
X196704819Y-134523809D01*
X196704819Y-134523809D02*
X196752438Y-134428571D01*
X196752438Y-134428571D02*
X196800057Y-134380952D01*
X196800057Y-134380952D02*
X196895295Y-134333333D01*
X196895295Y-134333333D02*
X197038152Y-134333333D01*
X197038152Y-134333333D02*
X197133390Y-134380952D01*
X197133390Y-134380952D02*
X197181009Y-134428571D01*
X197181009Y-134428571D02*
X197228628Y-134523809D01*
X197228628Y-134523809D02*
X197228628Y-134904761D01*
X197704819Y-133380952D02*
X197704819Y-133952380D01*
X197704819Y-133666666D02*
X196704819Y-133666666D01*
X196704819Y-133666666D02*
X196847676Y-133761904D01*
X196847676Y-133761904D02*
X196942914Y-133857142D01*
X196942914Y-133857142D02*
X196990533Y-133952380D01*
X126738095Y-124504819D02*
X126738095Y-123504819D01*
X126738095Y-123981009D02*
X127309523Y-123981009D01*
X127309523Y-124504819D02*
X127309523Y-123504819D01*
X128214285Y-123838152D02*
X128214285Y-124504819D01*
X127976190Y-123457200D02*
X127738095Y-124171485D01*
X127738095Y-124171485D02*
X128357142Y-124171485D01*
X113261905Y-129454819D02*
X113261905Y-128454819D01*
X113261905Y-128454819D02*
X113500000Y-128454819D01*
X113500000Y-128454819D02*
X113642857Y-128502438D01*
X113642857Y-128502438D02*
X113738095Y-128597676D01*
X113738095Y-128597676D02*
X113785714Y-128692914D01*
X113785714Y-128692914D02*
X113833333Y-128883390D01*
X113833333Y-128883390D02*
X113833333Y-129026247D01*
X113833333Y-129026247D02*
X113785714Y-129216723D01*
X113785714Y-129216723D02*
X113738095Y-129311961D01*
X113738095Y-129311961D02*
X113642857Y-129407200D01*
X113642857Y-129407200D02*
X113500000Y-129454819D01*
X113500000Y-129454819D02*
X113261905Y-129454819D01*
X114404762Y-128883390D02*
X114309524Y-128835771D01*
X114309524Y-128835771D02*
X114261905Y-128788152D01*
X114261905Y-128788152D02*
X114214286Y-128692914D01*
X114214286Y-128692914D02*
X114214286Y-128645295D01*
X114214286Y-128645295D02*
X114261905Y-128550057D01*
X114261905Y-128550057D02*
X114309524Y-128502438D01*
X114309524Y-128502438D02*
X114404762Y-128454819D01*
X114404762Y-128454819D02*
X114595238Y-128454819D01*
X114595238Y-128454819D02*
X114690476Y-128502438D01*
X114690476Y-128502438D02*
X114738095Y-128550057D01*
X114738095Y-128550057D02*
X114785714Y-128645295D01*
X114785714Y-128645295D02*
X114785714Y-128692914D01*
X114785714Y-128692914D02*
X114738095Y-128788152D01*
X114738095Y-128788152D02*
X114690476Y-128835771D01*
X114690476Y-128835771D02*
X114595238Y-128883390D01*
X114595238Y-128883390D02*
X114404762Y-128883390D01*
X114404762Y-128883390D02*
X114309524Y-128931009D01*
X114309524Y-128931009D02*
X114261905Y-128978628D01*
X114261905Y-128978628D02*
X114214286Y-129073866D01*
X114214286Y-129073866D02*
X114214286Y-129264342D01*
X114214286Y-129264342D02*
X114261905Y-129359580D01*
X114261905Y-129359580D02*
X114309524Y-129407200D01*
X114309524Y-129407200D02*
X114404762Y-129454819D01*
X114404762Y-129454819D02*
X114595238Y-129454819D01*
X114595238Y-129454819D02*
X114690476Y-129407200D01*
X114690476Y-129407200D02*
X114738095Y-129359580D01*
X114738095Y-129359580D02*
X114785714Y-129264342D01*
X114785714Y-129264342D02*
X114785714Y-129073866D01*
X114785714Y-129073866D02*
X114738095Y-128978628D01*
X114738095Y-128978628D02*
X114690476Y-128931009D01*
X114690476Y-128931009D02*
X114595238Y-128883390D01*
X125701905Y-139179726D02*
X125278571Y-138574964D01*
X124976190Y-139179726D02*
X124976190Y-137909726D01*
X124976190Y-137909726D02*
X125460000Y-137909726D01*
X125460000Y-137909726D02*
X125580952Y-137970202D01*
X125580952Y-137970202D02*
X125641429Y-138030678D01*
X125641429Y-138030678D02*
X125701905Y-138151630D01*
X125701905Y-138151630D02*
X125701905Y-138333059D01*
X125701905Y-138333059D02*
X125641429Y-138454011D01*
X125641429Y-138454011D02*
X125580952Y-138514488D01*
X125580952Y-138514488D02*
X125460000Y-138574964D01*
X125460000Y-138574964D02*
X124976190Y-138574964D01*
X126246190Y-139179726D02*
X126246190Y-137909726D01*
X127516191Y-137970202D02*
X127395238Y-137909726D01*
X127395238Y-137909726D02*
X127213810Y-137909726D01*
X127213810Y-137909726D02*
X127032381Y-137970202D01*
X127032381Y-137970202D02*
X126911429Y-138091154D01*
X126911429Y-138091154D02*
X126850952Y-138212107D01*
X126850952Y-138212107D02*
X126790476Y-138454011D01*
X126790476Y-138454011D02*
X126790476Y-138635440D01*
X126790476Y-138635440D02*
X126850952Y-138877345D01*
X126850952Y-138877345D02*
X126911429Y-138998297D01*
X126911429Y-138998297D02*
X127032381Y-139119250D01*
X127032381Y-139119250D02*
X127213810Y-139179726D01*
X127213810Y-139179726D02*
X127334762Y-139179726D01*
X127334762Y-139179726D02*
X127516191Y-139119250D01*
X127516191Y-139119250D02*
X127576667Y-139058773D01*
X127576667Y-139058773D02*
X127576667Y-138635440D01*
X127576667Y-138635440D02*
X127334762Y-138635440D01*
X128120952Y-139179726D02*
X128120952Y-137909726D01*
X128120952Y-138514488D02*
X128846667Y-138514488D01*
X128846667Y-139179726D02*
X128846667Y-137909726D01*
X129270000Y-137909726D02*
X129995714Y-137909726D01*
X129632857Y-139179726D02*
X129632857Y-137909726D01*
X131084286Y-139179726D02*
X130358571Y-139179726D01*
X130721428Y-139179726D02*
X130721428Y-137909726D01*
X130721428Y-137909726D02*
X130600476Y-138091154D01*
X130600476Y-138091154D02*
X130479524Y-138212107D01*
X130479524Y-138212107D02*
X130358571Y-138272583D01*
X157261905Y-101854819D02*
X157261905Y-100854819D01*
X157261905Y-100854819D02*
X157500000Y-100854819D01*
X157500000Y-100854819D02*
X157642857Y-100902438D01*
X157642857Y-100902438D02*
X157738095Y-100997676D01*
X157738095Y-100997676D02*
X157785714Y-101092914D01*
X157785714Y-101092914D02*
X157833333Y-101283390D01*
X157833333Y-101283390D02*
X157833333Y-101426247D01*
X157833333Y-101426247D02*
X157785714Y-101616723D01*
X157785714Y-101616723D02*
X157738095Y-101711961D01*
X157738095Y-101711961D02*
X157642857Y-101807200D01*
X157642857Y-101807200D02*
X157500000Y-101854819D01*
X157500000Y-101854819D02*
X157261905Y-101854819D01*
X158690476Y-101188152D02*
X158690476Y-101854819D01*
X158452381Y-100807200D02*
X158214286Y-101521485D01*
X158214286Y-101521485D02*
X158833333Y-101521485D01*
D12*
X211965164Y-150012150D02*
X211965164Y-149498103D01*
X211965164Y-149498103D02*
X211934926Y-149437627D01*
X211934926Y-149437627D02*
X211904688Y-149407389D01*
X211904688Y-149407389D02*
X211844212Y-149377150D01*
X211844212Y-149377150D02*
X211723259Y-149377150D01*
X211723259Y-149377150D02*
X211662783Y-149407389D01*
X211662783Y-149407389D02*
X211632545Y-149437627D01*
X211632545Y-149437627D02*
X211602307Y-149498103D01*
X211602307Y-149498103D02*
X211602307Y-150012150D01*
X210967307Y-149377150D02*
X211330164Y-149377150D01*
X211148736Y-149377150D02*
X211148736Y-150012150D01*
X211148736Y-150012150D02*
X211209212Y-149921436D01*
X211209212Y-149921436D02*
X211269688Y-149860960D01*
X211269688Y-149860960D02*
X211330164Y-149830722D01*
X211647663Y-148666555D02*
X211617425Y-148696793D01*
X211617425Y-148696793D02*
X211556949Y-148727031D01*
X211556949Y-148727031D02*
X211435997Y-148666555D01*
X211435997Y-148666555D02*
X211375520Y-148696793D01*
X211375520Y-148696793D02*
X211345282Y-148727031D01*
D10*
X174733333Y-121254819D02*
X174400000Y-120778628D01*
X174161905Y-121254819D02*
X174161905Y-120254819D01*
X174161905Y-120254819D02*
X174542857Y-120254819D01*
X174542857Y-120254819D02*
X174638095Y-120302438D01*
X174638095Y-120302438D02*
X174685714Y-120350057D01*
X174685714Y-120350057D02*
X174733333Y-120445295D01*
X174733333Y-120445295D02*
X174733333Y-120588152D01*
X174733333Y-120588152D02*
X174685714Y-120683390D01*
X174685714Y-120683390D02*
X174638095Y-120731009D01*
X174638095Y-120731009D02*
X174542857Y-120778628D01*
X174542857Y-120778628D02*
X174161905Y-120778628D01*
X175114286Y-120350057D02*
X175161905Y-120302438D01*
X175161905Y-120302438D02*
X175257143Y-120254819D01*
X175257143Y-120254819D02*
X175495238Y-120254819D01*
X175495238Y-120254819D02*
X175590476Y-120302438D01*
X175590476Y-120302438D02*
X175638095Y-120350057D01*
X175638095Y-120350057D02*
X175685714Y-120445295D01*
X175685714Y-120445295D02*
X175685714Y-120540533D01*
X175685714Y-120540533D02*
X175638095Y-120683390D01*
X175638095Y-120683390D02*
X175066667Y-121254819D01*
X175066667Y-121254819D02*
X175685714Y-121254819D01*
X204592857Y-118816869D02*
X205197619Y-118816869D01*
X204471905Y-119179726D02*
X204895238Y-117909726D01*
X204895238Y-117909726D02*
X205318572Y-119179726D01*
X206407143Y-119179726D02*
X205681428Y-119179726D01*
X206044285Y-119179726D02*
X206044285Y-117909726D01*
X206044285Y-117909726D02*
X205923333Y-118091154D01*
X205923333Y-118091154D02*
X205802381Y-118212107D01*
X205802381Y-118212107D02*
X205681428Y-118272583D01*
D11*
X169776189Y-127523533D02*
X169014285Y-127523533D01*
X169395237Y-127142580D02*
X169395237Y-127904485D01*
X168538094Y-127523533D02*
X167776190Y-127523533D01*
X166776190Y-127142580D02*
X167347618Y-127142580D01*
X167061904Y-127142580D02*
X167061904Y-128142580D01*
X167061904Y-128142580D02*
X167157142Y-127999723D01*
X167157142Y-127999723D02*
X167252380Y-127904485D01*
X167252380Y-127904485D02*
X167347618Y-127856866D01*
D10*
X133011905Y-117204819D02*
X133011905Y-116204819D01*
X133011905Y-116204819D02*
X133250000Y-116204819D01*
X133250000Y-116204819D02*
X133392857Y-116252438D01*
X133392857Y-116252438D02*
X133488095Y-116347676D01*
X133488095Y-116347676D02*
X133535714Y-116442914D01*
X133535714Y-116442914D02*
X133583333Y-116633390D01*
X133583333Y-116633390D02*
X133583333Y-116776247D01*
X133583333Y-116776247D02*
X133535714Y-116966723D01*
X133535714Y-116966723D02*
X133488095Y-117061961D01*
X133488095Y-117061961D02*
X133392857Y-117157200D01*
X133392857Y-117157200D02*
X133250000Y-117204819D01*
X133250000Y-117204819D02*
X133011905Y-117204819D01*
X134535714Y-117204819D02*
X133964286Y-117204819D01*
X134250000Y-117204819D02*
X134250000Y-116204819D01*
X134250000Y-116204819D02*
X134154762Y-116347676D01*
X134154762Y-116347676D02*
X134059524Y-116442914D01*
X134059524Y-116442914D02*
X133964286Y-116490533D01*
D13*
%TO.C,C1*%
X177223752Y-121765000D02*
X176701248Y-121765000D01*
X177223752Y-123235000D02*
X176701248Y-123235000D01*
D11*
%TO.C,Select1*%
X139300000Y-102320000D02*
X139300000Y-108720000D01*
X139300000Y-102320000D02*
X145700000Y-102320000D01*
X145700000Y-102320000D02*
X145700000Y-108720000D01*
X145700000Y-108720000D02*
X139300000Y-108720000D01*
D13*
%TO.C,ClickStickR1*%
X165620000Y-120580000D02*
X165620000Y-119200000D01*
X167000000Y-120580000D02*
X165620000Y-120580000D01*
X168270000Y-117820000D02*
X173460000Y-117820000D01*
X168270000Y-120580000D02*
X168270000Y-117820000D01*
X168270000Y-120580000D02*
X173460000Y-120580000D01*
X173460000Y-120580000D02*
X173460000Y-117820000D01*
%TO.C,R1*%
X180772936Y-121765000D02*
X181227064Y-121765000D01*
X180772936Y-123235000D02*
X181227064Y-123235000D01*
%TO.C,ClickStickL1*%
X126540000Y-117820000D02*
X126540000Y-120580000D01*
X131730000Y-117820000D02*
X126540000Y-117820000D01*
X131730000Y-117820000D02*
X131730000Y-120580000D01*
X131730000Y-120580000D02*
X126540000Y-120580000D01*
X133000000Y-117820000D02*
X134380000Y-117820000D01*
X134380000Y-117820000D02*
X134380000Y-119200000D01*
D11*
%TO.C,Start1*%
X154300000Y-102320000D02*
X154300000Y-108720000D01*
X154300000Y-102320000D02*
X160700000Y-102320000D01*
X160700000Y-102320000D02*
X160700000Y-108720000D01*
X160700000Y-108720000D02*
X154300000Y-108720000D01*
D14*
%TO.C,SW17*%
X217768800Y-106118500D02*
X217768800Y-114881500D01*
X217768800Y-114881500D02*
X221731200Y-114881500D01*
X221731200Y-106118500D02*
X217768800Y-106118500D01*
X221731200Y-114881500D02*
X221731200Y-106118500D01*
D13*
%TO.C,D3*%
X133240000Y-96440000D02*
X134760000Y-96440000D01*
X133240000Y-97440000D02*
X133240000Y-96440000D01*
X133240000Y-99560000D02*
X133240000Y-98560000D01*
X134760000Y-96440000D02*
X134760000Y-96490000D01*
X134760000Y-97610000D02*
X134760000Y-98390000D01*
X134760000Y-99510000D02*
X134760000Y-99560000D01*
X134760000Y-99560000D02*
X133240000Y-99560000D01*
X135300000Y-98380000D02*
X135060000Y-98050000D01*
X135540000Y-98050000D01*
X135300000Y-98380000D01*
G36*
X135300000Y-98380000D02*
G01*
X135060000Y-98050000D01*
X135540000Y-98050000D01*
X135300000Y-98380000D01*
G37*
%TO.C,D7*%
X127802500Y-141890000D02*
X129322500Y-141890000D01*
X127802500Y-142890000D02*
X127802500Y-141890000D01*
X127802500Y-145010000D02*
X127802500Y-144010000D01*
X129322500Y-141890000D02*
X129322500Y-141940000D01*
X129322500Y-143060000D02*
X129322500Y-143840000D01*
X129322500Y-144960000D02*
X129322500Y-145010000D01*
X129322500Y-145010000D02*
X127802500Y-145010000D01*
X129862500Y-143830000D02*
X129622500Y-143500000D01*
X130102500Y-143500000D01*
X129862500Y-143830000D01*
G36*
X129862500Y-143830000D02*
G01*
X129622500Y-143500000D01*
X130102500Y-143500000D01*
X129862500Y-143830000D01*
G37*
%TO.C,D5*%
X212240000Y-120440000D02*
X213760000Y-120440000D01*
X212240000Y-120490000D02*
X212240000Y-120440000D01*
X212240000Y-122390000D02*
X212240000Y-121610000D01*
X212240000Y-123560000D02*
X212240000Y-123510000D01*
X213760000Y-120440000D02*
X213760000Y-121440000D01*
X213760000Y-122560000D02*
X213760000Y-123560000D01*
X213760000Y-123560000D02*
X212240000Y-123560000D01*
X211940000Y-121950000D02*
X211460000Y-121950000D01*
X211700000Y-121620000D01*
X211940000Y-121950000D01*
G36*
X211940000Y-121950000D02*
G01*
X211460000Y-121950000D01*
X211700000Y-121620000D01*
X211940000Y-121950000D01*
G37*
%TO.C,StickL1*%
X131620000Y-129580000D02*
X131620000Y-121850000D01*
X134380000Y-121850000D02*
X131620000Y-121850000D01*
X134380000Y-129580000D02*
X131620000Y-129580000D01*
X134380000Y-129580000D02*
X134380000Y-121850000D01*
X134380000Y-130850000D02*
X134380000Y-132230000D01*
X134380000Y-132230000D02*
X133000000Y-132230000D01*
D14*
%TO.C,TriggerL1*%
X114989164Y-101767017D02*
X115300975Y-101810024D01*
X115062014Y-101238832D02*
X114989164Y-101767017D01*
X115232096Y-100005691D02*
X115107189Y-100911303D01*
X118954858Y-102313987D02*
X119266669Y-102356994D01*
X119266669Y-102356994D02*
X119339519Y-101828809D01*
X119384694Y-101501280D02*
X119509601Y-100595668D01*
X119509601Y-100595668D02*
X115232096Y-100005691D01*
D15*
X113704277Y-100832136D02*
G75*
G02*
X112942275Y-100832136I-381001J0D01*
G01*
X112942275Y-100832136D02*
G75*
G02*
X113704277Y-100832136I381001J0D01*
G01*
D13*
%TO.C,BumperR1*%
X165620000Y-113380000D02*
X165620000Y-112000000D01*
X167000000Y-113380000D02*
X165620000Y-113380000D01*
X168270000Y-110620000D02*
X173460000Y-110620000D01*
X168270000Y-113380000D02*
X168270000Y-110620000D01*
X168270000Y-113380000D02*
X173460000Y-113380000D01*
X173460000Y-113380000D02*
X173460000Y-110620000D01*
D11*
%TO.C,B1*%
X193800000Y-121820000D02*
X193800000Y-128220000D01*
X193800000Y-121820000D02*
X200200000Y-121820000D01*
X200200000Y-121820000D02*
X200200000Y-128220000D01*
X200200000Y-128220000D02*
X193800000Y-128220000D01*
%TO.C,Home1*%
X146800000Y-93820000D02*
X146800000Y-100220000D01*
X146800000Y-93820000D02*
X153200000Y-93820000D01*
X153200000Y-93820000D02*
X153200000Y-100220000D01*
X153200000Y-100220000D02*
X146800000Y-100220000D01*
%TO.C,DOWN1*%
X116800000Y-141320000D02*
X116800000Y-147720000D01*
X116800000Y-141320000D02*
X123200000Y-141320000D01*
X123200000Y-141320000D02*
X123200000Y-147720000D01*
X123200000Y-147720000D02*
X116800000Y-147720000D01*
D13*
%TO.C,D6*%
X186802500Y-107990000D02*
X188322500Y-107990000D01*
X186802500Y-108990000D02*
X186802500Y-107990000D01*
X186802500Y-111110000D02*
X186802500Y-110110000D01*
X188322500Y-107990000D02*
X188322500Y-108040000D01*
X188322500Y-109160000D02*
X188322500Y-109940000D01*
X188322500Y-111060000D02*
X188322500Y-111110000D01*
X188322500Y-111110000D02*
X186802500Y-111110000D01*
X188862500Y-109930000D02*
X188622500Y-109600000D01*
X189102500Y-109600000D01*
X188862500Y-109930000D01*
G36*
X188862500Y-109930000D02*
G01*
X188622500Y-109600000D01*
X189102500Y-109600000D01*
X188862500Y-109930000D01*
G37*
D11*
%TO.C,UP1*%
X116800000Y-125320000D02*
X116800000Y-131720000D01*
X116800000Y-125320000D02*
X123200000Y-125320000D01*
X123200000Y-125320000D02*
X123200000Y-131720000D01*
X123200000Y-131720000D02*
X116800000Y-131720000D01*
%TO.C,X1*%
X185300000Y-113320000D02*
X185300000Y-119720000D01*
X185300000Y-113320000D02*
X191700000Y-113320000D01*
X191700000Y-113320000D02*
X191700000Y-119720000D01*
X191700000Y-119720000D02*
X185300000Y-119720000D01*
%TO.C,Y1*%
X193395473Y-105287108D02*
X194270028Y-111627072D01*
X193395473Y-105287108D02*
X199735438Y-104412552D01*
X199735438Y-104412552D02*
X200609993Y-110752517D01*
X200609993Y-110752517D02*
X194270028Y-111627072D01*
D13*
%TO.C,D2*%
X168840000Y-114040000D02*
X170360000Y-114040000D01*
X168840000Y-114090000D02*
X168840000Y-114040000D01*
X168840000Y-115990000D02*
X168840000Y-115210000D01*
X168840000Y-117160000D02*
X168840000Y-117110000D01*
X170360000Y-114040000D02*
X170360000Y-115040000D01*
X170360000Y-116160000D02*
X170360000Y-117160000D01*
X170360000Y-117160000D02*
X168840000Y-117160000D01*
X168540000Y-115550000D02*
X168060000Y-115550000D01*
X168300000Y-115220000D01*
X168540000Y-115550000D01*
G36*
X168540000Y-115550000D02*
G01*
X168060000Y-115550000D01*
X168300000Y-115220000D01*
X168540000Y-115550000D01*
G37*
%TO.C,BumperL1*%
X126540000Y-110620000D02*
X126540000Y-113380000D01*
X131730000Y-110620000D02*
X126540000Y-110620000D01*
X131730000Y-110620000D02*
X131730000Y-113380000D01*
X131730000Y-113380000D02*
X126540000Y-113380000D01*
X133000000Y-110620000D02*
X134380000Y-110620000D01*
X134380000Y-110620000D02*
X134380000Y-112000000D01*
D11*
%TO.C,LEFT1*%
X108800000Y-133320000D02*
X108800000Y-139720000D01*
X108800000Y-133320000D02*
X115200000Y-133320000D01*
X115200000Y-133320000D02*
X115200000Y-139720000D01*
X115200000Y-139720000D02*
X108800000Y-139720000D01*
D14*
%TO.C,TriggerR1*%
X180550567Y-100600865D02*
X180675474Y-101506477D01*
X180720649Y-101834006D02*
X180793499Y-102362191D01*
X180793499Y-102362191D02*
X181105310Y-102319184D01*
X184759193Y-101815221D02*
X185071004Y-101772214D01*
X184828072Y-100010888D02*
X180550567Y-100600865D01*
X184952979Y-100916500D02*
X184828072Y-100010888D01*
X185071004Y-101772214D02*
X184998154Y-101244029D01*
D15*
X179317737Y-101913173D02*
G75*
G02*
X178555735Y-101913173I-381001J0D01*
G01*
X178555735Y-101913173D02*
G75*
G02*
X179317737Y-101913173I381001J0D01*
G01*
D13*
%TO.C,StickR1*%
X193270000Y-138600000D02*
X193270000Y-130870000D01*
X196030000Y-130870000D02*
X193270000Y-130870000D01*
X196030000Y-138600000D02*
X193270000Y-138600000D01*
X196030000Y-138600000D02*
X196030000Y-130870000D01*
X196030000Y-139870000D02*
X196030000Y-141250000D01*
X196030000Y-141250000D02*
X194650000Y-141250000D01*
%TO.C,D8*%
X113240000Y-129840000D02*
X114760000Y-129840000D01*
X113240000Y-129890000D02*
X113240000Y-129840000D01*
X113240000Y-131790000D02*
X113240000Y-131010000D01*
X113240000Y-132960000D02*
X113240000Y-132910000D01*
X114760000Y-129840000D02*
X114760000Y-130840000D01*
X114760000Y-131960000D02*
X114760000Y-132960000D01*
X114760000Y-132960000D02*
X113240000Y-132960000D01*
X112940000Y-131350000D02*
X112460000Y-131350000D01*
X112700000Y-131020000D01*
X112940000Y-131350000D01*
G36*
X112940000Y-131350000D02*
G01*
X112460000Y-131350000D01*
X112700000Y-131020000D01*
X112940000Y-131350000D01*
G37*
D11*
%TO.C,RIGHT1*%
X124800000Y-133320000D02*
X124800000Y-139720000D01*
X124800000Y-133320000D02*
X131200000Y-133320000D01*
X131200000Y-133320000D02*
X131200000Y-139720000D01*
X131200000Y-139720000D02*
X124800000Y-139720000D01*
D13*
%TO.C,D4*%
X157240000Y-97440000D02*
X158760000Y-97440000D01*
X157240000Y-98440000D02*
X157240000Y-97440000D01*
X157240000Y-100560000D02*
X157240000Y-99560000D01*
X158760000Y-97440000D02*
X158760000Y-97490000D01*
X158760000Y-98610000D02*
X158760000Y-99390000D01*
X158760000Y-100510000D02*
X158760000Y-100560000D01*
X158760000Y-100560000D02*
X157240000Y-100560000D01*
X159300000Y-99380000D02*
X159060000Y-99050000D01*
X159540000Y-99050000D01*
X159300000Y-99380000D01*
G36*
X159300000Y-99380000D02*
G01*
X159060000Y-99050000D01*
X159540000Y-99050000D01*
X159300000Y-99380000D01*
G37*
%TO.C,R2*%
X172772936Y-121765000D02*
X173227064Y-121765000D01*
X172772936Y-123235000D02*
X173227064Y-123235000D01*
D11*
%TO.C,A1*%
X202300000Y-113320000D02*
X202300000Y-119720000D01*
X202300000Y-113320000D02*
X208700000Y-113320000D01*
X208700000Y-113320000D02*
X208700000Y-119720000D01*
X208700000Y-119720000D02*
X202300000Y-119720000D01*
D13*
%TO.C,D1*%
X131040000Y-114040000D02*
X132560000Y-114040000D01*
X131040000Y-114090000D02*
X131040000Y-114040000D01*
X131040000Y-115990000D02*
X131040000Y-115210000D01*
X131040000Y-117160000D02*
X131040000Y-117110000D01*
X132560000Y-114040000D02*
X132560000Y-115040000D01*
X132560000Y-116160000D02*
X132560000Y-117160000D01*
X132560000Y-117160000D02*
X131040000Y-117160000D01*
X130740000Y-115550000D02*
X130260000Y-115550000D01*
X130500000Y-115220000D01*
X130740000Y-115550000D01*
G36*
X130740000Y-115550000D02*
G01*
X130260000Y-115550000D01*
X130500000Y-115220000D01*
X130740000Y-115550000D01*
G37*
%TD*%
M02*
