M48
; DRILL file {KiCad 9.0.6} date 2025-12-29T09:20:10+0100
; FORMAT={-:-/ absolute / metric / decimal}
; #@! TF.CreationDate,2025-12-29T09:20:10+01:00
; #@! TF.GenerationSoftware,Kicad,Pcbnew,9.0.6
; #@! TF.FileFunction,Plated,1,2,PTH
FMAT,2
METRIC
; #@! TA.AperFunction,Plated,PTH,ViaDrill
T1C0.300
; #@! TA.AperFunction,Plated,PTH,ComponentDrill
T2C0.635
; #@! TA.AperFunction,Plated,PTH,ComponentDrill
T3C0.762
; #@! TA.AperFunction,Plated,PTH,ComponentDrill
T4C1.000
; #@! TA.AperFunction,Plated,PTH,ComponentDrill
T5C1.100
; #@! TA.AperFunction,Plated,PTH,ComponentDrill
T6C2.700
%
G90
G05
T1
X115.0Y-128.0
X117.0Y-103.0
X120.0Y-105.5
X121.0Y-109.0
X122.475Y-130.875
X124.0Y-113.0
X125.5Y-115.0
X128.5Y-121.25
X129.425Y-107.22
X133.7Y-114.4
X134.45Y-109.65
X137.0Y-105.8
X143.9Y-103.1
X150.325Y-100.05
X151.8Y-103.8
X162.25Y-105.5
X165.303Y-109.105
X165.8Y-114.75
X167.0Y-110.25
X167.25Y-108.9
X167.5Y-120.75
X168.4Y-109.338
X170.0Y-109.5
X172.9Y-107.3
X174.5Y-115.5
X177.422Y-120.0
X178.0Y-122.5
X178.5Y-118.5
X180.0Y-122.5
X180.75Y-107.0
X183.0Y-103.0
X183.15Y-122.018
X183.444Y-117.169
X184.5Y-122.595
X187.0Y-118.905
X190.425Y-113.9
X192.79Y-122.267
X193.0Y-111.423
X193.0Y-113.0
X194.5Y-117.0
X195.0Y-123.5
X196.422Y-128.738
X197.0Y-120.5
X197.158Y-127.342
X197.342Y-129.658
X198.14Y-127.86
X199.0Y-131.077
X199.048Y-127.923
X199.275Y-110.075
X199.423Y-129.905
X199.5Y-145.5
X199.75Y-118.25
X202.61Y-132.582
X202.61Y-135.122
X204.0Y-122.0
X204.331Y-124.569
X204.4Y-118.967
X205.0Y-119.75
X206.5Y-125.0
X207.0Y-137.5
X208.2Y-124.6
X214.0Y-112.0
X217.653Y-129.847
X217.824Y-140.176
X218.209Y-139.291
X218.289Y-129.211
X218.5Y-136.0
X218.5Y-138.0
X218.5Y-146.0
X218.577Y-134.5
X220.4Y-124.7
T2
X115.965Y-101.197
X117.223Y-101.37
X118.481Y-101.544
X181.579Y-101.549
X182.837Y-101.375
X184.095Y-101.202
T3
X219.75Y-108.0
X219.75Y-110.5
X219.75Y-113.0
T4
X120.5Y-112.96
X120.5Y-115.5
X120.5Y-118.04
X120.5Y-120.58
X127.92Y-112.0
X127.92Y-119.2
X130.46Y-112.0
X130.46Y-119.2
X133.0Y-112.0
X133.0Y-119.2
X167.0Y-112.0
X167.0Y-119.2
X167.0Y-122.5
X169.54Y-112.0
X169.54Y-119.2
X169.8Y-122.5
X172.08Y-112.0
X172.08Y-119.2
X197.0Y-133.19
X197.0Y-135.73
X197.0Y-138.27
X197.0Y-140.81
T5
X109.426Y-136.642
X114.506Y-136.642
X117.426Y-128.642
X117.426Y-144.642
X122.506Y-128.642
X122.506Y-144.642
X125.426Y-136.642
X130.506Y-136.642
X139.96Y-105.594
X145.04Y-105.594
X147.46Y-97.094
X152.54Y-97.094
X154.96Y-105.594
X160.04Y-105.594
X186.009Y-116.642
X191.089Y-116.642
X194.494Y-125.127
X194.518Y-108.504
X199.55Y-107.81
X199.574Y-125.127
X202.979Y-116.642
X208.059Y-116.642
T6
X110.75Y-144.0
X127.5Y-127.25
X164.75Y-98.25
X180.5Y-111.75
X206.75Y-105.5
M30
