%TF.GenerationSoftware,KiCad,Pcbnew,9.0.6*%
%TF.CreationDate,2025-12-29T09:20:14+01:00*%
%TF.ProjectId,pcb_phone_controller,7063625f-7068-46f6-9e65-5f636f6e7472,rev?*%
%TF.SameCoordinates,Original*%
%TF.FileFunction,Soldermask,Bot*%
%TF.FilePolarity,Negative*%
%FSLAX46Y46*%
G04 Gerber Fmt 4.6, Leading zero omitted, Abs format (unit mm)*
G04 Created by KiCad (PCBNEW 9.0.6) date 2025-12-29 09:20:14*
%MOMM*%
%LPD*%
G01*
G04 APERTURE LIST*
G04 Aperture macros list*
%AMRoundRect*
0 Rectangle with rounded corners*
0 $1 Rounding radius*
0 $2 $3 $4 $5 $6 $7 $8 $9 X,Y pos of 4 corners*
0 Add a 4 corners polygon primitive as box body*
4,1,4,$2,$3,$4,$5,$6,$7,$8,$9,$2,$3,0*
0 Add four circle primitives for the rounded corners*
1,1,$1+$1,$2,$3*
1,1,$1+$1,$4,$5*
1,1,$1+$1,$6,$7*
1,1,$1+$1,$8,$9*
0 Add four rect primitives between the rounded corners*
20,1,$1+$1,$2,$3,$4,$5,0*
20,1,$1+$1,$4,$5,$6,$7,0*
20,1,$1+$1,$6,$7,$8,$9,0*
20,1,$1+$1,$8,$9,$2,$3,0*%
G04 Aperture macros list end*
%ADD10C,2.100000*%
%ADD11C,4.500000*%
%ADD12R,1.700000X1.700000*%
%ADD13C,1.700000*%
%ADD14R,1.270000X1.270000*%
%ADD15C,1.270000*%
%ADD16C,1.143000*%
%ADD17RoundRect,0.038100X1.000000X-1.000000X1.000000X1.000000X-1.000000X1.000000X-1.000000X-1.000000X0*%
%ADD18C,2.076200*%
G04 APERTURE END LIST*
D10*
%TO.C,LEFT1*%
X114505876Y-136641938D03*
X109425876Y-136641938D03*
%TD*%
%TO.C,DOWN1*%
X122505876Y-144641938D03*
X117425876Y-144641938D03*
%TD*%
%TO.C,Home1*%
X152540000Y-97093691D03*
X147460000Y-97093691D03*
%TD*%
%TO.C,Select1*%
X139960000Y-105593690D03*
X145040000Y-105593690D03*
%TD*%
D11*
%TO.C,H2*%
X180500000Y-111750000D03*
%TD*%
D12*
%TO.C,ClickStickR1*%
X167000000Y-119200000D03*
D13*
X169540000Y-119200000D03*
X172080000Y-119200000D03*
%TD*%
D12*
%TO.C,ClickStickL1*%
X133000000Y-119200000D03*
D13*
X130460000Y-119200000D03*
X127920000Y-119200000D03*
%TD*%
D10*
%TO.C,Start1*%
X154960000Y-105593690D03*
X160040000Y-105593690D03*
%TD*%
D14*
%TO.C,SW17*%
X219750000Y-108000000D03*
D15*
X219750000Y-110500000D03*
X219750000Y-113000000D03*
%TD*%
D11*
%TO.C,H5*%
X110750000Y-144000000D03*
%TD*%
D12*
%TO.C,StickL1*%
X120500000Y-120580000D03*
D13*
X120500000Y-118040000D03*
X120500000Y-115500000D03*
X120500000Y-112960000D03*
%TD*%
D16*
%TO.C,TriggerL1*%
X118481444Y-101543579D03*
X117223354Y-101370056D03*
X115965264Y-101196534D03*
%TD*%
D12*
%TO.C,BumperR1*%
X167000000Y-112000000D03*
D13*
X169540000Y-112000000D03*
X172080000Y-112000000D03*
%TD*%
D10*
%TO.C,B1*%
X194494124Y-125127219D03*
X199574124Y-125127219D03*
%TD*%
D11*
%TO.C,H1*%
X164750000Y-98250000D03*
%TD*%
D10*
%TO.C,UP1*%
X117425876Y-128641938D03*
X122505876Y-128641938D03*
%TD*%
%TO.C,X1*%
X186008842Y-116641938D03*
X191088842Y-116641938D03*
%TD*%
%TO.C,Y1*%
X194517950Y-108503745D03*
X199550298Y-107809567D03*
%TD*%
D12*
%TO.C,BumperL1*%
X133000000Y-112000000D03*
D13*
X130460000Y-112000000D03*
X127920000Y-112000000D03*
%TD*%
D16*
%TO.C,TriggerR1*%
X184094904Y-101201731D03*
X182836814Y-101375253D03*
X181578724Y-101548776D03*
%TD*%
D11*
%TO.C,H3*%
X206750000Y-105500000D03*
%TD*%
D12*
%TO.C,StickR1*%
X197000000Y-140810000D03*
D13*
X197000000Y-138270000D03*
X197000000Y-135730000D03*
X197000000Y-133190000D03*
%TD*%
D11*
%TO.C,H4*%
X127500000Y-127250000D03*
%TD*%
D10*
%TO.C,RIGHT1*%
X125425876Y-136641938D03*
X130505876Y-136641938D03*
%TD*%
%TO.C,A1*%
X202979405Y-116641938D03*
X208059405Y-116641938D03*
%TD*%
D17*
%TO.C,+-1*%
X169800000Y-122500000D03*
D18*
X167000000Y-122500000D03*
%TD*%
M02*
