%TF.GenerationSoftware,KiCad,Pcbnew,9.0.6*%
%TF.CreationDate,2025-12-28T18:57:25+01:00*%
%TF.ProjectId,pcb_phone_controller,7063625f-7068-46f6-9e65-5f636f6e7472,rev?*%
%TF.SameCoordinates,Original*%
%TF.FileFunction,Copper,L1,Top*%
%TF.FilePolarity,Positive*%
%FSLAX46Y46*%
G04 Gerber Fmt 4.6, Leading zero omitted, Abs format (unit mm)*
G04 Created by KiCad (PCBNEW 9.0.6) date 2025-12-28 18:57:25*
%MOMM*%
%LPD*%
G01*
G04 APERTURE LIST*
G04 Aperture macros list*
%AMRoundRect*
0 Rectangle with rounded corners*
0 $1 Rounding radius*
0 $2 $3 $4 $5 $6 $7 $8 $9 X,Y pos of 4 corners*
0 Add a 4 corners polygon primitive as box body*
4,1,4,$2,$3,$4,$5,$6,$7,$8,$9,$2,$3,0*
0 Add four circle primitives for the rounded corners*
1,1,$1+$1,$2,$3*
1,1,$1+$1,$4,$5*
1,1,$1+$1,$6,$7*
1,1,$1+$1,$8,$9*
0 Add four rect primitives between the rounded corners*
20,1,$1+$1,$2,$3,$4,$5,0*
20,1,$1+$1,$4,$5,$6,$7,0*
20,1,$1+$1,$6,$7,$8,$9,0*
20,1,$1+$1,$8,$9,$2,$3,0*%
G04 Aperture macros list end*
%TA.AperFunction,SMDPad,CuDef*%
%ADD10RoundRect,0.250000X0.337500X0.475000X-0.337500X0.475000X-0.337500X-0.475000X0.337500X-0.475000X0*%
%TD*%
%TA.AperFunction,ComponentPad*%
%ADD11C,2.100000*%
%TD*%
%TA.AperFunction,ComponentPad*%
%ADD12C,4.500000*%
%TD*%
%TA.AperFunction,ComponentPad*%
%ADD13R,1.700000X1.700000*%
%TD*%
%TA.AperFunction,ComponentPad*%
%ADD14C,1.700000*%
%TD*%
%TA.AperFunction,SMDPad,CuDef*%
%ADD15RoundRect,0.250000X-0.350000X-0.450000X0.350000X-0.450000X0.350000X0.450000X-0.350000X0.450000X0*%
%TD*%
%TA.AperFunction,ComponentPad*%
%ADD16R,1.270000X1.270000*%
%TD*%
%TA.AperFunction,ComponentPad*%
%ADD17C,1.270000*%
%TD*%
%TA.AperFunction,SMDPad,CuDef*%
%ADD18RoundRect,0.150000X0.587500X0.150000X-0.587500X0.150000X-0.587500X-0.150000X0.587500X-0.150000X0*%
%TD*%
%TA.AperFunction,SMDPad,CuDef*%
%ADD19RoundRect,0.150000X-0.587500X-0.150000X0.587500X-0.150000X0.587500X0.150000X-0.587500X0.150000X0*%
%TD*%
%TA.AperFunction,ComponentPad*%
%ADD20C,1.143000*%
%TD*%
%TA.AperFunction,SMDPad,CuDef*%
%ADD21RoundRect,0.250000X0.500000X-0.250000X0.500000X0.250000X-0.500000X0.250000X-0.500000X-0.250000X0*%
%TD*%
%TA.AperFunction,SMDPad,CuDef*%
%ADD22RoundRect,0.250000X-0.500000X0.250000X-0.500000X-0.250000X0.500000X-0.250000X0.500000X0.250000X0*%
%TD*%
%TA.AperFunction,ComponentPad*%
%ADD23R,2.000000X2.000000*%
%TD*%
%TA.AperFunction,ComponentPad*%
%ADD24C,2.000000*%
%TD*%
%TA.AperFunction,ViaPad*%
%ADD25C,0.700000*%
%TD*%
%TA.AperFunction,Conductor*%
%ADD26C,0.200000*%
%TD*%
G04 APERTURE END LIST*
D10*
%TO.P,C1,1*%
%TO.N,Net-(C1-Pad1)*%
X178000000Y-122500000D03*
%TO.P,C1,2*%
%TO.N,Net-(C1-Pad2)*%
X175925000Y-122500000D03*
%TD*%
D11*
%TO.P,Select1,1,1*%
%TO.N,Column 0*%
X139960000Y-105500000D03*
%TO.P,Select1,2,2*%
%TO.N,Net-(D3-Pad1)*%
X145040000Y-105500000D03*
%TD*%
D12*
%TO.P,H2,1,1*%
%TO.N,GND*%
X180500000Y-111750000D03*
%TD*%
D13*
%TO.P,ClickStickR1,1,GND*%
%TO.N,GND*%
X167000000Y-119200000D03*
D14*
%TO.P,ClickStickR1,2,I/O*%
%TO.N,Net-(ClickStickR1-I{slash}O)*%
X169540000Y-119200000D03*
%TO.P,ClickStickR1,3,VCC*%
%TO.N,Column 3*%
X172080000Y-119200000D03*
%TD*%
D15*
%TO.P,R1,1*%
%TO.N,Net-(C1-Pad1)*%
X180000000Y-122500000D03*
%TO.P,R1,2*%
%TO.N,+BAT*%
X182000000Y-122500000D03*
%TD*%
D13*
%TO.P,ClickStickL1,1,GND*%
%TO.N,GND*%
X133000000Y-119200000D03*
D14*
%TO.P,ClickStickL1,2,I/O*%
%TO.N,Net-(ClickStickL1-I{slash}O)*%
X130460000Y-119200000D03*
%TO.P,ClickStickL1,3,VCC*%
%TO.N,Column 1*%
X127920000Y-119200000D03*
%TD*%
D11*
%TO.P,Start1,1,1*%
%TO.N,Column 2*%
X154960000Y-105500000D03*
%TO.P,Start1,2,2*%
%TO.N,Net-(D4-Pad1)*%
X160040000Y-105500000D03*
%TD*%
D16*
%TO.P,SW17,1,1*%
%TO.N,unconnected-(SW17-Pad1)*%
X219750000Y-108000000D03*
D17*
%TO.P,SW17,2,2*%
%TO.N,+BAT*%
X219750000Y-110500000D03*
%TO.P,SW17,3,3*%
%TO.N,Net-(+-1-BAT+)*%
X219750000Y-113000000D03*
%TD*%
D18*
%TO.P,D3,1*%
%TO.N,Net-(D3-Pad1)*%
X134937500Y-98950000D03*
%TO.P,D3,2*%
%TO.N,Net-(D3-Pad2)*%
X134937500Y-97050000D03*
%TO.P,D3,3*%
%TO.N,Row 1*%
X133062500Y-98000000D03*
%TD*%
%TO.P,D7,1*%
%TO.N,Net-(D7-Pad1)*%
X129500000Y-144400000D03*
%TO.P,D7,2*%
%TO.N,Net-(D7-Pad2)*%
X129500000Y-142500000D03*
%TO.P,D7,3*%
%TO.N,Row 3*%
X127625000Y-143450000D03*
%TD*%
D12*
%TO.P,H5,1,1*%
%TO.N,GND*%
X110750000Y-144000000D03*
%TD*%
D19*
%TO.P,D5,1*%
%TO.N,Net-(A1-Pad2)*%
X212062500Y-121050000D03*
%TO.P,D5,2*%
%TO.N,Net-(B1-Pad1)*%
X212062500Y-122950000D03*
%TO.P,D5,3*%
%TO.N,Row 2*%
X213937500Y-122000000D03*
%TD*%
D13*
%TO.P,StickL1,1,GND*%
%TO.N,GND*%
X133000000Y-130850000D03*
D14*
%TO.P,StickL1,2,Y*%
%TO.N,Net-(StickL1-Y)*%
X133000000Y-128310000D03*
%TO.P,StickL1,3,3V3*%
%TO.N,+3.3V*%
X133000000Y-125770000D03*
%TO.P,StickL1,4,X*%
%TO.N,Net-(StickL1-X)*%
X133000000Y-123230000D03*
%TD*%
D20*
%TO.P,TriggerL1,1,VDD*%
%TO.N,+3.3V*%
X118481444Y-101543579D03*
%TO.P,TriggerL1,2,GND*%
%TO.N,GND*%
X117223354Y-101370056D03*
%TO.P,TriggerL1,3,OUT*%
%TO.N,Net-(TriggerL1-OUT)*%
X115965264Y-101196534D03*
%TD*%
D13*
%TO.P,BumperR1,1,GND*%
%TO.N,GND*%
X167000000Y-112000000D03*
D14*
%TO.P,BumperR1,2,I/O*%
%TO.N,Net-(BumperR1-I{slash}O)*%
X169540000Y-112000000D03*
%TO.P,BumperR1,3,VCC*%
%TO.N,Column 2*%
X172080000Y-112000000D03*
%TD*%
D11*
%TO.P,B1,1,1*%
%TO.N,Net-(B1-Pad1)*%
X194460000Y-125000000D03*
%TO.P,B1,2,2*%
%TO.N,Column 1*%
X199540000Y-125000000D03*
%TD*%
%TO.P,Home1,1,1*%
%TO.N,Net-(D3-Pad2)*%
X147460000Y-97000000D03*
%TO.P,Home1,2,2*%
%TO.N,Column 1*%
X152540000Y-97000000D03*
%TD*%
D12*
%TO.P,H1,1,1*%
%TO.N,GND*%
X164750000Y-98250000D03*
%TD*%
D11*
%TO.P,DOWN1,1,1*%
%TO.N,Column 0*%
X117460000Y-144500000D03*
%TO.P,DOWN1,2,2*%
%TO.N,Net-(D7-Pad1)*%
X122540000Y-144500000D03*
%TD*%
D18*
%TO.P,D6,1*%
%TO.N,Net-(D6-Pad1)*%
X188500000Y-110500000D03*
%TO.P,D6,2*%
%TO.N,Net-(D6-Pad2)*%
X188500000Y-108600000D03*
%TO.P,D6,3*%
%TO.N,Row 2*%
X186625000Y-109550000D03*
%TD*%
D11*
%TO.P,UP1,1,1*%
%TO.N,Column 2*%
X117460000Y-128500000D03*
%TO.P,UP1,2,2*%
%TO.N,Net-(D8-Pad1)*%
X122540000Y-128500000D03*
%TD*%
%TO.P,X1,1,1*%
%TO.N,Column 2*%
X185960000Y-116500000D03*
%TO.P,X1,2,2*%
%TO.N,Net-(D6-Pad1)*%
X191040000Y-116500000D03*
%TD*%
%TO.P,Y1,1,1*%
%TO.N,Net-(D6-Pad2)*%
X194483826Y-108347089D03*
%TO.P,Y1,2,2*%
%TO.N,Column 3*%
X199516174Y-107652911D03*
%TD*%
D19*
%TO.P,D2,1*%
%TO.N,Net-(BumperR1-I{slash}O)*%
X168662500Y-114650000D03*
%TO.P,D2,2*%
%TO.N,Net-(ClickStickR1-I{slash}O)*%
X168662500Y-116550000D03*
%TO.P,D2,3*%
%TO.N,Row 0*%
X170537500Y-115600000D03*
%TD*%
D13*
%TO.P,BumperL1,1,GND*%
%TO.N,GND*%
X133000000Y-112000000D03*
D14*
%TO.P,BumperL1,2,I/O*%
%TO.N,Net-(BumperL1-I{slash}O)*%
X130460000Y-112000000D03*
%TO.P,BumperL1,3,VCC*%
%TO.N,Column 0*%
X127920000Y-112000000D03*
%TD*%
D11*
%TO.P,LEFT1,1,1*%
%TO.N,Net-(D8-Pad2)*%
X109460000Y-136500000D03*
%TO.P,LEFT1,2,2*%
%TO.N,Column 3*%
X114540000Y-136500000D03*
%TD*%
D20*
%TO.P,TriggerR1,1,VDD*%
%TO.N,+3.3V*%
X184094904Y-101201731D03*
%TO.P,TriggerR1,2,GND*%
%TO.N,GND*%
X182836814Y-101375253D03*
%TO.P,TriggerR1,3,OUT*%
%TO.N,Net-(TriggerR1-OUT)*%
X181578724Y-101548776D03*
%TD*%
D12*
%TO.P,H3,1,1*%
%TO.N,GND*%
X206750000Y-105500000D03*
%TD*%
D13*
%TO.P,StickR1,1,GND*%
%TO.N,GND*%
X194650000Y-139870000D03*
D14*
%TO.P,StickR1,2,Y*%
%TO.N,Net-(StickR1-Y)*%
X194650000Y-137330000D03*
%TO.P,StickR1,3,3V3*%
%TO.N,+3.3V*%
X194650000Y-134790000D03*
%TO.P,StickR1,4,X*%
%TO.N,Net-(StickR1-X)*%
X194650000Y-132250000D03*
%TD*%
D12*
%TO.P,H4,1,1*%
%TO.N,GND*%
X127500000Y-127250000D03*
%TD*%
D19*
%TO.P,D8,1*%
%TO.N,Net-(D8-Pad1)*%
X113062500Y-130450000D03*
%TO.P,D8,2*%
%TO.N,Net-(D8-Pad2)*%
X113062500Y-132350000D03*
%TO.P,D8,3*%
%TO.N,Row 3*%
X114937500Y-131400000D03*
%TD*%
D11*
%TO.P,RIGHT1,1,1*%
%TO.N,Net-(D7-Pad2)*%
X125460000Y-136500000D03*
%TO.P,RIGHT1,2,2*%
%TO.N,Column 1*%
X130540000Y-136500000D03*
%TD*%
D18*
%TO.P,D4,1*%
%TO.N,Net-(D4-Pad1)*%
X158937500Y-99950000D03*
%TO.P,D4,2*%
%TO.N,unconnected-(D4-Pad2)*%
X158937500Y-98050000D03*
%TO.P,D4,3*%
%TO.N,Row 1*%
X157062500Y-99000000D03*
%TD*%
D21*
%TO.P,U1,1,GPIO*%
%TO.N,Net-(StickL1-Y)*%
X220390000Y-142181871D03*
%TO.P,U1,2,GPIO*%
%TO.N,Net-(StickL1-X)*%
X220390000Y-139641871D03*
%TO.P,U1,3,GPIO*%
%TO.N,unconnected-(U1-GPIO-Pad3)*%
X220390000Y-137101871D03*
D22*
%TO.P,U1,3V3,3V3*%
%TO.N,+3.3V*%
X202610000Y-137101871D03*
D21*
%TO.P,U1,4,GPIO*%
%TO.N,Column 2*%
X220390000Y-134561871D03*
%TO.P,U1,5,GPIO*%
%TO.N,unconnected-(U1-GPIO-Pad5)*%
X220390000Y-132021871D03*
D22*
%TO.P,U1,5V,5V*%
%TO.N,unconnected-(U1-Pad5V)*%
X202610000Y-142181871D03*
D21*
%TO.P,U1,6,GPIO*%
%TO.N,Net-(TriggerL1-OUT)*%
X220390000Y-129481871D03*
D22*
%TO.P,U1,7,GPIO*%
%TO.N,Net-(StickR1-X)*%
X202610000Y-129481871D03*
%TO.P,U1,8,GPIO*%
%TO.N,Net-(StickR1-Y)*%
X202610000Y-132021871D03*
%TO.P,U1,9,GPIO*%
%TO.N,Net-(TriggerR1-OUT)*%
X202610000Y-134561871D03*
D21*
%TO.P,U1,10,GPIO*%
%TO.N,Net-(C1-Pad1)*%
X220390000Y-128211871D03*
D22*
%TO.P,U1,11,GPIO*%
%TO.N,Row 2*%
X202610000Y-128211871D03*
%TO.P,U1,12,GPIO*%
%TO.N,Column 1*%
X202610000Y-130751871D03*
%TO.P,U1,13,GPIO*%
%TO.N,Column 0*%
X202610000Y-133291871D03*
D21*
%TO.P,U1,38,GPIO*%
%TO.N,unconnected-(U1-GPIO-Pad38)*%
X220390000Y-140911871D03*
%TO.P,U1,39,GPIO*%
%TO.N,Row 0*%
X220390000Y-138371871D03*
%TO.P,U1,40,GPIO*%
%TO.N,Row 1*%
X220390000Y-135831871D03*
%TO.P,U1,41,GPIO*%
%TO.N,Row 3*%
X220390000Y-133291871D03*
%TO.P,U1,42,GPIO*%
%TO.N,unconnected-(U1-GPIO-Pad42)*%
X220390000Y-130751871D03*
%TO.P,U1,43,GPIO*%
%TO.N,unconnected-(U1-GPIO-Pad43)*%
X220390000Y-126941871D03*
D22*
%TO.P,U1,44,GPIO*%
%TO.N,Column 3*%
X202610000Y-126941871D03*
%TO.P,U1,GND,GND*%
%TO.N,GND*%
X202610000Y-139641871D03*
%TD*%
D15*
%TO.P,R2,1*%
%TO.N,-BATT*%
X172000000Y-122500000D03*
%TO.P,R2,2*%
%TO.N,Net-(C1-Pad2)*%
X174000000Y-122500000D03*
%TD*%
D11*
%TO.P,A1,1,1*%
%TO.N,Column 0*%
X202960000Y-116500000D03*
%TO.P,A1,2,2*%
%TO.N,Net-(A1-Pad2)*%
X208040000Y-116500000D03*
%TD*%
D23*
%TO.P,+-1,1,BAT-*%
%TO.N,-BATT*%
X169800000Y-122500000D03*
D24*
%TO.P,+-1,2,BAT+*%
%TO.N,Net-(+-1-BAT+)*%
X167000000Y-122500000D03*
%TD*%
D19*
%TO.P,D1,1*%
%TO.N,Net-(BumperL1-I{slash}O)*%
X130862500Y-114650000D03*
%TO.P,D1,2*%
%TO.N,Net-(ClickStickL1-I{slash}O)*%
X130862500Y-116550000D03*
%TO.P,D1,3*%
%TO.N,Row 0*%
X132737500Y-115600000D03*
%TD*%
D25*
%TO.N,Column 0*%
X167250000Y-108900000D03*
X206500000Y-125000000D03*
%TO.N,Net-(B1-Pad1)*%
X204330500Y-124569500D03*
%TO.N,Column 1*%
X197589000Y-123040473D03*
X125334320Y-112035850D03*
%TO.N,Net-(C1-Pad1)*%
X178000000Y-122500000D03*
X220390000Y-128211871D03*
X206500000Y-130500000D03*
X187000000Y-119923000D03*
X180000000Y-122500000D03*
%TO.N,Net-(+-1-BAT+)*%
X205000000Y-119750000D03*
X186000000Y-122000000D03*
%TO.N,Row 0*%
X177422000Y-120000000D03*
X194000000Y-127500000D03*
%TO.N,GND*%
X190425000Y-113900000D03*
X122475000Y-130875000D03*
X180750000Y-107000000D03*
X220400000Y-124700000D03*
X183000000Y-103000000D03*
X134450000Y-109650000D03*
X167500000Y-120750000D03*
X167000000Y-110250000D03*
X170000000Y-109500000D03*
X218300000Y-143100000D03*
X165800000Y-114750000D03*
X150325000Y-100050000D03*
X122275000Y-119375000D03*
X122200000Y-114025000D03*
X151800000Y-103800000D03*
X202610000Y-139641871D03*
X133700000Y-114400000D03*
X204000000Y-122000000D03*
X117000000Y-103000000D03*
X199600000Y-122675000D03*
X208200000Y-124600000D03*
X199275000Y-110075000D03*
X162250000Y-105500000D03*
X206000000Y-127000000D03*
X204295857Y-133353550D03*
X204750000Y-138000000D03*
X128500000Y-121250000D03*
X199750000Y-118250000D03*
X172900000Y-107300000D03*
X143900000Y-103100000D03*
X137000000Y-105800000D03*
X121300000Y-111125000D03*
%TO.N,+BAT*%
X204400000Y-118967177D03*
X188000000Y-122595000D03*
%TO.N,Column 2*%
X168400000Y-109338068D03*
X115000000Y-128000000D03*
X220390000Y-134561871D03*
X165303470Y-109105000D03*
%TO.N,+3.3V*%
X202610000Y-137101871D03*
X192408795Y-122267000D03*
X194500000Y-119000000D03*
X192500000Y-111000000D03*
X196960000Y-137100000D03*
X124000000Y-113368597D03*
%TO.N,Net-(StickR1-Y)*%
X201000000Y-132000000D03*
%TO.N,Net-(StickR1-X)*%
X201100000Y-129500000D03*
%TD*%
D26*
%TO.N,Column 0*%
X167250000Y-108900000D02*
X166855000Y-108505000D01*
X127920000Y-110382600D02*
X133800600Y-104502000D01*
X164243000Y-109257000D02*
X143483797Y-109257000D01*
X206500000Y-125000000D02*
X204000000Y-127500000D01*
X204000000Y-127500000D02*
X204000000Y-132651871D01*
X133800600Y-104502000D02*
X138962000Y-104502000D01*
X127920000Y-112000000D02*
X127920000Y-110382600D01*
X138962000Y-104502000D02*
X139960000Y-105500000D01*
X139960000Y-105733203D02*
X139960000Y-105500000D01*
X166855000Y-108505000D02*
X164995000Y-108505000D01*
X164995000Y-108505000D02*
X164243000Y-109257000D01*
X204000000Y-132651871D02*
X203360000Y-133291871D01*
X143483797Y-109257000D02*
X139960000Y-105733203D01*
X203360000Y-133291871D02*
X202610000Y-133291871D01*
%TO.N,Net-(A1-Pad2)*%
X208040000Y-116500000D02*
X212062500Y-120522500D01*
X212062500Y-120522500D02*
X212062500Y-121050000D01*
%TO.N,Net-(B1-Pad1)*%
X205950000Y-122950000D02*
X212062500Y-122950000D01*
X204330500Y-124569500D02*
X205950000Y-122950000D01*
%TO.N,Column 1*%
X125334320Y-112035850D02*
X125334320Y-116614320D01*
X161651000Y-103333900D02*
X161651000Y-99384032D01*
X199540000Y-128838700D02*
X201453171Y-130751871D01*
X161651000Y-99384032D02*
X159266968Y-97000000D01*
X182634200Y-118000000D02*
X169931200Y-105297000D01*
X125334320Y-116614320D02*
X127920000Y-119200000D01*
X197589000Y-123040473D02*
X197580473Y-123040473D01*
X199540000Y-125000000D02*
X199540000Y-128838700D01*
X169931200Y-105297000D02*
X163614100Y-105297000D01*
X192540000Y-118000000D02*
X182634200Y-118000000D01*
X197580473Y-123040473D02*
X192540000Y-118000000D01*
X163614100Y-105297000D02*
X161651000Y-103333900D01*
X159266968Y-97000000D02*
X152540000Y-97000000D01*
X201453171Y-130751871D02*
X202610000Y-130751871D01*
%TO.N,Net-(C1-Pad2)*%
X174000000Y-122500000D02*
X175925000Y-122500000D01*
%TO.N,Net-(C1-Pad1)*%
X187000000Y-119923000D02*
X191911757Y-119923000D01*
X201874840Y-137902871D02*
X203345160Y-137902871D01*
X206500000Y-134748031D02*
X206500000Y-130500000D01*
X191911757Y-119923000D02*
X196585000Y-124596243D01*
X196585000Y-128719200D02*
X198984000Y-131118200D01*
X198984000Y-135012031D02*
X201874840Y-137902871D01*
X196585000Y-124596243D02*
X196585000Y-128719200D01*
X203345160Y-137902871D02*
X206500000Y-134748031D01*
X198984000Y-131118200D02*
X198984000Y-135012031D01*
%TO.N,Net-(+-1-BAT+)*%
X168750000Y-120750000D02*
X167000000Y-122500000D01*
X208500000Y-113000000D02*
X219750000Y-113000000D01*
X179655413Y-121155413D02*
X179250000Y-120750000D01*
X179250000Y-120750000D02*
X168750000Y-120750000D01*
X205151000Y-119599000D02*
X205151000Y-116349000D01*
X186000000Y-122000000D02*
X185155413Y-121155413D01*
X205151000Y-116349000D02*
X208500000Y-113000000D01*
X205000000Y-119750000D02*
X205151000Y-119599000D01*
X185155413Y-121155413D02*
X179655413Y-121155413D01*
%TO.N,Row 0*%
X177422000Y-120000000D02*
X177422000Y-119897000D01*
X133735500Y-104000000D02*
X126600000Y-111135500D01*
X194000000Y-127500000D02*
X194000000Y-127835500D01*
X141595000Y-106801103D02*
X141595000Y-105095000D01*
X170537500Y-115600000D02*
X170837500Y-115300000D01*
X140500000Y-104000000D02*
X133735500Y-104000000D01*
X143649897Y-108856000D02*
X141595000Y-106801103D01*
X126600000Y-114400000D02*
X127800000Y-115600000D01*
X194000000Y-127835500D02*
X198000000Y-131835500D01*
X221140000Y-138371871D02*
X220390000Y-138371871D01*
X198000000Y-140967100D02*
X203032900Y-146000000D01*
X170837500Y-115300000D02*
X170837500Y-109337500D01*
X198000000Y-131835500D02*
X198000000Y-140967100D01*
X221842000Y-142833131D02*
X221842000Y-139073871D01*
X170837500Y-109337500D02*
X169604000Y-108104000D01*
X173125000Y-115600000D02*
X170537500Y-115600000D01*
X221842000Y-139073871D02*
X221140000Y-138371871D01*
X164076900Y-108856000D02*
X143649897Y-108856000D01*
X169604000Y-108104000D02*
X164828900Y-108104000D01*
X127800000Y-115600000D02*
X132737500Y-115600000D01*
X203032900Y-146000000D02*
X218675131Y-146000000D01*
X164828900Y-108104000D02*
X164076900Y-108856000D01*
X126600000Y-111135500D02*
X126600000Y-114400000D01*
X141595000Y-105095000D02*
X140500000Y-104000000D01*
X177422000Y-119897000D02*
X173125000Y-115600000D01*
X218675131Y-146000000D02*
X221842000Y-142833131D01*
%TO.N,Net-(BumperL1-I{slash}O)*%
X130460000Y-112000000D02*
X130460000Y-114247500D01*
X130460000Y-114247500D02*
X130862500Y-114650000D01*
%TO.N,Net-(D3-Pad1)*%
X134937500Y-98950000D02*
X142350000Y-98950000D01*
X142350000Y-98950000D02*
X145040000Y-101640000D01*
X145040000Y-101640000D02*
X145040000Y-105500000D01*
%TO.N,Row 1*%
X196771057Y-123081000D02*
X196781000Y-123081000D01*
X201874840Y-135362871D02*
X203345160Y-135362871D01*
X221441000Y-135530871D02*
X221140000Y-135831871D01*
X199500000Y-129932900D02*
X199968000Y-130400900D01*
X192028000Y-118328000D02*
X196419000Y-122719000D01*
X196781000Y-123081000D02*
X197788000Y-124088000D01*
X199968000Y-133456031D02*
X201874840Y-135362871D01*
X203345160Y-135362871D02*
X205000000Y-133708031D01*
X208250000Y-126000000D02*
X220984289Y-126000000D01*
X169765100Y-105698000D02*
X182395100Y-118328000D01*
X157062500Y-99000000D02*
X159500000Y-99000000D01*
X159500000Y-99000000D02*
X161250000Y-100750000D01*
X196419000Y-122719000D02*
X196419000Y-122728943D01*
X221140000Y-135831871D02*
X220390000Y-135831871D01*
X197788000Y-128220900D02*
X199500000Y-129932900D01*
X146781250Y-99000000D02*
X157062500Y-99000000D01*
X220984289Y-126000000D02*
X221441000Y-126456711D01*
X145781250Y-98000000D02*
X146781250Y-99000000D01*
X199968000Y-130400900D02*
X199968000Y-133456031D01*
X196419000Y-122728943D02*
X196771057Y-123081000D01*
X133062500Y-98000000D02*
X145781250Y-98000000D01*
X221441000Y-126456711D02*
X221441000Y-135530871D01*
X205000000Y-129250000D02*
X208250000Y-126000000D01*
X161250000Y-100750000D02*
X161250000Y-103500000D01*
X182395100Y-118328000D02*
X192028000Y-118328000D01*
X197788000Y-124088000D02*
X197788000Y-128220900D01*
X163448000Y-105698000D02*
X169765100Y-105698000D01*
X205000000Y-133708031D02*
X205000000Y-129250000D01*
X161250000Y-103500000D02*
X163448000Y-105698000D01*
%TO.N,Net-(D3-Pad2)*%
X147410000Y-97050000D02*
X147460000Y-97000000D01*
X134937500Y-97050000D02*
X147410000Y-97050000D01*
%TO.N,Net-(D4-Pad1)*%
X160040000Y-105500000D02*
X160040000Y-101052500D01*
X160040000Y-101052500D02*
X158937500Y-99950000D01*
%TO.N,Row 2*%
X201292000Y-108861637D02*
X201250000Y-108819637D01*
X201292000Y-117292000D02*
X201292000Y-108861637D01*
X206000000Y-122000000D02*
X201292000Y-117292000D01*
X203661000Y-127427031D02*
X203661000Y-124339000D01*
X202610000Y-127742871D02*
X203345160Y-127742871D01*
X189918100Y-109351000D02*
X186824000Y-109351000D01*
X200075777Y-106301911D02*
X198439607Y-106301911D01*
X190265189Y-109698089D02*
X189918100Y-109351000D01*
X186824000Y-109351000D02*
X186625000Y-109550000D01*
X198439607Y-106301911D02*
X195043429Y-109698089D01*
X193924223Y-109698089D02*
X190265189Y-109698089D01*
X195043429Y-109698089D02*
X193924223Y-109698089D01*
X203661000Y-124339000D02*
X206000000Y-122000000D01*
X201250000Y-108819637D02*
X201250000Y-107476134D01*
X203345160Y-127742871D02*
X203661000Y-127427031D01*
X206000000Y-122000000D02*
X213937500Y-122000000D01*
X201250000Y-107476134D02*
X200075777Y-106301911D01*
X202610000Y-128211871D02*
X202610000Y-127742871D01*
%TO.N,Net-(D6-Pad1)*%
X188500000Y-113960000D02*
X191040000Y-116500000D01*
X188500000Y-110500000D02*
X188500000Y-113960000D01*
%TO.N,Net-(D6-Pad2)*%
X188500000Y-108600000D02*
X194230915Y-108600000D01*
X194230915Y-108600000D02*
X194483826Y-108347089D01*
X193860000Y-108600000D02*
X194460000Y-108000000D01*
%TO.N,Net-(D7-Pad2)*%
X129500000Y-142500000D02*
X125460000Y-138460000D01*
X125460000Y-138460000D02*
X125460000Y-136500000D01*
%TO.N,Row 3*%
X205802000Y-134040231D02*
X203677360Y-136164871D01*
X181932900Y-119000000D02*
X169432900Y-106500000D01*
X144314297Y-107252000D02*
X143199000Y-106136703D01*
X123000000Y-112467100D02*
X123000000Y-118847100D01*
X205802000Y-129582200D02*
X205802000Y-134040231D01*
X220390000Y-133291871D02*
X219791871Y-133291871D01*
X196986000Y-124420200D02*
X196448800Y-123883000D01*
X164164500Y-106500000D02*
X163412500Y-107252000D01*
X196448800Y-123883000D02*
X196438857Y-123883000D01*
X199312000Y-130879100D02*
X196986000Y-128553100D01*
X195617000Y-123051200D02*
X191565800Y-119000000D01*
X123000000Y-118847100D02*
X123891000Y-119738100D01*
X141229900Y-102497000D02*
X132970100Y-102497000D01*
X123891000Y-119738100D02*
X123891000Y-139716000D01*
X123891000Y-139716000D02*
X127625000Y-143450000D01*
X201542640Y-136164871D02*
X199312000Y-133934231D01*
X163412500Y-107252000D02*
X144314297Y-107252000D01*
X132970100Y-102497000D02*
X123000000Y-112467100D01*
X208582200Y-126802000D02*
X205802000Y-129582200D01*
X169432900Y-106500000D02*
X164164500Y-106500000D01*
X196438857Y-123883000D02*
X195617000Y-123061143D01*
X191565800Y-119000000D02*
X181932900Y-119000000D01*
X219791871Y-133291871D02*
X219200000Y-132700000D01*
X219200000Y-129167100D02*
X216834900Y-126802000D01*
X143199000Y-104466100D02*
X141229900Y-102497000D01*
X126987500Y-143450000D02*
X127625000Y-143450000D01*
X216834900Y-126802000D02*
X208582200Y-126802000D01*
X203677360Y-136164871D02*
X201542640Y-136164871D01*
X143199000Y-106136703D02*
X143199000Y-104466100D01*
X114937500Y-131400000D02*
X126987500Y-143450000D01*
X195617000Y-123061143D02*
X195617000Y-123051200D01*
X199312000Y-133934231D02*
X199312000Y-130879100D01*
X219200000Y-132700000D02*
X219200000Y-129167100D01*
X196986000Y-128553100D02*
X196986000Y-124420200D01*
%TO.N,Net-(D7-Pad1)*%
X129400000Y-144500000D02*
X129500000Y-144400000D01*
X122540000Y-144500000D02*
X129400000Y-144500000D01*
%TO.N,Net-(D8-Pad1)*%
X120590000Y-130450000D02*
X122540000Y-128500000D01*
X113062500Y-130450000D02*
X120590000Y-130450000D01*
%TO.N,Net-(D8-Pad2)*%
X113062500Y-132897500D02*
X113062500Y-132350000D01*
X109460000Y-136500000D02*
X113062500Y-132897500D01*
%TO.N,GND*%
X117000000Y-103000000D02*
X117223354Y-102776646D01*
X117223354Y-101761013D02*
X117140453Y-101678112D01*
X182836814Y-102836814D02*
X182836814Y-101699639D01*
X182836814Y-101699639D02*
X182883090Y-101653363D01*
X117223354Y-102776646D02*
X117223354Y-101761013D01*
X183000000Y-103000000D02*
X182836814Y-102836814D01*
%TO.N,Column 3*%
X200891000Y-125222871D02*
X202610000Y-126941871D01*
X200891000Y-109027737D02*
X200891000Y-125222871D01*
X199516174Y-107652911D02*
X200891000Y-109027737D01*
%TO.N,+BAT*%
X204750000Y-116000000D02*
X210250000Y-110500000D01*
X188000000Y-122595000D02*
X182100898Y-122595000D01*
X204400000Y-118967177D02*
X204750000Y-118617177D01*
X182100898Y-122595000D02*
X182002949Y-122497051D01*
X204750000Y-118617177D02*
X204750000Y-116000000D01*
X210250000Y-110500000D02*
X219750000Y-110500000D01*
%TO.N,-BATT*%
X172000000Y-122500000D02*
X169750000Y-122500000D01*
%TO.N,Column 2*%
X168238068Y-109500000D02*
X165750000Y-109500000D01*
X165750000Y-109500000D02*
X165355000Y-109105000D01*
X168400000Y-109338068D02*
X168238068Y-109500000D01*
X117460000Y-128500000D02*
X115500000Y-128500000D01*
X115500000Y-128500000D02*
X115000000Y-128000000D01*
X165355000Y-109105000D02*
X165303470Y-109105000D01*
%TO.N,Net-(StickL1-Y)*%
X124919277Y-111011685D02*
X124919277Y-111033850D01*
X142500000Y-104500000D02*
X141000000Y-103000000D01*
X220390000Y-142181871D02*
X217373871Y-145198000D01*
X198656000Y-131357300D02*
X196184000Y-128885300D01*
X196184000Y-127051330D02*
X196184000Y-124762343D01*
X124919277Y-111033850D02*
X123328000Y-112625127D01*
X143982097Y-108054000D02*
X142500000Y-106571903D01*
X196185000Y-127882416D02*
X196185000Y-127052330D01*
X169771038Y-107302000D02*
X164496700Y-107302000D01*
X217373871Y-145198000D02*
X203365100Y-145198000D01*
X196184000Y-127883416D02*
X196185000Y-127882416D01*
X196185000Y-127052330D02*
X196184000Y-127051330D01*
X123328000Y-118608000D02*
X133000000Y-128280000D01*
X203365100Y-145198000D02*
X198656000Y-140488900D01*
X132930962Y-103000000D02*
X124919277Y-111011685D01*
X182969038Y-120500000D02*
X169771038Y-107302000D01*
X163744700Y-108054000D02*
X143982097Y-108054000D01*
X142500000Y-106571903D02*
X142500000Y-104500000D01*
X123328000Y-112625127D02*
X123328000Y-118608000D01*
X198656000Y-140488900D02*
X198656000Y-131357300D01*
X191921657Y-120500000D02*
X182969038Y-120500000D01*
X196184000Y-124762343D02*
X191921657Y-120500000D01*
X164496700Y-107302000D02*
X163744700Y-108054000D01*
X196184000Y-128885300D02*
X196184000Y-127883416D01*
X141000000Y-103000000D02*
X132930962Y-103000000D01*
%TO.N,+3.3V*%
X192408795Y-123908795D02*
X192781000Y-124281000D01*
X194500000Y-113000000D02*
X194500000Y-119000000D01*
X184091950Y-101239397D02*
X184094904Y-101242351D01*
X131027100Y-125740000D02*
X133000000Y-125740000D01*
X192781000Y-125781000D02*
X193000000Y-126000000D01*
X196960000Y-137100000D02*
X194650000Y-134790000D01*
X184141180Y-101479841D02*
X184091950Y-101430611D01*
X192781000Y-124281000D02*
X192781000Y-125781000D01*
X192408795Y-122267000D02*
X192408795Y-123908795D01*
X118349313Y-101611191D02*
X118481444Y-101743322D01*
X193000000Y-133140000D02*
X194650000Y-134790000D01*
X124000000Y-118712900D02*
X131027100Y-125740000D01*
X124000000Y-113368597D02*
X124000000Y-118712900D01*
X192500000Y-111000000D02*
X194500000Y-113000000D01*
X193000000Y-126000000D02*
X193000000Y-133140000D01*
X184091950Y-101430611D02*
X184091950Y-101239397D01*
%TO.N,Net-(StickL1-X)*%
X129054200Y-123200000D02*
X133000000Y-123200000D01*
X163910800Y-108455000D02*
X143815997Y-108455000D01*
X218509031Y-145599000D02*
X203199000Y-145599000D01*
X173231000Y-111231000D02*
X169703000Y-107703000D01*
X221140000Y-139641871D02*
X221441000Y-139942871D01*
X193109000Y-122151205D02*
X191785795Y-120828000D01*
X220390000Y-139641871D02*
X221140000Y-139641871D01*
X198328000Y-140728000D02*
X198328000Y-131596400D01*
X182833176Y-120828000D02*
X173236176Y-111231000D01*
X198328000Y-131596400D02*
X195783000Y-129051400D01*
X124578000Y-111942227D02*
X124578000Y-118723800D01*
X173236176Y-111231000D02*
X173231000Y-111231000D01*
X133020227Y-103500000D02*
X124578000Y-111942227D01*
X195783000Y-128233603D02*
X193109000Y-125559603D01*
X193109000Y-125559603D02*
X193109000Y-122151205D01*
X221441000Y-142667031D02*
X218509031Y-145599000D01*
X164662800Y-107703000D02*
X163910800Y-108455000D01*
X143815997Y-108455000D02*
X141996000Y-106635003D01*
X141996000Y-106635003D02*
X141996000Y-104730200D01*
X221441000Y-139942871D02*
X221441000Y-142667031D01*
X141996000Y-104730200D02*
X140765800Y-103500000D01*
X195783000Y-129051400D02*
X195783000Y-128233603D01*
X203199000Y-145599000D02*
X198328000Y-140728000D01*
X191785795Y-120828000D02*
X182833176Y-120828000D01*
X140765800Y-103500000D02*
X133020227Y-103500000D01*
X169703000Y-107703000D02*
X164662800Y-107703000D01*
X124578000Y-118723800D02*
X129054200Y-123200000D01*
%TO.N,Net-(StickR1-Y)*%
X202588129Y-132000000D02*
X202610000Y-132021871D01*
X201000000Y-132000000D02*
X202588129Y-132000000D01*
X202876160Y-132021871D02*
X202610000Y-132021871D01*
X202772922Y-132021871D02*
X202610000Y-132021871D01*
%TO.N,Net-(ClickStickL1-I{slash}O)*%
X130460000Y-116952500D02*
X130862500Y-116550000D01*
X130460000Y-119200000D02*
X130460000Y-116952500D01*
%TO.N,Net-(TriggerL1-OUT)*%
X220081871Y-129481871D02*
X220390000Y-129481871D01*
X201708740Y-135763871D02*
X203511260Y-135763871D01*
X196018000Y-122885100D02*
X196018000Y-122895043D01*
X205401000Y-133874131D02*
X205401000Y-129416100D01*
X143600000Y-104300000D02*
X143600000Y-105970603D01*
X144480397Y-106851000D02*
X163246400Y-106851000D01*
X115965264Y-101196534D02*
X116000000Y-101231270D01*
X196614900Y-123482000D02*
X197387000Y-124254100D01*
X199640000Y-130640000D02*
X199640000Y-133695131D01*
X116000000Y-101231270D02*
X116000000Y-103000000D01*
X197387000Y-124254100D02*
X197387000Y-128387000D01*
X127800000Y-107100000D02*
X132804000Y-102096000D01*
X141396000Y-102096000D02*
X143600000Y-104300000D01*
X163998400Y-106099000D02*
X169599000Y-106099000D01*
X196018000Y-122895043D02*
X196604957Y-123482000D01*
X199640000Y-133695131D02*
X201708740Y-135763871D01*
X143600000Y-105970603D02*
X144480397Y-106851000D01*
X196604957Y-123482000D02*
X196614900Y-123482000D01*
X203511260Y-135763871D02*
X205401000Y-133874131D01*
X205401000Y-129416100D02*
X208416100Y-126401000D01*
X132804000Y-102096000D02*
X141396000Y-102096000D01*
X197387000Y-128387000D02*
X199640000Y-130640000D01*
X182156000Y-118656000D02*
X191788900Y-118656000D01*
X191788900Y-118656000D02*
X196018000Y-122885100D01*
X169599000Y-106099000D02*
X182156000Y-118656000D01*
X217001000Y-126401000D02*
X220081871Y-129481871D01*
X208416100Y-126401000D02*
X217001000Y-126401000D01*
X120100000Y-107100000D02*
X127800000Y-107100000D01*
X163246400Y-106851000D02*
X163998400Y-106099000D01*
X116000000Y-103000000D02*
X120100000Y-107100000D01*
%TO.N,Net-(TriggerR1-OUT)*%
X187469532Y-110151000D02*
X187868532Y-109752000D01*
X185651000Y-110151000D02*
X187469532Y-110151000D01*
X181578724Y-101548776D02*
X181578724Y-106078724D01*
X187868532Y-109752000D02*
X189855238Y-109752000D01*
X192526089Y-110026089D02*
X198189000Y-115689000D01*
X200296000Y-132997871D02*
X201860000Y-134561871D01*
X198189000Y-128054800D02*
X200296000Y-130161800D01*
X190129327Y-110026089D02*
X192526089Y-110026089D01*
X198189000Y-115689000D02*
X198189000Y-128054800D01*
X200296000Y-130161800D02*
X200296000Y-132997871D01*
X189855238Y-109752000D02*
X190129327Y-110026089D01*
X181578724Y-106078724D02*
X185651000Y-110151000D01*
X201860000Y-134561871D02*
X202610000Y-134561871D01*
%TO.N,Net-(BumperR1-I{slash}O)*%
X169540000Y-113772500D02*
X169540000Y-112000000D01*
X168662500Y-114650000D02*
X169540000Y-113772500D01*
%TO.N,Net-(StickR1-X)*%
X201150000Y-129500000D02*
X201168129Y-129481871D01*
X201100000Y-129500000D02*
X201150000Y-129500000D01*
X201168129Y-129481871D02*
X202610000Y-129481871D01*
%TO.N,Net-(ClickStickR1-I{slash}O)*%
X169540000Y-117427500D02*
X169540000Y-119200000D01*
X168662500Y-116550000D02*
X169540000Y-117427500D01*
%TD*%
%TA.AperFunction,Conductor*%
%TO.N,GND*%
G36*
X222271168Y-102627802D02*
G01*
X222316923Y-102680606D01*
X222328129Y-102732117D01*
X222328129Y-146517438D01*
X222308444Y-146584477D01*
X222255640Y-146630232D01*
X222204129Y-146641438D01*
X192708624Y-146641438D01*
X192641585Y-146621753D01*
X192595830Y-146568949D01*
X192584624Y-146517438D01*
X192584624Y-133344630D01*
X192604309Y-133277591D01*
X192657113Y-133231836D01*
X192726271Y-133221892D01*
X192789827Y-133250917D01*
X192798258Y-133260473D01*
X192798499Y-133260233D01*
X193473606Y-133935339D01*
X193507091Y-133996662D01*
X193502107Y-134066353D01*
X193496410Y-134079314D01*
X193398445Y-134271582D01*
X193332753Y-134473760D01*
X193324511Y-134525798D01*
X193299500Y-134683713D01*
X193299500Y-134896287D01*
X193332754Y-135106243D01*
X193383537Y-135262537D01*
X193398444Y-135308414D01*
X193494951Y-135497820D01*
X193619890Y-135669786D01*
X193770213Y-135820109D01*
X193942182Y-135945050D01*
X193950946Y-135949516D01*
X194001742Y-135997491D01*
X194018536Y-136065312D01*
X193995998Y-136131447D01*
X193950946Y-136170484D01*
X193942182Y-136174949D01*
X193770213Y-136299890D01*
X193619890Y-136450213D01*
X193494951Y-136622179D01*
X193398444Y-136811585D01*
X193398443Y-136811587D01*
X193398443Y-136811588D01*
X193385339Y-136851918D01*
X193332753Y-137013760D01*
X193299500Y-137223713D01*
X193299500Y-137436286D01*
X193332107Y-137642162D01*
X193332754Y-137646243D01*
X193391195Y-137826106D01*
X193398444Y-137848414D01*
X193494951Y-138037820D01*
X193619890Y-138209786D01*
X193733818Y-138323714D01*
X193767303Y-138385037D01*
X193762319Y-138454729D01*
X193720447Y-138510662D01*
X193689471Y-138527577D01*
X193557912Y-138576646D01*
X193557906Y-138576649D01*
X193442812Y-138662809D01*
X193442809Y-138662812D01*
X193356649Y-138777906D01*
X193356645Y-138777913D01*
X193306403Y-138912620D01*
X193306401Y-138912627D01*
X193300000Y-138972155D01*
X193300000Y-139620000D01*
X194216988Y-139620000D01*
X194184075Y-139677007D01*
X194150000Y-139804174D01*
X194150000Y-139935826D01*
X194184075Y-140062993D01*
X194216988Y-140120000D01*
X193300000Y-140120000D01*
X193300000Y-140767844D01*
X193306401Y-140827372D01*
X193306403Y-140827379D01*
X193356645Y-140962086D01*
X193356649Y-140962093D01*
X193442809Y-141077187D01*
X193442812Y-141077190D01*
X193557906Y-141163350D01*
X193557913Y-141163354D01*
X193692620Y-141213596D01*
X193692627Y-141213598D01*
X193752155Y-141219999D01*
X193752172Y-141220000D01*
X194400000Y-141220000D01*
X194400000Y-140303012D01*
X194457007Y-140335925D01*
X194584174Y-140370000D01*
X194715826Y-140370000D01*
X194842993Y-140335925D01*
X194900000Y-140303012D01*
X194900000Y-141220000D01*
X195547828Y-141220000D01*
X195547844Y-141219999D01*
X195607372Y-141213598D01*
X195607379Y-141213596D01*
X195742086Y-141163354D01*
X195742093Y-141163350D01*
X195857187Y-141077190D01*
X195857190Y-141077187D01*
X195943350Y-140962093D01*
X195943354Y-140962086D01*
X195993596Y-140827379D01*
X195993598Y-140827372D01*
X195999999Y-140767844D01*
X196000000Y-140767827D01*
X196000000Y-140120000D01*
X195083012Y-140120000D01*
X195115925Y-140062993D01*
X195150000Y-139935826D01*
X195150000Y-139804174D01*
X195115925Y-139677007D01*
X195083012Y-139620000D01*
X196000000Y-139620000D01*
X196000000Y-138972172D01*
X195999999Y-138972155D01*
X195993598Y-138912627D01*
X195993596Y-138912620D01*
X195943354Y-138777913D01*
X195943350Y-138777906D01*
X195857190Y-138662812D01*
X195857187Y-138662809D01*
X195742093Y-138576649D01*
X195742088Y-138576646D01*
X195610528Y-138527577D01*
X195554595Y-138485705D01*
X195530178Y-138420241D01*
X195545030Y-138351968D01*
X195566175Y-138323720D01*
X195680104Y-138209792D01*
X195805051Y-138037816D01*
X195901557Y-137848412D01*
X195967246Y-137646243D01*
X195967893Y-137642162D01*
X195981849Y-137554043D01*
X196011778Y-137490908D01*
X196071089Y-137453976D01*
X196140952Y-137454974D01*
X196199185Y-137493583D01*
X196207419Y-137504543D01*
X196223001Y-137527862D01*
X196299373Y-137642162D01*
X196417837Y-137760626D01*
X196479061Y-137801534D01*
X196557137Y-137853703D01*
X196711918Y-137917816D01*
X196876228Y-137950499D01*
X196876232Y-137950500D01*
X196876233Y-137950500D01*
X197043768Y-137950500D01*
X197043769Y-137950499D01*
X197208082Y-137917816D01*
X197362863Y-137853703D01*
X197502162Y-137760626D01*
X197528205Y-137734583D01*
X197560819Y-137701970D01*
X197622142Y-137668485D01*
X197691834Y-137673469D01*
X197747767Y-137715341D01*
X197772184Y-137780805D01*
X197772500Y-137789651D01*
X197772500Y-141012353D01*
X197807136Y-141095970D01*
X202840035Y-146128868D01*
X202904032Y-146192865D01*
X202987647Y-146227500D01*
X202987648Y-146227500D01*
X218720383Y-146227500D01*
X218720384Y-146227500D01*
X218803999Y-146192865D01*
X218804001Y-146192863D01*
X218804002Y-146192863D01*
X222034863Y-142962002D01*
X222034863Y-142962001D01*
X222034865Y-142961999D01*
X222069500Y-142878384D01*
X222069500Y-142787878D01*
X222069500Y-139028618D01*
X222046113Y-138972155D01*
X222034868Y-138945005D01*
X221676818Y-138586955D01*
X221643333Y-138525632D01*
X221640499Y-138499274D01*
X221640499Y-138071869D01*
X221640498Y-138071852D01*
X221629999Y-137969074D01*
X221629998Y-137969071D01*
X221591769Y-137853704D01*
X221574814Y-137802537D01*
X221574465Y-137801971D01*
X221574345Y-137801534D01*
X221571760Y-137795989D01*
X221572707Y-137795547D01*
X221556022Y-137734583D01*
X221572594Y-137678142D01*
X221571760Y-137677753D01*
X221574322Y-137672258D01*
X221574465Y-137671770D01*
X221574814Y-137671205D01*
X221629999Y-137504668D01*
X221640500Y-137401880D01*
X221640499Y-136801863D01*
X221629999Y-136699074D01*
X221574814Y-136532537D01*
X221574465Y-136531971D01*
X221574345Y-136531534D01*
X221571760Y-136525989D01*
X221572707Y-136525547D01*
X221556022Y-136464583D01*
X221572594Y-136408142D01*
X221571760Y-136407753D01*
X221574322Y-136402258D01*
X221574465Y-136401770D01*
X221574814Y-136401205D01*
X221629999Y-136234668D01*
X221640500Y-136131880D01*
X221640499Y-135668388D01*
X221649938Y-135620935D01*
X221668500Y-135576124D01*
X221668500Y-126411458D01*
X221666037Y-126405514D01*
X221666037Y-126405507D01*
X221666036Y-126405508D01*
X221633868Y-126327848D01*
X221633866Y-126327843D01*
X221113157Y-125807135D01*
X221029542Y-125772500D01*
X208295253Y-125772500D01*
X208204747Y-125772500D01*
X208204746Y-125772500D01*
X208121129Y-125807136D01*
X205680193Y-128248074D01*
X204871132Y-129057135D01*
X204807135Y-129121132D01*
X204790062Y-129162349D01*
X204772500Y-129204746D01*
X204772500Y-133562435D01*
X204752815Y-133629474D01*
X204736181Y-133650116D01*
X204069482Y-134316815D01*
X204008159Y-134350300D01*
X203938467Y-134345316D01*
X203882534Y-134303444D01*
X203858443Y-134241735D01*
X203849999Y-134159074D01*
X203849998Y-134159071D01*
X203837787Y-134122220D01*
X203794814Y-133992537D01*
X203794465Y-133991971D01*
X203794345Y-133991534D01*
X203791760Y-133985989D01*
X203792707Y-133985547D01*
X203776022Y-133924583D01*
X203792594Y-133868142D01*
X203791760Y-133867753D01*
X203794322Y-133862258D01*
X203794465Y-133861770D01*
X203794814Y-133861205D01*
X203849999Y-133694668D01*
X203860500Y-133591880D01*
X203860499Y-133164465D01*
X203880183Y-133097427D01*
X203896809Y-133076794D01*
X204192866Y-132780739D01*
X204227500Y-132697123D01*
X204227500Y-132606618D01*
X204227500Y-127645595D01*
X204247185Y-127578556D01*
X204263819Y-127557914D01*
X205139549Y-126682184D01*
X206017970Y-125803762D01*
X206079291Y-125770279D01*
X206148983Y-125775263D01*
X206153050Y-125776863D01*
X206251918Y-125817816D01*
X206416228Y-125850499D01*
X206416232Y-125850500D01*
X206416233Y-125850500D01*
X206583768Y-125850500D01*
X206583769Y-125850499D01*
X206748082Y-125817816D01*
X206902863Y-125753703D01*
X207042162Y-125660626D01*
X207160626Y-125542162D01*
X207253703Y-125402863D01*
X207317816Y-125248082D01*
X207350500Y-125083767D01*
X207350500Y-124916233D01*
X207317816Y-124751918D01*
X207253703Y-124597137D01*
X207194034Y-124507836D01*
X207160626Y-124457837D01*
X207042162Y-124339373D01*
X206902860Y-124246295D01*
X206748082Y-124182184D01*
X206748074Y-124182182D01*
X206583771Y-124149500D01*
X206583767Y-124149500D01*
X206416233Y-124149500D01*
X206416228Y-124149500D01*
X206251925Y-124182182D01*
X206251917Y-124182184D01*
X206097139Y-124246295D01*
X205957837Y-124339373D01*
X205839373Y-124457837D01*
X205746295Y-124597139D01*
X205682184Y-124751917D01*
X205682182Y-124751925D01*
X205649500Y-124916228D01*
X205649500Y-125083771D01*
X205682182Y-125248074D01*
X205682185Y-125248086D01*
X205723114Y-125346897D01*
X205730583Y-125416366D01*
X205699308Y-125478845D01*
X205696234Y-125482030D01*
X204100181Y-127078084D01*
X204038858Y-127111569D01*
X203969166Y-127106585D01*
X203913233Y-127064713D01*
X203888816Y-126999249D01*
X203888500Y-126990403D01*
X203888500Y-125492571D01*
X203908185Y-125425532D01*
X203960989Y-125379777D01*
X204030147Y-125369833D01*
X204059953Y-125378010D01*
X204082418Y-125387316D01*
X204246728Y-125419999D01*
X204246732Y-125420000D01*
X204246733Y-125420000D01*
X204414268Y-125420000D01*
X204414269Y-125419999D01*
X204578582Y-125387316D01*
X204733363Y-125323203D01*
X204872662Y-125230126D01*
X204991126Y-125111662D01*
X205084203Y-124972363D01*
X205148316Y-124817582D01*
X205181000Y-124653267D01*
X205181000Y-124485733D01*
X205148316Y-124321418D01*
X205107383Y-124222600D01*
X205099915Y-124153132D01*
X205131190Y-124090653D01*
X205134233Y-124087499D01*
X206007915Y-123213819D01*
X206069238Y-123180334D01*
X206095596Y-123177500D01*
X210727017Y-123177500D01*
X210794056Y-123197185D01*
X210839811Y-123249989D01*
X210846093Y-123266905D01*
X210873254Y-123360393D01*
X210873255Y-123360396D01*
X210956917Y-123501862D01*
X210956923Y-123501870D01*
X211073129Y-123618076D01*
X211073133Y-123618079D01*
X211073135Y-123618081D01*
X211214602Y-123701744D01*
X211256224Y-123713836D01*
X211372426Y-123747597D01*
X211372429Y-123747597D01*
X211372431Y-123747598D01*
X211409306Y-123750500D01*
X211409314Y-123750500D01*
X212715686Y-123750500D01*
X212715694Y-123750500D01*
X212752569Y-123747598D01*
X212752571Y-123747597D01*
X212752573Y-123747597D01*
X212828630Y-123725500D01*
X212910398Y-123701744D01*
X213051865Y-123618081D01*
X213168081Y-123501865D01*
X213251744Y-123360398D01*
X213297598Y-123202569D01*
X213300500Y-123165694D01*
X213300500Y-122924500D01*
X213320185Y-122857461D01*
X213372989Y-122811706D01*
X213424500Y-122800500D01*
X214590686Y-122800500D01*
X214590694Y-122800500D01*
X214627569Y-122797598D01*
X214627571Y-122797597D01*
X214627573Y-122797597D01*
X214725803Y-122769058D01*
X214785398Y-122751744D01*
X214926865Y-122668081D01*
X215043081Y-122551865D01*
X215126744Y-122410398D01*
X215172598Y-122252569D01*
X215175500Y-122215694D01*
X215175500Y-121784306D01*
X215172598Y-121747431D01*
X215171972Y-121745277D01*
X215138836Y-121631224D01*
X215126744Y-121589602D01*
X215043081Y-121448135D01*
X215043079Y-121448133D01*
X215043076Y-121448129D01*
X214926870Y-121331923D01*
X214926862Y-121331917D01*
X214801798Y-121257955D01*
X214785398Y-121248256D01*
X214785397Y-121248255D01*
X214785396Y-121248255D01*
X214785393Y-121248254D01*
X214627573Y-121202402D01*
X214627567Y-121202401D01*
X214590701Y-121199500D01*
X214590694Y-121199500D01*
X213424500Y-121199500D01*
X213357461Y-121179815D01*
X213311706Y-121127011D01*
X213300500Y-121075500D01*
X213300500Y-120834313D01*
X213300499Y-120834298D01*
X213297598Y-120797432D01*
X213297597Y-120797426D01*
X213251745Y-120639606D01*
X213251744Y-120639603D01*
X213251744Y-120639602D01*
X213168081Y-120498135D01*
X213168079Y-120498133D01*
X213168076Y-120498129D01*
X213051870Y-120381923D01*
X213051862Y-120381917D01*
X212910396Y-120298255D01*
X212910393Y-120298254D01*
X212752573Y-120252402D01*
X212752567Y-120252401D01*
X212715701Y-120249500D01*
X212715694Y-120249500D01*
X212162595Y-120249500D01*
X212095556Y-120229815D01*
X212074914Y-120213181D01*
X209360309Y-117498576D01*
X209326824Y-117437253D01*
X209331808Y-117367561D01*
X209347670Y-117338013D01*
X209366106Y-117312639D01*
X209476904Y-117095185D01*
X209552321Y-116863076D01*
X209590500Y-116622027D01*
X209590500Y-116377973D01*
X209552321Y-116136924D01*
X209476904Y-115904815D01*
X209366106Y-115687361D01*
X209326202Y-115632438D01*
X209222660Y-115489923D01*
X209222656Y-115489918D01*
X209050081Y-115317343D01*
X209050076Y-115317339D01*
X208852642Y-115173896D01*
X208852641Y-115173895D01*
X208852639Y-115173894D01*
X208635185Y-115063096D01*
X208403076Y-114987679D01*
X208403074Y-114987678D01*
X208403072Y-114987678D01*
X208234769Y-114961021D01*
X208162027Y-114949500D01*
X207917973Y-114949500D01*
X207862093Y-114958350D01*
X207676927Y-114987678D01*
X207444812Y-115063097D01*
X207227357Y-115173896D01*
X207029923Y-115317339D01*
X207029918Y-115317343D01*
X206857343Y-115489918D01*
X206857339Y-115489923D01*
X206713896Y-115687357D01*
X206603097Y-115904812D01*
X206527678Y-116136927D01*
X206496416Y-116334306D01*
X206489500Y-116377973D01*
X206489500Y-116622027D01*
X206527679Y-116863076D01*
X206603096Y-117095185D01*
X206713397Y-117311664D01*
X206713896Y-117312642D01*
X206857339Y-117510076D01*
X206857343Y-117510081D01*
X207029918Y-117682656D01*
X207029923Y-117682660D01*
X207119536Y-117747767D01*
X207227361Y-117826106D01*
X207444815Y-117936904D01*
X207676924Y-118012321D01*
X207917973Y-118050500D01*
X207917974Y-118050500D01*
X208162026Y-118050500D01*
X208162027Y-118050500D01*
X208403076Y-118012321D01*
X208635185Y-117936904D01*
X208852639Y-117826106D01*
X208878010Y-117807672D01*
X208943814Y-117784192D01*
X209011868Y-117800017D01*
X209038576Y-117820309D01*
X211300292Y-120082025D01*
X211333777Y-120143348D01*
X211328793Y-120213040D01*
X211286921Y-120268973D01*
X211247209Y-120288782D01*
X211214602Y-120298255D01*
X211073137Y-120381917D01*
X211073129Y-120381923D01*
X210956923Y-120498129D01*
X210956917Y-120498137D01*
X210873255Y-120639603D01*
X210873254Y-120639606D01*
X210827402Y-120797426D01*
X210827401Y-120797432D01*
X210824500Y-120834298D01*
X210824500Y-121265701D01*
X210827401Y-121302567D01*
X210827402Y-121302573D01*
X210873254Y-121460393D01*
X210873255Y-121460396D01*
X210947169Y-121585379D01*
X210964352Y-121653103D01*
X210942192Y-121719366D01*
X210887726Y-121763129D01*
X210840437Y-121772500D01*
X206145595Y-121772500D01*
X206078556Y-121752815D01*
X206057914Y-121736181D01*
X205113073Y-120791340D01*
X205079588Y-120730017D01*
X205084572Y-120660325D01*
X205126444Y-120604392D01*
X205176561Y-120582042D01*
X205248082Y-120567816D01*
X205402863Y-120503703D01*
X205542162Y-120410626D01*
X205660626Y-120292162D01*
X205753703Y-120152863D01*
X205817816Y-119998082D01*
X205850500Y-119833767D01*
X205850500Y-119666233D01*
X205817816Y-119501918D01*
X205753703Y-119347137D01*
X205699373Y-119265826D01*
X205660626Y-119207837D01*
X205542162Y-119089373D01*
X205433609Y-119016841D01*
X205388804Y-118963229D01*
X205378500Y-118913739D01*
X205378500Y-116494595D01*
X205398185Y-116427556D01*
X205414819Y-116406914D01*
X208557914Y-113263819D01*
X208619237Y-113230334D01*
X208645595Y-113227500D01*
X218539893Y-113227500D01*
X218606932Y-113247185D01*
X218652687Y-113299989D01*
X218657824Y-113313182D01*
X218697689Y-113435878D01*
X218697691Y-113435881D01*
X218778833Y-113595132D01*
X218883889Y-113739728D01*
X219010272Y-113866111D01*
X219154868Y-113971167D01*
X219314119Y-114052309D01*
X219314121Y-114052310D01*
X219426636Y-114088868D01*
X219484103Y-114107540D01*
X219660634Y-114135500D01*
X219660635Y-114135500D01*
X219839365Y-114135500D01*
X219839366Y-114135500D01*
X220015897Y-114107540D01*
X220015900Y-114107539D01*
X220015901Y-114107539D01*
X220185878Y-114052310D01*
X220185878Y-114052309D01*
X220185881Y-114052309D01*
X220345132Y-113971167D01*
X220489728Y-113866111D01*
X220616111Y-113739728D01*
X220721167Y-113595132D01*
X220802309Y-113435881D01*
X220808234Y-113417647D01*
X220857539Y-113265901D01*
X220857539Y-113265900D01*
X220857540Y-113265897D01*
X220885500Y-113089366D01*
X220885500Y-112910634D01*
X220857540Y-112734103D01*
X220857539Y-112734099D01*
X220857539Y-112734098D01*
X220802310Y-112564121D01*
X220802308Y-112564118D01*
X220800628Y-112560819D01*
X220721167Y-112404868D01*
X220616111Y-112260272D01*
X220489728Y-112133889D01*
X220345132Y-112028833D01*
X220185881Y-111947691D01*
X220185878Y-111947689D01*
X220015900Y-111892460D01*
X219923904Y-111877889D01*
X219889703Y-111872472D01*
X219826569Y-111842544D01*
X219789638Y-111783232D01*
X219790636Y-111713370D01*
X219829246Y-111655137D01*
X219889703Y-111627527D01*
X220015897Y-111607540D01*
X220015900Y-111607539D01*
X220015901Y-111607539D01*
X220185878Y-111552310D01*
X220185878Y-111552309D01*
X220185881Y-111552309D01*
X220345132Y-111471167D01*
X220489728Y-111366111D01*
X220616111Y-111239728D01*
X220721167Y-111095132D01*
X220802309Y-110935881D01*
X220831888Y-110844845D01*
X220857539Y-110765901D01*
X220857539Y-110765900D01*
X220857540Y-110765897D01*
X220885500Y-110589366D01*
X220885500Y-110410634D01*
X220857540Y-110234103D01*
X220857539Y-110234099D01*
X220857539Y-110234098D01*
X220802310Y-110064121D01*
X220802308Y-110064118D01*
X220772826Y-110006255D01*
X220721167Y-109904868D01*
X220616111Y-109760272D01*
X220489728Y-109633889D01*
X220345132Y-109528833D01*
X220185881Y-109447691D01*
X220185878Y-109447689D01*
X220015899Y-109392460D01*
X219949681Y-109381972D01*
X219886546Y-109352043D01*
X219849615Y-109292731D01*
X219850613Y-109222868D01*
X219889223Y-109164636D01*
X219953187Y-109136522D01*
X219969073Y-109135499D01*
X220432872Y-109135499D01*
X220492483Y-109129091D01*
X220627331Y-109078796D01*
X220742546Y-108992546D01*
X220828796Y-108877331D01*
X220879091Y-108742483D01*
X220885500Y-108682873D01*
X220885499Y-107317128D01*
X220880299Y-107268757D01*
X220879091Y-107257516D01*
X220828797Y-107122671D01*
X220828793Y-107122664D01*
X220742547Y-107007455D01*
X220742544Y-107007452D01*
X220627335Y-106921206D01*
X220627328Y-106921202D01*
X220492482Y-106870908D01*
X220492483Y-106870908D01*
X220432883Y-106864501D01*
X220432881Y-106864500D01*
X220432873Y-106864500D01*
X220432864Y-106864500D01*
X219067129Y-106864500D01*
X219067123Y-106864501D01*
X219007516Y-106870908D01*
X218872671Y-106921202D01*
X218872664Y-106921206D01*
X218757455Y-107007452D01*
X218757452Y-107007455D01*
X218671206Y-107122664D01*
X218671202Y-107122671D01*
X218620908Y-107257517D01*
X218614501Y-107317116D01*
X218614500Y-107317128D01*
X218614500Y-108682870D01*
X218614501Y-108682876D01*
X218620908Y-108742483D01*
X218671202Y-108877328D01*
X218671206Y-108877335D01*
X218757452Y-108992544D01*
X218757455Y-108992547D01*
X218872664Y-109078793D01*
X218872671Y-109078797D01*
X219007517Y-109129091D01*
X219007516Y-109129091D01*
X219014444Y-109129835D01*
X219067127Y-109135500D01*
X219530920Y-109135499D01*
X219597957Y-109155183D01*
X219643712Y-109207987D01*
X219653656Y-109277146D01*
X219624631Y-109340702D01*
X219565853Y-109378476D01*
X219550317Y-109381972D01*
X219484100Y-109392460D01*
X219484098Y-109392460D01*
X219314121Y-109447689D01*
X219314118Y-109447691D01*
X219154867Y-109528833D01*
X219010270Y-109633890D01*
X218883890Y-109760270D01*
X218778833Y-109904867D01*
X218697691Y-110064118D01*
X218697689Y-110064121D01*
X218657824Y-110186818D01*
X218618387Y-110244493D01*
X218554029Y-110271692D01*
X218539893Y-110272500D01*
X210204747Y-110272500D01*
X210180257Y-110282644D01*
X210158415Y-110291690D01*
X210121132Y-110307133D01*
X204621133Y-115807133D01*
X204621132Y-115807135D01*
X204600768Y-115827499D01*
X204560300Y-115867966D01*
X204498976Y-115901450D01*
X204429285Y-115896464D01*
X204373352Y-115854592D01*
X204362135Y-115836577D01*
X204286105Y-115687359D01*
X204142660Y-115489923D01*
X204142656Y-115489918D01*
X203970081Y-115317343D01*
X203970076Y-115317339D01*
X203772642Y-115173896D01*
X203772641Y-115173895D01*
X203772639Y-115173894D01*
X203555185Y-115063096D01*
X203323076Y-114987679D01*
X203323074Y-114987678D01*
X203323072Y-114987678D01*
X203154769Y-114961021D01*
X203082027Y-114949500D01*
X202837973Y-114949500D01*
X202782093Y-114958350D01*
X202596927Y-114987678D01*
X202364812Y-115063097D01*
X202147357Y-115173896D01*
X201949923Y-115317339D01*
X201949918Y-115317343D01*
X201777343Y-115489918D01*
X201743818Y-115536062D01*
X201688488Y-115578727D01*
X201618874Y-115584706D01*
X201557079Y-115552100D01*
X201522722Y-115491261D01*
X201519500Y-115463176D01*
X201519500Y-108816385D01*
X201519499Y-108816382D01*
X201496809Y-108761603D01*
X201496808Y-108761600D01*
X201486938Y-108737770D01*
X201477500Y-108690320D01*
X201477500Y-107430882D01*
X201477500Y-107430881D01*
X201442865Y-107347266D01*
X201378868Y-107283269D01*
X200793588Y-106697989D01*
X200204647Y-106109047D01*
X200204642Y-106109045D01*
X200121030Y-106074411D01*
X198484860Y-106074411D01*
X198394354Y-106074411D01*
X198394352Y-106074411D01*
X198394350Y-106074412D01*
X198310741Y-106109042D01*
X196228340Y-108191443D01*
X196167017Y-108224928D01*
X196097325Y-108219944D01*
X196041392Y-108178072D01*
X196018186Y-108123160D01*
X196006302Y-108048129D01*
X195996147Y-107984013D01*
X195920730Y-107751904D01*
X195809932Y-107534450D01*
X195744845Y-107444865D01*
X195666486Y-107337012D01*
X195666482Y-107337007D01*
X195493907Y-107164432D01*
X195493902Y-107164428D01*
X195296468Y-107020985D01*
X195296467Y-107020984D01*
X195296465Y-107020983D01*
X195216618Y-106980299D01*
X195079015Y-106910186D01*
X195006867Y-106886744D01*
X194949192Y-106847306D01*
X194921994Y-106782947D01*
X194933909Y-106714101D01*
X194981154Y-106662625D01*
X195028237Y-106645977D01*
X196842329Y-106395735D01*
X196904818Y-106387117D01*
X196912096Y-106386617D01*
X196913220Y-106385958D01*
X196913223Y-106385958D01*
X196913226Y-106385956D01*
X196913227Y-106385956D01*
X196929055Y-106376687D01*
X196982054Y-106345652D01*
X196982055Y-106345649D01*
X196982057Y-106345649D01*
X196989126Y-106336317D01*
X196990702Y-106334985D01*
X196992774Y-106332431D01*
X196994383Y-106329377D01*
X197007064Y-106312639D01*
X197029026Y-106283648D01*
X197030201Y-106282149D01*
X197030222Y-106282068D01*
X197030223Y-106282068D01*
X197047487Y-106216007D01*
X197049330Y-106208955D01*
X197050437Y-106205245D01*
X197050389Y-106204897D01*
X197050390Y-106204897D01*
X197041520Y-106140590D01*
X197038112Y-106115884D01*
X196769884Y-104171132D01*
X196747615Y-104009674D01*
X196757955Y-103940575D01*
X196804012Y-103888034D01*
X196853506Y-103869897D01*
X205993427Y-102609280D01*
X206010369Y-102608117D01*
X222204129Y-102608117D01*
X222271168Y-102627802D01*
G37*
%TD.AperFunction*%
%TA.AperFunction,Conductor*%
G36*
X115218986Y-101966293D02*
G01*
X115266903Y-102014210D01*
X115403413Y-102113391D01*
X115477153Y-102150963D01*
X115553758Y-102189996D01*
X115553764Y-102189998D01*
X115686817Y-102233229D01*
X115744493Y-102272666D01*
X115771692Y-102337024D01*
X115772500Y-102351160D01*
X115772500Y-103045253D01*
X115807136Y-103128870D01*
X117966420Y-105288154D01*
X119971132Y-107292866D01*
X119971137Y-107292868D01*
X120029705Y-107317128D01*
X120029706Y-107317128D01*
X120054744Y-107327499D01*
X120054745Y-107327499D01*
X120054747Y-107327500D01*
X120054748Y-107327500D01*
X120145253Y-107327500D01*
X127518505Y-107327500D01*
X127585544Y-107347185D01*
X127631299Y-107399989D01*
X127641243Y-107469147D01*
X127612218Y-107532703D01*
X127606186Y-107539181D01*
X122871132Y-112274235D01*
X122807135Y-112338232D01*
X122772500Y-112421847D01*
X122772500Y-118801847D01*
X122772500Y-118892353D01*
X122787433Y-118928405D01*
X122807136Y-118975970D01*
X123627181Y-119796014D01*
X123660666Y-119857337D01*
X123663500Y-119883695D01*
X123663500Y-127156383D01*
X123643815Y-127223422D01*
X123591011Y-127269177D01*
X123521853Y-127279121D01*
X123466615Y-127256701D01*
X123352643Y-127173896D01*
X123135187Y-127063097D01*
X123135186Y-127063096D01*
X123135185Y-127063096D01*
X122903076Y-126987679D01*
X122903074Y-126987678D01*
X122903072Y-126987678D01*
X122714670Y-126957838D01*
X122662027Y-126949500D01*
X122417973Y-126949500D01*
X122365330Y-126957838D01*
X122176927Y-126987678D01*
X121944812Y-127063097D01*
X121727357Y-127173896D01*
X121529923Y-127317339D01*
X121529918Y-127317343D01*
X121357343Y-127489918D01*
X121357339Y-127489923D01*
X121213896Y-127687357D01*
X121103097Y-127904812D01*
X121027678Y-128136927D01*
X120993851Y-128350500D01*
X120989500Y-128377973D01*
X120989500Y-128622027D01*
X120993851Y-128649500D01*
X121023924Y-128839373D01*
X121027679Y-128863076D01*
X121077957Y-129017816D01*
X121103097Y-129095187D01*
X121213895Y-129312641D01*
X121232327Y-129338011D01*
X121255806Y-129403817D01*
X121239980Y-129471871D01*
X121219689Y-129498576D01*
X120532086Y-130186181D01*
X120470763Y-130219666D01*
X120444405Y-130222500D01*
X117959115Y-130222500D01*
X117892076Y-130202815D01*
X117846321Y-130150011D01*
X117836377Y-130080853D01*
X117865402Y-130017297D01*
X117920795Y-129980569D01*
X118055185Y-129936904D01*
X118272639Y-129826106D01*
X118470083Y-129682655D01*
X118642655Y-129510083D01*
X118786106Y-129312639D01*
X118896904Y-129095185D01*
X118972321Y-128863076D01*
X119010500Y-128622027D01*
X119010500Y-128377973D01*
X118972321Y-128136924D01*
X118896904Y-127904815D01*
X118786106Y-127687361D01*
X118753537Y-127642533D01*
X118642660Y-127489923D01*
X118642656Y-127489918D01*
X118470081Y-127317343D01*
X118470076Y-127317339D01*
X118272642Y-127173896D01*
X118272641Y-127173895D01*
X118272639Y-127173894D01*
X118055185Y-127063096D01*
X117823076Y-126987679D01*
X117823074Y-126987678D01*
X117823072Y-126987678D01*
X117634670Y-126957838D01*
X117582027Y-126949500D01*
X117337973Y-126949500D01*
X117285330Y-126957838D01*
X117096927Y-126987678D01*
X116864812Y-127063097D01*
X116647357Y-127173896D01*
X116449923Y-127317339D01*
X116449918Y-127317343D01*
X116277343Y-127489918D01*
X116277339Y-127489923D01*
X116133896Y-127687357D01*
X116059668Y-127833037D01*
X116011693Y-127883833D01*
X115943872Y-127900628D01*
X115877737Y-127878090D01*
X115834286Y-127823375D01*
X115827566Y-127800933D01*
X115817817Y-127751925D01*
X115817816Y-127751918D01*
X115755792Y-127602181D01*
X115753704Y-127597139D01*
X115751762Y-127594233D01*
X115700662Y-127517756D01*
X115660626Y-127457837D01*
X115542162Y-127339373D01*
X115402860Y-127246295D01*
X115248082Y-127182184D01*
X115248074Y-127182182D01*
X115083771Y-127149500D01*
X115083767Y-127149500D01*
X114916233Y-127149500D01*
X114916228Y-127149500D01*
X114751925Y-127182182D01*
X114751917Y-127182184D01*
X114597139Y-127246295D01*
X114457837Y-127339373D01*
X114339373Y-127457837D01*
X114246295Y-127597139D01*
X114182184Y-127751917D01*
X114182182Y-127751925D01*
X114149500Y-127916228D01*
X114149500Y-128083771D01*
X114182182Y-128248074D01*
X114182184Y-128248082D01*
X114246295Y-128402860D01*
X114339373Y-128542162D01*
X114457837Y-128660626D01*
X114506446Y-128693105D01*
X114597137Y-128753703D01*
X114751918Y-128817816D01*
X114897989Y-128846871D01*
X114916228Y-128850499D01*
X114916232Y-128850500D01*
X114916233Y-128850500D01*
X115083768Y-128850500D01*
X115083769Y-128850499D01*
X115248082Y-128817816D01*
X115402863Y-128753703D01*
X115410799Y-128748399D01*
X115477475Y-128727520D01*
X115479693Y-128727500D01*
X115545253Y-128727500D01*
X115820300Y-128727500D01*
X115887339Y-128747185D01*
X115933094Y-128799989D01*
X115942773Y-128832102D01*
X115947678Y-128863076D01*
X116023097Y-129095189D01*
X116072651Y-129192443D01*
X116129346Y-129303714D01*
X116133896Y-129312642D01*
X116277339Y-129510076D01*
X116277343Y-129510081D01*
X116449918Y-129682656D01*
X116449923Y-129682660D01*
X116586548Y-129781923D01*
X116647361Y-129826106D01*
X116864815Y-129936904D01*
X116999204Y-129980569D01*
X117056879Y-130020006D01*
X117084077Y-130084365D01*
X117072162Y-130153211D01*
X117024918Y-130204687D01*
X116960885Y-130222500D01*
X114397983Y-130222500D01*
X114330944Y-130202815D01*
X114285189Y-130150011D01*
X114278907Y-130133095D01*
X114251745Y-130039606D01*
X114251744Y-130039603D01*
X114251744Y-130039602D01*
X114168081Y-129898135D01*
X114168079Y-129898133D01*
X114168076Y-129898129D01*
X114051870Y-129781923D01*
X114051862Y-129781917D01*
X113973616Y-129735643D01*
X113910398Y-129698256D01*
X113910397Y-129698255D01*
X113910396Y-129698255D01*
X113910393Y-129698254D01*
X113752573Y-129652402D01*
X113752567Y-129652401D01*
X113715701Y-129649500D01*
X113715694Y-129649500D01*
X112409306Y-129649500D01*
X112409298Y-129649500D01*
X112372432Y-129652401D01*
X112372426Y-129652402D01*
X112214606Y-129698254D01*
X112214603Y-129698255D01*
X112073137Y-129781917D01*
X112073129Y-129781923D01*
X111956923Y-129898129D01*
X111956917Y-129898137D01*
X111873255Y-130039603D01*
X111873254Y-130039606D01*
X111827402Y-130197426D01*
X111827401Y-130197432D01*
X111824500Y-130234298D01*
X111824500Y-130665701D01*
X111827401Y-130702567D01*
X111827402Y-130702573D01*
X111873254Y-130860393D01*
X111873255Y-130860396D01*
X111873256Y-130860398D01*
X111885286Y-130880739D01*
X111956917Y-131001862D01*
X111956923Y-131001870D01*
X112073129Y-131118076D01*
X112073133Y-131118079D01*
X112073135Y-131118081D01*
X112214602Y-131201744D01*
X112228494Y-131205780D01*
X112372426Y-131247597D01*
X112372429Y-131247597D01*
X112372431Y-131247598D01*
X112409306Y-131250500D01*
X113575500Y-131250500D01*
X113584185Y-131253050D01*
X113593147Y-131251762D01*
X113617187Y-131262740D01*
X113642539Y-131270185D01*
X113648466Y-131277025D01*
X113656703Y-131280787D01*
X113670992Y-131303021D01*
X113688294Y-131322989D01*
X113690581Y-131333503D01*
X113694477Y-131339565D01*
X113699500Y-131374500D01*
X113699500Y-131425500D01*
X113679815Y-131492539D01*
X113627011Y-131538294D01*
X113575500Y-131549500D01*
X112409298Y-131549500D01*
X112372432Y-131552401D01*
X112372426Y-131552402D01*
X112214606Y-131598254D01*
X112214603Y-131598255D01*
X112073137Y-131681917D01*
X112073129Y-131681923D01*
X111956923Y-131798129D01*
X111956917Y-131798137D01*
X111873255Y-131939603D01*
X111873254Y-131939606D01*
X111827402Y-132097426D01*
X111827401Y-132097432D01*
X111824500Y-132134298D01*
X111824500Y-132565701D01*
X111827401Y-132602567D01*
X111827402Y-132602573D01*
X111873254Y-132760393D01*
X111873255Y-132760396D01*
X111873256Y-132760398D01*
X111877997Y-132768414D01*
X111956917Y-132901862D01*
X111956923Y-132901870D01*
X112073129Y-133018076D01*
X112073133Y-133018079D01*
X112073135Y-133018081D01*
X112214602Y-133101744D01*
X112262705Y-133115719D01*
X112321589Y-133153324D01*
X112350796Y-133216796D01*
X112341050Y-133285983D01*
X112315790Y-133322476D01*
X110458576Y-135179689D01*
X110397253Y-135213174D01*
X110327561Y-135208190D01*
X110298011Y-135192327D01*
X110272641Y-135173895D01*
X110055187Y-135063097D01*
X110055186Y-135063096D01*
X110055185Y-135063096D01*
X109823076Y-134987679D01*
X109823074Y-134987678D01*
X109823072Y-134987678D01*
X109611177Y-134954117D01*
X109582027Y-134949500D01*
X109337973Y-134949500D01*
X109308823Y-134954117D01*
X109096927Y-134987678D01*
X108864812Y-135063097D01*
X108647357Y-135173896D01*
X108449923Y-135317339D01*
X108449918Y-135317343D01*
X108277343Y-135489918D01*
X108277339Y-135489923D01*
X108133896Y-135687357D01*
X108023097Y-135904812D01*
X108023096Y-135904814D01*
X108023096Y-135904815D01*
X108008572Y-135949516D01*
X107947678Y-136136927D01*
X107909500Y-136377973D01*
X107909500Y-136622026D01*
X107945911Y-136851918D01*
X107947679Y-136863076D01*
X107996639Y-137013760D01*
X108023097Y-137095187D01*
X108133896Y-137312642D01*
X108277339Y-137510076D01*
X108277343Y-137510081D01*
X108449918Y-137682656D01*
X108449923Y-137682660D01*
X108557231Y-137760623D01*
X108647361Y-137826106D01*
X108864815Y-137936904D01*
X109096924Y-138012321D01*
X109337973Y-138050500D01*
X109337974Y-138050500D01*
X109582026Y-138050500D01*
X109582027Y-138050500D01*
X109823076Y-138012321D01*
X110055185Y-137936904D01*
X110272639Y-137826106D01*
X110470083Y-137682655D01*
X110642655Y-137510083D01*
X110786106Y-137312639D01*
X110896904Y-137095185D01*
X110972321Y-136863076D01*
X111010500Y-136622027D01*
X111010500Y-136377973D01*
X112989500Y-136377973D01*
X112989500Y-136622026D01*
X113025911Y-136851918D01*
X113027679Y-136863076D01*
X113076639Y-137013760D01*
X113103097Y-137095187D01*
X113213896Y-137312642D01*
X113357339Y-137510076D01*
X113357343Y-137510081D01*
X113529918Y-137682656D01*
X113529923Y-137682660D01*
X113637231Y-137760623D01*
X113727361Y-137826106D01*
X113944815Y-137936904D01*
X114176924Y-138012321D01*
X114417973Y-138050500D01*
X114417974Y-138050500D01*
X114662026Y-138050500D01*
X114662027Y-138050500D01*
X114903076Y-138012321D01*
X115135185Y-137936904D01*
X115352639Y-137826106D01*
X115550083Y-137682655D01*
X115722655Y-137510083D01*
X115866106Y-137312639D01*
X115976904Y-137095185D01*
X116052321Y-136863076D01*
X116090500Y-136622027D01*
X116090500Y-136377973D01*
X116052321Y-136136924D01*
X115976904Y-135904815D01*
X115866106Y-135687361D01*
X115799861Y-135596182D01*
X115722660Y-135489923D01*
X115722656Y-135489918D01*
X115550081Y-135317343D01*
X115550076Y-135317339D01*
X115352642Y-135173896D01*
X115352641Y-135173895D01*
X115352639Y-135173894D01*
X115135185Y-135063096D01*
X114903076Y-134987679D01*
X114903074Y-134987678D01*
X114903072Y-134987678D01*
X114691177Y-134954117D01*
X114662027Y-134949500D01*
X114417973Y-134949500D01*
X114388823Y-134954117D01*
X114176927Y-134987678D01*
X113944812Y-135063097D01*
X113727357Y-135173896D01*
X113529923Y-135317339D01*
X113529918Y-135317343D01*
X113357343Y-135489918D01*
X113357339Y-135489923D01*
X113213896Y-135687357D01*
X113103097Y-135904812D01*
X113103096Y-135904814D01*
X113103096Y-135904815D01*
X113088572Y-135949516D01*
X113027678Y-136136927D01*
X112989500Y-136377973D01*
X111010500Y-136377973D01*
X110972321Y-136136924D01*
X110896904Y-135904815D01*
X110786106Y-135687361D01*
X110767672Y-135661989D01*
X110744192Y-135596182D01*
X110760017Y-135528128D01*
X110780305Y-135501426D01*
X113094914Y-133186819D01*
X113156237Y-133153334D01*
X113182595Y-133150500D01*
X113715686Y-133150500D01*
X113715694Y-133150500D01*
X113752569Y-133147598D01*
X113752571Y-133147597D01*
X113752573Y-133147597D01*
X113813857Y-133129792D01*
X113910398Y-133101744D01*
X114051865Y-133018081D01*
X114168081Y-132901865D01*
X114251744Y-132760398D01*
X114297598Y-132602569D01*
X114300500Y-132565694D01*
X114300500Y-132324500D01*
X114320185Y-132257461D01*
X114372989Y-132211706D01*
X114424500Y-132200500D01*
X115364905Y-132200500D01*
X115431944Y-132220185D01*
X115452586Y-132236819D01*
X126351179Y-143135412D01*
X126384664Y-143196735D01*
X126387054Y-143231866D01*
X126387096Y-143231868D01*
X126387080Y-143232250D01*
X126387118Y-143232794D01*
X126387001Y-143234281D01*
X126387000Y-143234313D01*
X126387000Y-143665701D01*
X126389901Y-143702567D01*
X126389902Y-143702573D01*
X126435754Y-143860393D01*
X126435755Y-143860396D01*
X126519417Y-144001862D01*
X126519423Y-144001870D01*
X126578372Y-144060819D01*
X126611857Y-144122142D01*
X126606873Y-144191834D01*
X126565001Y-144247767D01*
X126499537Y-144272184D01*
X126490691Y-144272500D01*
X124179700Y-144272500D01*
X124112661Y-144252815D01*
X124066906Y-144200011D01*
X124057227Y-144167898D01*
X124052321Y-144136923D01*
X124008439Y-144001870D01*
X123976904Y-143904815D01*
X123976902Y-143904812D01*
X123976902Y-143904810D01*
X123888808Y-143731917D01*
X123866106Y-143687361D01*
X123804379Y-143602401D01*
X123722660Y-143489923D01*
X123722656Y-143489918D01*
X123550081Y-143317343D01*
X123550076Y-143317339D01*
X123352642Y-143173896D01*
X123352641Y-143173895D01*
X123352639Y-143173894D01*
X123135185Y-143063096D01*
X122903076Y-142987679D01*
X122903074Y-142987678D01*
X122903072Y-142987678D01*
X122734769Y-142961021D01*
X122662027Y-142949500D01*
X122417973Y-142949500D01*
X122362093Y-142958350D01*
X122176927Y-142987678D01*
X121944812Y-143063097D01*
X121727357Y-143173896D01*
X121529923Y-143317339D01*
X121529918Y-143317343D01*
X121357343Y-143489918D01*
X121357339Y-143489923D01*
X121213896Y-143687357D01*
X121103097Y-143904812D01*
X121103096Y-143904814D01*
X121103096Y-143904815D01*
X121075547Y-143989602D01*
X121027678Y-144136927D01*
X120997620Y-144326704D01*
X120989500Y-144377973D01*
X120989500Y-144622027D01*
X120994338Y-144652573D01*
X121019335Y-144810399D01*
X121027679Y-144863076D01*
X121103096Y-145095185D01*
X121206950Y-145299011D01*
X121213896Y-145312642D01*
X121357339Y-145510076D01*
X121357343Y-145510081D01*
X121529918Y-145682656D01*
X121529923Y-145682660D01*
X121702136Y-145807779D01*
X121727361Y-145826106D01*
X121944815Y-145936904D01*
X122176924Y-146012321D01*
X122417973Y-146050500D01*
X122417974Y-146050500D01*
X122662026Y-146050500D01*
X122662027Y-146050500D01*
X122903076Y-146012321D01*
X123135185Y-145936904D01*
X123352639Y-145826106D01*
X123550083Y-145682655D01*
X123722655Y-145510083D01*
X123866106Y-145312639D01*
X123976904Y-145095185D01*
X124052321Y-144863076D01*
X124057227Y-144832102D01*
X124087156Y-144768967D01*
X124146468Y-144732036D01*
X124179700Y-144727500D01*
X128193570Y-144727500D01*
X128260609Y-144747185D01*
X128306364Y-144799989D01*
X128307582Y-144803268D01*
X128307657Y-144803236D01*
X128310756Y-144810399D01*
X128394417Y-144951862D01*
X128394423Y-144951870D01*
X128510629Y-145068076D01*
X128510633Y-145068079D01*
X128510635Y-145068081D01*
X128652102Y-145151744D01*
X128679896Y-145159819D01*
X128809926Y-145197597D01*
X128809929Y-145197597D01*
X128809931Y-145197598D01*
X128846806Y-145200500D01*
X128846814Y-145200500D01*
X130153186Y-145200500D01*
X130153194Y-145200500D01*
X130190069Y-145197598D01*
X130190071Y-145197597D01*
X130190073Y-145197597D01*
X130231691Y-145185505D01*
X130347898Y-145151744D01*
X130489365Y-145068081D01*
X130605581Y-144951865D01*
X130689244Y-144810398D01*
X130735098Y-144652569D01*
X130738000Y-144615694D01*
X130738000Y-144184306D01*
X130735098Y-144147431D01*
X130732046Y-144136927D01*
X130689245Y-143989606D01*
X130689244Y-143989603D01*
X130689244Y-143989602D01*
X130605581Y-143848135D01*
X130605579Y-143848133D01*
X130605576Y-143848129D01*
X130489370Y-143731923D01*
X130489362Y-143731917D01*
X130347896Y-143648255D01*
X130347893Y-143648254D01*
X130190073Y-143602402D01*
X130190067Y-143602401D01*
X130153201Y-143599500D01*
X130153194Y-143599500D01*
X128987000Y-143599500D01*
X128978314Y-143596949D01*
X128969353Y-143598238D01*
X128945312Y-143587259D01*
X128919961Y-143579815D01*
X128914033Y-143572974D01*
X128905797Y-143569213D01*
X128891507Y-143546978D01*
X128874206Y-143527011D01*
X128871918Y-143516496D01*
X128868023Y-143510435D01*
X128863000Y-143475500D01*
X128863000Y-143424500D01*
X128882685Y-143357461D01*
X128935489Y-143311706D01*
X128987000Y-143300500D01*
X130153186Y-143300500D01*
X130153194Y-143300500D01*
X130190069Y-143297598D01*
X130190071Y-143297597D01*
X130190073Y-143297597D01*
X130231691Y-143285505D01*
X130347898Y-143251744D01*
X130489365Y-143168081D01*
X130605581Y-143051865D01*
X130689244Y-142910398D01*
X130735098Y-142752569D01*
X130738000Y-142715694D01*
X130738000Y-142284306D01*
X130735098Y-142247431D01*
X130689244Y-142089602D01*
X130605581Y-141948135D01*
X130605579Y-141948133D01*
X130605576Y-141948129D01*
X130489370Y-141831923D01*
X130489362Y-141831917D01*
X130400009Y-141779074D01*
X130347898Y-141748256D01*
X130347897Y-141748255D01*
X130347896Y-141748255D01*
X130347893Y-141748254D01*
X130190073Y-141702402D01*
X130190067Y-141702401D01*
X130153201Y-141699500D01*
X130153194Y-141699500D01*
X129072596Y-141699500D01*
X129005557Y-141679815D01*
X128984915Y-141663181D01*
X125723819Y-138402085D01*
X125709115Y-138375157D01*
X125692523Y-138349339D01*
X125691631Y-138343138D01*
X125690334Y-138340762D01*
X125687500Y-138314404D01*
X125687500Y-138139699D01*
X125707185Y-138072660D01*
X125759989Y-138026905D01*
X125792095Y-138017227D01*
X125823076Y-138012321D01*
X126055185Y-137936904D01*
X126272639Y-137826106D01*
X126470083Y-137682655D01*
X126642655Y-137510083D01*
X126786106Y-137312639D01*
X126896904Y-137095185D01*
X126972321Y-136863076D01*
X127010500Y-136622027D01*
X127010500Y-136377973D01*
X128989500Y-136377973D01*
X128989500Y-136622026D01*
X129025911Y-136851918D01*
X129027679Y-136863076D01*
X129076639Y-137013760D01*
X129103097Y-137095187D01*
X129213896Y-137312642D01*
X129357339Y-137510076D01*
X129357343Y-137510081D01*
X129529918Y-137682656D01*
X129529923Y-137682660D01*
X129637231Y-137760623D01*
X129727361Y-137826106D01*
X129944815Y-137936904D01*
X130176924Y-138012321D01*
X130417973Y-138050500D01*
X130417974Y-138050500D01*
X130662026Y-138050500D01*
X130662027Y-138050500D01*
X130903076Y-138012321D01*
X131135185Y-137936904D01*
X131352639Y-137826106D01*
X131550083Y-137682655D01*
X131722655Y-137510083D01*
X131866106Y-137312639D01*
X131976904Y-137095185D01*
X132052321Y-136863076D01*
X132090500Y-136622027D01*
X132090500Y-136377973D01*
X132052321Y-136136924D01*
X131976904Y-135904815D01*
X131866106Y-135687361D01*
X131799861Y-135596182D01*
X131722660Y-135489923D01*
X131722656Y-135489918D01*
X131550081Y-135317343D01*
X131550076Y-135317339D01*
X131352642Y-135173896D01*
X131352641Y-135173895D01*
X131352639Y-135173894D01*
X131135185Y-135063096D01*
X130903076Y-134987679D01*
X130903074Y-134987678D01*
X130903072Y-134987678D01*
X130691177Y-134954117D01*
X130662027Y-134949500D01*
X130417973Y-134949500D01*
X130388823Y-134954117D01*
X130176927Y-134987678D01*
X129944812Y-135063097D01*
X129727357Y-135173896D01*
X129529923Y-135317339D01*
X129529918Y-135317343D01*
X129357343Y-135489918D01*
X129357339Y-135489923D01*
X129213896Y-135687357D01*
X129103097Y-135904812D01*
X129103096Y-135904814D01*
X129103096Y-135904815D01*
X129088572Y-135949516D01*
X129027678Y-136136927D01*
X128989500Y-136377973D01*
X127010500Y-136377973D01*
X126972321Y-136136924D01*
X126896904Y-135904815D01*
X126786106Y-135687361D01*
X126719861Y-135596182D01*
X126642660Y-135489923D01*
X126642656Y-135489918D01*
X126470081Y-135317343D01*
X126470076Y-135317339D01*
X126272642Y-135173896D01*
X126272641Y-135173895D01*
X126272639Y-135173894D01*
X126055185Y-135063096D01*
X125823076Y-134987679D01*
X125823074Y-134987678D01*
X125823072Y-134987678D01*
X125611177Y-134954117D01*
X125582027Y-134949500D01*
X125337973Y-134949500D01*
X125308823Y-134954117D01*
X125096927Y-134987678D01*
X124864812Y-135063097D01*
X124647357Y-135173896D01*
X124449923Y-135317339D01*
X124449918Y-135317343D01*
X124330181Y-135437081D01*
X124268858Y-135470566D01*
X124199166Y-135465582D01*
X124143233Y-135423710D01*
X124118816Y-135358246D01*
X124118500Y-135349400D01*
X124118500Y-120019595D01*
X124138185Y-119952556D01*
X124190989Y-119906801D01*
X124260147Y-119896857D01*
X124323703Y-119925882D01*
X124330180Y-119931913D01*
X128088264Y-123689998D01*
X131835498Y-127437232D01*
X131868983Y-127498555D01*
X131863999Y-127568247D01*
X131848139Y-127597793D01*
X131844950Y-127602181D01*
X131748444Y-127791585D01*
X131682753Y-127993760D01*
X131649500Y-128203713D01*
X131649500Y-128416286D01*
X131680920Y-128614668D01*
X131682754Y-128626243D01*
X131745000Y-128817817D01*
X131748444Y-128828414D01*
X131844951Y-129017820D01*
X131969890Y-129189786D01*
X132083818Y-129303714D01*
X132117303Y-129365037D01*
X132112319Y-129434729D01*
X132070447Y-129490662D01*
X132039471Y-129507577D01*
X131907912Y-129556646D01*
X131907906Y-129556649D01*
X131792812Y-129642809D01*
X131792809Y-129642812D01*
X131706649Y-129757906D01*
X131706645Y-129757913D01*
X131656403Y-129892620D01*
X131656401Y-129892627D01*
X131650000Y-129952155D01*
X131650000Y-130600000D01*
X132566988Y-130600000D01*
X132534075Y-130657007D01*
X132500000Y-130784174D01*
X132500000Y-130915826D01*
X132534075Y-131042993D01*
X132566988Y-131100000D01*
X131650000Y-131100000D01*
X131650000Y-131747844D01*
X131656401Y-131807372D01*
X131656403Y-131807379D01*
X131706645Y-131942086D01*
X131706649Y-131942093D01*
X131792809Y-132057187D01*
X131792812Y-132057190D01*
X131907906Y-132143350D01*
X131907913Y-132143354D01*
X132042620Y-132193596D01*
X132042627Y-132193598D01*
X132102155Y-132199999D01*
X132102172Y-132200000D01*
X132750000Y-132200000D01*
X132750000Y-131283012D01*
X132807007Y-131315925D01*
X132934174Y-131350000D01*
X133065826Y-131350000D01*
X133192993Y-131315925D01*
X133250000Y-131283012D01*
X133250000Y-132200000D01*
X133897828Y-132200000D01*
X133897844Y-132199999D01*
X133957372Y-132193598D01*
X133957379Y-132193596D01*
X134092086Y-132143354D01*
X134092093Y-132143350D01*
X134207187Y-132057190D01*
X134207190Y-132057187D01*
X134293350Y-131942093D01*
X134293354Y-131942086D01*
X134343596Y-131807379D01*
X134343598Y-131807372D01*
X134349999Y-131747844D01*
X134350000Y-131747827D01*
X134350000Y-131100000D01*
X133433012Y-131100000D01*
X133465925Y-131042993D01*
X133500000Y-130915826D01*
X133500000Y-130784174D01*
X133465925Y-130657007D01*
X133433012Y-130600000D01*
X134350000Y-130600000D01*
X134350000Y-129952172D01*
X134349999Y-129952155D01*
X134343598Y-129892627D01*
X134343596Y-129892620D01*
X134293354Y-129757913D01*
X134293350Y-129757906D01*
X134207190Y-129642812D01*
X134207187Y-129642809D01*
X134092093Y-129556649D01*
X134092088Y-129556646D01*
X133960528Y-129507577D01*
X133904595Y-129465705D01*
X133880178Y-129400241D01*
X133895030Y-129331968D01*
X133916175Y-129303720D01*
X134030104Y-129189792D01*
X134050043Y-129162349D01*
X134155048Y-129017820D01*
X134155047Y-129017820D01*
X134155051Y-129017816D01*
X134251557Y-128828412D01*
X134317246Y-128626243D01*
X134350500Y-128416287D01*
X134350500Y-128203713D01*
X134317246Y-127993757D01*
X134251557Y-127791588D01*
X134155051Y-127602184D01*
X134155049Y-127602181D01*
X134155048Y-127602179D01*
X134030109Y-127430213D01*
X133879786Y-127279890D01*
X133707820Y-127154951D01*
X133707115Y-127154591D01*
X133699054Y-127150485D01*
X133648259Y-127102512D01*
X133631463Y-127034692D01*
X133653999Y-126968556D01*
X133699054Y-126929515D01*
X133707816Y-126925051D01*
X133760835Y-126886531D01*
X133879786Y-126800109D01*
X133879788Y-126800106D01*
X133879792Y-126800104D01*
X134030104Y-126649792D01*
X134030106Y-126649788D01*
X134030109Y-126649786D01*
X134155048Y-126477820D01*
X134155047Y-126477820D01*
X134155051Y-126477816D01*
X134251557Y-126288412D01*
X134317246Y-126086243D01*
X134350500Y-125876287D01*
X134350500Y-125663713D01*
X134317246Y-125453757D01*
X134251557Y-125251588D01*
X134155051Y-125062184D01*
X134155049Y-125062181D01*
X134155048Y-125062179D01*
X134030109Y-124890213D01*
X133879786Y-124739890D01*
X133707820Y-124614951D01*
X133707115Y-124614591D01*
X133699054Y-124610485D01*
X133648259Y-124562512D01*
X133631463Y-124494692D01*
X133653999Y-124428556D01*
X133699054Y-124389515D01*
X133707816Y-124385051D01*
X133729789Y-124369086D01*
X133879786Y-124260109D01*
X133879788Y-124260106D01*
X133879792Y-124260104D01*
X134030104Y-124109792D01*
X134030106Y-124109788D01*
X134030109Y-124109786D01*
X134150706Y-123943796D01*
X134155051Y-123937816D01*
X134251557Y-123748412D01*
X134317246Y-123546243D01*
X134350500Y-123336287D01*
X134350500Y-123123713D01*
X134317246Y-122913757D01*
X134251557Y-122711588D01*
X134155051Y-122522184D01*
X134155049Y-122522181D01*
X134155048Y-122522179D01*
X134030109Y-122350213D01*
X133879786Y-122199890D01*
X133707820Y-122074951D01*
X133518414Y-121978444D01*
X133518413Y-121978443D01*
X133518412Y-121978443D01*
X133316243Y-121912754D01*
X133316241Y-121912753D01*
X133316240Y-121912753D01*
X133154957Y-121887208D01*
X133106287Y-121879500D01*
X132893713Y-121879500D01*
X132845042Y-121887208D01*
X132683760Y-121912753D01*
X132481585Y-121978444D01*
X132292179Y-122074951D01*
X132120213Y-122199890D01*
X131969890Y-122350213D01*
X131844951Y-122522179D01*
X131748444Y-122711585D01*
X131691507Y-122886818D01*
X131652069Y-122944494D01*
X131587711Y-122971692D01*
X131573576Y-122972500D01*
X129199796Y-122972500D01*
X129132757Y-122952815D01*
X129112115Y-122936181D01*
X124841819Y-118665885D01*
X124808334Y-118604562D01*
X124805500Y-118578204D01*
X124805500Y-113671077D01*
X124814939Y-113623624D01*
X124817816Y-113616679D01*
X124850500Y-113452364D01*
X124850500Y-113284830D01*
X124839660Y-113230334D01*
X124817818Y-113120522D01*
X124817816Y-113120518D01*
X124817816Y-113120515D01*
X124814937Y-113113566D01*
X124813311Y-113105391D01*
X124810523Y-113101052D01*
X124805500Y-113066117D01*
X124805500Y-112922959D01*
X124825185Y-112855920D01*
X124877989Y-112810165D01*
X124947147Y-112800221D01*
X124976951Y-112808397D01*
X125030273Y-112830484D01*
X125084676Y-112874325D01*
X125106741Y-112940619D01*
X125106820Y-112945045D01*
X125106820Y-116569067D01*
X125106820Y-116659573D01*
X125141455Y-116743188D01*
X125141456Y-116743189D01*
X126743606Y-118345340D01*
X126777091Y-118406663D01*
X126772107Y-118476355D01*
X126766410Y-118489316D01*
X126668444Y-118681585D01*
X126602753Y-118883760D01*
X126577817Y-119041199D01*
X126569500Y-119093713D01*
X126569500Y-119306287D01*
X126571465Y-119318694D01*
X126597618Y-119483819D01*
X126602754Y-119516243D01*
X126660998Y-119695500D01*
X126668444Y-119718414D01*
X126764951Y-119907820D01*
X126889890Y-120079786D01*
X127040213Y-120230109D01*
X127212179Y-120355048D01*
X127212181Y-120355049D01*
X127212184Y-120355051D01*
X127401588Y-120451557D01*
X127603757Y-120517246D01*
X127813713Y-120550500D01*
X127813714Y-120550500D01*
X128026286Y-120550500D01*
X128026287Y-120550500D01*
X128236243Y-120517246D01*
X128438412Y-120451557D01*
X128627816Y-120355051D01*
X128714478Y-120292088D01*
X128799786Y-120230109D01*
X128799788Y-120230106D01*
X128799792Y-120230104D01*
X128950104Y-120079792D01*
X128950106Y-120079788D01*
X128950109Y-120079786D01*
X129075048Y-119907820D01*
X129075047Y-119907820D01*
X129075051Y-119907816D01*
X129079514Y-119899054D01*
X129127488Y-119848259D01*
X129195308Y-119831463D01*
X129261444Y-119853999D01*
X129300486Y-119899056D01*
X129304951Y-119907820D01*
X129429890Y-120079786D01*
X129580213Y-120230109D01*
X129752179Y-120355048D01*
X129752181Y-120355049D01*
X129752184Y-120355051D01*
X129941588Y-120451557D01*
X130143757Y-120517246D01*
X130353713Y-120550500D01*
X130353714Y-120550500D01*
X130566286Y-120550500D01*
X130566287Y-120550500D01*
X130776243Y-120517246D01*
X130978412Y-120451557D01*
X131167816Y-120355051D01*
X131254478Y-120292088D01*
X131339784Y-120230110D01*
X131339784Y-120230109D01*
X131339792Y-120230104D01*
X131453717Y-120116178D01*
X131515036Y-120082696D01*
X131584728Y-120087680D01*
X131640662Y-120129551D01*
X131657577Y-120160528D01*
X131706646Y-120292088D01*
X131706649Y-120292093D01*
X131792809Y-120407187D01*
X131792812Y-120407190D01*
X131907906Y-120493350D01*
X131907913Y-120493354D01*
X132042620Y-120543596D01*
X132042627Y-120543598D01*
X132102155Y-120549999D01*
X132102172Y-120550000D01*
X132750000Y-120550000D01*
X132750000Y-119633012D01*
X132807007Y-119665925D01*
X132934174Y-119700000D01*
X133065826Y-119700000D01*
X133192993Y-119665925D01*
X133250000Y-119633012D01*
X133250000Y-120550000D01*
X133897828Y-120550000D01*
X133897844Y-120549999D01*
X133957372Y-120543598D01*
X133957379Y-120543596D01*
X134092086Y-120493354D01*
X134092093Y-120493350D01*
X134207187Y-120407190D01*
X134207190Y-120407187D01*
X134293350Y-120292093D01*
X134293354Y-120292086D01*
X134343596Y-120157379D01*
X134343598Y-120157372D01*
X134349999Y-120097844D01*
X134350000Y-120097827D01*
X134350000Y-119450000D01*
X133433012Y-119450000D01*
X133465925Y-119392993D01*
X133500000Y-119265826D01*
X133500000Y-119134174D01*
X133465925Y-119007007D01*
X133433012Y-118950000D01*
X134350000Y-118950000D01*
X134350000Y-118302172D01*
X134349999Y-118302155D01*
X134343598Y-118242627D01*
X134343596Y-118242620D01*
X134293354Y-118107913D01*
X134293350Y-118107906D01*
X134207190Y-117992812D01*
X134207187Y-117992809D01*
X134092093Y-117906649D01*
X134092086Y-117906645D01*
X133957379Y-117856403D01*
X133957372Y-117856401D01*
X133897844Y-117850000D01*
X133250000Y-117850000D01*
X133250000Y-118766988D01*
X133192993Y-118734075D01*
X133065826Y-118700000D01*
X132934174Y-118700000D01*
X132807007Y-118734075D01*
X132750000Y-118766988D01*
X132750000Y-117850000D01*
X132102155Y-117850000D01*
X132042627Y-117856401D01*
X132042620Y-117856403D01*
X131907913Y-117906645D01*
X131907906Y-117906649D01*
X131792812Y-117992809D01*
X131792809Y-117992812D01*
X131706649Y-118107906D01*
X131706646Y-118107912D01*
X131657577Y-118239471D01*
X131615705Y-118295404D01*
X131550241Y-118319821D01*
X131481968Y-118304969D01*
X131453714Y-118283818D01*
X131339786Y-118169890D01*
X131167820Y-118044951D01*
X130978416Y-117948444D01*
X130773181Y-117881759D01*
X130715506Y-117842321D01*
X130688308Y-117777962D01*
X130687500Y-117763828D01*
X130687500Y-117474500D01*
X130707185Y-117407461D01*
X130759989Y-117361706D01*
X130811500Y-117350500D01*
X131515686Y-117350500D01*
X131515694Y-117350500D01*
X131552569Y-117347598D01*
X131552571Y-117347597D01*
X131552573Y-117347597D01*
X131594191Y-117335505D01*
X131710398Y-117301744D01*
X131851865Y-117218081D01*
X131968081Y-117101865D01*
X132051744Y-116960398D01*
X132097598Y-116802569D01*
X132100500Y-116765694D01*
X132100500Y-116524500D01*
X132120185Y-116457461D01*
X132172989Y-116411706D01*
X132224500Y-116400500D01*
X133390686Y-116400500D01*
X133390694Y-116400500D01*
X133427569Y-116397598D01*
X133427571Y-116397597D01*
X133427573Y-116397597D01*
X133495118Y-116377973D01*
X133585398Y-116351744D01*
X133726865Y-116268081D01*
X133843081Y-116151865D01*
X133926744Y-116010398D01*
X133972598Y-115852569D01*
X133975500Y-115815694D01*
X133975500Y-115384306D01*
X133972598Y-115347431D01*
X133964444Y-115319366D01*
X133926745Y-115189606D01*
X133926744Y-115189603D01*
X133926744Y-115189602D01*
X133843081Y-115048135D01*
X133843079Y-115048133D01*
X133843076Y-115048129D01*
X133726870Y-114931923D01*
X133726862Y-114931917D01*
X133585396Y-114848255D01*
X133585393Y-114848254D01*
X133427573Y-114802402D01*
X133427567Y-114802401D01*
X133390701Y-114799500D01*
X133390694Y-114799500D01*
X132224500Y-114799500D01*
X132157461Y-114779815D01*
X132111706Y-114727011D01*
X132100500Y-114675500D01*
X132100500Y-114434313D01*
X132100499Y-114434298D01*
X132097598Y-114397432D01*
X132097597Y-114397426D01*
X132051745Y-114239606D01*
X132051744Y-114239603D01*
X132051744Y-114239602D01*
X131968081Y-114098135D01*
X131968079Y-114098133D01*
X131968076Y-114098129D01*
X131851870Y-113981923D01*
X131851862Y-113981917D01*
X131710396Y-113898255D01*
X131710393Y-113898254D01*
X131552573Y-113852402D01*
X131552567Y-113852401D01*
X131515701Y-113849500D01*
X131515694Y-113849500D01*
X130811500Y-113849500D01*
X130744461Y-113829815D01*
X130698706Y-113777011D01*
X130687500Y-113725500D01*
X130687500Y-113436172D01*
X130707185Y-113369133D01*
X130759989Y-113323378D01*
X130773181Y-113318241D01*
X130829354Y-113299989D01*
X130978412Y-113251557D01*
X131167816Y-113155051D01*
X131254478Y-113092088D01*
X131339784Y-113030110D01*
X131339784Y-113030109D01*
X131339792Y-113030104D01*
X131453717Y-112916178D01*
X131515036Y-112882696D01*
X131584728Y-112887680D01*
X131640662Y-112929551D01*
X131657577Y-112960528D01*
X131706646Y-113092088D01*
X131706649Y-113092093D01*
X131792809Y-113207187D01*
X131792812Y-113207190D01*
X131907906Y-113293350D01*
X131907913Y-113293354D01*
X132042620Y-113343596D01*
X132042627Y-113343598D01*
X132102155Y-113349999D01*
X132102172Y-113350000D01*
X132750000Y-113350000D01*
X132750000Y-112433012D01*
X132807007Y-112465925D01*
X132934174Y-112500000D01*
X133065826Y-112500000D01*
X133192993Y-112465925D01*
X133250000Y-112433012D01*
X133250000Y-113350000D01*
X133897828Y-113350000D01*
X133897844Y-113349999D01*
X133957372Y-113343598D01*
X133957379Y-113343596D01*
X134092086Y-113293354D01*
X134092093Y-113293350D01*
X134207187Y-113207190D01*
X134207190Y-113207187D01*
X134293350Y-113092093D01*
X134293354Y-113092086D01*
X134343596Y-112957379D01*
X134343598Y-112957372D01*
X134349999Y-112897844D01*
X134350000Y-112897827D01*
X134350000Y-112250000D01*
X133433012Y-112250000D01*
X133465925Y-112192993D01*
X133500000Y-112065826D01*
X133500000Y-111934174D01*
X133465925Y-111807007D01*
X133433012Y-111750000D01*
X134350000Y-111750000D01*
X134350000Y-111102172D01*
X134349999Y-111102155D01*
X134343598Y-111042627D01*
X134343596Y-111042620D01*
X134293354Y-110907913D01*
X134293350Y-110907906D01*
X134207190Y-110792812D01*
X134207187Y-110792809D01*
X134092093Y-110706649D01*
X134092086Y-110706645D01*
X133957379Y-110656403D01*
X133957372Y-110656401D01*
X133897844Y-110650000D01*
X133250000Y-110650000D01*
X133250000Y-111566988D01*
X133192993Y-111534075D01*
X133065826Y-111500000D01*
X132934174Y-111500000D01*
X132807007Y-111534075D01*
X132750000Y-111566988D01*
X132750000Y-110650000D01*
X132102155Y-110650000D01*
X132042627Y-110656401D01*
X132042620Y-110656403D01*
X131907913Y-110706645D01*
X131907906Y-110706649D01*
X131792812Y-110792809D01*
X131792809Y-110792812D01*
X131706649Y-110907906D01*
X131706646Y-110907912D01*
X131657577Y-111039471D01*
X131615705Y-111095404D01*
X131550241Y-111119821D01*
X131481968Y-111104969D01*
X131453714Y-111083818D01*
X131339786Y-110969890D01*
X131167820Y-110844951D01*
X130978414Y-110748444D01*
X130978413Y-110748443D01*
X130978412Y-110748443D01*
X130776243Y-110682754D01*
X130776241Y-110682753D01*
X130776240Y-110682753D01*
X130614957Y-110657208D01*
X130566287Y-110649500D01*
X130353713Y-110649500D01*
X130305042Y-110657208D01*
X130143760Y-110682753D01*
X129941585Y-110748444D01*
X129752179Y-110844951D01*
X129580213Y-110969890D01*
X129429890Y-111120213D01*
X129304949Y-111292182D01*
X129300484Y-111300946D01*
X129252509Y-111351742D01*
X129184688Y-111368536D01*
X129118553Y-111345998D01*
X129079516Y-111300946D01*
X129075050Y-111292182D01*
X128950109Y-111120213D01*
X128799786Y-110969890D01*
X128627820Y-110844951D01*
X128438416Y-110748444D01*
X128233181Y-110681759D01*
X128212778Y-110667808D01*
X128190297Y-110657541D01*
X128184443Y-110648432D01*
X128175506Y-110642321D01*
X128165885Y-110619555D01*
X128152523Y-110598763D01*
X128150163Y-110582352D01*
X128148308Y-110577962D01*
X128147500Y-110563828D01*
X128147500Y-110528195D01*
X128167185Y-110461156D01*
X128183819Y-110440514D01*
X133858514Y-104765819D01*
X133919837Y-104732334D01*
X133946195Y-104729500D01*
X138410134Y-104729500D01*
X138477173Y-104749185D01*
X138522928Y-104801989D01*
X138532872Y-104871147D01*
X138524700Y-104900940D01*
X138523099Y-104904804D01*
X138447678Y-105136927D01*
X138418609Y-105320460D01*
X138409500Y-105377973D01*
X138409500Y-105622027D01*
X138410939Y-105631114D01*
X138438255Y-105803580D01*
X138447679Y-105863076D01*
X138523096Y-106095185D01*
X138628992Y-106303019D01*
X138633896Y-106312642D01*
X138777339Y-106510076D01*
X138777343Y-106510081D01*
X138949918Y-106682656D01*
X138949923Y-106682660D01*
X139106734Y-106796589D01*
X139147361Y-106826106D01*
X139364815Y-106936904D01*
X139596924Y-107012321D01*
X139837973Y-107050500D01*
X139837974Y-107050500D01*
X140082026Y-107050500D01*
X140082027Y-107050500D01*
X140323076Y-107012321D01*
X140555185Y-106936904D01*
X140664894Y-106881003D01*
X140733563Y-106868107D01*
X140798304Y-106894383D01*
X140808870Y-106903806D01*
X143354929Y-109449866D01*
X143354934Y-109449868D01*
X143396142Y-109466937D01*
X143396143Y-109466937D01*
X143438541Y-109484499D01*
X143438542Y-109484499D01*
X143438544Y-109484500D01*
X143438545Y-109484500D01*
X164288252Y-109484500D01*
X164288253Y-109484500D01*
X164371868Y-109449865D01*
X164371869Y-109449863D01*
X164383150Y-109445191D01*
X164384233Y-109447807D01*
X164433427Y-109432402D01*
X164500808Y-109450883D01*
X164547501Y-109502860D01*
X164549559Y-109507475D01*
X164549765Y-109507860D01*
X164642843Y-109647162D01*
X164761307Y-109765626D01*
X164853964Y-109827537D01*
X164900607Y-109858703D01*
X165055388Y-109922816D01*
X165219698Y-109955499D01*
X165219702Y-109955500D01*
X165219703Y-109955500D01*
X165387238Y-109955500D01*
X165387239Y-109955499D01*
X165551552Y-109922816D01*
X165706333Y-109858703D01*
X165845632Y-109765626D01*
X165845635Y-109765623D01*
X165847440Y-109763819D01*
X165848618Y-109763175D01*
X165850342Y-109761761D01*
X165850610Y-109762087D01*
X165908763Y-109730334D01*
X165935121Y-109727500D01*
X167038392Y-109727500D01*
X167062583Y-109729883D01*
X167084372Y-109734217D01*
X167166230Y-109750499D01*
X167166232Y-109750500D01*
X167166233Y-109750500D01*
X167333768Y-109750500D01*
X167333768Y-109750499D01*
X167425097Y-109732333D01*
X167437417Y-109729883D01*
X167461608Y-109727500D01*
X167571043Y-109727500D01*
X167638082Y-109747185D01*
X167674145Y-109782609D01*
X167739373Y-109880229D01*
X167739376Y-109880233D01*
X167857837Y-109998694D01*
X167950494Y-110060605D01*
X167997137Y-110091771D01*
X168151918Y-110155884D01*
X168307435Y-110186818D01*
X168316228Y-110188567D01*
X168316232Y-110188568D01*
X168316233Y-110188568D01*
X168483768Y-110188568D01*
X168483769Y-110188567D01*
X168648082Y-110155884D01*
X168802863Y-110091771D01*
X168942162Y-109998694D01*
X169060626Y-109880230D01*
X169153703Y-109740931D01*
X169217816Y-109586150D01*
X169250500Y-109421835D01*
X169250500Y-109254301D01*
X169217816Y-109089986D01*
X169153703Y-108935205D01*
X169107370Y-108865863D01*
X169060626Y-108795905D01*
X168942162Y-108677441D01*
X168802860Y-108584363D01*
X168768331Y-108570061D01*
X168713928Y-108526220D01*
X168691863Y-108459925D01*
X168709142Y-108392226D01*
X168760280Y-108344616D01*
X168815784Y-108331500D01*
X169458405Y-108331500D01*
X169525444Y-108351185D01*
X169546086Y-108367819D01*
X170573681Y-109395414D01*
X170607166Y-109456737D01*
X170610000Y-109483095D01*
X170610000Y-110864725D01*
X170590315Y-110931764D01*
X170537511Y-110977519D01*
X170468353Y-110987463D01*
X170413115Y-110965044D01*
X170247815Y-110844948D01*
X170058414Y-110748444D01*
X170058413Y-110748443D01*
X170058412Y-110748443D01*
X169856243Y-110682754D01*
X169856241Y-110682753D01*
X169856240Y-110682753D01*
X169694957Y-110657208D01*
X169646287Y-110649500D01*
X169433713Y-110649500D01*
X169385042Y-110657208D01*
X169223760Y-110682753D01*
X169021585Y-110748444D01*
X168832179Y-110844951D01*
X168660215Y-110969889D01*
X168546285Y-111083819D01*
X168484962Y-111117303D01*
X168415270Y-111112319D01*
X168359337Y-111070447D01*
X168342422Y-111039470D01*
X168293354Y-110907913D01*
X168293350Y-110907906D01*
X168207190Y-110792812D01*
X168207187Y-110792809D01*
X168092093Y-110706649D01*
X168092086Y-110706645D01*
X167957379Y-110656403D01*
X167957372Y-110656401D01*
X167897844Y-110650000D01*
X167250000Y-110650000D01*
X167250000Y-111566988D01*
X167192993Y-111534075D01*
X167065826Y-111500000D01*
X166934174Y-111500000D01*
X166807007Y-111534075D01*
X166750000Y-111566988D01*
X166750000Y-110650000D01*
X166102155Y-110650000D01*
X166042627Y-110656401D01*
X166042620Y-110656403D01*
X165907913Y-110706645D01*
X165907906Y-110706649D01*
X165792812Y-110792809D01*
X165792809Y-110792812D01*
X165706649Y-110907906D01*
X165706645Y-110907913D01*
X165656403Y-111042620D01*
X165656401Y-111042627D01*
X165650000Y-111102155D01*
X165650000Y-111750000D01*
X166566988Y-111750000D01*
X166534075Y-111807007D01*
X166500000Y-111934174D01*
X166500000Y-112065826D01*
X166534075Y-112192993D01*
X166566988Y-112250000D01*
X165650000Y-112250000D01*
X165650000Y-112897844D01*
X165656401Y-112957372D01*
X165656403Y-112957379D01*
X165706645Y-113092086D01*
X165706649Y-113092093D01*
X165792809Y-113207187D01*
X165792812Y-113207190D01*
X165907906Y-113293350D01*
X165907913Y-113293354D01*
X166042620Y-113343596D01*
X166042627Y-113343598D01*
X166102155Y-113349999D01*
X166102172Y-113350000D01*
X166750000Y-113350000D01*
X166750000Y-112433012D01*
X166807007Y-112465925D01*
X166934174Y-112500000D01*
X167065826Y-112500000D01*
X167192993Y-112465925D01*
X167250000Y-112433012D01*
X167250000Y-113350000D01*
X167897828Y-113350000D01*
X167897844Y-113349999D01*
X167957372Y-113343598D01*
X167957379Y-113343596D01*
X168092086Y-113293354D01*
X168092093Y-113293350D01*
X168207187Y-113207190D01*
X168207190Y-113207187D01*
X168293350Y-113092093D01*
X168293354Y-113092086D01*
X168342422Y-112960529D01*
X168384293Y-112904595D01*
X168449757Y-112880178D01*
X168518030Y-112895030D01*
X168546285Y-112916181D01*
X168660213Y-113030109D01*
X168832179Y-113155048D01*
X168832181Y-113155049D01*
X168832184Y-113155051D01*
X168917861Y-113198705D01*
X169021583Y-113251555D01*
X169021585Y-113251555D01*
X169021588Y-113251557D01*
X169170646Y-113299989D01*
X169226819Y-113318241D01*
X169247221Y-113332191D01*
X169269703Y-113342459D01*
X169275556Y-113351567D01*
X169284494Y-113357679D01*
X169294114Y-113380444D01*
X169307477Y-113401237D01*
X169309836Y-113417647D01*
X169311692Y-113422038D01*
X169312500Y-113436172D01*
X169312500Y-113626905D01*
X169292815Y-113693944D01*
X169276181Y-113714586D01*
X169177586Y-113813181D01*
X169116263Y-113846666D01*
X169089905Y-113849500D01*
X168009298Y-113849500D01*
X167972432Y-113852401D01*
X167972426Y-113852402D01*
X167814606Y-113898254D01*
X167814603Y-113898255D01*
X167673137Y-113981917D01*
X167673129Y-113981923D01*
X167556923Y-114098129D01*
X167556917Y-114098137D01*
X167473255Y-114239603D01*
X167473254Y-114239606D01*
X167427402Y-114397426D01*
X167427401Y-114397432D01*
X167424500Y-114434298D01*
X167424500Y-114865701D01*
X167427401Y-114902567D01*
X167427402Y-114902573D01*
X167473254Y-115060393D01*
X167473255Y-115060396D01*
X167556917Y-115201862D01*
X167556923Y-115201870D01*
X167673129Y-115318076D01*
X167673133Y-115318079D01*
X167673135Y-115318081D01*
X167814602Y-115401744D01*
X167856224Y-115413836D01*
X167972426Y-115447597D01*
X167972429Y-115447597D01*
X167972431Y-115447598D01*
X168009306Y-115450500D01*
X169175500Y-115450500D01*
X169184185Y-115453050D01*
X169193147Y-115451762D01*
X169217187Y-115462740D01*
X169242539Y-115470185D01*
X169248466Y-115477025D01*
X169256703Y-115480787D01*
X169270992Y-115503021D01*
X169288294Y-115522989D01*
X169290581Y-115533503D01*
X169294477Y-115539565D01*
X169299500Y-115574500D01*
X169299500Y-115625500D01*
X169279815Y-115692539D01*
X169227011Y-115738294D01*
X169175500Y-115749500D01*
X168009298Y-115749500D01*
X167972432Y-115752401D01*
X167972426Y-115752402D01*
X167814606Y-115798254D01*
X167814603Y-115798255D01*
X167673137Y-115881917D01*
X167673129Y-115881923D01*
X167556923Y-115998129D01*
X167556917Y-115998137D01*
X167473255Y-116139603D01*
X167473254Y-116139606D01*
X167427402Y-116297426D01*
X167427401Y-116297432D01*
X167424500Y-116334298D01*
X167424500Y-116765701D01*
X167427401Y-116802567D01*
X167427402Y-116802573D01*
X167473254Y-116960393D01*
X167473255Y-116960396D01*
X167556917Y-117101862D01*
X167556923Y-117101870D01*
X167673129Y-117218076D01*
X167673133Y-117218079D01*
X167673135Y-117218081D01*
X167814602Y-117301744D01*
X167852106Y-117312640D01*
X167972426Y-117347597D01*
X167972429Y-117347597D01*
X167972431Y-117347598D01*
X168009306Y-117350500D01*
X169089905Y-117350500D01*
X169119345Y-117359144D01*
X169149332Y-117365668D01*
X169154347Y-117369422D01*
X169156944Y-117370185D01*
X169177586Y-117386819D01*
X169276181Y-117485414D01*
X169309666Y-117546737D01*
X169312500Y-117573095D01*
X169312500Y-117763828D01*
X169292815Y-117830867D01*
X169240011Y-117876622D01*
X169226819Y-117881759D01*
X169021583Y-117948444D01*
X168832179Y-118044951D01*
X168660215Y-118169889D01*
X168546285Y-118283819D01*
X168484962Y-118317303D01*
X168415270Y-118312319D01*
X168359337Y-118270447D01*
X168342422Y-118239470D01*
X168293354Y-118107913D01*
X168293350Y-118107906D01*
X168207190Y-117992812D01*
X168207187Y-117992809D01*
X168092093Y-117906649D01*
X168092086Y-117906645D01*
X167957379Y-117856403D01*
X167957372Y-117856401D01*
X167897844Y-117850000D01*
X167250000Y-117850000D01*
X167250000Y-118766988D01*
X167192993Y-118734075D01*
X167065826Y-118700000D01*
X166934174Y-118700000D01*
X166807007Y-118734075D01*
X166750000Y-118766988D01*
X166750000Y-117850000D01*
X166102155Y-117850000D01*
X166042627Y-117856401D01*
X166042620Y-117856403D01*
X165907913Y-117906645D01*
X165907906Y-117906649D01*
X165792812Y-117992809D01*
X165792809Y-117992812D01*
X165706649Y-118107906D01*
X165706645Y-118107913D01*
X165656403Y-118242620D01*
X165656401Y-118242627D01*
X165650000Y-118302155D01*
X165650000Y-118950000D01*
X166566988Y-118950000D01*
X166534075Y-119007007D01*
X166500000Y-119134174D01*
X166500000Y-119265826D01*
X166534075Y-119392993D01*
X166566988Y-119450000D01*
X165650000Y-119450000D01*
X165650000Y-120097844D01*
X165656401Y-120157372D01*
X165656403Y-120157379D01*
X165706645Y-120292086D01*
X165706649Y-120292093D01*
X165792809Y-120407187D01*
X165792812Y-120407190D01*
X165907906Y-120493350D01*
X165907913Y-120493354D01*
X166042620Y-120543596D01*
X166042627Y-120543598D01*
X166102155Y-120549999D01*
X166102172Y-120550000D01*
X166750000Y-120550000D01*
X166750000Y-119633012D01*
X166807007Y-119665925D01*
X166934174Y-119700000D01*
X167065826Y-119700000D01*
X167192993Y-119665925D01*
X167250000Y-119633012D01*
X167250000Y-120550000D01*
X167897828Y-120550000D01*
X167897844Y-120549999D01*
X167957372Y-120543598D01*
X167957379Y-120543596D01*
X168092086Y-120493354D01*
X168092093Y-120493350D01*
X168207187Y-120407190D01*
X168207190Y-120407187D01*
X168293350Y-120292093D01*
X168293354Y-120292086D01*
X168342422Y-120160529D01*
X168384293Y-120104595D01*
X168449757Y-120080178D01*
X168518030Y-120095030D01*
X168546285Y-120116181D01*
X168660209Y-120230105D01*
X168660214Y-120230109D01*
X168756382Y-120299979D01*
X168799048Y-120355308D01*
X168805027Y-120424922D01*
X168772422Y-120486717D01*
X168711583Y-120521074D01*
X168707692Y-120521914D01*
X168704745Y-120522500D01*
X168621134Y-120557131D01*
X167962780Y-121215485D01*
X167901457Y-121248970D01*
X167831765Y-121243986D01*
X167802213Y-121228122D01*
X167786433Y-121216657D01*
X167575996Y-121109433D01*
X167351368Y-121036446D01*
X167118097Y-120999500D01*
X167118092Y-120999500D01*
X166881908Y-120999500D01*
X166881903Y-120999500D01*
X166648631Y-121036446D01*
X166424003Y-121109433D01*
X166213566Y-121216657D01*
X166146064Y-121265701D01*
X166022490Y-121355483D01*
X166022488Y-121355485D01*
X166022487Y-121355485D01*
X165855485Y-121522487D01*
X165855485Y-121522488D01*
X165855483Y-121522490D01*
X165809791Y-121585379D01*
X165716657Y-121713566D01*
X165609433Y-121924003D01*
X165536446Y-122148631D01*
X165499500Y-122381902D01*
X165499500Y-122618097D01*
X165536446Y-122851368D01*
X165609433Y-123075996D01*
X165673925Y-123202567D01*
X165716657Y-123286433D01*
X165855483Y-123477510D01*
X166022490Y-123644517D01*
X166213567Y-123783343D01*
X166259510Y-123806752D01*
X166358035Y-123856953D01*
X166408831Y-123904928D01*
X166425626Y-123972749D01*
X166403089Y-124038883D01*
X166348374Y-124082335D01*
X166301740Y-124091438D01*
X165324500Y-124091438D01*
X165257461Y-124071753D01*
X165211706Y-124018949D01*
X165200500Y-123967438D01*
X165200500Y-110460119D01*
X165200499Y-110460116D01*
X165169976Y-110386426D01*
X165113574Y-110330024D01*
X165039883Y-110299500D01*
X165039882Y-110299500D01*
X135039882Y-110299500D01*
X134960118Y-110299500D01*
X134960116Y-110299500D01*
X134886425Y-110330024D01*
X134830024Y-110386425D01*
X134799500Y-110460116D01*
X134799500Y-140175500D01*
X134779815Y-140242539D01*
X134727011Y-140288294D01*
X134675500Y-140299500D01*
X132310116Y-140299500D01*
X132236425Y-140330024D01*
X132180024Y-140386425D01*
X132149500Y-140460116D01*
X132149500Y-146516246D01*
X132129815Y-146583285D01*
X132077011Y-146629040D01*
X132025046Y-146640245D01*
X107574046Y-146550684D01*
X107507079Y-146530754D01*
X107461518Y-146477783D01*
X107450500Y-146426685D01*
X107450500Y-144377973D01*
X115909500Y-144377973D01*
X115909500Y-144622027D01*
X115914338Y-144652573D01*
X115939335Y-144810399D01*
X115947679Y-144863076D01*
X116023096Y-145095185D01*
X116126950Y-145299011D01*
X116133896Y-145312642D01*
X116277339Y-145510076D01*
X116277343Y-145510081D01*
X116449918Y-145682656D01*
X116449923Y-145682660D01*
X116622136Y-145807779D01*
X116647361Y-145826106D01*
X116864815Y-145936904D01*
X117096924Y-146012321D01*
X117337973Y-146050500D01*
X117337974Y-146050500D01*
X117582026Y-146050500D01*
X117582027Y-146050500D01*
X117823076Y-146012321D01*
X118055185Y-145936904D01*
X118272639Y-145826106D01*
X118470083Y-145682655D01*
X118642655Y-145510083D01*
X118786106Y-145312639D01*
X118896904Y-145095185D01*
X118972321Y-144863076D01*
X119010500Y-144622027D01*
X119010500Y-144377973D01*
X118972321Y-144136924D01*
X118896904Y-143904815D01*
X118786106Y-143687361D01*
X118724379Y-143602401D01*
X118642660Y-143489923D01*
X118642656Y-143489918D01*
X118470081Y-143317343D01*
X118470076Y-143317339D01*
X118272642Y-143173896D01*
X118272641Y-143173895D01*
X118272639Y-143173894D01*
X118055185Y-143063096D01*
X117823076Y-142987679D01*
X117823074Y-142987678D01*
X117823072Y-142987678D01*
X117654769Y-142961021D01*
X117582027Y-142949500D01*
X117337973Y-142949500D01*
X117282093Y-142958350D01*
X117096927Y-142987678D01*
X116864812Y-143063097D01*
X116647357Y-143173896D01*
X116449923Y-143317339D01*
X116449918Y-143317343D01*
X116277343Y-143489918D01*
X116277339Y-143489923D01*
X116133896Y-143687357D01*
X116023097Y-143904812D01*
X116023096Y-143904814D01*
X116023096Y-143904815D01*
X115995547Y-143989602D01*
X115947678Y-144136927D01*
X115917620Y-144326704D01*
X115909500Y-144377973D01*
X107450500Y-144377973D01*
X107450500Y-129323722D01*
X107470185Y-129256683D01*
X107522989Y-129210928D01*
X107574201Y-129199722D01*
X110609135Y-129192438D01*
X110648651Y-129192438D01*
X110648881Y-129192342D01*
X110649132Y-129192342D01*
X110685527Y-129177163D01*
X110685837Y-129177129D01*
X110685804Y-129177049D01*
X110705786Y-129168771D01*
X110722343Y-129161914D01*
X110722348Y-129161907D01*
X110722743Y-129161644D01*
X110722751Y-129161641D01*
X110750780Y-129133476D01*
X115485852Y-124398405D01*
X115516376Y-124324713D01*
X115516376Y-124244948D01*
X115516376Y-106303019D01*
X115519550Y-106274396D01*
X115516376Y-106263451D01*
X115516376Y-106252056D01*
X115507973Y-106231770D01*
X115503447Y-106218872D01*
X114784470Y-103739719D01*
X114780727Y-103688240D01*
X114785684Y-103652304D01*
X115008468Y-102037031D01*
X115037127Y-101973311D01*
X115095688Y-101935199D01*
X115165556Y-101934798D01*
X115218986Y-101966293D01*
G37*
%TD.AperFunction*%
%TA.AperFunction,Conductor*%
G36*
X216756344Y-127049185D02*
G01*
X216776986Y-127065819D01*
X218936181Y-129225014D01*
X218969666Y-129286337D01*
X218972500Y-129312695D01*
X218972500Y-132654747D01*
X218972500Y-132745253D01*
X219007135Y-132828868D01*
X219103182Y-132924915D01*
X219136666Y-132986236D01*
X219139500Y-133012595D01*
X219139500Y-133591872D01*
X219139501Y-133591890D01*
X219150000Y-133694667D01*
X219150001Y-133694670D01*
X219205187Y-133861208D01*
X219205537Y-133861775D01*
X219205658Y-133862219D01*
X219208240Y-133867756D01*
X219207294Y-133868196D01*
X219223977Y-133929168D01*
X219207407Y-133985597D01*
X219208240Y-133985986D01*
X219205682Y-133991471D01*
X219205537Y-133991967D01*
X219205187Y-133992533D01*
X219199567Y-134009494D01*
X219150001Y-134159074D01*
X219150001Y-134159075D01*
X219150000Y-134159075D01*
X219139500Y-134261854D01*
X219139500Y-134861872D01*
X219139501Y-134861890D01*
X219150000Y-134964667D01*
X219150001Y-134964670D01*
X219205187Y-135131208D01*
X219205537Y-135131775D01*
X219205658Y-135132219D01*
X219208240Y-135137756D01*
X219207294Y-135138196D01*
X219223977Y-135199168D01*
X219207407Y-135255597D01*
X219208240Y-135255986D01*
X219205682Y-135261471D01*
X219205537Y-135261967D01*
X219205187Y-135262533D01*
X219189984Y-135308414D01*
X219150001Y-135429074D01*
X219150001Y-135429075D01*
X219150000Y-135429075D01*
X219139500Y-135531854D01*
X219139500Y-136131872D01*
X219139501Y-136131890D01*
X219150000Y-136234667D01*
X219150001Y-136234670D01*
X219205187Y-136401208D01*
X219205537Y-136401775D01*
X219205658Y-136402219D01*
X219208240Y-136407756D01*
X219207294Y-136408196D01*
X219223977Y-136469168D01*
X219207407Y-136525597D01*
X219208240Y-136525986D01*
X219205682Y-136531471D01*
X219205537Y-136531967D01*
X219205187Y-136532533D01*
X219196802Y-136557838D01*
X219150001Y-136699074D01*
X219150001Y-136699075D01*
X219150000Y-136699075D01*
X219139500Y-136801854D01*
X219139500Y-137401872D01*
X219139501Y-137401890D01*
X219150000Y-137504667D01*
X219150001Y-137504670D01*
X219205187Y-137671208D01*
X219205537Y-137671775D01*
X219205658Y-137672219D01*
X219208240Y-137677756D01*
X219207294Y-137678196D01*
X219223977Y-137739168D01*
X219207407Y-137795597D01*
X219208240Y-137795986D01*
X219205682Y-137801471D01*
X219205537Y-137801967D01*
X219205187Y-137802533D01*
X219189984Y-137848414D01*
X219150001Y-137969074D01*
X219150001Y-137969075D01*
X219150000Y-137969075D01*
X219139500Y-138071854D01*
X219139500Y-138671872D01*
X219139501Y-138671890D01*
X219150000Y-138774667D01*
X219150001Y-138774670D01*
X219205187Y-138941208D01*
X219205537Y-138941775D01*
X219205658Y-138942219D01*
X219208240Y-138947756D01*
X219207294Y-138948196D01*
X219223977Y-139009168D01*
X219207407Y-139065597D01*
X219208240Y-139065986D01*
X219205682Y-139071471D01*
X219205537Y-139071967D01*
X219205187Y-139072533D01*
X219205115Y-139072751D01*
X219150001Y-139239074D01*
X219150001Y-139239075D01*
X219150000Y-139239075D01*
X219139500Y-139341854D01*
X219139500Y-139941872D01*
X219139501Y-139941890D01*
X219150000Y-140044667D01*
X219150001Y-140044670D01*
X219205187Y-140211208D01*
X219205537Y-140211775D01*
X219205658Y-140212219D01*
X219208240Y-140217756D01*
X219207294Y-140218196D01*
X219223977Y-140279168D01*
X219207407Y-140335597D01*
X219208240Y-140335986D01*
X219205682Y-140341471D01*
X219205537Y-140341967D01*
X219205187Y-140342533D01*
X219187912Y-140394667D01*
X219150001Y-140509074D01*
X219150001Y-140509075D01*
X219150000Y-140509075D01*
X219139500Y-140611854D01*
X219139500Y-141211872D01*
X219139501Y-141211890D01*
X219150000Y-141314667D01*
X219150001Y-141314670D01*
X219205187Y-141481208D01*
X219205537Y-141481775D01*
X219205658Y-141482219D01*
X219208240Y-141487756D01*
X219207294Y-141488196D01*
X219223977Y-141549168D01*
X219207407Y-141605597D01*
X219208240Y-141605986D01*
X219205682Y-141611471D01*
X219205537Y-141611967D01*
X219205187Y-141612533D01*
X219205186Y-141612537D01*
X219150001Y-141779074D01*
X219150001Y-141779075D01*
X219150000Y-141779075D01*
X219139500Y-141881854D01*
X219139500Y-142481872D01*
X219139501Y-142481890D01*
X219150000Y-142584667D01*
X219150001Y-142584670D01*
X219205185Y-142751202D01*
X219205189Y-142751211D01*
X219265777Y-142849440D01*
X219284217Y-142916832D01*
X219263294Y-142983496D01*
X219247919Y-143002217D01*
X217315957Y-144934181D01*
X217254634Y-144967666D01*
X217228276Y-144970500D01*
X203510695Y-144970500D01*
X203443656Y-144950815D01*
X203423014Y-144934181D01*
X201873428Y-143384595D01*
X201839943Y-143323272D01*
X201844927Y-143253580D01*
X201886799Y-143197647D01*
X201952263Y-143173230D01*
X201973705Y-143173555D01*
X202059991Y-143182371D01*
X203160008Y-143182370D01*
X203160016Y-143182369D01*
X203160019Y-143182369D01*
X203218216Y-143176424D01*
X203262797Y-143171870D01*
X203429334Y-143116685D01*
X203578656Y-143024583D01*
X203702712Y-142900527D01*
X203794814Y-142751205D01*
X203849999Y-142584668D01*
X203860500Y-142481880D01*
X203860499Y-141881863D01*
X203849999Y-141779074D01*
X203794814Y-141612537D01*
X203702712Y-141463215D01*
X203578656Y-141339159D01*
X203429334Y-141247057D01*
X203262797Y-141191872D01*
X203262795Y-141191871D01*
X203160010Y-141181371D01*
X202059998Y-141181371D01*
X202059980Y-141181372D01*
X201957203Y-141191871D01*
X201957200Y-141191872D01*
X201790668Y-141247056D01*
X201790663Y-141247058D01*
X201641342Y-141339160D01*
X201517289Y-141463213D01*
X201425187Y-141612534D01*
X201425186Y-141612537D01*
X201370001Y-141779074D01*
X201370001Y-141779075D01*
X201370000Y-141779075D01*
X201359500Y-141881854D01*
X201359500Y-142481872D01*
X201359501Y-142481890D01*
X201368314Y-142568160D01*
X201355544Y-142636853D01*
X201307663Y-142687737D01*
X201239873Y-142704657D01*
X201173696Y-142682240D01*
X201157275Y-142668442D01*
X198919819Y-140430986D01*
X198886334Y-140369663D01*
X198883500Y-140343305D01*
X198883500Y-139941857D01*
X201360001Y-139941857D01*
X201370494Y-140044568D01*
X201425641Y-140210990D01*
X201425643Y-140210995D01*
X201517684Y-140360216D01*
X201641654Y-140484186D01*
X201790875Y-140576227D01*
X201790880Y-140576229D01*
X201957302Y-140631376D01*
X201957309Y-140631377D01*
X202060019Y-140641870D01*
X202359999Y-140641870D01*
X202860000Y-140641870D01*
X203159972Y-140641870D01*
X203159986Y-140641869D01*
X203262697Y-140631376D01*
X203429119Y-140576229D01*
X203429124Y-140576227D01*
X203578345Y-140484186D01*
X203702315Y-140360216D01*
X203794356Y-140210995D01*
X203794358Y-140210990D01*
X203849505Y-140044568D01*
X203849506Y-140044561D01*
X203859999Y-139941857D01*
X203860000Y-139941844D01*
X203860000Y-139891871D01*
X202860000Y-139891871D01*
X202860000Y-140641870D01*
X202359999Y-140641870D01*
X202360000Y-140641869D01*
X202360000Y-139891871D01*
X201360001Y-139891871D01*
X201360001Y-139941857D01*
X198883500Y-139941857D01*
X198883500Y-139341884D01*
X201360000Y-139341884D01*
X201360000Y-139391871D01*
X202360000Y-139391871D01*
X202860000Y-139391871D01*
X203859999Y-139391871D01*
X203859999Y-139341899D01*
X203859998Y-139341884D01*
X203849505Y-139239173D01*
X203794358Y-139072751D01*
X203794356Y-139072746D01*
X203702315Y-138923525D01*
X203578345Y-138799555D01*
X203429124Y-138707514D01*
X203429119Y-138707512D01*
X203262697Y-138652365D01*
X203262690Y-138652364D01*
X203159986Y-138641871D01*
X202860000Y-138641871D01*
X202860000Y-139391871D01*
X202360000Y-139391871D01*
X202360000Y-138641871D01*
X202060028Y-138641871D01*
X202060012Y-138641872D01*
X201957302Y-138652365D01*
X201790880Y-138707512D01*
X201790875Y-138707514D01*
X201641654Y-138799555D01*
X201517684Y-138923525D01*
X201425643Y-139072746D01*
X201425641Y-139072751D01*
X201370494Y-139239173D01*
X201370493Y-139239180D01*
X201360000Y-139341884D01*
X198883500Y-139341884D01*
X198883500Y-135532626D01*
X198903185Y-135465587D01*
X198955989Y-135419832D01*
X199025147Y-135409888D01*
X199088703Y-135438913D01*
X199095181Y-135444945D01*
X201681975Y-138031739D01*
X201745972Y-138095736D01*
X201829587Y-138130371D01*
X201829588Y-138130371D01*
X203390412Y-138130371D01*
X203390413Y-138130371D01*
X203474028Y-138095736D01*
X203474030Y-138095734D01*
X203474031Y-138095734D01*
X205083447Y-136486317D01*
X206692866Y-134876899D01*
X206727500Y-134793283D01*
X206727500Y-134702778D01*
X206727500Y-131409195D01*
X206747185Y-131342156D01*
X206799989Y-131296401D01*
X206804032Y-131294640D01*
X206902863Y-131253703D01*
X207042162Y-131160626D01*
X207160626Y-131042162D01*
X207253703Y-130902863D01*
X207317816Y-130748082D01*
X207350500Y-130583767D01*
X207350500Y-130416233D01*
X207317816Y-130251918D01*
X207253703Y-130097137D01*
X207202166Y-130020006D01*
X207160626Y-129957837D01*
X207042162Y-129839373D01*
X206902860Y-129746295D01*
X206748082Y-129682184D01*
X206748074Y-129682182D01*
X206583771Y-129649500D01*
X206583767Y-129649500D01*
X206416233Y-129649500D01*
X206368010Y-129659092D01*
X206298419Y-129652863D01*
X206243242Y-129610000D01*
X206219998Y-129544110D01*
X206236066Y-129476113D01*
X206256135Y-129449797D01*
X207532687Y-128173246D01*
X208280855Y-128173246D01*
X208280855Y-128173248D01*
X208280855Y-144253012D01*
X208311379Y-144326704D01*
X208367781Y-144383106D01*
X208441473Y-144413630D01*
X208441475Y-144413630D01*
X214521235Y-144413630D01*
X214521237Y-144413630D01*
X214594929Y-144383106D01*
X214651331Y-144326704D01*
X214681855Y-144253012D01*
X214681855Y-128173248D01*
X214651331Y-128099556D01*
X214594929Y-128043154D01*
X214579625Y-128036815D01*
X214521238Y-128012630D01*
X214521237Y-128012630D01*
X208521237Y-128012630D01*
X208441473Y-128012630D01*
X208441471Y-128012630D01*
X208367780Y-128043154D01*
X208311379Y-128099555D01*
X208280855Y-128173246D01*
X207532687Y-128173246D01*
X208640115Y-127065819D01*
X208701438Y-127032334D01*
X208727796Y-127029500D01*
X216689305Y-127029500D01*
X216756344Y-127049185D01*
G37*
%TD.AperFunction*%
%TA.AperFunction,Conductor*%
G36*
X123600475Y-129735643D02*
G01*
X123649170Y-129785749D01*
X123663500Y-129843616D01*
X123663500Y-139504905D01*
X123643815Y-139571944D01*
X123591011Y-139617699D01*
X123521853Y-139627643D01*
X123458297Y-139598618D01*
X123451819Y-139592586D01*
X116014770Y-132155537D01*
X115981285Y-132094214D01*
X115986269Y-132024522D01*
X116014767Y-131980177D01*
X116043081Y-131951865D01*
X116126744Y-131810398D01*
X116172598Y-131652569D01*
X116175500Y-131615694D01*
X116175500Y-131184306D01*
X116172598Y-131147431D01*
X116164071Y-131118082D01*
X116129313Y-130998444D01*
X116126744Y-130989602D01*
X116052831Y-130864621D01*
X116035648Y-130796897D01*
X116057808Y-130730634D01*
X116112274Y-130686871D01*
X116159563Y-130677500D01*
X120635252Y-130677500D01*
X120635253Y-130677500D01*
X120718868Y-130642865D01*
X121541424Y-129820307D01*
X121602745Y-129786824D01*
X121672436Y-129791808D01*
X121701989Y-129807672D01*
X121727361Y-129826106D01*
X121944815Y-129936904D01*
X122176924Y-130012321D01*
X122417973Y-130050500D01*
X122417974Y-130050500D01*
X122662026Y-130050500D01*
X122662027Y-130050500D01*
X122903076Y-130012321D01*
X123135185Y-129936904D01*
X123352639Y-129826106D01*
X123466615Y-129743297D01*
X123532421Y-129719818D01*
X123600475Y-129735643D01*
G37*
%TD.AperFunction*%
%TA.AperFunction,Conductor*%
G36*
X201323703Y-117645882D02*
G01*
X201330181Y-117651914D01*
X205590585Y-121912318D01*
X205624070Y-121973641D01*
X205619086Y-122043333D01*
X205590585Y-122087680D01*
X204043455Y-123634812D01*
X203532132Y-124146135D01*
X203468135Y-124210132D01*
X203453714Y-124244948D01*
X203433500Y-124293746D01*
X203433500Y-125836717D01*
X203413815Y-125903756D01*
X203361011Y-125949511D01*
X203291853Y-125959455D01*
X203270500Y-125954424D01*
X203262800Y-125951873D01*
X203262795Y-125951871D01*
X203160010Y-125941371D01*
X202059998Y-125941371D01*
X202059977Y-125941373D01*
X202001783Y-125947317D01*
X201933090Y-125934546D01*
X201901502Y-125911640D01*
X201154819Y-125164957D01*
X201121334Y-125103634D01*
X201118500Y-125077276D01*
X201118500Y-117739595D01*
X201138185Y-117672556D01*
X201190989Y-117626801D01*
X201260147Y-117616857D01*
X201323703Y-117645882D01*
G37*
%TD.AperFunction*%
%TA.AperFunction,Conductor*%
G36*
X197870142Y-107254650D02*
G01*
X197901675Y-107255101D01*
X197904725Y-107257123D01*
X197908379Y-107257385D01*
X197933621Y-107276282D01*
X197959908Y-107293710D01*
X197961381Y-107297063D01*
X197964312Y-107299257D01*
X197975331Y-107328800D01*
X197988022Y-107357674D01*
X197987951Y-107362635D01*
X197988729Y-107364721D01*
X197987518Y-107392965D01*
X197965674Y-107530884D01*
X197965674Y-107774937D01*
X197998788Y-107984013D01*
X198003853Y-108015987D01*
X198079270Y-108248096D01*
X198149259Y-108385458D01*
X198190070Y-108465553D01*
X198333513Y-108662987D01*
X198333517Y-108662992D01*
X198506092Y-108835567D01*
X198506097Y-108835571D01*
X198667442Y-108952794D01*
X198703535Y-108979017D01*
X198920989Y-109089815D01*
X199153098Y-109165232D01*
X199394147Y-109203411D01*
X199394148Y-109203411D01*
X199638200Y-109203411D01*
X199638201Y-109203411D01*
X199879250Y-109165232D01*
X200111359Y-109089815D01*
X200328813Y-108979017D01*
X200354182Y-108960584D01*
X200386286Y-108949129D01*
X200418222Y-108937218D01*
X200419120Y-108937413D01*
X200419988Y-108937104D01*
X200453205Y-108944828D01*
X200486495Y-108952070D01*
X200487462Y-108952794D01*
X200488042Y-108952929D01*
X200514747Y-108973217D01*
X200627182Y-109085652D01*
X200660666Y-109146973D01*
X200663500Y-109173332D01*
X200663500Y-123656383D01*
X200643815Y-123723422D01*
X200591011Y-123769177D01*
X200521853Y-123779121D01*
X200466615Y-123756701D01*
X200352643Y-123673896D01*
X200135187Y-123563097D01*
X200135186Y-123563096D01*
X200135185Y-123563096D01*
X199903076Y-123487679D01*
X199903074Y-123487678D01*
X199903072Y-123487678D01*
X199719854Y-123458659D01*
X199662027Y-123449500D01*
X199417973Y-123449500D01*
X199400718Y-123452233D01*
X199176927Y-123487678D01*
X199176924Y-123487679D01*
X199007557Y-123542710D01*
X198944812Y-123563097D01*
X198727356Y-123673896D01*
X198613385Y-123756701D01*
X198547579Y-123780181D01*
X198479525Y-123764355D01*
X198430830Y-123714249D01*
X198416500Y-123656383D01*
X198416500Y-123252080D01*
X198418883Y-123227888D01*
X198439500Y-123124240D01*
X198439500Y-122956706D01*
X198418883Y-122853056D01*
X198416500Y-122828865D01*
X198416500Y-115643747D01*
X198406355Y-115619257D01*
X198381866Y-115560132D01*
X198381863Y-115560129D01*
X198381863Y-115560128D01*
X192959003Y-110137270D01*
X192925518Y-110075947D01*
X192930502Y-110006255D01*
X192972374Y-109950322D01*
X193037838Y-109925905D01*
X193046684Y-109925589D01*
X195088681Y-109925589D01*
X195088682Y-109925589D01*
X195172297Y-109890954D01*
X197777366Y-107285884D01*
X197805037Y-107270775D01*
X197831812Y-107254103D01*
X197835474Y-107254155D01*
X197838687Y-107252401D01*
X197870142Y-107254650D01*
G37*
%TD.AperFunction*%
%TA.AperFunction,Conductor*%
G36*
X189933585Y-110154047D02*
G01*
X189947660Y-110166155D01*
X190000459Y-110218954D01*
X190084074Y-110253589D01*
X191744820Y-110253589D01*
X191811859Y-110273274D01*
X191857614Y-110326078D01*
X191867558Y-110395236D01*
X191842333Y-110452489D01*
X191842758Y-110452773D01*
X191841144Y-110455187D01*
X191840677Y-110456249D01*
X191839376Y-110457834D01*
X191746295Y-110597139D01*
X191682184Y-110751917D01*
X191682182Y-110751925D01*
X191649500Y-110916228D01*
X191649500Y-111083771D01*
X191682182Y-111248074D01*
X191682184Y-111248082D01*
X191746295Y-111402860D01*
X191839373Y-111542162D01*
X191957837Y-111660626D01*
X192006278Y-111692993D01*
X192097137Y-111753703D01*
X192251918Y-111817816D01*
X192387894Y-111844863D01*
X192416228Y-111850499D01*
X192416232Y-111850500D01*
X192416233Y-111850500D01*
X192583768Y-111850500D01*
X192583769Y-111850499D01*
X192748082Y-111817816D01*
X192846900Y-111776883D01*
X192916365Y-111769415D01*
X192978845Y-111800689D01*
X192982031Y-111803764D01*
X194236181Y-113057914D01*
X194269666Y-113119237D01*
X194272500Y-113145595D01*
X194272500Y-118090804D01*
X194252815Y-118157843D01*
X194200011Y-118203598D01*
X194195954Y-118205365D01*
X194097137Y-118246296D01*
X193957837Y-118339373D01*
X193839373Y-118457837D01*
X193746296Y-118597137D01*
X193733129Y-118628927D01*
X193689287Y-118683330D01*
X193622993Y-118705394D01*
X193555294Y-118688114D01*
X193530887Y-118669154D01*
X192668870Y-117807136D01*
X192613479Y-117784192D01*
X192585253Y-117772500D01*
X192259600Y-117772500D01*
X192192561Y-117752815D01*
X192146806Y-117700011D01*
X192136862Y-117630853D01*
X192165887Y-117567297D01*
X192171919Y-117560819D01*
X192186001Y-117546737D01*
X192222655Y-117510083D01*
X192366106Y-117312639D01*
X192476904Y-117095185D01*
X192552321Y-116863076D01*
X192590500Y-116622027D01*
X192590500Y-116377973D01*
X192552321Y-116136924D01*
X192476904Y-115904815D01*
X192366106Y-115687361D01*
X192326202Y-115632438D01*
X192222660Y-115489923D01*
X192222656Y-115489918D01*
X192050081Y-115317343D01*
X192050076Y-115317339D01*
X191852642Y-115173896D01*
X191852641Y-115173895D01*
X191852639Y-115173894D01*
X191635185Y-115063096D01*
X191403076Y-114987679D01*
X191403074Y-114987678D01*
X191403072Y-114987678D01*
X191234769Y-114961021D01*
X191162027Y-114949500D01*
X190917973Y-114949500D01*
X190862093Y-114958350D01*
X190676927Y-114987678D01*
X190444812Y-115063097D01*
X190227357Y-115173896D01*
X190201989Y-115192327D01*
X190136183Y-115215807D01*
X190068129Y-115199981D01*
X190041423Y-115179690D01*
X188763819Y-113902086D01*
X188730334Y-113840763D01*
X188727500Y-113814405D01*
X188727500Y-111424500D01*
X188747185Y-111357461D01*
X188799989Y-111311706D01*
X188851500Y-111300500D01*
X189153186Y-111300500D01*
X189153194Y-111300500D01*
X189190069Y-111297598D01*
X189190071Y-111297597D01*
X189190073Y-111297597D01*
X189243251Y-111282147D01*
X189347898Y-111251744D01*
X189489365Y-111168081D01*
X189605581Y-111051865D01*
X189689244Y-110910398D01*
X189735098Y-110752569D01*
X189738000Y-110715694D01*
X189738000Y-110284306D01*
X189736368Y-110263571D01*
X189750732Y-110195195D01*
X189799783Y-110145438D01*
X189867948Y-110130099D01*
X189933585Y-110154047D01*
G37*
%TD.AperFunction*%
%TA.AperFunction,Conductor*%
G36*
X168531627Y-95322048D02*
G01*
X168577382Y-95374852D01*
X168588386Y-95419286D01*
X168606995Y-95744828D01*
X168705982Y-97006077D01*
X168831691Y-98264900D01*
X168984073Y-99520780D01*
X169163062Y-100773192D01*
X169368569Y-102021493D01*
X169465688Y-102542238D01*
X169477228Y-102604110D01*
X169477228Y-102604111D01*
X169484539Y-102643317D01*
X169500439Y-102728584D01*
X169500441Y-102728599D01*
X169524888Y-102859787D01*
X169524892Y-102859808D01*
X169641943Y-103284373D01*
X169641949Y-103284391D01*
X169794474Y-103697547D01*
X169794482Y-103697566D01*
X169981376Y-104096323D01*
X169981381Y-104096334D01*
X169981385Y-104096342D01*
X169981388Y-104096347D01*
X170201343Y-104477913D01*
X170201345Y-104477916D01*
X170238251Y-104530995D01*
X170452767Y-104839520D01*
X170650990Y-105078618D01*
X170733860Y-105178577D01*
X171042611Y-105492660D01*
X171042615Y-105492663D01*
X171203916Y-105631114D01*
X171376806Y-105779513D01*
X171734056Y-106037090D01*
X172111802Y-106263545D01*
X172111810Y-106263549D01*
X172111817Y-106263553D01*
X172507332Y-106457252D01*
X172507339Y-106457255D01*
X172917835Y-106616834D01*
X173340353Y-106741140D01*
X173611810Y-106796589D01*
X173771846Y-106829279D01*
X173771852Y-106829280D01*
X173771867Y-106829283D01*
X174209287Y-106880632D01*
X174649483Y-106894818D01*
X175089302Y-106871741D01*
X175299998Y-106842651D01*
X175299998Y-106842654D01*
X175300011Y-106842649D01*
X175307444Y-106841625D01*
X175346952Y-106836176D01*
X175346952Y-106836175D01*
X176197566Y-106718855D01*
X176197732Y-106718880D01*
X176349190Y-106697989D01*
X176461841Y-106682451D01*
X176881688Y-106588682D01*
X177292358Y-106460562D01*
X177691045Y-106298967D01*
X178075025Y-106105000D01*
X178441676Y-105879987D01*
X178788494Y-105625464D01*
X179113108Y-105343171D01*
X179413303Y-105035036D01*
X179687026Y-104703163D01*
X179932408Y-104349819D01*
X180147773Y-103977419D01*
X180331651Y-103588506D01*
X180482783Y-103185737D01*
X180600139Y-102771863D01*
X180667756Y-102427025D01*
X180699971Y-102365030D01*
X180760593Y-102330291D01*
X180830372Y-102333840D01*
X180877119Y-102363208D01*
X180880363Y-102366452D01*
X181016873Y-102465633D01*
X181090613Y-102503205D01*
X181167218Y-102542238D01*
X181167221Y-102542239D01*
X181265542Y-102574185D01*
X181323217Y-102613622D01*
X181350416Y-102677981D01*
X181351224Y-102692116D01*
X181351224Y-106033471D01*
X181351224Y-106123977D01*
X181384801Y-106205039D01*
X181385860Y-106207594D01*
X185522134Y-110343868D01*
X185586801Y-110370652D01*
X185605747Y-110378500D01*
X185696253Y-110378500D01*
X187138000Y-110378500D01*
X187205039Y-110398185D01*
X187250794Y-110450989D01*
X187262000Y-110502500D01*
X187262000Y-110715701D01*
X187264901Y-110752567D01*
X187264902Y-110752573D01*
X187310754Y-110910393D01*
X187310755Y-110910396D01*
X187310756Y-110910398D01*
X187333327Y-110948564D01*
X187394417Y-111051862D01*
X187394423Y-111051870D01*
X187510629Y-111168076D01*
X187510633Y-111168079D01*
X187510635Y-111168081D01*
X187652102Y-111251744D01*
X187693724Y-111263836D01*
X187809926Y-111297597D01*
X187809929Y-111297597D01*
X187809931Y-111297598D01*
X187846806Y-111300500D01*
X188148500Y-111300500D01*
X188215539Y-111320185D01*
X188261294Y-111372989D01*
X188272500Y-111424500D01*
X188272500Y-114005253D01*
X188307136Y-114088870D01*
X189719690Y-115501423D01*
X189753175Y-115562746D01*
X189748191Y-115632438D01*
X189732327Y-115661989D01*
X189713896Y-115687357D01*
X189603097Y-115904812D01*
X189527678Y-116136927D01*
X189496416Y-116334306D01*
X189489500Y-116377973D01*
X189489500Y-116622027D01*
X189527679Y-116863076D01*
X189603096Y-117095185D01*
X189713397Y-117311664D01*
X189713896Y-117312642D01*
X189857339Y-117510076D01*
X189857343Y-117510081D01*
X189908081Y-117560819D01*
X189941566Y-117622142D01*
X189936582Y-117691834D01*
X189894710Y-117747767D01*
X189829246Y-117772184D01*
X189820400Y-117772500D01*
X187179600Y-117772500D01*
X187112561Y-117752815D01*
X187066806Y-117700011D01*
X187056862Y-117630853D01*
X187085887Y-117567297D01*
X187091919Y-117560819D01*
X187106001Y-117546737D01*
X187142655Y-117510083D01*
X187286106Y-117312639D01*
X187396904Y-117095185D01*
X187472321Y-116863076D01*
X187510500Y-116622027D01*
X187510500Y-116377973D01*
X187472321Y-116136924D01*
X187396904Y-115904815D01*
X187286106Y-115687361D01*
X187246202Y-115632438D01*
X187142660Y-115489923D01*
X187142656Y-115489918D01*
X186970081Y-115317343D01*
X186970076Y-115317339D01*
X186772642Y-115173896D01*
X186772641Y-115173895D01*
X186772639Y-115173894D01*
X186555185Y-115063096D01*
X186323076Y-114987679D01*
X186323074Y-114987678D01*
X186323072Y-114987678D01*
X186154769Y-114961021D01*
X186082027Y-114949500D01*
X185837973Y-114949500D01*
X185782093Y-114958350D01*
X185596927Y-114987678D01*
X185364812Y-115063097D01*
X185147357Y-115173896D01*
X184949923Y-115317339D01*
X184949918Y-115317343D01*
X184777343Y-115489918D01*
X184777339Y-115489923D01*
X184633896Y-115687357D01*
X184523097Y-115904812D01*
X184447678Y-116136927D01*
X184416416Y-116334306D01*
X184409500Y-116377973D01*
X184409500Y-116622027D01*
X184447679Y-116863076D01*
X184523096Y-117095185D01*
X184633397Y-117311664D01*
X184633896Y-117312642D01*
X184777339Y-117510076D01*
X184777343Y-117510081D01*
X184828081Y-117560819D01*
X184861566Y-117622142D01*
X184856582Y-117691834D01*
X184814710Y-117747767D01*
X184749246Y-117772184D01*
X184740400Y-117772500D01*
X182779796Y-117772500D01*
X182712757Y-117752815D01*
X182692115Y-117736181D01*
X170060070Y-105104136D01*
X169976453Y-105069500D01*
X163759696Y-105069500D01*
X163692657Y-105049815D01*
X163672015Y-105033181D01*
X161914819Y-103275985D01*
X161881334Y-103214662D01*
X161878500Y-103188304D01*
X161878500Y-99338780D01*
X161878500Y-99338779D01*
X161843865Y-99255164D01*
X161779868Y-99191167D01*
X160598777Y-98010076D01*
X159395838Y-96807136D01*
X159385406Y-96802815D01*
X159312221Y-96772500D01*
X154179700Y-96772500D01*
X154112661Y-96752815D01*
X154066906Y-96700011D01*
X154057227Y-96667898D01*
X154052321Y-96636923D01*
X154007226Y-96498137D01*
X153976904Y-96404815D01*
X153976902Y-96404812D01*
X153976902Y-96404810D01*
X153927508Y-96307870D01*
X153866106Y-96187361D01*
X153847779Y-96162136D01*
X153722660Y-95989923D01*
X153722656Y-95989918D01*
X153550081Y-95817343D01*
X153550076Y-95817339D01*
X153352642Y-95673896D01*
X153352641Y-95673895D01*
X153352639Y-95673894D01*
X153135185Y-95563096D01*
X153077317Y-95544293D01*
X153019642Y-95504856D01*
X152992444Y-95440498D01*
X153004359Y-95371651D01*
X153051603Y-95320176D01*
X153115636Y-95302363D01*
X168464588Y-95302363D01*
X168531627Y-95322048D01*
G37*
%TD.AperFunction*%
%TA.AperFunction,Conductor*%
G36*
X184928909Y-101998875D02*
G01*
X184981388Y-102045003D01*
X184999437Y-102094360D01*
X185085181Y-102716038D01*
X185085177Y-102716059D01*
X185121557Y-102979820D01*
X185121561Y-102979845D01*
X185215323Y-103399660D01*
X185215327Y-103399676D01*
X185343447Y-103810347D01*
X185343449Y-103810352D01*
X185343450Y-103810355D01*
X185393040Y-103932703D01*
X185505048Y-104209049D01*
X185505048Y-104209050D01*
X185699016Y-104593029D01*
X185890353Y-104904804D01*
X185924031Y-104959681D01*
X186178556Y-105306500D01*
X186340449Y-105492663D01*
X186455210Y-105624629D01*
X186460852Y-105631116D01*
X186768992Y-105931311D01*
X187002591Y-106123977D01*
X187100875Y-106205039D01*
X187445531Y-106444385D01*
X187454216Y-106450416D01*
X187454230Y-106450424D01*
X187826613Y-106665778D01*
X187826629Y-106665786D01*
X188215531Y-106849653D01*
X188215543Y-106849658D01*
X188618297Y-107000781D01*
X188618301Y-107000782D01*
X188618311Y-107000786D01*
X189032189Y-107118139D01*
X189454345Y-107200913D01*
X189881894Y-107248543D01*
X190113809Y-107255101D01*
X190311904Y-107260703D01*
X190311908Y-107260702D01*
X190311916Y-107260703D01*
X190741473Y-107237309D01*
X190915043Y-107213366D01*
X190915044Y-107213367D01*
X193500253Y-106856753D01*
X193569352Y-106867092D01*
X193621893Y-106913148D01*
X193641194Y-106980299D01*
X193621126Y-107047225D01*
X193590082Y-107079908D01*
X193473744Y-107164432D01*
X193301169Y-107337007D01*
X193301165Y-107337012D01*
X193157722Y-107534446D01*
X193046923Y-107751901D01*
X192971504Y-107984016D01*
X192933326Y-108225062D01*
X192933326Y-108248500D01*
X192913641Y-108315539D01*
X192860837Y-108361294D01*
X192809326Y-108372500D01*
X189835483Y-108372500D01*
X189768444Y-108352815D01*
X189722689Y-108300011D01*
X189716407Y-108283095D01*
X189689245Y-108189606D01*
X189689244Y-108189603D01*
X189689244Y-108189602D01*
X189605581Y-108048135D01*
X189605579Y-108048133D01*
X189605576Y-108048129D01*
X189489370Y-107931923D01*
X189489362Y-107931917D01*
X189347896Y-107848255D01*
X189347893Y-107848254D01*
X189190073Y-107802402D01*
X189190067Y-107802401D01*
X189153201Y-107799500D01*
X189153194Y-107799500D01*
X187846806Y-107799500D01*
X187846798Y-107799500D01*
X187809932Y-107802401D01*
X187809926Y-107802402D01*
X187652106Y-107848254D01*
X187652103Y-107848255D01*
X187510637Y-107931917D01*
X187510629Y-107931923D01*
X187394423Y-108048129D01*
X187394417Y-108048137D01*
X187310755Y-108189603D01*
X187310754Y-108189606D01*
X187264902Y-108347426D01*
X187264901Y-108347432D01*
X187262000Y-108384298D01*
X187262000Y-108625500D01*
X187242315Y-108692539D01*
X187189511Y-108738294D01*
X187138000Y-108749500D01*
X185971798Y-108749500D01*
X185934932Y-108752401D01*
X185934926Y-108752402D01*
X185777106Y-108798254D01*
X185777103Y-108798255D01*
X185635637Y-108881917D01*
X185635629Y-108881923D01*
X185519423Y-108998129D01*
X185519417Y-108998137D01*
X185435755Y-109139603D01*
X185435754Y-109139606D01*
X185388134Y-109303515D01*
X185385983Y-109302890D01*
X185359153Y-109356191D01*
X185298984Y-109391709D01*
X185229165Y-109389058D01*
X185180907Y-109359173D01*
X181842543Y-106020809D01*
X181809058Y-105959486D01*
X181806224Y-105933128D01*
X181806224Y-102692116D01*
X181825909Y-102625077D01*
X181878713Y-102579322D01*
X181891906Y-102574185D01*
X181990226Y-102542239D01*
X181990229Y-102542238D01*
X182040136Y-102516809D01*
X182140575Y-102465633D01*
X182275333Y-102367724D01*
X182341138Y-102344244D01*
X182404514Y-102357558D01*
X182425494Y-102368248D01*
X182585903Y-102420368D01*
X182752486Y-102446753D01*
X182921142Y-102446753D01*
X183087724Y-102420368D01*
X183248131Y-102368249D01*
X183398406Y-102291679D01*
X183532466Y-102194278D01*
X183598272Y-102170797D01*
X183661647Y-102184110D01*
X183683399Y-102195193D01*
X183683401Y-102195194D01*
X183736717Y-102212517D01*
X183843877Y-102247335D01*
X183921063Y-102259560D01*
X184010531Y-102273731D01*
X184010536Y-102273731D01*
X184179277Y-102273731D01*
X184260069Y-102260934D01*
X184345931Y-102247335D01*
X184506409Y-102195193D01*
X184656755Y-102118588D01*
X184793265Y-102019407D01*
X184793275Y-102019396D01*
X184796063Y-102017016D01*
X184859823Y-101988442D01*
X184928909Y-101998875D01*
G37*
%TD.AperFunction*%
%TA.AperFunction,Conductor*%
G36*
X116473945Y-102168592D02*
G01*
X116480500Y-102168087D01*
X116499540Y-102178347D01*
X116527701Y-102189080D01*
X116661765Y-102286484D01*
X116812036Y-102363052D01*
X116972443Y-102415171D01*
X117139026Y-102441556D01*
X117307682Y-102441556D01*
X117474264Y-102415171D01*
X117634664Y-102363054D01*
X117655649Y-102352361D01*
X117724318Y-102339463D01*
X117784833Y-102362526D01*
X117799666Y-102373303D01*
X117919588Y-102460433D01*
X117919590Y-102460434D01*
X117919593Y-102460436D01*
X117929791Y-102465632D01*
X118069938Y-102537041D01*
X118069941Y-102537042D01*
X118150178Y-102563112D01*
X118230417Y-102589183D01*
X118307603Y-102601408D01*
X118397071Y-102615579D01*
X118397076Y-102615579D01*
X118565817Y-102615579D01*
X118646609Y-102602782D01*
X118732471Y-102589183D01*
X118892949Y-102537041D01*
X119043295Y-102460436D01*
X119179805Y-102361255D01*
X119181109Y-102359950D01*
X119181725Y-102359614D01*
X119183509Y-102358091D01*
X119183828Y-102358465D01*
X119242426Y-102326461D01*
X119312118Y-102331438D01*
X119368056Y-102373303D01*
X119389150Y-102417773D01*
X119490918Y-102828083D01*
X119490924Y-102828102D01*
X119633554Y-103247013D01*
X119633558Y-103247022D01*
X119811254Y-103652304D01*
X120022738Y-104041033D01*
X120240566Y-104371132D01*
X120266474Y-104410392D01*
X120520665Y-104732334D01*
X120540708Y-104757719D01*
X120843436Y-105080481D01*
X120843444Y-105080488D01*
X121172507Y-105376381D01*
X121433128Y-105573409D01*
X121509460Y-105631116D01*
X121525515Y-105643253D01*
X121899914Y-105879176D01*
X121989495Y-105925499D01*
X122293001Y-106082445D01*
X122701924Y-106251587D01*
X122701940Y-106251593D01*
X123123742Y-106385386D01*
X123123740Y-106385386D01*
X123123752Y-106385388D01*
X123123753Y-106385389D01*
X123555414Y-106482874D01*
X123555421Y-106482875D01*
X123555420Y-106482875D01*
X123721175Y-106505749D01*
X123721174Y-106505749D01*
X123726950Y-106506546D01*
X123735088Y-106507669D01*
X123735097Y-106507675D01*
X123809233Y-106517899D01*
X123809242Y-106517903D01*
X123809243Y-106517901D01*
X123869940Y-106526280D01*
X123869989Y-106526279D01*
X124470978Y-106609170D01*
X124590558Y-106625663D01*
X124654279Y-106654323D01*
X124692391Y-106712883D01*
X124692792Y-106782751D01*
X124655355Y-106841745D01*
X124591967Y-106871135D01*
X124573616Y-106872500D01*
X120245596Y-106872500D01*
X120178557Y-106852815D01*
X120157915Y-106836181D01*
X116263819Y-102942085D01*
X116230334Y-102880762D01*
X116227500Y-102854404D01*
X116227500Y-102328587D01*
X116233644Y-102307660D01*
X116235080Y-102285899D01*
X116243294Y-102274797D01*
X116247185Y-102261548D01*
X116263666Y-102247266D01*
X116276640Y-102229734D01*
X116294906Y-102220197D01*
X116299989Y-102215793D01*
X116307522Y-102212648D01*
X116310325Y-102211584D01*
X116376769Y-102189996D01*
X116404528Y-102175852D01*
X116410837Y-102173459D01*
X116439215Y-102171270D01*
X116467188Y-102166017D01*
X116473945Y-102168592D01*
G37*
%TD.AperFunction*%
%TA.AperFunction,Conductor*%
G36*
X145702694Y-98247185D02*
G01*
X145723335Y-98263818D01*
X146652382Y-99192866D01*
X146707495Y-99215694D01*
X146735997Y-99227500D01*
X146735998Y-99227500D01*
X146826503Y-99227500D01*
X155727017Y-99227500D01*
X155794056Y-99247185D01*
X155839811Y-99299989D01*
X155846093Y-99316905D01*
X155873254Y-99410393D01*
X155873255Y-99410396D01*
X155956917Y-99551862D01*
X155956923Y-99551870D01*
X156073129Y-99668076D01*
X156073133Y-99668079D01*
X156073135Y-99668081D01*
X156214602Y-99751744D01*
X156256224Y-99763836D01*
X156372426Y-99797597D01*
X156372429Y-99797597D01*
X156372431Y-99797598D01*
X156409306Y-99800500D01*
X157575500Y-99800500D01*
X157642539Y-99820185D01*
X157688294Y-99872989D01*
X157699500Y-99924500D01*
X157699500Y-100165701D01*
X157702401Y-100202567D01*
X157702402Y-100202573D01*
X157748254Y-100360393D01*
X157748255Y-100360396D01*
X157748256Y-100360398D01*
X157785681Y-100423681D01*
X157831917Y-100501862D01*
X157831923Y-100501870D01*
X157948129Y-100618076D01*
X157948133Y-100618079D01*
X157948135Y-100618081D01*
X158089602Y-100701744D01*
X158131224Y-100713836D01*
X158247426Y-100747597D01*
X158247429Y-100747597D01*
X158247431Y-100747598D01*
X158284306Y-100750500D01*
X159364905Y-100750500D01*
X159431944Y-100770185D01*
X159452586Y-100786819D01*
X159776181Y-101110414D01*
X159809666Y-101171737D01*
X159812500Y-101198095D01*
X159812500Y-103860299D01*
X159792815Y-103927338D01*
X159740011Y-103973093D01*
X159707901Y-103982772D01*
X159684092Y-103986543D01*
X159676924Y-103987679D01*
X159512724Y-104041031D01*
X159444812Y-104063097D01*
X159227357Y-104173896D01*
X159029923Y-104317339D01*
X159029918Y-104317343D01*
X158857343Y-104489918D01*
X158857339Y-104489923D01*
X158713896Y-104687357D01*
X158603097Y-104904812D01*
X158527678Y-105136927D01*
X158498609Y-105320460D01*
X158489500Y-105377973D01*
X158489500Y-105622027D01*
X158490939Y-105631114D01*
X158518255Y-105803580D01*
X158527679Y-105863076D01*
X158601882Y-106091450D01*
X158603097Y-106095187D01*
X158713896Y-106312643D01*
X158796701Y-106426615D01*
X158820181Y-106492421D01*
X158804355Y-106560475D01*
X158754249Y-106609170D01*
X158696383Y-106623500D01*
X156303617Y-106623500D01*
X156236578Y-106603815D01*
X156190823Y-106551011D01*
X156180879Y-106481853D01*
X156203299Y-106426615D01*
X156286103Y-106312643D01*
X156286104Y-106312642D01*
X156286106Y-106312639D01*
X156396904Y-106095185D01*
X156472321Y-105863076D01*
X156510500Y-105622027D01*
X156510500Y-105377973D01*
X156472321Y-105136924D01*
X156396904Y-104904815D01*
X156286106Y-104687361D01*
X156245920Y-104632049D01*
X156142660Y-104489923D01*
X156142656Y-104489918D01*
X155970081Y-104317343D01*
X155970076Y-104317339D01*
X155772642Y-104173896D01*
X155772641Y-104173895D01*
X155772639Y-104173894D01*
X155555185Y-104063096D01*
X155323076Y-103987679D01*
X155323074Y-103987678D01*
X155323072Y-103987678D01*
X155154769Y-103961021D01*
X155082027Y-103949500D01*
X154837973Y-103949500D01*
X154782093Y-103958350D01*
X154596927Y-103987678D01*
X154364812Y-104063097D01*
X154147357Y-104173896D01*
X153949923Y-104317339D01*
X153949918Y-104317343D01*
X153777343Y-104489918D01*
X153777339Y-104489923D01*
X153633896Y-104687357D01*
X153523097Y-104904812D01*
X153447678Y-105136927D01*
X153418609Y-105320460D01*
X153409500Y-105377973D01*
X153409500Y-105622027D01*
X153410939Y-105631114D01*
X153438255Y-105803580D01*
X153447679Y-105863076D01*
X153521882Y-106091450D01*
X153523097Y-106095187D01*
X153633896Y-106312643D01*
X153716701Y-106426615D01*
X153740181Y-106492421D01*
X153724355Y-106560475D01*
X153674249Y-106609170D01*
X153616383Y-106623500D01*
X146383617Y-106623500D01*
X146316578Y-106603815D01*
X146270823Y-106551011D01*
X146260879Y-106481853D01*
X146283299Y-106426615D01*
X146366103Y-106312643D01*
X146366104Y-106312642D01*
X146366106Y-106312639D01*
X146476904Y-106095185D01*
X146552321Y-105863076D01*
X146590500Y-105622027D01*
X146590500Y-105377973D01*
X146552321Y-105136924D01*
X146476904Y-104904815D01*
X146366106Y-104687361D01*
X146325920Y-104632049D01*
X146222660Y-104489923D01*
X146222656Y-104489918D01*
X146050081Y-104317343D01*
X146050076Y-104317339D01*
X145852642Y-104173896D01*
X145852641Y-104173895D01*
X145852639Y-104173894D01*
X145635185Y-104063096D01*
X145403076Y-103987679D01*
X145391433Y-103985834D01*
X145372099Y-103982772D01*
X145308965Y-103952840D01*
X145272035Y-103893528D01*
X145267500Y-103860299D01*
X145267500Y-101594748D01*
X145267500Y-101594747D01*
X145232865Y-101511132D01*
X145168868Y-101447135D01*
X143846267Y-100124534D01*
X142478870Y-98757136D01*
X142468438Y-98752815D01*
X142395253Y-98722500D01*
X136272983Y-98722500D01*
X136205944Y-98702815D01*
X136160189Y-98650011D01*
X136153907Y-98633095D01*
X136126745Y-98539606D01*
X136126744Y-98539603D01*
X136126744Y-98539602D01*
X136066008Y-98436902D01*
X136052831Y-98414621D01*
X136035648Y-98346897D01*
X136057808Y-98280634D01*
X136112274Y-98236871D01*
X136159563Y-98227500D01*
X145635655Y-98227500D01*
X145702694Y-98247185D01*
G37*
%TD.AperFunction*%
%TA.AperFunction,Conductor*%
G36*
X160331244Y-100164210D02*
G01*
X160367737Y-100189470D01*
X160986181Y-100807914D01*
X161019666Y-100869237D01*
X161022500Y-100895595D01*
X161022500Y-103545253D01*
X161057136Y-103628870D01*
X163255135Y-105826868D01*
X163319132Y-105890865D01*
X163402747Y-105925500D01*
X163550804Y-105925500D01*
X163617843Y-105945185D01*
X163663598Y-105997989D01*
X163673542Y-106067147D01*
X163644517Y-106130703D01*
X163638485Y-106137181D01*
X163188486Y-106587181D01*
X163127163Y-106620666D01*
X163100805Y-106623500D01*
X161383617Y-106623500D01*
X161316578Y-106603815D01*
X161270823Y-106551011D01*
X161260879Y-106481853D01*
X161283299Y-106426615D01*
X161366103Y-106312643D01*
X161366104Y-106312642D01*
X161366106Y-106312639D01*
X161476904Y-106095185D01*
X161552321Y-105863076D01*
X161590500Y-105622027D01*
X161590500Y-105377973D01*
X161552321Y-105136924D01*
X161476904Y-104904815D01*
X161366106Y-104687361D01*
X161325920Y-104632049D01*
X161222660Y-104489923D01*
X161222656Y-104489918D01*
X161050081Y-104317343D01*
X161050076Y-104317339D01*
X160852642Y-104173896D01*
X160852641Y-104173895D01*
X160852639Y-104173894D01*
X160635185Y-104063096D01*
X160403076Y-103987679D01*
X160391433Y-103985834D01*
X160372099Y-103982772D01*
X160308965Y-103952840D01*
X160272035Y-103893528D01*
X160267500Y-103860299D01*
X160267500Y-101007248D01*
X160267500Y-101007247D01*
X160232865Y-100923632D01*
X160168868Y-100859635D01*
X160014770Y-100705537D01*
X159981285Y-100644214D01*
X159986269Y-100574522D01*
X160014767Y-100530177D01*
X160043081Y-100501865D01*
X160126744Y-100360398D01*
X160160981Y-100242553D01*
X160198585Y-100183671D01*
X160262058Y-100154464D01*
X160331244Y-100164210D01*
G37*
%TD.AperFunction*%
%TA.AperFunction,Conductor*%
G36*
X146951403Y-95322048D02*
G01*
X146997158Y-95374852D01*
X147007102Y-95444010D01*
X146978077Y-95507566D01*
X146922682Y-95544293D01*
X146864815Y-95563096D01*
X146864812Y-95563097D01*
X146647357Y-95673896D01*
X146449923Y-95817339D01*
X146449918Y-95817343D01*
X146277343Y-95989918D01*
X146277339Y-95989923D01*
X146133896Y-96187357D01*
X146023097Y-96404812D01*
X145947678Y-96636926D01*
X145934854Y-96717898D01*
X145904925Y-96781032D01*
X145845614Y-96817964D01*
X145812381Y-96822500D01*
X136272983Y-96822500D01*
X136205944Y-96802815D01*
X136160189Y-96750011D01*
X136153907Y-96733095D01*
X136126745Y-96639606D01*
X136126744Y-96639603D01*
X136126744Y-96639602D01*
X136043081Y-96498135D01*
X136043079Y-96498133D01*
X136043076Y-96498129D01*
X135926870Y-96381923D01*
X135926862Y-96381917D01*
X135785396Y-96298255D01*
X135785393Y-96298254D01*
X135627573Y-96252402D01*
X135627567Y-96252401D01*
X135590701Y-96249500D01*
X135590694Y-96249500D01*
X134284306Y-96249500D01*
X134284298Y-96249500D01*
X134247432Y-96252401D01*
X134247426Y-96252402D01*
X134089606Y-96298254D01*
X134089603Y-96298255D01*
X133948137Y-96381917D01*
X133948129Y-96381923D01*
X133831923Y-96498129D01*
X133831917Y-96498137D01*
X133748255Y-96639603D01*
X133748254Y-96639606D01*
X133702402Y-96797426D01*
X133702401Y-96797432D01*
X133699500Y-96834298D01*
X133699500Y-97075500D01*
X133679815Y-97142539D01*
X133627011Y-97188294D01*
X133575500Y-97199500D01*
X132409298Y-97199500D01*
X132372432Y-97202401D01*
X132372426Y-97202402D01*
X132214606Y-97248254D01*
X132214603Y-97248255D01*
X132073137Y-97331917D01*
X132073129Y-97331923D01*
X131956923Y-97448129D01*
X131956917Y-97448137D01*
X131873255Y-97589603D01*
X131873254Y-97589606D01*
X131827402Y-97747426D01*
X131827401Y-97747432D01*
X131824500Y-97784298D01*
X131824500Y-98215701D01*
X131827401Y-98252567D01*
X131827402Y-98252573D01*
X131873254Y-98410393D01*
X131873255Y-98410396D01*
X131873256Y-98410398D01*
X131894099Y-98445641D01*
X131956917Y-98551862D01*
X131956923Y-98551870D01*
X132073129Y-98668076D01*
X132073133Y-98668079D01*
X132073135Y-98668081D01*
X132214602Y-98751744D01*
X132256224Y-98763836D01*
X132372426Y-98797597D01*
X132372429Y-98797597D01*
X132372431Y-98797598D01*
X132409306Y-98800500D01*
X133575500Y-98800500D01*
X133642539Y-98820185D01*
X133688294Y-98872989D01*
X133699500Y-98924500D01*
X133699500Y-99165701D01*
X133702401Y-99202567D01*
X133702402Y-99202573D01*
X133748254Y-99360393D01*
X133748255Y-99360396D01*
X133831917Y-99501862D01*
X133831923Y-99501870D01*
X133948129Y-99618076D01*
X133948133Y-99618079D01*
X133948135Y-99618081D01*
X134089602Y-99701744D01*
X134131224Y-99713836D01*
X134247426Y-99747597D01*
X134247429Y-99747597D01*
X134247431Y-99747598D01*
X134284306Y-99750500D01*
X134284314Y-99750500D01*
X135590686Y-99750500D01*
X135590694Y-99750500D01*
X135627569Y-99747598D01*
X135627571Y-99747597D01*
X135627573Y-99747597D01*
X135669191Y-99735505D01*
X135785398Y-99701744D01*
X135926865Y-99618081D01*
X136043081Y-99501865D01*
X136126744Y-99360398D01*
X136144295Y-99299989D01*
X136153907Y-99266905D01*
X136191513Y-99208019D01*
X136254986Y-99178813D01*
X136272983Y-99177500D01*
X142204405Y-99177500D01*
X142271444Y-99197185D01*
X142292086Y-99213819D01*
X144776181Y-101697914D01*
X144809666Y-101759237D01*
X144812500Y-101785595D01*
X144812500Y-103860299D01*
X144792815Y-103927338D01*
X144740011Y-103973093D01*
X144707901Y-103982772D01*
X144684092Y-103986543D01*
X144676924Y-103987679D01*
X144512724Y-104041031D01*
X144444812Y-104063097D01*
X144227357Y-104173896D01*
X144029927Y-104317336D01*
X144028414Y-104318629D01*
X144027720Y-104318939D01*
X144025975Y-104320208D01*
X144025708Y-104319841D01*
X143964653Y-104347200D01*
X143895567Y-104336763D01*
X143843090Y-104290633D01*
X143832208Y-104269014D01*
X143827500Y-104256824D01*
X143827500Y-104254747D01*
X143816214Y-104227500D01*
X143792866Y-104171132D01*
X141524868Y-101903135D01*
X141441253Y-101868500D01*
X132758747Y-101868500D01*
X132749839Y-101872190D01*
X132675132Y-101903134D01*
X132675131Y-101903134D01*
X132675129Y-101903136D01*
X129752890Y-104825376D01*
X129691567Y-104858861D01*
X129621875Y-104853877D01*
X129565942Y-104812005D01*
X129541525Y-104746541D01*
X129556377Y-104678268D01*
X129569550Y-104658794D01*
X129591610Y-104632053D01*
X129842678Y-104268905D01*
X130062069Y-103885788D01*
X130248206Y-103485458D01*
X130399750Y-103070794D01*
X130515610Y-102644780D01*
X130551645Y-102447499D01*
X130555275Y-102427629D01*
X130562442Y-102388397D01*
X130562438Y-102388383D01*
X130563702Y-102381462D01*
X130665665Y-101823356D01*
X130861517Y-100610520D01*
X130880297Y-100476776D01*
X131032349Y-99393903D01*
X131178083Y-98174047D01*
X131298663Y-96951441D01*
X131307784Y-96834306D01*
X131394038Y-95726580D01*
X131411606Y-95419283D01*
X131435085Y-95353479D01*
X131490414Y-95310812D01*
X131535404Y-95302363D01*
X146884364Y-95302363D01*
X146951403Y-95322048D01*
G37*
%TD.AperFunction*%
%TD*%
M02*
