M48
; DRILL file {KiCad 9.0.6} date 2025-12-28T18:57:21+0100
; FORMAT={-:-/ absolute / metric / decimal}
; #@! TF.CreationDate,2025-12-28T18:57:21+01:00
; #@! TF.GenerationSoftware,Kicad,Pcbnew,9.0.6
; #@! TF.FileFunction,Plated,1,2,PTH
FMAT,2
METRIC
; #@! TA.AperFunction,Plated,PTH,ViaDrill
T1C0.300
; #@! TA.AperFunction,Plated,PTH,ComponentDrill
T2C0.635
; #@! TA.AperFunction,Plated,PTH,ComponentDrill
T3C0.762
; #@! TA.AperFunction,Plated,PTH,ComponentDrill
T4C1.000
; #@! TA.AperFunction,Plated,PTH,ComponentDrill
T5C1.100
; #@! TA.AperFunction,Plated,PTH,ComponentDrill
T6C2.700
%
G90
G05
T1
X115.0Y-128.0
X117.0Y-103.0
X121.3Y-111.125
X122.2Y-114.025
X122.275Y-119.375
X122.475Y-130.875
X124.0Y-113.369
X125.334Y-112.036
X128.5Y-121.25
X133.7Y-114.4
X134.45Y-109.65
X137.0Y-105.8
X143.9Y-103.1
X150.325Y-100.05
X151.8Y-103.8
X162.25Y-105.5
X165.303Y-109.105
X165.8Y-114.75
X167.0Y-110.25
X167.25Y-108.9
X167.5Y-120.75
X168.4Y-109.338
X170.0Y-109.5
X172.9Y-107.3
X177.422Y-120.0
X178.0Y-122.5
X180.0Y-122.5
X180.75Y-107.0
X183.0Y-103.0
X186.0Y-122.0
X187.0Y-119.923
X188.0Y-122.595
X190.425Y-113.9
X192.409Y-122.267
X192.5Y-111.0
X194.0Y-127.5
X194.5Y-119.0
X196.96Y-137.1
X197.589Y-123.04
X199.275Y-110.075
X199.6Y-122.675
X199.75Y-118.25
X201.0Y-132.0
X201.1Y-129.5
X202.61Y-137.102
X202.61Y-139.642
X204.0Y-122.0
X204.296Y-133.354
X204.331Y-124.569
X204.4Y-118.967
X204.75Y-138.0
X205.0Y-119.75
X206.0Y-127.0
X206.5Y-125.0
X206.5Y-130.5
X208.2Y-124.6
X218.3Y-143.1
X220.39Y-128.212
X220.39Y-134.562
X220.4Y-124.7
T2
X115.965Y-101.197
X117.223Y-101.37
X118.481Y-101.544
X181.579Y-101.549
X182.837Y-101.375
X184.095Y-101.202
T3
X219.75Y-108.0
X219.75Y-110.5
X219.75Y-113.0
T4
X127.92Y-112.0
X127.92Y-119.2
X130.46Y-112.0
X130.46Y-119.2
X133.0Y-112.0
X133.0Y-119.2
X133.0Y-123.23
X133.0Y-125.77
X133.0Y-128.31
X133.0Y-130.85
X167.0Y-112.0
X167.0Y-119.2
X167.0Y-122.5
X169.54Y-112.0
X169.54Y-119.2
X169.8Y-122.5
X172.08Y-112.0
X172.08Y-119.2
X194.65Y-132.25
X194.65Y-134.79
X194.65Y-137.33
X194.65Y-139.87
T5
X109.46Y-136.5
X114.54Y-136.5
X117.46Y-128.5
X117.46Y-144.5
X122.54Y-128.5
X122.54Y-144.5
X125.46Y-136.5
X130.54Y-136.5
X139.96Y-105.5
X145.04Y-105.5
X147.46Y-97.0
X152.54Y-97.0
X154.96Y-105.5
X160.04Y-105.5
X185.96Y-116.5
X191.04Y-116.5
X194.46Y-125.0
X194.484Y-108.347
X199.516Y-107.653
X199.54Y-125.0
X202.96Y-116.5
X208.04Y-116.5
T6
X110.75Y-144.0
X127.5Y-127.25
X164.75Y-98.25
X180.5Y-111.75
X206.75Y-105.5
M30
