%TF.GenerationSoftware,KiCad,Pcbnew,9.0.6*%
%TF.CreationDate,2025-12-28T18:57:25+01:00*%
%TF.ProjectId,pcb_phone_controller,7063625f-7068-46f6-9e65-5f636f6e7472,rev?*%
%TF.SameCoordinates,Original*%
%TF.FileFunction,Paste,Top*%
%TF.FilePolarity,Positive*%
%FSLAX46Y46*%
G04 Gerber Fmt 4.6, Leading zero omitted, Abs format (unit mm)*
G04 Created by KiCad (PCBNEW 9.0.6) date 2025-12-28 18:57:25*
%MOMM*%
%LPD*%
G01*
G04 APERTURE LIST*
G04 Aperture macros list*
%AMRoundRect*
0 Rectangle with rounded corners*
0 $1 Rounding radius*
0 $2 $3 $4 $5 $6 $7 $8 $9 X,Y pos of 4 corners*
0 Add a 4 corners polygon primitive as box body*
4,1,4,$2,$3,$4,$5,$6,$7,$8,$9,$2,$3,0*
0 Add four circle primitives for the rounded corners*
1,1,$1+$1,$2,$3*
1,1,$1+$1,$4,$5*
1,1,$1+$1,$6,$7*
1,1,$1+$1,$8,$9*
0 Add four rect primitives between the rounded corners*
20,1,$1+$1,$2,$3,$4,$5,0*
20,1,$1+$1,$4,$5,$6,$7,0*
20,1,$1+$1,$6,$7,$8,$9,0*
20,1,$1+$1,$8,$9,$2,$3,0*%
G04 Aperture macros list end*
%ADD10RoundRect,0.250000X0.337500X0.475000X-0.337500X0.475000X-0.337500X-0.475000X0.337500X-0.475000X0*%
%ADD11RoundRect,0.250000X-0.350000X-0.450000X0.350000X-0.450000X0.350000X0.450000X-0.350000X0.450000X0*%
%ADD12RoundRect,0.150000X0.587500X0.150000X-0.587500X0.150000X-0.587500X-0.150000X0.587500X-0.150000X0*%
%ADD13RoundRect,0.150000X-0.587500X-0.150000X0.587500X-0.150000X0.587500X0.150000X-0.587500X0.150000X0*%
%ADD14RoundRect,0.250000X0.500000X-0.250000X0.500000X0.250000X-0.500000X0.250000X-0.500000X-0.250000X0*%
%ADD15RoundRect,0.250000X-0.500000X0.250000X-0.500000X-0.250000X0.500000X-0.250000X0.500000X0.250000X0*%
G04 APERTURE END LIST*
D10*
%TO.C,C1*%
X178000000Y-122500000D03*
X175925000Y-122500000D03*
%TD*%
D11*
%TO.C,R1*%
X180000000Y-122500000D03*
X182000000Y-122500000D03*
%TD*%
D12*
%TO.C,D3*%
X134937500Y-98950000D03*
X134937500Y-97050000D03*
X133062500Y-98000000D03*
%TD*%
%TO.C,D7*%
X129500000Y-144400000D03*
X129500000Y-142500000D03*
X127625000Y-143450000D03*
%TD*%
D13*
%TO.C,D5*%
X212062500Y-121050000D03*
X212062500Y-122950000D03*
X213937500Y-122000000D03*
%TD*%
D12*
%TO.C,D6*%
X188500000Y-110500000D03*
X188500000Y-108600000D03*
X186625000Y-109550000D03*
%TD*%
D13*
%TO.C,D2*%
X168662500Y-114650000D03*
X168662500Y-116550000D03*
X170537500Y-115600000D03*
%TD*%
%TO.C,D8*%
X113062500Y-130450000D03*
X113062500Y-132350000D03*
X114937500Y-131400000D03*
%TD*%
D12*
%TO.C,D4*%
X158937500Y-99950000D03*
X158937500Y-98050000D03*
X157062500Y-99000000D03*
%TD*%
D14*
%TO.C,U1*%
X220390000Y-142181871D03*
X220390000Y-139641871D03*
X220390000Y-137101871D03*
D15*
X202610000Y-137101871D03*
D14*
X220390000Y-134561871D03*
X220390000Y-132021871D03*
D15*
X202610000Y-142181871D03*
D14*
X220390000Y-129481871D03*
D15*
X202610000Y-129481871D03*
X202610000Y-132021871D03*
X202610000Y-134561871D03*
D14*
X220390000Y-128211871D03*
D15*
X202610000Y-128211871D03*
X202610000Y-130751871D03*
X202610000Y-133291871D03*
D14*
X220390000Y-140911871D03*
X220390000Y-138371871D03*
X220390000Y-135831871D03*
X220390000Y-133291871D03*
X220390000Y-130751871D03*
X220390000Y-126941871D03*
D15*
X202610000Y-126941871D03*
X202610000Y-139641871D03*
%TD*%
D11*
%TO.C,R2*%
X172000000Y-122500000D03*
X174000000Y-122500000D03*
%TD*%
D13*
%TO.C,D1*%
X130862500Y-114650000D03*
X130862500Y-116550000D03*
X132737500Y-115600000D03*
%TD*%
M02*
